<svg id="Grupo_137621" data-name="Grupo 137621" xmlns="http://www.w3.org/2000/svg" xmlns:xlink="http://www.w3.org/1999/xlink" width="189" height="188.997" viewBox="0 0 189 188.997">
  <defs>
    <clipPath id="clip-path">
      <rect id="Rectángulo_88016" data-name="Rectángulo 88016" width="189" height="188.997" fill="none"/>
    </clipPath>
  </defs>
  <g id="Grupo_137621-2" data-name="Grupo 137621" transform="translate(0 0)" clip-path="url(#clip-path)">
    <path id="Trazado_203975" data-name="Trazado 203975" d="M57.5,40.347c4.975.631,10.049.962,14,4.671A14.088,14.088,0,0,1,76.3,54.74c.136,2.548.012,5.109,0,7.665a3.394,3.394,0,0,1-2.412.582c-2.348.027-4.7-.009-7.046.016-2.281.025-2.457.181-2.467,2.451-.025,6.327,0,12.654-.016,18.98a5.691,5.691,0,0,1-.435,3.058,3.07,3.07,0,0,1-2.392.635c-3.99.023-7.981.086-11.97-.012a11.5,11.5,0,0,1-11.56-11.67c-.108-10.465-.036-20.93-.023-31.4a4.131,4.131,0,0,1,.374-2.1c1.26-.784,1.219.541,1.5,1.043a9.609,9.609,0,0,0,6.318,5.067,8.741,8.741,0,0,0,2.889.192,8.852,8.852,0,0,0,7.79-7.132c.139-.616.041-1.327.649-1.773" transform="translate(21.219 22.56)" fill="#e4eef7"/>
    <path id="Trazado_203976" data-name="Trazado 203976" d="M45.846.08C50.162.059,54.482-.07,58.8.05c4.034.112,7.763,3.832,8.257,8.119.115,1.007.376,1.211,1.353,1.327a9.351,9.351,0,0,1,8.148,9.261c.086,4.49-1.052,8.773-1.988,13.1a21.279,21.279,0,0,1-7.175-.058,1.319,1.319,0,0,1-.737-1.286c-.028-3.642-3.26-4.957-5.22-7.185-.474-.539-1.1-.2-1.573.209-5.257,4.5-11.514,5.585-18.167,5.329-.783.047-1.565.041-2.345.019-1.592-.044-3.2-.228-3.39,2.091-.055.67-.7.878-1.372.7a2.379,2.379,0,0,1-1.021-1.815A53.313,53.313,0,0,1,32,15.267c.39-6.795,3.72-11.709,10.013-14.506C43.239.215,44.575.339,45.846.08" transform="translate(17.861 0)" fill="#686868"/>
    <path id="Trazado_203977" data-name="Trazado 203977" d="M63.716,74.924q-.019,26.711-.036,53.422a2.165,2.165,0,0,1-1.62.582c-3.076.065-6.154.059-9.23,0-1.551-.028-2.22-.872-2.261-2.359-.051-1.9-.027-3.8-.028-5.7-.006-11.129.009-22.26-.012-33.391,0-2.354-.267-2.571-2.612-2.545-2.159.023-2.406.248-2.409,2.563-.017,11.786.006,23.57-.027,35.356,0,1.187.5,2.849-.8,3.383-1.381.566-2.309-.909-3.187-1.834A12.235,12.235,0,0,1,38,115.88c-.092-12.964-.044-25.927-.027-38.892a3.263,3.263,0,0,1,.554-2.241,4.7,4.7,0,0,1,2.841-.507q9.692-.021,19.383,0c1.031,0,2.114-.137,2.966.681" transform="translate(21.217 41.507)" fill="#a7e446"/>
    <path id="Trazado_203978" data-name="Trazado 203978" d="M106.532,97.073v25.14a3.358,3.358,0,0,1-2.584.635q-16.334.023-32.668,0a5.6,5.6,0,0,1-2.12-.273,1.392,1.392,0,0,1-.583-.511,5.85,5.85,0,0,1-.363-2.686q-.016-9.682,0-19.365a4.5,4.5,0,0,1,.58-3.008,4.214,4.214,0,0,1,2.819-.577q16.065-.023,32.133,0c.965,0,1.983-.12,2.783.642" transform="translate(38.138 53.913)" fill="#a7e446"/>
    <path id="Trazado_203979" data-name="Trazado 203979" d="M40.6,74.966c0,13.365.03,26.732-.008,40.1A13.043,13.043,0,0,0,45.316,125.4c.387.338.8.887,1.324.638.547-.264.242-.943.242-1.427.017-12.645.055-25.29-.031-37.934-.012-1.9.5-2.454,2.4-2.387,3.935.14,3.938.037,3.938,3.94q0,18.673,0,37.345c0,3.151-.323,2.771,2.88,2.788s6.421.006,9.633.008q.033,3.115.067,6.232a2.534,2.534,0,0,1-2.156.663c-3.443.012-6.885.081-10.326-.03-2.125.055-4.25.065-6.375,0-3.407.081-6.812.027-10.219.027a3.975,3.975,0,0,1-2.1-.379c-.087-.09-.173-.184-.259-.276l.009-59.657a6.7,6.7,0,0,1,6.255.016" transform="translate(19.198 41.48)" fill="#85b638"/>
    <path id="Trazado_203980" data-name="Trazado 203980" d="M45.344,93.888l-6.255-.016q-.021-6.329-.041-12.659a7.416,7.416,0,0,1,0-6.232c0-3.6-.039-7.2.036-10.794.028-1.336-.345-1.988-1.751-2.267-2.616-.519-5.2-1.238-7.776-1.922-3.7-.979-2.975-.321-3.1-3.937-.8-.982-.519-2.147-.554-3.26-.112-3.4-.039-6.8-.039-10.2a2.988,2.988,0,0,1,.591-2.214q9.416-.023,18.833-.048a1.857,1.857,0,0,1,.345,2.371c-.479.645-.276,1.391-.276,2.092q-.021,15.6-.009,31.2c0,6.859,4.687,11.519,11.575,11.522q6.773,0,13.543,0a4.358,4.358,0,0,1,.065,4.7l-.051,1.64-25.138.016" transform="translate(14.451 22.558)" fill="#c4dcee"/>
    <path id="Trazado_203981" data-name="Trazado 203981" d="M38.582,20.374c3.53-.037,7.054-.067,10.459-1.226a19.016,19.016,0,0,0,7.235-4.2c.979-.945,1.545-.8,2.339.115A20.51,20.51,0,0,0,61.25,17.7c1.863,1.492,2.9,3.276,2.509,5.725a3.08,3.08,0,0,1,.578,2.022q.047,5.854,0,11.708a2.72,2.72,0,0,1-.6,2c-1.24,3.734-2.928,7.169-6.315,9.47a7.769,7.769,0,0,1-8.688,2.688,16.214,16.214,0,0,1-10.722-15.6q-.03-6.368,0-12.74c0-.9-.153-1.852.574-2.6" transform="translate(21.244 8)" fill="#f1b8a0"/>
    <path id="Trazado_203982" data-name="Trazado 203982" d="M6.068,142.232q.007-39.586.016-79.17c0-2.537,0-2.538,2.541-2.538,1.244,0,2.488.009,3.733.014.862,1.007.627,2.233.628,3.386q.021,31.508.011,63.017c0,.915-.011,1.832.034,2.747A5.732,5.732,0,0,0,16.6,134.9a6.124,6.124,0,0,1,2.049,1.124q.014,3.106.03,6.212a2.074,2.074,0,0,1-1.749.661q-4.556.1-9.11,0a2.077,2.077,0,0,1-1.751-.661" transform="translate(3.393 33.843)" fill="#c4dcee"/>
    <path id="Trazado_203983" data-name="Trazado 203983" d="M119.759,136.021q.016,3.106.031,6.212a2.077,2.077,0,0,1-1.751.661q-4.556.1-9.11,0a2.077,2.077,0,0,1-1.751-.661q0-36.15,0-72.3a7.427,7.427,0,0,1,0-6.232c.111-3.546-.6-3.14,3.195-3.171,1.031-.009,2.061.008,3.092.014.864,1.006.627,2.231.628,3.385q.021,31.51.011,63.017c0,.917-.011,1.832.036,2.747a5.725,5.725,0,0,0,3.567,5.208,6.124,6.124,0,0,1,2.049,1.124" transform="translate(59.548 33.842)" fill="#c4dcee"/>
    <path id="Trazado_203984" data-name="Trazado 203984" d="M36.58,50.568q-.014,6.284-.03,12.567c-.242.1.1.086-.154.115-4.6.538-9.233,1.179-13.658-.734a8.56,8.56,0,0,1-4.5-4.73C15.054,50.046,11.8,42.331,9,34.445a23.218,23.218,0,0,1-1.244-6.924,7.471,7.471,0,0,1,.909-4.149c3.207-2.64,9.31-.907,10.9,4.024,2.306,7.144,4.779,14.234,7.075,21.381a2.113,2.113,0,0,0,2.476,1.79c2.484-.106,4.977-.009,7.465,0" transform="translate(4.329 12.381)" fill="#f1b8a0"/>
    <path id="Trazado_203985" data-name="Trazado 203985" d="M106.564,101.593l-37.683.056c-.086-.094-.173-.189-.26-.281-.469-4.135-.865-8.27.231-12.377l.008-.053c2.05-1.034,4.236-.387,6.36-.516q9.367-.122,18.733,0c2.125.137,4.322-.549,6.365.544,3.868.2,6.3,2.716,6.3,6.539,0,2.03-.033,4.059-.051,6.089" transform="translate(38.105 49.393)" fill="#feca2e"/>
    <path id="Trazado_203986" data-name="Trazado 203986" d="M117.258,136.043c-4-.345-6.271-2.794-6.273-6.807q-.014-34.337-.019-68.673a37.344,37.344,0,0,0,3.921-.042c1.855-.207,2.446.405,2.431,2.339-.092,11.379-.044,22.759-.045,34.139q0,19.521-.016,39.045" transform="translate(62.048 33.819)" fill="#e4eef7"/>
    <path id="Trazado_203987" data-name="Trazado 203987" d="M16.393,136.042c-4-.345-6.271-2.794-6.273-6.807Q10.107,94.9,10.1,60.561c1.358-.006,2.727.1,4.071-.044,1.782-.187,2.534.444,2.244,2.244a5.909,5.909,0,0,0,0,.968,7.393,7.393,0,0,1,0,6.212q-.014,33.049-.028,66.1" transform="translate(5.649 33.821)" fill="#e4eef7"/>
    <path id="Trazado_203988" data-name="Trazado 203988" d="M45.142,18.231c-.008,5.5-.084,11,0,16.49.1,6.466,5.432,12.966,11.653,14.418a4.834,4.834,0,0,0,3.226-.513c1.356-.636,2.643-1.419,3.959-2.139q-.019,1.565-.036,3.128c-1.171,2-3.28,2.484-5.24,3.09a15.193,15.193,0,0,1-8.129.089c-1.689-.4-1.975-.067-1.617,1.64a9.242,9.242,0,0,0,3.87,5.693c.563.409,1.324.639,1.428,1.494-.5.652-1.121.391-1.728.228-3.812-.716-5.94-3.213-7.122-6.717q-.173-1.186-.345-2.371c.02-.583,0-1.172.067-1.749A7.324,7.324,0,0,0,42.6,43.97,11.6,11.6,0,0,1,39.194,37.1c-.318-.592-.09-1.185-.156-1.667-.217.387.215,1.063-.22,1.547-1.7.019-3.4.112-5.1.039a7.856,7.856,0,0,1-3.865-14.428c.491-.32,1.017-.589,1.526-.881,1.988-1.409,4.088-1.257,6.237-.455,1.021.218,1.332-.334,1.2-1.2-.262-1.664.564-2.008,2.014-1.9,1.431.109,2.875.055,4.314.073" transform="translate(14.685 10.142)" fill="#cf8c78"/>
    <path id="Trazado_203989" data-name="Trazado 203989" d="M100.063,98.88H93.792c-.742-.815-.607-1.832-.611-2.8-.02-4.844.016-9.687-.017-14.531-.023-3.263-.8-4.009-4.1-4.032q-4.713-.03-9.427,0c-3.309.023-4.08.769-4.1,4.032-.033,4.844,0,9.687-.017,14.531,0,.968.131,1.985-.611,2.8l-6.3-.027c0-6.084,0-12.168.019-18.25.022-6,3.97-9.961,9.946-9.988q5.788-.026,11.58,0c5.889.028,9.891,3.976,9.916,9.818.027,6.148,0,12.3,0,18.446" transform="translate(38.361 39.478)" fill="#5b5b5b"/>
    <path id="Trazado_203990" data-name="Trazado 203990" d="M132,62.565V68.8q-34.581.009-69.163.017a7.051,7.051,0,0,1,0-6.266L132,62.565" transform="translate(34.727 34.974)" fill="#5b5b5b"/>
    <path id="Trazado_203991" data-name="Trazado 203991" d="M67.113,67.079v6.266q-.012,4.4-.023,8.8c-.014,3.628-1.96,6.229-5.13,6.865-3.026.608-5.722-1.037-7.178-4.37a1.37,1.37,0,0,0-.251-.292q-.033-2.35-.065-4.7c.014-7.694.072-15.39.009-23.083-.012-1.575.34-2.178,2.032-2.113,3.517.139,7.041.061,10.563.073q.021,6.277.044,12.557" transform="translate(30.455 30.443)" fill="#f1b8a0"/>
    <path id="Trazado_203992" data-name="Trazado 203992" d="M49.168,113.048h6.313c.784.878.568,1.963.6,2.986.073,2.492.162,2.612,2.708,2.623,4.238.019,8.474-.008,12.712.014.962,0,1.979-.136,2.782.624.051,2.016.848,4.587-.259,5.889-1.056,1.241-3.7.359-5.633.365-12.051.037-24.1-.006-36.152.05-1.467.006-2.153-.264-1.957-1.89a32.675,32.675,0,0,0,.03-3.73c.022-4.211,2.067-6.494,6.31-7.043l-.008.048a2.576,2.576,0,0,1,.346.471c2.329,4.911,5.089,6.273,10.487,5.256,1.054-.2,1.123-.862,1.193-1.687.114-1.332-.376-2.75.532-3.976" transform="translate(16.912 63.149)" fill="#785349"/>
    <path id="Trazado_203993" data-name="Trazado 203993" d="M108.554,119.533c-.165,3.65-2.618,6.227-6.181,6.244q-15.8.073-31.593,0a6.14,6.14,0,0,1-6.179-6.09c-.062-2.155.022-4.314.041-6.471a7.651,7.651,0,0,1,6.226-.062l.008.129a2.276,2.276,0,0,1,.638.973c1.071,3.469,3.541,4.7,7.021,4.676,9.012-.067,18.025-.031,27.037-.014,1.024,0,2.114-.19,2.983.616" transform="translate(36.11 62.918)" fill="#cba124"/>
    <path id="Trazado_203994" data-name="Trazado 203994" d="M106.3,119.288q-15.52-.012-31.041-.028c-3.915-.006-6.321-2.279-6.639-6.223l37.687-.075q0,3.164-.006,6.326" transform="translate(38.367 63.164)" fill="#feca2e"/>
    <path id="Trazado_203995" data-name="Trazado 203995" d="M31.025,119.419c.1.312.22.619.287.937.953,4.462.554,4.966-3.924,4.966-8.432,0-16.867-.065-25.3.051C.264,125.4-.032,124.82,0,123.186c.106-5.014,2.094-8.243,6.285-9.81.739.309.99,1,1.282,1.653a5.621,5.621,0,0,0,5.638,3.418c5.016.009,10.032-.017,15.046.019,1.007.006,2.142-.212,2.772.954" transform="translate(0 63.395)" fill="#906658"/>
    <path id="Trazado_203996" data-name="Trazado 203996" d="M131.891,119.419c.1.312.22.619.287.937.953,4.462.554,4.966-3.924,4.966-8.432,0-16.867-.067-25.3.051-1.826.025-2.122-.553-2.088-2.187.106-5.014,2.094-8.243,6.285-9.81.739.309.99,1,1.282,1.653a5.621,5.621,0,0,0,5.638,3.418c5.016.009,10.032-.017,15.046.019,1.007.006,2.142-.212,2.772.954" transform="translate(56.4 63.395)" fill="#906658"/>
    <path id="Trazado_203997" data-name="Trazado 203997" d="M9.594,22.931c-1.583,8.023,2.4,14.768,5.044,21.811,1.422,3.779,3,7.5,4.467,11.262,1.752,4.469,4.936,6.662,9.756,6.67q4.313,0,8.624.02.016,1.551.031,3.1c-4.258,0-8.516.075-12.77-.009-3.478-.069-6.46-1.607-7.808-4.754C13.254,52.452,9.449,43.9,6.757,34.927a17.981,17.981,0,0,1-.67-5.825,6.9,6.9,0,0,1,3.508-6.171" transform="translate(3.395 12.822)" fill="#cf8d78"/>
    <path id="Trazado_203998" data-name="Trazado 203998" d="M36.495,31.392c-2.077.175-4.189-.134-6.237.454A72.8,72.8,0,0,1,28.27,16.131,15.719,15.719,0,0,1,44.177.013C45.416,0,46.659.052,47.9.073c-4.272,1.065-7.974,2.97-10.557,6.737C34.722,10.634,34.234,14.9,34.6,19.318a73.29,73.29,0,0,0,1.9,12.074" transform="translate(15.807 0.006)" fill="#4c4c4c"/>
    <path id="Trazado_203999" data-name="Trazado 203999" d="M14.155,68.78V62.57q15.714-.007,31.428-.011v6.232L14.155,68.78" transform="translate(7.915 34.981)" fill="#5b5b5b"/>
    <path id="Trazado_204000" data-name="Trazado 204000" d="M54.5,35.889q.014-7.868.028-15.733c2.474.145,4.978-.2,7.425.429,5.891,2.733,6.145,8.834,3.514,12.221A7.693,7.693,0,0,1,59.4,35.9c-1.631.058-3.266,0-4.9-.012" transform="translate(30.474 11.27)" fill="#cf8c78"/>
    <path id="Trazado_204001" data-name="Trazado 204001" d="M70.846,122.177q-3.113.03-6.226.062V97.085a7.611,7.611,0,0,1,6.224-.069l.011.131-.009,25.029" transform="translate(36.133 53.895)" fill="#85b638"/>
    <path id="Trazado_204002" data-name="Trazado 204002" d="M28.77,119.669a3.65,3.65,0,0,0-2.265-.387q-7.128,0-14.257,0c-5.22,0-6.293-.739-8.215-5.655a5.934,5.934,0,0,1,3.174-.7h12.61c4.606.284,7.747,2.649,8.953,6.74" transform="translate(2.255 63.146)" fill="#a27765"/>
    <path id="Trazado_204003" data-name="Trazado 204003" d="M129.636,119.669a3.65,3.65,0,0,0-2.265-.387q-7.128,0-14.257,0c-5.22,0-6.293-.739-8.215-5.655a5.934,5.934,0,0,1,3.174-.7h12.611c4.606.284,7.747,2.649,8.953,6.74" transform="translate(58.655 63.146)" fill="#a27765"/>
    <path id="Trazado_204004" data-name="Trazado 204004" d="M46.26,50.151a9.487,9.487,0,0,1-5.88-8.14c-.12-1.252.111-1.773,1.587-1.293,5.083,1.651,9.779.672,14.092-2.392l.1,3.15c-.223,5.2-3.461,8.845-8.348,9.386-.5-.278-1.254.008-1.55-.711" transform="translate(22.564 21.43)" fill="#f1b8a0"/>
    <path id="Trazado_204005" data-name="Trazado 204005" d="M65.245,119.295c-5.678-.006-11.355-.047-17.034.009-1.335.012-1.9-.345-1.8-1.754.108-1.494.03-3,.034-4.5q6.287-.056,12.572-.114c3.842.26,6.322,2.794,6.226,6.36" transform="translate(25.946 63.149)" fill="#a27765"/>
    <path id="Trazado_204006" data-name="Trazado 204006" d="M70.865,101.282l-6.224.069c-.02-1.947-.067-3.893-.056-5.841.02-3.991,2.226-6.355,6.262-6.754q.009,6.263.019,12.526" transform="translate(36.112 49.629)" fill="#cba124"/>
    <path id="Trazado_204007" data-name="Trazado 204007" d="M34.315,31.058V28.732a4.43,4.43,0,0,1,.376,2.446l-.376-.12" transform="translate(19.188 16.066)" fill="#d49684"/>
    <path id="Trazado_204008" data-name="Trazado 204008" d="M44.722,45.91l1.551.711c-1.066.009-2.164.338-3.168-.3.543-.122,1.19.172,1.617-.407" transform="translate(24.103 25.671)" fill="#d39987"/>
    <path id="Trazado_204009" data-name="Trazado 204009" d="M46.885,113.031c0,1.626.017,3.254,0,4.88,0,.494.117,1.268-.578,1.25-2.942-.078-5.981.822-8.784-.787a5.865,5.865,0,0,1-3.2-5.407q6.28.03,12.557.064" transform="translate(19.195 63.167)" fill="#a27665"/>
    <path id="Trazado_204010" data-name="Trazado 204010" d="M72.642,96.624c0-6.021,0-12.045.014-18.066.008-2.819,1.1-3.9,3.932-3.909,3.731-.014,7.462-.02,11.193,0,2.573.017,3.725,1.151,3.736,3.711.025,6.087.014,12.174.017,18.261H72.642" transform="translate(40.619 41.734)" fill="#fefefe"/>
  </g>
</svg>
