<svg id="Grupo_137636" data-name="Grupo 137636" xmlns="http://www.w3.org/2000/svg" xmlns:xlink="http://www.w3.org/1999/xlink" width="70.139" height="80.5" viewBox="0 0 70.139 80.5">
  <defs>
    <clipPath id="clip-path">
      <rect id="Rectángulo_88022" data-name="Rectángulo 88022" width="70.139" height="80.5" fill="none"/>
    </clipPath>
  </defs>
  <g id="Grupo_137636-2" data-name="Grupo 137636" clip-path="url(#clip-path)">
    <path id="Trazado_204187" data-name="Trazado 204187" d="M7.288,61.893c-.724-.728-.781-1.065-.291-1.925.6-1.044,1.187-2.09,1.813-3.116.237-.389.16-.528-.238-.731A8.843,8.843,0,0,1,3.825,45.949a4.774,4.774,0,0,0-1.282-4.735A8.636,8.636,0,0,1,2.014,29.56a6.753,6.753,0,0,0,1.711-6.192c-.833-4.624,1.872-8.611,6.388-9.974a4.635,4.635,0,0,0,3.338-3.387A8.845,8.845,0,0,1,24.172,3.791a4.844,4.844,0,0,0,4.8-1.328A8.824,8.824,0,0,1,41.244,2.5a4.779,4.779,0,0,0,4.733,1.3,8.856,8.856,0,0,1,10.762,6.267,4.588,4.588,0,0,0,3.375,3.344,8.858,8.858,0,0,1,6.241,10.644,4.953,4.953,0,0,0,1.354,4.938,8.771,8.771,0,0,1,.079,12.035,5.223,5.223,0,0,0-1.378,5.295A8.807,8.807,0,0,1,61.6,56.115c-.554.268-.587.428-.287.938,1.878,3.2,3.65,6.462,5.59,9.621a3.859,3.859,0,0,1-3.2,6.034c-1.409-.023-2.82.174-4.232.242a4.132,4.132,0,0,0-3.429,1.891c-.713,1.064-1.449,2.116-2.105,3.214A4.977,4.977,0,0,1,50.956,80.5H49.384a3.524,3.524,0,0,1-2.568-1.842c-1.737-2.951-3.426-5.931-5.141-8.9-.04-.068-.074-.138-.113-.206-.672-1.188-.659-1.163-1.869-.511a8.979,8.979,0,0,1-9.853-.428c-.539-.359-.717-.222-.994.263-1.8,3.155-3.63,6.3-5.44,9.448A3.691,3.691,0,0,1,20.467,80.5H18.9a5.732,5.732,0,0,1-3.035-2.772c-.591-.986-1.255-1.929-1.9-2.885a4.14,4.14,0,0,0-3.429-1.892c-1.542-.078-3.085-.172-4.625-.294a3.739,3.739,0,0,1-3.079-5.417c.321-.655.74-1.263,1.068-1.916a1.35,1.35,0,0,1,1.795-.807A1.1,1.1,0,0,1,6.341,66.1c-.292.732-.766,1.368-1.1,2.077a1.241,1.241,0,0,0,1.156,1.941.732.732,0,0,0,.773-.4c1.83-3.259,3.774-6.453,5.582-9.723A2.083,2.083,0,0,0,11.6,57.638c-.351-.072-.445.225-.568.437-.618,1.061-1.22,2.132-1.83,3.2a1.47,1.47,0,0,1-1.621.833c-.13-.021-.254-.063-.294-.214" transform="translate(0 0.001)"/>
    <path id="Trazado_204188" data-name="Trazado 204188" d="M13.236,133.082a1.4,1.4,0,0,0,1.8-.812c.635-1.17,1.336-2.3,1.977-3.47.212-.386.408-.418.709-.14.23.213.478.409.684.642.847.958.875,1.294.243,2.388l-5.286,9.156a1.211,1.211,0,0,1-1.8.529,1.364,1.364,0,0,1-.7-1.835c.312-.659.712-1.275,1.067-1.914.486-.875.435-1.2-.292-1.921l1.594-2.623" transform="translate(-5.948 -71.188)" fill="#fc4b52"/>
    <path id="Trazado_204189" data-name="Trazado 204189" d="M51.888,67.071a5.951,5.951,0,0,1-2.79-.189,6.383,6.383,0,0,0-6.159,1.645c-3.046,2.85-6.7,2.868-9.732.035a6.494,6.494,0,0,0-6.3-1.662,6.618,6.618,0,0,1-8.325-4.822,6.441,6.441,0,0,0-4.6-4.613,6.614,6.614,0,0,1-4.842-8.311A6.627,6.627,0,0,0,7.4,42.72a6.575,6.575,0,0,1,.056-9.553A6.44,6.44,0,0,0,9.167,26.95c-.945-4.117.859-7.221,4.9-8.473a6.421,6.421,0,0,0,4.516-4.6,6.6,6.6,0,0,1,5.685-5.038,5.88,5.88,0,0,1,2.411.175A6.684,6.684,0,0,0,33.4,7.245a6.54,6.54,0,0,1,9.376.039,6.65,6.65,0,0,0,6.573,1.76A4.756,4.756,0,0,1,51.893,8.9a6.757,6.757,0,0,1,3.255,4.321,5.428,5.428,0,0,0,3.985,4.022c.592.157,1.05.58,1.623.77l.264.121a7.9,7.9,0,0,1,3.7,9.067,4.782,4.782,0,0,0,1.129,4.744A9.194,9.194,0,0,1,68.181,35.8,7.838,7.838,0,0,1,66.3,43.45a5.738,5.738,0,0,0-1.779,4.219,7.861,7.861,0,0,0,.253,1.389A8.085,8.085,0,0,1,62.455,56.9a15.865,15.865,0,0,1-1.447.925l-.586.317a14.533,14.533,0,0,1-1.73.73A5.019,5.019,0,0,0,55.3,62.292a9.755,9.755,0,0,1-1.679,3.342,4.659,4.659,0,0,1-1.731,1.436" transform="translate(-2.975 -2.928)" fill="#feca2e"/>
    <path id="Trazado_204190" data-name="Trazado 204190" d="M130.145,73.791a11.672,11.672,0,0,0,2.43-2.39,7.667,7.667,0,0,0,1.109-6.348,5.605,5.605,0,0,1,1.612-5.781,7.737,7.737,0,0,0,.2-10.389c-1.288-1.376-2.284-2.876-2.048-4.872a22.673,22.673,0,0,0,.478-3.076,7.8,7.8,0,0,0-3.332-6.409c-.16-.121-.388-.183-.441-.42.521.17,1.04.346,1.563.511a6.535,6.535,0,0,1,4.472,7.779,6.991,6.991,0,0,0,1.871,7.052,6.42,6.42,0,0,1,.044,8.958,7.153,7.153,0,0,0-1.9,7.19,6.529,6.529,0,0,1-4.27,7.633c-.59.2-1.192.376-1.789.563" transform="translate(-72.113 -18.897)" fill="#fec452"/>
    <path id="Trazado_204191" data-name="Trazado 204191" d="M28.53,152.04a6.96,6.96,0,0,0-6.983-4.009l4.767-8.273a9.289,9.289,0,0,0,6.842,4.253L28.53,152.04" transform="translate(-11.939 -77.439)" fill="#f2f4f8"/>
    <path id="Trazado_204192" data-name="Trazado 204192" d="M114.179,152.247c-1.5-2.608-2.928-5.069-4.343-7.534-.106-.184-.41-.419.1-.546,3.578-.886,4.144-1.239,6.547-4.034l4.672,8.093a6.986,6.986,0,0,0-6.98,4.022" transform="translate(-60.756 -77.647)" fill="#f2f4f8"/>
    <path id="Trazado_204193" data-name="Trazado 204193" d="M48.163,148.2c1.7.059,1.795.219,1.02,1.561q-2.745,4.75-5.492,9.5c-.78,1.342-1.975,1.339-2.8.029a.645.645,0,0,1-.056-.776c1.88-3.229,3.738-6.47,5.617-9.7.42-.721,1.212-.445,1.716-.614" transform="translate(-22.565 -82.118)" fill="#fc4b52"/>
    <path id="Trazado_204194" data-name="Trazado 204194" d="M97.563,148.249a2.047,2.047,0,0,1,2.156,1.094c1.636,2.978,3.376,5.9,5.077,8.841a1.219,1.219,0,0,1-.435,1.827,1.377,1.377,0,0,1-1.9-.249,4.6,4.6,0,0,1-.426-.657q-2.807-4.855-5.608-9.712c-.475-.824-.45-.882.488-1.055.283-.052.569-.079.648-.09" transform="translate(-53.261 -82.143)" fill="#fc4b52"/>
    <path id="Trazado_204195" data-name="Trazado 204195" d="M128.4,130.168a2.62,2.62,0,0,1,.176-.343c.978-1.384,1.2-1.376,2.02.055q2.682,4.656,5.373,9.306a1.631,1.631,0,0,1,.186,1.83c-.388.631-1.019.649-1.648.715a.489.489,0,0,1-.57-.408,4.54,4.54,0,0,0-.961-3.214q-2.194-3.711-4.347-7.445a2.29,2.29,0,0,1-.227-.5" transform="translate(-71.148 -71.365)" fill="#c93c41"/>
    <path id="Trazado_204196" data-name="Trazado 204196" d="M118.568,22.509c-1.925-.612-3.926-1.085-5.081-3.01a4.681,4.681,0,0,1-.582-1.27,7.77,7.77,0,0,0-3.08-4.635c-.057-.041-.08-.131-.119-.2a6.293,6.293,0,0,1,5.46,4.464,7.516,7.516,0,0,0,3.4,4.649" transform="translate(-60.788 -7.423)" fill="#fec452"/>
    <path id="Trazado_204197" data-name="Trazado 204197" d="M109.694,132.749a12.337,12.337,0,0,0,1.982-2.072,10.063,10.063,0,0,0,1.206-2.7,5.279,5.279,0,0,1,3.63-3.655c.569-.178,1.143-.34,1.715-.509a7.726,7.726,0,0,0-3.071,4.454,6.33,6.33,0,0,1-5.462,4.478" transform="translate(-60.781 -68.606)" fill="#fec452"/>
    <path id="Trazado_204198" data-name="Trazado 204198" d="M127.988,131.872a10.186,10.186,0,0,1,1.593,2.474c1.294,2.136,2.53,4.307,3.777,6.472a2.07,2.07,0,0,1,.166,2.209c-1.907-3.292-3.808-6.587-5.729-9.871-.3-.517-.061-.886.193-1.284" transform="translate(-70.733 -73.07)" fill="#fc4b52"/>
    <path id="Trazado_204199" data-name="Trazado 204199" d="M32.955,35.169a6.248,6.248,0,0,0,2.231-2.213c1.09.449,1.875-.084,2.743-.7A22.051,22.051,0,0,1,48.916,28.3a23.69,23.69,0,0,1,7.6.686,2.735,2.735,0,0,1,.883.309,32.245,32.245,0,0,1,4.768,3.165,23.385,23.385,0,0,1,8.444,15.713A23.58,23.58,0,0,1,58.214,71.562a5.984,5.984,0,0,0-.95.55,13.317,13.317,0,0,1-4.357.931,21.844,21.844,0,0,1-10.476-1.486c-8.1-3.537-12.9-9.682-14-18.467a21.161,21.161,0,0,1,4.223-15.679,2.105,2.105,0,0,0,.3-2.242" transform="translate(-15.658 -15.638)" fill="#cba124"/>
    <path id="Trazado_204200" data-name="Trazado 204200" d="M30.271,32.508c.705.791.719,1.188.071,2.058A22.227,22.227,0,0,0,39.2,68.429a21.718,21.718,0,0,0,15.021.981,1.705,1.705,0,0,0,.277-.134,27.7,27.7,0,0,0,7.319-4.03,21.954,21.954,0,0,0,8.04-14.026A22.017,22.017,0,0,0,59.38,29.1a39.487,39.487,0,0,0-4.722-2.279A19.774,19.774,0,0,0,46.947,25.8a21.872,21.872,0,0,0-12.51,4.628c-.737.568-1.186.519-1.935-.134a1.372,1.372,0,0,1,.6-1.814,24.575,24.575,0,0,1,30.757.7,24.169,24.169,0,0,1,8.692,21.29A24.588,24.588,0,0,1,24.3,54.314a23.913,23.913,0,0,1,4.157-21.179,1.38,1.38,0,0,1,1.809-.627" transform="translate(-12.974 -12.976)"/>
    <path id="Trazado_204201" data-name="Trazado 204201" d="M67.16,72.269a3.719,3.719,0,0,1-1.95-.54c-1.412-.74-2.827-1.475-4.227-2.236a.863.863,0,0,0-.934,0c-1.4.762-2.82,1.488-4.226,2.239a3.724,3.724,0,0,1-4.15-.129,3.63,3.63,0,0,1-1.554-3.84c.27-1.572.518-3.149.81-4.716a1.12,1.12,0,0,0-.38-1.166c-1.113-1.033-2.173-2.122-3.272-3.171A3.726,3.726,0,0,1,46.1,54.585a3.8,3.8,0,0,1,3.475-2.625c1.506-.176,3-.437,4.505-.637a1.025,1.025,0,0,0,.862-.666c.673-1.416,1.385-2.813,2.073-4.222A3.8,3.8,0,0,1,64,46.424c.687,1.409,1.406,2.8,2.072,4.223a1.074,1.074,0,0,0,.935.685c1.53.2,3.055.438,4.584.643a3.748,3.748,0,0,1,3.327,2.6,3.674,3.674,0,0,1-1.051,4.016c-1.137,1.121-2.277,2.242-3.437,3.338a1.01,1.01,0,0,0-.346,1.029c.3,1.672.6,3.347.846,5.028a3.744,3.744,0,0,1-3.771,4.284" transform="translate(-25.425 -24.452)"/>
    <path id="Trazado_204202" data-name="Trazado 204202" d="M93.288,31.058a20.642,20.642,0,0,1,9.112,5.463A22.258,22.258,0,0,1,93.661,73.39a5.222,5.222,0,0,1-.529.119,34.358,34.358,0,0,0,4.219-2.664,23.442,23.442,0,0,0,8.672-13.818,22.374,22.374,0,0,0,.448-6.217,23.413,23.413,0,0,0-8.094-16.291A22.032,22.032,0,0,0,94.014,31.5a1.844,1.844,0,0,1-.726-.445" transform="translate(-51.604 -17.209)" fill="#98791b"/>
    <path id="Trazado_204203" data-name="Trazado 204203" d="M55.335,71.346c.31-1.851.6-3.659.923-5.46a2.6,2.6,0,0,0-.831-2.481c-1.2-1.166-2.392-2.347-3.6-3.509a1.478,1.478,0,0,1-.543-1.67,1.551,1.551,0,0,1,1.454-1c1.659-.218,3.309-.506,4.967-.729a2.608,2.608,0,0,0,2.117-1.539c.738-1.5,1.484-3,2.213-4.5a1.477,1.477,0,0,1,2.83-.021c.72,1.48,1.468,2.946,2.178,4.43a2.684,2.684,0,0,0,2.215,1.64c1.685.218,3.362.5,5.045.734a1.475,1.475,0,0,1,1.342,1.034,1.438,1.438,0,0,1-.491,1.551c-1.2,1.167-2.383,2.356-3.6,3.508a2.691,2.691,0,0,0-.9,2.608c.305,1.672.55,3.355.859,5.025a1.456,1.456,0,0,1-2.238,1.607c-1.474-.788-2.967-1.541-4.435-2.342a2.727,2.727,0,0,0-2.827.029c-1.487.82-2.993,1.6-4.509,2.37a1.422,1.422,0,0,1-2.172-1.286" transform="translate(-28.366 -27.37)" fill="#fed559"/>
  </g>
</svg>
