<svg id="Grupo_137631" data-name="Grupo 137631" xmlns="http://www.w3.org/2000/svg" xmlns:xlink="http://www.w3.org/1999/xlink" width="186.695" height="189.316" viewBox="0 0 186.695 189.316">
  <defs>
    <clipPath id="clip-path">
      <rect id="Rectángulo_88020" data-name="Rectángulo 88020" width="186.695" height="189.316" fill="none"/>
    </clipPath>
  </defs>
  <g id="Grupo_137631-2" data-name="Grupo 137631" transform="translate(0 0)" clip-path="url(#clip-path)">
    <path id="Trazado_204131" data-name="Trazado 204131" d="M89.468,56.586c2.424.561,3.552,2.424,4.506,4.468-1.87,1.767-2.08,4.026-2.058,6.432.056,6.83.018,13.659.02,20.491a8.919,8.919,0,0,0,.373,3.1c.364,1,.992,1.781,2.134,1.7a2.3,2.3,0,0,0,2.147-1.973,10.432,10.432,0,0,0,.134-2.391c0-7.2-.009-14.4.011-21.6,0-.958-.212-1.991.565-2.806,3.937-3.146,10.523-1.05,11.461,2.956-1.414,2.187-1.327,4.634-1.309,7.1.042,6.153.013,12.3.016,18.456a12.281,12.281,0,0,0,.074,2.026c.19,1.139.748,2.008,2,2.024a2.16,2.16,0,0,0,2.187-1.879,9.722,9.722,0,0,0,.147-2.388c0-6.4-.009-12.8.013-19.193,0-.961-.21-1.991.561-2.808l1.475-.731c2.846,1.6,3.823,4.243,3.863,7.288.072,5.6.02,11.209.022,16.812,0,7.082-.107,14.167.036,21.247a27.437,27.437,0,0,1-3.193,13.508,20.5,20.5,0,0,0-2.417,10.474c.118,3.382.074,6.774,0,10.161-.047,2.156-.851,3.827-3.121,4.446H69.189c-2.21-1.023-2.614-2.8-2.656-5.114a29.57,29.57,0,0,0-5.145-16.609c-7.681-11.177-15.237-22.442-22.855-33.662a27.347,27.347,0,0,1-3.251-5.114,5.475,5.475,0,0,1,4.234-7.533C45.5,84.3,50.114,86.418,53.939,91a68.446,68.446,0,0,1,4.768,6.3,6.607,6.607,0,0,0,.882.941c.7.708,1.477,1.544,2.531,1.18,1.084-.375,1.3-1.535,1.51-2.563a28.585,28.585,0,0,0,.391-5.679q-.034-14.5-.016-29a3.175,3.175,0,0,1-.552-2.279c-.007-7.518-.067-15.036.025-22.551.042-3.4,1.479-6.122,4.705-7.547a7.988,7.988,0,0,1,8.391.918A7.252,7.252,0,0,1,79.627,36.4c.252,5.972.123,11.95.063,17.927a2.424,2.424,0,0,1-.337,1.235c-2.2,1.354-2.661,3.365-2.621,5.838.125,7.625.045,15.252.049,22.88a9.011,9.011,0,0,0,.27,2.924,2.111,2.111,0,0,0,2.14,1.685A2.184,2.184,0,0,0,81.345,87.2a7.968,7.968,0,0,0,.217-2.563c0-8.977.018-17.956-.016-26.935.293-.992,1.265-1.037,1.988-1.432a8.117,8.117,0,0,1,4.278-.65c.646.13,1.352.221,1.655.965" transform="translate(43.018 35.808)" fill="#feebe3"/>
    <path id="Trazado_204132" data-name="Trazado 204132" d="M68.1,131.5a5.649,5.649,0,0,0,2.625-5.467c-.15-3.561.009-7.134-.054-10.7a15.957,15.957,0,0,1,1.9-7.945,31.205,31.205,0,0,0,3.724-15.536c-.19-12.234-.063-24.475-.056-36.711,0-2.7-.686-5.071-2.98-6.763-.206-.152-.237-.536-.349-.811,5.44-2.475,10.923,1.727,10.813,7.4-.252,13.282-.087,26.571-.076,39.857a19.9,19.9,0,0,1-2.393,9.9,24.167,24.167,0,0,0-3.2,13.767c.163,2.511-.13,5.054.074,7.56a5.413,5.413,0,0,1-2.63,5.44Z" transform="translate(84.041 57.812)" fill="#fedccd"/>
    <path id="Trazado_204133" data-name="Trazado 204133" d="M62.747,42.452q-18.479.03-36.957.058c-5.114.007-10.228.016-15.34,0a6.877,6.877,0,0,1-7.194-7.212q-.044-14.045,0-28.092C3.266,3.22,6.025.034,9.713.025,27.392-.017,45.071.032,62.749.048a6.007,6.007,0,0,1,5.214,4.714c.643,2.263,1.008,4.629-.156,6.906A5.62,5.62,0,0,1,65.1,12q-12.071.017-24.138.007c-.614,0-1.229-.009-1.843.016-1.37.051-2.676.328-2.94,1.926-.25,1.521.882,2.147,2.091,2.616a6.036,6.036,0,0,0,2.545.275c8.231.007,16.461,0,24.692.009,2.652,0,2.983.313,2.987,2.962a19.028,19.028,0,0,1-.217,4.949c-.48.97-1.41.849-2.245.869-1.9.045-3.8,0-5.708.022-1.352.013-2.681.185-3.034,1.778-.351,1.577.655,2.366,1.982,2.855,2.125.538,4.285.168,6.423.244,2.422.087,2.726.344,2.755,2.817a12.739,12.739,0,0,1-.407,4.383c-.882,2.567-2.422,4.386-5.29,4.721" transform="translate(3.993 0.01)" fill="#feda4e"/>
    <path id="Trazado_204134" data-name="Trazado 204134" d="M23.5,95.363C11.019,93.082,1.795,83.592.228,71.422A28.088,28.088,0,0,1,20.963,40.763c.474-.125.952-.232,1.428-.346,8.655,1.53,14.89,6.457,19.2,13.923A23.774,23.774,0,0,1,45.05,66.458c0,1.184,0,2.37,0,3.555-.369,10.934-8.74,21.794-19.2,24.951-.777.235-1.591.147-2.353.4" transform="translate(-0.001 49.879)" fill="#fe7e86"/>
    <path id="Trazado_204135" data-name="Trazado 204135" d="M77.913,64.7a3.51,3.51,0,0,1-1.843.737,15.14,15.14,0,0,1-2.587-1.857c0-6.151.022-12.3-.02-18.447a7.428,7.428,0,0,0-5.657-7.288A7.555,7.555,0,0,0,59.39,41.3a8.864,8.864,0,0,0-1.092,4.41c.031,8.177.011,16.354.009,24.531a25.048,25.048,0,0,1-14.033-9.962,22.382,22.382,0,0,1-3.012-5.639c-1.53-1.535-1.729-3.5-1.787-5.516.058-3.4-.208-6.8.661-10.172a29.86,29.86,0,0,1,3.986-9.006,4.186,4.186,0,0,0,.9-1.778,19.413,19.413,0,0,1,4.066-4.106c.639.045.961-.594,1.524-.71a19.13,19.13,0,0,1,11.586.085c11.079,3.155,17.936,10.462,19.978,21.79A25.145,25.145,0,0,1,77.913,64.7" transform="translate(48.717 27.748)" fill="#b0d6fd"/>
    <path id="Trazado_204136" data-name="Trazado 204136" d="M11.128,95.648c3.541-1.361,7.149-2.574,10.165-5.016,6.405-5.185,10.295-11.72,10.885-20.058a9.317,9.317,0,0,0,0-4.066c-.576-9.578-5.223-16.722-13.132-21.9a24.268,24.268,0,0,0-7.913-3.3,4.585,4.585,0,0,1-1.11-.605,28.21,28.21,0,0,1,18.2,2.558,33.9,33.9,0,0,1,8.653,6.577,6.93,6.93,0,0,1,3.134,4.6,33.219,33.219,0,0,1,3.3,11.211,18.724,18.724,0,0,1-.011,5.011C42.178,83.315,32.676,93.165,20.458,95.681a9.952,9.952,0,0,1-1.466.089c-.628.281-1.336-.04-1.962.259l-2.987,0c-.619-.3-1.323.036-1.939-.264l-.976-.116" transform="translate(12.368 49.595)" fill="#fe717f"/>
    <path id="Trazado_204137" data-name="Trazado 204137" d="M71.762,66.916c-.431-.706.192-1.175.471-1.624,6.086-9.812,4.455-23.963-3.954-32.071A27.216,27.216,0,0,0,51.662,25.4c-2.466-.261-4.8.483-7.2.168,8.4-6.39,21.729-6.517,30.228-.29.594.436,1.2.853,1.8,1.28A7.284,7.284,0,0,1,80.6,30.379c1.122,2.236,2.777,4.176,3.655,6.55a38.233,38.233,0,0,1,1.939,7.442c.708.833.518,1.85.559,2.815.08,1.919.221,2.111,2.131,2.125,5.145.034,10.29,0,15.436.018a6.069,6.069,0,0,1,2.714.315.462.462,0,0,1,.244.579c-6.5.009-13.009.042-19.513,0-1.115-.007-1.711.3-1.888,1.425a26.335,26.335,0,0,1-8.26,15.217c-1.959-.967-3.908-.512-5.856.051" transform="translate(54.868 25.529)" fill="#8ac5f7"/>
    <path id="Trazado_204138" data-name="Trazado 204138" d="M48.709,25.043c0-1.908-.085-3.823.038-5.724.1-1.526-.391-2-1.948-1.982-8.68.069-17.361.038-26.041.025-.661,0-1.363.194-1.973-.25.751-.907,1.8-.65,2.746-.652,8.418-.027,16.834-.013,25.25-.016a13.5,13.5,0,0,0,2.207-.094,2.172,2.172,0,0,0,1.937-1.714,2.106,2.106,0,0,0-.958-2.232c-.431-.333-.994-.507-1.258-1.043,0-1.043-.045-2.089.018-3.128C48.97,4.254,47.152,1.6,43.559.059,47.8.041,52.038-.037,56.276.021a6.472,6.472,0,0,1,6.148,6.372c.085,6.023.038,12.046.045,18.067,0,3.566-.011,7.129.007,10.693a8.261,8.261,0,0,1-.764,3.932c-.516,2.281-2.312,3.067-4.272,3.662-2.723-.492-5.471-.125-8.2-.217-1.892-.065-3.787-.049-5.679-.067A8.926,8.926,0,0,0,48.72,31.888c-.219-1.019-.916-.791-1.546-.829-2.437-.15-4.893.295-7.315-.259.5-.748,1.291-.6,2-.617,2.02-.042,4.044-.013,6.066-.016,1.365,0,2.654-.212,3.056-1.763.382-1.483-.617-2.245-1.765-2.851a1.125,1.125,0,0,1-.507-.512" transform="translate(23.183 -0.001)" fill="#feae5d"/>
    <path id="Trazado_204139" data-name="Trazado 204139" d="M81.825,33.746c-3.137-.5-5.623-2.27-8.056-4.142A6.865,6.865,0,0,1,70.44,24.9c-1.83-4.576-2.16-9.164-.051-13.747a16.436,16.436,0,0,1,9.656-8.8c5.874,1.057,11.191,6.66,12.12,13.159.974,6.819-1.142,12.513-6.85,16.644a7.438,7.438,0,0,1-3.49,1.591" transform="translate(85.074 2.902)" fill="#fe8288"/>
    <path id="Trazado_204140" data-name="Trazado 204140" d="M75.688,34.248c1.11-1.088,2.625-1.508,3.865-2.44,7.084-5.328,8.3-16.332,2.688-23.159-2.292-2.784-5.3-4.231-8.333-5.8A16.367,16.367,0,1,1,76,34.441c-.109-.018-.206-.125-.308-.192" transform="translate(91.211 2.399)" fill="#fe6677"/>
    <path id="Trazado_204141" data-name="Trazado 204141" d="M25.177,61.571q-1.568-2.3-3.134-4.6Q35.032,49.4,48.024,41.841c4.307-2.5,8.642-4.96,12.965-7.435q.895,2.758,1.787,5.516Q44.706,50.358,26.634,60.793c-.476.275-.972.518-1.457.777" transform="translate(27.204 42.461)" fill="#566b74"/>
    <path id="Trazado_204142" data-name="Trazado 204142" d="M75.068,29.046a10.5,10.5,0,0,1,13.063,2.415A10.706,10.706,0,0,1,76.174,48.485c-.467-1.182.672-1.477,1.218-1.962,4.147-3.693,3.99-10.378.847-14.1a16.879,16.879,0,0,0-2.067-1.834c-.487-.418-1.227-.686-1.1-1.548" transform="translate(92.628 34.242)" fill="#fe6677"/>
    <path id="Trazado_204143" data-name="Trazado 204143" d="M82.953,12.445a36.811,36.811,0,0,0,3.329,4.705Q74.6,28.849,62.91,40.55L58.8,36.728Q70.876,24.586,82.953,12.445" transform="translate(72.561 15.358)" fill="#566b74"/>
    <path id="Trazado_204144" data-name="Trazado 204144" d="M66.087,46.316q-.007,12.919-.013,25.84c0,2.147-1.052,3.555-2.761,3.724-1.372.136-2.6-1.117-3.025-3.114a5.28,5.28,0,0,1-.121-1.092c-.007-8-.045-16,.025-23.995.016-1.832.237-3.762,2.569-4.323,2.243.065,2.889.637,3.327,2.96" transform="translate(74.233 53.506)" fill="#fedccd"/>
    <path id="Trazado_204145" data-name="Trazado 204145" d="M72.659,49.34q0,11.625-.009,23.248a4.259,4.259,0,0,1-.311,2.16,2.693,2.693,0,0,1-3.059,1.542,2.52,2.52,0,0,1-2.174-2.585q-.01-12.363,0-24.725A3.431,3.431,0,0,1,68.966,46c2.578.076,3.206.643,3.693,3.336" transform="translate(82.814 56.774)" fill="#fedccd"/>
    <path id="Trazado_204146" data-name="Trazado 204146" d="M78.5,28.328c1.119,1.367,2.781,2.064,3.9,3.532a11,11,0,0,1-1.854,14.866c-.362.286-.929.424-.936,1.041-3.347-1.247-5.152-3.968-6.655-6.975a2.386,2.386,0,0,0-.058-.279c-.719-1.895-1.025-3.767.284-5.556A10.587,10.587,0,0,1,78.5,28.328" transform="translate(89.196 34.96)" fill="#fe8388"/>
    <path id="Trazado_204147" data-name="Trazado 204147" d="M84.472,31.3c-.585,1.828-.141,3.706-.284,5.554-6.439,0-12.878-.038-19.316.027-1.356.013-1.879-.311-1.725-1.738a35.27,35.27,0,0,0,.013-3.858l21.311.016" transform="translate(77.9 38.613)" fill="#566b74"/>
    <path id="Trazado_204148" data-name="Trazado 204148" d="M36.086,21.156c1.459-1.177,3.351-1.854,4.272-3.662q6.454,6.361,12.909,12.719A14.333,14.333,0,0,1,49.2,34.321Q42.642,27.74,36.086,21.156" transform="translate(44.535 21.589)" fill="#566b74"/>
    <path id="Trazado_204149" data-name="Trazado 204149" d="M24.919,56.6l.013-5.011a8.834,8.834,0,0,1-.013,5.011" transform="translate(30.753 63.661)" fill="#fe7e86"/>
    <path id="Trazado_204150" data-name="Trazado 204150" d="M10.954,65.1c.657.011,1.352-.261,1.939.264a2.679,2.679,0,0,1-1.939-.264" transform="translate(13.519 80.262)" fill="#fe7e86"/>
    <path id="Trazado_204151" data-name="Trazado 204151" d="M13.159,65.362c.594-.527,1.3-.257,1.962-.259a2.77,2.77,0,0,1-1.962.259" transform="translate(16.24 80.262)" fill="#fe7e86"/>
    <path id="Trazado_204152" data-name="Trazado 204152" d="M56.339,40.878c1.113.273,2.16.63,2.585,1.859A3.7,3.7,0,0,1,59.29,44.7q-.01,13.4-.011,26.794c0,2.388-1.144,3.534-3.3,3.4-1.651-.1-2.583-1.323-2.6-3.584-.027-4.926-.009-9.855-.009-14.781q0-5.821,0-11.642c0-2.355.675-3.251,2.965-4.017" transform="translate(65.861 50.448)" fill="#fedccd"/>
    <path id="Trazado_204153" data-name="Trazado 204153" d="M50.129,5.085c2.192.4,3.161,1.445,2.989,3.208-.159,1.624-1.336,2.469-3.458,2.473q-14.729.037-29.455.069c-1.917-.708-2.786-1.845-2.525-3.309.275-1.542,1.437-2.357,3.443-2.364q14.5-.047,29.006-.078" transform="translate(21.764 6.275)" fill="#566b74"/>
    <path id="Trazado_204154" data-name="Trazado 204154" d="M24.957,11.245c4.743,0,9.486-.011,14.231,0,2.143.007,3.425,1.034,3.485,2.728.063,1.754-1.273,2.9-3.481,2.9q-14.323.017-28.646,0c-2.176,0-3.358-1.025-3.362-2.8s1.206-2.815,3.358-2.824c4.8-.02,9.609-.007,14.415-.007" transform="translate(8.866 13.872)" fill="#566b74"/>
    <path id="Trazado_204155" data-name="Trazado 204155" d="M14.358,5.128c1.412,0,2.826-.038,4.236.011A2.825,2.825,0,0,1,21.552,8a2.784,2.784,0,0,1-2.9,2.73q-4.326.08-8.655,0A2.7,2.7,0,0,1,7.184,7.97a2.75,2.75,0,0,1,2.938-2.835c1.41-.04,2.824-.007,4.236-.007" transform="translate(8.866 6.31)" fill="#566b74"/>
    <path id="Trazado_204156" data-name="Trazado 204156" d="M38.429,11.209c2.185.416,3.148,1.443,2.992,3.193-.145,1.633-1.311,2.489-3.414,2.5q-4.216.034-8.427.063c-1.7-.456-2.71-1.517-2.413-3.32.3-1.819,1.631-2.395,3.376-2.377,2.63.029,5.257-.036,7.886-.06" transform="translate(33.463 13.832)" fill="#566b74"/>
    <path id="Trazado_204157" data-name="Trazado 204157" d="M30.39,59.147a11.526,11.526,0,1,1-23.05-.105,11.487,11.487,0,0,1,11.6-11.548A11.353,11.353,0,0,1,30.39,59.147" transform="translate(9.059 58.613)" fill="#e6ebf0"/>
    <path id="Trazado_204158" data-name="Trazado 204158" d="M19.939,51.968a4.865,4.865,0,0,1,0,4.068V51.968" transform="translate(24.607 64.135)" fill="#fe7580"/>
  </g>
</svg>
