<svg id="Grupo_137632" data-name="Grupo 137632" xmlns="http://www.w3.org/2000/svg" xmlns:xlink="http://www.w3.org/1999/xlink" width="50.055" height="50.758" viewBox="0 0 50.055 50.758">
  <defs>
    <clipPath id="clip-path">
      <rect id="Rectángulo_88020" data-name="Rectángulo 88020" width="50.055" height="50.757" fill="none"/>
    </clipPath>
  </defs>
  <g id="Grupo_137631" data-name="Grupo 137631" transform="translate(0 0)" clip-path="url(#clip-path)">
    <path id="Trazado_204131" data-name="Trazado 204131" d="M49.5,36.407a1.828,1.828,0,0,1,1.208,1.2,2.141,2.141,0,0,0-.552,1.724c.015,1.831,0,3.662.005,5.494a2.391,2.391,0,0,0,.1.831c.1.268.266.477.572.457a.617.617,0,0,0,.576-.529,2.8,2.8,0,0,0,.036-.641c0-1.93,0-3.861,0-5.79,0-.257-.057-.534.152-.752a2.012,2.012,0,0,1,3.073.792,3.265,3.265,0,0,0-.351,1.9c.011,1.65,0,3.3,0,4.948a3.292,3.292,0,0,0,.02.543c.051.305.2.538.537.543a.579.579,0,0,0,.586-.5,2.606,2.606,0,0,0,.04-.64c0-1.716,0-3.431,0-5.146,0-.258-.056-.534.15-.753l.4-.2a2.086,2.086,0,0,1,1.036,1.954c.019,1.5.005,3.005.006,4.507,0,1.9-.029,3.8.01,5.7a7.356,7.356,0,0,1-.856,3.622,5.5,5.5,0,0,0-.648,2.808c.032.907.02,1.816,0,2.724a1.112,1.112,0,0,1-.837,1.192H44.062c-.592-.274-.7-.752-.712-1.371a7.928,7.928,0,0,0-1.379-4.453c-2.059-3-4.085-6.017-6.128-9.025a7.332,7.332,0,0,1-.872-1.371,1.468,1.468,0,0,1,1.135-2.02,3.774,3.774,0,0,1,3.867,1.481,18.35,18.35,0,0,1,1.278,1.689,1.772,1.772,0,0,0,.237.252c.189.19.4.414.679.316s.35-.412.4-.687a7.664,7.664,0,0,0,.1-1.523q-.009-3.888,0-7.776a.851.851,0,0,1-.148-.611c0-2.016-.018-4.031.007-6.046a2.075,2.075,0,0,1,1.261-2.023,2.142,2.142,0,0,1,2.25.246A1.944,1.944,0,0,1,46.86,31c.068,1.6.033,3.2.017,4.806a.65.65,0,0,1-.09.331,1.588,1.588,0,0,0-.7,1.565c.034,2.044.012,4.089.013,6.134a2.416,2.416,0,0,0,.072.784.566.566,0,0,0,.574.452.586.586,0,0,0,.577-.454,2.136,2.136,0,0,0,.058-.687c0-2.407,0-4.814,0-7.221.078-.266.339-.278.533-.384a2.176,2.176,0,0,1,1.147-.174c.173.035.362.059.444.259" transform="translate(-13.978 -11.636)" fill="#feebe3"/>
    <path id="Trazado_204132" data-name="Trazado 204132" d="M68.1,69.543a1.515,1.515,0,0,0,.7-1.466c-.04-.955,0-1.913-.014-2.869a4.278,4.278,0,0,1,.509-2.13,8.366,8.366,0,0,0,1-4.165c-.051-3.28-.017-6.562-.015-9.843a2.074,2.074,0,0,0-.8-1.813c-.055-.041-.063-.144-.093-.217a2.052,2.052,0,0,1,2.9,1.985c-.068,3.561-.023,7.124-.02,10.686a5.336,5.336,0,0,1-.642,2.655,6.479,6.479,0,0,0-.859,3.691c.044.673-.035,1.355.02,2.027a1.451,1.451,0,0,1-.705,1.459Z" transform="translate(-27.307 -18.786)" fill="#fedccd"/>
    <path id="Trazado_204133" data-name="Trazado 204133" d="M19.191,11.388,9.283,11.4c-1.371,0-2.742,0-4.113,0A1.844,1.844,0,0,1,3.241,9.469q-.012-3.766,0-7.532A1.815,1.815,0,0,1,4.972.013c4.74-.011,9.48,0,14.219.006a1.611,1.611,0,0,1,1.4,1.264,2.451,2.451,0,0,1-.042,1.851,1.507,1.507,0,0,1-.727.09q-3.236,0-6.472,0c-.165,0-.329,0-.494,0-.367.014-.718.088-.788.516-.067.408.237.576.561.7a1.618,1.618,0,0,0,.682.074c2.207,0,4.413,0,6.62,0,.711,0,.8.084.8.794a5.1,5.1,0,0,1-.058,1.327c-.129.26-.378.228-.6.233-.51.012-1.02,0-1.53.006-.362,0-.719.05-.813.477s.176.634.531.766a8,8,0,0,0,1.722.065c.649.023.731.092.739.755a3.415,3.415,0,0,1-.109,1.175,1.654,1.654,0,0,1-1.418,1.266" transform="translate(-1.297 -0.004)" fill="#feda4e"/>
    <path id="Trazado_204134" data-name="Trazado 204134" d="M6.3,55.149A7.484,7.484,0,0,1,5.62,40.51c.127-.034.255-.062.383-.093a7.205,7.205,0,0,1,5.148,3.733,6.374,6.374,0,0,1,.927,3.249c0,.317,0,.636,0,.953a7.593,7.593,0,0,1-5.148,6.69c-.208.063-.426.04-.631.107" transform="translate(0 -16.208)" fill="#fe7e86"/>
    <path id="Trazado_204135" data-name="Trazado 204135" d="M49.781,33.8a.941.941,0,0,1-.494.2,4.059,4.059,0,0,1-.694-.5c0-1.649.006-3.3-.005-4.946A1.992,1.992,0,0,0,47.071,26.6a2.026,2.026,0,0,0-2.256.925,2.377,2.377,0,0,0-.293,1.182c.008,2.192,0,4.385,0,6.577a6.716,6.716,0,0,1-3.762-2.671,6,6,0,0,1-.807-1.512,2.019,2.019,0,0,1-.479-1.479,11.491,11.491,0,0,1,.177-2.727,8.006,8.006,0,0,1,1.069-2.415,1.122,1.122,0,0,0,.241-.477,5.205,5.205,0,0,1,1.09-1.1c.171.012.258-.159.409-.19a5.129,5.129,0,0,1,3.106.023,7.022,7.022,0,0,1,5.356,5.842A6.742,6.742,0,0,1,49.781,33.8" transform="translate(-15.83 -9.017)" fill="#b0d6fd"/>
    <path id="Trazado_204136" data-name="Trazado 204136" d="M10.319,55.056a9.614,9.614,0,0,0,2.725-1.345,7.369,7.369,0,0,0,2.918-5.378,2.5,2.5,0,0,0,0-1.09,7.244,7.244,0,0,0-3.521-5.871,6.506,6.506,0,0,0-2.122-.885,1.23,1.23,0,0,1-.3-.162,7.563,7.563,0,0,1,4.881.686,9.088,9.088,0,0,1,2.32,1.763,1.858,1.858,0,0,1,.84,1.233,8.906,8.906,0,0,1,.885,3.006,5.02,5.02,0,0,1,0,1.344,7.582,7.582,0,0,1-6.125,6.709,2.668,2.668,0,0,1-.393.024c-.168.075-.358-.011-.526.069h-.8c-.166-.08-.355.01-.52-.071l-.262-.031" transform="translate(-4.019 -16.115)" fill="#fe717f"/>
    <path id="Trazado_204137" data-name="Trazado 204137" d="M51.779,33.081c-.116-.189.052-.315.126-.435a7.128,7.128,0,0,0-1.06-8.6,7.3,7.3,0,0,0-4.455-2.1c-.661-.07-1.287.129-1.931.045a7.107,7.107,0,0,1,8.1-.078c.159.117.322.229.483.343a1.953,1.953,0,0,1,1.1,1.025,17.964,17.964,0,0,1,.98,1.756,10.25,10.25,0,0,1,.52,2,1.115,1.115,0,0,1,.15.755c.022.515.059.566.571.57,1.379.009,2.759,0,4.138,0a1.627,1.627,0,0,1,.728.084.124.124,0,0,1,.065.155c-1.744,0-3.488.011-5.232,0-.3,0-.459.081-.506.382a7.061,7.061,0,0,1-2.214,4.08,2.079,2.079,0,0,0-1.57.014" transform="translate(-17.828 -8.296)" fill="#8ac5f7"/>
    <path id="Trazado_204138" data-name="Trazado 204138" d="M26.808,6.714c0-.512-.023-1.025.01-1.535.026-.409-.1-.535-.522-.531-2.327.019-4.655.01-6.982.007-.177,0-.365.052-.529-.067.2-.243.483-.174.736-.175,2.257-.007,4.513,0,6.77,0a3.619,3.619,0,0,0,.592-.025.582.582,0,0,0,.519-.459.565.565,0,0,0-.257-.6c-.116-.089-.267-.136-.337-.28,0-.28-.012-.56,0-.839A2.068,2.068,0,0,0,25.427.015c1.136,0,2.273-.026,3.409-.01a1.735,1.735,0,0,1,1.648,1.708c.023,1.615.01,3.23.012,4.844,0,.956,0,1.911,0,2.867a2.215,2.215,0,0,1-.2,1.054c-.138.612-.62.822-1.145.982a15.067,15.067,0,0,0-2.2-.058c-.507-.017-1.015-.013-1.523-.018a2.393,2.393,0,0,0,1.384-2.835c-.059-.273-.246-.212-.415-.222a11.851,11.851,0,0,1-1.961-.069c.134-.2.346-.161.536-.165.541-.011,1.084,0,1.626,0,.366,0,.712-.057.819-.473.1-.4-.165-.6-.473-.764a.3.3,0,0,1-.136-.137" transform="translate(-7.533 0)" fill="#feae5d"/>
    <path id="Trazado_204139" data-name="Trazado 204139" d="M72.39,10.769a4.834,4.834,0,0,1-2.16-1.111A1.841,1.841,0,0,1,69.338,8.4a4.486,4.486,0,0,1-.014-3.686,4.407,4.407,0,0,1,2.589-2.359,4.271,4.271,0,0,1,3.25,3.528,4.382,4.382,0,0,1-1.837,4.462,1.994,1.994,0,0,1-.936.426" transform="translate(-27.643 -0.943)" fill="#fe8288"/>
    <path id="Trazado_204140" data-name="Trazado 204140" d="M74.384,10.606a9.279,9.279,0,0,1,1.036-.654,4.441,4.441,0,0,0,.721-6.209,6.545,6.545,0,0,0-2.234-1.554,4.388,4.388,0,1,1,.56,8.469c-.029,0-.055-.034-.083-.052" transform="translate(-29.637 -0.78)" fill="#fe6677"/>
    <path id="Trazado_204141" data-name="Trazado 204141" d="M22.883,41.689l-.84-1.233q3.483-2.029,6.966-4.056c1.155-.671,2.317-1.33,3.476-1.993q.24.739.479,1.479l-9.69,5.6c-.128.074-.261.139-.391.208" transform="translate(-8.839 -13.797)" fill="#566b74"/>
    <path id="Trazado_204142" data-name="Trazado 204142" d="M75.059,28.095a2.814,2.814,0,0,1,3.5.648,2.871,2.871,0,0,1-3.206,4.564c-.125-.317.18-.4.326-.526A2.813,2.813,0,0,0,75.909,29a4.524,4.524,0,0,0-.554-.492c-.131-.112-.329-.184-.3-.415" transform="translate(-30.098 -11.127)" fill="#fe6677"/>
    <path id="Trazado_204143" data-name="Trazado 204143" d="M65.272,12.445a9.869,9.869,0,0,0,.892,1.261L59.9,19.98l-1.1-1.025,6.477-6.51" transform="translate(-23.577 -4.991)" fill="#566b74"/>
    <path id="Trazado_204144" data-name="Trazado 204144" d="M61.741,44.15q0,3.464,0,6.928c0,.576-.282.953-.74,1-.368.037-.7-.3-.811-.835a1.416,1.416,0,0,1-.032-.293c0-2.144-.012-4.289.007-6.433,0-.491.063-1.009.689-1.159.6.017.774.171.892.794" transform="translate(-24.12 -17.386)" fill="#fedccd"/>
    <path id="Trazado_204145" data-name="Trazado 204145" d="M68.593,46.9q0,3.117,0,6.233a1.142,1.142,0,0,1-.083.579.722.722,0,0,1-.82.413.676.676,0,0,1-.583-.693q0-3.315,0-6.629a.92.92,0,0,1,.5-.8c.691.02.86.173.99.894" transform="translate(-26.909 -18.448)" fill="#fedccd"/>
    <path id="Trazado_204146" data-name="Trazado 204146" d="M73.943,28.328c.3.367.746.553,1.045.947a2.95,2.95,0,0,1-.5,3.986c-.1.077-.249.114-.251.279a3.387,3.387,0,0,1-1.784-1.87.64.64,0,0,0-.016-.075,1.464,1.464,0,0,1,.076-1.49,2.839,2.839,0,0,1,1.427-1.777" transform="translate(-28.982 -11.36)" fill="#fe8388"/>
    <path id="Trazado_204147" data-name="Trazado 204147" d="M68.846,31.292a6.264,6.264,0,0,0-.076,1.489c-1.726,0-3.453-.01-5.179.007-.364,0-.5-.083-.462-.466a9.456,9.456,0,0,0,0-1.034l5.714,0" transform="translate(-25.312 -12.547)" fill="#566b74"/>
    <path id="Trazado_204148" data-name="Trazado 204148" d="M36.086,18.476c.391-.316.9-.5,1.145-.982l3.461,3.41a3.843,3.843,0,0,1-1.09,1.1l-3.516-3.53" transform="translate(-14.471 -7.015)" fill="#566b74"/>
    <path id="Trazado_204149" data-name="Trazado 204149" d="M24.919,52.928l0-1.344a2.369,2.369,0,0,1,0,1.344" transform="translate(-9.993 -20.686)" fill="#fe7e86"/>
    <path id="Trazado_204150" data-name="Trazado 204150" d="M10.954,65.052c.176,0,.362-.07.52.071a.718.718,0,0,1-.52-.071" transform="translate(-4.393 -26.08)" fill="#fe7e86"/>
    <path id="Trazado_204151" data-name="Trazado 204151" d="M13.159,65.123c.159-.141.347-.069.526-.069a.743.743,0,0,1-.526.069" transform="translate(-5.277 -26.08)" fill="#fe7e86"/>
    <path id="Trazado_204152" data-name="Trazado 204152" d="M54.163,40.878a.828.828,0,0,1,.693.5.993.993,0,0,1,.1.527q0,3.592,0,7.184c0,.64-.307.948-.885.913-.443-.026-.692-.355-.7-.961-.007-1.321,0-2.642,0-3.963q0-1.561,0-3.121a.94.94,0,0,1,.795-1.077" transform="translate(-21.4 -16.393)" fill="#fedccd"/>
    <path id="Trazado_204153" data-name="Trazado 204153" d="M26.347,5.085c.588.108.848.388.8.86-.043.435-.358.662-.927.663l-7.9.019c-.514-.19-.747-.495-.677-.887.074-.413.385-.632.923-.634q3.889-.013,7.777-.021" transform="translate(-7.072 -2.039)" fill="#566b74"/>
    <path id="Trazado_204154" data-name="Trazado 204154" d="M11.949,11.242c1.272,0,2.543,0,3.816,0,.574,0,.918.277.934.731.017.47-.341.777-.933.779q-3.84,0-7.68,0c-.583,0-.9-.275-.9-.752s.323-.755.9-.757c1.288-.005,2.576,0,3.865,0" transform="translate(-2.881 -4.508)" fill="#566b74"/>
    <path id="Trazado_204155" data-name="Trazado 204155" d="M9.107,5.117c.379,0,.758-.01,1.136,0a.757.757,0,0,1,.793.767.746.746,0,0,1-.776.732q-1.16.022-2.32,0a.723.723,0,0,1-.755-.74.737.737,0,0,1,.788-.76c.378-.011.757,0,1.136,0" transform="translate(-2.881 -2.051)" fill="#566b74"/>
    <path id="Trazado_204156" data-name="Trazado 204156" d="M30.148,11.209c.586.111.844.387.8.856-.039.438-.352.667-.915.671l-2.259.017a.746.746,0,0,1-.647-.89c.08-.488.437-.642.905-.637.705.008,1.409-.01,2.114-.016" transform="translate(-10.873 -4.495)" fill="#566b74"/>
    <path id="Trazado_204157" data-name="Trazado 204157" d="M13.52,50.618a3.09,3.09,0,1,1-6.18-.028,3.08,3.08,0,0,1,3.11-3.1,3.044,3.044,0,0,1,3.07,3.124" transform="translate(-2.943 -19.046)" fill="#e6ebf0"/>
    <path id="Trazado_204158" data-name="Trazado 204158" d="M19.939,51.968a1.3,1.3,0,0,1,0,1.091V51.968" transform="translate(-7.996 -20.84)" fill="#fe7580"/>
  </g>
</svg>
