<svg xmlns="http://www.w3.org/2000/svg" xmlns:xlink="http://www.w3.org/1999/xlink" width="365.353" height="268.474" viewBox="0 0 365.353 268.474">
  <defs>
    <clipPath id="clip-path">
      <rect id="Rectángulo_88121" data-name="Rectángulo 88121" width="231.082" height="268.474" fill="none"/>
    </clipPath>
    <clipPath id="clip-path-3">
      <rect id="Rectángulo_88112" data-name="Rectángulo 88112" width="28.762" height="5.994" fill="none"/>
    </clipPath>
    <clipPath id="clip-path-4">
      <rect id="Rectángulo_88113" data-name="Rectángulo 88113" width="14.152" height="4.905" fill="none"/>
    </clipPath>
    <clipPath id="clip-path-5">
      <rect id="Rectángulo_88114" data-name="Rectángulo 88114" width="14.15" height="4.904" fill="none"/>
    </clipPath>
    <clipPath id="clip-path-6">
      <rect id="Rectángulo_88115" data-name="Rectángulo 88115" width="14.146" height="4.903" fill="none"/>
    </clipPath>
    <clipPath id="clip-path-7">
      <rect id="Rectángulo_88116" data-name="Rectángulo 88116" width="14.146" height="4.902" fill="none"/>
    </clipPath>
    <clipPath id="clip-path-8">
      <rect id="Rectángulo_88117" data-name="Rectángulo 88117" width="14.64" height="4.902" fill="none"/>
    </clipPath>
  </defs>
  <g id="Grupo_138604" data-name="Grupo 138604" transform="translate(4643.353 7197)">
    <g id="Grupo_138603" data-name="Grupo 138603">
      <path id="Trazado_206648" data-name="Trazado 206648" d="M100.744,449.28C75.079,421.334,40,392.479,53.757,348.891c9.047-28.669,31.229-36.661,49.668-54.339,9.1-8.725,3.376-21.424,3.207-34.028-.386-32.278,35.636-57.324,68.753-56.8,35.871.566,51.4,36.63,81.489,38.564,11.816.181,22.4-6.753,32.85-12.261,30.976-16.321,80.128-5.913,82.612,33.558.641,21.316-23.62,55.611.688,66.822,19.373,8.935,38.944,12.227,42.435,44.185,4.57,41.83-19.588,64.787-51.068,75.553Z" transform="translate(-4694.016 -7378.668)" fill="#f3f9ff"/>
      <g id="Grupo_137826" data-name="Grupo 137826" transform="translate(-4602 -7197)">
        <g id="Grupo_137825" data-name="Grupo 137825" clip-path="url(#clip-path)">
          <g id="Grupo_137824" data-name="Grupo 137824">
            <g id="Grupo_137823" data-name="Grupo 137823" clip-path="url(#clip-path)">
              <path id="Trazado_206760" data-name="Trazado 206760" d="M106.84,119.748c-1.871-11.084-18.941-16.089-18.607-8.854l-78.251.458c-5.42.032-9.815,4.908-9.819,10.9L0,328.049c0,6.2,4.466,11.276,9.99,11.323l79.882.685a6.393,6.393,0,0,0,2.886,2.779c9.161.2,13.555-4.329,15.16-9.444a12.316,12.316,0,0,0,.794-4.489c-.32-2.679-1.294-206.557-1.873-209.156" transform="translate(122.369 -74.396)" fill="#a7e446"/>
              <path id="Trazado_206761" data-name="Trazado 206761" d="M122.978,342.935l-91.693-.591c-5.722-.037-10.35-5.246-10.34-11.63l.344-211.647c.01-6.155,4.565-11.156,10.176-11.174l89.911-.292c5.656-.018,10.281,4.975,10.328,11.158l1.63,212.626c.049,6.414-4.589,11.587-10.357,11.55" transform="translate(91.295 -74.461)" fill="#8accfb"/>
              <path id="Trazado_206762" data-name="Trazado 206762" d="M126.959,344.567a8.248,8.248,0,0,1-1.159.072l-91.665-.693c-4.917-.037-8.935-4.6-8.927-10.176l.317-211.415c.008-5.374,3.963-9.759,8.786-9.78l89.906-.391c.14,0,.282,0,.422.009a8.508,8.508,0,0,1,5.957,2.9,10.164,10.164,0,0,1,2.533,6.731l1.608,212.841c.038,5.045-3.294,9.3-7.778,9.9" transform="translate(88.58 -77.633)" fill="#12263f"/>
              <path id="Trazado_206763" data-name="Trazado 206763" d="M137.366,146.955l1.546,212.1-103.264-.618.263-211.482Z" transform="translate(81.191 -101.695)" fill="#fff"/>
              <path id="Trazado_206764" data-name="Trazado 206764" d="M176.388,146.956,151.9,180.212c0,.015,0,.028,0,.043.241,6.531-13.723,6.544-14.149.014a.393.393,0,0,1,0-.043l24.15-33.27Z" transform="translate(12.269 -101.695)" fill="#e0f6be"/>
              <path id="Trazado_206765" data-name="Trazado 206765" d="M223.091,146.957l-24.15,33.27c0,.015,0,.028,0,.043.308,6.529-13.652,6.543-14.145.014a.4.4,0,0,1,0-.043l23.814-33.284Z" transform="translate(-48.923 -101.696)" fill="#a7e446"/>
              <path id="Trazado_206766" data-name="Trazado 206766" d="M129.673,146.956,104.852,180.2l0,.043c0,.025,0,.05,0,.075.217,6.078-13.787,6.817-14.159-.061a.384.384,0,0,1,0-.042l24.486-33.256Z" transform="translate(73.476 -101.695)" fill="#a7e446"/>
              <path id="Trazado_206767" data-name="Trazado 206767" d="M80.692,146.955,54.978,180.182v.042c.164,8.472-14.189,7.471-14.6.09,0-.025,0-.05,0-.075l0-.042,24.821-33.242Z" transform="translate(137.956 -101.695)" fill="#e0f6be"/>
              <path id="Trazado_206768" data-name="Trazado 206768" d="M349.14,146.959h14.472l-23.138,33.313c0,.015,0,.028,0,.042.507,6.526-13.927,6.54-14.627.015a.416.416,0,0,1-.006-.043Z" transform="translate(-232.886 -101.697)" fill="#e0f6be"/>
              <path id="Trazado_206769" data-name="Trazado 206769" d="M269.776,146.958l-23.814,33.285a.393.393,0,0,1,0,.043c.375,6.528-13.578,6.542-14.139.014,0-.015,0-.028,0-.043l23.475-33.3Z" transform="translate(-110.092 -101.697)" fill="#e0f6be"/>
              <path id="Trazado_206770" data-name="Trazado 206770" d="M316.455,146.958l-23.475,33.3a.389.389,0,0,1,0,.042c.443,6.527-13.508,6.54-14.136.014a.4.4,0,0,1-.005-.042l23.138-33.313Z" transform="translate(-171.253 -101.697)" fill="#a7e446"/>
              <g id="Grupo_137807" data-name="Grupo 137807" transform="translate(164.174 78.53)" opacity="0.1" style="mix-blend-mode: hard-light;isolation: isolate">
                <g id="Grupo_137806" data-name="Grupo 137806" transform="translate(0)">
                  <g id="Grupo_137805" data-name="Grupo 137805" clip-path="url(#clip-path-3)">
                    <path id="Trazado_206771" data-name="Trazado 206771" d="M123.854,255.007c.372,6.878,14.376,6.139,14.159.06.412,7.381,14.765,8.382,14.6-.09Z" transform="translate(-123.853 -254.978)"/>
                  </g>
                </g>
              </g>
              <g id="Grupo_137810" data-name="Grupo 137810" transform="translate(150.022 78.559)" opacity="0.1" style="mix-blend-mode: hard-light;isolation: isolate">
                <g id="Grupo_137809" data-name="Grupo 137809" transform="translate(0)">
                  <g id="Grupo_137808" data-name="Grupo 137808" clip-path="url(#clip-path-4)">
                    <path id="Trazado_206772" data-name="Trazado 206772" d="M231.39,255.073l-14.149.014c.426,6.529,14.39,6.516,14.149-.014" transform="translate(-217.241 -255.073)"/>
                  </g>
                </g>
              </g>
              <g id="Grupo_137813" data-name="Grupo 137813" transform="translate(135.874 78.574)" opacity="0.1" style="mix-blend-mode: hard-light;isolation: isolate">
                <g id="Grupo_137812" data-name="Grupo 137812" transform="translate(0)">
                  <g id="Grupo_137811" data-name="Grupo 137811" clip-path="url(#clip-path-5)">
                    <path id="Trazado_206773" data-name="Trazado 206773" d="M277.33,255.12l-14.145.014c.493,6.528,14.453,6.515,14.145-.014" transform="translate(-263.185 -255.12)"/>
                  </g>
                </g>
              </g>
              <g id="Grupo_137816" data-name="Grupo 137816" transform="translate(121.732 78.588)" opacity="0.1" style="mix-blend-mode: hard-light;isolation: isolate">
                <g id="Grupo_137815" data-name="Grupo 137815" transform="translate(0)">
                  <g id="Grupo_137814" data-name="Grupo 137814" clip-path="url(#clip-path-6)">
                    <path id="Trazado_206774" data-name="Trazado 206774" d="M323.252,255.167l-14.139.014c.561,6.527,14.515,6.514,14.139-.014" transform="translate(-309.113 -255.167)"/>
                  </g>
                </g>
              </g>
              <g id="Grupo_137819" data-name="Grupo 137819" transform="translate(107.593 78.602)" opacity="0.1" style="mix-blend-mode: hard-light;isolation: isolate">
                <g id="Grupo_137818" data-name="Grupo 137818" transform="translate(0)">
                  <g id="Grupo_137817" data-name="Grupo 137817" clip-path="url(#clip-path-7)">
                    <path id="Trazado_206775" data-name="Trazado 206775" d="M369.157,255.213l-14.136.014c.628,6.526,14.579,6.513,14.136-.014" transform="translate(-355.021 -255.213)"/>
                  </g>
                </g>
              </g>
              <g id="Grupo_137822" data-name="Grupo 137822" transform="translate(92.963 78.617)" opacity="0.1" style="mix-blend-mode: hard-light;isolation: isolate">
                <g id="Grupo_137821" data-name="Grupo 137821" transform="translate(0)">
                  <g id="Grupo_137820" data-name="Grupo 137820" clip-path="url(#clip-path-8)">
                    <path id="Trazado_206776" data-name="Trazado 206776" d="M400.92,255.276c.7,6.525,15.134,6.511,14.627-.015Z" transform="translate(-400.92 -255.261)"/>
                  </g>
                </g>
              </g>
              <path id="Trazado_206781" data-name="Trazado 206781" d="M77.447,309.077l73.84-.433a4.909,4.909,0,0,0,4.822-4.942,4.836,4.836,0,0,0-4.822-4.883l-73.84.486a4.87,4.87,0,0,0-4.766,4.916,4.8,4.8,0,0,0,4.766,4.856m73.84-9.931a4.514,4.514,0,0,1,4.5,4.558,4.583,4.583,0,0,1-4.5,4.614l-73.84.434A4.479,4.479,0,0,1,73,304.218a4.547,4.547,0,0,1,4.45-4.589Z" transform="translate(52.588 -206.786)" fill="#0093fb"/>
              <path id="Trazado_206782" data-name="Trazado 206782" d="M307.75,300.81l7.683-.05v9.453l-7.683.045a4.633,4.633,0,0,1-4.608-4.695,4.7,4.7,0,0,1,4.608-4.753" transform="translate(-177.715 -208.129)" fill="#0093fb"/>
              <path id="Trazado_206783" data-name="Trazado 206783" d="M313.482,309.659a2.36,2.36,0,0,0,1.689-.727,2.493,2.493,0,0,0,0-3.461,2.33,2.33,0,0,0-1.689-.706,2.359,2.359,0,0,0-1.689.727,2.493,2.493,0,0,0,0,3.46,2.33,2.33,0,0,0,1.689.706m0-4.3a1.767,1.767,0,0,1,1.282.536,1.891,1.891,0,0,1,0,2.626,1.79,1.79,0,0,1-1.282.552,1.766,1.766,0,0,1-1.281-.536,1.891,1.891,0,0,1,0-2.625,1.79,1.79,0,0,1,1.281-.552" transform="translate(-180.601 -210.901)" fill="#fff"/>
              <path id="Trazado_206784" data-name="Trazado 206784" d="M323.414,319.3l1.81-1.882-.407-.415-1.81,1.882Z" transform="translate(-193.624 -219.372)" fill="#fff"/>
              <path id="Trazado_206785" data-name="Trazado 206785" d="M324.354,320.612h0a.51.51,0,0,0,.733,0l1.516-1.563-.733-.747-1.517,1.563a.541.541,0,0,0,0,.751" transform="translate(-195.373 -220.266)" fill="#fff"/>
              <path id="Trazado_206786" data-name="Trazado 206786" d="M72.682,383.24l25.268-.119V357.314l-25.268.148Z" transform="translate(110.747 -247.266)" fill="#7ebefb"/>
              <path id="Trazado_206787" data-name="Trazado 206787" d="M168.381,383.766l25.2-.119V357.873l-25.2.147Z" transform="translate(-14.362 -247.652)" fill="#7ebefb"/>
              <path id="Trazado_206788" data-name="Trazado 206788" d="M261.7,384.279l25.14-.119V358.418l-25.14.147Z" transform="translate(-136.361 -248.03)" fill="#7ebefb"/>
              <path id="Trazado_206790" data-name="Trazado 206790" d="M168.381,496.073l25.2-.081V470.218l-25.2.109Z" transform="translate(-14.362 -325.397)" fill="#7ebefb"/>
              <path id="Trazado_206791" data-name="Trazado 206791" d="M261.7,496.445l25.14-.081V470.623l-25.14.109Z" transform="translate(-136.361 -325.677)" fill="#7ebefb"/>
              <path id="Trazado_206792" data-name="Trazado 206792" d="M72.682,606.182l25.268-.044V580.331l-25.268.072Z" transform="translate(110.747 -401.597)" fill="#7ebefb"/>
              <path id="Trazado_206793" data-name="Trazado 206793" d="M168.381,606.423l25.2-.044V580.605l-25.2.072Z" transform="translate(-14.362 -401.786)" fill="#7ebefb"/>
              <path id="Trazado_206794" data-name="Trazado 206794" d="M261.7,606.657l25.14-.044V580.872l-25.14.072Z" transform="translate(-136.361 -401.971)" fill="#7ebefb"/>
              <path id="Trazado_206803" data-name="Trazado 206803" d="M126.067,412.893l1.641-.366-1.236-5.9-1.641.366a.878.878,0,0,0-.091.026l1.224,5.886a.859.859,0,0,0,.1-.016" transform="translate(64.955 -281.393)" fill="#398cdb"/>
              <path id="Trazado_206805" data-name="Trazado 206805" d="M187.638,387.755l.594,1.08,10.819-.059v9.463l-16.455.082v-9.343l.651-1.2Z" transform="translate(-24.207 -268.332)" fill="#cbe4fb"/>
              <path id="Trazado_206806" data-name="Trazado 206806" d="M203.16,389.246l3.794-.02v-1.56l-3.794.021Z" transform="translate(-38.443 -268.27)" fill="#cbe4fb"/>
              <path id="Trazado_206807" data-name="Trazado 206807" d="M186.728,389.157l3.8-.02v-1.56l-3.8.021Z" transform="translate(-16.952 -268.208)" fill="#cbe4fb"/>
              <path id="Trazado_206808" data-name="Trazado 206808" d="M182.6,403.653l16.455-.083v-5.461L182.6,398.2Z" transform="translate(-24.206 -275.496)" fill="#398cdb"/>
              <path id="Trazado_206809" data-name="Trazado 206809" d="M207.816,398.525a3.791,3.791,0,0,0,3.771,3.836,3.839,3.839,0,0,0,3.773-3.875,3.791,3.791,0,0,0-3.773-3.836,3.839,3.839,0,0,0-3.771,3.875" transform="translate(-48.283 -273.103)" fill="#398cdb"/>
              <path id="Trazado_206810" data-name="Trazado 206810" d="M210.57,400.467a2.939,2.939,0,0,0,2.924,2.974,2.975,2.975,0,0,0,2.925-3,2.939,2.939,0,0,0-2.925-2.974,2.976,2.976,0,0,0-2.924,3" transform="translate(-50.19 -275.049)" fill="#cbe4fb"/>
              <path id="Trazado_206811" data-name="Trazado 206811" d="M215.524,403.965a1.406,1.406,0,0,0,1.4,1.422,1.423,1.423,0,0,0,1.4-1.437,1.405,1.405,0,0,0-1.4-1.422,1.423,1.423,0,0,0-1.4,1.437" transform="translate(-53.618 -278.554)" fill="#398cdb"/>
              <path id="Trazado_206812" data-name="Trazado 206812" d="M87.838,617.551c.129-2.6,5.936-4.231,5.936-4.231s5.316-5.85,7.538-8.782c3.784,1.476,4.686,3.305,4.122,6.49-1.844-1.566-4.99,1.313-8.814,6.506Z" transform="translate(98.441 -418.348)" fill="#398cdb"/>
              <path id="Trazado_206813" data-name="Trazado 206813" d="M92.771,623.628,91.51,630.4H90.9c-.169-3.046-.549-6.5-2.564-5.394,0-2.717,4.434-2.727,4.434-1.376" transform="translate(111.103 -430.948)" fill="#398cdb"/>
              <path id="Trazado_206816" data-name="Trazado 206816" d="M105.141,504.042a5.4,5.4,0,0,0,3.562-1.074.091.091,0,0,0,.006-.127.087.087,0,0,0-.124-.006,5.34,5.34,0,0,1-3.445,1.027h0c-2.059.007-2.343-.84-2.346-.848a.087.087,0,0,0-.109-.059.09.09,0,0,0-.059.111c.011.04.306.984,2.514.976h0" transform="translate(90.745 -347.953)" fill="#398cdb"/>
              <path id="Trazado_206817" data-name="Trazado 206817" d="M113.314,507.683a.244.244,0,0,0,.191-.109c.431-.539-.644-1.556-.768-1.67l-.193-.177.047.261c.067.373.315,1.6.671,1.689a.188.188,0,0,0,.051.006m-.492-1.443c.334.357.773.939.547,1.221-.018.022-.042.048-.063.042-.147-.038-.35-.64-.485-1.262" transform="translate(82.812 -349.969)" fill="#398cdb"/>
              <path id="Trazado_206818" data-name="Trazado 206818" d="M116.53,502.5l0-.22c0-.054-.035-1.318-.521-1.74a.542.542,0,0,0-.446-.135.313.313,0,0,0-.287.206c-.15.463.893,1.528,1.1,1.737Zm-.892-1.922a.37.37,0,0,1,.252.1,2.389,2.389,0,0,1,.445,1.374c-.441-.466-.976-1.139-.9-1.384.005-.017.022-.067.143-.084a.4.4,0,0,1,.057,0" transform="translate(79.054 -346.286)" fill="#398cdb"/>
              <path id="Trazado_206819" data-name="Trazado 206819" d="M115.361,507.848a.088.088,0,0,0,.079-.051,2.758,2.758,0,0,1,1.612-1.392.091.091,0,0,0,.063-.11.088.088,0,0,0-.107-.064,2.9,2.9,0,0,0-1.726,1.487.09.09,0,0,0,.04.12.085.085,0,0,0,.038.009" transform="translate(78.461 -350.317)" fill="#398cdb"/>
              <path id="Trazado_206822" data-name="Trazado 206822" d="M200.787,737.538a6.163,6.163,0,0,0,4.081-1.219.1.1,0,0,0,.007-.145.1.1,0,0,0-.142-.008,6.094,6.094,0,0,1-3.946,1.166h0c-2.359,0-2.684-.972-2.687-.982a.1.1,0,0,0-.125-.068.1.1,0,0,0-.067.127c.013.046.351,1.129,2.88,1.129Z" transform="translate(-34.769 -509.418)" fill="#398cdb"/>
              <path id="Trazado_206824" data-name="Trazado 206824" d="M213.833,735.734l-.006-.252c0-.062-.041-1.512-.6-2a.623.623,0,0,0-.511-.157.357.357,0,0,0-.329.235c-.172.53,1.023,1.756,1.265,2Zm-1.022-2.207a.424.424,0,0,1,.288.114,2.747,2.747,0,0,1,.51,1.578c-.505-.536-1.117-1.31-1.027-1.591.007-.019.025-.077.164-.1a.466.466,0,0,1,.064,0" transform="translate(-48.16 -507.467)" fill="#398cdb"/>
              <path id="Trazado_206825" data-name="Trazado 206825" d="M212.494,741.862a.1.1,0,0,0,.091-.058,3.146,3.146,0,0,1,1.847-1.59.1.1,0,0,0,.072-.126.1.1,0,0,0-.123-.074,3.3,3.3,0,0,0-1.977,1.7.1.1,0,0,0,.046.138.1.1,0,0,0,.044.01" transform="translate(-48.84 -512.097)" fill="#398cdb"/>
              <path id="Trazado_206826" data-name="Trazado 206826" d="M204.478,491.857a8.314,8.314,0,0,1-4.369-.072c-1.663,2.055,1.266,3.035,3.095,2.589s1.274-2.517,1.274-2.517" transform="translate(-34.955 -340.321)" fill="#cbe4fb"/>
              <path id="Trazado_206827" data-name="Trazado 206827" d="M194.817,491.785a2.108,2.108,0,0,0,.963,1.363,2.51,2.51,0,0,0,3.406-1.29,11.9,11.9,0,0,1,2.466.549V506.58l-9.787.033V492.446a11.375,11.375,0,0,1,2.952-.661" transform="translate(-29.663 -340.321)" fill="#398cdb"/>
              <path id="Trazado_206828" data-name="Trazado 206828" d="M180.857,493.8l4.217,3.32-2.774,3.716-4.128-3.129Z" transform="translate(-8.867 -341.717)" fill="#398cdb"/>
              <path id="Trazado_206829" data-name="Trazado 206829" d="M219.252,493.93l-4.217,3.351,2.77,3.692,4.13-3.16Z" transform="translate(-57.081 -341.806)" fill="#398cdb"/>
              <path id="Trazado_206830" data-name="Trazado 206830" d="M290.416,527.757h.195v.844s-10.536.766-14.683.051-4.429-2.11-4.429-2.11v-.867h.142Z" transform="translate(-143.146 -363.772)" fill="#398cdb"/>
              <path id="Trazado_206831" data-name="Trazado 206831" d="M272.04,513.668c1.086,1.436,4.378,1.866,8.5,1.92,1.7.025,3.534-.015,5.416-.076,1.6-.054,3.234-.12,4.838-.171a15.506,15.506,0,0,0-.589-4.68,4.852,4.852,0,0,0-.268-.815l-.061-.022a3.743,3.743,0,0,1-2.694,1.208c-1.3-.027-2.774-.937-2.353-2.036a3.091,3.091,0,0,0,.159-.409c.335-1.094-.583-1.1-1.957-.243a16.191,16.191,0,0,1-6.348,2.393c-.362.059-.7.105-1.031.147-2.454.317-3.832.33-3.612,2.784" transform="translate(-143.523 -351.357)" fill="#d5e9fb"/>
              <path id="Trazado_206832" data-name="Trazado 206832" d="M304.825,520.748c1.086,1.436,4.378,1.866,8.5,1.92a2.053,2.053,0,0,0-1.9-2.586,4.382,4.382,0,0,1-2.989-2.119c-2.454.317-3.832.33-3.612,2.784" transform="translate(-176.171 -358.438)" fill="#398cdb"/>
              <path id="Trazado_206833" data-name="Trazado 206833" d="M271.568,522.093c1.6-.054,3.234-.12,4.838-.171a15.516,15.516,0,0,0-.589-4.68,6.122,6.122,0,0,0-4.25,4.851" transform="translate(-128.999 -357.938)" fill="#398cdb"/>
              <path id="Trazado_206834" data-name="Trazado 206834" d="M290.755,510.737a1.281,1.281,0,0,0,1.256.508,11.185,11.185,0,0,0,7.048-2.659c.335-1.094-.583-1.1-1.957-.244a16.186,16.186,0,0,1-6.347,2.394" transform="translate(-157.595 -351.356)" fill="#398cdb"/>
              <path id="Trazado_206835" data-name="Trazado 206835" d="M281.175,527.909c2.137-.007,4.275-.128,6.024-.227a28.615,28.615,0,0,1,3.247-.1l.08.01.019-.164-.08-.01a28.489,28.489,0,0,0-3.275.1c-4.893.277-13.994.791-15.559-2.136l-.039-.072-.141.08.039.072c1.079,2.017,5.378,2.463,9.685,2.448" transform="translate(-143.067 -363.52)" fill="#d5e9fb"/>
              <path id="Trazado_206836" data-name="Trazado 206836" d="M294.668,390.938l5.3-.026v-16.48l-5.3.03Z" transform="translate(-159.637 -259.111)" fill="#398cdb"/>
              <path id="Trazado_206837" data-name="Trazado 206837" d="M287.33,389.681a4.708,4.708,0,0,0,4.682,4.768,4.769,4.769,0,0,0,4.684-4.817,4.709,4.709,0,0,0-4.684-4.768,4.769,4.769,0,0,0-4.682,4.817" transform="translate(-154.108 -266.331)" fill="#cbe4fb"/>
              <path id="Trazado_206838" data-name="Trazado 206838" d="M290.3,391.776a3.791,3.791,0,0,0,3.769,3.838,3.839,3.839,0,0,0,3.771-3.878,3.79,3.79,0,0,0-3.771-3.838,3.839,3.839,0,0,0-3.769,3.878" transform="translate(-156.161 -268.43)" fill="#398cdb"/>
              <path id="Trazado_206839" data-name="Trazado 206839" d="M288.905,390.163l.6-.435-.715-1.036-.6.435Z" transform="translate(-147.183 -268.98)" fill="#cbe4fb"/>
              <rect id="Rectángulo_88118" data-name="Rectángulo 88118" width="0.733" height="1.271" transform="translate(142.835 124.643) rotate(-172.493)" fill="#cbe4fb"/>
              <path id="Trazado_206840" data-name="Trazado 206840" d="M313.165,390.207l-.605-.419.7-1.054.605.419Z" transform="translate(-179.047 -269.009)" fill="#cbe4fb"/>
              <path id="Trazado_206841" data-name="Trazado 206841" d="M317.016,401.888l-.726.1-.165-1.258.726-.1Z" transform="translate(-183.296 -277.241)" fill="#cbe4fb"/>
              <path id="Trazado_206842" data-name="Trazado 206842" d="M298.874,396.685l1.84-.981a.183.183,0,0,0,.076-.243.173.173,0,0,0-.237-.076l-1.66.885-2.338-1.521a.174.174,0,0,0-.243.056.182.182,0,0,0,.053.248Z" transform="translate(-160.98 -273.152)" fill="#cbe4fb"/>
              <path id="Trazado_206843" data-name="Trazado 206843" d="M196.068,613.018a20.055,20.055,0,0,1-3.573.654,54.235,54.235,0,0,1-7.657.256c-2.413-.1-4.429-.38-5.187-.875,0,0-1.611-9.769,7.882-10.01.106,0,.215,0,.324,0,9.86-.025,8.212,9.98,8.212,9.98" transform="translate(-20.388 -417.31)" fill="#398cdb"/>
              <path id="Trazado_206844" data-name="Trazado 206844" d="M199.28,613.672a54.189,54.189,0,0,1-7.657.256c-1.341-8.874,2.489-10.788,2.695-10.885l.008,0h.316c5,2.843,4.758,9.217,4.638,10.634" transform="translate(-27.173 -417.31)" fill="#cbe4fb"/>
              <path id="Trazado_206845" data-name="Trazado 206845" d="M172.767,635.849s2.685,4.559,15.147,3.5c5.335-.452.244-3.909.244-3.909a46.381,46.381,0,0,1-15.392.406" transform="translate(-12.479 -439.735)" fill="#599fe1"/>
              <path id="Trazado_206846" data-name="Trazado 206846" d="M285.065,611.93l-5.742.014a6.019,6.019,0,0,0-5.976,6.042,3.508,3.508,0,0,0,1.428,3.136l15.138-.031c.957-.456,1.325-2.043,1.071-3.941a5.987,5.987,0,0,0-5.92-5.22" transform="translate(-144.169 -423.463)" fill="#398cdb"/>
              <path id="Trazado_206847" data-name="Trazado 206847" d="M298.34,606.1l0-.051a2.183,2.183,0,0,0-4.353.01l0,.051-.741,0,.01-.115a2.92,2.92,0,0,1,5.825-.014l.01.115Z" transform="translate(-158.314 -417.48)" fill="#398cdb"/>
              <path id="Trazado_206848" data-name="Trazado 206848" d="M295.856,628.945l1.42,0v-5.684l-1.42,0Z" transform="translate(-157.315 -431.302)" fill="#d5e9fb"/>
              <path id="Trazado_206849" data-name="Trazado 206849" d="M304.985,628.965l1.42,0V623.28l-1.42,0Z" transform="translate(-169.254 -431.317)" fill="#d5e9fb"/>
              <path id="Trazado_206855" data-name="Trazado 206855" d="M279.816,714.122l3.838,3.037-2.524,3.378-3.757-2.863Z" transform="translate(-138 -494.181)" fill="#d5e9fb"/>
              <path id="Trazado_206856" data-name="Trazado 206856" d="M314.758,714.153l-3.838,3.043,2.521,3.372L317.2,717.7Z" transform="translate(-181.878 -494.203)" fill="#d5e9fb"/>
              <path id="Trazado_206857" data-name="Trazado 206857" d="M174.185,68.186a4.3,4.3,0,1,0,0-6.086,4.3,4.3,0,0,0,0,6.086" transform="translate(-3.709 -42.102)" fill="#12263f"/>
              <path id="Trazado_206858" data-name="Trazado 206858" d="M127.357,9.552l-1.827-2.08a24.441,24.441,0,0,1,35.961.848l-1.927,1.988a21.926,21.926,0,0,0-32.207-.756" transform="translate(30.929 0)" fill="#12263f"/>
              <path id="Trazado_206859" data-name="Trazado 206859" d="M140.347,27.286l-1.827-2.08a19.218,19.218,0,0,1,28.166.657l-1.926,1.988a16.7,16.7,0,0,0-24.413-.565" transform="translate(21.733 -13.415)" fill="#12263f"/>
              <path id="Trazado_206860" data-name="Trazado 206860" d="M152.922,44.451l-1.827-2.08a14.163,14.163,0,0,1,20.621.473l-1.926,1.988a11.649,11.649,0,0,0-16.867-.382" transform="translate(12.831 -26.4)" fill="#12263f"/>
              <path id="Trazado_206861" data-name="Trazado 206861" d="M440.408,312.472h58.984a7.321,7.321,0,1,0,0-14.642H440.408a7.321,7.321,0,0,0,0,14.642" transform="translate(-409.017 -206.102)" fill="#a7e446"/>
              <path id="Trazado_206862" data-name="Trazado 206862" d="M463.931,311.525l-.77,2.371h-2.493l2.017,1.465-.77,2.371,2.017-1.465,2.017,1.465-.77-2.371,2.017-1.465H464.7Z" transform="translate(-377.992 -215.579)" fill="#12263f"/>
              <path id="Trazado_206863" data-name="Trazado 206863" d="M503.721,311.525l-.77,2.371h-2.493l2.017,1.465-.77,2.371,2.017-1.465,2.017,1.465-.77-2.371,2.017-1.465h-2.493Z" transform="translate(-430.038 -215.579)" fill="#12263f"/>
              <path id="Trazado_206864" data-name="Trazado 206864" d="M543.512,311.525l-.77,2.371h-2.493l2.017,1.465-.77,2.371,2.017-1.465,2.017,1.465-.77-2.371,2.017-1.465h-2.493Z" transform="translate(-482.083 -215.579)" fill="#12263f"/>
              <path id="Trazado_206865" data-name="Trazado 206865" d="M583.3,311.525l-.77,2.371h-2.493l2.017,1.465-.77,2.371,2.017-1.465,2.017,1.465-.77-2.371,2.017-1.465h-2.493Z" transform="translate(-534.129 -215.579)" fill="#12263f"/>
              <path id="Trazado_206866" data-name="Trazado 206866" d="M623.093,311.525l-.77,2.371H619.83l2.017,1.465-.77,2.371,2.017-1.465,2.017,1.465-.77-2.371,2.017-1.465h-2.493Z" transform="translate(-586.174 -215.579)" fill="#12263f"/>
              <path id="Trazado_206867" data-name="Trazado 206867" d="M400.4,423.334c3.294-8.412,8-8.293,44.154-8.293a6.02,6.02,0,0,0,6.02-6.02V398.8a6.02,6.02,0,0,0-6.02-6.02H406.422a6.02,6.02,0,0,0-6.02,6.02Z" transform="translate(-342.814 -271.808)" fill="#a7e446"/>
              <path id="Trazado_206868" data-name="Trazado 206868" d="M420.706,422.957a2.045,2.045,0,1,0,2.045-2.045,2.045,2.045,0,0,0-2.045,2.045" transform="translate(-323.286 -291.276)" fill="#12263f"/>
              <path id="Trazado_206869" data-name="Trazado 206869" d="M455.375,422.957a2.045,2.045,0,1,0,2.045-2.045,2.045,2.045,0,0,0-2.045,2.045" transform="translate(-368.632 -291.276)" fill="#12263f"/>
              <path id="Trazado_206870" data-name="Trazado 206870" d="M490.043,422.957a2.045,2.045,0,1,0,2.045-2.045,2.045,2.045,0,0,0-2.045,2.045" transform="translate(-413.978 -291.276)" fill="#12263f"/>
              <path id="Trazado_206871" data-name="Trazado 206871" d="M524.711,422.957a2.045,2.045,0,1,0,2.045-2.045,2.045,2.045,0,0,0-2.045,2.045" transform="translate(-459.323 -291.276)" fill="#12263f"/>
              <path id="Trazado_206872" data-name="Trazado 206872" d="M701.119,306.133A6.884,6.884,0,1,0,708,299.249a6.884,6.884,0,0,0-6.884,6.884" transform="translate(-699.741 -207.084)" fill="#a7e446"/>
              <path id="Trazado_206873" data-name="Trazado 206873" d="M716.069,309.365l-4.141-5.056.721-.562,3.459,2.551,10.726-7.049.677.672Z" transform="translate(-707.111 -206.62)" fill="#fc4b52"/>
              <rect id="Rectángulo_88122" data-name="Rectángulo 88122" width="92" height="140" transform="translate(122 106)" fill="#fff"/>
            </g>
          </g>
        </g>
      </g>
    </g>
  </g>
</svg>
