<svg xmlns="http://www.w3.org/2000/svg" xmlns:xlink="http://www.w3.org/1999/xlink" width="525" height="336" viewBox="0 0 525 336">
  <defs>
    <clipPath id="clip-path">
      <rect id="Rectángulo_88040" data-name="Rectángulo 88040" width="114.292" height="95.32" fill="none"/>
    </clipPath>
  </defs>
  <g id="Grupo_138607" data-name="Grupo 138607" transform="translate(-790 -3751)">
    <rect id="Image_Place_Holder" data-name="Image Place Holder" width="525" height="336" transform="translate(790 3751)" fill="#d9eaea"/>
    <g id="Grupo_137669" data-name="Grupo 137669" transform="translate(1095 3871)">
      <g id="Grupo_137669-2" data-name="Grupo 137669" clip-path="url(#clip-path)">
        <path id="Trazado_204593" data-name="Trazado 204593" d="M33.726,9.409c-.476-1.572-.3-2.079,1.041-2.926C58.545-8.592,90.015,3.766,99.1,31.757c.249.766.4,1.453,1.427,1.386.612-.04,1.046.529,1.284,1.163.409,1.581-.238,2.562-1.865,2.693-1.52.122-3.047.032-4.571.043-1.116.009-2.231-.017-3.346.009-1.166.026-1.266.139-1.268,1.521q-.014,7.994,0,15.988c0,.477.01.954-.025,1.43.084,2.266.084,2.266,2.17,2.267q8.015,0,16.031,0c1.643,0,1.652-.013,1.652-1.81q0-8.515,0-17.03c0-2.3,0-2.3-2.165-2.405-1.838-.183-2.408-.964-1.979-2.708a1.805,1.805,0,0,1,1.951-1.235c1.188.029,2.381.065,3.566-.01a2.234,2.234,0,0,1,2.329,1.22V61.022a2.322,2.322,0,0,1-2.332,1.222c-3.831-.05-7.662,0-11.493-.038-.711-.008-1,.226-1.249.949-5.68,16.194-16.244,26.71-32,30.85C45.425,99.732,22.5,86.232,15.211,63.538c-.343-1.069-.771-1.36-1.784-1.342-3.755.07-7.513.033-11.269.026C.571,62.22,0,61.619,0,59.934Q0,47.64,0,35.344c0-1.671.572-2.265,2.172-2.268,3.868-.007,7.737-.032,11.6.022.784.011,1.068-.265,1.313-1.025A47.228,47.228,0,0,1,27.313,12.318c1.106-1.072,1.636-1.118,2.839-.257a1.632,1.632,0,0,1,.082,2.555c-.927,1.141-1.983,2.152-2.97,3.234a5.119,5.119,0,0,0-.861,1.038c.124.361.383.267.582.268,3.086.007,6.173,0,9.259.009a1.308,1.308,0,0,0,1.432-.857A52.294,52.294,0,0,1,40.7,11.931a55.569,55.569,0,0,1,3.835-5.757,17.331,17.331,0,0,0-4.1,1.579c-1.421.692-2.8,1.484-4.178,2.265-1.195.676-1.9.474-2.528-.609" transform="translate(0 0)"/>
        <path id="Trazado_204594" data-name="Trazado 204594" d="M162.944,52.109c-.069,1.661.291,2.135,1.817,2.394a2.171,2.171,0,0,1,.359,1.576q.015,7.747,0,15.495c-.008,2.091-.5,2.612-2.45,2.621-4.754.02-9.508.012-14.261,0a1.838,1.838,0,0,1-1.473-.383c-.013-6.206-.015-12.412-.052-18.619,0-.707.3-.742.808-.739,2.826.016,5.653.012,8.48.007,1.679,0,2.2-.578,2.143-2.349.217.267.407.52.813.506,1-.037,2.008-.04,3.011,0,.414.017.583-.261.807-.51" transform="translate(-56.499 -17.807)" fill="#a7e446"/>
        <path id="Trazado_204595" data-name="Trazado 204595" d="M49.734,12.317a1.938,1.938,0,0,0,2.725.187,35.486,35.486,0,0,1,7.8-3.757c.334-.115.662-.392,1.029-.118.075.251-.082.379-.207.52a39.079,39.079,0,0,0-7.131,12.278,1.325,1.325,0,0,1-1.46,1.053c-3.569-.051-7.139-.022-10.869-.022a11.354,11.354,0,0,1,1.952-2.5,29.893,29.893,0,0,1,2.085-2.156,2.094,2.094,0,0,0,.506-2.837,22.161,22.161,0,0,1,3.574-2.653" transform="translate(-16.008 -2.909)" fill="#9cc5fa"/>
        <path id="Trazado_204596" data-name="Trazado 204596" d="M5.47,75.031c-.012-6.2-.013-12.4-.052-18.6,0-.687.245-.76.773-.756,2.6.021,5.2.009,7.8.009q36.8,0,73.59,0c.445,0,.889.03,1.334.045a2.362,2.362,0,0,1,.1,1.17q.01,8.47,0,16.941c0,1.424-.1,1.528-1.45,1.578-.334.012-.669.007-1,.007q-39.425,0-78.85-.01c-.76,0-1.574.217-2.254-.382" transform="translate(-2.084 -19.024)" fill="#f3fafe"/>
        <path id="Trazado_204597" data-name="Trazado 204597" d="M5.455,75.06q41.047,0,82.093.025c1.047,0,1.392-.253,1.381-1.43-.055-5.965-.025-11.932-.025-17.9.458.257.2.7.2,1.044.017,6.563-.01,13.126.034,19.689.007.983-.2,1.233-1.14,1.231q-28.722-.049-57.445-.024c-1.581,0-1.93.286-2.357,1.9-1.265.669-2.588.35-3.894.241-.338-.028-.454-.362-.527-.683a1.889,1.889,0,0,0-2.125-1.467c-5.008.024-10.017-.026-15.024.041-1.044.014-1.365-.316-1.219-1.361a11.949,11.949,0,0,0,.044-1.305" transform="translate(-2.068 -19.053)" fill="#e3f5fe"/>
        <path id="Trazado_204598" data-name="Trazado 204598" d="M69.96,45.071c-2.713,0-5.426-.016-8.139.013-.648.007-.9-.041-.737-.894q.813-4.139,1.957-8.181a1.028,1.028,0,0,1,1.181-.9c4.571.03,9.142.042,13.714-.007.882-.01,1.041.323,1.026,1.168q-.068,3.875,0,7.752c.015.82-.181,1.082-.976,1.066-2.675-.054-5.351-.02-8.027-.02" transform="translate(-23.477 -11.996)" fill="#9cc5fa"/>
        <path id="Trazado_204599" data-name="Trazado 204599" d="M113.568,45.074h-4.615c-4.088,0-8.177-.022-12.264.019-.826.008-1.159-.149-1.131-1.144.072-2.621.044-5.247.011-7.871-.009-.715.169-.968.874-.963,4.682.031,9.365.02,14.048.011a.767.767,0,0,1,.9.629,71.9,71.9,0,0,1,2.181,9.32" transform="translate(-36.756 -12)" fill="#9cc5fa"/>
        <path id="Trazado_204600" data-name="Trazado 204600" d="M69.968,94.519c2.676,0,5.352.021,8.027-.014.685-.009.975.128.959.96-.051,2.663-.042,5.327,0,7.991.01.765-.174,1.031-.931,1.025-4.645-.036-9.29-.029-13.936,0-.589,0-.838-.218-1.012-.8-.823-2.763-1.465-5.572-2.024-8.407-.149-.754.153-.757.671-.754,2.75.016,5.5.007,8.251.007" transform="translate(-23.467 -32.294)" fill="#9cc5fa"/>
        <path id="Trazado_204601" data-name="Trazado 204601" d="M104.62,94.514c2.6,0,5.2.036,7.8-.02.889-.018,1.207.056.969,1.188-.561,2.673-1.175,5.324-1.928,7.942a.967.967,0,0,1-1.1.85q-6.912-.048-13.825,0c-.819.007-.985-.307-.973-1.1.039-2.584.048-5.169,0-7.752-.018-.866.161-1.157,1.028-1.135,2.674.067,5.351.024,8.027.024" transform="translate(-36.759 -32.289)" fill="#9cc5fa"/>
        <path id="Trazado_204602" data-name="Trazado 204602" d="M33.159,91.3a1.057,1.057,0,0,0,1.041.448c1.127-.024,2.253-.007,3.38-.006a2.02,2.02,0,0,0,2.319,1.7c1.632-.062,3.267.005,4.9-.026.544-.011.751.15.852.763a64.383,64.383,0,0,0,1.883,8.313c.215.7.039.895-.636.891q-5.9-.037-11.807,0a1.119,1.119,0,0,1-1.075-.644,45.546,45.546,0,0,1-4.253-9.255c1.468-.188,3.415.452,3.395-2.181" transform="translate(-11.449 -31.199)" fill="#9cc5fa"/>
        <path id="Trazado_204603" data-name="Trazado 204603" d="M29.764,45.077A44.388,44.388,0,0,1,34.1,35.6a.943.943,0,0,1,.937-.474c3.974.009,7.947.016,11.92,0,.625,0,.788.194.594.832a66.073,66.073,0,0,0-1.908,8.43c-.094.563-.3.7-.788.7-4.975-.014-9.951-.009-15.088-.009" transform="translate(-11.449 -12.003)" fill="#9cc5fa"/>
        <path id="Trazado_204604" data-name="Trazado 204604" d="M109.718,21.561h-5.552c-2.527,0-5.054-.028-7.58.017-.74.013-1.033-.142-1.024-1.026.042-4.571.055-9.143-.006-13.715-.015-1.112.43-1.036,1.117-.824a15.148,15.148,0,0,1,6.7,4.521A35.514,35.514,0,0,1,109.713,21.1a1.609,1.609,0,0,1,0,.456" transform="translate(-36.756 -2.012)" fill="#9cc5fa"/>
        <path id="Trazado_204605" data-name="Trazado 204605" d="M81.293,13.65c0,2.345-.018,4.691.012,7.036.008.65-.147.9-.8.895-4.236-.028-8.472-.014-12.708-.014-.423,0-.87.08-.548-.68,2.079-4.9,4.639-9.418,8.783-12.675A13.465,13.465,0,0,1,80.1,6.052c.829-.279,1.265-.265,1.218.922-.087,2.222-.025,4.451-.025,6.677" transform="translate(-25.825 -2.017)" fill="#9cc5fa"/>
        <path id="Trazado_204606" data-name="Trazado 204606" d="M141.021,45.049l-11.263.04c-.368,0-.712.065-.8-.533a83.952,83.952,0,0,0-2.008-9.027c-.017-.065.033-.149.052-.225a9.778,9.778,0,0,1,2.647-.1c2.744-.024,5.489.026,8.232-.031a1.37,1.37,0,0,1,1.493,1.076,45.8,45.8,0,0,1,1.9,7.575,1.346,1.346,0,0,1-.246,1.228" transform="translate(-48.829 -12.015)" fill="#9cc5fa"/>
        <path id="Trazado_204607" data-name="Trazado 204607" d="M72.616,124.963a34.823,34.823,0,0,1-5.333-9.153c-.338-.781.038-.762.556-.761,3.272.007,6.545-.018,9.817.014a13.963,13.963,0,0,1,3.537.132c.239,3.008.044,6.022.106,9.032a.731.731,0,0,1-.655.82c-2.677.288-5.361.868-8.027-.085" transform="translate(-25.831 -39.304)" fill="#9cc5fa"/>
        <path id="Trazado_204608" data-name="Trazado 204608" d="M111.776,129.063c1.082-1.416,2.208-2.771,3.181-4.257a43.113,43.113,0,0,0,4.419-8.779,1.251,1.251,0,0,1,1.388-.989c3.306.053,6.612.022,9.917.025.284,0,.568.027,1.071.053a40.7,40.7,0,0,1-19.977,13.947" transform="translate(-42.995 -39.311)" fill="#7fb3fa"/>
        <path id="Trazado_204609" data-name="Trazado 204609" d="M131.851,22.385c-4.018,0-7.731-.019-11.444.016-.758.007-.8-.585-.988-1.059a41.691,41.691,0,0,0-6.4-11.384c-.364-.447-.74-.883-1.107-1.328-.02-.024-.007-.077-.025-.33a41.8,41.8,0,0,1,19.961,14.085" transform="translate(-43.039 -2.836)" fill="#9cc5fa"/>
        <path id="Trazado_204610" data-name="Trazado 204610" d="M146.916,75.029q8.035,0,16.07,0c1.463,0,1.76-.318,1.76-1.882q0-8.715,0-17.43c2.68-.153,2.68-.153,2.68,2.727,0,6.043-.019,12.085.02,18.128.006.893-.2,1.118-1.039,1.113q-9.141-.061-18.282,0c-1.013.009-1.415-.264-1.253-1.356a11.115,11.115,0,0,0,.046-1.307" transform="translate(-56.481 -19.023)" fill="#85b638"/>
        <path id="Trazado_204611" data-name="Trazado 204611" d="M136.138,94.59H144.8a34.936,34.936,0,0,1-2.4,5.957c-1.943,3.95-1.949,3.944-6.081,3.946-2.746,0-5.491.014-8.236,0-.348,0-.74.175-1.051-.159a.756.756,0,0,1,.706-.278c1.329.215,2.151-.606,2.917-1.576a51.207,51.207,0,0,0,4.754-7.034c.188-.343.338-.715.729-.856" transform="translate(-48.864 -32.324)" fill="#7fb3fa"/>
        <path id="Trazado_204612" data-name="Trazado 204612" d="M95.69,115.217a3.044,3.044,0,0,1,.636-.138q6.472-.011,12.945,0a5.245,5.245,0,0,1,.578.078,23.2,23.2,0,0,1-1.893,4.048,18.347,18.347,0,0,1-4.69,2.666,41.073,41.073,0,0,1-6.112,2.185c-1.383.4-1.592.229-1.565-1.25.046-2.529-.14-5.062.1-7.587" transform="translate(-36.759 -39.323)" fill="#9cc5fa"/>
        <path id="Trazado_204613" data-name="Trazado 204613" d="M46.25,120.18a31.722,31.722,0,0,1-4.8-5.113H43.17c3.155,0,6.311.009,9.466-.009a.951.951,0,0,1,1.1.709,52.306,52.306,0,0,0,3.952,8.226c-.153.645-.615.424-.961.342A32.114,32.114,0,0,1,46.25,120.18" transform="translate(-15.942 -39.318)" fill="#9cc5fa"/>
        <path id="Trazado_204614" data-name="Trazado 204614" d="M95.674,115.291c0,2.539.033,5.078,0,7.616-.01.916.1,1.28,1.119.983a45.383,45.383,0,0,0,8.93-3.523,9.953,9.953,0,0,1,2.213-1.089c-2.546,5.032-5.7,9.387-11.033,11.3-1.325.475-1.335.44-1.338-1.025q-.011-6.555-.015-13.111c0-.382-.129-.793.121-1.151" transform="translate(-36.742 -39.398)" fill="#7fb3fa"/>
        <path id="Trazado_204615" data-name="Trazado 204615" d="M136.138,94.561a52.3,52.3,0,0,1-5.23,8.093,3.77,3.77,0,0,1-3.876,1.652c.453-2.033.913-4.064,1.357-6.1.21-.966.436-1.933.563-2.913.078-.6.265-.8.835-.788,2.116.046,4.234.041,6.351.055" transform="translate(-48.864 -32.295)" fill="#9cc5fa"/>
        <path id="Trazado_204616" data-name="Trazado 204616" d="M76.03,125.057a54.93,54.93,0,0,0,6.493-.043c.367-.02.735-.048,1.1-.088.75-.08,1.007-.473.989-1.326-.057-2.769-.012-5.541-.007-8.311.259.4.12.849.121,1.27q.013,6.563,0,13.126c0,1.334-.01,1.355-1.234.951a15.381,15.381,0,0,1-7.459-5.58" transform="translate(-29.245 -39.397)" fill="#7fb3f9"/>
        <path id="Trazado_204617" data-name="Trazado 204617" d="M49.253,122.839c2.215.854,4.314,2.032,6.579,2.741,1.446.452,2.911.835,4.368,1.249a.423.423,0,0,0,.489-.176,40.274,40.274,0,0,0,4.167,5.294,39.751,39.751,0,0,1-12.591-6.493,17.947,17.947,0,0,1-3.013-2.615" transform="translate(-18.945 -41.977)" fill="#7fb3fa"/>
        <path id="Trazado_204618" data-name="Trazado 204618" d="M141.056,45.021a36,36,0,0,0-2.152-9.167c-.227-.632-.625-.562-1.061-.562q-5.4-.01-10.809-.016c.231-.307.551-.161.827-.162,3.819-.007,7.638,0,11.456,0a1.178,1.178,0,0,1,1.233.551,45.9,45.9,0,0,1,4.288,9.357Z" transform="translate(-48.864 -11.988)" fill="#7fb3fa"/>
        <path id="Trazado_204619" data-name="Trazado 204619" d="M153.154,67.87a5.978,5.978,0,0,1,3.4-5.352,5.117,5.117,0,0,1,6.125.985,5.924,5.924,0,0,1,1.652,6.373,1.624,1.624,0,0,0,.494,2.022,4.313,4.313,0,0,1,.773.856,1.736,1.736,0,0,1-.125,2.367c-.673.714-1.613.864-2.18.087-1.074-1.472-2.226-1.434-3.808-1.105-3.228.672-6.318-2.412-6.325-6.233" transform="translate(-58.912 -21.157)"/>
        <path id="Trazado_204620" data-name="Trazado 204620" d="M163.38,69.93a2.391,2.391,0,1,1-2.352-2.529,2.54,2.54,0,0,1,2.352,2.529" transform="translate(-61.01 -23.032)" fill="#a7e446"/>
      </g>
    </g>
  </g>
</svg>
