<svg id="Grupo_138059" data-name="Grupo 138059" xmlns="http://www.w3.org/2000/svg" xmlns:xlink="http://www.w3.org/1999/xlink" width="79.479" height="79.469" viewBox="0 0 79.479 79.469">
  <defs>
    <clipPath id="clip-path">
      <rect id="Rectángulo_88245" data-name="Rectángulo 88245" width="79.479" height="79.469" fill="none"/>
    </clipPath>
  </defs>
  <g id="Grupo_138060" data-name="Grupo 138060" clip-path="url(#clip-path)">
    <path id="Trazado_208482" data-name="Trazado 208482" d="M54.024,0c1.144.35,2.344.426,3.5.753A20.388,20.388,0,0,1,72.3,22.219a19.753,19.753,0,0,1-6.2,12.818c-.411.392-.418.625-.112,1.07,1.083,1.574,2.126,3.176,3.174,4.774a3.134,3.134,0,0,1-.921,4.7c-1.209.841-2.412,1.691-3.649,2.487a1.14,1.14,0,0,0-.582,1.133c.034,1.267,0,2.535.016,3.8a1.7,1.7,0,0,1-1.129,1.753c-.7.3-1.391.626-2.21,1,.862.334,1.573.611,2.285.885a1.331,1.331,0,0,1,1,1.171A26.969,26.969,0,0,1,63.829,64a6.724,6.724,0,0,1-6.677,5.387c-2.328.016-4.656.034-6.983-.017a.966.966,0,0,0-1.093.769c-1.006,2.678-2.054,5.34-3.09,8.007-.373.96-.911,1.378-1.675,1.322s-1.226-.531-1.479-1.544c-.218-.309-.05-.6.055-.882.807-2.183,1.674-4.342,2.508-6.515.333-.869.3-.927-.6-.934-.827-.007-1.655.016-2.482-.008a1.689,1.689,0,0,1-1.831-1.687,1.717,1.717,0,0,1,1.8-1.813c.593-.037,1.189-.011,1.784-.012,4.292,0,8.585.006,12.877,0a3.489,3.489,0,0,0,3.54-2.376A4.99,4.99,0,0,0,60.644,62c0-.646-.017-1.294.006-1.939a.966.966,0,0,0-.72-1.048c-1.186-.445-2.368-.9-3.56-1.332a1.844,1.844,0,0,1-1.456-1.7,1.792,1.792,0,0,1,1.332-1.868c1.21-.524,2.393-1.109,3.61-1.615a1.157,1.157,0,0,0,.8-1.254c-.038-.981-.007-1.965-.01-2.947a2.656,2.656,0,0,1,1.224-2.361c1.3-.893,2.6-1.789,3.9-2.677.529-.36.582-.664.229-1.192-1.782-2.665-3.58-5.32-5.32-8.013a3.743,3.743,0,0,1-.663-2.249,32.362,32.362,0,0,0-.486-7.05,29.911,29.911,0,0,1-7.554,12.088,30.209,30.209,0,0,1-10.685,7.018,13.784,13.784,0,0,0-7.42,6.158A13.2,13.2,0,0,0,32.2,56.093c-.029.775,0,1.551,0,2.327a11.238,11.238,0,0,1-8.136,10.709,1,1,0,0,1-.225.057c-1.644.05-2.469.955-2.966,2.484-.59,1.814-1.387,3.564-2.13,5.328a2.179,2.179,0,0,1-.551.92c-.091.184-.184.367-.274.551a1.544,1.544,0,1,1-2.847-1.191c.933-2.347,1.894-4.684,2.845-7.024.451-1.11.454-1.112-.627-1.5a12.576,12.576,0,0,1-3.928-2.432A36.83,36.83,0,0,1,.377,42.78,36.831,36.831,0,0,1,6.239,16.918a1.609,1.609,0,0,1,2.309-.724A1.592,1.592,0,0,1,9.13,18.5c-.368.742-.881,1.4-1.294,2.116A33.029,33.029,0,0,0,3.513,34.032,33.9,33.9,0,0,0,11.39,59.713a34.511,34.511,0,0,0,4.71,4.593c4.748,3.935,11.431.844,12.493-4.64a17.93,17.93,0,0,0,.077-3.252A16.748,16.748,0,0,1,31,47.991a17.065,17.065,0,0,1,8.9-7.367A28,28,0,0,0,53.421,29.444a18.86,18.86,0,0,0,3.225-8.07A15.442,15.442,0,0,0,53.79,10.231a15.938,15.938,0,0,0-11.4-6.587,34.16,34.16,0,0,0-17.5,2.125,29.237,29.237,0,0,0-5.77,3,2.529,2.529,0,0,1-1.8.57c-.505-.07-.968-.217-1.109-.8a1.612,1.612,0,0,1,.72-2.307A37.269,37.269,0,0,1,34.238.155c.139-.013.321.057.384-.155H35.4c.093.1.217.074.332.08H36c.116-.006.239.022.331-.08Z" transform="translate(0)"/>
    <path id="Trazado_208483" data-name="Trazado 208483" d="M350.956,263.006a2.239,2.239,0,0,1-2.2,1.061c-1.523-.051-3.05,0-4.575-.02a1.532,1.532,0,0,1-1.5-.915,1.531,1.531,0,0,1,1.4-2.18c1.758,0,3.516.01,5.273-.005a1.74,1.74,0,0,1,1.6,1.127Z" transform="translate(-271.477 -206.818)"/>
    <path id="Trazado_208484" data-name="Trazado 208484" d="M170.948.132c-.126.015-.257.038-.3-.132h.31q.078.049.049.091c-.019.027-.038.041-.057.041" transform="translate(-135.248)" fill="#696969"/>
    <path id="Trazado_208485" data-name="Trazado 208485" d="M172.1.132A1.223,1.223,0,0,0,172.11,0h.311q.079.05.048.093a.077.077,0,0,1-.058.04H172.1" transform="translate(-136.402)" fill="#4c4c4c"/>
    <path id="Trazado_208486" data-name="Trazado 208486" d="M173.589.133c.005-.044.009-.088.01-.133h.31a.264.264,0,0,1-.321.133" transform="translate(-137.581)" fill="#333"/>
    <path id="Trazado_208487" data-name="Trazado 208487" d="M28.11,20.438a1.661,1.661,0,0,0,2.529.214,33.978,33.978,0,0,1,20.116-5.618,21.118,21.118,0,0,1,10.072,2.39,16.016,16.016,0,0,1,6.111,21.543A28.54,28.54,0,0,1,51.881,52.717a16.659,16.659,0,0,0-10.7,12.135,17.554,17.554,0,0,0-.352,4.857,8.077,8.077,0,0,1-8.463,8.468,7.257,7.257,0,0,1-4.385-1.746,33.808,33.808,0,0,1-12.66-22.6,33.765,33.765,0,0,1,5.314-23.137c.735-1.144.7-1.712-.176-2.6.911-.9,1.555-2.029,2.516-2.884.266-.139.5.035.74.086a1.271,1.271,0,0,0,1.6-1.6c-.051-.244-.224-.474-.088-.741.859-.956,1.993-1.6,2.884-2.517" transform="translate(-11.907 -11.899)" fill="#feca7b"/>
    <path id="Trazado_208488" data-name="Trazado 208488" d="M87.651,169.674c1.094-2.725,2.2-5.446,3.271-8.18.156-.4.439-.365.733-.413a11.2,11.2,0,0,0,9.063-6.995,10.636,10.636,0,0,0,.771-4.776,13.376,13.376,0,0,1,4.752-11.357,15.106,15.106,0,0,1,4.278-2.45,31.53,31.53,0,0,0,17.693-17.386c.312-.73.533-1.5.828-2.344a25.429,25.429,0,0,1,.635,4.891,19.892,19.892,0,0,1,.013,2.636,4.1,4.1,0,0,0,.834,2.734c1.8,2.648,3.533,5.341,5.318,8,.29.432.3.641-.171.949-1.47.961-2.889,2-4.354,2.967a1.92,1.92,0,0,0-.935,1.749c.009,1.241-.014,2.483.012,3.724a.733.733,0,0,1-.52.811c-1.305.554-2.587,1.164-3.885,1.736-.763.336-1.457.705-1.437,1.7.021,1.038.775,1.361,1.578,1.657,1.233.455,2.452.952,3.694,1.382a.723.723,0,0,1,.57.839c-.035.956.017,1.915-.027,2.87a3.692,3.692,0,0,1-3.779,3.621c-4.888.012-9.776,0-14.664.006-1.077,0-1.732.528-1.8,1.41a1.493,1.493,0,0,0,1.508,1.683c1.06.029,2.121.035,3.18,0,.571-.019.712.078.477.665-.922,2.3-1.8,4.612-2.685,6.922-.119.312-.2.638-.3.957l-24.65,0" transform="translate(-69.469 -91.757)" fill="#fed3bd"/>
    <path id="Trazado_208489" data-name="Trazado 208489" d="M339.552,220.686a1.551,1.551,0,0,1,1.495,1.123,1.475,1.475,0,0,1-.773,1.764c-1.447.594-2.915,1.145-4.4,1.634a1.518,1.518,0,0,1-1.157-2.767,42.907,42.907,0,0,1,4.606-1.741.873.873,0,0,1,.231-.013" transform="translate(-264.706 -174.907)"/>
    <path id="Trazado_208490" data-name="Trazado 208490" d="M339.334,298.587c-.124-.036-.35-.088-.566-.168-1.233-.457-2.469-.9-3.691-1.388a1.518,1.518,0,0,1-.979-2.05,1.538,1.538,0,0,1,2.059-.833c1.31.468,2.617.947,3.91,1.461a1.531,1.531,0,0,1,.985,1.807,1.594,1.594,0,0,1-1.717,1.171" transform="translate(-264.697 -233.037)"/>
    <path id="Trazado_208491" data-name="Trazado 208491" d="M53.774,51.522a1.655,1.655,0,0,1,.058,1.99,1.429,1.429,0,0,1-1.472.6,4.332,4.332,0,0,1-.84-.335c-.6-.941-.63-1.566-.095-2.184.6-.691,1.352-.713,2.349-.07" transform="translate(-40.455 -40.465)" fill="#010101"/>
    <path id="Trazado_208492" data-name="Trazado 208492" d="M245.938,15.1a17.241,17.241,0,0,1,17.128,11.053,17.049,17.049,0,0,1-4.267,18.6,1.853,1.853,0,0,1-.547-1.534,35.014,35.014,0,0,0-3.829-16.885c-.658-1.3-1.006-2.755-1.719-4.05a19.572,19.572,0,0,0-6.766-7.186" transform="translate(-194.922 -11.943)" fill="#feca7c"/>
  </g>
</svg>
