<svg id="Grupo_138161" data-name="Grupo 138161" xmlns="http://www.w3.org/2000/svg" xmlns:xlink="http://www.w3.org/1999/xlink" width="63.984" height="60.528" viewBox="0 0 63.984 60.528">
  <defs>
    <clipPath id="clip-path">
      <rect id="Rectángulo_88479" data-name="Rectángulo 88479" width="63.984" height="60.529" fill="none"/>
    </clipPath>
  </defs>
  <g id="Grupo_138161-2" data-name="Grupo 138161" clip-path="url(#clip-path)">
    <path id="Trazado_210060" data-name="Trazado 210060" d="M63.978,31.893a3.236,3.236,0,0,0-5.036-2.887c-2.389,1.391-4.848,2.687-7.1,4.271A4.809,4.809,0,0,1,49,33.992c-.469.027-.543-.151-.523-.563.033-.708.015-1.419.008-2.128a4.253,4.253,0,0,0-4.3-4.331c-.444,0-.889,0-1.372,0,5.477-4.35,7.747-9.859,5.724-16.563C46.672,4.242,42.239.535,35.811.057c-8.089-.6-13.153,3.632-15.778,11.118-.067-.078-.145-.174-.228-.265A10.822,10.822,0,0,0,8.66,7.269,10.916,10.916,0,0,0,.3,15.585,5.063,5.063,0,0,1,0,16.827v1.628a.958.958,0,0,1,0,.751v.376c.153.661.133,1.348.348,2.006a12.074,12.074,0,0,0,3.414,5.259A4.218,4.218,0,0,0,0,30.475V57.019a.539.539,0,0,1,.1.145,4.238,4.238,0,0,0,4.425,3.36q6.9,0,13.794,0c.983,0,1.353-.3,1.561-1.242a1.074,1.074,0,0,0-.679-1.29,2.789,2.789,0,0,0-1.227-.17q-6.5,0-13,0a5.865,5.865,0,0,1-.873-.03,1.629,1.629,0,0,1-1.387-1.41,5.138,5.138,0,0,1-.024-.688q0-11.957,0-23.914a5.425,5.425,0,0,1,.019-.625,1.623,1.623,0,0,1,1.471-1.463,6.754,6.754,0,0,1,.749-.018H43.549a6.752,6.752,0,0,1,.749.018,1.622,1.622,0,0,1,1.47,1.463,6.661,6.661,0,0,1,.019.751q0,11.831,0,23.663a6.114,6.114,0,0,1-.024.813,1.628,1.628,0,0,1-1.387,1.409,5.866,5.866,0,0,1-.873.03q-6.5,0-13,0a2.787,2.787,0,0,0-1.227.171,1.074,1.074,0,0,0-.679,1.29c.2.92.579,1.241,1.5,1.241,4.707,0,9.413.013,14.12,0a4.236,4.236,0,0,0,4.261-4.244c.012-.793,0-1.586.005-2.379,0-.171-.071-.43.241-.378.956.158,2.087-.482,2.841.617.032.047.1.07.155.1,2.418,1.425,4.825,2.867,7.256,4.27a3.23,3.23,0,0,0,5-2.889q.014-11.863,0-23.726M18.349,26.936a11.812,11.812,0,0,0,3.428-4.745,15.464,15.464,0,0,0,4.441,4.745Z" transform="translate(0 0)"/>
    <path id="Trazado_210061" data-name="Trazado 210061" d="M0,110.509a.558.558,0,0,1,0,.751Z" transform="translate(0 -92.054)" fill="#212121"/>
    <path id="Trazado_210062" data-name="Trazado 210062" d="M32.349,206.3a1.312,1.312,0,0,0-1.547-1.26q-6.84,0-13.68,0c-1.523,0-2.158-.637-2.158-2.164q0-12.111,0-24.222c0-1.526.635-2.161,2.16-2.161H56.291c1.524,0,2.16.636,2.16,2.162q0,12.111,0,24.222c0,1.526-.636,2.163-2.159,2.164q-6.84,0-13.68,0a1.31,1.31,0,0,0-1.546,1.261H37.973c-.176-.106-.209-.3-.293-.466a1.077,1.077,0,0,0-1.945,0c-.083.163-.116.361-.292.466H32.349" transform="translate(-12.465 -147.014)" fill="#858fa5"/>
    <path id="Trazado_210063" data-name="Trazado 210063" d="M137.592,348.711c.171-.825.578-1.241,1.234-1.258.677-.018,1.12.413,1.3,1.258-.186.835-.626,1.257-1.3,1.239-.648-.017-1.054-.424-1.234-1.239" transform="translate(-114.614 -289.429)" fill="#010101"/>
    <path id="Trazado_210064" data-name="Trazado 210064" d="M328.221,198.3q0,5.789,0,11.578c0,.4.051.806-.365,1.058-.449.272-.791-.01-1.146-.219-2.024-1.192-4.044-2.392-6.076-3.572a.732.732,0,0,1-.42-.733q.019-8.136,0-16.272a.732.732,0,0,1,.413-.737c2.068-1.2,4.122-2.424,6.183-3.637.913-.537,1.409-.244,1.409.831q0,5.851,0,11.7" transform="translate(-266.74 -154.522)" fill="#636363"/>
    <path id="Trazado_210065" data-name="Trazado 210065" d="M133.179,26.766a12.245,12.245,0,1,1,12.181,12.316,12.269,12.269,0,0,1-12.181-12.316" transform="translate(-110.938 -12.113)" fill="#858fa5"/>
    <path id="Trazado_210066" data-name="Trazado 210066" d="M23.692,56.528a8.764,8.764,0,1,1-8.72,8.774,8.774,8.774,0,0,1,8.72-8.774" transform="translate(-12.472 -47.088)" fill="#97a0b2"/>
    <path id="Trazado_210067" data-name="Trazado 210067" d="M292.8,225.4c0,2.212-.016,4.424.013,6.636.006.484-.135.61-.591.573a11.865,11.865,0,0,0-1.5,0c-.318.015-.43-.073-.429-.413q.016-6.855,0-13.71c0-.34.111-.438.429-.41.677.058,1.563-.285,1.973.139.327.338.1,1.225.1,1.868.005,1.774,0,3.548,0,5.321" transform="translate(-241.815 -181.591)" fill="#97a0b2"/>
    <path id="Trazado_210068" data-name="Trazado 210068" d="M52.459,253.99q-5.245,0-10.49,0c-1.117,0-1.564-.44-1.564-1.541q0-5.725,0-11.449c0-1.075.449-1.532,1.509-1.533q10.615,0,21.229,0c1.032,0,1.5.459,1.5,1.477q.006,5.787,0,11.574c0,1.013-.474,1.47-1.509,1.471q-5.339,0-10.677,0" transform="translate(-33.656 -199.475)"/>
    <path id="Trazado_210069" data-name="Trazado 210069" d="M212.019,273.736c0,.917,0,1.833,0,2.75-.007.992-.469,1.471-1.44,1.474q-2.807.011-5.614,0a1.282,1.282,0,0,1-1.44-1.473q-.008-2.782,0-5.563c0-1.015.47-1.472,1.5-1.474q2.745-.007,5.49,0c1.057,0,1.5.458,1.5,1.536,0,.917,0,1.833,0,2.75" transform="translate(-169.532 -224.45)"/>
    <path id="Trazado_210070" data-name="Trazado 210070" d="M207.783,197.493a4.255,4.255,0,1,1-4.238,4.264,4.264,4.264,0,0,1,4.238-4.264" transform="translate(-169.553 -164.512)"/>
    <path id="Trazado_210071" data-name="Trazado 210071" d="M148.145,39.3a9.746,9.746,0,1,1,9.71,9.767,9.762,9.762,0,0,1-9.71-9.767" transform="translate(-123.405 -24.605)"/>
    <path id="Trazado_210072" data-name="Trazado 210072" d="M44.429,80.321a5.746,5.746,0,1,1-5.73-5.789,5.77,5.77,0,0,1,5.73,5.789" transform="translate(-27.436 -62.085)"/>
    <path id="Trazado_210073" data-name="Trazado 210073" d="M64.868,263.921c-3,0-6-.012-8.994.012-.469,0-.58-.112-.576-.579q.036-4.193,0-8.386c0-.473.117-.576.579-.575q9.057.026,18.114,0c.468,0,.58.112.576.578q-.036,4.193,0,8.386c0,.473-.117.578-.579.575-3.04-.023-6.079-.012-9.119-.012" transform="translate(-46.063 -211.91)" fill="#a7e446"/>
    <path id="Trazado_210074" data-name="Trazado 210074" d="M218.222,285.757c.02-.553-.283-1.289.08-1.608.309-.272,1.027-.1,1.562-.085.594.018,1.385-.267,1.725.116.293.329.1,1.107.089,1.686-.013.554.244,1.29-.112,1.608-.305.272-1.026.1-1.561.085-.594-.018-1.388.267-1.724-.116-.287-.327-.059-1.106-.059-1.685" transform="translate(-181.696 -236.556)" fill="#feca2e"/>
    <path id="Trazado_210075" data-name="Trazado 210075" d="M220.271,212.5a1.749,1.749,0,1,1-1.748,1.746,1.763,1.763,0,0,1,1.748-1.746" transform="translate(-182.03 -177.012)" fill="#a7e446"/>
    <path id="Trazado_210076" data-name="Trazado 210076" d="M163.109,51.764a7.247,7.247,0,1,1,7.184,7.29,7.273,7.273,0,0,1-7.184-7.29" transform="translate(-135.87 -37.094)" fill="#d2d6de"/>
    <path id="Trazado_210077" data-name="Trazado 210077" d="M54.395,92.785a3.247,3.247,0,1,1-3.257-3.26,3.262,3.262,0,0,1,3.257,3.26" transform="translate(-39.901 -74.575)" fill="#d2d6de"/>
    <path id="Trazado_210078" data-name="Trazado 210078" d="M200.262,60.131a1.234,1.234,0,0,1,1.266,1.249,1.246,1.246,0,1,1-2.493-.029,1.226,1.226,0,0,1,1.227-1.22" transform="translate(-165.796 -50.089)" fill="#010101"/>
    <path id="Trazado_210079" data-name="Trazado 210079" d="M221.92,81.768a1.23,1.23,0,0,1-1.249,1.264,1.249,1.249,0,1,1,.032-2.5,1.228,1.228,0,0,1,1.217,1.234" transform="translate(-182.789 -67.085)" fill="#010101"/>
    <path id="Trazado_210080" data-name="Trazado 210080" d="M200.291,103.484a1.224,1.224,0,0,1-1.251-1.258,1.246,1.246,0,1,1,2.492.046,1.237,1.237,0,0,1-1.242,1.212" transform="translate(-165.801 -84.129)" fill="#010101"/>
    <path id="Trazado_210081" data-name="Trazado 210081" d="M179.9,80.537a1.249,1.249,0,0,1-.034,2.5,1.249,1.249,0,0,1,.034-2.5" transform="translate(-148.816 -67.088)" fill="#010101"/>
  </g>
</svg>
