<svg id="Grupo_138159" data-name="Grupo 138159" xmlns="http://www.w3.org/2000/svg" xmlns:xlink="http://www.w3.org/1999/xlink" width="63.515" height="63.56" viewBox="0 0 63.515 63.56">
  <defs>
    <clipPath id="clip-path">
      <rect id="Rectángulo_88478" data-name="Rectángulo 88478" width="63.515" height="63.559" fill="none"/>
    </clipPath>
  </defs>
  <g id="Grupo_138160" data-name="Grupo 138160" clip-path="url(#clip-path)">
    <path id="Trazado_210040" data-name="Trazado 210040" d="M0,38.981V10.553A3.309,3.309,0,0,1,3.549,7.647c1.5-.008,1.335.164,1.361-1.363a19.729,19.729,0,0,1,.13-3.523A3.684,3.684,0,0,1,6.485.461,3.7,3.7,0,0,1,7.929,0H38.9a.953.953,0,0,1,.759,1.051,1.181,1.181,0,0,1-1.232,1c-.288.021-.578.011-.867.011H9.381c-1.854,0-2.24.39-2.244,2.26,0,.807-.006,1.614,0,2.42s.073.865.9.88c.248,0,.5,0,.743,0q20.625,0,41.25-.006a3.587,3.587,0,0,1,3.384,1.877,3.837,3.837,0,0,1,.436,1.973q-.009,9.216,0,18.432,0,8.844,0,17.687c0,.228.006.455.006.683,0,.384.185.54.566.57,1.4.113,2.089-.475,2.116-1.928.038-2.006.01-4.013.012-6.02,0-3.868,0-7.737,0-11.6,0-.985.23-1.3,1.022-1.511a1.1,1.1,0,0,1,1.128.95,3.737,3.737,0,0,1,.1,1.047q0,8.472,0,16.944c0,.186,0,.372-.014.558a3.731,3.731,0,0,1-4.057,3.819c-.847.01-.882.038-.882.867,0,1.965-.034,3.931.011,5.9a3.648,3.648,0,0,0,3.168,3.584,3.749,3.749,0,0,0,4.133-2.34,4.547,4.547,0,0,0,.231-1.709q0-18.588,0-37.177,0-8.037,0-16.075a3.928,3.928,0,0,0-.063-.988,1.329,1.329,0,0,0-1.354-1.045,1.273,1.273,0,0,0-1.156,1.246c-.023.268-.013.538-.013.807q0,9.651,0,19.3a4.167,4.167,0,0,1-.1,1.232,1.1,1.1,0,0,1-1.1.917,1.128,1.128,0,0,1-1.038-1.178c-.017-.227-.011-.455-.011-.682q0-10.014,0-20.029a5.827,5.827,0,0,1,.048-1.114c.084-.431-.116-.561-.5-.546-.185.007-.371,0-.557,0q-6.034,0-12.068,0c-.7,0-1.333-.091-1.585-.884-.022-.731.085-.9.737-1.177H60.708a3.262,3.262,0,0,1,2.806,3.406q-.047,27.317,0,54.635a5.665,5.665,0,0,1-3.573,5.231,3.507,3.507,0,0,1-1.209.224c-.249.03-.509-.067-.749.064H4.832A5.729,5.729,0,0,1,.406,60.38,6.086,6.086,0,0,1,0,58.843V42.7c.278-.654.434-.752,1.17-.739a1.2,1.2,0,0,1,.877,1.213c.014.269.01.538.01.807q0,6.734,0,13.469A3.716,3.716,0,0,0,6.118,61.5q22.982,0,45.964,0a1.132,1.132,0,0,0,.6-.067c.055-.165-.05-.28-.125-.4a6.706,6.706,0,0,1-.977-3.725q.01-22.592,0-45.185c0-1.95-.284-2.239-2.208-2.239H4.162c-.248,0-.5-.008-.743.008A1.355,1.355,0,0,0,2.09,11.124a6.791,6.791,0,0,0-.032.992q0,12.755,0,25.51c0,.29,0,.579-.01.869a1.208,1.208,0,0,1-.867,1.224c-.732.025-.9-.082-1.18-.738" transform="translate(0 -0.001)"/>
    <path id="Trazado_210041" data-name="Trazado 210041" d="M350.812,383.051a.105.105,0,0,0-.017.111h-.619a.7.7,0,0,1,.636-.111" transform="translate(-292.193 -319.602)" fill="#505050"/>
    <path id="Trazado_210042" data-name="Trazado 210042" d="M5.974,90.641q0-1.222,0-2.444c.689-.159.877-.622.877-1.287q-.017-13.342-.007-26.685c0-1.479.527-2,2.021-2q22.947,0,45.894,0a1.979,1.979,0,0,1,1.6.489,1.872,1.872,0,0,1,.433,1.377q-.01,7.664,0,15.328,0,15.3-.007,30.594a6.019,6.019,0,0,0,1.429,4.173c-.159.179-.356.091-.523.091q-23.318.007-46.637.021a4.08,4.08,0,0,1-4.233-4.219c.086-4.735.019-9.474.031-14.211a1.062,1.062,0,0,0-.876-1.221" transform="translate(-4.985 -48.578)" fill="#e6ebf5"/>
    <path id="Trazado_210043" data-name="Trazado 210043" d="M74.713,5.249a10.176,10.176,0,0,0,2.441.121c.164.682.618.883,1.286.88,4.333-.016,8.666-.008,13-.008h.745a8.721,8.721,0,0,0-.306,3.443q-.018,9.428,0,18.855c0,.891.134,1.077.905,1.305a3.357,3.357,0,0,1,0,2.448c-.772.227-.9.412-.905,1.305q0,8.844,0,17.687a2.041,2.041,0,0,1-2.846,2.131.222.222,0,0,1-.194-.255c0-.165,0-.331,0-.5q0-18.4,0-36.8a3.442,3.442,0,0,0-2.6-3.606,5.611,5.611,0,0,0-1.416-.1q-20.935,0-41.869,0c-.892,0-.791.114-.8-.788,0-1.117-.009-2.234,0-3.351a1.567,1.567,0,0,1,1.8-1.776q14.741,0,29.482,0c.88,0,1.134-.2,1.28-.992" transform="translate(-35.17 -4.38)" fill="#d7e1f0"/>
    <path id="Trazado_210044" data-name="Trazado 210044" d="M327.981,37.313V34.864c.787-.207.952-.432.953-1.339q0-10.053,0-20.107c0-.228-.006-.456.008-.682a1.51,1.51,0,0,1,1.464-1.472,1.569,1.569,0,0,1,1.523,1.363,3.428,3.428,0,0,1,.017.5q0,27,0,53.991a3.681,3.681,0,0,1-2.153,3.548,3.883,3.883,0,0,1-4.259-.4,3.538,3.538,0,0,1-1.495-2.928c-.024-2.192,0-4.385-.019-6.578,0-.409.144-.479.5-.467a7.673,7.673,0,0,0,1.482-.043,3.447,3.447,0,0,0,2.924-3.659q.012-6.7,0-13.4c0-1.551.005-3.1,0-4.654,0-.785-.2-1.017-.951-1.214" transform="translate(-270.373 -9.399)" fill="#a1b8e1"/>
    <path id="Trazado_210045" data-name="Trazado 210045" d="M46.95,70.447H68.441c1.09,0,1.36.266,1.36,1.341q0,8,0,16.01c0,1.015-.278,1.3-1.271,1.3q-21.552,0-43.1,0c-1.034,0-1.3-.279-1.3-1.339q0-7.974,0-15.948c0-1.114.261-1.368,1.4-1.368H46.95" transform="translate(-20.128 -58.782)"/>
    <path id="Trazado_210046" data-name="Trazado 210046" d="M43.522,213.261q0,4.81,0,9.62c0,1.016-.28,1.3-1.271,1.3q-8.424,0-16.848,0c-1,0-1.279-.281-1.28-1.3q0-9.651,0-19.3c0-1.021.274-1.3,1.271-1.3q8.424,0,16.848,0c1,0,1.279.284,1.28,1.294q0,4.841,0,9.682" transform="translate(-20.127 -168.789)"/>
    <path id="Trazado_210047" data-name="Trazado 210047" d="M47.09,347.672h21.3c.206,0,.413-.007.619.009a.914.914,0,0,1,.127,1.81,2.437,2.437,0,0,1-.552.042q-21.544,0-43.088,0a2.14,2.14,0,0,1-.668-.086.836.836,0,0,1-.6-.909.846.846,0,0,1,.765-.842,4.923,4.923,0,0,1,.68-.021H47.09" transform="translate(-20.212 -290.103)" fill="#010101"/>
    <path id="Trazado_210048" data-name="Trazado 210048" d="M171.831,228.275H161.673a3.369,3.369,0,0,1-.618-.018.925.925,0,0,1-.024-1.824,2.48,2.48,0,0,1,.556-.019h20.5c.124,0,.248-.006.371,0a.927.927,0,1,1,.025,1.854c-.164.014-.33.006-.5.006H171.831" transform="translate(-133.735 -188.918)"/>
    <path id="Trazado_210049" data-name="Trazado 210049" d="M171.873,299.11h10.1a5.285,5.285,0,0,1,.557.007.921.921,0,0,1,.87.95.908.908,0,0,1-.859.9,3.336,3.336,0,0,1-.433.006H161.54a2.426,2.426,0,0,1-.494-.016.926.926,0,0,1-.01-1.825,2.971,2.971,0,0,1,.617-.02h10.22" transform="translate(-133.733 -249.579)"/>
    <path id="Trazado_210050" data-name="Trazado 210050" d="M171.818,202.265q5.171,0,10.342,0c.486,0,.906.07,1.117.579a.9.9,0,0,1-.658,1.24,2.928,2.928,0,0,1-.675.046q-10.156,0-20.313,0c-.124,0-.248.005-.371,0a.978.978,0,0,1-1.042-.987.948.948,0,0,1,1.072-.871q5.264-.007,10.528,0" transform="translate(-133.688 -168.77)"/>
    <path id="Trazado_210051" data-name="Trazado 210051" d="M171.783,252.446q-5.171,0-10.341,0a1.105,1.105,0,0,1-1-.358.911.911,0,0,1,.415-1.425,2.173,2.173,0,0,1,.8-.082h20.311c.124,0,.248-.005.372,0,.65.041,1.072.44,1.045.983a.945.945,0,0,1-1.068.874q-5.263.008-10.527,0" transform="translate(-133.71 -209.09)"/>
    <path id="Trazado_210052" data-name="Trazado 210052" d="M171.86,274.954h10.094a4.513,4.513,0,0,1,.68.024.852.852,0,0,1,.763.844.871.871,0,0,1-.6.915,1.874,1.874,0,0,1-.733.078q-10.218,0-20.436,0a2.73,2.73,0,0,1-.673-.059.84.84,0,0,1-.677-.913.855.855,0,0,1,.806-.869,5.094,5.094,0,0,1,.618-.018H171.86" transform="translate(-133.739 -229.426)"/>
    <path id="Trazado_210053" data-name="Trazado 210053" d="M171.81,325.169H161.655a4.336,4.336,0,0,1-.618-.021.855.855,0,0,1-.771-.838.868.868,0,0,1,.592-.92,1.856,1.856,0,0,1,.733-.083h20.5a3.466,3.466,0,0,1,.371.007.96.96,0,0,1,.935.963.928.928,0,0,1-.993.887c-.867.016-1.734.005-2.6.005H171.81" transform="translate(-133.725 -269.772)"/>
    <path id="Trazado_210054" data-name="Trazado 210054" d="M56.317,96.564c-6.792,0-13.584-.007-20.375.014-.556,0-.675-.149-.673-.686q.034-6.826,0-13.652c0-.475.1-.62.6-.62q20.406.023,40.813,0c.475,0,.57.13.568.583q-.026,6.888,0,13.776c0,.518-.172.594-.627.593q-10.157-.019-20.314-.009" transform="translate(-29.429 -68.105)" fill="#feca2e"/>
    <path id="Trazado_210055" data-name="Trazado 210055" d="M50.977,222.562c0,2.834-.009,5.669.01,8.5,0,.444-.084.6-.57.6q-7.278-.029-14.556,0c-.476,0-.579-.14-.578-.595q.023-8.5,0-17.006c0-.447.089-.6.572-.6q7.278.029,14.556,0c.475,0,.58.137.577.592-.021,2.834-.01,5.669-.01,8.5" transform="translate(-29.44 -178.121)" fill="#fc4b52"/>
    <path id="Trazado_210056" data-name="Trazado 210056" d="M159.339,98.981q-.776,2.5-1.552,5c-.049.157-.087.319-.142.474a1.1,1.1,0,0,1-1.155.843,1.084,1.084,0,0,1-1.057-.96q-.836-4.221-1.655-8.444a.921.921,0,0,1,.677-1.2.9.9,0,0,1,1.112.793c.339,1.616.65,3.237.973,4.856.044.222.1.442.176.8.543-1.75,1.048-3.377,1.553-5,.073-.236.158-.469.223-.708a.9.9,0,0,1,.94-.74.971.971,0,0,1,.914.8q.637,2.069,1.269,4.139l.471,1.534c.236-1.155.44-2.147.641-3.14.168-.829.321-1.661.5-2.489a.91.91,0,0,1,1.1-.818.931.931,0,0,1,.723,1.172q-.825,4.159-1.666,8.315c-.144.713-.5,1.064-1.061,1.1s-.987-.3-1.21-1.017q-.826-2.655-1.644-5.312l-.125,0" transform="translate(-128.29 -78.993)"/>
    <path id="Trazado_210057" data-name="Trazado 210057" d="M52.411,101.425c0-1.544,0-2.92,0-4.3,0-.5-.016-.992,0-1.488a.929.929,0,0,1,.889-.993.946.946,0,0,1,.956.94c.031.474.014.95.018,1.426q.027,3.318.053,6.636c0,.145,0,.289,0,.434a1.038,1.038,0,0,1-1.942.57q-1.141-1.658-2.286-3.312c-.595-.862-1.188-1.726-1.793-2.6-.178.178-.1.371-.1.539-.008,1.612,0,3.225-.006,4.837,0,.752-.375,1.2-.966,1.174-.565-.021-.89-.444-.89-1.18,0-2.749,0-5.5-.005-8.248,0-.516.095-.953.646-1.132s.894.112,1.186.537c1.378,2.008,2.762,4.011,4.244,6.16" transform="translate(-38.664 -78.976)"/>
    <path id="Trazado_210058" data-name="Trazado 210058" d="M236.228,105.333a5.183,5.183,0,0,1-3.625-1.484.925.925,0,0,1-.1-1.417.941.941,0,0,1,1.377.078,3,3,0,0,0,2.946.837,1.262,1.262,0,0,0,1.052-1.082c.066-.626-.391-.932-.868-1.148-.787-.356-1.6-.654-2.394-.99a2.624,2.624,0,0,1-1.892-2.776,2.982,2.982,0,0,1,2.539-2.587,4.766,4.766,0,0,1,3.678.894.935.935,0,0,1,.369,1.377.953.953,0,0,1-1.414.155,2.944,2.944,0,0,0-2.447-.557,1.02,1.02,0,0,0-.871.921c-.038.5.324.7.739.855.807.307,1.615.618,2.4.976,1.793.816,2.525,2.5,1.746,4.034a3.53,3.53,0,0,1-3.238,1.914" transform="translate(-193.768 -79.008)"/>
    <path id="Trazado_210059" data-name="Trazado 210059" d="M109.855,94.577c.578,0,1.156-.014,1.733,0a.952.952,0,0,1,1.038.92c.011.554-.4.926-1.069.935-.722.01-1.444.016-2.166,0-.331-.009-.49.062-.47.438a16.032,16.032,0,0,1,0,1.674c-.019.372.135.454.468.444.639-.02,1.279-.016,1.918,0a.953.953,0,0,1,1.051.9.97.97,0,0,1-1.067.956q-.99.024-1.98,0c-.3-.007-.4.094-.389.392.019.578.025,1.158,0,1.736-.016.344.12.414.428.407.742-.018,1.485-.014,2.228,0a.935.935,0,1,1-.005,1.856c-1.155.011-2.311.014-3.466,0a.935.935,0,0,1-1.031-1.047q-.016-4.279,0-8.558a.949.949,0,0,1,1.047-1.039c.577-.018,1.155,0,1.733,0" transform="translate(-89.338 -78.913)"/>
  </g>
</svg>
