<svg xmlns="http://www.w3.org/2000/svg" xmlns:xlink="http://www.w3.org/1999/xlink" width="190" height="104" viewBox="0 0 190 104">
  <defs>
    <clipPath id="clip-path">
      <rect id="Rect치ngulo_88626" data-name="Rect치ngulo 88626" width="87.668" height="84.112" fill="none"/>
    </clipPath>
  </defs>
  <g id="Grupo_138496" data-name="Grupo 138496" transform="translate(-285.049 -411)">
    <rect id="Rect치ngulo_41122" data-name="Rect치ngulo 41122" width="190" height="104" transform="translate(285.049 411)" fill="none"/>
    <g id="Grupo_117447" data-name="Grupo 117447" transform="translate(-3337.23 1038.209)" opacity="0.3">
      <path id="Trazado_158283" data-name="Trazado 158283" d="M3677.784-530.075h0a16.354,16.354,0,0,0,23.129,0l67.216-67.214a16.357,16.357,0,0,0,0-23.129,16.355,16.355,0,0,0-23.129,0L3677.784-553.2A16.353,16.353,0,0,0,3677.784-530.075Z" transform="translate(14.296)" fill="#fc4b52"/>
      <path id="Trazado_158284" data-name="Trazado 158284" d="M3652.069-530.075h0a16.354,16.354,0,0,0,23.129,0l67.216-67.214a16.358,16.358,0,0,0,0-23.129,16.355,16.355,0,0,0-23.129,0L3652.069-553.2A16.354,16.354,0,0,0,3652.069-530.075Z" transform="translate(0)" fill="#feca2e"/>
    </g>
    <g id="Grupo_138497" data-name="Grupo 138497" transform="translate(336.049 421)">
      <g id="Grupo_138497-2" data-name="Grupo 138497" clip-path="url(#clip-path)">
        <path id="Trazado_213086" data-name="Trazado 213086" d="M84.852,65.076a1.594,1.594,0,0,0,1.572,1.677A1.316,1.316,0,0,0,87.669,65.7V40.359a5.969,5.969,0,0,0-.653-2.178,6.012,6.012,0,0,0-3.328-2.533,10.394,10.394,0,0,0-2.959-.349c-.939.008-1-.074-1.018-1.033-.005-.256,0-.513,0-.769q0-12.951,0-25.9c0-.37.008-.741-.01-1.111C79.529,3.091,77.034.232,73.947.077,71.273-.057,68.59.015,65.912.06c-1.059.018-1.44.432-1.58,1.508a1.53,1.53,0,0,0,1.409,1.473,6.845,6.845,0,0,0,1.363.093c2.024,0,4.049-.023,6.073.011a3.237,3.237,0,0,1,3.279,2.594,6.429,6.429,0,0,1,.157,1.7q0,13.213,0,26.425a6.7,6.7,0,0,1-.025.854.575.575,0,0,1-.272.5,1.125,1.125,0,0,1-1.729-.95c-.008-.256,0-.513,0-.77q0-9.834,0-19.669c0-2.11.026-4.219-.012-6.328a2.262,2.262,0,0,0-2.005-2.467c-.513-.016-1.026-.009-1.54-.009q-29.688,0-59.376,0C10.166,5.016,8.683,4.94,7.2,5A2.316,2.316,0,0,0,4.808,7.025a7.086,7.086,0,0,0-.119,1.617q0,20.488,0,40.976a9.73,9.73,0,0,0,.042,1.2,2.519,2.519,0,0,0,2.649,2.475c1.082.043,2.167.039,3.25-.006.313.026.627.024.941.024H51.28c1.084,0,2.168.011,3.252,0,.639-.008,1.041.159,1.01.908s-.14.9-.982.93c-.228.009-.457,0-.685,0H11.6a8.19,8.19,0,0,0-.941.025c-2.165-.039-4.33,0-6.5-.016-1.31-.007-1.321-.014-1.323-1.343-.005-2.706.02-5.412-.012-8.118-.014-1.218-.438-1.662-1.587-1.793A1.245,1.245,0,0,0,0,44.81V62.958a5.853,5.853,0,0,0,.837,2.47A6.806,6.806,0,0,0,6.715,68.35q10.739.012,21.478,0c.285,0,.57,0,.856.009.432.011.6.206.558.65-.145,1.447-.284,2.9-.524,4.329a3.133,3.133,0,0,1-3.3,2.713,13.72,13.72,0,0,0-1.454.033,4.093,4.093,0,0,0-3.657,4.55,3.931,3.931,0,0,0,4.1,3.463q14.932.013,29.864.009a3.957,3.957,0,0,0,2.5-.728,1.046,1.046,0,0,1,1.333-.04,5.7,5.7,0,0,0,3.193.771c6.674-.017,13.349-.007,20.023-.009a5.569,5.569,0,0,0,5.985-4.88V70.833a1.312,1.312,0,0,0-1.59-1.026,1.684,1.684,0,0,0-1.236,1.823c-.018,1.737,0,3.475-.008,5.212,0,.37.007.741-.005,1.111A2.864,2.864,0,0,1,81.7,81.006c-6.352.018-12.7-.007-19.057.014-.171.011-.342,0-.513,0a3.512,3.512,0,0,1-2.283-.513,3.143,3.143,0,0,1-1.2-2.688q.031-14.45.012-28.9,0-3.719,0-7.439a2.869,2.869,0,0,1,.939-2.295,3.284,3.284,0,0,1,2.214-.771c6.641-.084,13.283-.019,19.924-.037a2.3,2.3,0,0,1,.753.138,3.126,3.126,0,0,1,2.345,3.429q.013,11.013,0,22.025c0,.37-.013.74.016,1.109M55.745,72.287c0,1.2-.01,2.39.005,3.585.005.416-.03.613-.561.506a8.806,8.806,0,0,0-1.7-.052A3.364,3.364,0,0,1,50.04,73.36c-.224-1.547-.359-3.106-.56-4.657-.059-.459.013-.646.543-.635,1.707.035,3.415.032,5.122,0,.5-.009.621.165.609.633-.029,1.194-.01,2.39-.01,3.585" transform="translate(0 0)"/>
        <path id="Trazado_213087" data-name="Trazado 213087" d="M0,6.074c.283-.174.231-.5.318-.752A6.224,6.224,0,0,1,5.961,1.066c.256-.012.513-.013.77-.013H59.209c1.359,0,1.556.137,1.892,1.288.25.808-.32,1.127-.883,1.4a4.131,4.131,0,0,1-1.852.214q-20,0-40,0c-2.108,0-4.216.011-6.324,0-1.968-.014-3.936-.018-5.9,0A3.277,3.277,0,0,0,2.953,6.562a7.557,7.557,0,0,0-.115,1.7q0,15.276,0,30.552c0,.371.012.742-.013,1.112-.071,1.079-.484,1.505-1.575,1.637A1.243,1.243,0,0,1,0,40.658Z" transform="translate(0 -0.812)"/>
        <path id="Trazado_213088" data-name="Trazado 213088" d="M45.529,76.665c.312-.017.624-.048.935-.048q29.612,0,59.223-.025c.892,0,1.057.246,1.051,1.08q-.059,8.043,0,16.087c.006.816-.249.963-.993.953-2.995-.041-5.99-.023-8.986-.015a5.748,5.748,0,0,0-6.092,6.038q-.031,4.022.007,8.044c.005.555-.079.79-.726.789q-22.037-.029-44.075-.016c-.113,0-.227-.018-.34-.028a1.439,1.439,0,0,1-.275-1.128q-.011-15.3,0-30.593a1.666,1.666,0,0,1,.272-1.138" transform="translate(-34.919 -59.099)" fill="#dff7f9"/>
        <path id="Trazado_213089" data-name="Trazado 213089" d="M90.582,254.346a65.882,65.882,0,0,1,.019,7.205,2.156,2.156,0,0,1-.929.068q-20.966.006-41.932.027a1.858,1.858,0,0,1-1.933-1.184,4.866,4.866,0,0,1-.545-2.133c.01-1.055-.008-2.111.009-3.166.01-.605.209-.913.912-.912q21.95.026,43.9.014a.825.825,0,0,1,.5.079" transform="translate(-34.925 -196.185)" fill="#eee"/>
        <path id="Trazado_213090" data-name="Trazado 213090" d="M45.518,34.115c.284-.013.568-.036.851-.036q29.673,0,59.346-.023c.833,0,1.051.2,1.005,1.02-.113,2.013.1,4.034-.11,6.048a1.75,1.75,0,0,1-.922.083q-29.6.007-59.2,0c-1.158,0-1.23-.055-1.242-1.172-.018-1.625-.011-3.251,0-4.876a1.431,1.431,0,0,1,.276-1.048" transform="translate(-34.901 -26.278)" fill="#eee"/>
        <path id="Trazado_213091" data-name="Trazado 213091" d="M48.092,7.811c.4-.014.8-.041,1.195-.041q22.93,0,45.86,0c1.411,0,1.716-.194,2.06-1.293l3.4-.065c.216,1.05.559,1.344,1.717,1.353,2.2.017,4.391,0,6.586.006a3.7,3.7,0,0,1,4.045,4.03c.005,9.294-.008,18.588.02,27.882,0,.755-.257.888-.93.871-1.586-.039-1.587-.008-1.587-1.568q0-13.128,0-26.257c0-1.535-.378-2.069-1.759-2.548a3.026,3.026,0,0,0-1.019-.057q-29.877,0-59.754,0c-1.261,0-1.4-.241-.778-1.35a2.131,2.131,0,0,1,.941-.959" transform="translate(-36.105 -4.947)" fill="#c93c41"/>
        <path id="Trazado_213092" data-name="Trazado 213092" d="M294.717,195.707a.9.9,0,0,0-.349.875c.019.838.007,1.677.008,2.515a1.491,1.491,0,0,0-1.21,1.69c.033,2.164.028,4.33,0,6.494a3.074,3.074,0,0,1-3.114,3.17c-6.381.027-12.763.009-19.144.006a.74.74,0,0,1-.166-.039,1.952,1.952,0,0,1-.99-1.2c-.1-.268-.2-.552.192-.691a4.73,4.73,0,0,1,1.361-.092q8.511,0,17.022,0a7.356,7.356,0,0,0,1.2-.048,1.614,1.614,0,0,0,1.484-1.606c.025-.313.014-.627.014-.94q0-16.977,0-33.954c0-2.131-.333-2.46-2.495-2.461-.827,0-1.655-.033-2.48.016a1.756,1.756,0,0,0-1.837,1.839c-.134,1.735-.134,1.737-1.841,1.739-1.768,0-3.536.009-5.3,0-1.238-.008-1.364-.112-1.462-1.346a2.2,2.2,0,0,0-1.656-2.3,10.333,10.333,0,0,0-2.629-.142c-.142-.009-.285.01-.427-.005-.4-.041-.973.122-1.067-.435a1.3,1.3,0,0,1,.771-1.315,1.275,1.275,0,0,1,.665-.111H290.3a.66.66,0,0,1,.328.074,3.039,3.039,0,0,1,2.542,3.158c.012,4.108,0,8.217,0,12.325q0,5.564,0,11.127c0,1.2.363,1.585,1.54,1.669" transform="translate(-208.076 -129.133)" fill="#e0f6be"/>
        <path id="Trazado_213093" data-name="Trazado 213093" d="M15.429,12.314c-.337.559-.679,1.115-1.01,1.677-.236.4-.1.574.351.548.227-.013.456,0,.684,0q29.756,0,59.513.006c.357,0,.744-.126,1.072.14-.285.006-.57.017-.855.016L11.34,14.689c-2.232,0-2.9.671-2.9,2.908q0,21.007,0,42.014c0,2.14.729,2.858,2.887,2.862.912,0,1.825.017,2.737.026a2.506,2.506,0,0,1,0,2.37c-2.473.009-4.947,0-7.42.039-.572.008-.638-.244-.636-.716.014-3.014.01-6.027.006-9.041,0-1.211-.362-1.577-1.548-1.609a.662.662,0,0,0,.3-.552c-.02-.81-.018-1.62,0-2.43A.652.652,0,0,0,4.47,50c1.181-.029,1.539-.4,1.54-1.625,0-10.635.041-21.27-.03-31.9a3.912,3.912,0,0,1,4.235-4.214c1.731.12,3.476.044,5.215.056" transform="translate(-3.442 -9.449)" fill="#c93c41"/>
        <path id="Trazado_213094" data-name="Trazado 213094" d="M46.487,234.5q0-1.185,0-2.37c.313-.009.627-.026.94-.026q21.569,0,43.139-.02c.84,0,1.146.16,1.09,1.061-.086,1.382-.021,1.386-1.436,1.386q-21.313,0-42.625,0c-.37,0-.74-.019-1.111-.03" transform="translate(-35.87 -179.075)" fill="#fc4b52"/>
        <path id="Trazado_213095" data-name="Trazado 213095" d="M36.14,76.664q0,16.429.006,32.859c-.769.01-1.542-.019-2.307.042-.626.05-.746-.191-.744-.771.021-5.732.013-11.464.013-17.2,0-4.677.023-9.354-.021-14.031-.008-.821.251-1.037,1.007-.962.678.067,1.364.044,2.047.06" transform="translate(-25.53 -59.098)" fill="#b2c5c7"/>
        <path id="Trazado_213096" data-name="Trazado 213096" d="M158.272,298.1c2.934-.011,5.869-.014,8.8-.043.456,0,.57.172.611.589.155,1.558.348,3.112.527,4.667a7.1,7.1,0,0,0,1.022,2.966H156.562a.512.512,0,0,1,.041-.493c.917-1.376.864-2.982,1.09-4.524.136-.93.15-1.876.373-2.794a.842.842,0,0,1,.206-.369" transform="translate(-120.771 -229.984)" fill="#dcdcdc"/>
        <path id="Trazado_213097" data-name="Trazado 213097" d="M279.569,167.163c-6.358.006-12.715.022-19.073.006a1.416,1.416,0,0,0-1.419.855c-.25.484-.252.718.4.694.883-.033,1.767-.014,2.651,0,.276,0,.576-.084.817.139-.275.333-.665.287-1.029.3-.884.02-1.77-.012-2.654.014a1.68,1.68,0,0,0-1.855,1.786c-.031.4-.017.8-.017,1.2q0,16.092-.009,32.184c0,1.518-.151,3.044,1.279,4.1a7.318,7.318,0,0,0,1.028,1.725,15.505,15.505,0,0,1-1.619.005,3.05,3.05,0,0,1-2.677-2.6,9.691,9.691,0,0,1-.058-1.281q0-17.676,0-35.353c0-2.756,1.135-3.9,3.891-3.9q9.589-.007,19.177-.005a2.11,2.11,0,0,1,1.171.135" transform="translate(-197.015 -128.868)" fill="#a7e446"/>
        <path id="Trazado_213098" data-name="Trazado 213098" d="M64.268,254.049l-41.945.013c-.8,0-1.6.021-2.4-.008-.5-.018-.724.12-.71.667.032,1.255-.022,2.512.022,3.765a4.773,4.773,0,0,0,1.116,2.545c.236.333.631.2.96.2q8.6.009,17.206,0,12.883,0,25.766.014c-.212.3-.523.147-.782.147q-24.139.009-48.277,0a3.722,3.722,0,0,1-4.047-4.042c0-.884.041-1.771-.014-2.652-.04-.628.123-.821.786-.811,2.624.04,5.25.01,7.875.009q21.785,0,43.569.008c.287,0,.624-.164.873.137" transform="translate(-8.612 -195.888)" fill="#dcdcdc"/>
        <path id="Trazado_213099" data-name="Trazado 213099" d="M161.209,345.8a1.043,1.043,0,0,1,.752,1.329,1.147,1.147,0,0,1-1.234.963q-2.609,0-5.217,0-8.339,0-16.679,0c-.312,0-.624-.03-.935-.046-.652-.535-.463-1.224-.322-1.888a.564.564,0,0,1,.578-.423c.2-.011.4-.007.6-.007q10.809,0,21.618,0a1.867,1.867,0,0,1,.842.068" transform="translate(-106.046 -266.759)" fill="#eee"/>
        <path id="Trazado_213100" data-name="Trazado 213100" d="M142.147,298.08c-.237,2.042-.452,4.087-.721,6.125a6.049,6.049,0,0,1-.988,2.054H135.62c1.345-2.385,1.079-5.02,1.511-7.518.089-.512.183-.729.749-.708,1.421.051,2.845.036,4.267.047" transform="translate(-104.646 -229.966)" fill="#cdcbc9"/>
        <path id="Trazado_213101" data-name="Trazado 213101" d="M36.139,34.137c0,2.025.037,4.05-.021,6.073-.023.782.236.937.968.936q26.437-.03,52.874-.015c2.424,0,4.848.009,7.272.015-.245.226-.544.107-.814.107q-31.194,0-62.388.012c-.739,0-.978-.151-.951-.931.065-1.852.038-3.708.01-5.561-.008-.512.112-.72.659-.683.795.053,1.594.035,2.392.048" transform="translate(-25.522 -26.301)" fill="#dbdbdb"/>
        <path id="Trazado_213102" data-name="Trazado 213102" d="M134.414,345.494l-21.768.015c-1.852,0-2.145.424-1.546,2.232-2.391.014-4.783.045-7.175.032a1.151,1.151,0,0,1-1.216-1.249,1.25,1.25,0,0,1,1.4-1.173c2.507-.014,5.014-.011,7.522-.011q10.9,0,21.8.005c.329,0,.687-.113.982.148" transform="translate(-79.251 -266.455)" fill="#dcdcdc"/>
        <path id="Trazado_213103" data-name="Trazado 213103" d="M170.751,266.373a1.287,1.287,0,0,1-1.295,1.3A1.337,1.337,0,0,1,168.2,266.4a1.28,1.28,0,0,1,1.316-1.278,1.237,1.237,0,0,1,1.232,1.255" transform="translate(-129.788 -204.568)" fill="#020202"/>
        <path id="Trazado_213104" data-name="Trazado 213104" d="M139.882,47.386H121.824c-.228,0-.458.013-.684-.007a1.191,1.191,0,0,1-1.213-1.188,1.2,1.2,0,0,1,1.057-1.338,3.777,3.777,0,0,1,.852-.034q17.973,0,35.946,0a3.452,3.452,0,0,1,.935.056,1.271,1.271,0,0,1-.177,2.5,6.081,6.081,0,0,1-.769.013H139.882" transform="translate(-92.534 -34.578)"/>
        <path id="Trazado_213105" data-name="Trazado 213105" d="M53.008,47.431a1.279,1.279,0,0,1-1.254-1.255,1.28,1.28,0,1,1,2.558.053,1.278,1.278,0,0,1-1.3,1.2" transform="translate(-39.935 -34.626)" fill="#020202"/>
        <path id="Trazado_213106" data-name="Trazado 213106" d="M96.876,46.2A1.286,1.286,0,0,1,95.51,47.43a1.242,1.242,0,0,1-1.183-1.305,1.28,1.28,0,0,1,1.343-1.246,1.33,1.33,0,0,1,1.205,1.32" transform="translate(-72.784 -34.626)" fill="#030303"/>
        <path id="Trazado_213107" data-name="Trazado 213107" d="M75.511,46.138a1.25,1.25,0,0,1-1.282,1.3,1.282,1.282,0,0,1-1.268-1.243,1.33,1.33,0,0,1,1.3-1.312,1.282,1.282,0,0,1,1.247,1.26" transform="translate(-56.298 -34.629)" fill="#030303"/>
        <path id="Trazado_213108" data-name="Trazado 213108" d="M264.694,214.652a2.164,2.164,0,0,1-1.541-2.35q.034-17.441.014-34.884c0-1.716.6-2.311,2.306-2.317,1.168,0,2.336-.016,3.5-.025a1.985,1.985,0,0,1,1.809,2.206,8.024,8.024,0,0,1,0,.941c-.037.413.124.534.533.531q3.552-.025,7.1,0c.454,0,.483-.192.5-.558.107-2.866.366-3.1,3.278-3.1.77,0,1.541-.016,2.311.007a1.742,1.742,0,0,1,1.81,1.761c.018.256.011.513.012.77q0,17.243,0,34.486c0,1.995-.529,2.515-2.547,2.517l-19.084.017" transform="translate(-203.052 -135.091)"/>
        <path id="Trazado_213109" data-name="Trazado 213109" d="M306.559,176.92a7.622,7.622,0,0,1-1.108-.009,1.236,1.236,0,0,1-1.1-1.386,1.191,1.191,0,0,1,1.251-1.144c.654-.021,1.31-.024,1.963,0a1.215,1.215,0,0,1,1.268,1.213,1.25,1.25,0,0,1-1.17,1.327,9.542,9.542,0,0,1-1.109.007v-.008" transform="translate(-234.836 -134.541)" fill="#010101"/>
        <path id="Trazado_213110" data-name="Trazado 213110" d="M287.041,189.275a3.363,3.363,0,0,0,2.3.724c2.453-.03,4.906-.005,7.359-.012,1.9-.005,2.878-.948,2.844-2.824-.012-.676.175-.861.845-.84,1.449.047,1.45.01,1.45,1.425q0,15.914,0,31.828c0,.34-.034.68-.052,1.02a1.418,1.418,0,0,1-.753.077q-6.7.006-13.4,0c-.877,0-.992-.083-1.006-.958-.033-2.048-.024-4.1,0-6.144a1.074,1.074,0,0,1,.282-.864c3.363.88,6.791.246,10.184.425a2.15,2.15,0,0,0,1.084-.2.9.9,0,0,0,.558-.964.879.879,0,0,0-.751-.817,3.773,3.773,0,0,0-.851-.061c-2.767,0-5.533.019-8.3-.016-.649-.008-1.21.289-1.831.335-.025-.014-.059-.023-.073-.044a7.511,7.511,0,0,1,.027-4.508,9.118,9.118,0,0,0,4.016.46q3.03.008,6.061,0a2.344,2.344,0,0,0,1.166-.193.938.938,0,0,0,.539-.98.879.879,0,0,0-.75-.815,3.81,3.81,0,0,0-.85-.061c-2.789,0-5.577.021-8.365-.017a5.59,5.59,0,0,0-1.781.487.657.657,0,0,1-.338-.641c-.054-1.132-.047-2.265,0-3.4a.736.736,0,0,1,.309-.663,7.87,7.87,0,0,0,3.675.463q3.122,0,6.244,0a3.353,3.353,0,0,0,1.1-.1.946.946,0,0,0,.759-.919.967.967,0,0,0-.811-.966,3.229,3.229,0,0,0-.851-.065c-2.709,0-5.418.025-8.126-.018a6.727,6.727,0,0,0-1.964.489.668.668,0,0,1-.334-.644c-.052-1.131-.047-2.264,0-3.4a.734.734,0,0,1,.309-.663,7.764,7.764,0,0,0,3.589.465c2.139-.01,4.277,0,6.416,0a2.832,2.832,0,0,0,1.1-.129.931.931,0,0,0,.678-.892.964.964,0,0,0-.732-.943,2.593,2.593,0,0,0-.848-.086c-2.766,0-5.532.022-8.3-.017a7.143,7.143,0,0,0-1.879.486.744.744,0,0,1-.339-.725c-.037-1.151-.046-2.3.006-3.454.012-.262.013-.583.391-.647" transform="translate(-221.141 -143.769)" fill="#dff7f9"/>
        <path id="Trazado_213111" data-name="Trazado 213111" d="M277.61,195.231a16.974,16.974,0,0,0-.01,4.615,1.527,1.527,0,0,1,.016,1.205,16.819,16.819,0,0,0-.023,4.615,1.516,1.516,0,0,1,.029,1.2,12.536,12.536,0,0,0,.031,4.455,2.157,2.157,0,0,1-.022,1.365,1.185,1.185,0,0,0-.147.382c-.009,2.307.005,4.615-.014,6.921-.006.718.485.565.883.566q7.008.011,14.016.009c-.211.3-.524.149-.783.149-5.447.007-10.9-.011-16.342.013-.672,0-.854-.17-.853-.849q.033-16.383,0-32.766c0-.615.122-.927.787-.806a.947.947,0,0,0,.171,0c1.41,0,1.422,0,1.569,1.407a3.247,3.247,0,0,0,.7,1.527,16.673,16.673,0,0,0-.017,4.779,1.534,1.534,0,0,1,0,1.2" transform="translate(-211.724 -143.74)" fill="#b2c5c7"/>
        <path id="Trazado_213112" data-name="Trazado 213112" d="M288.1,269.927a1.653,1.653,0,0,1-.03-1.2A1.538,1.538,0,0,1,289.52,268c3.021.017,6.042,0,9.062.01,1.036,0,1.563.447,1.561,1.275,0,.811-.561,1.285-1.57,1.288-2.992.008-5.984,0-8.977.008a1.7,1.7,0,0,1-1.494-.659" transform="translate(-222.203 -206.796)" fill="#000001"/>
        <path id="Trazado_213113" data-name="Trazado 213113" d="M288.093,219.053a1.636,1.636,0,0,1,0-1.205,1.6,1.6,0,0,1,1.467-.689c3.021.018,6.042,0,9.062.01.966,0,1.5.447,1.526,1.232.026.825-.528,1.328-1.52,1.331-3.021.009-6.042-.005-9.063.01a1.619,1.619,0,0,1-1.47-.689" transform="translate(-222.206 -167.563)"/>
        <path id="Trazado_213114" data-name="Trazado 213114" d="M288.1,244.495a1.645,1.645,0,0,1-.016-1.205,1.567,1.567,0,0,1,1.457-.7c3.021.018,6.042,0,9.062.01,1,0,1.558.478,1.545,1.3-.012.779-.561,1.263-1.505,1.266-3.049.01-6.1,0-9.148.009a1.6,1.6,0,0,1-1.4-.674" transform="translate(-222.206 -187.184)"/>
        <path id="Trazado_213115" data-name="Trazado 213115" d="M288.115,295.373a1.651,1.651,0,0,1,.022-1.365,1.756,1.756,0,0,1,1.448-.568c2.992.019,5.985.005,8.977.011,1.055,0,1.574.421,1.584,1.246s-.535,1.31-1.549,1.315c-3.021.014-6.042,0-9.063.008a1.7,1.7,0,0,1-1.42-.646" transform="translate(-222.208 -226.422)" fill="#000001"/>
        <path id="Trazado_213116" data-name="Trazado 213116" d="M311.565,316.723a1.267,1.267,0,0,1-1.2,1.295,1.3,1.3,0,0,1-1.351-1.248,1.323,1.323,0,0,1,1.306-1.307,1.283,1.283,0,0,1,1.248,1.26" transform="translate(-238.437 -243.415)" fill="#010202"/>
      </g>
    </g>
  </g>
</svg>
