<svg id="Grupo_137617" data-name="Grupo 137617" xmlns="http://www.w3.org/2000/svg" xmlns:xlink="http://www.w3.org/1999/xlink" width="55" height="55" viewBox="0 0 55 55">
  <defs>
    <clipPath id="clip-path">
      <rect id="Rectángulo_88014" data-name="Rectángulo 88014" width="55" height="55" fill="none"/>
    </clipPath>
  </defs>
  <g id="Grupo_137616" data-name="Grupo 137616" clip-path="url(#clip-path)">
    <path id="Trazado_203921" data-name="Trazado 203921" d="M.106,6.819a9,9,0,0,1,.735-1.56,3.694,3.694,0,0,1,4.7-.982c.329.194.437.218.554-.211A5.5,5.5,0,0,1,11.838.019,4.8,4.8,0,0,1,14.9,1.277a4.376,4.376,0,0,1,.76,3.33,5.48,5.48,0,0,1-4.676,4.822,9.891,9.891,0,0,1-1.429.1c-2.3,0-4.606,0-6.909,0A2.676,2.676,0,0,1,.209,8.205l-.1,0Z" transform="translate(-0.081 0)" fill="#e5f7fb"/>
    <path id="Trazado_203922" data-name="Trazado 203922" d="M31.341,226.011c-.345-.27-.668-.556-.474-1.06.185-.48.586-.543,1.043-.542q3.318.014,6.636,0c.456,0,.858.062,1.042.542.193.5-.129.79-.475,1.059Z" transform="translate(-23.544 -171.501)" fill="#b2c5c7"/>
    <path id="Trazado_203923" data-name="Trazado 203923" d="M156.319,226.008c-.369-.253-.688-.562-.509-1.048s.618-.557,1.1-.555c1.984.012,3.968,0,5.951.005.423,0,.863-.063,1.086.447s-.062.832-.385,1.149Z" transform="translate(-119.036 -171.498)" fill="#b2c5c7"/>
    <path id="Trazado_203924" data-name="Trazado 203924" d="M.106,224.927a1.169,1.169,0,0,1,1.116-.542c.968.031,1.937.019,2.906,0,.457-.007.853.07,1.033.547.19.5-.133.786-.477,1.054H.638a.661.661,0,0,1-.532-.532Z" transform="translate(-0.081 -171.481)" fill="#b2c5c7"/>
    <path id="Trazado_203925" data-name="Trazado 203925" d="M.025,228.943l.532.532q-.676.143-.532-.532" transform="translate(0 -174.965)" fill="#fcfdfd"/>
    <path id="Trazado_203926" data-name="Trazado 203926" d="M17.2,56.23a22.235,22.235,0,0,1-2.147-6.411c.131-.231.373-.253.592-.309a6.992,6.992,0,0,0,5.152-4.889,42.486,42.486,0,0,0,1.013-4.509,8.111,8.111,0,0,1,.617-1.971,2.569,2.569,0,0,1,2.105-1.508,18.054,18.054,0,0,1,1.9-.15,43.331,43.331,0,0,0,4.672-.094,9.678,9.678,0,0,0,2.487-.53,3.886,3.886,0,0,0,2.552-4.542A12.188,12.188,0,0,1,36,28.2a6.271,6.271,0,0,1,2.256-3.92A6.111,6.111,0,0,1,40.01,23a9.492,9.492,0,0,1,2.847.576,22.522,22.522,0,0,1,6.085,2.851,1.036,1.036,0,0,1,.317.279.538.538,0,0,1,.064.242,4.19,4.19,0,0,1-2.915,3.409c-.575.181-1.159.331-1.732.514-1.136.361-1.623.835-1.592,2.349a6.251,6.251,0,0,0,.147,1.051,3.586,3.586,0,0,0,2.78,2.831c1.069.327,2.166.535,3.256.776a7.5,7.5,0,0,1,5.16,3.5,5.355,5.355,0,0,0,2.38,2.206A5.658,5.658,0,0,0,58.5,44c.166.061.362.065.47.24a11.385,11.385,0,0,1,.063,2.794,17.494,17.494,0,0,1-.531,3.448c-.067.241-.266.3-.477.362a4.028,4.028,0,0,0-2.9,2.7c-.106.312-.22.639-.668.409a2.66,2.66,0,0,0-3.928,2.693,2.71,2.71,0,0,0,2.647,2.309,2.953,2.953,0,0,1,1,.075c.269.365-.089.558-.251.756a20.93,20.93,0,0,1-3.252,3.243,4.629,4.629,0,0,1-1.162.819.432.432,0,0,1-.164-.006,3.659,3.659,0,0,1-1.23-1.074c-.514-.656-.965-1.359-1.5-2a3.849,3.849,0,0,0-3.5-1.368A14.916,14.916,0,0,0,38.346,60.8a7.3,7.3,0,0,1-3.114.8,3.443,3.443,0,0,1-3.083-1.84,14.881,14.881,0,0,1-1.135-2.691A30.462,30.462,0,0,0,29.407,52.9a6.518,6.518,0,0,0-1.55-2.006,3.874,3.874,0,0,0-3.182-.872,1.362,1.362,0,0,0-1.181,1.144c-.137.571-.145,1.16-.232,1.738a3.386,3.386,0,0,1-2.176,2.849,11.417,11.417,0,0,1-3.438.611.63.63,0,0,1-.45-.131" transform="translate(-11.502 -17.576)" fill="#7ac1ec"/>
    <path id="Trazado_203927" data-name="Trazado 203927" d="M24.159,143.183a12.722,12.722,0,0,0,3.61-.519A3.244,3.244,0,0,0,30.1,139.68c.049-.51.115-1.019.2-1.524a1.527,1.527,0,0,1,1.57-1.368,4.58,4.58,0,0,1,4.483,2.731,25.751,25.751,0,0,1,1.718,4.34,17.289,17.289,0,0,0,1.06,2.6,3.515,3.515,0,0,0,4.106,1.861,36.252,36.252,0,0,0,3.823-1.436,9.535,9.535,0,0,1,4.1-.65,3.937,3.937,0,0,1,2.864,1.808,10.51,10.51,0,0,0,2.357,2.712c-.047.329-.331.446-.56.593a23.034,23.034,0,0,1-9.8,3.6A22.431,22.431,0,0,1,32.877,152.6a12.021,12.021,0,0,1-1.131-.693,3.013,3.013,0,0,0-.467-.279,1.5,1.5,0,0,0-.361-.247,20.809,20.809,0,0,1-3.107-2.882,22.843,22.843,0,0,1-3.652-5.319" transform="translate(-18.463 -104.529)" fill="#a7e446"/>
    <path id="Trazado_203928" data-name="Trazado 203928" d="M38.587,21.846c-1.831,1.2-3.409,2.618-3.856,4.9a9.216,9.216,0,0,0,.089,3.121c.405,2.76-.915,4.627-3.689,5.191a28.365,28.365,0,0,1-5.665.317,14.352,14.352,0,0,0-2.643.2,2.3,2.3,0,0,0-1.691,1.317,13.105,13.105,0,0,0-.926,3.529,19.953,19.953,0,0,1-.916,3.539,7.117,7.117,0,0,1-5.325,4.505c-.12.028-.24.062-.36.093a21.348,21.348,0,0,1-.411-5.649,23.861,23.861,0,0,1,1.41-6.994A24.541,24.541,0,0,1,19.893,27.4c.232-.232.532-.159.806-.16,2.392-.006,4.784,0,7.175-.006a2.518,2.518,0,0,0,1.636-4.475c-.166-.148-.409-.236-.411-.516a.574.574,0,0,1,.47-.3,23.631,23.631,0,0,1,8.743-.34.693.693,0,0,1,.249.086.1.1,0,0,1,.027.161" transform="translate(-10.058 -16.313)" fill="#a7e446"/>
    <path id="Trazado_203929" data-name="Trazado 203929" d="M159.814,29.439l-.011-.213a1.22,1.22,0,0,1-.011-.629,12.358,12.358,0,0,0,.174-1.8.706.706,0,0,1,.14-.551,26.9,26.9,0,0,1,4.518,2.94A24.322,24.322,0,0,1,173.2,44.1a14.878,14.878,0,0,1,.231,3.215c-.891-.944-2-.6-3.066-.522a1.176,1.176,0,0,1-.871-.106c-.148-.033-.318.023-.443-.106a.685.685,0,0,0,.28-.588,22.928,22.928,0,0,0-2.3-8.188,22.106,22.106,0,0,0-7.05-8.226,1.639,1.639,0,0,1-.158-.142" transform="translate(-122.09 -20.061)" fill="#cfecf4"/>
    <path id="Trazado_203930" data-name="Trazado 203930" d="M19.488,10.11a3.037,3.037,0,0,1,1.429,1.947,2.644,2.644,0,0,1-2.473,3.157c-2.731.022-5.463.011-8.195.013q-3.158,0-6.317-.01a3.534,3.534,0,0,1-3.39-2.872c.206.027.269.225.394.343a2.8,2.8,0,0,0,2,.828c2.48-.008,4.961.029,7.441-.011a5.4,5.4,0,0,0,5.493-6.025,7.493,7.493,0,0,0-.632-2.063,5.6,5.6,0,0,1,2.121,4.555A1.5,1.5,0,0,0,18,9.794c.163.108.315-.023.473-.023a1.168,1.168,0,0,1,1.016.339" transform="translate(-0.414 -4.141)" fill="#cfecf4"/>
    <path id="Trazado_203931" data-name="Trazado 203931" d="M55.747,197.106a22.6,22.6,0,0,0,6.06,2.492,25.188,25.188,0,0,0,4.016.616,22.2,22.2,0,0,0,10.387-1.756,18.539,18.539,0,0,0,4.232-2.4.411.411,0,0,1,.1,0,.958.958,0,0,1,.448.142,7.157,7.157,0,0,0,2.543.65c.2.019.435-.033.558.207a24.148,24.148,0,0,1-21.413,3.657,22.668,22.668,0,0,1-7.031-3.523c-.019-.087-.011-.144.1-.088" transform="translate(-42.522 -149.834)" fill="#9bcb4b"/>
    <path id="Trazado_203932" data-name="Trazado 203932" d="M168.778,151.533a10.068,10.068,0,0,1-1.78-.123,2.769,2.769,0,0,1-2.047-2.337c.253-.007.361.206.5.354a1.667,1.667,0,0,0,1.273.559c2,0,4,.038,6.005-.009a3.957,3.957,0,0,0,3.591-5.363,1.243,1.243,0,0,1-.156-.556c.22-.288.326,0,.47.094.16.438.54.739.727,1.155a4.546,4.546,0,0,1,.462,1.831c0,.19.005.333.29.3a2.047,2.047,0,0,1,2.478,1.877,2.1,2.1,0,0,1-2.3,2.2c-1.716.007-3.433,0-5.149,0a1.077,1.077,0,0,1-.6.169c-1.072,0-2.144.007-3.216,0a.773.773,0,0,1-.545-.155" transform="translate(-126.061 -109.998)" fill="#cfecf4"/>
    <path id="Trazado_203933" data-name="Trazado 203933" d="M202.479,119.808c-.184.039-.261-.15-.406-.192a.323.323,0,0,1-.206-.03,4.921,4.921,0,0,0-2.862-.8.294.294,0,0,1-.233-.11c.1-.975.341-1.928.448-2.907.127-1.164.036-2.324.088-3.484.81-.063,1.621-.119,2.431-.193a1.387,1.387,0,0,1,1.507.821,18.382,18.382,0,0,1-.269,4.47c-.13.815-.329,1.619-.5,2.429" transform="translate(-151.908 -85.654)" fill="#68a5db"/>
    <path id="Trazado_203934" data-name="Trazado 203934" d="M165.958,176.128l4.36-.012a21.646,21.646,0,0,1-3.822,4.352,14.347,14.347,0,0,1-1.687,1.352,9.067,9.067,0,0,1-2.875-.6,1.883,1.883,0,0,1-.675-.4,26.739,26.739,0,0,0,3.4-3.056,7.142,7.142,0,0,0,1.3-1.637" transform="translate(-123.241 -134.593)" fill="#68a5db"/>
    <path id="Trazado_203935" data-name="Trazado 203935" d="M130.491,19.048a9.313,9.313,0,0,1-.3,2.976,26.169,26.169,0,0,0-4.693-2.45A17.642,17.642,0,0,0,121,18.392c.008-.03.015-.06.021-.091a7.034,7.034,0,0,1,2.368-1.475,23.22,23.22,0,0,1,7.1,2.222" transform="translate(-92.475 -12.859)" fill="#68a5db"/>
    <path id="Trazado_203936" data-name="Trazado 203936" d="M188.271,211.574q-2.366,0-4.731,0c-.62,0-.995-.294-1.01-.776-.016-.5.376-.819,1.019-.819q4.731,0,9.462,0c.621,0,.995.294,1.01.776.016.5-.376.818-1.019.82q-2.366,0-4.731,0" transform="translate(-139.494 -160.471)" fill="#b2c5c7"/>
    <path id="Trazado_203937" data-name="Trazado 203937" d="M88.928,15.86,86.56,17.335a33.155,33.155,0,0,0-4.759-.227,23.37,23.37,0,0,0-4.341.583.536.536,0,0,0-.377.171,4.148,4.148,0,0,0-1.059-.23c-.064-.043-.158-.071-.1-.182a23.573,23.573,0,0,1,13-1.59" transform="translate(-58.01 -11.893)" fill="#9bcb4b"/>
    <path id="Trazado_203938" data-name="Trazado 203938" d="M198.235.024c1.134,0,2.267,0,3.4,0,.621,0,.995.292,1.011.773.017.5-.374.821-1.016.822q-3.4,0-6.8,0c-.621,0-.995-.292-1.011-.774-.017-.5.375-.82,1.016-.822,1.134,0,2.267,0,3.4,0" transform="translate(-148.121 -0.017)" fill="#b2c5c7"/>
    <path id="Trazado_203939" data-name="Trazado 203939" d="M180.811,14.471c1.063,0,2.125,0,3.188,0,.576,0,.942.306.958.773.017.485-.366.82-.963.821q-3.188.006-6.376,0c-.575,0-.942-.307-.958-.773-.017-.484.366-.818.963-.821,1.063-.005,2.125,0,3.188,0" transform="translate(-135.009 -11.058)" fill="#b2c5c7"/>
    <path id="Trazado_203940" data-name="Trazado 203940" d="M13.3,209.976c1.063,0,2.125,0,3.188,0,.6,0,.98.337.962.822-.017.466-.383.771-.959.772q-3.188.006-6.376,0c-.6,0-.979-.337-.962-.822.017-.466.384-.769.959-.772,1.063-.005,2.125,0,3.188,0" transform="translate(-6.991 -160.469)" fill="#b2c5c7"/>
    <path id="Trazado_203941" data-name="Trazado 203941" d="M165.7,1.608c-.566,0-1.133.008-1.7,0a.821.821,0,0,1-.891-.785.812.812,0,0,1,.87-.805q1.672-.017,3.344,0a.817.817,0,0,1,.891.785.829.829,0,0,1-.923.807c-.531.008-1.062,0-1.592,0" transform="translate(-124.656 -0.006)" fill="#b2c5c7"/>
    <path id="Trazado_203942" data-name="Trazado 203942" d="M54.6,199.8l-.1.088-.324-.216c-.032-.019-.043-.038-.033-.058s.02-.03.031-.03a.586.586,0,0,1,.425.216" transform="translate(-41.379 -152.528)" fill="#aed360"/>
    <path id="Trazado_203943" data-name="Trazado 203943" d="M74.912,23.571l.1.182c-.149,0-.315.086-.43-.085l.33-.1" transform="translate(-56.998 -18.014)" fill="#a6d15c"/>
    <path id="Trazado_203944" data-name="Trazado 203944" d="M53.171,198.921c0,.029,0,.059,0,.088a.726.726,0,0,1-.348-.29.312.312,0,0,1,.345.2" transform="translate(-40.371 -151.866)" fill="#b8d86e"/>
    <path id="Trazado_203945" data-name="Trazado 203945" d="M139.632,39.776c.473.009.753.376,1.072.628a22.631,22.631,0,0,1,6.545,8.268A20.422,20.422,0,0,1,149.1,55.1c.046.418.139.832.2,1.249.044.322.033.622-.43.571a4.686,4.686,0,0,1-3.878-2.247,8.452,8.452,0,0,0-2.66-2.836,12.549,12.549,0,0,0-3.6-1.211,15.171,15.171,0,0,1-3.2-.907,3.509,3.509,0,0,1-2.071-2.873,4.574,4.574,0,0,1-.017-1.789,1.77,1.77,0,0,1,.877-1.2,5.4,5.4,0,0,1,1.6-.542,4.422,4.422,0,0,0,3.722-3.538" transform="translate(-101.908 -30.398)" fill="#e5f7fb"/>
    <path id="Trazado_203946" data-name="Trazado 203946" d="M172.831,139.977a4.361,4.361,0,0,1,3.3.945,11.6,11.6,0,0,1,.455,1.561A4.121,4.121,0,0,1,173.413,147a14.726,14.726,0,0,1-2.589.094c-1.274.02-2.55-.042-3.821.021a2.267,2.267,0,0,1-2.146-1.079,2.77,2.77,0,0,1,4.113-2.808c.217.118.339.163.417-.117a4.3,4.3,0,0,1,3.443-3.132" transform="translate(-125.967 -106.959)" fill="#e5f7fb"/>
    <path id="Trazado_203947" data-name="Trazado 203947" d="M96.719,116.1a6.231,6.231,0,0,1,.238-1.98,1.6,1.6,0,0,1,2.239-1.294,7.242,7.242,0,0,1,2.755,1.549,11.35,11.35,0,0,1,3.38,4.229,2.873,2.873,0,0,1,.212.708c.178,1.265-.391,1.9-1.943,2.163a10.473,10.473,0,0,1-4.1-.242,3.225,3.225,0,0,1-2.545-2.91,9.619,9.619,0,0,1-.235-2.224" transform="translate(-73.91 -86.144)" fill="#d0e06f"/>
  </g>
</svg>
