<svg id="Grupo_137622" data-name="Grupo 137622" xmlns="http://www.w3.org/2000/svg" xmlns:xlink="http://www.w3.org/1999/xlink" width="54" height="54" viewBox="0 0 54 54">
  <defs>
    <clipPath id="clip-path">
      <rect id="Rectángulo_88016" data-name="Rectángulo 88016" width="54" height="54" fill="none"/>
    </clipPath>
  </defs>
  <g id="Grupo_137621" data-name="Grupo 137621" transform="translate(0 0)" clip-path="url(#clip-path)">
    <path id="Trazado_203975" data-name="Trazado 203975" d="M43.575,40.347c1.431.182,2.891.277,4.028,1.344a4.053,4.053,0,0,1,1.379,2.8c.039.733,0,1.47,0,2.205a.977.977,0,0,1-.694.167c-.676.008-1.351,0-2.027,0-.656.007-.707.052-.71.705-.007,1.82,0,3.641,0,5.461a1.637,1.637,0,0,1-.125.88.883.883,0,0,1-.688.183c-1.148.007-2.3.025-3.444,0a3.307,3.307,0,0,1-3.326-3.358c-.031-3.011-.01-6.022-.007-9.033a1.188,1.188,0,0,1,.108-.6c.362-.226.351.156.432.3a2.765,2.765,0,0,0,1.818,1.458,2.515,2.515,0,0,0,.831.055,2.547,2.547,0,0,0,2.241-2.052c.04-.177.012-.382.187-.51" transform="translate(-20.925 -22.248)" fill="#e4eef7"/>
    <path id="Trazado_203976" data-name="Trazado 203976" d="M35.943.023C37.185.017,38.428-.02,39.668.014A2.65,2.65,0,0,1,42.044,2.35c.033.29.108.349.389.382A2.69,2.69,0,0,1,44.778,5.4a16.32,16.32,0,0,1-.572,3.768,6.122,6.122,0,0,1-2.064-.017.38.38,0,0,1-.212-.37c-.008-1.048-.938-1.426-1.5-2.067-.136-.155-.316-.057-.453.06A7.2,7.2,0,0,1,34.748,8.3c-.225.013-.45.012-.675.005-.458-.013-.921-.065-.975.6-.016.193-.2.253-.395.2a.684.684,0,0,1-.294-.522,15.339,15.339,0,0,1-.45-4.2A4.564,4.564,0,0,1,34.84.219a5.02,5.02,0,0,1,1.1-.2" transform="translate(-17.614 0)" fill="#686868"/>
    <path id="Trazado_203977" data-name="Trazado 203977" d="M45.36,74.43q-.005,7.685-.01,15.37a.623.623,0,0,1-.466.167c-.885.019-1.771.017-2.656,0-.446-.008-.639-.251-.65-.679-.015-.546-.008-1.092-.008-1.639,0-3.2,0-6.4,0-9.607,0-.677-.077-.74-.751-.732-.621.007-.692.071-.693.737,0,3.391,0,6.781-.008,10.172,0,.341.143.82-.231.973-.4.163-.664-.262-.917-.528a3.52,3.52,0,0,1-1-2.454c-.026-3.73-.013-7.46-.008-11.19a.939.939,0,0,1,.159-.645,1.352,1.352,0,0,1,.817-.146q2.788-.006,5.577,0a1.107,1.107,0,0,1,.853.2" transform="translate(-20.923 -40.932)" fill="#a7e446"/>
    <path id="Trazado_203978" data-name="Trazado 203978" d="M79.232,96.607v7.233a.966.966,0,0,1-.743.183q-4.7.007-9.4,0a1.61,1.61,0,0,1-.61-.078.4.4,0,0,1-.168-.147,1.683,1.683,0,0,1-.1-.773q0-2.786,0-5.571a1.3,1.3,0,0,1,.167-.865,1.212,1.212,0,0,1,.811-.166q4.622-.007,9.245,0a1.047,1.047,0,0,1,.8.185" transform="translate(-37.609 -53.166)" fill="#a7e446"/>
    <path id="Trazado_203979" data-name="Trazado 203979" d="M36.135,74.408c0,3.845.009,7.691,0,11.536a3.753,3.753,0,0,0,1.36,2.975c.111.1.231.255.381.183s.07-.271.07-.41c0-3.638.016-7.276-.009-10.914,0-.546.144-.706.689-.687,1.132.04,1.133.011,1.133,1.134q0,5.372,0,10.745c0,.907-.093.8.829.8s1.847,0,2.771,0q.009.9.019,1.793a.729.729,0,0,1-.62.191c-.99,0-1.981.023-2.971-.009-.611.016-1.223.019-1.834,0-.98.023-1.96.008-2.94.008a1.143,1.143,0,0,1-.6-.109l-.074-.079q0-8.582,0-17.164a1.927,1.927,0,0,1,1.8,0" transform="translate(-18.932 -40.905)" fill="#85b638"/>
    <path id="Trazado_203980" data-name="Trazado 203980" d="M31.454,55.748l-1.8,0q-.006-1.821-.012-3.642a2.134,2.134,0,0,1,0-1.793c0-1.035-.011-2.071.01-3.106.008-.384-.1-.572-.5-.652-.753-.149-1.495-.356-2.237-.553-1.063-.282-.856-.092-.891-1.133-.231-.283-.149-.618-.159-.938-.032-.978-.011-1.955-.011-2.933a.86.86,0,0,1,.17-.637l5.418-.014a.534.534,0,0,1,.1.682c-.138.186-.079.4-.079.6q-.006,4.489,0,8.978a3.157,3.157,0,0,0,3.33,3.315h3.9a1.254,1.254,0,0,1,.019,1.353l-.015.472-7.233,0" transform="translate(-14.251 -22.246)" fill="#c4dcee"/>
    <path id="Trazado_203981" data-name="Trazado 203981" d="M38.162,16.052a9.489,9.489,0,0,0,3.009-.353,5.471,5.471,0,0,0,2.081-1.208c.282-.272.445-.231.673.033a5.9,5.9,0,0,0,.758.758,1.66,1.66,0,0,1,.722,1.647.886.886,0,0,1,.166.582q.013,1.684,0,3.368a.783.783,0,0,1-.174.576,4.953,4.953,0,0,1-1.817,2.725,2.235,2.235,0,0,1-2.5.773A4.665,4.665,0,0,1,38,20.466q-.009-1.832,0-3.665c0-.258-.044-.533.165-.748" transform="translate(-20.95 -7.889)" fill="#f1b8a0"/>
    <path id="Trazado_203982" data-name="Trazado 203982" d="M6.068,84.032q0-11.389,0-22.778c0-.73,0-.73.731-.73.358,0,.716,0,1.074,0a1.35,1.35,0,0,1,.181.974q.006,9.065,0,18.131c0,.263,0,.527.01.79a1.649,1.649,0,0,0,1.027,1.5,1.762,1.762,0,0,1,.589.323q0,.894.009,1.787a.6.6,0,0,1-.5.19q-1.311.03-2.621,0a.6.6,0,0,1-.5-.19" transform="translate(-3.346 -33.374)" fill="#c4dcee"/>
    <path id="Trazado_203983" data-name="Trazado 203983" d="M110.311,82.245q0,.894.009,1.787a.6.6,0,0,1-.5.19q-1.311.03-2.621,0a.6.6,0,0,1-.5-.19q0-10.4,0-20.8a2.137,2.137,0,0,1,0-1.793c.032-1.02-.173-.9.919-.912.3,0,.593,0,.89,0a1.347,1.347,0,0,1,.181.974q.006,9.066,0,18.131c0,.264,0,.527.01.79a1.647,1.647,0,0,0,1.026,1.5,1.762,1.762,0,0,1,.589.323" transform="translate(-58.723 -33.373)" fill="#c4dcee"/>
    <path id="Trazado_203984" data-name="Trazado 203984" d="M16.039,30.321q0,1.808-.009,3.616c-.07.03.029.025-.044.033a7.436,7.436,0,0,1-3.93-.211,2.463,2.463,0,0,1-1.3-1.361c-.915-2.227-1.85-4.446-2.658-6.715a6.68,6.68,0,0,1-.358-1.992A2.149,2.149,0,0,1,8.006,22.5a2.1,2.1,0,0,1,3.137,1.158c.663,2.055,1.375,4.1,2.036,6.151a.608.608,0,0,0,.712.515c.715-.031,1.432,0,2.148,0" transform="translate(-4.269 -12.21)" fill="#f1b8a0"/>
    <path id="Trazado_203985" data-name="Trazado 203985" d="M79.2,92.148l-10.842.016-.075-.081a9.471,9.471,0,0,1,.066-3.561l0-.015a4.353,4.353,0,0,1,1.83-.148q2.695-.035,5.39,0a4.131,4.131,0,0,1,1.831.157A1.777,1.777,0,0,1,79.215,90.4c0,.584-.009,1.168-.015,1.752" transform="translate(-37.577 -48.708)" fill="#feca2e"/>
    <path id="Trazado_203986" data-name="Trazado 203986" d="M112.777,82.222a1.806,1.806,0,0,1-1.8-1.959q0-9.879-.005-19.758a10.744,10.744,0,0,0,1.128-.012c.534-.06.7.117.7.673-.026,3.274-.013,6.548-.013,9.822q0,5.617,0,11.234" transform="translate(-61.189 -33.351)" fill="#e4eef7"/>
    <path id="Trazado_203987" data-name="Trazado 203987" d="M11.912,82.224a1.806,1.806,0,0,1-1.8-1.959q0-9.879-.005-19.758c.391,0,.785.028,1.171-.013.513-.054.729.128.646.646a1.7,1.7,0,0,0,0,.279,2.127,2.127,0,0,1,0,1.787q0,9.508-.008,19.018" transform="translate(-5.57 -33.353)" fill="#e4eef7"/>
    <path id="Trazado_203988" data-name="Trazado 203988" d="M31.694,18.165c0,1.582-.024,3.163,0,4.744a4.59,4.59,0,0,0,3.353,4.148,1.391,1.391,0,0,0,.928-.148c.39-.183.76-.408,1.139-.615q-.005.45-.01.9a2.3,2.3,0,0,1-1.508.889,4.371,4.371,0,0,1-2.339.026c-.486-.116-.568-.019-.465.472A2.659,2.659,0,0,0,33.9,30.219c.162.118.381.184.411.43-.144.188-.323.113-.5.065a2.6,2.6,0,0,1-2.049-1.933q-.05-.341-.1-.682c.006-.168,0-.337.019-.5a2.107,2.107,0,0,0-.726-2.025,3.339,3.339,0,0,1-.98-1.976c-.092-.17-.026-.341-.045-.48-.062.111.062.306-.063.445-.489.005-.979.032-1.467.011A2.26,2.26,0,0,1,27.3,19.42c.141-.092.292-.17.439-.253a1.811,1.811,0,0,1,1.794-.131c.294.063.383-.1.344-.346-.075-.479.162-.578.58-.545s.827.016,1.241.021" transform="translate(-14.481 -10.002)" fill="#cf8c78"/>
    <path id="Trazado_203989" data-name="Trazado 203989" d="M77.656,78.738h-1.8a1.087,1.087,0,0,1-.176-.806c-.006-1.394,0-2.787,0-4.181-.007-.939-.229-1.153-1.181-1.16q-1.356-.009-2.712,0c-.952.007-1.174.221-1.181,1.16-.009,1.394,0,2.787,0,4.181a1.087,1.087,0,0,1-.176.806l-1.811-.008c0-1.75,0-3.5.005-5.251a2.714,2.714,0,0,1,2.862-2.874q1.665-.007,3.332,0a2.707,2.707,0,0,1,2.853,2.825c.008,1.769,0,3.538,0,5.307" transform="translate(-37.83 -38.931)" fill="#5b5b5b"/>
    <path id="Trazado_203990" data-name="Trazado 203990" d="M82.215,62.553v1.793l-19.9,0a2.029,2.029,0,0,1,0-1.8l19.9,0" transform="translate(-34.245 -34.49)" fill="#5b5b5b"/>
    <path id="Trazado_203991" data-name="Trazado 203991" d="M58.1,58.079v1.8q0,1.266-.007,2.531a1.861,1.861,0,0,1-1.476,1.975,1.84,1.84,0,0,1-2.065-1.257.394.394,0,0,0-.072-.084l-.019-1.353c0-2.214.021-4.428,0-6.641,0-.453.1-.627.585-.608,1.012.04,2.026.017,3.039.021q.006,1.806.013,3.613" transform="translate(-30.033 -30.021)" fill="#f1b8a0"/>
    <path id="Trazado_203992" data-name="Trazado 203992" d="M35.69,112.968h1.816c.226.253.163.565.172.859.021.717.047.751.779.755,1.219.005,2.438,0,3.657,0a1.052,1.052,0,0,1,.8.179c.015.58.244,1.32-.074,1.694-.3.357-1.063.1-1.621.1-3.467.011-6.934,0-10.4.014-.422,0-.619-.076-.563-.544a9.4,9.4,0,0,0,.009-1.073,1.836,1.836,0,0,1,1.815-2.026l0,.014a.742.742,0,0,1,.1.135,2.337,2.337,0,0,0,3.017,1.512c.3-.057.323-.248.343-.485.033-.383-.108-.791.153-1.144" transform="translate(-16.678 -62.274)" fill="#785349"/>
    <path id="Trazado_203993" data-name="Trazado 203993" d="M77.231,114.54a1.757,1.757,0,0,1-1.778,1.8q-4.545.021-9.09,0a1.766,1.766,0,0,1-1.778-1.752c-.018-.62.006-1.241.012-1.862a2.2,2.2,0,0,1,1.791-.018l0,.037a.655.655,0,0,1,.183.28,1.837,1.837,0,0,0,2.02,1.345c2.593-.019,5.186-.009,7.779,0a1.132,1.132,0,0,1,.858.177" transform="translate(-35.609 -62.046)" fill="#cba124"/>
    <path id="Trazado_203994" data-name="Trazado 203994" d="M79.457,114.782q-4.465,0-8.931-.008a1.777,1.777,0,0,1-1.91-1.79l10.843-.022q0,.91,0,1.82" transform="translate(-37.836 -62.289)" fill="#feca2e"/>
    <path id="Trazado_203995" data-name="Trazado 203995" d="M8.926,115.115c.028.09.063.178.083.27.274,1.284.159,1.429-1.129,1.429-2.426,0-4.853-.019-7.278.015-.525.007-.611-.159-.6-.629a2.739,2.739,0,0,1,1.808-2.823c.213.089.285.289.369.475a1.617,1.617,0,0,0,1.622.983c1.443,0,2.886,0,4.329.005.29,0,.616-.061.8.275" transform="translate(0 -62.517)" fill="#906658"/>
    <path id="Trazado_203996" data-name="Trazado 203996" d="M109.792,115.115c.028.09.063.178.083.27.274,1.284.159,1.429-1.129,1.429-2.426,0-4.853-.019-7.278.015-.525.007-.611-.159-.6-.629a2.739,2.739,0,0,1,1.808-2.823c.213.089.285.289.369.475a1.617,1.617,0,0,0,1.622.983c1.443,0,2.886,0,4.329.005.29,0,.616-.061.8.275" transform="translate(-55.618 -62.517)" fill="#906658"/>
    <path id="Trazado_203997" data-name="Trazado 203997" d="M7.085,22.931c-.455,2.308.689,4.249,1.451,6.275.409,1.087.862,2.158,1.285,3.24a2.766,2.766,0,0,0,2.807,1.919q1.241,0,2.481.006,0,.446.009.893c-1.225,0-2.45.022-3.674,0A2.346,2.346,0,0,1,9.2,33.894a70.734,70.734,0,0,1-2.929-7.511,5.173,5.173,0,0,1-.193-1.676,1.984,1.984,0,0,1,1.009-1.776" transform="translate(-3.348 -12.644)" fill="#cf8d78"/>
    <path id="Trazado_203998" data-name="Trazado 203998" d="M30.636,9.04a9.075,9.075,0,0,0-1.794.131,20.946,20.946,0,0,1-.572-4.521A4.523,4.523,0,0,1,32.846.011c.357,0,.714.011,1.071.017A4.893,4.893,0,0,0,30.88,1.967a5.337,5.337,0,0,0-.79,3.6,21.087,21.087,0,0,0,.546,3.474" transform="translate(-15.588 -0.006)" fill="#4c4c4c"/>
    <path id="Trazado_203999" data-name="Trazado 203999" d="M14.155,64.349V62.562l9.042,0v1.793l-9.042,0" transform="translate(-7.805 -34.496)" fill="#5b5b5b"/>
    <path id="Trazado_204000" data-name="Trazado 204000" d="M54.5,24.682l.008-4.527a10.947,10.947,0,0,1,2.136.123,2.293,2.293,0,0,1,1.011,3.516,2.213,2.213,0,0,1-1.745.891c-.469.017-.94,0-1.41,0" transform="translate(-30.052 -11.114)" fill="#cf8c78"/>
    <path id="Trazado_204001" data-name="Trazado 204001" d="M66.411,103.806l-1.791.018V96.587a2.19,2.19,0,0,1,1.791-.02l0,.038,0,7.2" transform="translate(-35.632 -53.148)" fill="#85b638"/>
    <path id="Trazado_204002" data-name="Trazado 204002" d="M11.149,114.868a1.05,1.05,0,0,0-.652-.111H6.4c-1.5,0-1.81-.213-2.364-1.627a1.707,1.707,0,0,1,.913-.2H8.573a2.64,2.64,0,0,1,2.576,1.939" transform="translate(-2.223 -62.27)" fill="#a27765"/>
    <path id="Trazado_204003" data-name="Trazado 204003" d="M112.015,114.868a1.05,1.05,0,0,0-.652-.111h-4.1c-1.5,0-1.81-.213-2.364-1.627a1.707,1.707,0,0,1,.913-.2h3.628a2.64,2.64,0,0,1,2.576,1.939" transform="translate(-57.842 -62.27)" fill="#a27765"/>
    <path id="Trazado_204004" data-name="Trazado 204004" d="M42.053,41.728a2.73,2.73,0,0,1-1.692-2.342c-.035-.36.032-.51.457-.372a4.359,4.359,0,0,0,4.054-.688l.028.906a2.653,2.653,0,0,1-2.4,2.7c-.143-.08-.361,0-.446-.2" transform="translate(-22.251 -21.133)" fill="#f1b8a0"/>
    <path id="Trazado_204005" data-name="Trazado 204005" d="M51.823,114.765c-1.634,0-3.267-.013-4.9,0-.384,0-.547-.1-.517-.5.031-.43.009-.863.01-1.3l3.617-.033a1.757,1.757,0,0,1,1.791,1.83" transform="translate(-25.586 -62.274)" fill="#a27765"/>
    <path id="Trazado_204006" data-name="Trazado 204006" d="M66.39,92.36l-1.791.02c-.006-.56-.019-1.12-.016-1.68a1.8,1.8,0,0,1,1.8-1.943l.005,3.6" transform="translate(-35.612 -48.941)" fill="#cba124"/>
    <path id="Trazado_204007" data-name="Trazado 204007" d="M34.315,29.4v-.669a1.274,1.274,0,0,1,.108.7l-.108-.035" transform="translate(-18.922 -15.843)" fill="#d49684"/>
    <path id="Trazado_204008" data-name="Trazado 204008" d="M43.57,45.91l.446.2a1.519,1.519,0,0,1-.912-.087c.156-.035.342.049.465-.117" transform="translate(-23.769 -25.315)" fill="#d39987"/>
    <path id="Trazado_204009" data-name="Trazado 204009" d="M37.941,112.985c0,.468,0,.936,0,1.4,0,.142.034.365-.166.36a4.935,4.935,0,0,1-2.527-.227,1.688,1.688,0,0,1-.92-1.556l3.613.018" transform="translate(-18.929 -62.291)" fill="#a27665"/>
    <path id="Trazado_204010" data-name="Trazado 204010" d="M72.642,80.963c0-1.732,0-3.465,0-5.2,0-.811.316-1.121,1.131-1.125,1.073,0,2.147-.006,3.22,0,.74,0,1.072.331,1.075,1.068.007,1.751,0,3.5,0,5.254H72.642" transform="translate(-40.056 -41.156)" fill="#fefefe"/>
  </g>
</svg>
