<svg id="Grupo_137616" data-name="Grupo 137616" xmlns="http://www.w3.org/2000/svg" xmlns:xlink="http://www.w3.org/1999/xlink" width="185.57" height="185.586" viewBox="0 0 185.57 185.586">
  <defs>
    <clipPath id="clip-path">
      <rect id="Rectángulo_88014" data-name="Rectángulo 88014" width="185.57" height="185.586" fill="none"/>
    </clipPath>
  </defs>
  <g id="Grupo_137616-2" data-name="Grupo 137616" clip-path="url(#clip-path)">
    <path id="Trazado_203921" data-name="Trazado 203921" d="M.106,23.206a30.613,30.613,0,0,1,2.5-5.309C6.066,12.988,13.565,11.58,18.6,14.554c1.118.661,1.488.742,1.886-.719A18.731,18.731,0,0,1,40.032.063a16.35,16.35,0,0,1,10.43,4.283c2.665,3.364,3,7.316,2.588,11.332A18.65,18.65,0,0,1,37.135,32.087a33.66,33.66,0,0,1-4.861.337c-7.837-.014-15.674,0-23.511-.011a9.106,9.106,0,0,1-8.308-4.49q-.175,0-.349-.007Z" transform="translate(-0.021 0)" fill="#e5f7fb"/>
    <path id="Trazado_203922" data-name="Trazado 203922" d="M32.62,229.859c-1.175-.918-2.273-1.893-1.614-3.606.63-1.635,2-1.849,3.548-1.843q11.291.048,22.582,0c1.553-.006,2.92.209,3.547,1.845.658,1.712-.44,2.688-1.618,3.6Z" transform="translate(-6.09 -44.358)" fill="#b2c5c7"/>
    <path id="Trazado_203923" data-name="Trazado 203923" d="M157.665,229.858c-1.256-.863-2.341-1.914-1.731-3.565s2.1-1.9,3.728-1.887c6.751.043,13.5.017,20.253.018,1.438,0,2.937-.216,3.7,1.522s-.211,2.831-1.312,3.911Z" transform="translate(-30.788 -44.357)" fill="#b2c5c7"/>
    <path id="Trazado_203924" data-name="Trazado 203924" d="M.106,226.231a3.977,3.977,0,0,1,3.8-1.843c3.294.107,6.593.066,9.889.017,1.556-.023,2.9.239,3.515,1.862.645,1.7-.453,2.675-1.624,3.586H1.918a2.25,2.25,0,0,1-1.812-1.811Z" transform="translate(-0.021 -44.353)" fill="#b2c5c7"/>
    <path id="Trazado_203925" data-name="Trazado 203925" d="M.085,228.943,1.9,230.755q-2.3.487-1.812-1.812" transform="translate(0 -45.254)" fill="#fcfdfd"/>
    <path id="Trazado_203926" data-name="Trazado 203926" d="M22.359,136.086a75.667,75.667,0,0,1-7.308-21.816c.444-.785,1.268-.861,2.015-1.051,8.945-2.281,14.638-7.978,17.531-16.636,1.67-5,2.333-10.22,3.446-15.343a27.6,27.6,0,0,1,2.1-6.708,8.741,8.741,0,0,1,7.164-5.13,61.442,61.442,0,0,1,6.481-.509c5.3-.034,10.605.286,15.9-.319a32.934,32.934,0,0,0,8.464-1.8c6.728-2.662,9.725-8.05,8.685-15.455a41.477,41.477,0,0,1-.482-10.629c.647-5.5,3.706-9.742,7.678-13.341,1.812-1.642,3.606-3.393,5.953-4.34,3.375-.075,6.521,1.044,9.69,1.962a76.645,76.645,0,0,1,20.708,9.7,3.526,3.526,0,0,1,1.078.948,1.83,1.83,0,0,1,.219.824c-1.237,5.635-4.185,9.795-9.92,11.6-1.955.616-3.943,1.128-5.9,1.748-3.866,1.228-5.522,2.842-5.417,7.993a21.272,21.272,0,0,0,.5,3.577c1.019,5.3,4.563,8.139,9.462,9.635,3.638,1.111,7.373,1.821,11.08,2.641,7.441,1.646,13.566,5.165,17.56,11.919a18.222,18.222,0,0,0,8.1,7.507,19.254,19.254,0,0,0,5.767,1.413c.566.208,1.232.221,1.6.817a38.746,38.746,0,0,1,.214,9.509,59.531,59.531,0,0,1-1.807,11.735c-.227.822-.9,1.03-1.625,1.233a13.707,13.707,0,0,0-9.878,9.188c-.362,1.062-.749,2.175-2.273,1.392a9.051,9.051,0,0,0-13.369,9.163c.393,4.232,4.309,7.641,9.006,7.859a10.05,10.05,0,0,1,3.4.255c.917,1.241-.3,1.9-.853,2.572a71.227,71.227,0,0,1-11.067,11.035,15.755,15.755,0,0,1-3.953,2.787,1.469,1.469,0,0,1-.558-.022,12.45,12.45,0,0,1-4.186-3.655c-1.748-2.233-3.283-4.623-5.092-6.812-3.118-3.773-7.152-5.015-11.917-4.655-5.766.436-11.016,2.5-16.24,4.747-3.378,1.455-6.769,2.815-10.6,2.707a11.718,11.718,0,0,1-10.491-6.261,50.642,50.642,0,0,1-3.862-9.158A103.663,103.663,0,0,0,63.9,124.744a22.179,22.179,0,0,0-5.275-6.826A13.184,13.184,0,0,0,47.8,114.95a4.633,4.633,0,0,0-4.018,3.894c-.468,1.943-.494,3.946-.79,5.913-.69,4.607-3,7.9-7.406,9.7-3.764,1.532-7.735,1.748-11.7,2.078a2.143,2.143,0,0,1-1.53-.445" transform="translate(-2.975 -4.546)" fill="#7ac1ec"/>
    <path id="Trazado_203927" data-name="Trazado 203927" d="M24.159,158.576c4.15-.2,8.294-.382,12.285-1.767,4.859-1.686,7.444-5.072,7.933-10.155.167-1.735.391-3.469.688-5.186.512-2.949,2.345-4.475,5.343-4.656,7.249-.437,11.931,3.337,15.256,9.293,2.6,4.659,4.135,9.751,5.845,14.769a58.841,58.841,0,0,0,3.606,8.862c2.879,5.391,8.015,7.694,13.973,6.334,4.562-1.041,8.635-3.359,13.01-4.888,4.52-1.581,9.082-2.677,13.953-2.212,4.346.415,7.3,2.83,9.746,6.152,2.425,3.293,4.536,6.858,8.02,9.229-.16,1.118-1.128,1.519-1.906,2.018a78.384,78.384,0,0,1-33.353,12.239,76.334,76.334,0,0,1-44.729-7.978,40.928,40.928,0,0,1-3.85-2.357,10.256,10.256,0,0,0-1.588-.951,5.106,5.106,0,0,0-1.23-.839,70.825,70.825,0,0,1-10.573-9.806,77.736,77.736,0,0,1-12.427-18.1" transform="translate(-4.775 -27.036)" fill="#a7e446"/>
    <path id="Trazado_203928" data-name="Trazado 203928" d="M99.687,23.048c-6.231,4.1-11.6,8.908-13.121,16.677-.692,3.535-.213,7.11.3,10.621,1.379,9.392-3.115,15.746-12.553,17.664-6.383,1.3-12.835,1.072-19.279,1.08a48.84,48.84,0,0,0-8.995.671,7.818,7.818,0,0,0-5.754,4.483c-1.926,3.775-2.346,7.947-3.151,12.009A67.9,67.9,0,0,1,34.021,98.3c-3.31,8.32-9.451,13.33-18.122,15.331-.41.095-.815.212-1.224.318a72.647,72.647,0,0,1-1.4-19.223,81.2,81.2,0,0,1,4.8-23.8,83.513,83.513,0,0,1,18-28.97c.791-.789,1.809-.542,2.742-.546,8.14-.022,16.279,0,24.417-.019a8.331,8.331,0,0,0,8.6-7c.657-3.321-.564-6.023-3.037-8.23-.564-.5-1.393-.8-1.4-1.757a1.955,1.955,0,0,1,1.6-1.03A80.417,80.417,0,0,1,98.748,22.21a2.358,2.358,0,0,1,.849.291.328.328,0,0,1,.091.546" transform="translate(-2.601 -4.219)" fill="#a7e446"/>
    <path id="Trazado_203929" data-name="Trazado 203929" d="M159.956,37.1l-.039-.726a4.153,4.153,0,0,1-.038-2.14,42.065,42.065,0,0,0,.592-6.113,2.4,2.4,0,0,1,.477-1.873,91.538,91.538,0,0,1,15.374,10.005A82.769,82.769,0,0,1,205.495,87a50.624,50.624,0,0,1,.786,10.94c-3.033-3.212-6.813-2.032-10.434-1.775-1.013.072-2.046.331-2.965-.362-.5-.111-1.081.078-1.506-.361a2.331,2.331,0,0,0,.952-2,78.022,78.022,0,0,0-7.844-27.865,75.226,75.226,0,0,0-23.991-27.993,5.569,5.569,0,0,1-.538-.482" transform="translate(-31.578 -5.189)" fill="#cfecf4"/>
    <path id="Trazado_203930" data-name="Trazado 203930" d="M65.015,21.384a10.334,10.334,0,0,1,4.863,6.627c1.108,5.259-3,10.7-8.415,10.744-9.3.075-18.592.036-27.887.046q-10.748-.016-21.5-.035A12.026,12.026,0,0,1,.542,28.995c.7.092.915.765,1.342,1.168a9.516,9.516,0,0,0,6.8,2.818c8.441-.028,16.884.1,25.322-.037,11.7-.19,19.547-9.07,18.692-20.5-.185-2.486-1.284-4.727-2.152-7.022,5.238,3.828,6.856,9.346,7.218,15.5a5.1,5.1,0,0,0,2.181-.607c.556.367,1.073-.077,1.611-.079a3.975,3.975,0,0,1,3.457,1.153" transform="translate(-0.107 -1.071)" fill="#cfecf4"/>
    <path id="Trazado_203931" data-name="Trazado 203931" d="M56,199.621a76.9,76.9,0,0,0,20.622,8.48,85.725,85.725,0,0,0,13.667,2.1,75.534,75.534,0,0,0,35.346-5.974,63.093,63.093,0,0,0,14.4-8.155,1.41,1.41,0,0,1,.344,0,3.262,3.262,0,0,1,1.525.484,24.355,24.355,0,0,0,8.656,2.21c.685.063,1.482-.112,1.9.7a82.178,82.178,0,0,1-72.868,12.443,77.141,77.141,0,0,1-23.926-11.989c-.064-.3-.037-.489.335-.3" transform="translate(-10.998 -38.754)" fill="#9bcb4b"/>
    <path id="Trazado_203932" data-name="Trazado 203932" d="M177.975,169.8c-2.015-.173-4.049.116-6.056-.417-3.711-.986-6.79-4.439-6.967-7.954.863-.022,1.228.7,1.7,1.2a5.671,5.671,0,0,0,4.333,1.9c6.812.01,13.627.131,20.436-.031a13.467,13.467,0,0,0,12.22-18.249,4.232,4.232,0,0,1-.531-1.892c.749-.981,1.11-.01,1.6.319.543,1.49,1.837,2.514,2.475,3.931a15.471,15.471,0,0,1,1.571,6.229c.006.647.018,1.134.986,1.029,4.714-.508,8.261,2.217,8.433,6.388.181,4.381-3.028,7.467-7.833,7.486-5.84.022-11.681.01-17.521.013a3.664,3.664,0,0,1-2.04.576c-3.648.012-7.3.023-10.944-.008a2.63,2.63,0,0,1-1.854-.526" transform="translate(-32.605 -28.45)" fill="#cfecf4"/>
    <path id="Trazado_203933" data-name="Trazado 203933" d="M211.388,138.383c-.626.132-.887-.51-1.383-.652a1.1,1.1,0,0,1-.7-.1,16.747,16.747,0,0,0-9.739-2.738,1,1,0,0,1-.792-.373c.35-3.319,1.161-6.561,1.524-9.892.433-3.963.121-7.908.3-11.855,2.758-.216,5.517-.406,8.271-.656a4.721,4.721,0,0,1,5.127,2.793,62.555,62.555,0,0,1-.916,15.212c-.443,2.774-1.118,5.511-1.689,8.265" transform="translate(-39.29 -22.154)" fill="#68a5db"/>
    <path id="Trazado_203934" data-name="Trazado 203934" d="M177.245,176.158l14.838-.042a73.666,73.666,0,0,1-13.005,14.81,48.812,48.812,0,0,1-5.74,4.6c-3.312-.429-6.691-.543-9.782-2.036a6.408,6.408,0,0,1-2.3-1.363,90.986,90.986,0,0,0,11.574-10.4c1.565-1.77,3.386-3.363,4.41-5.572" transform="translate(-31.876 -34.812)" fill="#68a5db"/>
    <path id="Trazado_203935" data-name="Trazado 203935" d="M153.288,24.387a31.693,31.693,0,0,1-1.031,10.126c-5.123-3.164-10.291-6.255-15.97-8.336-4.963-1.819-9.96-3.55-15.283-4.023.027-.1.052-.205.073-.309a23.936,23.936,0,0,1,8.057-5.019,79.02,79.02,0,0,1,24.154,7.561" transform="translate(-23.918 -3.326)" fill="#68a5db"/>
    <path id="Trazado_203936" data-name="Trazado 203936" d="M202.068,215.413q-8.05,0-16.1,0c-2.111,0-3.386-1-3.437-2.64-.053-1.7,1.281-2.787,3.469-2.788q16.1-.01,32.2,0c2.112,0,3.385,1,3.436,2.64.053,1.7-1.279,2.785-3.469,2.789q-8.05.012-16.1,0" transform="translate(-36.079 -41.505)" fill="#b2c5c7"/>
    <path id="Trazado_203937" data-name="Trazado 203937" d="M120.22,16.576,112.164,21.6a112.828,112.828,0,0,0-16.2-.773A79.531,79.531,0,0,0,81.2,22.806a1.825,1.825,0,0,0-1.285.583,14.115,14.115,0,0,0-3.6-.783c-.219-.148-.537-.242-.341-.619a80.219,80.219,0,0,1,44.253-5.412" transform="translate(-15.004 -3.076)" fill="#9bcb4b"/>
    <path id="Trazado_203938" data-name="Trazado 203938" d="M208.851.025c3.858,0,7.715-.007,11.573,0,2.114.006,3.386.992,3.442,2.632.059,1.7-1.274,2.794-3.459,2.8q-11.573.011-23.146,0c-2.113,0-3.386-.993-3.442-2.632-.059-1.7,1.276-2.791,3.459-2.8,3.858-.01,7.715,0,11.573,0" transform="translate(-38.311 -0.004)" fill="#b2c5c7"/>
    <path id="Trazado_203939" data-name="Trazado 203939" d="M190.788,14.474c3.616,0,7.232-.013,10.848,0,1.959.01,3.207,1.042,3.261,2.63.056,1.65-1.244,2.79-3.278,2.794q-10.848.019-21.7,0c-1.957,0-3.207-1.043-3.261-2.63-.057-1.648,1.247-2.783,3.278-2.794,3.616-.018,7.232,0,10.848,0" transform="translate(-34.919 -2.86)" fill="#b2c5c7"/>
    <path id="Trazado_203940" data-name="Trazado 203940" d="M23.263,209.979c3.616,0,7.232-.013,10.848,0,2.033.01,3.334,1.147,3.274,2.8-.057,1.587-1.3,2.623-3.264,2.627q-10.848.019-21.7,0c-2.031,0-3.333-1.148-3.274-2.8.056-1.587,1.305-2.617,3.265-2.627,3.616-.018,7.232,0,10.848,0" transform="translate(-1.808 -41.504)" fill="#b2c5c7"/>
    <path id="Trazado_203941" data-name="Trazado 203941" d="M171.926,5.456c-1.927,0-3.854.028-5.78-.008a2.794,2.794,0,0,1-3.032-2.673,2.763,2.763,0,0,1,2.961-2.74q5.689-.058,11.38,0A2.78,2.78,0,0,1,180.486,2.7c.022,1.593-1.236,2.717-3.141,2.746-1.806.027-3.613.006-5.419.006" transform="translate(-32.242 -0.001)" fill="#b2c5c7"/>
    <path id="Trazado_203942" data-name="Trazado 203942" d="M55.706,200.318l-.335.3-1.1-.736c-.109-.063-.146-.129-.113-.2s.069-.1.1-.1a1.993,1.993,0,0,1,1.446.734" transform="translate(-10.702 -39.451)" fill="#aed360"/>
    <path id="Trazado_203943" data-name="Trazado 203943" d="M75.705,23.571l.341.618c-.505-.009-1.072.291-1.464-.29l1.123-.328" transform="translate(-14.742 -4.659)" fill="#a6d15c"/>
    <path id="Trazado_203944" data-name="Trazado 203944" d="M54,199.413c0,.1.007.2.009.3a2.47,2.47,0,0,1-1.183-.988,1.061,1.061,0,0,1,1.174.688" transform="translate(-10.442 -39.279)" fill="#b8d86e"/>
    <path id="Trazado_203945" data-name="Trazado 203945" d="M154.736,39.776c1.608.031,2.563,1.278,3.647,2.136A77.015,77.015,0,0,1,180.657,70.05a69.5,69.5,0,0,1,6.3,21.873c.156,1.424.472,2.83.668,4.251.151,1.1.114,2.117-1.464,1.942-5.79-.148-10.059-3.049-13.2-7.647-2.532-3.708-5.039-7.37-9.052-9.651-3.818-2.17-8.021-3.194-12.264-4.12-3.694-.806-7.422-1.475-10.9-3.087-4.219-1.951-6.389-5.321-7.049-9.778a15.567,15.567,0,0,1-.059-6.09,6.025,6.025,0,0,1,2.984-4.082,18.363,18.363,0,0,1,5.455-1.845c6.779-1.376,11.052-5.283,12.667-12.04" transform="translate(-26.358 -7.862)" fill="#e5f7fb"/>
    <path id="Trazado_203946" data-name="Trazado 203946" d="M192.063,140.027a14.839,14.839,0,0,1,11.233,3.214,39.46,39.46,0,0,1,1.548,5.311c1.213,6.906-4.213,14.105-10.8,15.369-2.937.563-5.874.276-8.809.321-4.335.067-8.679-.144-13,.07a7.713,7.713,0,0,1-7.3-3.673,9.428,9.428,0,0,1,14-9.557c.74.4,1.152.554,1.42-.4,1.689-5.988,5.852-9.26,11.718-10.658" transform="translate(-32.581 -27.664)" fill="#e5f7fb"/>
    <path id="Trazado_203947" data-name="Trazado 203947" d="M96.739,124.213a21.206,21.206,0,0,1,.809-6.736c1.1-4.083,3.533-5.488,7.62-4.4a24.644,24.644,0,0,1,9.375,5.27c4.812,4.009,9.01,8.527,11.5,14.393a9.779,9.779,0,0,1,.721,2.411c.606,4.305-1.329,6.449-6.611,7.361a35.637,35.637,0,0,1-13.953-.822c-5.37-1.195-7.727-4.91-8.661-9.9a32.733,32.733,0,0,1-.8-7.569" transform="translate(-19.116 -22.281)" fill="#d0e06f"/>
  </g>
</svg>
