<svg xmlns="http://www.w3.org/2000/svg" xmlns:xlink="http://www.w3.org/1999/xlink" width="190" height="104" viewBox="0 0 190 104">
  <defs>
    <clipPath id="clip-path">
      <rect id="Rect치ngulo_88636" data-name="Rect치ngulo 88636" width="71.285" height="84.134" fill="none"/>
    </clipPath>
  </defs>
  <g id="Grupo_138526" data-name="Grupo 138526" transform="translate(-285.049 -411)">
    <rect id="Rect치ngulo_41122" data-name="Rect치ngulo 41122" width="190" height="104" transform="translate(285.049 411)" fill="none"/>
    <g id="Grupo_117447" data-name="Grupo 117447" transform="translate(-3337.23 1038.209)" opacity="0.3">
      <path id="Trazado_158283" data-name="Trazado 158283" d="M3677.784-530.075h0a16.354,16.354,0,0,0,23.129,0l67.216-67.214a16.357,16.357,0,0,0,0-23.129,16.355,16.355,0,0,0-23.129,0L3677.784-553.2A16.353,16.353,0,0,0,3677.784-530.075Z" transform="translate(14.296)" fill="#fc4b52"/>
      <path id="Trazado_158284" data-name="Trazado 158284" d="M3652.069-530.075h0a16.354,16.354,0,0,0,23.129,0l67.216-67.214a16.358,16.358,0,0,0,0-23.129,16.355,16.355,0,0,0-23.129,0L3652.069-553.2A16.354,16.354,0,0,0,3652.069-530.075Z" transform="translate(0)" fill="#feca2e"/>
    </g>
    <g id="Grupo_138527" data-name="Grupo 138527" transform="translate(344.049 421)">
      <g id="Grupo_138521" data-name="Grupo 138521" clip-path="url(#clip-path)">
        <path id="Trazado_213167" data-name="Trazado 213167" d="M71.255,81.845q-.622-11.893-1.244-23.785-.781-15.421-1.527-30.843a1.829,1.829,0,0,0-.234-.861q-2.106-3.515-4.231-7.019a1.524,1.524,0,0,0-1.427-.793c-.737.016-1.475,0-2.287,0,.311-1.325.611-2.594.906-3.864.3-1.3-.065-1.892-1.371-2.2-3.881-.916-7.76-1.844-11.649-2.723A1.043,1.043,0,0,1,47.3,8.9,11.9,11.9,0,0,0,38.9.463C38.309.285,37.709.153,37.114,0h-.329A1.254,1.254,0,0,1,35.8,0H34.157C34.11.124,34,.128,33.9.143A10.908,10.908,0,0,0,26.813,3.9,4.141,4.141,0,0,1,23.5,5.551c-.627.016-1.251.128-1.876.2-3.885.454-7.771.9-11.654,1.369-1.262.153-1.665.755-1.509,2.029.352,2.878.68,5.76,1.032,8.638.061.5.074.862-.612.766A1.7,1.7,0,0,0,7.1,19.581c-1.319,2.235-2.673,4.449-4.014,6.67a1.934,1.934,0,0,0-.3.923q-.564,11.4-1.139,22.8Q.836,65.932.012,81.884C-.081,83.7.328,84.13,2.138,84.13H69.172c.246,0,.494.013.739-.007a1.422,1.422,0,0,0,1.366-1.375,7.619,7.619,0,0,0-.022-.9M41.268,8.137c-1.4-.33-1.969.012-2.3,1.428-.391,1.648-.77,3.3-1.16,4.946a1.481,1.481,0,0,1-1.386.812c-.277-.087-.225-.349-.249-.547L33.089,4.406l-2.861.317c4.163-3.466,11.706-2.018,14,4.09-1.032-.235-2-.45-2.959-.676" transform="translate(0)"/>
        <path id="Trazado_213168" data-name="Trazado 213168" d="M65.127,0a.732.732,0,0,1-.986,0Z" transform="translate(-28.341)" fill="#151515"/>
        <path id="Trazado_213169" data-name="Trazado 213169" d="M37.956,103.86q-15.9,0-31.8.018c-.772,0-.945-.207-.9-.95q.661-11.973,1.264-23.95.454-8.818.885-17.637c.161-3.2.337-6.4.482-9.6.022-.477.138-.729.655-.659a3.142,3.142,0,0,0,.41,0q29,0,58-.022c.881,0,1.052.267,1.091,1.088.33,7.056.713,14.109,1.076,21.163q.441,8.572.871,17.145c.214,4.184.419,8.368.663,12.549.04.679-.123.868-.824.866q-15.939-.035-31.877-.016" transform="translate(-2.32 -22.563)" fill="#cba124"/>
        <path id="Trazado_213170" data-name="Trazado 213170" d="M25.827,31.5a25.7,25.7,0,0,0-2.624.021c-.761.079-.909-.275-.977-.9-.259-2.364-.55-4.723-.829-7.084q-.405-3.419-.811-6.838c-.126-1.054-.114-1.034.971-1.16q7.329-.846,14.654-1.726c1.547-.183,3.094-.363,4.639-.56.45-.057.685.005.741.553.25,2.446.513,4.893.857,7.327.1.727-.189.852-.762.987-4.038.954-8.071,1.932-12.1,2.909-1.273.309-1.617.867-1.326,2.13s.561,2.5.895,3.743c.131.484.053.624-.453.608-.957-.031-1.915-.009-2.872-.009" transform="translate(-9.072 -5.849)" fill="#dff7f9"/>
        <path id="Trazado_213171" data-name="Trazado 213171" d="M73.128,23.118c.229-1.021.42-1.9.626-2.772.109-.464.429-.285.716-.218q5.187,1.214,10.375,2.422c1.6.372,3.188.766,4.792,1.1.645.135.892.29.7,1.059-.775,3.044-1.465,6.11-2.157,9.174-.1.458-.265.633-.75.628q-3.531-.034-7.062,0c-.49.006-.654-.181-.759-.624-.751-3.191-1.528-6.376-2.29-9.564-.4-1.681-.89-1.99-2.538-1.589-.5.122-1,.23-1.649.378" transform="translate(-32.312 -8.854)" fill="#fc4b52"/>
        <path id="Trazado_213172" data-name="Trazado 213172" d="M62.13,39.035a1.563,1.563,0,0,1-.837.094c-6.565,0-13.131-.006-19.7.018-.642,0-.908-.178-1.009-.82a19.751,19.751,0,0,0-.6-2.465c-.158-.54-.018-.736.54-.867,5.951-1.406,11.895-2.844,17.842-4.269,1.663-.4,1.671-.4,2.066,1.235.572,2.359,1.131,4.72,1.7,7.075" transform="translate(-17.642 -13.479)" fill="#a7e446"/>
        <path id="Trazado_213173" data-name="Trazado 213173" d="M110.947,42.514c-1.906,0-3.651,0-5.4,0-.352,0-.4-.124-.317-.447.279-1.113.531-2.233.78-3.353.08-.357.281-.43.631-.477a2.14,2.14,0,0,1,2.595,1.362,26.273,26.273,0,0,0,1.707,2.912" transform="translate(-46.483 -16.879)" fill="#98791b"/>
        <path id="Trazado_213174" data-name="Trazado 213174" d="M12.188,42.566c.847-1.409,1.6-2.662,2.355-3.919.118-.2.241-.366.507-.324.242.039.285.226.307.42.123,1.08.235,2.162.365,3.242.049.4-.054.6-.512.588-.949-.026-1.9-.008-3.022-.008" transform="translate(-5.385 -16.931)" fill="#98791b"/>
        <path id="Trazado_213175" data-name="Trazado 213175" d="M61.251,67.857c0-.876-.03-1.754.012-2.628a.932.932,0,0,0-.6-1,4.209,4.209,0,0,1-2.09-4.883,4.274,4.274,0,0,1,8.286.2,4.2,4.2,0,0,1-2.178,4.7.9.9,0,0,0-.559.936c-.026,2,.112,4-.1,5.992a12.113,12.113,0,0,1-23.853,1.231,34.042,34.042,0,0,1-.288-6.878,1.346,1.346,0,0,0-.757-1.406,4.135,4.135,0,0,1-1.928-4.8,4.274,4.274,0,0,1,8.224,0,4.157,4.157,0,0,1-1.937,4.8,1.243,1.243,0,0,0-.751,1.331c.094,2.021-.193,4.061.193,6.065a9.241,9.241,0,0,0,18.315-1.448c.027-.738,0-1.479,0-2.218h.011" transform="translate(-16.36 -24.841)"/>
        <path id="Trazado_213176" data-name="Trazado 213176" d="M44.834,63.34c-1.108-.817-1.414-.817-2.543-.034a1.252,1.252,0,0,1,.366-1.677,1.279,1.279,0,0,1,1.663-.08,1.416,1.416,0,0,1,.515,1.791" transform="translate(-18.606 -27.077)" fill="#89693a"/>
        <path id="Trazado_213177" data-name="Trazado 213177" d="M83.131,63.32c-1.05-.771-1.4-.791-2.5-.127a1.125,1.125,0,0,1,.289-1.5,1.289,1.289,0,0,1,1.791-.1,1.258,1.258,0,0,1,.418,1.728" transform="translate(-35.55 -27.075)" fill="#886839"/>
      </g>
    </g>
  </g>
</svg>
