<svg id="Grupo_137626" data-name="Grupo 137626" xmlns="http://www.w3.org/2000/svg" xmlns:xlink="http://www.w3.org/1999/xlink" width="172" height="171.862" viewBox="0 0 172 171.862">
  <defs>
    <clipPath id="clip-path">
      <rect id="Rectángulo_88018" data-name="Rectángulo 88018" width="172" height="171.862" fill="none"/>
    </clipPath>
  </defs>
  <g id="Grupo_137626-2" data-name="Grupo 137626" clip-path="url(#clip-path)">
    <path id="Trazado_204047" data-name="Trazado 204047" d="M21.647,0H162.6c2.964.931,3.149,1.142,3.152,4.382.021,24.941-.012,49.881.049,74.822a4.994,4.994,0,0,1-3.068,5.019,64.555,64.555,0,0,1-7.989.1,3.5,3.5,0,0,1-1.742-.5,2.666,2.666,0,0,1-.581-2.2c.182-13.077-.57-26.145-.35-39.221a3.955,3.955,0,0,1,.4-2.272c.891-.684,1.19-.015,1.388.666a7.764,7.764,0,0,1,.149,2.168c.012,4.526-.011,9.052.012,13.578.01,1.992.23,2.127,2.151,1.537a26.516,26.516,0,0,1,2.758-.708,2.086,2.086,0,0,0,1.851-2.365q.007-13.243,0-26.486a2.073,2.073,0,0,0-1.908-2.291c-7.167-1.565-11.568-5.963-13.108-13.141a2.065,2.065,0,0,0-2.317-1.872c-2.289-.006-4.581.052-6.87-.11a37.826,37.826,0,0,1-3.856.11H50.378c-.727,0-1.454-.014-2.18.01-1.929.062-2.463.45-2.862,2.365a16.074,16.074,0,0,1-4.223,7.862,16.125,16.125,0,0,1-8.489,4.758c-2.046.455-2.39.883-2.431,2.955-.033,1.676-.065,3.355.017,5.03.076,1.568.612,2.088,2.153,2.212.724.058,1.453.028,2.179.028q23.982,0,47.964-.009c1.282,0,2.563.15,3.845.021,2.761-.236,5.52.32,8.29.006,1.922-.218,2.3-.538,2.369-2.454a28.793,28.793,0,0,1,.112-3.328c.1-.666.236-1.372,1.218-1.1.914,1.05.6,2.334.627,3.53.078,2.912.435,3.326,3.291,3.329,12.78.011,25.559.032,38.338-.015,2.5-.009,5-.5,7.514-.266.756.069,1.632-.019,1.837,1.044-.356.853-1.152.79-1.855.838-1.042.07-1.571.452-1.281,1.592a9.48,9.48,0,0,1,.154,2.338q.018,21.881-.007,43.763a4.94,4.94,0,0,1-.512,3.086c-1.264.936-2.484.333-3.708-.1-.828-.918-.729-2.065-.734-3.169-.023-6.362,0-12.723-.016-19.085-.007-2.436-.257-2.654-2.649-3.247C132.792,61.583,128.6,57.548,127,50.944c-.635-2.62-.814-2.808-3.456-2.809a51.87,51.87,0,0,0-5.688.125,19.4,19.4,0,0,1-3.845.206q-41.339,0-82.676,0c-.783,0-1.566.015-2.348.007a2.3,2.3,0,0,0-2.569,2.061c-1.594,6.934-5.909,11.2-12.833,12.85-1.826.435-2.183.864-2.19,2.8q-.042,12.746,0,25.49c.007,2.036.394,2.368,2.483,2.9,6.251,1.581,10.4,5.411,12.259,11.631a4.913,4.913,0,0,1,.065,2.807,1.981,1.981,0,0,1-1.384,1.884,32.09,32.09,0,0,0-10.9,9.147c-.548.695-1.081,1.459-2.154,1.339a37.437,37.437,0,0,1-8.2.159C1.4,121.412.4,120.317.073,118.175A10.815,10.815,0,0,1,0,116.5Q0,78.871,0,41.238c0-3.769.968-4.752,4.754-4.789,3.353-.034,6.706,0,10.058-.015,2.911-.015,3.324-.412,3.329-3.278q.022-12.908.006-25.815c0-.894-.013-1.789.024-2.681.13-3.1.636-3.77,3.475-4.659" fill="#a7e446"/>
    <path id="Trazado_204048" data-name="Trazado 204048" d="M221.827,83.542c1.937-.906,2.393-2.462,2.387-4.519q-.081-37.165,0-74.329c0-2.089-.37-3.749-2.391-4.694h7.048a2.734,2.734,0,0,1,2.349,2.349V81.217c-.858,2.729-1.334,3.09-4.218,3.145-1.16.022-2.323.048-3.482-.034-.652-.046-1.36-.027-1.693-.786" transform="translate(-59.219)" fill="#a7e446"/>
    <path id="Trazado_204049" data-name="Trazado 204049" d="M221.517,156.56c-.616,1.091-.564,2.347-.857,3.518a32.623,32.623,0,0,1-35.023,24.912c.1-1.248,1.181-1.209,1.978-1.389a31.1,31.1,0,0,0,11.165-4.819c7.622-5.355,12.451-12.509,13.9-21.808a39.254,39.254,0,0,0,0-8.892c-1.127-11.735-11.871-23.876-24.182-26.535-.709-.153-1.415-.324-2.105-.541-.717-.226-1.225-.623-.691-1.476a6.38,6.38,0,0,1,6.621.4l3.359.394a2.32,2.32,0,0,1,2.23-.174,29.017,29.017,0,0,1,4.971,1.907A33.512,33.512,0,0,1,220.366,141c.941,2.405.688,5.017,1.151,7.508Z" transform="translate(-49.517 -31.714)" fill="#cba124"/>
    <path id="Trazado_204050" data-name="Trazado 204050" d="M233.786,2.349A9.2,9.2,0,0,0,231.437,0c2.349,0,2.349,0,2.349,2.349" transform="translate(-61.786)" fill="#f6faf8"/>
    <path id="Trazado_204051" data-name="Trazado 204051" d="M29.652,126.689c-.789-7.748-5.661-12.972-13.345-14.15-1.431-.219-1.953-.682-1.942-2.2q.1-14.091.007-28.183c-.008-1.473.41-1.988,1.943-2.16A15.039,15.039,0,0,0,29.529,66.834c.177-1.44.671-1.97,2.192-1.968q45.043.069,90.086.043c.973.495.882,1.512,1.048,2.337a14.233,14.233,0,0,0,8.535,10.846c.612.272,1.193.613,1.8.891a7.854,7.854,0,0,1,4.776,7.3c.212,5.968.092,11.945.05,17.919a6.636,6.636,0,0,1-.318,1.638,1.812,1.812,0,0,1-1.523,1.141,32.283,32.283,0,0,0-14.916,7.9,29.1,29.1,0,0,0-6.979,9.72c-.357.819-.772,1.611-1.091,2.444a1.744,1.744,0,0,1-1.635,1.22,8.4,8.4,0,0,1-2.5.275q-22.734.015-45.468.02c-1.284,0-2.539-.5-3.826-.157a2.877,2.877,0,0,1-2.216-.519c-4.475-2.236-9.341-2.944-14.2-3.652a4.722,4.722,0,0,0-2.888.663c-2.981-.05-5.743.916-8.526,1.814-.73.235-1.531.833-2.279-.021" transform="translate(-3.835 -17.317)" fill="#dff7c4"/>
    <path id="Trazado_204052" data-name="Trazado 204052" d="M97.183,40.684a3.235,3.235,0,0,1-1.957.276q-26.42.011-52.841,0c-2.23,0-2.234-.009-2.239-2.226-.006-2.46.049-4.922-.021-7.38-.037-1.323.443-1.875,1.784-2.045A15.071,15.071,0,0,0,55.416,15.857c.167-1.248.507-1.725,1.822-1.723q44.874.051,89.747.034c.168,0,.335.02.5.03a3.586,3.586,0,0,1,1.162,2.326,13.888,13.888,0,0,0,8.786,11c3.818,1.561,6.634,4.425,6.286,9.395-.078,1.112.015,2.234-.049,3.35-.042.74-.125,1.467-.938,1.816a1.672,1.672,0,0,1-2.117-1.088,20.973,20.973,0,0,0-5.836-.2c-14.817.405-29.635.047-44.452.188-1.2.011-1.549-.487-1.517-1.606.059-2.011.021-4.026.022-6.039.436-.847,1.133-.738,1.875-.531.808.226,1.592.526,2.4.741,1.017.269,1.968.2,2.367-.928.388-1.094-.265-1.839-1.179-2.3a14.132,14.132,0,0,0-4-1.219c-1.478-.258-2.492-.853-2.6-2.532a1.528,1.528,0,0,0-1.63-1.575,1.629,1.629,0,0,0-1.707,1.714c-.029,1.653-.928,2.416-2.322,3.095A8.352,8.352,0,0,0,97.5,38.842c.1.635.4,1.336-.32,1.841" transform="translate(-10.712 -3.773)" fill="#dff7c4"/>
    <path id="Trazado_204053" data-name="Trazado 204053" d="M28.272,148.246c3.445-1.27,6.87-2.618,10.627-2.62,6.029-.223,10.99,2.422,15.551,5.958a32.646,32.646,0,0,1,12.511,20.757,4.619,4.619,0,0,1-.012,2.64.992.992,0,0,1-.816.617c-1.007-.347-.971-1.314-1.129-2.083A23.581,23.581,0,0,0,26.821,159.94a23.014,23.014,0,0,0-8.54,17.368,22.723,22.723,0,0,0,4.879,15.016,23.581,23.581,0,0,0,33.577,3.971,23.243,23.243,0,0,0,8.192-13.478c.175-.8.218-1.7,1.131-2.113a.852.852,0,0,1,.831.566c.622,1.339.091,2.672-.2,3.925a33.456,33.456,0,0,1-16.663,22.2,25.373,25.373,0,0,1-11.129,3.2,32.655,32.655,0,0,1-28.675-24.56A32.26,32.26,0,0,1,13.9,161.152c.283-.48.548-.971.822-1.456a35.974,35.974,0,0,1,13.554-11.45" transform="translate(-2.455 -38.874)" fill="#feca2e"/>
    <path id="Trazado_204054" data-name="Trazado 204054" d="M201.714,41.728a19.262,19.262,0,0,0-.046-8.123,7.291,7.291,0,0,0-4.8-5.026c-6.54-2.583-9.741-7.523-10.282-14.382,2.681-.018,5.362-.012,8.043-.064,1.116-.021,1.561.431,1.678,1.557a14.9,14.9,0,0,0,13.643,13.587c1.042.114,1.479.51,1.477,1.564q-.026,14.747-.006,29.495c0,.946-.342,1.43-1.35,1.5a13.014,13.014,0,0,0-5.584,1.616c-1.135.641-1.514.454-1.5-.905.049-5.586.024-11.172.015-16.758a3.844,3.844,0,0,0-.283-2.128c-.96-.319-1.475-.869-1-1.932" transform="translate(-49.813 -3.773)" fill="#cbf39e"/>
    <path id="Trazado_204055" data-name="Trazado 204055" d="M176.343,105.789c0-6.2.032-12.4.005-18.6-.015-3.606-1.421-6.407-4.927-7.818a15.861,15.861,0,0,1-9.205-8.524,15.4,15.4,0,0,1-1.278-6.015c2.772-.48,5.564-.156,8.346-.187.89-.01,1.016.691,1.114,1.394a16.558,16.558,0,0,0,2.843,7.609,14.959,14.959,0,0,0,10.668,6.246c1.6.2,1.874.875,1.868,2.258-.038,7.767-.011,15.535-.007,23.3a18.989,18.989,0,0,0-6.686.079c-.842.846-1.72,1.307-2.741.259" transform="translate(-42.965 -17.236)" fill="#cbf39e"/>
    <path id="Trazado_204056" data-name="Trazado 204056" d="M204.575,51.508c.4.611,1,1.118,1,1.932-.012,6.367-.3,12.747.032,19.1.423,8.208.067,16.408.28,24.609q-.052,3.677-.1,7.355l-6.954-2.338q0-23.194.014-46.388a6.732,6.732,0,0,0-1.547-5h5.273a3.524,3.524,0,0,1,2,.737" transform="translate(-52.674 -13.554)" fill="#a7e446"/>
    <path id="Trazado_204057" data-name="Trazado 204057" d="M117.747,44.266c-1.706-5.313.29-9.833,5.4-12.019a1.368,1.368,0,0,0,.926-1.511c.049-2.01.919-3.1,2.446-3.179,1.507-.078,2.538.968,2.652,2.953.052.913.493,1.131,1.212,1.232a17.44,17.44,0,0,1,4.959,1.43c1.536.715,2.165,2.022,1.658,3.36a2.619,2.619,0,0,1-3.585,1.414,11.376,11.376,0,0,0-4.016-1.032c-.683,1.888-.279,3.843-.269,5.757.007,1.46-.4,2-1.889,1.893-3.158-.23-6.344.322-9.493-.3" transform="translate(-31.275 -7.356)" fill="#64892a"/>
    <path id="Trazado_204058" data-name="Trazado 204058" d="M219.863,95.222a2.671,2.671,0,0,1-2.7,2.933,2.711,2.711,0,0,1-2.54-2.934,2.626,2.626,0,1,1,5.238,0" transform="translate(-57.298 -24.67)" fill="#def6c4"/>
    <path id="Trazado_204059" data-name="Trazado 204059" d="M15.692,70.265a2.881,2.881,0,1,1,2.646-2.859,2.66,2.66,0,0,1-2.646,2.859" transform="translate(-3.496 -17.226)" fill="#def7c4"/>
    <path id="Trazado_204060" data-name="Trazado 204060" d="M219.867,16.645a2.736,2.736,0,0,1-2.52,2.964,2.685,2.685,0,0,1-2.709-2.772,2.776,2.776,0,0,1,2.616-3.049,2.673,2.673,0,0,1,2.613,2.857" transform="translate(-57.301 -3.681)" fill="#def7c4"/>
    <path id="Trazado_204061" data-name="Trazado 204061" d="M15.743,148.826a2.947,2.947,0,0,1,.013-5.864,2.956,2.956,0,0,1-.013,5.864" transform="translate(-3.497 -38.166)" fill="#def6c4"/>
    <path id="Trazado_204062" data-name="Trazado 204062" d="M193.971,67.443c-.017,1.786-.991,2.852-2.581,2.825a2.609,2.609,0,0,1-2.525-2.926,2.574,2.574,0,0,1,2.627-2.819c1.586.028,2.5,1.1,2.478,2.92" transform="translate(-50.421 -17.225)" fill="#dff7c4"/>
    <path id="Trazado_204063" data-name="Trazado 204063" d="M39.039,16.652a2.613,2.613,0,0,1,2.581-2.871,2.669,2.669,0,0,1,2.526,2.953,2.636,2.636,0,0,1-2.621,2.847c-1.556-.019-2.5-1.128-2.486-2.93" transform="translate(-10.422 -3.679)" fill="#dff7c4"/>
    <path id="Trazado_204064" data-name="Trazado 204064" d="M171.922,120.71l2.741-.259a38.975,38.975,0,0,1,10.555,3.585c9.089,5.077,14.812,12.634,16.841,22.9a11.29,11.29,0,0,1,.107,1.331c.1.378-.131.437-.422.439-.915-.4-.955-1.308-1.19-2.092-2.606-8.721-8.4-14.23-17.107-16.559-7.156-1.914-13.791-.332-19.67,4.016A23.525,23.525,0,1,0,193.2,170.743a24.786,24.786,0,0,0,7.388-11.553c.233-.736.3-1.563,1.138-1.943.292,0,.527.051.43.432a30.246,30.246,0,0,1-6.6,15.485,32.456,32.456,0,0,1-18.642,11.64c-.759.174-1.5.417-2.253.628a32.764,32.764,0,0,1-28.728-25.521,53.087,53.087,0,0,1-.853-6.978,1.8,1.8,0,0,1-.691-1.772,36.68,36.68,0,0,1,1.068-6.731,3.08,3.08,0,0,1,1.3-1.85,33.454,33.454,0,0,1,13.875-17.432,36.181,36.181,0,0,1,11.288-4.439" transform="translate(-38.544 -32.157)" fill="#feca2e"/>
    <path id="Trazado_204065" data-name="Trazado 204065" d="M77.216,174.672a30.482,30.482,0,0,0-6.682-16.859,31.812,31.812,0,0,0-20.366-12.1,1.842,1.842,0,0,1-.453-.21c5.035-.942,9.824.188,14.535,1.8,1.518.52,2.961,1.26,4.439,1.9,5.013,1.328,8.048,5.092,11.012,8.945a1.38,1.38,0,0,1,.191,1.415A48.547,48.547,0,0,1,84.607,169.9a4.144,4.144,0,0,1,1.174,2.517A30.111,30.111,0,0,1,85.7,183.2c-.037.177-.075.358-.1.537a29.1,29.1,0,0,1-5.5,13.181c-.09.235-.165.475-.264.706a32.864,32.864,0,0,1-11.883,10.1,3.827,3.827,0,0,1-1.889.616c-.623-.505-1.157-.032-1.7.17a33.032,33.032,0,0,1-14.647,1.966c2.365-.99,4.96-1.208,7.318-2.269,11.661-5.243,18.589-14.017,20.185-26.82a31.6,31.6,0,0,1,0-6.717" transform="translate(-13.271 -38.754)" fill="#cba124"/>
    <path id="Trazado_204066" data-name="Trazado 204066" d="M86.8,161.023a38.184,38.184,0,0,0-11.2-10.36q17.849-.024,35.7-.047c5.7,0,11.4.011,17.1.018a45.821,45.821,0,0,0-1.676,10.353l-39.919.037" transform="translate(-20.183 -40.209)" fill="#a7e446"/>
    <path id="Trazado_204067" data-name="Trazado 204067" d="M72.015,227.094a1.877,1.877,0,0,1,1.144-1.137A32.821,32.821,0,0,0,85.194,215.9a4.024,4.024,0,0,1,2.418-.49c5.028.006,10.055,0,15.082.006a5.266,5.266,0,0,1,.936.07c2.6.857,3.688,2.675,3.5,5.375-.081,1.166,0,2.344-.018,3.517-.052,3.323-.639,4.077-3.8,4.908-9.213.015-18.427.048-27.64.026a3.821,3.821,0,0,1-3.655-2.216" transform="translate(-19.226 -57.507)" fill="#feca2e"/>
    <path id="Trazado_204068" data-name="Trazado 204068" d="M97.636,192.335a33.81,33.81,0,0,0-.114-11.852c-.09-.543-.138-1.094-.207-1.641q11.54-.092,23.078-.183a2.758,2.758,0,0,1,1.47.21c-.413,1.055-1.37.781-2.15.821-.849.044-1.234.141-.8,1.149,1.145,2.662.8,5.481.457,8.216-.29,2.282-2.229,3.236-4.163,4.024-1.756.314-3.5-.433-5.257-.005-3.365-.436-6.748-.147-10.121-.235-.762-.02-1.572.141-2.192-.506" transform="translate(-25.98 -47.695)" fill="#feca2e"/>
    <path id="Trazado_204069" data-name="Trazado 204069" d="M114.49,197.267l5.437-.054c.573-.151,1.15-.416,1.7.069a5.136,5.136,0,0,1,2.964,5.473,9.994,9.994,0,0,0,0,2.171,5.372,5.372,0,0,1-3.336,6.053c-1.192,1.366-2.731.756-4.139.658a8.346,8.346,0,0,1-2.212-.6l-.759-.074a.612.612,0,0,1-.1-.488c.032-.106.055-.243.138-.295,3.994-2.49,2.387-6.322,2.28-9.754-.04-1.261-1.594-1.617-2.1-2.675a.631.631,0,0,1,.126-.483" transform="translate(-30.442 -52.594)" fill="#cba124"/>
    <path id="Trazado_204070" data-name="Trazado 204070" d="M115.085,216.126l6.351-.057a4.242,4.242,0,0,1,3.314,4.252c.032,1.619.04,3.239,0,4.856a4.236,4.236,0,0,1-4.349,4.329c-1.9.024-3.795-.027-5.692-.045a5.029,5.029,0,0,0,3.027-5.561,14.461,14.461,0,0,1,0-2.666,4.771,4.771,0,0,0-2.648-5.107" transform="translate(-30.623 -57.684)" fill="#cba124"/>
    <path id="Trazado_204071" data-name="Trazado 204071" d="M123.772,192.463l-1.7-.069c2.533-1.014,3.453-2.97,3.317-5.583-.058-1.113,0-2.233-.024-3.349a7.076,7.076,0,0,0-2.136-4.51h5.243c2.135.361,3.355,1.453,3.662,3.482a21.134,21.134,0,0,1-.008,6.47,4.083,4.083,0,0,1-4.024,3.516c-1.443.056-2.888.032-4.332.045" transform="translate(-32.59 -47.774)" fill="#cba124"/>
    <path id="Trazado_204072" data-name="Trazado 204072" d="M222.565,158.737l.315-.338a23.6,23.6,0,0,1,0,9.411l-.317-.336a1.342,1.342,0,0,1-.58-1.445,46.24,46.24,0,0,0,0-5.851,1.332,1.332,0,0,1,.584-1.442" transform="translate(-59.259 -42.288)" fill="#f3d963"/>
    <path id="Trazado_204073" data-name="Trazado 204073" d="M97.889,105.8a5.115,5.115,0,0,1,0-.671c.427-3.134-.139-5.481-3.489-7.046-2.944-1.375-3.768-4.452-3.366-7.629A8.571,8.571,0,0,1,96.3,83.217c1.127-.484,1.658-.955,1.642-2.251a2.444,2.444,0,0,1,2.558-2.692,2.489,2.489,0,0,1,2.533,2.733c.01,1.026.361,1.312,1.31,1.435A16.845,16.845,0,0,1,109,83.761c1.715.761,2.395,2.157,1.773,3.6-.594,1.373-2.006,1.862-3.685,1.222a18.874,18.874,0,0,0-3.034-.933c-.71-.141-1.009,0-1,.8.04,2.46.03,4.921,0,7.382-.006.584.161.962.741,1.119a6.032,6.032,0,0,1,.633.218c4.432,1.737,6.737,4.8,6.786,9.005a10.612,10.612,0,0,1-6.7,10.108,1.9,1.9,0,0,0-1.485,2.154,2.609,2.609,0,0,1-2.466,3,2.53,2.53,0,0,1-2.646-2.8c-.012-1.163-.294-1.668-1.547-1.811a11.24,11.24,0,0,1-5.033-2.171,2.525,2.525,0,0,1-.916-3.505,2.6,2.6,0,0,1,3.649-.869c3.807,1.959,3.807,1.959,3.807-2.291V105.8" transform="translate(-24.044 -20.896)" fill="#64892a"/>
    <path id="Trazado_204074" data-name="Trazado 204074" d="M57.758,104.214c1.23,0,2.464-.065,3.688.014a2.548,2.548,0,0,1,.029,5.095q-3.687.118-7.379,0a2.546,2.546,0,0,1-.026-5.092c1.224-.079,2.458-.016,3.688-.018" transform="translate(-13.773 -27.815)" fill="#64892a"/>
    <path id="Trazado_204075" data-name="Trazado 204075" d="M146.684,109.346c-1.116,0-2.235.037-3.349-.01a2.537,2.537,0,0,1-2.675-2.6,2.413,2.413,0,0,1,2.552-2.519q3.6-.108,7.2,0a2.408,2.408,0,0,1,2.51,2.558,2.558,2.558,0,0,1-2.553,2.561c-.111.01-.223.007-.334.007h-3.35" transform="translate(-37.552 -27.808)" fill="#64892a"/>
    <path id="Trazado_204076" data-name="Trazado 204076" d="M69.1,183.779A24.3,24.3,0,0,1,45.01,205.291c-12.377.182-23.1-9.666-24.36-21.792a24.472,24.472,0,0,1,25.924-26.891c11.716.767,21.653,10.418,22.529,21.748a9.929,9.929,0,0,1-.008,5.423" transform="translate(-5.478 -41.795)" fill="#98791b"/>
    <path id="Trazado_204077" data-name="Trazado 204077" d="M86.787,191.485q0-2.711.008-5.422l.318-.644a14.367,14.367,0,0,1,0,6.717l-.323-.651" transform="translate(-23.169 -49.501)" fill="#f1d062"/>
    <path id="Trazado_204078" data-name="Trazado 204078" d="M125.807,47.018c-2.195-1.085-2.231-3.684,0-5.566Z" transform="translate(-33.143 -11.066)" fill="#d9f2c2"/>
    <path id="Trazado_204079" data-name="Trazado 204079" d="M205.175,151.528a28.258,28.258,0,0,1-.005,8.738c-2.121,10.457-10,18.207-20.522,19.667a24.393,24.393,0,1,1-2.359-48.517c11.2.424,20.613,8.7,22.886,20.113" transform="translate(-41.869 -35.079)" fill="#98791b"/>
    <path id="Trazado_204080" data-name="Trazado 204080" d="M108.214,197.7c2.132.77,2.954,1.855,3.008,4.084.037,1.5.022,3.013.007,4.518-.026,2.612-.789,3.622-3.365,4.506a81.016,81.016,0,0,1-9.156.131,57.482,57.482,0,0,1-8.309-.161,76.84,76.84,0,0,0,3.579-6.989,60.135,60.135,0,0,0,1.812-6.086,94.068,94.068,0,0,1,12.424,0" transform="translate(-24.134 -52.727)" fill="#feca2e"/>
    <path id="Trazado_204081" data-name="Trazado 204081" d="M90.291,215.62l17.465.03c-.006.095-.015.189-.028.283l-17.735.022.3-.335" transform="translate(-24.025 -57.564)" fill="#f4de85"/>
    <path id="Trazado_204082" data-name="Trazado 204082" d="M110.177,197.656l-12.425,0c0-.114,0-.227,0-.341l12.392.032c.012.1.023.2.032.3" transform="translate(-26.097 -52.678)" fill="#f6e36f"/>
    <path id="Trazado_204083" data-name="Trazado 204083" d="M107.81,111.079a4.026,4.026,0,0,1,2.97,3.631,5.33,5.33,0,0,1-2.97,5.17v-8.8Z" transform="translate(-28.782 -29.655)" fill="#def6c4"/>
    <path id="Trazado_204084" data-name="Trazado 204084" d="M100.126,91.774c0,1.9.005,3.427,0,4.952,0,.318.071.78-.311.837-.251.038-.608-.232-.828-.453-1.186-1.193-.828-3.417,1.142-5.336" transform="translate(-26.244 -24.501)" fill="#cbe5bc"/>
    <path id="Trazado_204085" data-name="Trazado 204085" d="M27.683,182.947a19.145,19.145,0,1,1,38.29-.114,19.145,19.145,0,1,1-38.29.114" transform="translate(-7.39 -43.692)" fill="#feca2e"/>
    <path id="Trazado_204086" data-name="Trazado 204086" d="M183.031,138.693a19.149,19.149,0,0,1,19.278,19.114,19.346,19.346,0,0,1-19.314,19.153A19.04,19.04,0,0,1,163.866,158a18.84,18.84,0,0,1,19.164-19.31" transform="translate(-43.747 -37.025)" fill="#feca2e"/>
    <path id="Trazado_204087" data-name="Trazado 204087" d="M50.214,191.386c-2.347,0-4.7.031-7.042-.01-1.843-.032-2.771-.874-2.8-2.412-.029-1.616.965-2.607,2.8-2.619q7.042-.048,14.084,0a2.453,2.453,0,0,1,2.7,2.549c0,1.6-.88,2.449-2.7,2.481-2.346.041-4.7.01-7.042.01" transform="translate(-10.778 -49.742)" fill="#98791b"/>
    <path id="Trazado_204088" data-name="Trazado 204088" d="M186.443,161.162c2.229,0,4.459-.02,6.687.007,1.957.023,3.076.928,3.16,2.484.081,1.5-1.015,2.689-2.928,2.772-3,.13-6.016.065-9.025.073-1.561,0-3.125.053-4.68-.04-1.89-.114-3.161-1.346-3.1-2.849s1.232-2.42,3.2-2.441c2.228-.023,4.458-.005,6.687-.005" transform="translate(-47.134 -43.023)" fill="#98791b"/>
  </g>
</svg>
