<svg id="Grupo_137637" data-name="Grupo 137637" xmlns="http://www.w3.org/2000/svg" xmlns:xlink="http://www.w3.org/1999/xlink" width="78.509" height="69.585" viewBox="0 0 78.509 69.585">
  <defs>
    <clipPath id="clip-path">
      <rect id="Rectángulo_88023" data-name="Rectángulo 88023" width="78.509" height="69.585" fill="none"/>
    </clipPath>
  </defs>
  <g id="Grupo_137637-2" data-name="Grupo 137637" clip-path="url(#clip-path)">
    <path id="Trazado_204204" data-name="Trazado 204204" d="M69.3,40.636c.737.23,1.475.232,2.121.432,1.652.51,3.431.736,4.891,1.748a4.837,4.837,0,0,1,2.041,4.046q.247,6.945.5,13.891c.087,2.407.168,4.814.265,7.22a2.024,2.024,0,0,1-2.272,2.4q-20.185,0-40.37,0a1.958,1.958,0,0,1-2.239-2.266q.379-10.87.8-21.738a4.7,4.7,0,0,1,3.474-4.279,22.3,22.3,0,0,1,4.884-1.263,3.321,3.321,0,0,0,.675-.2,6.845,6.845,0,0,1-2.741-3.684,6.483,6.483,0,0,1,.436-4.657,1.04,1.04,0,0,0,0-1.093,7.714,7.714,0,0,1-.5-7.006,1.756,1.756,0,0,0,.021-1.34,4.544,4.544,0,0,1,.5-4.268,2.625,2.625,0,0,0,.445-1.686,14.657,14.657,0,0,1,2.71-9.538,14.459,14.459,0,0,1,26.046,6.3,20.417,20.417,0,0,1,.159,3.6,1.848,1.848,0,0,0,.337,1.162,4.77,4.77,0,0,1,.511,4.627,1.1,1.1,0,0,0,0,.882,7.889,7.889,0,0,1-.467,7.37.676.676,0,0,0-.054.727c1.513,2.973.947,6.222-2.162,8.6" transform="translate(-20.284 -0.794)"/>
    <path id="Trazado_204205" data-name="Trazado 204205" d="M138.735,14.6q0-5.457,0-10.914A3.338,3.338,0,0,1,142.366,0Q149.708,0,157.05,0A3.349,3.349,0,0,1,160.7,3.672q.007,10.914,0,21.829a3.324,3.324,0,0,1-3.6,3.633q-7.381.02-14.762,0a3.314,3.314,0,0,1-3.6-3.624q0-5.457,0-10.914" transform="translate(-82.191 0)"/>
    <path id="Trazado_204206" data-name="Trazado 204206" d="M16.019,45.511c0,2.618.007,5.236,0,7.853A3.494,3.494,0,0,1,12.293,57.1q-4.279.012-8.56,0A3.529,3.529,0,0,1,.006,53.348q-.013-7.853,0-15.707A3.515,3.515,0,0,1,3.79,33.879q4.28,0,8.56,0A3.457,3.457,0,0,1,16.016,37.5c.014,2.67,0,5.34,0,8.01" transform="translate(0 -20.07)"/>
    <path id="Trazado_204207" data-name="Trazado 204207" d="M67,125.052H52.781c-1.038,0-1.045-.006-1.045-1.052q0-10.17,0-20.34c0-1.032.063-1.09,1.127-1.09h28.35c1.093,0,1.112.019,1.112,1.094,0,6.806-.01,13.612.015,20.418,0,.752-.214.99-.974.986-4.79-.03-9.581-.015-14.371-.015" transform="translate(-30.65 -60.766)" fill="#dff7f9"/>
    <path id="Trazado_204208" data-name="Trazado 204208" d="M57.651,17.776a12.9,12.9,0,0,1,25.595-1.861,12.435,12.435,0,0,1,.212,2.575c-.013.389-.113.533-.512.366A2.935,2.935,0,0,0,81.8,18.61a.527.527,0,0,1-.555-.346A1.668,1.668,0,0,0,80,17.293a7.729,7.729,0,0,1-2.907-1.655c-1.026-.871-1.707-.779-2.615.192-3.188,3.411-7.013,5.317-11.8,4.831a14.675,14.675,0,0,1-3.621-.977c-.049-.018-.094-.049-.143-.064-.392-.123-.992-.133-1.131-.391a3.749,3.749,0,0,1-.136-1.453" transform="translate(-34.154 -3.098)" fill="#5b5d60"/>
    <path id="Trazado_204209" data-name="Trazado 204209" d="M85.1,40.686a26.224,26.224,0,0,1-.3,5.5,9.257,9.257,0,0,1-18.241-2.074c-.025-1.518.007-3.036-.016-4.554-.006-.432.075-.6.558-.522,5.339.879,9.69-1.077,13.379-4.783.56-.562.853-.575,1.408-.073a6.692,6.692,0,0,0,2.658,1.462.643.643,0,0,1,.561.756c-.032,1.334-.011,2.669-.011,4.287" transform="translate(-39.423 -20.035)" fill="#f8cfb3"/>
    <path id="Trazado_204210" data-name="Trazado 204210" d="M102.832,69.912c-.322-.976.245-1.57,1.08-2.191a10.1,10.1,0,0,0,3.922-6.225c.1-.468.228-.768.81-.82a4.154,4.154,0,0,0,2.228-.895c.414-.33.479-.145.587.247a6.06,6.06,0,0,1-.65,4.9,2.375,2.375,0,0,0-.12,2.434,4.966,4.966,0,0,1-2.39,6.882,1.437,1.437,0,0,1-1.473.066c-.946-.5-1.927-.938-2.879-1.429-1.2-.616-1.206-1.725-1.114-2.972" transform="translate(-60.867 -35.316)" fill="#5b5d60"/>
    <path id="Trazado_204211" data-name="Trazado 204211" d="M62.68,69.922c0,.559.014.951,0,1.343a1.746,1.746,0,0,1-.92,1.548c-1.107.584-2.255,1.09-3.381,1.641a.8.8,0,0,1-.743-.02C54.849,73.195,53.4,70.445,54.8,67.5a2.646,2.646,0,0,0-.161-2.731,5.974,5.974,0,0,1-.573-4.692c.094-.38.19-.635.64-.275a3.933,3.933,0,0,0,2.072.857c.559.058.8.283.924.89a9.976,9.976,0,0,0,3.946,6.2,2,2,0,0,1,1.031,2.174" transform="translate(-31.895 -35.325)" fill="#5b5d60"/>
    <path id="Trazado_204212" data-name="Trazado 204212" d="M64.882,161.739H80.817c.944,0,1.054.181.612,1.022a1.926,1.926,0,0,1-1.631,1.061c-.312.028-.628.011-.942.011q-14.248,0-28.5,0a2.074,2.074,0,0,1-2.213-1.271c-.259-.672-.161-.821.564-.821q8.086,0,16.171,0" transform="translate(-28.447 -95.82)" fill="#dff7f9"/>
    <path id="Trazado_204213" data-name="Trazado 204213" d="M68.86,89.749c.73-.363,1.3-.669,1.886-.933a3.78,3.78,0,0,0,2.435-3.9c-.047-1.264-.008-1.258,1.184-.952a10.675,10.675,0,0,0,6.179-.179c.574-.194.674-.045.633.478a8.645,8.645,0,0,0,0,1.176,3.529,3.529,0,0,0,1.935,3.1c.733.392,1.486.747,2.412,1.209Z" transform="translate(-40.795 -49.588)" fill="#f8cfb3"/>
    <path id="Trazado_204214" data-name="Trazado 204214" d="M131.616,148.284a6.238,6.238,0,0,0,.511-1.4,1.737,1.737,0,0,0-1.169-2.18.422.422,0,0,1-.339-.488q.017-3.727.006-7.454c0-.347.1-.508.457-.583.868-.181,1.731-.391,2.585-.631.44-.123.561-.04.574.437.087,3.137.207,6.273.319,9.409.026.732.05,1.464.1,2.194.034.494-.129.728-.659.708-.756-.029-1.515-.007-2.383-.007" transform="translate(-77.383 -80.271)" fill="#f8cfb3"/>
    <path id="Trazado_204215" data-name="Trazado 204215" d="M41.085,148.285c-.853,0-1.612-.017-2.37.006-.465.014-.665-.143-.646-.633q.231-5.884.428-11.768c.015-.448.188-.436.527-.346.858.227,1.719.448,2.588.626.365.075.459.245.459.586q0,3.768.029,7.536c0,.165,0,.267-.183.368-1.472.83-1.711,1.559-1.049,3.111.06.14.118.281.216.514" transform="translate(-22.554 -80.272)" fill="#f8cfb3"/>
    <path id="Trazado_204216" data-name="Trazado 204216" d="M130.634,110.376c0-1.751.011-3.5-.008-5.252,0-.436.05-.586.549-.454a3.339,3.339,0,0,1,2.694,3.238c.131,2.373.156,4.752.256,7.128.017.415-.163.551-.5.632-.813.19-1.631.363-2.431.6-.5.148-.564-.049-.561-.479.016-1.8.007-3.606.007-5.409" transform="translate(-77.388 -61.983)" fill="#fc4b52"/>
    <path id="Trazado_204217" data-name="Trazado 204217" d="M42.762,104.633c.016.18.046.358.046.536,0,3.5-.007,7,.011,10.506,0,.558-.1.766-.7.549a13.6,13.6,0,0,0-1.519-.373c-1.322-.315-1.313-.315-1.254-1.643q.137-3.054.249-6.109a3.335,3.335,0,0,1,3.163-3.466" transform="translate(-23.301 -61.989)" fill="#fc4b52"/>
    <path id="Trazado_204218" data-name="Trazado 204218" d="M115.9,45.2c0-.915.027-1.831-.011-2.745-.021-.5.119-.637.617-.538a3.423,3.423,0,0,1-.21,6.713c-.445.057-.4-.187-.4-.451q0-1.49,0-2.98" transform="translate(-68.657 -24.815)" fill="#f8cfb3"/>
    <path id="Trazado_204219" data-name="Trazado 204219" d="M57.92,47.145c0,.73-.01,1.46,0,2.19.007.346-.037.54-.472.443a3.366,3.366,0,0,1-2.612-2.224,3.278,3.278,0,0,1,.574-3.307.87.87,0,0,1,1.154-.3c1.343.535,1.352.513,1.352,1.942v1.252" transform="translate(-32.361 -25.979)" fill="#f7cfb3"/>
    <path id="Trazado_204220" data-name="Trazado 204220" d="M142.59,16.837q0-5.416,0-10.831c0-1.51.633-2.147,2.143-2.148q7.26-.006,14.521,0c1.505,0,2.158.647,2.158,2.144q0,10.871,0,21.742c0,1.458-.636,2.106-2.114,2.11q-7.3.018-14.6,0c-1.512,0-2.107-.646-2.108-2.185q0-5.415,0-10.831" transform="translate(-84.476 -2.284)" fill="#64892a"/>
    <path id="Trazado_204221" data-name="Trazado 204221" d="M16.734,47.7c0,2.592,0,5.183,0,7.775a1.986,1.986,0,0,1-2.258,2.264q-4.162.01-8.324,0a2.01,2.01,0,0,1-2.287-2.255q-.012-7.775,0-15.55a2.144,2.144,0,0,1,2.725-2.284c.271.043.314.181.388.393a3.436,3.436,0,0,0,6.663.008.5.5,0,0,1,.537-.4c1.791-.079,2.557.634,2.559,2.434q0,3.809,0,7.617" transform="translate(-2.285 -22.279)" fill="#a7e446"/>
    <path id="Trazado_204222" data-name="Trazado 204222" d="M17.135,37.727c.468,0,.938.015,1.405,0,.447-.019.409.19.243.465a1.873,1.873,0,0,1-3.232.037c-.2-.306-.235-.525.256-.5.441.021.884,0,1.327,0" transform="translate(-9.132 -22.347)" fill="#64892a"/>
    <path id="Trazado_204223" data-name="Trazado 204223" d="M85.1,132.211c-.6,0-1.2,0-1.8,0-.545,0-.93-.2-.925-.8,0-.553.362-.768.877-.769,1.276,0,2.551,0,3.827,0,.522,0,.856.249.848.8s-.364.768-.878.77c-.651,0-1.3,0-1.953,0" transform="translate(-48.804 -77.396)"/>
    <path id="Trazado_204227" data-name="Trazado 204227" d="M146.445,19.1q0-5.063,0-10.125c0-1.029.22-1.257,1.226-1.258q6.593,0,13.187,0c1.045,0,1.267.231,1.267,1.306q0,10.126,0,20.251c0,1.078-.21,1.3-1.276,1.3q-6.554.007-13.108,0c-1.115,0-1.3-.2-1.3-1.348q0-5.063,0-10.125" transform="translate(-86.76 -4.568)"/>
    <path id="Trazado_204228" data-name="Trazado 204228" d="M150.286,28.713c0-2.435.012-4.871-.01-7.306,0-.489.093-.669.633-.665q5.656.038,11.312,0c.479,0,.617.122.615.611q-.027,7.345,0,14.69c0,.5-.111.683-.644.681q-5.656-.03-11.312,0c-.5,0-.607-.162-.6-.63.022-2.461.01-4.923.01-7.384" transform="translate(-89.029 -12.288)" fill="#feca2e"/>
    <path id="Trazado_204229" data-name="Trazado 204229" d="M164.42,13.733c-1.2,0-2.409-.013-3.613.007-.4.007-.594-.055-.6-.538-.03-1.65-.053-1.65,1.618-1.65,2.043,0,4.085.018,6.127-.012.549-.008.785.079.77.712-.037,1.479,0,1.48-1.472,1.48H164.42" transform="translate(-94.906 -6.837)" fill="#ffedb6"/>
    <path id="Trazado_204230" data-name="Trazado 204230" d="M151.508,11.513c1.245,0,1.245,0,1.244,1.157,0,1.026,0,1.026-1.133,1.026-1.356,0-1.3,0-1.374-1.266-.043-.775.2-1.052.949-.92a1.827,1.827,0,0,0,.313,0" transform="translate(-89.008 -6.801)" fill="#ffedb6"/>
  </g>
</svg>
