<svg id="Grupo_137638" data-name="Grupo 137638" xmlns="http://www.w3.org/2000/svg" xmlns:xlink="http://www.w3.org/1999/xlink" width="79.48" height="79.509" viewBox="0 0 79.48 79.509">
  <defs>
    <clipPath id="clip-path">
      <rect id="Rectángulo_88024" data-name="Rectángulo 88024" width="79.48" height="79.509" fill="none"/>
    </clipPath>
  </defs>
  <g id="Grupo_137638-2" data-name="Grupo 137638" clip-path="url(#clip-path)">
    <path id="Trazado_204231" data-name="Trazado 204231" d="M25.335,68.9a6.188,6.188,0,0,0,2.6,3.788,1.446,1.446,0,0,0,.864.189,7,7,0,0,1,1.971.143,3.33,3.33,0,0,1,2.337,3.567,3.259,3.259,0,0,1-3.125,2.894q-8.776.047-17.554,0a3.249,3.249,0,0,1-3.148-3.3,3.3,3.3,0,0,1,3.157-3.3c.915-.043,1.836.147,2.629-.625A6.991,6.991,0,0,0,17.08,68.9H15.82c-3.422,0-6.845.007-10.267,0A5.3,5.3,0,0,1,0,63.327Q-.005,53.019,0,42.71a5.3,5.3,0,0,1,5.6-5.6q15.608-.006,31.216,0A5.29,5.29,0,0,1,42.4,42.656q.012,10.349,0,20.7a5.262,5.262,0,0,1-4.835,5.515c-.421.058-.472.194-.469.551.014,1.987,0,3.974.012,5.961a1.327,1.327,0,0,0,1.5,1.466q6.459.014,12.917,0a1.33,1.33,0,1,0-.02-2.642c-1.242-.013-2.484.008-3.726-.006a3.972,3.972,0,1,1,.013-7.942c2.484-.015,4.968,0,7.452,0,1.29,0,1.73-.444,1.731-1.742,0-7.12-.01-14.241.018-21.361,0-.651-.208-.815-.8-.878a21.05,21.05,0,1,1,5.051-.064c-1.615.231-1.615.231-1.615,1.849q0,10.225,0,20.451c0,2.8-1.613,4.393-4.426,4.4-2.4,0-4.8,0-7.2,0-1.031,0-1.635.519-1.613,1.355.019.8.607,1.285,1.6,1.291,1.214.008,2.429-.009,3.643,0a3.97,3.97,0,1,1,.025,7.939q-6.583.029-13.165,0a3.943,3.943,0,0,1-4.024-4.044c-.017-1.987-.007-3.974,0-5.961,0-.35.032-.608-.494-.6-2.842.03-5.684.015-8.625.015" transform="translate(0 0)"/>
    <path id="Trazado_204232" data-name="Trazado 204232" d="M22.912,86.7c-5.931,0-11.861-.009-17.792.014-.6,0-.781-.119-.778-.756.029-5.848.014-11.7.019-17.543A2.678,2.678,0,0,1,7.3,65.5q15.6,0,31.2,0a2.686,2.686,0,0,1,2.953,2.985c0,5.82-.01,11.641.016,17.46,0,.621-.151.768-.768.765-5.931-.025-11.861-.015-17.792-.015" transform="translate(-1.706 -25.742)" fill="#dff7f9"/>
    <path id="Trazado_204233" data-name="Trazado 204233" d="M79.1,6.551A18.383,18.383,0,0,1,89.526,4.477c1.44.142,1.438.181.874,1.494-.792,1.846-1.575,3.7-2.389,5.533a1.775,1.775,0,0,0,.12,1.794q1.856,3.031,3.658,6.095a1.67,1.67,0,0,0,1.631.9c.739-.024,1.733-.26,2.155.114.49.436.076,1.454.168,2.21a1.925,1.925,0,0,1-.763,1.863,15.094,15.094,0,0,0-1.409,1.4,1.319,1.319,0,0,0,.185,2.187c1.29.991,2.588,1.973,3.906,2.926a.692.692,0,0,1,.3.959c-.3.769-.508,1.571-.79,2.347a1.393,1.393,0,0,0,.359,1.585,12.477,12.477,0,0,0,1,.988c.592.472.6.769-.07,1.237a18.591,18.591,0,0,1-22.713-1.06c-.464-.4-.546-.7-.236-1.214.437-.728.626-1.787,1.25-2.171s1.653-.123,2.5-.129c3.012-.022,2.547.314,3.9-2.4,1.029-2.061.915-2.367-1.216-3.217-1.406-.561-2.8-1.14-4.222-1.67a.731.731,0,0,1-.562-.838c.036-1.1-.025-2.209.023-3.31a1.679,1.679,0,0,0-1.145-1.876,5.811,5.811,0,0,1-.592-.291,1.193,1.193,0,0,1-.114-1.74c.234-.162.422.044.611.118,1.46.574,2.911,1.168,4.369,1.747,1.159.459,1.72.217,2.2-.956.807-1.988,1.588-3.988,2.412-5.97a1.577,1.577,0,0,0-.521-2.039C82.655,9.624,80.931,8.12,79.1,6.551" transform="translate(-29.485 -1.724)" fill="#89cbe6"/>
    <path id="Trazado_204234" data-name="Trazado 204234" d="M105.52,18.3c-1.173.4-1.884-.327-2.464-1.494s-1.328-2.289-2.027-3.412a.946.946,0,0,1-.089-.989c.853-1.942,1.7-3.888,2.5-5.852.22-.538.472-.544.937-.352,6.915,2.851,11,7.936,11.942,15.376a17.932,17.932,0,0,1-4.556,14.376c-.324.378-.5.4-.9.057a1.411,1.411,0,0,1-.483-1.907c.3-.647.463-1.354.7-2.031a1.355,1.355,0,0,0-.537-1.669c-1.128-.842-2.246-1.7-3.384-2.523-.4-.292-.632-.546-.106-.918a3.648,3.648,0,0,0,1.5-3.674c-.11-1.093-.017-2.206-.023-3.31-.006-1.235-.453-1.67-1.71-1.678-.359,0-.717,0-1.3,0" transform="translate(-39.633 -2.394)" fill="#a7e446"/>
    <path id="Trazado_204235" data-name="Trazado 204235" d="M69.53,36.921a17.466,17.466,0,0,1-3.669-7.982c-1.211-7.136.969-13.085,6.419-17.851.509-.446.844-.552,1.414-.024,1.394,1.293,2.861,2.507,4.323,3.724a.76.76,0,0,1,.242,1.056C77.8,16.877,77.37,17.922,77,18.988c-.22.635-.507.693-1.082.446-1.442-.62-2.906-1.19-4.365-1.766-1.065-.42-1.706-.139-2.071.916q-.621,1.795-1.2,3.606c-.286.9-.113,1.538.765,1.812a2.335,2.335,0,0,1,1.772,2.965A19.668,19.668,0,0,0,70.8,29.2a1.449,1.449,0,0,0,1.036,1.511q2.269.888,4.523,1.814c.19.078.549.045.438.44a.545.545,0,0,1-.623.409c-1.185-.014-2.374.041-3.557-.019A1.775,1.775,0,0,0,70.7,34.568c-.323.758-.731,1.48-1.168,2.353" transform="translate(-25.758 -4.209)" fill="#a7e446"/>
    <path id="Trazado_204236" data-name="Trazado 204236" d="M22.936,104.778q8.855,0,17.712,0c.91,0,.991.129.645.994a2.676,2.676,0,0,1-2.629,1.652c-3.062.007-6.125,0-9.187,0q-11.092,0-22.182,0a2.741,2.741,0,0,1-2.769-1.808c-.236-.646-.122-.858.614-.855,5.931.025,11.863.014,17.8.014" transform="translate(-1.736 -41.175)" fill="#12263f"/>
    <path id="Trazado_204237" data-name="Trazado 204237" d="M28.92,125.755h-8.1c-.5,0-1.1.065-1.116-.642s.562-.684,1.075-.684q8.143,0,16.288,0c.083,0,.166,0,.248,0,.466-.019.87.121.879.641.01.578-.429.7-.92.685-.165-.005-.331,0-.5,0H28.92" transform="translate(-7.743 -48.903)" fill="#12263f"/>
    <path id="Trazado_204238" data-name="Trazado 204238" d="M36.025,117.444H29.983a10.855,10.855,0,0,0,1.524-3.641.308.308,0,0,1,.345-.277c.742,0,1.484,0,2.226,0a.349.349,0,0,1,.4.32,9.817,9.817,0,0,0,1.551,3.6" transform="translate(-11.784 -44.617)" fill="#12263f"/>
  </g>
</svg>
