<svg id="Grupo_137639" data-name="Grupo 137639" xmlns="http://www.w3.org/2000/svg" xmlns:xlink="http://www.w3.org/1999/xlink" width="80.46" height="80.509" viewBox="0 0 80.46 80.509">
  <defs>
    <clipPath id="clip-path">
      <rect id="Rectángulo_88025" data-name="Rectángulo 88025" width="80.46" height="80.509" fill="none"/>
    </clipPath>
  </defs>
  <g id="Grupo_137639-2" data-name="Grupo 137639" clip-path="url(#clip-path)">
    <path id="Trazado_204239" data-name="Trazado 204239" d="M39.329,20.188c-.179-.2-.232-.268-.29-.329-.439-.465-1.21-.913-1.232-1.4-.027-.568.85-.936,1.255-1.458.371-.48.622-.33.97.036.866.91,1.79,1.765,2.652,2.679a1.368,1.368,0,0,0,1.169.472,16.758,16.758,0,0,1,2.177,0c.57.045.694-.191.742-.7A20.485,20.485,0,0,1,53.736,5.636C59.826.26,66.915-1.343,74.627,1.143a20.434,20.434,0,0,1,14.358,15.74,21.418,21.418,0,1,1-42.05,8.063c-.038-.248-.094-.494-.124-.743-.16-1.339-.169-1.232-1.545-1.367a3.675,3.675,0,0,0-3.607,1.5c-.485.639-1.148,1.14-1.7,1.736-.31.336-.524.4-.852.02-.434-.507-1.233-.926-1.3-1.46-.076-.567.817-.951,1.241-1.456.053-.062.1-.125.259-.313-.5,0-.9-.012-1.3,0-2.254.08-4.522-.215-6.76.312A11.387,11.387,0,0,0,32.2,45.525a13.226,13.226,0,0,0,1.918.134c4.637,0,9.274-.009,13.911.012a1.529,1.529,0,0,0,1.233-.52c.883-.932,1.82-1.814,2.711-2.74.3-.31.495-.343.792,0,.441.5,1.221.912,1.317,1.457.1.591-.8.951-1.21,1.457-.062.077-.129.149-.293.337H53.61c8.157,0,16.313-.012,24.47,0a10.049,10.049,0,0,1,.389,20.092c-3.882.059-7.765.025-11.648,0a1.756,1.756,0,0,0-1.462.582c-.827.907-1.737,1.738-2.589,2.625-.3.311-.523.464-.844.04-.425-.561-1.4-.938-1.295-1.579.093-.542.946-.954,1.513-1.469a1.322,1.322,0,0,0-.984-.181c-6.369-.008-12.738-.017-19.107.011-.663,0-.825-.173-.81-.82.041-1.878.011-1.878,1.914-1.878H62.215c-.595-.571-1.019-1-1.466-1.4-.271-.242-.247-.4,0-.67,1.479-1.665,1.586-1.769,3.005-.075a5.751,5.751,0,0,0,5.268,2.2c3.06-.2,6.142-.024,9.215-.061a7.364,7.364,0,0,0,2.4-14.291,7.107,7.107,0,0,0-2.455-.446l-25.14,0h-.534c.554.536.949.948,1.375,1.325.312.275.348.456.029.793-1.479,1.564-1.585,1.675-2.948.039a5.894,5.894,0,0,0-5.346-2.211c-3.845.2-7.707.063-11.562.053a14.076,14.076,0,0,1-.636-28.144c1.917-.035,3.835-.005,5.91-.005" transform="translate(-9.065 0)" fill="#0d0f23"/>
    <path id="Trazado_204240" data-name="Trazado 204240" d="M1.331,89.13a1.739,1.739,0,0,1,.937.315Q15.416,96.669,28.563,103.9a1.386,1.386,0,0,1,0,2.639Q15.422,113.77,2.273,120.991a1.415,1.415,0,0,1-1.841-.073,1.426,1.426,0,0,1-.195-1.772c1.129-2.605,2.234-5.22,3.373-7.822a.892.892,0,0,0-.114-1.047c-1.027-1.322-2.021-2.669-3.022-4.011a1.4,1.4,0,0,1,0-2.1c1-1.342,2-2.689,3.023-4.01a.892.892,0,0,0,.112-1.048q-1.722-3.941-3.4-7.9C-.245,90.127.3,89.148,1.331,89.13" transform="translate(0 -40.786)" fill="#0d0f23"/>
    <path id="Trazado_204241" data-name="Trazado 204241" d="M79.509,36.74a18.069,18.069,0,0,1-5.091-11.016c-.039-.369-.017-.563.44-.549q1.506.046,3.015,0c.466-.014.534.225.594.6.965,6.037,4.343,10.158,10.109,12.089a14.747,14.747,0,1,0-10.1-16.02c-.07.551-.28.688-.792.667-.892-.036-1.788-.042-2.679,0-.535.026-.644-.129-.586-.654A18.281,18.281,0,0,1,80.209,10.2a18.729,18.729,0,0,1,30,6.036c.124.277.2.573.3.86a16.541,16.541,0,0,1-1.425,10.992A19.809,19.809,0,0,1,93.919,39.86,19.552,19.552,0,0,1,80.509,37.5a10.914,10.914,0,0,1-1-.756" transform="translate(-34.049 -2.321)" fill="#a7e446"/>
    <path id="Trazado_204242" data-name="Trazado 204242" d="M92.188,28.135c-1.563.009-3.127-.027-4.687.048-.731.035-.767-.259-.651-.813a11.8,11.8,0,0,1,6.8-8.777A12.058,12.058,0,1,1,99.578,41.55a12.168,12.168,0,0,1-12.722-9.828c-.12-.651-.054-.936.729-.9,1.532.075,3.068.038,4.6.047a1.7,1.7,0,0,1,.425.8,6.5,6.5,0,0,0,5.215,4.259,1.93,1.93,0,0,1,.952.252c.387,1.211.4,1.256,1.7.927a7.512,7.512,0,0,0,5.726-5.414,7.45,7.45,0,0,0-1.791-7.511,7.653,7.653,0,0,0-3.988-2.306c-1.276-.3-1.278-.292-1.634.927a1.852,1.852,0,0,1-1.026.289,6.485,6.485,0,0,0-5.156,4.246,1.706,1.706,0,0,1-.427.8" transform="translate(-39.721 -7.981)" fill="#ddd7cf"/>
    <path id="Trazado_204243" data-name="Trazado 204243" d="M83.816,46.882a34.2,34.2,0,0,0,4.608,2.146,20.777,20.777,0,0,0,8.457.915,20.087,20.087,0,0,0,17.952-17.89,32.681,32.681,0,0,0-.017-4.818A16.781,16.781,0,0,1,116.1,35.16a18.63,18.63,0,0,1-12.887,16.631c-7.136,2.235-13.481.652-18.97-4.407a5.552,5.552,0,0,1-.431-.5" transform="translate(-38.356 -12.463)" fill="#85b638"/>
    <path id="Trazado_204244" data-name="Trazado 204244" d="M96.734,32.656a6.676,6.676,0,0,1,6.517-5.335.409.409,0,0,1,.206.344c-.006.658.428.8.962.921a5.378,5.378,0,0,1,4.313,4.365,5.452,5.452,0,0,1-3.832,6.376c-.841.237-1.463.5-1.649,1.4a6.677,6.677,0,0,1-6.516-5.335H100c-.49.493-.874.908-1.289,1.287-.3.275-.357.458-.039.8,1.469,1.58,1.456,1.592,2.986.062.808-.808,1.626-1.607,2.421-2.428a1.352,1.352,0,0,0,0-2.184c-1.131-1.155-2.219-2.365-3.446-3.41-1.052-.9-1.141.637-1.762.9-.443.19-.647.586-.1,1.007.414.317.771.707,1.323,1.223Z" transform="translate(-44.267 -12.503)" fill="#feca2e"/>
    <path id="Trazado_204245" data-name="Trazado 204245" d="M24.553,115.665q-3.926.932-7.852,1.862c-2.494.587-4.994,1.148-7.481,1.759a.825.825,0,0,1-1.04-.363c-.7-1-1.449-1.981-2.2-2.948a.531.531,0,0,1-.013-.789c.79-1.01,1.546-2.048,2.312-3.077.171-.23.322-.412.681-.327q7.793,1.861,15.592,3.7c0,.062,0,.124.005.186" transform="translate(-2.651 -51.144)" fill="#fc4b52"/>
    <path id="Trazado_204246" data-name="Trazado 204246" d="M7.8,133.363c.649-1.507,1.307-3.01,1.939-4.523a.786.786,0,0,1,.6-.511q5.727-1.341,11.454-2.683c.046-.01.1.021.292.065L7.915,133.505l-.117-.142" transform="translate(-3.568 -57.497)" fill="#fc4b52"/>
    <path id="Trazado_204247" data-name="Trazado 204247" d="M21.484,105.129c-1.4-.324-2.807-.644-4.209-.972-2.277-.533-4.554-1.073-6.832-1.606-.3-.07-.6-.093-.748-.439-.657-1.554-1.325-3.1-2.09-4.892l13.931,7.663c-.017.082-.035.164-.052.247" transform="translate(-3.48 -44.489)" fill="#fc4b52"/>
    <path id="Trazado_204248" data-name="Trazado 204248" d="M108.72,39.627c-.165-1,.259-1.352,1.271-1.537a5.3,5.3,0,0,0,0-10.336c-1.012-.183-1.437-.531-1.271-1.535.074-1.427.074-1.427,1.531-1.187a8.03,8.03,0,0,1,0,15.781c-1.456.238-1.456.238-1.531-1.186" transform="translate(-49.736 -11.4)" fill="#0d0f23"/>
  </g>
</svg>
