<svg id="Grupo_137627" data-name="Grupo 137627" xmlns="http://www.w3.org/2000/svg" xmlns:xlink="http://www.w3.org/1999/xlink" width="50.799" height="50.758" viewBox="0 0 50.799 50.758">
  <defs>
    <clipPath id="clip-path">
      <rect id="Rectángulo_88018" data-name="Rectángulo 88018" width="50.799" height="50.758" fill="none"/>
    </clipPath>
  </defs>
  <g id="Grupo_137626" data-name="Grupo 137626" clip-path="url(#clip-path)">
    <path id="Trazado_204047" data-name="Trazado 204047" d="M6.393,0h41.63c.876.275.93.337.931,1.294.006,7.366,0,14.732.015,22.1a1.475,1.475,0,0,1-.906,1.482,19.066,19.066,0,0,1-2.359.03,1.033,1.033,0,0,1-.514-.148.787.787,0,0,1-.172-.649c.054-3.862-.168-7.722-.1-11.584a1.168,1.168,0,0,1,.118-.671c.263-.2.352,0,.41.2a2.293,2.293,0,0,1,.044.64c0,1.337,0,2.673,0,4.01,0,.588.068.628.635.454a7.831,7.831,0,0,1,.815-.209.616.616,0,0,0,.547-.7q0-3.911,0-7.822a.612.612,0,0,0-.564-.677A4.708,4.708,0,0,1,43.05,3.866a.61.61,0,0,0-.684-.553c-.676,0-1.353.015-2.029-.032a11.171,11.171,0,0,1-1.139.032H14.879c-.215,0-.43,0-.644,0-.57.018-.727.133-.845.7a4.747,4.747,0,0,1-1.247,2.322A4.762,4.762,0,0,1,9.635,7.742c-.6.134-.706.261-.718.873-.01.5-.019.991,0,1.486.023.463.181.617.636.653.214.017.429.008.644.008q7.083,0,14.166,0c.379,0,.757.044,1.136.006.816-.07,1.63.095,2.448,0,.568-.065.68-.159.7-.725a8.5,8.5,0,0,1,.033-.983c.03-.2.07-.405.36-.326.27.31.176.689.185,1.043.023.86.129.982.972.983,3.774,0,7.549.009,11.323,0,.74,0,1.476-.146,2.219-.079.223.02.482-.006.543.308-.1.252-.34.233-.548.247-.308.021-.464.134-.378.47a2.8,2.8,0,0,1,.045.69q.005,6.462,0,12.925a1.459,1.459,0,0,1-.151.911c-.373.276-.734.1-1.1-.03a1.281,1.281,0,0,1-.217-.936c-.007-1.879,0-3.758,0-5.637,0-.719-.076-.784-.782-.959a4.631,4.631,0,0,1-3.643-3.622c-.187-.774-.24-.829-1.021-.83a15.319,15.319,0,0,0-1.68.037,5.729,5.729,0,0,1-1.136.061H9.255c-.231,0-.462,0-.693,0a.68.68,0,0,0-.759.609,4.741,4.741,0,0,1-3.79,3.8c-.539.128-.645.255-.647.826q-.012,3.764,0,7.528c0,.6.116.7.733.855A4.757,4.757,0,0,1,7.72,31.366a1.451,1.451,0,0,1,.019.829.585.585,0,0,1-.409.556,9.478,9.478,0,0,0-3.221,2.7c-.162.205-.319.431-.636.4a11.057,11.057,0,0,1-2.421.047A1,1,0,0,1,.022,34.9,3.194,3.194,0,0,1,0,34.409Q0,23.294,0,12.179c0-1.113.286-1.4,1.4-1.414.99-.01,1.98,0,2.971,0,.86,0,.982-.122.983-.968q.006-3.812,0-7.624c0-.264,0-.528.007-.792C5.406.462,5.555.263,6.393,0" transform="translate(0)" fill="#a7e446"/>
    <path id="Trazado_204048" data-name="Trazado 204048" d="M221.824,24.674a1.265,1.265,0,0,0,.705-1.335q-.024-10.976,0-21.953A1.3,1.3,0,0,0,221.822,0H223.9a.808.808,0,0,1,.694.694V23.987c-.253.806-.394.913-1.246.929-.343.006-.686.014-1.028-.01-.193-.014-.4-.008-.5-.232" transform="translate(-173.799)" fill="#a7e446"/>
    <path id="Trazado_204049" data-name="Trazado 204049" d="M196.123,129.948a3.886,3.886,0,0,0-.253,1.039,9.635,9.635,0,0,1-10.344,7.358c.031-.368.349-.357.584-.41a9.184,9.184,0,0,0,3.3-1.423,9.4,9.4,0,0,0,4.106-6.441,11.593,11.593,0,0,0,0-2.626,9.618,9.618,0,0,0-7.142-7.837c-.209-.045-.418-.1-.622-.16s-.362-.184-.2-.436a1.884,1.884,0,0,1,1.955.118l.992.116a.685.685,0,0,1,.659-.052,8.57,8.57,0,0,1,1.468.563,9.9,9.9,0,0,1,5.164,5.594,11.728,11.728,0,0,1,.34,2.217Z" transform="translate(-145.324 -93.076)" fill="#cba124"/>
    <path id="Trazado_204050" data-name="Trazado 204050" d="M232.131.694A2.717,2.717,0,0,0,231.437,0c.694,0,.694,0,.694.694" transform="translate(-181.332)" fill="#f6faf8"/>
    <path id="Trazado_204051" data-name="Trazado 204051" d="M18.88,83.125a4.438,4.438,0,0,0-3.941-4.179c-.423-.065-.577-.2-.573-.649q.031-4.162,0-8.324c0-.435.121-.587.574-.638a4.442,4.442,0,0,0,3.9-3.888c.052-.425.2-.582.648-.581q13.3.02,26.606.013c.288.146.26.446.31.69a4.2,4.2,0,0,0,2.521,3.2c.181.08.352.181.532.263a2.32,2.32,0,0,1,1.41,2.157c.063,1.763.027,3.528.015,5.292a1.96,1.96,0,0,1-.094.484.535.535,0,0,1-.45.337,9.534,9.534,0,0,0-4.405,2.333,8.6,8.6,0,0,0-2.061,2.871c-.105.242-.228.476-.322.722a.515.515,0,0,1-.483.36,2.48,2.48,0,0,1-.737.081q-6.714,0-13.429.006a4.3,4.3,0,0,0-1.13-.046.85.85,0,0,1-.654-.153,13.522,13.522,0,0,0-4.2-1.079,1.4,1.4,0,0,0-.853.2,7.772,7.772,0,0,0-2.518.536c-.216.069-.452.246-.673-.006" transform="translate(-11.255 -50.823)" fill="#dff7c4"/>
    <path id="Trazado_204052" data-name="Trazado 204052" d="M56.975,21.975a.955.955,0,0,1-.578.081q-7.8,0-15.606,0c-.659,0-.66,0-.661-.657,0-.727.014-1.454-.006-2.18-.011-.391.131-.554.527-.6a4.451,4.451,0,0,0,3.989-3.974c.049-.368.15-.509.538-.509q13.253.015,26.506.01c.05,0,.1.006.148.009a1.059,1.059,0,0,1,.343.687,4.1,4.1,0,0,0,2.595,3.247,2.642,2.642,0,0,1,1.856,2.775c-.023.328,0,.66-.015.989-.012.219-.037.433-.277.536a.494.494,0,0,1-.625-.321,6.194,6.194,0,0,0-1.724-.059c-4.376.12-8.752.014-13.128.055-.355,0-.457-.144-.448-.474.017-.594.006-1.189.006-1.784.129-.25.334-.218.554-.157.239.067.47.155.71.219.3.079.581.059.7-.274s-.078-.543-.348-.68a4.174,4.174,0,0,0-1.18-.36c-.436-.076-.736-.252-.767-.748a.451.451,0,0,0-.481-.465.481.481,0,0,0-.5.506.972.972,0,0,1-.686.914,2.467,2.467,0,0,0-1.341,2.672c.029.187.118.394-.095.544" transform="translate(-31.437 -11.074)" fill="#dff7c4"/>
    <path id="Trazado_204053" data-name="Trazado 204053" d="M14.831,146.391a9.107,9.107,0,0,1,3.139-.774,6.989,6.989,0,0,1,4.593,1.76,9.642,9.642,0,0,1,3.695,6.13,1.364,1.364,0,0,1,0,.78.293.293,0,0,1-.241.182c-.3-.1-.287-.388-.333-.615a6.964,6.964,0,0,0-11.277-4.01,6.8,6.8,0,0,0-2.522,5.129,6.711,6.711,0,0,0,1.441,4.435,6.964,6.964,0,0,0,9.917,1.173,6.865,6.865,0,0,0,2.42-3.98c.052-.237.064-.5.334-.624a.252.252,0,0,1,.245.167,1.7,1.7,0,0,1-.06,1.159,9.881,9.881,0,0,1-4.921,6.557,7.493,7.493,0,0,1-3.287.945A9.644,9.644,0,0,1,9.5,157.552a9.528,9.528,0,0,1,1.086-7.35c.084-.142.162-.287.243-.43a10.625,10.625,0,0,1,4-3.382" transform="translate(-7.206 -114.089)" fill="#feca2e"/>
    <path id="Trazado_204054" data-name="Trazado 204054" d="M191.055,22.282a5.689,5.689,0,0,0-.014-2.4,2.153,2.153,0,0,0-1.417-1.485,4.584,4.584,0,0,1-3.037-4.248c.792-.005,1.584,0,2.375-.019.329-.006.461.127.5.46a4.4,4.4,0,0,0,4.029,4.013c.308.034.437.151.436.462q-.008,4.355,0,8.711c0,.279-.1.422-.4.443a3.844,3.844,0,0,0-1.649.477c-.335.189-.447.134-.444-.267.014-1.65.007-3.3,0-4.949a1.135,1.135,0,0,0-.084-.628c-.283-.094-.436-.257-.3-.571" transform="translate(-146.192 -11.073)" fill="#cbf39e"/>
    <path id="Trazado_204055" data-name="Trazado 204055" d="M165.488,76.739c0-1.832.009-3.663,0-5.495a2.267,2.267,0,0,0-1.455-2.309,4.684,4.684,0,0,1-2.719-2.517,4.55,4.55,0,0,1-.378-1.777,15.291,15.291,0,0,1,2.465-.055c.263,0,.3.2.329.412a4.89,4.89,0,0,0,.84,2.247,4.418,4.418,0,0,0,3.151,1.845c.473.059.554.258.552.667-.011,2.294,0,4.588,0,6.882a5.608,5.608,0,0,0-1.975.023c-.249.25-.508.386-.809.076" transform="translate(-126.096 -50.585)" fill="#cbf39e"/>
    <path id="Trazado_204056" data-name="Trazado 204056" d="M199.451,50.987c.118.181.294.33.3.571,0,1.88-.087,3.765.01,5.64.125,2.424.02,4.846.083,7.268q-.015,1.086-.03,2.172l-2.054-.691q0-6.85,0-13.7a1.988,1.988,0,0,0-.457-1.477h1.557a1.041,1.041,0,0,1,.59.218" transform="translate(-154.589 -39.777)" fill="#a7e446"/>
    <path id="Trazado_204057" data-name="Trazado 204057" d="M117.326,32.489a2.7,2.7,0,0,1,1.594-3.55.4.4,0,0,0,.273-.446c.014-.594.271-.915.722-.939s.75.286.783.872c.015.27.146.334.358.364a5.151,5.151,0,0,1,1.465.422.763.763,0,1,1-.569,1.41,3.36,3.36,0,0,0-1.186-.3,4.756,4.756,0,0,0-.079,1.7c0,.431-.118.591-.558.559a22.745,22.745,0,0,1-2.8-.088" transform="translate(-91.787 -21.588)" fill="#64892a"/>
    <path id="Trazado_204058" data-name="Trazado 204058" d="M216.172,93.238a.789.789,0,0,1-.8.866.8.8,0,0,1-.75-.866.775.775,0,1,1,1.547,0" transform="translate(-168.16 -72.401)" fill="#def6c4"/>
    <path id="Trazado_204059" data-name="Trazado 204059" d="M13.863,66.22a.851.851,0,1,1,.781-.844.786.786,0,0,1-.781.844" transform="translate(-10.261 -50.556)" fill="#def7c4"/>
    <path id="Trazado_204060" data-name="Trazado 204060" d="M216.181,14.632a.808.808,0,0,1-.744.875.793.793,0,0,1-.8-.819.82.82,0,0,1,.773-.9.789.789,0,0,1,.772.844" transform="translate(-168.168 -10.803)" fill="#def7c4"/>
    <path id="Trazado_204061" data-name="Trazado 204061" d="M13.879,144.694a.87.87,0,0,1,0-1.732.873.873,0,0,1,0,1.732" transform="translate(-10.262 -112.011)" fill="#def6c4"/>
    <path id="Trazado_204062" data-name="Trazado 204062" d="M190.374,65.385c0,.527-.293.842-.762.834a.771.771,0,0,1-.746-.864.76.76,0,0,1,.776-.833c.469.008.737.325.732.863" transform="translate(-147.977 -50.554)" fill="#dff7c4"/>
    <path id="Trazado_204063" data-name="Trazado 204063" d="M39.039,14.629a.772.772,0,0,1,.762-.848.788.788,0,0,1,.746.872.778.778,0,0,1-.774.841c-.46-.006-.737-.333-.734-.865" transform="translate(-30.587 -10.798)" fill="#dff7c4"/>
    <path id="Trazado_204064" data-name="Trazado 204064" d="M152.512,120.527l.809-.076a11.511,11.511,0,0,1,3.117,1.059,9.564,9.564,0,0,1,4.974,6.764,3.336,3.336,0,0,1,.032.393c.029.111-.039.129-.125.13-.27-.118-.282-.386-.351-.618a6.8,6.8,0,0,0-5.053-4.891,6.563,6.563,0,0,0-5.809,1.186A6.948,6.948,0,1,0,158.8,135.3a7.32,7.32,0,0,0,2.182-3.412c.069-.217.089-.462.336-.574.086,0,.156.015.127.128a8.933,8.933,0,0,1-1.95,4.573,9.585,9.585,0,0,1-5.506,3.438c-.224.051-.444.123-.665.186a9.677,9.677,0,0,1-8.485-7.537,15.682,15.682,0,0,1-.252-2.061.531.531,0,0,1-.2-.523,10.833,10.833,0,0,1,.315-1.988.91.91,0,0,1,.383-.546,9.88,9.88,0,0,1,4.1-5.148,10.686,10.686,0,0,1,3.334-1.311" transform="translate(-113.12 -94.374)" fill="#feca2e"/>
    <path id="Trazado_204065" data-name="Trazado 204065" d="M57.834,153.879A9,9,0,0,0,55.86,148.9a9.4,9.4,0,0,0-6.015-3.573.543.543,0,0,1-.134-.062A8.344,8.344,0,0,1,54,145.8c.448.154.875.372,1.311.561A6.272,6.272,0,0,1,58.568,149a.407.407,0,0,1,.057.418,14.339,14.339,0,0,1,1.392,3.052,1.224,1.224,0,0,1,.347.743,8.893,8.893,0,0,1-.024,3.184c-.011.052-.022.106-.031.159a8.6,8.6,0,0,1-1.624,3.893c-.027.069-.049.14-.078.208a9.706,9.706,0,0,1-3.51,2.984,1.13,1.13,0,0,1-.558.182c-.184-.149-.342-.01-.5.05a9.756,9.756,0,0,1-4.326.581c.7-.292,1.465-.357,2.161-.67a9.509,9.509,0,0,0,5.961-7.921,9.334,9.334,0,0,1,0-1.984" transform="translate(-38.948 -113.737)" fill="#cba124"/>
    <path id="Trazado_204066" data-name="Trazado 204066" d="M78.91,153.689a11.277,11.277,0,0,0-3.308-3.06q5.272-.007,10.544-.014,2.525,0,5.049.005a13.533,13.533,0,0,0-.495,3.058l-11.79.011" transform="translate(-59.235 -118.008)" fill="#a7e446"/>
    <path id="Trazado_204067" data-name="Trazado 204067" d="M72.015,218.859a.554.554,0,0,1,.338-.336,9.694,9.694,0,0,0,3.554-2.971,1.188,1.188,0,0,1,.714-.145c1.485,0,2.97,0,4.454,0a1.557,1.557,0,0,1,.276.021,1.4,1.4,0,0,1,1.034,1.588c-.024.344,0,.692-.005,1.039-.015.981-.189,1.2-1.123,1.449-2.721,0-5.442.014-8.163.008a1.128,1.128,0,0,1-1.079-.654" transform="translate(-56.424 -168.773)" fill="#feca2e"/>
    <path id="Trazado_204068" data-name="Trazado 204068" d="M97.41,182.695a9.985,9.985,0,0,0-.034-3.5c-.027-.16-.041-.323-.061-.485l6.816-.054a.814.814,0,0,1,.434.062c-.122.312-.4.231-.635.242-.251.013-.365.042-.237.339a4.544,4.544,0,0,1,.135,2.426c-.086.674-.658.956-1.229,1.189-.518.093-1.035-.128-1.553,0a28.922,28.922,0,0,0-2.989-.069c-.225-.006-.464.042-.647-.149" transform="translate(-76.247 -139.977)" fill="#feca2e"/>
    <path id="Trazado_204069" data-name="Trazado 204069" d="M114.166,197.082l1.606-.016c.169-.045.34-.123.5.02a1.517,1.517,0,0,1,.876,1.616,2.951,2.951,0,0,0,0,.641,1.586,1.586,0,0,1-.985,1.788c-.352.4-.806.223-1.223.194a2.465,2.465,0,0,1-.653-.177l-.224-.022a.181.181,0,0,1-.03-.144c.01-.031.016-.072.041-.087,1.179-.735.705-1.867.673-2.881-.012-.372-.471-.478-.619-.79a.186.186,0,0,1,.037-.143" transform="translate(-89.343 -154.354)" fill="#cba124"/>
    <path id="Trazado_204070" data-name="Trazado 204070" d="M114.819,216.086l1.876-.017a1.253,1.253,0,0,1,.979,1.256c.01.478.012.956,0,1.434a1.251,1.251,0,0,1-1.284,1.278c-.56.007-1.121-.008-1.681-.013a1.485,1.485,0,0,0,.894-1.643,4.271,4.271,0,0,1,0-.787,1.409,1.409,0,0,0-.782-1.508" transform="translate(-89.874 -169.291)" fill="#cba124"/>
    <path id="Trazado_204071" data-name="Trazado 204071" d="M122.575,182.942l-.5-.02a1.507,1.507,0,0,0,.98-1.649c-.017-.329,0-.659-.007-.989a2.09,2.09,0,0,0-.631-1.332h1.548a1.155,1.155,0,0,1,1.082,1.028,6.242,6.242,0,0,1,0,1.911,1.206,1.206,0,0,1-1.188,1.038c-.426.016-.853.01-1.279.013" transform="translate(-95.646 -140.209)" fill="#cba124"/>
    <path id="Trazado_204072" data-name="Trazado 204072" d="M222.146,158.5l.093-.1a6.97,6.97,0,0,1,0,2.78l-.094-.1a.4.4,0,0,1-.171-.427,13.652,13.652,0,0,0,0-1.728.393.393,0,0,1,.173-.426" transform="translate(-173.915 -124.106)" fill="#f3d963"/>
    <path id="Trazado_204073" data-name="Trazado 204073" d="M92.374,86.4a1.51,1.51,0,0,1,0-.2,1.717,1.717,0,0,0-1.03-2.081,2.016,2.016,0,0,1-.994-2.253A2.531,2.531,0,0,1,91.9,79.733c.333-.143.49-.282.485-.665a.722.722,0,0,1,.756-.8.735.735,0,0,1,.748.807c0,.3.107.388.387.424a4.975,4.975,0,0,1,1.376.39.79.79,0,0,1,.524,1.062.781.781,0,0,1-1.088.361,5.575,5.575,0,0,0-.9-.276c-.21-.042-.3,0-.294.236.012.727.009,1.453,0,2.18,0,.173.048.284.219.331a1.785,1.785,0,0,1,.187.064,2.782,2.782,0,0,1,2,2.66A3.134,3.134,0,0,1,94.334,89.5a.56.56,0,0,0-.439.636.771.771,0,0,1-.728.885.747.747,0,0,1-.781-.828c0-.343-.087-.493-.457-.535a3.32,3.32,0,0,1-1.486-.641.746.746,0,0,1-.271-1.035.769.769,0,0,1,1.078-.257c1.124.578,1.124.578,1.124-.677V86.4" transform="translate(-70.565 -61.327)" fill="#64892a"/>
    <path id="Trazado_204074" data-name="Trazado 204074" d="M53.411,104.2c.363,0,.728-.019,1.089,0a.753.753,0,0,1,.009,1.5q-1.089.035-2.179,0a.752.752,0,0,1-.008-1.5c.362-.023.726,0,1.089-.005" transform="translate(-40.42 -81.632)" fill="#64892a"/>
    <path id="Trazado_204075" data-name="Trazado 204075" d="M142.439,105.694c-.33,0-.66.011-.989,0a.749.749,0,0,1-.79-.768.713.713,0,0,1,.754-.744q1.063-.032,2.126,0a.711.711,0,0,1,.741.756.756.756,0,0,1-.754.756c-.033,0-.066,0-.1,0h-.989" transform="translate(-110.208 -81.612)" fill="#64892a"/>
    <path id="Trazado_204076" data-name="Trazado 204076" d="M34.865,164.6a7.177,7.177,0,0,1-7.113,6.353,7.2,7.2,0,1,1,7.116-7.955,2.933,2.933,0,0,1,0,1.6" transform="translate(-16.076 -122.661)" fill="#98791b"/>
    <path id="Trazado_204077" data-name="Trazado 204077" d="M86.787,187.211q0-.8,0-1.6l.094-.19a4.243,4.243,0,0,1,0,1.984l-.1-.192" transform="translate(-67.998 -145.277)" fill="#f1d062"/>
    <path id="Trazado_204078" data-name="Trazado 204078" d="M124.637,43.1c-.648-.32-.659-1.088,0-1.644Z" transform="translate(-97.27 -32.478)" fill="#d9f2c2"/>
    <path id="Trazado_204079" data-name="Trazado 204079" d="M171.11,137.343a8.346,8.346,0,0,1,0,2.581,7.2,7.2,0,0,1-14.191-.179,7.2,7.2,0,0,1,14.192-2.4" transform="translate(-122.879 -102.95)" fill="#98791b"/>
    <path id="Trazado_204080" data-name="Trazado 204080" d="M95.66,197.561a1.138,1.138,0,0,1,.888,1.206c.011.444.007.89,0,1.334a1.182,1.182,0,0,1-.994,1.331,23.927,23.927,0,0,1-2.7.039,16.977,16.977,0,0,1-2.454-.048,22.7,22.7,0,0,0,1.057-2.064,17.761,17.761,0,0,0,.535-1.8,27.781,27.781,0,0,1,3.669,0" transform="translate(-70.828 -154.743)" fill="#feca2e"/>
    <path id="Trazado_204081" data-name="Trazado 204081" d="M90.081,215.62l5.158.009c0,.028,0,.056-.008.084l-5.238.006.088-.1" transform="translate(-70.51 -168.939)" fill="#f4de85"/>
    <path id="Trazado_204082" data-name="Trazado 204082" d="M101.422,197.419h-3.67c0-.034,0-.067,0-.1l3.66.01c0,.03.007.06.01.09" transform="translate(-76.589 -154.6)" fill="#f6e36f"/>
    <path id="Trazado_204083" data-name="Trazado 204083" d="M107.81,111.079a1.189,1.189,0,0,1,.877,1.073,1.574,1.574,0,0,1-.877,1.527v-2.6Z" transform="translate(-84.47 -87.031)" fill="#def6c4"/>
    <path id="Trazado_204084" data-name="Trazado 204084" d="M98.842,91.774c0,.562,0,1.012,0,1.462,0,.094.021.23-.092.247-.074.011-.179-.068-.244-.134-.35-.352-.244-1.009.337-1.576" transform="translate(-77.022 -71.905)" fill="#cbe5bc"/>
    <path id="Trazado_204085" data-name="Trazado 204085" d="M27.683,169.356a5.654,5.654,0,1,1,11.309-.034,5.654,5.654,0,1,1-11.309.034" transform="translate(-21.69 -128.228)" fill="#feca2e"/>
    <path id="Trazado_204086" data-name="Trazado 204086" d="M169.526,138.688a5.655,5.655,0,0,1,5.694,5.645,5.714,5.714,0,0,1-5.7,5.657,5.623,5.623,0,0,1-5.649-5.6,5.564,5.564,0,0,1,5.66-5.7" transform="translate(-128.389 -108.661)" fill="#feca2e"/>
    <path id="Trazado_204087" data-name="Trazado 204087" d="M43.28,187.818c-.693,0-1.387.009-2.08,0-.544-.009-.818-.258-.826-.712-.008-.477.285-.77.826-.774q2.08-.014,4.16,0a.724.724,0,0,1,.8.753c0,.472-.26.723-.8.733-.693.012-1.387,0-2.08,0" transform="translate(-31.633 -145.984)" fill="#98791b"/>
    <path id="Trazado_204088" data-name="Trazado 204088" d="M179.475,161.157c.658,0,1.317-.006,1.975,0,.578.007.908.274.933.734a.8.8,0,0,1-.865.819c-.887.038-1.777.019-2.665.021-.461,0-.923.016-1.382-.012a.871.871,0,0,1-.916-.841c.018-.444.364-.715.945-.721.658-.007,1.317,0,1.975,0" transform="translate(-138.331 -126.266)" fill="#98791b"/>
  </g>
</svg>
