<svg xmlns="http://www.w3.org/2000/svg" xmlns:xlink="http://www.w3.org/1999/xlink" width="365.353" height="251.508" viewBox="0 0 365.353 251.508">
  <defs>
    <clipPath id="clip-path">
      <rect id="Rectángulo_88065" data-name="Rectángulo 88065" width="241.957" height="251.508" fill="none"/>
    </clipPath>
    <clipPath id="clip-path-2">
      <rect id="Rectángulo_88043" data-name="Rectángulo 88043" width="241.957" height="392.956" fill="none"/>
    </clipPath>
    <clipPath id="clip-path-4">
      <path id="Trazado_204725" data-name="Trazado 204725" d="M153.238,3.385c-1.159,0-2.079,1.3-2.079,2.9V6.98c0,3.76-2.046,3.775-4.6,3.775H101.2c-2.525,0-4.585-.015-4.585-3.775V6.288c0-1.607-.931-2.9-2.071-2.9H74.927c-5.491,0-9.935.589-9.935,12.671V33.6L42.922,20.751l-.04-.025v.006a2.908,2.908,0,0,0-.855-.291c-2.576-.452-5.51,2.616-8.079,7.86-.821-.828-1.657-1.638-2.491-2.44-1.039-.977-2.079-1.961-3.148-2.9s-2.151-1.889-3.27-2.778c.939,1.081,1.93,2.111,2.926,3.133s2.014,2.02,3.044,3.013c.885.842,1.78,1.683,2.692,2.493a52.857,52.857,0,0,0-2.3,5.761l-1.93-1.469c-1.911-1.457-3.853-2.869-5.789-4.279s-3.9-2.8-5.88-4.157-3.956-2.728-5.975-4.022c1.864,1.516,3.773,2.973,5.685,4.423s3.851,2.869,5.787,4.279,3.9,2.8,5.88,4.157l2.1,1.444a79.009,79.009,0,0,0-2.692,10.708c-1.343-.291-2.681-.568-4.022-.847-2.713-.564-5.438-1.068-8.158-1.607-2.728-.479-5.451-1-8.183-1.45l-4.106-.68c-1.366-.2-2.738-.42-4.113-.61,1.347.331,2.709.616,4.053.929l4.072.847c2.715.564,5.438,1.068,8.16,1.607,2.726.477,5.451.99,8.183,1.45,1.353.226,2.707.452,4.06.667l-.019.1a79.883,79.883,0,0,0-1.121,9.564l-2.753-.008c-2.369-.006-4.731.04-7.1.084s-4.725.116-7.089.232-4.733.222-7.1.4c2.369.084,4.737.089,7.1.089s4.733-.038,7.1-.076c2.364-.065,4.727-.122,7.091-.232l2.726-.137a60.421,60.421,0,0,0,.006,6.669c-1.319.188-2.628.414-3.942.635-1.588.283-3.173.564-4.746.9l-2.364.5c-.783.194-1.573.363-2.35.57.8-.065,1.6-.169,2.4-.253l2.4-.323c1.6-.22,3.186-.486,4.773-.758,1.294-.226,2.582-.46,3.87-.718.492,6.591,2.255,11.071,5.037,11.563a2.931,2.931,0,0,0,.9.019l.363-.063L64.992,69.1V225.878c0,5.93,4.444,10.729,9.935,10.729h97.922a9.176,9.176,0,0,0,3.652-.754,10.752,10.752,0,0,0,6.268-9.975V190.965c.213-.376.329-.635.329-.635a7.479,7.479,0,0,0,4.081,1.632c2.394.1,4.583-3.4,4.583-3.4a6.614,6.614,0,0,0,4.493-.828c2.272-1.465,3.393-8.711,3.353-12.789-.032-3.695-3.262-13.492-4.258-17v-.008q-.117-1.251-.331-2.77l1.393-.11s-6.325-30.928-9.758-39.289a39.346,39.346,0,0,0-3.885-6.747V16.056c0-11.065-4.442-12.671-9.92-12.671Z" transform="translate(0 -3.385)" fill="none"/>
    </clipPath>
    <clipPath id="clip-path-5">
      <rect id="Rectángulo_88060" data-name="Rectángulo 88060" width="11.509" height="10.324" fill="none"/>
    </clipPath>
    <clipPath id="clip-path-6">
      <rect id="Rectángulo_88062" data-name="Rectángulo 88062" width="16.637" height="48.297" fill="#85b638"/>
    </clipPath>
    <clipPath id="clip-path-7">
      <rect id="Rectángulo_88064" data-name="Rectángulo 88064" width="11.204" height="46.557" fill="none"/>
    </clipPath>
  </defs>
  <g id="Grupo_138601" data-name="Grupo 138601" transform="translate(-969.647 -4525.046)">
    <path id="Trazado_159963" data-name="Trazado 159963" d="M100.744,449.28C75.079,421.334,40,392.479,53.757,348.891c9.047-28.669,31.229-36.661,49.668-54.339,9.1-8.725,3.376-21.424,3.207-34.028-.386-32.278,35.636-57.324,68.753-56.8,35.871.566,51.4,36.63,81.489,38.564,11.816.181,22.4-6.753,32.85-12.261,30.976-16.321,80.128-5.913,82.612,33.558.641,21.316-23.62,55.611.688,66.822,19.373,8.935,38.944,12.227,42.435,44.185,4.57,41.83-19.588,64.787-51.068,75.553Z" transform="translate(918.984 4321.332)" fill="#f3f9ff"/>
    <g id="Grupo_137672" data-name="Grupo 137672" transform="translate(1033.789 4525.046)">
      <g id="Grupo_137690" data-name="Grupo 137690" clip-path="url(#clip-path)">
        <g id="Grupo_137673" data-name="Grupo 137673">
          <g id="Grupo_137672-2" data-name="Grupo 137672" clip-path="url(#clip-path-2)">
            <path id="Trazado_204621" data-name="Trazado 204621" d="M124.062,102.081A18.781,18.781,0,0,1,97.045,88.209a18.773,18.773,0,1,1,27.016,13.872" transform="translate(107.585 73.953)" fill="#ebebeb"/>
            <path id="Trazado_204622" data-name="Trazado 204622" d="M114.5,77.931a5.712,5.712,0,1,1-5.2-6.179,5.711,5.711,0,0,1,5.2,6.179" transform="translate(114.554 79.703)" fill="#fff"/>
            <path id="Trazado_204623" data-name="Trazado 204623" d="M120.277,87.911l-.2,2.348a18.761,18.761,0,0,1-19.665-1.7l.2-2.339a9.87,9.87,0,1,1,19.668,1.689" transform="translate(111.57 85.776)" fill="#fff"/>
            <path id="Trazado_204624" data-name="Trazado 204624" d="M3.061,68.631A20.618,20.618,0,1,1,27.984,83.77,20.619,20.619,0,0,1,3.061,68.631" transform="translate(2.742 47.907)" fill="#ebebeb"/>
            <path id="Trazado_204625" data-name="Trazado 204625" d="M11.945,68.381c-.545-.342-1.02-.84-1.75-.771-.281.027-.22-.2-.222-.357q0-4.123,0-8.238c0-.2.013-.365.23-.475,2.1-1.058,3.006-3.139,4.292-4.917a8.217,8.217,0,0,0,1.522-6.232c-.089-.619.2-.9.758-1.022a1.376,1.376,0,0,1,1.566.494,11.006,11.006,0,0,1,1.2,3.6,12.792,12.792,0,0,1-.382,3.087c-.1.756-.27,1.5-.414,2.263.184.135.4.065.6.068q3.48.006,6.96,0c.977,0,1.457.281,1.592.931a1.861,1.861,0,0,1-1.009,2.012c-.173.087-.488.008-.509.279s.3.249.462.361c.84.576.684,1.765-.287,2.451-.234.165-.688.089-.7.431-.006.274.418.27.61.464a1.57,1.57,0,0,1-.671,2.426,3.017,3.017,0,0,0-.407.156c-.116.078-.228.165-.006.323a1.368,1.368,0,0,1-.027,2.447c-.1.072-.2.144-.3.215a1.962,1.962,0,0,1-1.222.268q-5.456.013-10.915,0a1.3,1.3,0,0,1-.958-.266" transform="translate(11.077 51.467)" fill="#fff" fill-rule="evenodd"/>
            <path id="Trazado_204626" data-name="Trazado 204626" d="M6.011,57.506c0-1.744.008-3.492-.006-5.236,0-.355.034-.528.469-.524q3.2.038,6.384,0c.418,0,.483.139.479.511q-.016,5.266,0,10.535c0,.445-.12.572-.568.566-2.065-.023-4.129-.03-6.192,0-.515.006-.585-.173-.581-.623.027-1.744.011-3.49.011-5.236" transform="translate(6.667 57.499)" fill="#fff" fill-rule="evenodd"/>
          </g>
        </g>
        <g id="Grupo_137675" data-name="Grupo 137675">
          <g id="Grupo_137674" data-name="Grupo 137674" clip-path="url(#clip-path-2)">
            <path id="Trazado_204627" data-name="Trazado 204627" d="M148.038,0H38.583A11.174,11.174,0,0,0,27.512,11.28V236.606a11.184,11.184,0,0,0,11.071,11.28H148.038a11.192,11.192,0,0,0,11.086-11.28V11.28A11.183,11.183,0,0,0,148.038,0M152.2,229.639c0,5.93-4.442,10.729-9.92,10.729H44.359c-5.491,0-9.933-4.8-9.933-10.729V19.82c0-12.082,4.442-12.671,9.933-12.671H63.97c1.14,0,2.073,1.294,2.073,2.9v.692c0,3.762,2.058,3.775,4.59,3.775h45.362c2.55,0,4.59-.013,4.59-3.775v-.692c0-1.607.92-2.9,2.079-2.9h19.617c5.478,0,9.92,1.607,9.92,12.671Z" transform="translate(30.57)" fill="#263238"/>
            <path id="Trazado_204628" data-name="Trazado 204628" d="M68.527,5.454H56.153a.764.764,0,1,1,0-1.528H68.527a.764.764,0,0,1,0,1.528" transform="translate(61.546 4.362)" fill="#fff"/>
            <path id="Trazado_204629" data-name="Trazado 204629" d="M148.562,16.057V225.876c0,5.93-4.442,10.729-9.92,10.729H40.72c-5.491,0-9.933-4.8-9.933-10.729V16.057c0-12.082,4.442-12.671,9.933-12.671H60.331c1.14,0,2.073,1.294,2.073,2.9v.692c0,3.762,2.058,3.775,4.59,3.775h45.362c2.55,0,4.59-.013,4.59-3.775V6.287c0-1.607.92-2.9,2.079-2.9h19.617c5.478,0,9.92,1.607,9.92,12.671" transform="translate(34.209 3.762)" fill="#fff"/>
            <path id="Trazado_204630" data-name="Trazado 204630" d="M148.561,16.057V31.713H30.786V16.057c0-12.082,4.442-12.671,9.933-12.671H60.336c1.14,0,2.073,1.294,2.073,2.9v.692c0,3.762,2.058,3.775,4.583,3.775h45.362c2.55,0,4.6-.013,4.6-3.775V6.287c0-1.607.92-2.9,2.079-2.9h19.613c5.476,0,9.918,1.607,9.918,12.671" transform="translate(34.208 3.762)" fill="#a7e446"/>
            <path id="Trazado_204631" data-name="Trazado 204631" d="M37.9,16.614l-3.479-3.26,3.479-3.26.54.574-2.865,2.685,2.865,2.685Z" transform="translate(38.251 11.217)" fill="#fff"/>
            <path id="Trazado_204632" data-name="Trazado 204632" d="M84.02,16.962H81.691v-.806a.191.191,0,0,0-.11-.173c-.089-.046-.175-.1-.26-.15a.2.2,0,0,0-.2-.011l-.7.4-1.163-2.016.7-.4a.2.2,0,0,0,.093-.182c0-.049,0-.1,0-.15s0-.1,0-.15a.2.2,0,0,0-.093-.182l-.7-.4,1.163-2.016.7.4a.194.194,0,0,0,.2-.008c.084-.055.173-.106.262-.152a.194.194,0,0,0,.11-.175v-.8H84.02v.8a.194.194,0,0,0,.11.175c.089.046.177.1.262.152a.194.194,0,0,0,.2.008l.7-.4,1.163,2.016-.7.4a.2.2,0,0,0-.1.184c0,.049,0,.1,0,.148s0,.1,0,.146a.193.193,0,0,0,.091.184l.7.407L85.3,16.225l-.7-.4a.2.2,0,0,0-.2.008q-.127.082-.26.152a.191.191,0,0,0-.11.173Zm-1.843-.486h1.357v-.321a.681.681,0,0,1,.374-.606c.074-.038.146-.08.215-.125a.68.68,0,0,1,.714-.025l.279.163.68-1.174-.283-.163a.68.68,0,0,1-.334-.629l0-.122,0-.127a.669.669,0,0,1,.336-.625l.279-.163-.678-1.174-.277.16a.679.679,0,0,1-.714-.023c-.07-.044-.141-.087-.215-.125a.675.675,0,0,1-.376-.608v-.319H82.177v.319a.675.675,0,0,1-.376.608c-.074.038-.146.08-.215.125a.679.679,0,0,1-.714.023l-.277-.16-.678,1.176.279.16a.679.679,0,0,1,.336.629,1.208,1.208,0,0,0,0,.122c0,.042,0,.082,0,.122a.674.674,0,0,1-.334.629l-.279.163.678,1.174.279-.163a.68.68,0,0,1,.714.025,2.126,2.126,0,0,0,.215.125.681.681,0,0,1,.374.606Zm.678-1.25a1.752,1.752,0,1,1,1.752-1.752,1.753,1.753,0,0,1-1.752,1.752m0-3.021a1.267,1.267,0,1,0,1.267,1.269,1.269,1.269,0,0,0-1.267-1.269" transform="translate(88.062 11.097)" fill="#fff"/>
            <path id="Trazado_204633" data-name="Trazado 204633" d="M45.414,6.082l-.19.188-.108.108a2.576,2.576,0,0,0-3.652,0c-.034-.034-.068-.072-.1-.106-.061-.063-.125-.127-.186-.188l-.006,0v0l.013-.013c.08-.07.158-.144.241-.211a2.95,2.95,0,0,1,1.288-.6c.122-.023.245-.034.367-.049.042-.006.315-.006.321-.006.084.006.169.011.251.019a2.822,2.822,0,0,1,.673.16,2.989,2.989,0,0,1,.456.213,2.83,2.83,0,0,1,.435.306c.07.057.133.118.2.179Z" transform="translate(45.744 5.778)" fill="#fff"/>
            <path id="Trazado_204634" data-name="Trazado 204634" d="M41.75,6.53l-.3-.3a2.161,2.161,0,0,1,3.051,0l-.3.3a1.733,1.733,0,0,0-2.451,0" transform="translate(46.057 6.222)" fill="#fff"/>
            <path id="Trazado_204635" data-name="Trazado 204635" d="M43.585,6.385l-.3.3a.887.887,0,0,0-1.256,0l-.3-.3a1.3,1.3,0,0,1,1.851,0" transform="translate(46.373 6.666)" fill="#fff"/>
            <path id="Trazado_204636" data-name="Trazado 204636" d="M42.583,6.592a.269.269,0,1,1-.268-.268.27.27,0,0,1,.268.268" transform="translate(46.719 7.027)" fill="#fff"/>
            <path id="Trazado_204637" data-name="Trazado 204637" d="M34.425,6.3a.78.78,0,1,1,.781.781.782.782,0,0,1-.781-.781" transform="translate(38.252 6.132)" fill="#fff"/>
            <path id="Trazado_204638" data-name="Trazado 204638" d="M35.589,6.3a.78.78,0,1,1,.781.781.782.782,0,0,1-.781-.781" transform="translate(39.545 6.132)" fill="#fff"/>
            <path id="Trazado_204639" data-name="Trazado 204639" d="M36.754,6.3a.78.78,0,1,1,.781.781.782.782,0,0,1-.781-.781" transform="translate(40.839 6.132)" fill="#fff"/>
            <path id="Trazado_204640" data-name="Trazado 204640" d="M37.918,6.3a.78.78,0,1,1,.781.781.782.782,0,0,1-.781-.781" transform="translate(42.133 6.132)" fill="#fff"/>
            <path id="Trazado_204641" data-name="Trazado 204641" d="M39.083,6.3a.78.78,0,1,1,.781.781.782.782,0,0,1-.781-.781" transform="translate(43.427 6.132)" fill="#fff"/>
            <path id="Trazado_204642" data-name="Trazado 204642" d="M85.734,8.245H79.379V5.3h6.355ZM79.7,7.922h5.706V5.627H79.7Z" transform="translate(88.202 5.891)" fill="#fff"/>
            <rect id="Rectángulo_88044" data-name="Rectángulo 88044" width="4.096" height="1.944" transform="translate(168.109 11.694)" fill="#fff"/>
            <rect id="Rectángulo_88045" data-name="Rectángulo 88045" width="0.566" height="1.575" transform="translate(173.938 11.877)" fill="#fff"/>
            <path id="Trazado_204643" data-name="Trazado 204643" d="M43.527,109.982h-.9v4.113H40.958V112H38v2.1H36.322v-4.113h-.9l4.051-4.184Z" transform="translate(39.365 117.558)" fill="#ebebeb"/>
            <rect id="Rectángulo_88046" data-name="Rectángulo 88046" width="9.762" height="1.395" transform="translate(163.222 223.354)" fill="#ebebeb"/>
            <rect id="Rectángulo_88047" data-name="Rectángulo 88047" width="9.762" height="1.395" transform="translate(163.222 226.806)" fill="#ebebeb"/>
            <rect id="Rectángulo_88048" data-name="Rectángulo 88048" width="9.762" height="1.395" transform="translate(163.222 230.257)" fill="#ebebeb"/>
            <path id="Trazado_204644" data-name="Trazado 204644" d="M44.451,32.961a6.574,6.574,0,0,1-9.838-4.028,6.572,6.572,0,1,1,9.838,4.028" transform="translate(38.251 23.111)" fill="#dbdbdb"/>
            <path id="Trazado_204645" data-name="Trazado 204645" d="M40.589,24.609a2,2,0,1,1-2-2,2,2,0,0,1,2,2" transform="translate(40.657 25.123)" fill="#fff"/>
            <path id="Trazado_204646" data-name="Trazado 204646" d="M42.811,27.988v.825a6.442,6.442,0,0,1-1.9.792,6.523,6.523,0,0,1-5.014-.8v-.821a3.455,3.455,0,1,1,6.91,0" transform="translate(39.892 27.259)" fill="#fff"/>
            <rect id="Rectángulo_88049" data-name="Rectángulo 88049" width="41.771" height="3.445" transform="translate(94.056 44.288)" fill="#ebebeb"/>
            <rect id="Rectángulo_88050" data-name="Rectángulo 88050" width="36.46" height="2.282" transform="translate(94.056 50.03)" fill="#ebebeb"/>
            <rect id="Rectángulo_88051" data-name="Rectángulo 88051" width="60.286" height="2.282" transform="translate(94.058 54.423)" fill="#ebebeb"/>
            <rect id="Rectángulo_88052" data-name="Rectángulo 88052" width="117.756" height="82.462" transform="translate(64.996 62.499)" fill="#ebebeb"/>
            <path id="Trazado_204647" data-name="Trazado 204647" d="M37.306,45.842a9.756,9.756,0,1,0,9.756-9.756,9.756,9.756,0,0,0-9.756,9.756" transform="translate(41.453 40.097)" fill="#dbdbdb"/>
            <path id="Trazado_204648" data-name="Trazado 204648" d="M55.554,83.525h65.484L88.3,39.144Z" transform="translate(61.73 43.495)" fill="#c7c7c7"/>
            <path id="Trazado_204649" data-name="Trazado 204649" d="M43.4,75.478H97.46l-27.033-28.9Z" transform="translate(48.219 51.756)" fill="#dbdbdb"/>
            <rect id="Rectángulo_88053" data-name="Rectángulo 88053" width="117.756" height="17.767" transform="translate(64.996 127.193)" fill="#dbdbdb"/>
            <path id="Trazado_204650" data-name="Trazado 204650" d="M44.451,95.661a6.574,6.574,0,0,1-9.838-4.028,6.572,6.572,0,1,1,9.838,4.028" transform="translate(38.251 92.781)" fill="#dbdbdb"/>
            <path id="Trazado_204651" data-name="Trazado 204651" d="M40.589,87.309a2,2,0,1,1-2-2,2,2,0,0,1,2,2" transform="translate(40.657 94.793)" fill="#fff"/>
            <path id="Trazado_204652" data-name="Trazado 204652" d="M42.811,90.689v.825a6.442,6.442,0,0,1-1.9.792,6.523,6.523,0,0,1-5.014-.8v-.821a3.455,3.455,0,1,1,6.91,0" transform="translate(39.892 96.929)" fill="#fff"/>
            <rect id="Rectángulo_88054" data-name="Rectángulo 88054" width="53.72" height="3.445" transform="translate(94.056 176.657)" fill="#ebebeb"/>
            <rect id="Rectángulo_88055" data-name="Rectángulo 88055" width="68.577" height="2.282" transform="translate(94.056 182.402)" fill="#ebebeb"/>
            <rect id="Rectángulo_88056" data-name="Rectángulo 88056" width="23.362" height="2.282" transform="translate(94.056 186.793)" fill="#ebebeb"/>
            <rect id="Rectángulo_88057" data-name="Rectángulo 88057" width="117.756" height="20.143" transform="translate(64.996 194.868)" fill="#ebebeb"/>
            <path id="Trazado_204653" data-name="Trazado 204653" d="M55.94,105.243H37.577a9.757,9.757,0,0,1,18.363,0" transform="translate(41.754 109.768)" fill="#dbdbdb"/>
            <path id="Trazado_204654" data-name="Trazado 204654" d="M34.594,75.78a3.9,3.9,0,1,1,4.712,2.863,3.9,3.9,0,0,1-4.712-2.863" transform="translate(38.315 78.843)" fill="#ebebeb"/>
            <path id="Trazado_204655" data-name="Trazado 204655" d="M36.274,75.733c-.1-.065-.192-.158-.331-.146-.053,0-.04-.038-.04-.068q0-.779,0-1.558c0-.038,0-.068.044-.089a2.53,2.53,0,0,0,.811-.929,1.554,1.554,0,0,0,.287-1.178c-.017-.118.038-.171.144-.194a.258.258,0,0,1,.3.093,2.114,2.114,0,0,1,.228.682,2.383,2.383,0,0,1-.074.583c-.017.141-.051.283-.078.429.036.023.076.011.114.013h1.315c.184,0,.274.053.3.175a.351.351,0,0,1-.19.38c-.032.017-.093,0-.1.053s.057.046.087.068c.158.11.129.334-.055.464-.044.032-.129.017-.131.082s.078.051.114.087a.3.3,0,0,1-.127.458.636.636,0,0,0-.076.03c-.023.015-.044.032,0,.061a.259.259,0,0,1,0,.462l-.057.042a.374.374,0,0,1-.232.051H36.455a.243.243,0,0,1-.182-.051" transform="translate(39.89 79.517)" fill="#fff" fill-rule="evenodd"/>
            <path id="Trazado_204656" data-name="Trazado 204656" d="M35.151,73.677c0-.329,0-.661,0-.99,0-.068.006-.1.089-.1.4.006.8.006,1.208,0,.078,0,.091.027.091.1q0,1,0,1.991c0,.084-.021.11-.108.108-.388,0-.779,0-1.17,0-.1,0-.11-.034-.11-.118,0-.329,0-.661,0-.99" transform="translate(39.056 80.657)" fill="#fff" fill-rule="evenodd"/>
            <path id="Trazado_204657" data-name="Trazado 204657" d="M38.472,75.78a3.9,3.9,0,1,1,4.712,2.863,3.9,3.9,0,0,1-4.712-2.863" transform="translate(42.624 78.843)" fill="#a7e446"/>
            <path id="Trazado_204658" data-name="Trazado 204658" d="M43.368,74.262a4.983,4.983,0,0,1-1.991,1.892,4.983,4.983,0,0,1-1.989-1.892,1.575,1.575,0,0,1,.6-2.295c1.11-.336,1.393,1.6,1.393,1.6s.285-1.932,1.4-1.6a1.575,1.575,0,0,1,.6,2.295" transform="translate(43.504 79.924)" fill="#fff"/>
            <rect id="Rectángulo_88058" data-name="Rectángulo 88058" width="55.323" height="2.253" transform="translate(94.704 153.19)" fill="#ebebeb"/>
            <path id="Trazado_204659" data-name="Trazado 204659" d="M30.787,79.055l14.719-.118,14.719-.042,29.44-.082,29.438.082,14.721.042,14.719.118-14.719.118-14.721.042L89.665,79.3l-29.44-.082-14.719-.042Z" transform="translate(34.209 87.573)" fill="#ebebeb"/>
          </g>
        </g>
        <g id="Grupo_137689" data-name="Grupo 137689" transform="translate(0 7.146)">
          <g id="Grupo_137688" data-name="Grupo 137688" clip-path="url(#clip-path-4)">
            <path id="Trazado_204660" data-name="Trazado 204660" d="M44.918,294.263H91.254s-9.329-108.222-8.966-110.112c.462-2.419,3.2-13.374,6.84-27.686,1.142-4.476,2.373-9.279,3.652-14.259,3.454-13.463,7.262-28.178,10.579-40.984,4.98-19.18,8.869-34.08,8.869-34.08H72.959s-4.577,14.508-10.345,33.384c-9.4,30.677-21.958,72.9-23.2,83.163-2.008,16.575,5.5,110.574,5.5,110.574" transform="translate(43.419 67.46)" fill="#455a64"/>
            <path id="Trazado_204661" data-name="Trazado 204661" d="M56.008,172.363c1.518-6.7,3.787-13.262,5.766-19.836q6.023-20.039,12.12-40.055,3.04-10.01,6.11-20.012c1.037-3.367,2.071-6.735,3.127-10.093,1.03-3.289,2.2-6.549,3.135-9.868.378-1.349.585-.608.1,1.106-.977,3.456-1.942,6.916-2.949,10.362q-2.993,10.241-6.025,20.472Q71.364,124.8,65.234,145.133q-3.059,10.2-6.131,20.39a83.318,83.318,0,0,0-2.506,9.863,45.5,45.5,0,0,0-.41,10.554c.443,7.089,1.265,14.168,1.921,21.24l1.968,21.261q1.957,21.16,3.882,42.318c.16,1.788.319,3.576.454,5.367.046.6-.859.553-.923-.023-1.526-13.946-2.7-27.939-4-41.909q-1.957-20.85-3.908-41.7c-.325-3.49-.695-6.986-.7-10.495a43.062,43.062,0,0,1,1.127-9.637" transform="translate(60.981 72.637)" fill="#263238"/>
            <path id="Trazado_204662" data-name="Trazado 204662" d="M57.237,67.143c2.726,21.09,7.923,60.637,11.713,89.325,8.856-34.762,23.1-89.325,23.1-89.325Z" transform="translate(63.599 67.46)" fill="#263238"/>
            <path id="Trazado_204663" data-name="Trazado 204663" d="M55.726,67.143s.906,18.787,5.206,33.669c.344,1.231.718,2.441,1.123,3.6a69.969,69.969,0,0,1,11.318,5.818s.452,15.116.906,31.976c.5,18.848,1.022,39.869.914,44.328-.393,16.682,2.088,108.41,2.088,108.41l46.325.186S115.231,192.7,115.29,186.584c.089-9.821-2.244-53.235-4.045-84.9-1.1-19.507-2.008-34.545-2.008-34.545Z" transform="translate(61.92 67.46)" fill="#455a64"/>
            <path id="Trazado_204664" data-name="Trazado 204664" d="M79.4,70.409c.853,25.847,1.756,51.694,2.911,77.528,1.161,25.923,2.723,51.837,4.894,77.7,1.212,14.447,2.354,34.771,3.912,49.184.011.1-.137.133-.15.034-3.374-25.638-5.253-57.341-6.912-83.142s-2.783-51.637-3.663-77.471c-.5-14.613-.878-29.231-1.315-43.847-.006-.209.317-.19.323.017" transform="translate(87.866 70.906)" fill="#263238"/>
            <path id="Trazado_204665" data-name="Trazado 204665" d="M58.039,84.28a86.021,86.021,0,0,1,13.243,6.937.153.153,0,0,1-.139.272c-4.467-2.172-9.031-4.262-13.374-6.678a.3.3,0,0,1,.27-.532" transform="translate(64.011 86.474)" fill="#263238"/>
            <path id="Trazado_204666" data-name="Trazado 204666" d="M56.607,74.463c.369,1.987.851,3.952,1.279,5.926.4,1.852.7,3.743,1.189,5.573a9.5,9.5,0,0,0,2.595,4.672c.728.673,1.528,1.273,2.3,1.892.418.334.868.652,1.3.99-.057-.262-.1-.528-.15-.8q-.2-1.131-.386-2.261-.421-2.508-.8-5.025c-.5-3.3-.967-6.627-1.655-9.889a.106.106,0,0,1,.2-.051c.821,3.232,1.729,6.431,2.443,9.69.35,1.6,1.6,9.5,1.657,10.053.059.578.106,1.157.127,1.735a6.927,6.927,0,0,1,0,1.773c-.034.144-.207.12-.268.023l-.008.006a6.988,6.988,0,0,1-.5-1.716c-.146-.564-.272-1.136-.374-1.708-.036-.207-.065-.418-.1-.629-.777-.473-1.5-1.1-2.227-1.623-.785-.568-1.583-1.121-2.324-1.744a8.916,8.916,0,0,1-2.835-4.431,32.208,32.208,0,0,1-.929-5.675c-.251-2.242-.435-4.5-.747-6.735-.019-.131.179-.186.2-.051" transform="translate(62.671 75.507)" fill="#263238"/>
            <path id="Trazado_204667" data-name="Trazado 204667" d="M84.016,48.453C81.36,69.611,76.722,105.1,69.221,107.971c-1.3.5-6.825,1.592-10.6-2.658-6.367-7.169-17.373-31.325-20.449-39.1-1.364-3.445,21.1-14.689,23.024-11.225,2.694,4.849,5.523,12.152,6.059,11.909.9-.405,2.424-9.416,8.424-22.066,7.457-15.718,9.325-4.248,8.339,3.619" transform="translate(42.347 33.958)" fill="#ad6359"/>
            <path id="Trazado_204668" data-name="Trazado 204668" d="M35.188,58.86C37.4,63.61,45.723,71.556,48.469,72.7s16.725-12.557,16.37-15.589S55.8,38.664,51,36.289,32.9,53.939,35.188,58.86" transform="translate(38.808 32.961)" fill="#ad6359"/>
            <path id="Trazado_204669" data-name="Trazado 204669" d="M53.584,58.082A43.46,43.46,0,0,1,54.74,45.5c1.36-4.862,3.927-11.93,1.341-12.758-5.314-1.7-11.713,15.924-11.713,15.924s-1.575,8.229,3.54,10.383a5.51,5.51,0,0,0,5.675-.965" transform="translate(49.046 29.104)" fill="#ad6359"/>
            <path id="Trazado_204670" data-name="Trazado 204670" d="M46.02,60.091,38.139,58.7l4.022-22.824,9.975,1.759Z" transform="translate(42.379 32.72)" fill="#ffc727"/>
            <path id="Trazado_204671" data-name="Trazado 204671" d="M52.135,37.636,49.8,46.2,46.019,60.095l-7.881-1.389L42.16,35.878Z" transform="translate(42.377 32.719)" fill="#a7e446"/>
            <g id="Grupo_137678" data-name="Grupo 137678" transform="translate(83.004 68.598)" opacity="0.1">
              <g id="Grupo_137677" data-name="Grupo 137677">
                <g id="Grupo_137676" data-name="Grupo 137676" clip-path="url(#clip-path-5)">
                  <path id="Trazado_204672" data-name="Trazado 204672" d="M50.825,37.636,48.494,46.2l-9.177-1.619,1.533-8.706Z" transform="translate(-39.316 -35.878)"/>
                </g>
              </g>
            </g>
            <rect id="Rectángulo_88061" data-name="Rectángulo 88061" width="9.572" height="12.601" transform="translate(82.439 71.702) rotate(-80.004)" fill="#a7e446"/>
            <path id="Trazado_204673" data-name="Trazado 204673" d="M55.1,41.4l-9.808-.737,2.688-15.253,9.471,2.662Z" transform="translate(50.326 21.085)" fill="#a7e446"/>
            <path id="Trazado_204674" data-name="Trazado 204674" d="M76.326,36.856,72.359,59.367l-16.518-.914L15.8,65.66l9.53-54.06L60.492,32.068Z" transform="translate(17.553 5.743)" fill="#a7e446"/>
            <path id="Trazado_204675" data-name="Trazado 204675" d="M31.613,40.191c-2.645,15-8.7,26.476-13.52,25.625s-6.587-13.7-3.944-28.7,8.7-26.476,13.52-25.625,6.589,13.7,3.944,28.7" transform="translate(14.358 5.569)" fill="#64892a"/>
            <g id="Grupo_137681" data-name="Grupo 137681" transform="translate(28.551 19.524)">
              <g id="Grupo_137680" data-name="Grupo 137680">
                <g id="Grupo_137679" data-name="Grupo 137679" clip-path="url(#clip-path-6)">
                  <path id="Trazado_204676" data-name="Trazado 204676" d="M28.991,38.043C26.643,51.362,21.54,61.595,17.59,60.9s-5.244-12.057-2.9-25.376,7.45-23.55,11.4-22.855,5.246,12.057,2.9,25.376" transform="translate(-13.524 -12.633)" fill="#85b638"/>
                </g>
              </g>
            </g>
            <path id="Trazado_204677" data-name="Trazado 204677" d="M25.151,28.617c-.312,1.773-.676,3.49-1.079,5.134a5.477,5.477,0,0,1-8.056-5.74l.45-2.55a5.472,5.472,0,0,1,9.5-2.675c-.186,1.881-.458,3.836-.811,5.831" transform="translate(17.703 16.112)" fill="#64892a"/>
            <path id="Trazado_204678" data-name="Trazado 204678" d="M56.6,51.82,37.632,50.4l5.2-29.5,18.312,5.149Z" transform="translate(41.815 16.075)" fill="#85b638"/>
            <g id="Grupo_137687" data-name="Grupo 137687" transform="translate(35.962 21.492)" opacity="0.2">
              <g id="Grupo_137686" data-name="Grupo 137686">
                <g id="Grupo_137685" data-name="Grupo 137685" clip-path="url(#clip-path-7)">
                  <path id="Trazado_204680" data-name="Trazado 204680" d="M25.83,13.565a17.258,17.258,0,0,1,1.915,5.867,39.185,39.185,0,0,1,.483,6.188c.03,1.037-.036,2.069-.065,3.106-.082,1.03-.139,2.065-.249,3.093-.129,1.026-.22,2.058-.376,3.08s-.3,2.046-.483,3.063a68.175,68.175,0,0,1-3.217,11.974,35.218,35.218,0,0,1-2.694,5.592,14.686,14.686,0,0,1-4.108,4.594A15.215,15.215,0,0,0,20.9,55.381a35.408,35.408,0,0,0,2.516-5.605,72.18,72.18,0,0,0,3.057-11.92,73.616,73.616,0,0,0,1.3-12.238,39.276,39.276,0,0,0-.317-6.141,17.871,17.871,0,0,0-1.628-5.911" transform="translate(-17.033 -13.565)"/>
                </g>
              </g>
            </g>
            <path id="Trazado_204681" data-name="Trazado 204681" d="M11.859,11.341c1.125.889,2.2,1.83,3.268,2.776s2.113,1.921,3.152,2.9,2.054,1.98,3.046,3.008l1.486,1.545c.479.528.973,1.047,1.44,1.59-.568-.437-1.106-.91-1.659-1.362l-1.611-1.414c-1.075-.942-2.113-1.921-3.15-2.9s-2.054-1.984-3.046-3.013-1.987-2.052-2.926-3.135" transform="translate(13.177 5.455)" fill="#263238"/>
            <path id="Trazado_204682" data-name="Trazado 204682" d="M25.648,31.129c-1.562.407-3.137.743-4.714,1.07s-3.16.616-4.746.9-3.173.534-4.769.752l-2.394.325c-.8.084-1.6.19-2.407.255.781-.209,1.569-.378,2.352-.568l2.362-.5c1.577-.334,3.16-.616,4.746-.9,1.588-.266,3.173-.534,4.769-.752s3.192-.437,4.8-.581" transform="translate(7.354 27.443)" fill="#263238"/>
            <path id="Trazado_204683" data-name="Trazado 204683" d="M1.587,28.852c2.362-.186,4.727-.3,7.091-.405s4.729-.173,7.1-.234c2.364-.044,4.731-.089,7.1-.084l3.551.013c1.182.027,2.367.032,3.551.08-1.18.1-2.362.156-3.545.236l-3.547.169c-2.364.112-4.729.173-7.1.232s-4.731.091-7.1.084-4.733-.011-7.1-.091" transform="translate(1.763 24.108)" fill="#263238"/>
            <path id="Trazado_204684" data-name="Trazado 204684" d="M5.6,11.565c2.022,1.3,4,2.654,5.977,4.02s3.929,2.759,5.877,4.159,3.878,2.825,5.789,4.279l2.863,2.183c.942.747,1.894,1.476,2.823,2.24-1.013-.644-2.006-1.322-3.008-1.982l-2.968-2.037c-1.98-1.357-3.929-2.757-5.877-4.159S13.2,17.44,11.287,15.986s-3.821-2.9-5.687-4.421" transform="translate(6.222 5.704)" fill="#263238"/>
            <path id="Trazado_204685" data-name="Trazado 204685" d="M32.685,27.066c-2.749-.378-5.483-.825-8.217-1.284s-5.457-.971-8.185-1.455c-2.719-.534-5.445-1.041-8.158-1.6l-4.07-.853C2.7,21.566,1.347,21.281,0,20.954c1.374.184,2.742.407,4.115.608l4.1.676c2.734.458,5.457.971,8.185,1.455,2.719.536,5.443,1.041,8.158,1.6s5.426,1.132,8.126,1.771" transform="translate(0 16.137)" fill="#263238"/>
            <path id="Trazado_204686" data-name="Trazado 204686" d="M59.153,44.545c-.3,2.759-3.38.828-3.38.828s3.764,3.851,2.354,6.578c-1.366,2.622-5.006.156-5.269-.017.2.2,3.566,3.836,1.866,6.428-1.767,2.694-5-.41-5.2-.61.127.253,1.729,3.621-.011,5.3-2.989,2.88-7.324-5.618-10.56-6.519,0,0-2.155,5.312-2.25,5.453,0,0-4.29-8-2.829-12.3a2.9,2.9,0,0,1,3.034-2s-1.668-2.426-.395-4.509c.657-1.068,2.949-.969,2.949-.969a3.633,3.633,0,0,1-.008-3.783c.992-1.425,3.137-1.1,3.137-1.1s-.315-2.479,1.172-3.606c2.994-2.282,16.032,4.917,15.395,10.828" transform="translate(37.297 29.837)" fill="#ad6359"/>
            <path id="Trazado_204687" data-name="Trazado 204687" d="M38.017,35.236c-.044-.021-.025-.089.023-.074a25.851,25.851,0,0,1,12.992,8.21c.1.131-.061.357-.2.236a52.866,52.866,0,0,0-12.813-8.373" transform="translate(42.215 31.922)" fill="#263238"/>
            <path id="Trazado_204688" data-name="Trazado 204688" d="M36.346,37.533c-.053-.023-.015-.112.046-.095a24.2,24.2,0,0,1,13.615,9.838c.108.171.032.433-.106.245-2.337-3.154-9.158-8.029-13.556-9.988" transform="translate(40.358 34.451)" fill="#263238"/>
            <path id="Trazado_204689" data-name="Trazado 204689" d="M47.767,50.627c-3.19-4.661-7.554-7.83-12.5-10.442-.065-.034-.011-.122.053-.108,2.768.616,5.751,2.609,7.94,4.357a14.9,14.9,0,0,1,4.674,6.08c.04.1-.1.211-.163.112" transform="translate(39.149 37.385)" fill="#263238"/>
            <path id="Trazado_204690" data-name="Trazado 204690" d="M53.035,39.007c.122.156-.243.167-.122.327.509.671,3.2,4.97,2.029,6.342-.95,1.1-3.084.589-3.825.072l-1.868-1.3,1.3,1.873a9.3,9.3,0,0,1,1.324,2.713,3.321,3.321,0,0,1-.2,2.715,1.9,1.9,0,0,1-2.221.9,5.775,5.775,0,0,1-2.428-1.556l-1.9-1.915,1.163,2.419a8.752,8.752,0,0,1,.707,2.12,3.615,3.615,0,0,1-.125,2.077A1.711,1.711,0,0,1,45.4,56.84a3.787,3.787,0,0,1-1.98-.76,29.641,29.641,0,0,1-3.538-3.059c-.574-.54-1.151-1.087-1.752-1.6a5.613,5.613,0,0,0-2.012-1.248,6.092,6.092,0,0,1,1.864,1.408c.555.555,1.085,1.138,1.615,1.723a25.287,25.287,0,0,0,3.45,3.312,4.413,4.413,0,0,0,2.345.988,2.434,2.434,0,0,0,2.229-1.465,4.367,4.367,0,0,0,.222-2.573,9.642,9.642,0,0,0-.752-2.373l-.737.507a6.632,6.632,0,0,0,2.852,1.866,2.768,2.768,0,0,0,1.866-.1,3.128,3.128,0,0,0,1.372-1.231,4.2,4.2,0,0,0,.258-3.439,10.132,10.132,0,0,0-1.5-2.962l-.564.572c.967.625,3.287,1.457,4.972-.063,1.9-2.307-1.835-6.6-2.571-7.332" transform="translate(40.131 36.197)" fill="#263238"/>
            <path id="Trazado_204691" data-name="Trazado 204691" d="M44.085,40.808a5.539,5.539,0,0,0,1.666.359,1.283,1.283,0,0,0,1.178-.562,2.622,2.622,0,0,0,.245-1.471c-.04-.557-.11-1.142-.207-1.744a4.465,4.465,0,0,1,.806,1.651,2.6,2.6,0,0,1-.186,1.978,1.853,1.853,0,0,1-.861.692,1.912,1.912,0,0,1-1.045.057,2.988,2.988,0,0,1-1.6-.961" transform="translate(48.985 34.4)" fill="#263238"/>
            <path id="Trazado_204692" data-name="Trazado 204692" d="M37.306,74.511l24.557-19.75s5.956,12.3,6.3,12.251S72.415,50.64,78.873,40.47s8.02.866,6.648,9.262-7.837,54.894-13.644,59.157-11.267-1.07-13.617-3.336c-3.239-3.122-20.953-31.042-20.953-31.042" transform="translate(41.453 33.289)" fill="#a7e446"/>
            <path id="Trazado_204693" data-name="Trazado 204693" d="M39.557,63.808c.768-.79,8.489-6.806,10.193-8.077s3.416-2.54,5.124-3.806c1.767-1.309,3.5-2.728,5.371-3.893a.077.077,0,0,1,.095.12c-1.615,1.49-3.443,2.789-5.17,4.144q-2.559,2-5.122,4.007c-1.712,1.33-9.477,7.112-10.416,7.63-.078.042-.127-.072-.074-.125" transform="translate(43.929 46.209)" fill="#263238"/>
            <path id="Trazado_204694" data-name="Trazado 204694" d="M51.924,50.9c.68,1.45,1.271,2.937,1.839,4.431s1.085,3.006,1.571,4.531.927,3.063,1.292,4.621a41.652,41.652,0,0,1,.891,4.718c-.239-.766-.435-1.537-.682-2.3-.215-.768-.454-1.528-.688-2.289l-1.429-4.56-1.423-4.564-.7-2.288c-.215-.768-.458-1.531-.667-2.3" transform="translate(57.696 49.406)" fill="#263238"/>
            <path id="Trazado_204695" data-name="Trazado 204695" d="M52.04,119.784c1.062,1.053,66.356-2.4,66.67-2.825.857-1.151-22.494-70.639-37.8-81.636-3.291-2.362-12.133.8-14.4,3.08-1.425,1.431-4.526,10.463-6.555,17.934-4.06,14.951-8.835,62.522-7.911,63.447" transform="translate(57.696 31.175)" fill="#fff"/>
            <path id="Trazado_204696" data-name="Trazado 204696" d="M60.8,35.982c-2.586,1.921-4.575,11.854,1.345,13.2s11.413-8.006,12.219-11.027S66.394,31.826,60.8,35.982" transform="translate(64.751 30.663)" fill="#a7e446"/>
            <path id="Trazado_204697" data-name="Trazado 204697" d="M63.648,53.792c3.671.471,9.247-5.649,11.21-10.34.133-.323-.669-3.481-1.463-7.364-.473-2.358-.944-4.995-1.2-7.433L57.3,33.972a38.987,38.987,0,0,1,2.457,9.2,5.39,5.39,0,0,1,0,1.011c0,.049-.006.106,0,.169-.11,1.932.346,8.979,3.9,9.437" transform="translate(63.669 24.693)" fill="#ad6359"/>
            <path id="Trazado_204698" data-name="Trazado 204698" d="M71.493,28.774c-.156,3.093-1.33,14.24-10.161,15.367a10.65,10.65,0,0,1-1.575.082.622.622,0,0,1,.006-.171,5.75,5.75,0,0,0,0-1.009,39.327,39.327,0,0,0-2.466-9.2Z" transform="translate(63.667 24.826)" fill="#263238"/>
            <path id="Trazado_204699" data-name="Trazado 204699" d="M77.442,24.009c2.172,5.267.8,21.213-2.726,25.076-5.111,5.6-14.225,6.954-19.169.64-4.792-6.12-2.637-26.869,1.37-30.456,5.9-5.282,17.316-3.042,20.525,4.74" transform="translate(58.675 11.072)" fill="#ad6359"/>
            <path id="Trazado_204700" data-name="Trazado 204700" d="M63.361,31.793v-.006" transform="translate(70.404 28.174)" fill="none" stroke="#f4a69d" stroke-linecap="round" stroke-linejoin="round" stroke-width="0"/>
            <path id="Trazado_204701" data-name="Trazado 204701" d="M57.885,25.225c.013-.04.08.057.074.1-.12,1.072-.078,2.32.866,2.755.027.015.021.068-.015.059-1.174-.262-1.212-1.919-.925-2.916" transform="translate(64.153 20.872)" fill="#263238"/>
            <path id="Trazado_204702" data-name="Trazado 204702" d="M58.91,24.725c1.74.008,1.594,3.486-.019,3.477-1.585-.008-1.438-3.486.019-3.477" transform="translate(64.179 20.327)" fill="#263238"/>
            <path id="Trazado_204703" data-name="Trazado 204703" d="M55.636,25.121c-.006-.042-.087.046-.087.091-.011,1.079-.2,2.312-1.195,2.628-.03.011-.03.065.006.061,1.2-.118,1.438-1.756,1.275-2.78" transform="translate(60.372 20.755)" fill="#263238"/>
            <path id="Trazado_204704" data-name="Trazado 204704" d="M55.288,24.568c-1.727-.2-2.008,3.264-.407,3.454,1.573.186,1.856-3.283.407-3.454" transform="translate(59.806 20.142)" fill="#263238"/>
            <path id="Trazado_204705" data-name="Trazado 204705" d="M60.388,25.326a13.874,13.874,0,0,1-1.326-.53,2.314,2.314,0,0,1-1.25-.8.734.734,0,0,1,.154-.885A1.828,1.828,0,0,1,59.814,23a2.679,2.679,0,0,1,1.493,1.224.784.784,0,0,1-.918,1.1" transform="translate(64.141 18.194)" fill="#263238"/>
            <path id="Trazado_204706" data-name="Trazado 204706" d="M54.383,24.9a13.718,13.718,0,0,0,1.4-.3,2.315,2.315,0,0,0,1.366-.578.738.738,0,0,0,0-.9,1.826,1.826,0,0,0-1.8-.418,2.681,2.681,0,0,0-1.68.954.785.785,0,0,0,.722,1.241" transform="translate(59.44 18.008)" fill="#263238"/>
            <path id="Trazado_204707" data-name="Trazado 204707" d="M59.582,30c-.268.241-.54.578-.933.593a2.827,2.827,0,0,1-1.146-.319.037.037,0,0,0-.049.053,1.452,1.452,0,0,0,1.343.644,1.149,1.149,0,0,0,.887-.918c.019-.061-.061-.089-.1-.053" transform="translate(63.834 26.176)" fill="#263238"/>
            <path id="Trazado_204708" data-name="Trazado 204708" d="M61.252,34.7a3.667,3.667,0,0,1-2.517,1.528,4.618,4.618,0,0,1-1.322.006,1.358,1.358,0,0,1-.251-.04c-.078-.013-.148-.025-.234-.046a.266.266,0,0,1-.2-.249v-.008a.475.475,0,0,1,.015-.11v-.008l.006-.1c.013-.83.146-2.088.146-2.088-.31.139-1.883.771-1.841.338a55.384,55.384,0,0,1,1.887-11.039.1.1,0,0,1,.2.036c-.215,3.452-1.034,6.842-1.3,10.307a6.393,6.393,0,0,1,1.752-.452c.116.038-.3,2.426-.277,2.8a.169.169,0,0,0,.006.04,5.09,5.09,0,0,0,3.844-1.02c.082-.057.165.019.1.1" transform="translate(61.168 18.207)" fill="#263238"/>
            <path id="Trazado_204709" data-name="Trazado 204709" d="M56.462,29.831a4.3,4.3,0,0,0,1.788,1.258,1.937,1.937,0,0,0,1.18.021c.842-.264.83-1.047.642-1.708a4.653,4.653,0,0,0-.429-1.007,5.6,5.6,0,0,1-3.182,1.436" transform="translate(62.738 24.405)" fill="#263238"/>
            <path id="Trazado_204710" data-name="Trazado 204710" d="M57.308,30.56a1.928,1.928,0,0,0,1.182.019c.842-.262.828-1.045.64-1.708a2.007,2.007,0,0,0-1.822,1.689" transform="translate(63.678 24.934)" fill="#f392b9"/>
            <path id="Trazado_204711" data-name="Trazado 204711" d="M77.092,39.713c.391-1.393,3.986-16.4,3.589-18.036-.361-1.49-1.991-.88-2.014-.967s-.076-1.442-.916-1.951a2.278,2.278,0,0,0-1.82.034s-.255-1.431-1.157-1.82a1.819,1.819,0,0,0-1.761.38,2.393,2.393,0,0,0-1.438-1.708,1.557,1.557,0,0,0-1.737.663s-.382-1.366-1.322-1.63-1.75.745-1.75.745a2.062,2.062,0,0,0-1.657-1.26,1.8,1.8,0,0,0-1.583,1.231,2.45,2.45,0,0,0-1.748-1.233c-1.07-.032-1.442,1.3-1.442,1.3s-.437-1.193-1.446-1.115-1.246,1.49-1.246,1.49-.566-1.311-1.752-.927c-1.82.591-2.048,9.293-2.464,13.074,0,0,.509-1.807,1.281-1.875S56.061,27.278,57.5,27.6c2.052.454,5.47-1.955,8.3-1.349,2.749.587,4.788,3.475,5.78,7.794,1.117,4.866,4.588,8.977,5.512,5.671" transform="translate(59.367 8.589)" fill="#263238"/>
            <path id="Trazado_204712" data-name="Trazado 204712" d="M60.042,32.375a4.43,4.43,0,1,1,1.1.061,4.443,4.443,0,0,1-1.1-.061m-2.994-5.05a3.84,3.84,0,1,0,3.513-3.152,3.851,3.851,0,0,0-3.513,3.152" transform="translate(62.663 19.044)" fill="#fc4b52"/>
            <path id="Trazado_204713" data-name="Trazado 204713" d="M55.32,32.19c-1.818-.084-3.207-2.141-3.093-4.585a5.289,5.289,0,0,1,1.079-3.055,2.766,2.766,0,0,1,4.729.217,5.309,5.309,0,0,1,.792,3.144c-.108,2.312-1.52,4.157-3.215,4.275a2.227,2.227,0,0,1-.291,0m-1.55-7.271a4.7,4.7,0,0,0-.952,2.713c-.1,2.117,1.039,3.9,2.531,3.965s2.787-1.6,2.886-3.714a4.727,4.727,0,0,0-.7-2.789A2.361,2.361,0,0,0,55.7,23.919a1.581,1.581,0,0,0-.224,0,2.45,2.45,0,0,0-1.71,1" transform="translate(58.026 18.769)" fill="#fc4b52"/>
            <path id="Trazado_204714" data-name="Trazado 204714" d="M58.013,26.23l.4-.437c-.646-.6-2.164-1.427-3.3-.319l.414.424c1.015-.994,2.426.279,2.485.331" transform="translate(61.24 20.555)" fill="#fc4b52"/>
            <path id="Trazado_204715" data-name="Trazado 204715" d="M71.863,28.139l.538-.247c-.116-.251-1.165-2.464-2.478-2.74-1.229-.255-9.207.12-9.547.137l.03.593c2.286-.11,8.447-.35,9.395-.15.866.182,1.782,1.8,2.063,2.407" transform="translate(67.087 20.703)" fill="#fc4b52"/>
            <path id="Trazado_204716" data-name="Trazado 204716" d="M63.267,28.318s3.169-5.343,5.567-4.25.283,8.652-2.348,9.861a2.758,2.758,0,0,1-3.8-1.2Z" transform="translate(69.659 19.434)" fill="#ad6359"/>
            <path id="Trazado_204717" data-name="Trazado 204717" d="M67.391,25.01a.039.039,0,0,1,.019.074c-1.839.91-2.7,2.742-3.266,4.617a1.521,1.521,0,0,1,2.24-.583c.053.032.011.11-.044.1a1.7,1.7,0,0,0-1.818.73,8.263,8.263,0,0,0-.779,1.573c-.076.177-.388.11-.338-.091l.013-.044c-.23-2.415,1.4-5.939,3.973-6.38" transform="translate(70.443 20.644)" fill="#263238"/>
            <path id="Trazado_204718" data-name="Trazado 204718" d="M73.633,38.126c21.131,14.529,36.379,37.31,37.849,42.124,3.551,11.643,8.856,32.176,9.673,41.4.3,3.41-25.971,2.772-26.408-.861-1.37-11.379-6.264-36.137-6.388-36.563-.876-2.994-8.329-15.962-16-30.071s-7.619-22.14,1.275-16.026" transform="translate(74.194 32.914)" fill="#ad6359"/>
            <path id="Trazado_204719" data-name="Trazado 204719" d="M84.421,112.133a4.078,4.078,0,0,0,4.423-1.45,6.048,6.048,0,0,0,3.532,2.109c2.466.359,4.108-3.35,4.108-3.35a7.451,7.451,0,0,0,4.079,1.632c2.4.106,4.588-3.4,4.588-3.4a6.607,6.607,0,0,0,4.49-.823c2.272-1.467,3.393-8.711,3.353-12.787s-3.965-15.608-4.49-17.881L82.326,76.2s-5.031,18.335-4.3,23.123c.612,4.034,3.386,11.782,6.4,12.81" transform="translate(86.615 77.502)" fill="#ad6359"/>
            <path id="Trazado_204720" data-name="Trazado 204720" d="M84.311,99.278c-1.678-4.134-2.046-8.538-2.66-12.912a.077.077,0,0,1,.152-.019c.562,4.357,1.98,8.548,2.713,12.876a.107.107,0,0,1-.2.055" transform="translate(90.727 88.727)" fill="#263238"/>
            <path id="Trazado_204721" data-name="Trazado 204721" d="M87.051,98.623a11.611,11.611,0,0,1-.479-3q-.146-1.612-.236-3.226-.184-3.23-.2-6.469c0-.1.146-.12.152-.019.125,2.147.283,4.292.5,6.431q.165,1.606.35,3.209a13.844,13.844,0,0,1,.213,3.036.154.154,0,0,1-.293.04" transform="translate(95.705 88.238)" fill="#263238"/>
            <path id="Trazado_204722" data-name="Trazado 204722" d="M91.229,97.184a8.076,8.076,0,0,1-.287-2.725q-.054-1.476-.122-2.947c-.093-1.965-.186-3.929-.348-5.888-.006-.1.144-.118.152-.021.175,1.991.376,3.98.53,5.97q.117,1.466.215,2.935a7.647,7.647,0,0,1-.04,2.677.055.055,0,0,1-.1,0" transform="translate(100.527 87.901)" fill="#263238"/>
            <path id="Trazado_204723" data-name="Trazado 204723" d="M94.719,121.819l28.716-2.316s-6.325-30.931-9.756-39.291S93.161,51.23,75.343,39.011c-12.12-8.312-11.377-1.2-5.776,9.808s18.785,36.2,19.406,38.189,5.747,34.811,5.747,34.811" transform="translate(72.972 32.169)" fill="#a7e446"/>
            <path id="Trazado_204724" data-name="Trazado 204724" d="M79.7,74.631c1.075-.249,10.82-1.146,12.941-1.3s4.246-.3,6.367-.437c2.193-.15,4.423-.4,6.621-.378a.076.076,0,0,1,.017.152c-2.164.382-4.4.488-6.589.7q-3.24.307-6.475.606c-2.16.2-11.818.872-12.887.8-.091-.006-.07-.129,0-.146" transform="translate(88.492 73.433)" fill="#263238"/>
          </g>
        </g>
      </g>
    </g>
  </g>
</svg>
