<svg xmlns="http://www.w3.org/2000/svg" xmlns:xlink="http://www.w3.org/1999/xlink" width="190" height="104" viewBox="0 0 190 104">
  <defs>
    <clipPath id="clip-path">
      <rect id="Rect치ngulo_88661" data-name="Rect치ngulo 88661" width="93.311" height="93.321" fill="none"/>
    </clipPath>
  </defs>
  <g id="Grupo_138556" data-name="Grupo 138556" transform="translate(-285.049 -411)">
    <rect id="Rect치ngulo_41122" data-name="Rect치ngulo 41122" width="190" height="104" transform="translate(285.049 411)" fill="none"/>
    <g id="Grupo_117447" data-name="Grupo 117447" transform="translate(-3337.23 1038.209)" opacity="0.3">
      <path id="Trazado_158283" data-name="Trazado 158283" d="M3677.784-530.075h0a16.354,16.354,0,0,0,23.129,0l67.216-67.214a16.357,16.357,0,0,0,0-23.129,16.355,16.355,0,0,0-23.129,0L3677.784-553.2A16.353,16.353,0,0,0,3677.784-530.075Z" transform="translate(14.296)" fill="#fc4b52"/>
      <path id="Trazado_158284" data-name="Trazado 158284" d="M3652.069-530.075h0a16.354,16.354,0,0,0,23.129,0l67.216-67.214a16.358,16.358,0,0,0,0-23.129,16.355,16.355,0,0,0-23.129,0L3652.069-553.2A16.354,16.354,0,0,0,3652.069-530.075Z" transform="translate(0)" fill="#feca2e"/>
    </g>
    <g id="Grupo_138557" data-name="Grupo 138557" transform="translate(333.049 419.604)">
      <g id="Grupo_138554" data-name="Grupo 138554" transform="translate(0 0)" clip-path="url(#clip-path)">
        <path id="Trazado_213235" data-name="Trazado 213235" d="M36.122,83.834c0,1.676.011,3.242,0,4.808a4.5,4.5,0,0,1-4.687,4.671q-13.356.016-26.711,0A4.5,4.5,0,0,1,.006,88.581Q0,69.253,0,49.926a4.513,4.513,0,0,1,4.776-4.77c1.067,0,2.135-.053,3.2.017.818.053,1.08-.144,1.077-1.034-.034-12.1-.017-24.2-.026-36.3a7.505,7.505,0,0,1,3.29-6.5A7.587,7.587,0,0,1,16.833,0Q28.965.016,41.1,0H76.18c4.957,0,8.1,3.14,8.1,8.092q0,29.955,0,59.91c0,1.223,0,1.223,1.217,1.229a7.522,7.522,0,1,1,.537,15.035c-2.255.053-4.514.016-6.771.016q-19.469,0-38.938-.009c-1.389,0-2.811.254-4.207-.443" transform="translate(0 0)"/>
        <path id="Trazado_213236" data-name="Trazado 213236" d="M3.1,70.516q0-9.453,0-18.905c0-1.6.464-2.069,2.063-2.069q12.98,0,25.959,0c1.606,0,2.077.466,2.077,2.057,0,6.584-.013,13.168.02,19.751a1.046,1.046,0,0,1-.85,1.175c-1.827.643-3.634,1.344-5.445,2.034a3.7,3.7,0,0,0,0,7.155c1.87.71,3.742,1.415,5.623,2.092a.823.823,0,0,1,.669.928c-.044,1.724-.007,3.449-.019,5.172-.009,1.219-.563,1.772-1.793,1.773q-13.261.007-26.523,0c-1.251,0-1.778-.568-1.779-1.88q-.006-9.641,0-19.282" transform="translate(-0.086 -1.375)" fill="#dff7f9"/>
        <path id="Trazado_213237" data-name="Trazado 213237" d="M46.948,18.151q-16.784,0-33.57.021c-.835,0-1.029-.2-1.014-1.023.053-3.1.013-6.206.023-9.309A4.5,4.5,0,0,1,17.1,3.1q29.9-.01,59.805,0a4.5,4.5,0,0,1,4.7,4.747c.012,3.135-.024,6.27.022,9.4.012.754-.21.913-.93.912q-16.879-.035-33.758-.017" transform="translate(-0.343 -0.086)" fill="#fc4b52"/>
        <path id="Trazado_213238" data-name="Trazado 213238" d="M47,21.676q16.831,0,33.663-.019c.774,0,.97.17.968.96q-.039,23.131,0,46.264c0,.759-.142,1-.95.98-2.077-.063-2.078-.018-2.078-2.09V28.277c0-2.489-1.114-3.591-3.627-3.591H19.03c-2.534,0-3.634,1.113-3.634,3.675,0,5.517-.016,11.033.018,16.55,0,.712-.178.877-.874.864-2.155-.04-2.155-.008-2.155-2.2,0-6.99.016-13.979-.021-20.969,0-.8.215-.954.977-.952Q30.172,21.7,47,21.676" transform="translate(-0.343 -0.601)" fill="#feca2e"/>
        <path id="Trazado_213239" data-name="Trazado 213239" d="M59.9,80.5c6.2,0,12.409.011,18.614-.016.675,0,.9.121.888.854-.044,2.171-.007,2.172-2.186,2.172q-18,0-36.005.018c-.755,0-1.007-.138-.983-.95.062-2.077.017-2.078,2.093-2.078Z" transform="translate(-1.116 -2.233)" fill="#feca2e"/>
        <path id="Trazado_213240" data-name="Trazado 213240" d="M59.818,77.318c-6.234,0-12.468-.012-18.7.016-.682,0-.9-.133-.887-.859.041-2.165,0-2.166,2.2-2.166q18,0,35.995-.018c.763,0,1.006.151.983.956-.06,2.071-.017,2.072-2.1,2.072Z" transform="translate(-1.116 -2.061)" fill="#a7e446"/>
        <path id="Trazado_213241" data-name="Trazado 213241" d="M52.375,44.816c0,1.284-.023,2.57.012,3.854.014.5-.14.627-.628.622q-3.9-.034-7.8,0c-.5,0-.626-.141-.622-.628q.035-3.9,0-7.8c0-.5.141-.626.628-.622q3.9.035,7.8,0c.5,0,.635.14.622.628-.032,1.315-.011,2.632-.011,3.948" transform="translate(-1.202 -1.116)" fill="#e5e8ec"/>
        <path id="Trazado_213242" data-name="Trazado 213242" d="M23.1,27.869c1.284,0,2.57.011,3.854-.006.426-.006.674.019.666.582-.033,2.632-.026,5.264,0,7.9,0,.466-.15.57-.587.567q-3.948-.028-7.9,0c-.466,0-.57-.15-.567-.587q.028-3.948,0-7.9c0-.465.15-.575.587-.567,1.315.026,2.632.01,3.948.01" transform="translate(-0.515 -0.773)" fill="#e5e8ec"/>
        <path id="Trazado_213243" data-name="Trazado 213243" d="M35.477,36.9c-1.316,0-2.633-.018-3.948.01-.452.01-.58-.125-.577-.577q.031-3.948,0-7.9c0-.451.125-.579.577-.577q3.948.031,7.9,0c.451,0,.579.125.577.577q-.031,3.948,0,7.9c0,.451-.124.586-.577.577-1.315-.028-2.632-.01-3.948-.01" transform="translate(-0.859 -0.773)" fill="#e5e8ec"/>
        <path id="Trazado_213244" data-name="Trazado 213244" d="M43.346,32.306c0-1.253.021-2.507-.012-3.76-.014-.508.1-.7.655-.692,2.569.031,5.138.026,7.708,0,.507,0,.7.1.691.655-.03,2.569-.026,5.138,0,7.708,0,.507-.1.7-.655.691-2.57-.03-5.139-.038-7.708,0-.635.011-.7-.228-.689-.755.033-1.284.012-2.57.012-3.854" transform="translate(-1.202 -0.773)" fill="#e5e8ec"/>
        <path id="Trazado_213245" data-name="Trazado 213245" d="M55.729,32.289c0-1.284.018-2.57-.01-3.854-.011-.453.126-.579.578-.577q3.948.031,7.9,0c.452,0,.579.127.577.578q-.031,3.948,0,7.9c0,.452-.127.579-.578.576q-3.948-.029-7.9,0c-.453,0-.586-.126-.577-.578.027-1.347.01-2.694.01-4.042" transform="translate(-1.546 -0.773)" fill="#e5e8ec"/>
        <path id="Trazado_213246" data-name="Trazado 213246" d="M72.628,36.9c-1.316,0-2.633-.018-3.948.01-.452.01-.579-.125-.577-.577q.031-3.948,0-7.9c0-.451.126-.579.578-.577q3.948.031,7.9,0c.452,0,.58.126.577.578q-.029,3.948,0,7.9c0,.452-.125.586-.577.577-1.315-.028-2.632-.01-3.948-.01" transform="translate(-1.89 -0.773)" fill="#e5e8ec"/>
        <path id="Trazado_213247" data-name="Trazado 213247" d="M68.113,57.15c0-1.316.018-2.633-.01-3.948-.011-.454.129-.578.578-.575q3.948.029,7.9,0c.454,0,.578.129.576.578q-.031,3.948,0,7.9c0,.454-.13.578-.578.576q-3.948-.031-7.9,0c-.453,0-.584-.129-.575-.578.027-1.315.01-2.632.01-3.948" transform="translate(-1.89 -1.46)" fill="#e5e8ec"/>
        <path id="Trazado_213248" data-name="Trazado 213248" d="M55.729,57.084c0-1.253.02-2.507-.01-3.76-.013-.494.069-.71.644-.7q3.9.05,7.8,0c.53-.006.606.193.6.648-.018,2.6-.025,5.2,0,7.8.006.53-.193.606-.648.6-2.6-.017-5.2-.025-7.8,0-.53.006-.611-.192-.6-.648.024-1.316.009-2.632.009-3.948" transform="translate(-1.546 -1.46)" fill="#e5e8ec"/>
        <path id="Trazado_213249" data-name="Trazado 213249" d="M64.759,44.822c0,1.284-.024,2.57.013,3.854.015.508-.158.62-.635.616q-3.9-.032-7.8,0c-.508,0-.619-.158-.615-.635q.032-3.9,0-7.8c-.006-.508.157-.62.634-.616q3.9.032,7.8,0c.507,0,.627.157.616.634-.03,1.315-.011,2.632-.011,3.948" transform="translate(-1.546 -1.116)" fill="#e5e8ec"/>
        <path id="Trazado_213250" data-name="Trazado 213250" d="M72.626,49.282c-1.316,0-2.633-.018-3.948.01-.454.011-.578-.129-.575-.578q.029-3.948,0-7.9c0-.454.129-.578.578-.576q3.948.031,7.9,0c.454,0,.578.129.576.578q-.031,3.948,0,7.9c0,.453-.129.584-.578.575-1.315-.027-2.632-.01-3.948-.01" transform="translate(-1.89 -1.116)" fill="#e5e8ec"/>
        <path id="Trazado_213251" data-name="Trazado 213251" d="M47.861,61.666c-1.316,0-2.633-.018-3.948.01-.451.01-.58-.124-.578-.577q.031-3.948,0-7.9c0-.45.124-.58.577-.578q3.948.031,7.9,0c.45,0,.58.124.577.577q-.029,3.948,0,7.9c0,.451-.123.587-.576.578-1.315-.028-2.632-.01-3.948-.01" transform="translate(-1.203 -1.46)" fill="#e5e8ec"/>
        <path id="Trazado_213252" data-name="Trazado 213252" d="M83.593,78.794c0-1.283.018-2.567-.01-3.849-.01-.47.094-.662.613-.648,1.376.037,2.755-.023,4.13.026a4.5,4.5,0,0,1,.129,8.99c-1.436.079-2.879,0-4.318.036-.49.011-.559-.2-.552-.612.019-1.314.007-2.629.007-3.943" transform="translate(-2.319 -2.061)" fill="#a9b1bc"/>
        <path id="Trazado_213253" data-name="Trazado 213253" d="M35.514,40.253c1.282,0,2.566.018,3.847-.009.463-.01.648.084.643.606q-.042,3.894,0,7.79c.006.555-.183.714-.69.648a3.363,3.363,0,0,0-.656,0c-1.129.075-2.027.033-2.726-1.242-.806-1.467-2.421-1.9-4.082-1.757-.753.063-.933-.193-.906-.915.057-1.5.037-3,.007-4.5-.011-.489.126-.639.622-.626,1.314.034,2.628.012,3.942.012" transform="translate(-0.859 -1.116)" fill="#e5e8ec"/>
        <path id="Trazado_213254" data-name="Trazado 213254" d="M23.016,46.273c-1.253,0-2.507-.022-3.76.011-.506.014-.707-.092-.693-.653.04-1.565.033-3.134,0-4.7-.01-.508.1-.7.655-.692,2.569.031,5.137.026,7.707,0,.5,0,.707.092.692.653-.039,1.566-.049,3.135,0,4.7.021.636-.228.7-.755.689-1.283-.033-2.569-.011-3.853-.011" transform="translate(-0.515 -1.116)" fill="#e5e8ec"/>
        <path id="Trazado_213255" data-name="Trazado 213255" d="M47.861,65.02c1.315,0,2.632.018,3.947-.01.452-.01.584.124.578.577q-.038,2.443,0,4.888c.007.453-.128.578-.578.576q-3.946-.031-7.895,0c-.451,0-.584-.124-.578-.577q.039-2.443,0-4.888c-.007-.453.128-.585.578-.576,1.315.028,2.632.01,3.947.01" transform="translate(-1.203 -1.804)" fill="#e5e8ec"/>
        <path id="Trazado_213256" data-name="Trazado 213256" d="M60.243,65.02c1.315,0,2.632.018,3.947-.01.45-.01.586.121.578.576q-.038,2.443,0,4.887c.007.451-.124.581-.577.578q-3.946-.031-7.895,0c-.449,0-.586-.122-.578-.576q.038-2.443,0-4.887c-.007-.451.123-.587.577-.578,1.315.028,2.632.01,3.947.01" transform="translate(-1.546 -1.804)" fill="#e5e8ec"/>
        <path id="Trazado_213257" data-name="Trazado 213257" d="M72.625,65.02c1.314,0,2.631.018,3.946-.01.446-.01.589.115.581.573q-.039,2.443,0,4.888c.007.447-.119.583-.575.579q-3.946-.031-7.894,0c-.445,0-.589-.115-.581-.573q.039-2.443,0-4.888c-.008-.447.116-.59.573-.58,1.316.029,2.632.011,3.948.011" transform="translate(-1.89 -1.804)" fill="#e5e8ec"/>
        <path id="Trazado_213258" data-name="Trazado 213258" d="M36.9,82.682c-2.214-.824-4.34-1.615-6.465-2.407-.644-.239-1.287-.476-1.928-.724-.333-.128-.63-.306-.621-.726.008-.372.271-.549.574-.662,2.657-1,5.318-1.987,7.972-2.995.424-.16.473.016.472.368-.006,2.341,0,4.683,0,7.146" transform="translate(-0.774 -2.084)" fill="#a9b1bc"/>
        <path id="Trazado_213259" data-name="Trazado 213259" d="M37.154,57.056c0-1.284.018-2.569-.01-3.853-.011-.451.127-.562.576-.58,2.445-.1,2.444-.11,2.444,2.274,0,2.036-.018,4.073.013,6.108.008.531-.143.669-.673.676-2.35.029-2.35.048-2.35-2.275V57.056" transform="translate(-1.031 -1.459)" fill="#e5e8ec"/>
        <path id="Trazado_213260" data-name="Trazado 213260" d="M37.154,71.519c0-2.1.008-4.059-.007-6.023,0-.362.105-.529.475-.477a.436.436,0,0,0,.094,0c2.447-.126,2.447-.126,2.447,2.35,0,1.034-.007,2.067,0,3.1,0,.34.009.624-.472.576a4.375,4.375,0,0,0-2.542.475" transform="translate(-1.031 -1.803)" fill="#e5e8ec"/>
        <path id="Trazado_213261" data-name="Trazado 213261" d="M18.31,52.637c3.729,0,7.458.012,11.187-.012.578,0,.8.1.794.75-.035,3.54-.026,7.082-.006,10.623,0,.508-.1.693-.658.692q-11.374-.028-22.75,0c-.5,0-.7-.091-.7-.653.026-3.572.032-7.145,0-10.717-.007-.633.232-.692.757-.69,3.792.019,7.584.011,11.375.011" transform="translate(-0.171 -1.46)"/>
        <path id="Trazado_213262" data-name="Trazado 213262" d="M22.234,78.461c-.16.175-.281.316-.411.447Q15.74,84.993,9.664,91.084c-.366.368-.574.418-.955.018-1.035-1.091-2.1-2.151-3.191-3.191-.37-.355-.35-.6.031-.884a.718.718,0,0,0,.067-.066c.517-.5.983-1.322,1.565-1.416.631-.1,1.079.819,1.556,1.33.509.547.734.12,1.026-.172,3.194-3.189,6.4-6.364,9.56-9.588.626-.64,1.047-.852,1.634-.022a9.15,9.15,0,0,0,.984,1.007c.1.105.185.228.293.362" transform="translate(-0.146 -2.124)"/>
        <path id="Trazado_213263" data-name="Trazado 213263" d="M10.666,71.126c-1.283,0-2.567-.019-3.85.011-.48.011-.624-.12-.636-.619-.059-2.4-.077-2.4,2.318-2.4,2,0,4.008.021,6.009-.014.569-.01.733.124.734.717,0,2.307.027,2.307-2.227,2.307H10.666" transform="translate(-0.171 -1.89)"/>
        <path id="Trazado_213264" data-name="Trazado 213264" d="M10.784,77.318c-1.283,0-2.567-.021-3.849.011-.525.013-.758-.056-.761-.688-.008-2.332-.038-2.332,2.3-2.332,2,0,4.007.016,6.009-.011.524-.007.758.056.76.689.009,2.331.038,2.331-2.3,2.331Z" transform="translate(-0.171 -2.061)"/>
        <path id="Trazado_213265" data-name="Trazado 213265" d="M27.6,10.7a4.512,4.512,0,1,1-4.481-4.5A4.533,4.533,0,0,1,27.6,10.7" transform="translate(-0.516 -0.172)"/>
        <path id="Trazado_213266" data-name="Trazado 213266" d="M38.6,15.224a4.512,4.512,0,1,1,4.484-4.495A4.531,4.531,0,0,1,38.6,15.224" transform="translate(-0.945 -0.172)"/>
        <path id="Trazado_213267" data-name="Trazado 213267" d="M61.66,10.687A4.512,4.512,0,1,1,57.172,6.2a4.533,4.533,0,0,1,4.489,4.487" transform="translate(-1.461 -0.172)"/>
        <path id="Trazado_213268" data-name="Trazado 213268" d="M72.632,15.224a4.512,4.512,0,1,1,4.507-4.471,4.532,4.532,0,0,1-4.507,4.471" transform="translate(-1.89 -0.172)"/>
        <path id="Trazado_213269" data-name="Trazado 213269" d="M18.221,61.752c-2.723,0-5.448-.019-8.171.015-.614.008-.792-.16-.775-.776.044-1.532.038-3.068,0-4.6-.013-.545.172-.669.688-.668q8.359.026,16.718,0c.534,0,.69.144.679.679q-.051,2.348,0,4.7c.013.545-.171.673-.688.668-2.818-.022-5.635-.011-8.453-.011" transform="translate(-0.257 -1.546)" fill="#a7e446"/>
        <path id="Trazado_213270" data-name="Trazado 213270" d="M24.678,10.842A1.5,1.5,0,1,1,23.245,9.3a1.515,1.515,0,0,1,1.433,1.545" transform="translate(-0.601 -0.258)" fill="#fbfbfb"/>
        <path id="Trazado_213271" data-name="Trazado 213271" d="M38.585,12.3a1.5,1.5,0,1,1,1.571-1.4,1.518,1.518,0,0,1-1.571,1.4" transform="translate(-1.031 -0.258)" fill="#fbfbfb"/>
        <path id="Trazado_213272" data-name="Trazado 213272" d="M58.734,10.842A1.5,1.5,0,1,1,57.3,9.3a1.515,1.515,0,0,1,1.433,1.545" transform="translate(-1.547 -0.258)" fill="#fbfbfb"/>
        <path id="Trazado_213273" data-name="Trazado 213273" d="M72.7,12.3a1.5,1.5,0,1,1,1.516-1.462A1.514,1.514,0,0,1,72.7,12.3" transform="translate(-1.976 -0.258)" fill="#fbfbfb"/>
      </g>
    </g>
  </g>
</svg>
