<svg xmlns="http://www.w3.org/2000/svg" xmlns:xlink="http://www.w3.org/1999/xlink" width="190" height="104" viewBox="0 0 190 104">
  <defs>
    <clipPath id="clip-path">
      <rect id="Rect치ngulo_88004" data-name="Rect치ngulo 88004" width="77.763" height="84.134" fill="none"/>
    </clipPath>
  </defs>
  <g id="Grupo_117521" data-name="Grupo 117521" transform="translate(-285.049 -411)">
    <rect id="Rect치ngulo_41122" data-name="Rect치ngulo 41122" width="190" height="104" transform="translate(285.049 411)" fill="none"/>
    <g id="Grupo_117447" data-name="Grupo 117447" transform="translate(-3337.23 1038.209)" opacity="0.3">
      <path id="Trazado_158283" data-name="Trazado 158283" d="M3677.784-530.075h0a16.354,16.354,0,0,0,23.129,0l67.216-67.214a16.357,16.357,0,0,0,0-23.129,16.355,16.355,0,0,0-23.129,0L3677.784-553.2A16.353,16.353,0,0,0,3677.784-530.075Z" transform="translate(14.296)" fill="#fc4b52"/>
      <path id="Trazado_158284" data-name="Trazado 158284" d="M3652.069-530.075h0a16.354,16.354,0,0,0,23.129,0l67.216-67.214a16.358,16.358,0,0,0,0-23.129,16.355,16.355,0,0,0-23.129,0L3652.069-553.2A16.354,16.354,0,0,0,3652.069-530.075Z" transform="translate(0)" fill="#feca2e"/>
    </g>
    <g id="Grupo_137602" data-name="Grupo 137602" transform="translate(341.049 421)">
      <g id="Grupo_137602-2" data-name="Grupo 137602" clip-path="url(#clip-path)">
        <path id="Trazado_203656" data-name="Trazado 203656" d="M66.249,39.069a1.341,1.341,0,0,1-.29,2.021c-1.271,1.272-2.551,2.536-3.98,3.955H66.47c2.414,0,3.58,1.155,3.581,3.556,0,4.981-.066,9.964.029,14.943a3.364,3.364,0,0,1-3.63,3.647c-11.5-.05-22.991-.016-34.486-.043-.736,0-.893.189-.886.9.037,4.05-.046,8.1.046,12.151.043,1.894-.58,3.21-2.35,3.934H27.3a7.613,7.613,0,0,1-2.349-1.819Q18.783,76.129,12.6,69.962c-.768-.768-.822-1.126-.334-2.009a.982.982,0,0,1,1.383-.472A3.763,3.763,0,0,1,15.017,68.5q6.06,6.061,12.127,12.115c.271.27.51.8.969.592.433-.194.271-.729.272-1.122q.014-6.52.006-13.041c0-.3-.01-.6.011-.9a1.549,1.549,0,0,1,1.582-1.63q16.906-.011,33.809,0c.793,0,1.586-.028,2.379-.043.948-.019,1.1-.165,1.112-1.109.023-2.434.008-4.869.008-7.3,0-2.352.011-4.7-.005-7.057-.008-1.1-.149-1.225-1.232-1.245-.41-.007-.82-.005-1.23-.025-1.107.028-2.214.011-3.321.006a3.1,3.1,0,0,0-3.035,1.139c-1.885,2.02-3.888,3.929-5.842,5.884a6.9,6.9,0,0,1-.988.863,3.153,3.153,0,0,1-3.341.283,3.08,3.08,0,0,1-1.821-2.892c-.033-1.368-.007-2.737-.01-4.1,0-1.2,0-1.2-1.235-1.187-.755.023-1.51.033-2.264,0-1.121-.046-1.508-.445-1.6-1.591a1.56,1.56,0,0,1,1.613-1.342c.874-.061,1.752-.03,2.628-.02.6.007.833-.244.824-.836-.018-1.177,0-2.355-.007-3.532-.007-.958-.075-1.034-1.027-1.036-3.478-.009-6.956,0-10.434,0-.9,0-1.808.02-2.711-.006-.652-.018-.951.214-.934.9q.045,1.806,0,3.614c-.018.689.282.909.933.9,1.506-.017,3.013-.034,4.518.008A1.549,1.549,0,0,1,38.492,46.1c-.13,1.166-.577,1.59-1.743,1.6-2.107.014-4.214.011-6.32,0-1.518-.007-2.027-.51-2.03-2.021-.008-4.514,0-9.029-.011-13.544,0-.412.212-.989-.269-1.189-.512-.213-.815.333-1.13.647Q15.257,43.31,3.537,55.039c-.963.963-.958,1.033.032,2.024q2.988,2.99,5.978,5.979a4.162,4.162,0,0,1,.86,1.09,1.158,1.158,0,0,1-.368,1.565,1.431,1.431,0,0,1-2.031-.312c-2.248-2.282-4.523-4.537-6.786-6.8C-.4,56.958-.409,55.259,1.2,53.645Q8.083,46.76,14.971,39.885a7.676,7.676,0,0,1,.745-.584l-.144-.212c-1.494,0-2.988,0-4.482,0a3.08,3.08,0,0,1-3.376-3.35q-.01-7.638,0-15.277c0-2.3,1.193-3.494,3.48-3.494q17.166,0,34.332,0c1.141,0,1.141,0,1.141-1.182q0-6.16,0-12.32a3.086,3.086,0,0,1,1.9-3.228,3.162,3.162,0,0,1,3.631.958Q64.383,13.4,76.585,25.592a3.109,3.109,0,0,1-.01,4.881q-3.043,3.055-6.1,6.1c-.727.724-1.111.763-2.028.248a1.258,1.258,0,0,1,.054-1.969c1.1-1.14,2.239-2.248,3.36-3.372.869-.871,1.749-1.733,2.608-2.615.676-.694.673-.861-.008-1.543Q69.187,22.037,63.9,16.759,57.26,10.115,50.61,3.476c-.275-.274-.517-.806-.963-.624-.489.2-.27.77-.292,1.186a15.832,15.832,0,0,0,.028,1.725c.066,4,.033,7.991.018,11.985-.005,1.348-.574,1.892-1.919,1.9-3.94.019-7.879.007-11.819.007H12.354c-1.883,0-1.883,0-1.884,1.921q0,6.443,0,12.886c0,.11,0,.219,0,.328.007,1.522.067,1.583,1.554,1.59,1.4.007,2.79-.013,4.184.009a3.135,3.135,0,0,0,3.049-1.095c1.978-2.116,4.072-4.124,6.128-6.167a3.413,3.413,0,0,1,3.8-1.029,3.1,3.1,0,0,1,2.1,3.026c.032,1.339.007,2.679.009,4.019,0,1.3,0,1.3,1.318,1.252,4.9-.03,9.8-.017,14.694-.009,1.541,0,2.1.549,2.1,2.074,0,3.939.045,7.879-.02,11.816-.039.789-.041,1.581-.028,2.372,0,.217-.012.466.213.583.257.135.472-.03.67-.179a6.974,6.974,0,0,0,.715-.673q6.517-6.515,13.034-13.032c.366-.366.708-.77,1.3-.76.4.007.767.064.959.48" transform="translate(0 0)"/>
        <path id="Trazado_203657" data-name="Trazado 203657" d="M54.075,201.182c.207,1.016.508,1.262,1.558,1.277l2.3.032c.282.294.2.666.2,1.012.011,1.393-.018,2.787.01,4.179a4.169,4.169,0,0,0,3.707,4.3,3.647,3.647,0,0,0,3.2-1.107q3.847-3.859,7.7-7.709a1.815,1.815,0,0,1,1.089-.672l3.477,0c.463.233.414.679.415,1.078q.021,7.435,0,14.869c0,1.026-.18,1.168-1.214,1.168l-33.271,0a5.142,5.142,0,0,0-.9.027c-.894.167-1.174.758-1.172,1.6q.016,7.057,0,14.114a2.921,2.921,0,0,1-.022.736c-.131.491-.448.688-.914.379a4.166,4.166,0,0,1-.6-.557q-6.385-6.381-12.769-12.763c-.8-.8-1.2-.833-2.061-.245a24.187,24.187,0,0,0-2.228-2.257c.536-.945.495-1.29-.3-2.086q-3.362-3.373-6.733-6.736c-.7-.706-.709-.839-.018-1.529Q27.7,198.13,39.869,185.97c.268-.268.529-.609.979-.4.411.186.337.583.337.933q0,7.1,0,14.2c0,1.384.368,1.754,1.743,1.756,2.135,0,4.27-.015,6.4.008a1.35,1.35,0,0,0,1.56-1.214,6.335,6.335,0,0,1,3.182-.071" transform="translate(-12.555 -154.95)" fill="#fe6672"/>
        <path id="Trazado_203658" data-name="Trazado 203658" d="M298.331,17.962c-.011-.711-.02-1.421-.034-2.132-.006-.314.024-.611.349-.767.38-.183.616.073.854.3.217.209.428.424.641.637l23.63,23.631c.919.919.919.935-.026,1.881-1.935,1.936-3.857,3.884-5.812,5.8a1.442,1.442,0,0,0-.317,2.035l-2.2,2.249c-.922-.518-1.281-.467-2.078.328q-6.722,6.717-13.44,13.438c-.174.174-.348.347-.527.516a.621.621,0,0,1-.745.163.611.611,0,0,1-.324-.613c.012-.764.021-1.527.031-2.291a3.042,3.042,0,0,1,.7-.9Q309.57,51.7,320.111,41.154a2.8,2.8,0,0,1,.7-.592,5.523,5.523,0,0,1-.755-.675Q309.574,29.4,299.09,18.921a3.3,3.3,0,0,1-.759-.959" transform="translate(-249.164 -12.53)" fill="#e0f6be"/>
        <path id="Trazado_203659" data-name="Trazado 203659" d="M100.736,32.983c.2.182.415.354.608.546q10.716,10.712,21.442,21.413c.512.509.511.748,0,1.257q-10.742,10.685-21.442,21.413c-.192.192-.4.365-.608.546q-.017-6.072-.033-12.144c0-1.5-.338-1.837-1.821-1.841l-14.935-.033c-.275-.3-.191-.671-.194-1.018-.011-1.4.019-2.792-.011-4.188a4.171,4.171,0,0,0-3.653-4.272,3.676,3.676,0,0,0-3.283,1.123q-3.824,3.84-7.662,7.667a1.89,1.89,0,0,1-1.084.69c-1.833.01-3.665.016-5.5.033-.6.005-.82-.287-.819-.863.007-5.144.015-10.288-.006-15.432,0-.918.558-.9,1.2-.9q13.38.006,26.76,0,4.6,0,9.193,0c1.476,0,1.808-.346,1.812-1.851q.015-6.073.033-12.146" transform="translate(-51.569 -27.55)" fill="#a7e446"/>
        <path id="Trazado_203660" data-name="Trazado 203660" d="M180.915,305.618a1.6,1.6,0,0,1,.96-.1q16.514-.009,33.028-.005c1.134,0,1.135,0,1.135-1.131q0-7.435,0-14.871a1.744,1.744,0,0,0-.15-1.039c.656-.011,1.312-.02,1.968-.035.573-.013.851.237.85.835q-.012,7.759,0,15.519c0,.594-.268.848-.843.845-.794,0-1.587.008-2.381.008q-17,0-33.994,0c-.191,0-.382-.018-.572-.028" transform="translate(-151.117 -240.931)" fill="#f82f41"/>
        <path id="Trazado_203661" data-name="Trazado 203661" d="M291.318,288.31a15.586,15.586,0,0,0-1.841,1.744q-3.347,3.326-6.673,6.673a4.009,4.009,0,0,1-4.711.98,4.217,4.217,0,0,1-2.676-3.98c-.067-1.8-.017-3.61-.019-5.415.191-.011.383-.007.571-.036.569-.085.751.134.737.717-.039,1.558-.014,3.118-.012,4.677a3.064,3.064,0,0,0,5.274,2.2c2.178-2.154,4.382-4.285,6.48-6.515a2.892,2.892,0,0,1,2.87-1.044" transform="translate(-230.025 -240.77)" fill="#f82f41"/>
        <path id="Trazado_203662" data-name="Trazado 203662" d="M100.121,172.6q2.624-2.588,5.247-5.177,1.631-1.615,3.246-3.247a4.01,4.01,0,0,1,4.717-.97,4.2,4.2,0,0,1,2.665,3.983c.061,1.8.013,3.606.013,5.41-.218.011-.438.005-.652.037-.514.074-.649-.145-.64-.643.029-1.557,0-3.114.012-4.672a3.072,3.072,0,0,0-5.333-2.226c-2.148,2.141-4.336,4.245-6.412,6.453a2.871,2.871,0,0,1-2.862,1.052" transform="translate(-83.63 -136.007)" fill="#e0f6be"/>
      </g>
    </g>
  </g>
</svg>
