<svg xmlns="http://www.w3.org/2000/svg" xmlns:xlink="http://www.w3.org/1999/xlink" width="365.353" height="256.474" viewBox="0 0 365.353 256.474">
  <defs>
    <clipPath id="clip-path">
      <rect id="Rectángulo_88111" data-name="Rectángulo 88111" width="149.031" height="256.474" fill="none"/>
    </clipPath>
    <clipPath id="clip-path-2">
      <rect id="Rectángulo_88104" data-name="Rectángulo 88104" width="149.032" height="256.475" fill="none"/>
    </clipPath>
    <clipPath id="clip-path-3">
      <rect id="Rectángulo_88103" data-name="Rectángulo 88103" width="16.728" height="11.976" fill="none"/>
    </clipPath>
    <clipPath id="clip-path-5">
      <rect id="Rectángulo_88105" data-name="Rectángulo 88105" width="48.09" height="146.443" fill="#972d31"/>
    </clipPath>
    <clipPath id="clip-path-6">
      <rect id="Rectángulo_88106" data-name="Rectángulo 88106" width="44.712" height="145.898" fill="#972d31"/>
    </clipPath>
    <clipPath id="clip-path-7">
      <rect id="Rectángulo_88107" data-name="Rectángulo 88107" width="20.285" height="14.469" fill="#fc4b52"/>
    </clipPath>
    <clipPath id="clip-path-8">
      <rect id="Rectángulo_88108" data-name="Rectángulo 88108" width="11.683" height="11.736" fill="none"/>
    </clipPath>
  </defs>
  <g id="Grupo_138605" data-name="Grupo 138605" transform="translate(3370.353 7185)">
    <path id="Trazado_206649" data-name="Trazado 206649" d="M100.744,449.28C75.079,421.334,40,392.479,53.757,348.891c9.047-28.669,31.229-36.661,49.668-54.339,9.1-8.725,3.376-21.424,3.207-34.028-.386-32.278,35.636-57.324,68.753-56.8,35.871.566,51.4,36.63,81.489,38.564,11.816.181,22.4-6.753,32.85-12.261,30.976-16.321,80.128-5.913,82.612,33.558.641,21.316-23.62,55.611.688,66.822,19.373,8.935,38.944,12.227,42.435,44.185,4.57,41.83-19.588,64.787-51.068,75.553Z" transform="translate(-3421.016 -7378.668)" fill="#f3f9ff"/>
    <g id="Grupo_137804" data-name="Grupo 137804" transform="translate(-3252.366 -7185)">
      <g id="Grupo_137803" data-name="Grupo 137803" clip-path="url(#clip-path)">
        <g id="Grupo_137786" data-name="Grupo 137786" transform="translate(0 -0.001)">
          <g id="Grupo_137785" data-name="Grupo 137785" clip-path="url(#clip-path-2)">
            <path id="Trazado_206650" data-name="Trazado 206650" d="M52.755,61.495l-22.3,18.019c-4.279,3.423-7.969,6.5-9.73,8.268l-.029.029c-.665.665-1.049,1.143-1.07,1.372a.137.137,0,0,0-.006.047c.155,1.964,26.5,36.958,27.828,37.869s4.033-2.808,4.094-4.982-4.039-20.088-4.039-20.088l22.1-18.209Z" transform="translate(37.886 118.736)" fill="#ad6359"/>
            <path id="Trazado_206651" data-name="Trazado 206651" d="M35.033,66.382s-4.557,3.684-4.575,3.7c-4.279,3.423-7.969,6.5-9.73,8.268a.07.07,0,0,0-.029.029,7.387,7.387,0,0,0-1.067,1.372c0,.018-.012.032-.009.047.155,1.964,26.5,36.958,27.828,37.869s4.033-2.808,4.094-4.982-4.039-20.088-4.039-20.088l4.7-3.687Z" transform="translate(37.886 128.172)" fill="#ebebeb"/>
            <path id="Trazado_206652" data-name="Trazado 206652" d="M47.454,115.324c-1.336-.911-27.676-35.9-27.831-37.872-.073-.747,4.8-4.883,10.835-9.71l.193-.149L47.9,89.979l-.39.278s4.091,17.9,4.039,20.088-2.767,5.9-4.091,4.979" transform="translate(37.886 130.511)" fill="#455a64"/>
            <path id="Trazado_206653" data-name="Trazado 206653" d="M47.228,106.763c-4.3-6.008-22.189-29.833-26.89-35.445-.038-.044-.07-.021-.038.029,4.127,6.046,22.213,29.727,26.832,35.489.1.12.188.053.1-.073" transform="translate(39.169 137.657)" fill="#263238"/>
            <path id="Trazado_206654" data-name="Trazado 206654" d="M34.149,79.778c-1.313-2.647-3.807-5.217-6.8-5.747-.117-.021-.144.147-.062.2A41.092,41.092,0,0,1,33.85,79.99a.185.185,0,0,0,.3-.211" transform="translate(52.603 142.938)" fill="#263238"/>
            <path id="Trazado_206655" data-name="Trazado 206655" d="M34.235,80.609c-1.313-2.647-3.807-5.217-6.8-5.747-.114-.021-.144.147-.062.2a41.093,41.093,0,0,1,6.559,5.756.185.185,0,0,0,.3-.211" transform="translate(52.769 144.543)" fill="#263238"/>
            <path id="Trazado_206656" data-name="Trazado 206656" d="M34.321,81.44c-1.313-2.647-3.807-5.217-6.8-5.747-.117-.021-.144.147-.062.2a41.1,41.1,0,0,1,6.559,5.756.185.185,0,0,0,.3-.211" transform="translate(52.935 146.147)" fill="#263238"/>
            <path id="Trazado_206657" data-name="Trazado 206657" d="M57.388,102.508c-1.577,7.8-33.924,38.9-33.924,38.9L46.017,167.44s45.92-45.838,43.523-63.062C87.455,89.393,65.026,29.141,65.026,29.141H39.147s19.795,65.7,18.241,73.367" transform="translate(45.305 56.267)" fill="#98791b"/>
            <path id="Trazado_206658" data-name="Trazado 206658" d="M43.992,88.405c-3-3.731-2.084-2.7-5.123-6.4C37.383,80.2,27.6,68.323,25.92,66.879c-.038-.032-.1.021-.073.062,1.125,1.911,11.111,13.614,12.632,15.4,3.11,3.634,2.257,2.559,5.407,6.161a.07.07,0,0,0,.106-.091" transform="translate(49.894 129.112)" fill="#263238"/>
            <path id="Trazado_206659" data-name="Trazado 206659" d="M55.24,96.929c-.369-1.946-.791-3.883-1.2-5.824q-1.262-5.935-2.67-11.84-2.792-11.707-6.079-23.288C43.08,48.234,40.75,40.5,38.063,32.909c-.331-.938-.674-1.873-1.017-2.808a.058.058,0,0,0-.111.035c2.324,7.605,4.722,15.19,6.9,22.843,2.175,7.617,4.182,15.278,6.079,22.972.95,3.863,1.835,7.74,2.7,11.624q.637,2.858,1.246,5.727a41.017,41.017,0,0,1,1.081,5.906,8.974,8.974,0,0,1-1.518,5.316c-.97,1.589-2.113,3.083-3.215,4.578-2.213,3-23.277,26.471-23.954,27.11-.053.05.029.123.082.076,2.825-2.538,20.7-21.881,22.969-24.877q1.684-2.22,3.291-4.5a17.78,17.78,0,0,0,2.57-4.531,10.7,10.7,0,0,0,.07-5.451" transform="translate(50.665 58.045)" fill="#263238"/>
            <path id="Trazado_206660" data-name="Trazado 206660" d="M32.331,72.457s5.586,27.2,5.586,27.221c.073,5.478.237,10.281.554,12.755l.006.041a3.809,3.809,0,0,0,.428,1.688c.012.012.018.026.032.032,1.644,1.084,45.442,1.761,46.978,1.272s.258-4.906-1.421-6.287-18.338-9.144-18.338-9.144L60.3,72.853Z" transform="translate(62.425 139.902)" fill="#ad6359"/>
            <path id="Trazado_206661" data-name="Trazado 206661" d="M82.874,100.649c-1.536.489-45.337-.188-46.978-1.269-.015-.006-.023-.02-.038-.035a3.9,3.9,0,0,1-.425-1.688l-.006-.041c-.317-2.474-.475-7.274-.554-12.752l-.967-4.733H62.018l1.093,5.088s16.65,7.761,18.344,9.147c1.671,1.383,2.96,5.8,1.418,6.284" transform="translate(65.466 154.717)" fill="#ebebeb"/>
            <path id="Trazado_206662" data-name="Trazado 206662" d="M82.232,97.694c-1.539.492-45.331-.188-46.981-1.275-.633-.4-.906-6.788-1.014-14.513v-.243l28.256.123-.018.481s16.647,7.758,18.335,9.141,2.96,5.8,1.421,6.287" transform="translate(66.105 157.675)" fill="#455a64"/>
            <path id="Trazado_206663" data-name="Trazado 206663" d="M79.791,86.946c-7.38-.3-37.171-.791-44.487-.525-.062,0-.062.044,0,.047,7.307.454,37.1.709,44.484.6.158,0,.158-.114,0-.12" transform="translate(68.077 166.717)" fill="#263238"/>
            <path id="Trazado_206664" data-name="Trazado 206664" d="M50.439,82.073c-2.9-.586-6.457-.2-8.707,1.838-.088.079.026.2.12.176a40.935,40.935,0,0,1,8.57-1.647.186.186,0,0,0,.018-.366" transform="translate(80.515 157.988)" fill="#263238"/>
            <path id="Trazado_206665" data-name="Trazado 206665" d="M51.148,82.516c-2.9-.586-6.457-.2-8.707,1.838-.088.079.026.2.12.176a40.935,40.935,0,0,1,8.57-1.647.186.186,0,0,0,.018-.366" transform="translate(81.884 158.844)" fill="#263238"/>
            <path id="Trazado_206666" data-name="Trazado 206666" d="M51.856,82.958c-2.9-.586-6.457-.2-8.707,1.838-.088.079.026.2.12.176a40.935,40.935,0,0,1,8.57-1.647.186.186,0,0,0,.018-.366" transform="translate(83.251 159.697)" fill="#263238"/>
            <path id="Trazado_206667" data-name="Trazado 206667" d="M63.549,29.147A106.023,106.023,0,0,0,61.325,42.06c-.539,5.416-1.213,10.205-1.937,10.8-.818.671-4.906,3.3-6.284,4.141,0,0,12.752,38.652,16.043,51.538,4.768,18.678,16.193,74.718,16.193,74.718l-30.439,0s-9.258-53.352-13.3-71.134C38.127,96.878,24.836,51.14,24.836,51.14a26.562,26.562,0,0,1,1.076-21.993s37.64-.021,37.637,0" transform="translate(44.284 56.261)" fill="#98791b"/>
            <path id="Trazado_206668" data-name="Trazado 206668" d="M62.39,79.747c-4.783-.026-3.411-.085-8.195-.059-2.342.015-17.726.12-19.909.516a.05.05,0,0,0,0,.1c2.192.328,17.573-.044,19.915-.1,4.78-.12,3.406-.138,8.189-.311a.07.07,0,0,0,0-.141" transform="translate(66.134 153.852)" fill="#263238"/>
            <path id="Trazado_206669" data-name="Trazado 206669" d="M41.67,36.73a58.183,58.183,0,0,0-8.4,5.621.1.1,0,0,0,.111.173c2.846-1.782,5.762-3.52,8.505-5.457a.2.2,0,0,0-.22-.337" transform="translate(64.159 70.867)" fill="#263238"/>
            <path id="Trazado_206670" data-name="Trazado 206670" d="M38.474,29.587c-.023-.106-.214-.1-.193.015a102.967,102.967,0,0,1,1.07,10.27c.1,1.591.185,10.469-2.638,10.258-.472-.035-.774-.445-.953-1.123a10.947,10.947,0,0,1-.05-2.72c.018-1.864-.021-3.725-.149-5.583a50.353,50.353,0,0,0-1.706-10.252.088.088,0,0,0-.173.035,95.661,95.661,0,0,1,1.372,14.305c.009,2.312-.6,5.888,1.814,5.867C39.33,50.642,40,44.7,40.051,43.1a52.541,52.541,0,0,0-1.577-13.514" transform="translate(65.03 56.982)" fill="#263238"/>
            <path id="Trazado_206671" data-name="Trazado 206671" d="M35.031,36.778a14.8,14.8,0,0,0-.334,1.893,4.151,4.151,0,0,0-.023,1.521c.023.094.152.082.193.009a5.266,5.266,0,0,0,.41-1.536c.12-.589.255-1.175.358-1.767a.308.308,0,0,0-.6-.12" transform="translate(66.821 70.555)" fill="#263238"/>
            <path id="Trazado_206672" data-name="Trazado 206672" d="M37.921,99.941c-.082-.7-.176-1.407-.275-2.11-.191-1.348-.416-2.693-.624-4.039-.416-2.708-.882-5.4-1.36-8.1-.955-5.375-2.057-10.733-3.221-16.067-.656-3.016-1.421-6-2.227-8.974-.056-.208-.349-.108-.314.094.489,2.726.961,5.454,1.518,8.168s1.111,5.413,1.65,8.121c1.064,5.355,2.054,10.727,3.113,16.081.3,1.512.572,3.03.868,4.543.147.753.3,1.509.46,2.26s.4,1.486.519,2.242c.012.07.12.038.108-.032-.117-.721-.132-1.46-.214-2.186" transform="translate(57.724 116.884)" fill="#263238"/>
            <path id="Trazado_206673" data-name="Trazado 206673" d="M52.317,101.69c-1.014-5.053-2.38-10.038-3.754-15C45.8,76.7,42.539,66.858,39.289,57.016q-1.4-4.251-2.808-8.505c-.469-1.416-2.764-9.062-3.048-9.786a.063.063,0,0,0-.12.035c.659,2.6,1.562,6.4,2.321,8.977.75,2.547,1.571,5.076,2.362,7.611,1.553,4.985,3.136,9.962,4.645,14.959,2.986,9.877,5.95,19.751,8.37,29.786.68,2.811,1.354,5.618,1.975,8.441s1.146,5.656,1.738,8.482c.015.076.144.059.138-.021-.51-5.149-1.53-10.237-2.547-15.3" transform="translate(64.318 74.69)" fill="#263238"/>
            <path id="Trazado_206674" data-name="Trazado 206674" d="M51.756,145.659c-1.676-9.637-3.684-19.22-5.906-28.742Q42.5,102.558,38.386,88.4c-2.743-9.437-5.78-18.792-9.044-28.063a117.522,117.522,0,0,1-4.132-13.35c-1.005-4.5-1.515-9.37-.466-13.91a23.484,23.484,0,0,1,1.04-3.382c.032-.076-.079-.141-.111-.062-3.664,8.529-1.287,17.86,1.5,26.272,1.527,4.607,3.156,9.179,4.663,13.8q2.317,7.1,4.443,14.273c2.811,9.467,5.419,18.989,7.755,28.584s4.417,19.25,6.248,28.951c1.838,9.736,3.382,19.513,4.95,29.3.2,1.272.363,2.553.53,3.831.009.07.123.067.114,0-1.175-9.692-2.447-19.349-4.121-28.971" transform="translate(45.954 57.143)" fill="#263238"/>
            <path id="Trazado_206675" data-name="Trazado 206675" d="M23.053,72.348c.123.1,45.706-6.231,46.055-6.758.487-.739-18.367-46.465-23.91-51.9-1.187-1.164-4.537-1.055-7.292-.308a12.446,12.446,0,0,0-2.1.747.36.36,0,0,1-.07.029,5.331,5.331,0,0,0-1.477,1C27.341,22.5,25.421,43.037,24.815,49.8c-1.011,11.134-2.2,22.177-1.761,22.553" transform="translate(44.332 24.751)" fill="#fff7e0"/>
            <path id="Trazado_206676" data-name="Trazado 206676" d="M39.9,13.012s14.235,14.376,15.627,19.54,1.63,38.558,1.63,38.558L21.928,76.089S25.5,56.836,25.4,55.658c0,0,2.008-22.013,5.7-31.826,4.191-11.149,8.8-10.821,8.8-10.821" transform="translate(42.339 25.122)" fill="#cba124"/>
            <path id="Trazado_206677" data-name="Trazado 206677" d="M30.639,13.02s8.458,17.092,9.03,18.743,12.26,37.4,12.26,37.4l3.877-3.039-5.9-14.736S34.669,16.895,30.639,13.02" transform="translate(59.158 25.14)" fill="#cba124"/>
            <path id="Trazado_206678" data-name="Trazado 206678" d="M33.141,15.554C44.219,21.512,62.59,36.8,63.284,41.192c.5,3.177.648,6.325-.536,8.03-2.415,3.479-7.9,3.385-9.886,2.286-8.684-4.807-18.379-15.9-24.886-27.646-5.7-10.3,1.553-10.249,5.164-8.309" transform="translate(49.939 28.084)" fill="#cba124"/>
            <path id="Trazado_206679" data-name="Trazado 206679" d="M48.453,30.737c-4.736-4.147-10.425-8.652-15.369-12.561l-2.242-1.744A85.311,85.311,0,0,1,48.453,30.737" transform="translate(59.55 31.728)" fill="#37474f"/>
            <path id="Trazado_206680" data-name="Trazado 206680" d="M27.234,18.838A84.839,84.839,0,0,0,40.713,35.412q1.921,1.86,3.96,3.587c2.649,2.216,5.613,4.61,9.247,4.464A11.417,11.417,0,0,0,58.981,42.1a9.558,9.558,0,0,1-5.041,1.87c-3.79.3-6.884-2.3-9.6-4.581q-2.049-1.745-3.951-3.649a78.778,78.778,0,0,1-13.156-16.9" transform="translate(52.584 36.374)" fill="#37474f"/>
            <path id="Trazado_206681" data-name="Trazado 206681" d="M29.524,21.535a5.906,5.906,0,0,1-2.351-2.289,19.482,19.482,0,0,1,2.351,2.289" transform="translate(52.466 37.162)" fill="#37474f"/>
            <path id="Trazado_206682" data-name="Trazado 206682" d="M37.56,18.4c-2.424-1.386-7.778-4.789-10.349-2.764-2.239,2.353.78,8.016,1.97,10.513A23.15,23.15,0,0,1,26.5,20.989a7.77,7.77,0,0,1-.5-4.42c1.753-4.894,9.044-.182,11.562,1.835" transform="translate(49.907 27.842)" fill="#37474f"/>
            <path id="Trazado_206683" data-name="Trazado 206683" d="M47.008,20.312c-5.926-2.307-7.884-1.656-9.534-.909-3.447,1.556-8.532,5.53-7.125,7.928,1.275,2.172,8.373-4.49,8.373-4.49s-8.359,5.6-6.345,7.931S42.193,24.9,42.193,24.9s-8.458,5.944-6,8.022c1.858,1.568,9.343-5.463,9.343-5.463s-7.236,5.161-5.4,6.858c2.034,1.873,9.349-4.182,9.349-4.182A10.152,10.152,0,0,0,53,30.374c.648-.27-2.019-8.514-5.994-10.061" transform="translate(58.135 36.128)" fill="#ad6359"/>
            <path id="Trazado_206684" data-name="Trazado 206684" d="M39.819,19.4c-1.005.621-2.028,1.246-2.975,1.955S34.974,22.8,34.1,23.6a20.264,20.264,0,0,0-3.118,3.414,43.61,43.61,0,0,1,6.067-5.407c.947-.706,1.855-1.462,2.8-2.172.023-.018-.006-.05-.029-.035" transform="translate(59.808 37.449)" fill="#263238"/>
            <path id="Trazado_206685" data-name="Trazado 206685" d="M39.624,20.549C38.376,21.4,37.1,22.2,35.89,23.1s-2.274,1.861-3.414,2.843c-.088.076-.021.1.073.026,1.178-.935,2.342-1.709,3.532-2.632s2.348-1.887,3.567-2.761c.018-.015-.006-.041-.023-.029" transform="translate(62.626 39.672)" fill="#263238"/>
            <path id="Trazado_206686" data-name="Trazado 206686" d="M39.42,21.4a33.8,33.8,0,0,0-5.413,4.341c-.082.079.012.1.1.023,1.773-1.477,3.154-2.649,5.355-4.3.035-.023,0-.094-.041-.067" transform="translate(65.6 41.311)" fill="#263238"/>
            <path id="Trazado_206687" data-name="Trazado 206687" d="M37.119,24.164c-2.1.712-7.6-1.905-9.417-4.824-.123-.2-.05-7.333-.144-8.989-.021-.337,10.516,1.931,10.516,1.931a26.434,26.434,0,0,0-.639,6.407,3.714,3.714,0,0,0,.108.677.652.652,0,0,1,.021.108c.284,1.281,1.8,3.93-.445,4.689" transform="translate(53.211 19.922)" fill="#ad6359"/>
            <path id="Trazado_206688" data-name="Trazado 206688" d="M37.306,19.353c0,.032.015.073.018.111a6.709,6.709,0,0,1-1.058.117c-6.114.211-8.159-7.339-8.581-9.258,1.858.161,10.149,1.949,10.149,1.949a26.4,26.4,0,0,0-.642,6.41,3.643,3.643,0,0,0,.114.671" transform="translate(53.453 19.933)" fill="#263238"/>
            <path id="Trazado_206689" data-name="Trazado 206689" d="M25.946,11.651c-.3,3.839,3.892,13.81,6.964,15.563,4.449,2.541,10.592,1.521,12.462-3.57,1.811-4.933-3.886-17.831-7.207-19.305C33.27,2.167,26.395,5.98,25.946,11.651" transform="translate(50.067 7.184)" fill="#ad6359"/>
            <path id="Trazado_206690" data-name="Trazado 206690" d="M29.5,7.871c-.015-.023-.038.053-.026.082.3.662.533,1.474.018,1.949-.018.015,0,.05.021.038.7-.413.378-1.489-.012-2.069" transform="translate(56.903 15.19)" fill="#263238"/>
            <path id="Trazado_206691" data-name="Trazado 206691" d="M29.53,7.732c-1.117.366-.3,2.573.733,2.233s.2-2.541-.733-2.233" transform="translate(55.982 14.874)" fill="#263238"/>
            <path id="Trazado_206692" data-name="Trazado 206692" d="M30.845,7.414c-.006-.029.064.012.076.041.229.692.61,1.445,1.313,1.442.021,0,.032.035.009.041-.794.173-1.29-.832-1.4-1.524" transform="translate(59.556 14.296)" fill="#263238"/>
            <path id="Trazado_206693" data-name="Trazado 206693" d="M31.206,7.133c1.07-.489,1.97,1.682.979,2.137-.973.448-1.876-1.726-.979-2.137" transform="translate(59.541 13.636)" fill="#263238"/>
            <path id="Trazado_206694" data-name="Trazado 206694" d="M29.3,8.79c.273-.188.492-.4.744-.615a1.571,1.571,0,0,0,.636-.777.492.492,0,0,0-.284-.536,1.234,1.234,0,0,0-1.21.314,1.817,1.817,0,0,0-.706,1.1.531.531,0,0,0,.821.519" transform="translate(54.966 13.131)" fill="#263238"/>
            <path id="Trazado_206695" data-name="Trazado 206695" d="M32.546,7.413a8.825,8.825,0,0,1-.961.1,1.576,1.576,0,0,1-1-.088.5.5,0,0,1-.182-.58,1.233,1.233,0,0,1,1.07-.642,1.811,1.811,0,0,1,1.278.264.531.531,0,0,1-.205.95" transform="translate(58.643 11.929)" fill="#263238"/>
            <path id="Trazado_206696" data-name="Trazado 206696" d="M30.107,10.285a1.1,1.1,0,0,0,.724.188,1.927,1.927,0,0,0,.671-.443.024.024,0,0,1,.041.023.978.978,0,0,1-.73.692.777.777,0,0,1-.762-.4c-.023-.035.023-.07.056-.056" transform="translate(58.011 19.353)" fill="#263238"/>
            <path id="Trazado_206697" data-name="Trazado 206697" d="M30.074,14.939a2.476,2.476,0,0,0,1.937.46,3.055,3.055,0,0,0,.85-.27.928.928,0,0,0,.152-.079,1.424,1.424,0,0,0,.144-.079.182.182,0,0,0,.079-.2l0-.006A.353.353,0,0,0,33.2,14.7V14.69l-.023-.059c-.182-.53-.528-1.313-.528-1.313.226.026,1.372.106,1.254-.164A37.394,37.394,0,0,0,30.4,6.445a.068.068,0,0,0-.12.062c.856,2.178,2.087,4.188,2.981,6.36a4.435,4.435,0,0,0-1.222.073c-.064.05.7,1.5.762,1.744l0,.026a3.442,3.442,0,0,1-2.685.144c-.064-.021-.1.047-.041.085" transform="translate(58.006 12.386)" fill="#263238"/>
            <g id="Grupo_137784" data-name="Grupo 137784" transform="translate(79.062 23.758)" opacity="0.3">
              <g id="Grupo_137783" data-name="Grupo 137783">
                <g id="Grupo_137782" data-name="Grupo 137782" clip-path="url(#clip-path-3)">
                  <path id="Trazado_206698" data-name="Trazado 206698" d="M43.356,15.178c-1.87,5.085-8.013,6.108-12.465,3.567-1.243-.709-2.673-2.775-3.916-5.229L28.289,8.9s1.893,2.869,3.494,3.347c2.2.662,5.9.023,6.553-2.342l1.2-.407s2.931.859,3.447-1.389c.739,2.773,1,5.387.378,7.072" transform="translate(-26.977 -8.106)" fill="#263238"/>
                </g>
              </g>
            </g>
            <path id="Trazado_206699" data-name="Trazado 206699" d="M28.7,20.639c1.615-.082,2.016-1.618,2.09-2.667s-2.128-6.553-1.87-8.174a3.358,3.358,0,0,1,2.872-2.945c1.336-.047,3.441,1.026,4.311.645s.437-2.394,1.061-2.6c1.375-.46,3.957,2.447,4.707,3.872,0,0-2.113-6.468-8.892-4.859-6.615,1.568-7.21,6.668-7.125,8.79A17.506,17.506,0,0,0,28.7,20.639" transform="translate(49.901 7.049)" fill="#263238"/>
            <path id="Trazado_206700" data-name="Trazado 206700" d="M30.674,10.262s-3.148-2.778-4.464-1.577,1.615,5.624,3.558,5.856a1.864,1.864,0,0,0,2.192-1.562Z" transform="translate(49.973 16.189)" fill="#ad6359"/>
            <path id="Trazado_206701" data-name="Trazado 206701" d="M26.3,8.927a.025.025,0,0,0,0,.05,4.71,4.71,0,0,1,3.06,2.292,1.029,1.029,0,0,0-1.562.091c-.026.029.018.073.05.059a1.148,1.148,0,0,1,1.322.091,5.532,5.532,0,0,1,.826.85c.085.1.273-.012.2-.129l-.018-.026c-.355-1.6-2.131-3.532-3.88-3.277" transform="translate(50.749 17.194)" fill="#263238"/>
            <path id="Trazado_206702" data-name="Trazado 206702" d="M37.724,14.855l-.208,4.511-9.783-6.923-.264,2.567,9.865,8.241.413-3.4,2.389,1.63-1.073-4.868Z" transform="translate(53.037 24.025)" fill="#ebebeb"/>
            <path id="Trazado_206703" data-name="Trazado 206703" d="M27.469,13.318c3.365,2.655,6.671,5.381,9.959,8.13l-.234.094.425-3.4.026-.211.173.123,2.374,1.653-.149.1c-.343-1.624-.657-3.256-.979-4.889.413,1.694.835,3.385,1.222,5.085.038.018-2.556-1.7-2.611-1.738l.2-.091-.4,3.4-.029.261c-3.362-2.8-6.7-5.621-9.979-8.52" transform="translate(53.037 25.716)" fill="#263238"/>
            <path id="Trazado_206704" data-name="Trazado 206704" d="M27.782,15.244l-.437-2.778a62.49,62.49,0,0,1,5.548,4.021c.478.651,5.595,7.6,5.595,7.6s-9.3-5.812-10.706-8.845" transform="translate(52.798 24.071)" fill="#cba124"/>
          </g>
        </g>
        <g id="Grupo_137800" data-name="Grupo 137800" transform="translate(0 -0.001)">
          <g id="Grupo_137799" data-name="Grupo 137799" clip-path="url(#clip-path-2)">
            <path id="Trazado_206705" data-name="Trazado 206705" d="M.689,116.441c1.521.475,45.932-.484,47.552-1.565.624-.4-3.18-42.467-3.18-42.467L16.9,72.947l3.2,28.136s-16.386,7.764-18.045,9.144-2.884,5.744-1.363,6.213" transform="translate(0 139.807)" fill="#eb9481"/>
            <path id="Trazado_206706" data-name="Trazado 206706" d="M.689,95.024c1.518.475,45.932-.487,47.552-1.568.2-.123.255-4.393-.451-9.956-8.054,1.348-36.8,5.762-39.035,4.446-1.562-.917-.179-2.351,1.1-3.318a78.839,78.839,0,0,0-7.8,4.182C.4,90.182-.829,94.558.689,95.024" transform="translate(0 161.224)" fill="#263238"/>
            <path id="Trazado_206707" data-name="Trazado 206707" d="M10.4,176.368l27.649-.39s-5.478-66.228-5.249-67.5c.29-1.63,19.909-78.555,19.909-78.555H26.316S5.5,101.62,4.757,108.528C3.55,119.683,10.4,176.368,10.4,176.368" transform="translate(8.909 57.779)" fill="#ffc727"/>
            <g id="Grupo_137789" data-name="Grupo 137789" transform="translate(13.525 87.703)">
              <g id="Grupo_137788" data-name="Grupo 137788">
                <g id="Grupo_137787" data-name="Grupo 137787" clip-path="url(#clip-path-5)">
                  <path id="Trazado_206708" data-name="Trazado 206708" d="M10.4,176.368l27.649-.39s-5.478-66.228-5.249-67.5c.29-1.63,19.909-78.555,19.909-78.555H26.316S5.5,101.62,4.757,108.528C3.55,119.683,10.4,176.368,10.4,176.368" transform="translate(-4.615 -29.924)" fill="#972d31"/>
                </g>
              </g>
            </g>
            <path id="Trazado_206709" data-name="Trazado 206709" d="M31.836,77.72c-1.632-.117-3.285-.1-4.924-.12s-3.28-.026-4.918-.009c-3.28.032-6.559.082-9.836.173-.9.026-1.794.053-2.69.094-.958.047-1.914.208-2.872.246a.057.057,0,0,0,0,.114c.806.009,1.612.129,2.418.152.835.023,1.671.029,2.506.029q2.462,0,4.921-.021c3.277-.026,6.559-.07,9.833-.205,1.852-.076,3.722-.1,5.563-.287a.084.084,0,0,0,0-.167" transform="translate(12.633 149.794)" fill="#263238"/>
            <path id="Trazado_206710" data-name="Trazado 206710" d="M31.319,32.063c-2.362,8.362-4.519,16.8-6.635,25.226s-4.223,16.864-6.322,25.3q-1.578,6.326-3.148,12.655c-1.023,4.106-2.21,8.233-2.462,12.476a90.4,90.4,0,0,0,.654,12.96q.55,6.476,1.1,12.951c.756,8.637,1.483,17.28,2.421,25.9q.18,1.618.343,3.236c.012.094.152.091.147,0-.572-8.643-1.169-17.28-1.858-25.911q-.519-6.48-1.055-12.954c-.355-4.308-.856-8.634-.994-12.957a46.238,46.238,0,0,1,1.712-12.752q1.547-6.194,3.1-12.383,3.165-12.652,6.319-25.3c2.342-9.446,4.681-18.91,6.75-28.42a.041.041,0,0,0-.079-.021" transform="translate(24.493 61.853)" fill="#263238"/>
            <path id="Trazado_206711" data-name="Trazado 206711" d="M37.847,29.924s-8.417,33-14.308,56.231L12.311,29.924Z" transform="translate(23.77 57.779)" fill="#722124"/>
            <path id="Trazado_206712" data-name="Trazado 206712" d="M12.005,116.491c1.521.475,45.932-.484,47.552-1.565.624-.4-1.694-42.491-1.694-42.491l-27.8.536,1.345,28.162s-16.386,7.764-18.045,9.144-2.884,5.744-1.363,6.213" transform="translate(21.849 139.859)" fill="#eb9481"/>
            <path id="Trazado_206713" data-name="Trazado 206713" d="M12,95.063c1.518.472,45.932-.487,47.552-1.568.2-.123.149-4.285-.006-9.962C51.5,84.881,22.306,89.3,20.07,87.985c-1.562-.917-.179-2.351,1.1-3.318a78.826,78.826,0,0,0-7.8,4.182C11.72,90.221,10.487,94.6,12,95.063" transform="translate(21.849 161.288)" fill="#263238"/>
            <path id="Trazado_206714" data-name="Trazado 206714" d="M12.31,29.92s.768,12.617,3.784,22.582c.24.824.5,1.635.783,2.412a46.745,46.745,0,0,1,7.655,3.813s1.9,48.265,1.867,51.263c-.123,11.213,2.743,65.829,2.743,65.829l27.881-.267s-2.89-61.761-2.9-65.867c-.015-3.974-1.9-29.036-3.581-50.765,0,0,2.479-6.94,2.207-10.445-.665-8.5-4.475-18.543-4.475-18.543Z" transform="translate(23.768 57.771)" fill="#ffc727"/>
            <g id="Grupo_137792" data-name="Grupo 137792" transform="translate(36.079 87.692)" opacity="0.98">
              <g id="Grupo_137791" data-name="Grupo 137791">
                <g id="Grupo_137790" data-name="Grupo 137790" clip-path="url(#clip-path-6)">
                  <path id="Trazado_206715" data-name="Trazado 206715" d="M12.31,29.92s.768,12.617,3.784,22.582c.24.824.5,1.635.783,2.412a46.745,46.745,0,0,1,7.655,3.813s1.9,48.265,1.867,51.263c-.123,11.213,2.743,65.829,2.743,65.829l27.881-.267s-2.89-61.761-2.9-65.867c-.015-3.974-1.9-29.036-3.581-50.765,0,0,2.479-6.94,2.207-10.445-.665-8.5-4.475-18.543-4.475-18.543Z" transform="translate(-12.311 -29.921)" fill="#972d31"/>
                </g>
              </g>
            </g>
            <path id="Trazado_206716" data-name="Trazado 206716" d="M18.354,45.336l-.317-2.1c-.2-1.278-.457-2.55-.68-3.822-.51-2.893-1.038-5.794-1.682-8.661a.065.065,0,0,0-.126.021c.114,1.158.249,2.312.413,3.464s.276,2.309.44,3.461c.322,2.286.639,4.572,1.029,6.846.149.876.7,2.447-.566,2.72-1,.214-1.729-.765-2.025-1.589a19.855,19.855,0,0,1-.671-3.154q-.308-1.732-.551-3.47c-.355-2.526-.747-5.044-1.158-7.561-.012-.07-.126-.05-.126.021.082,2.594.22,5.161.56,7.737.164,1.228.346,2.456.554,3.678a12.927,12.927,0,0,0,.847,3.426,2.777,2.777,0,0,0,2.087,1.674l.059,0a.088.088,0,0,0-.038.073c.015.407.006.824.05,1.231s.123.806.2,1.2a8.316,8.316,0,0,0,.314,1.2,5.308,5.308,0,0,0,.22.554,5.157,5.157,0,0,0,.328.507.071.071,0,0,0,.132-.041h.009c-.006-.067-.009-.135-.009-.2a.141.141,0,0,1,0-.035l0,0a2.114,2.114,0,0,0-.023-.358c-.029-.2-.073-.393-.114-.586-.085-.39-.193-.777-.3-1.161s-.188-.774-.287-1.161-.232-.785-.325-1.187c0-.018-.018-.026-.026-.038a1.819,1.819,0,0,0,1.758-1.1,3.149,3.149,0,0,0,.026-1.6" transform="translate(23.815 59.304)" fill="#263238"/>
            <path id="Trazado_206717" data-name="Trazado 206717" d="M25.065,43.662a21.794,21.794,0,0,0-2.623-1.729,25.3,25.3,0,0,0-2.989-1.547c-2.016-.876-4.1-1.474-6.178-2.163-.062-.021-.1.082-.041.108,2.013.8,3.948,1.864,5.894,2.819.961.469,1.931.914,2.907,1.345s1.952.938,2.954,1.3c.076.029.138-.088.076-.138" transform="translate(25.492 73.797)" fill="#263238"/>
            <path id="Trazado_206718" data-name="Trazado 206718" d="M29.747,40.19a17.062,17.062,0,0,1-4.2-.566c-.636-.161-1.26-.366-1.882-.569a4.919,4.919,0,0,1-1.7-.85,7.537,7.537,0,0,1-1.814-3.274,31.085,31.085,0,0,1-1.1-3.977c-.018-.067-.111-.044-.117.018a15.344,15.344,0,0,0,.574,4.513A6.926,6.926,0,0,0,21.321,39,7.091,7.091,0,0,0,25.17,40.4a17.756,17.756,0,0,0,4.581-.062c.091-.015.094-.152,0-.152" transform="translate(36.55 59.69)" fill="#263238"/>
            <path id="Trazado_206719" data-name="Trazado 206719" d="M43.808,77.859c-1.632-.117-3.285-.1-4.924-.12s-3.28-.026-4.918-.009c-3.28.032-6.559.082-9.836.173-.9.026-1.794.053-2.69.094-.958.047-1.914.208-2.872.246a.057.057,0,0,0,0,.114c.806.009,1.612.129,2.418.152.835.023,1.671.029,2.506.029q2.462,0,4.921-.021c3.277-.026,6.559-.07,9.833-.205,1.852-.076,3.722-.1,5.563-.284a.085.085,0,0,0,0-.17" transform="translate(35.748 150.063)" fill="#263238"/>
            <path id="Trazado_206720" data-name="Trazado 206720" d="M31.227,165.323h.018a.341.341,0,0,0,.322-.358l-6.3-108.077c.082-.472,1.855-6.509,2.013-9.593.167-3.262-3.2-15.967-3.347-16.506a.345.345,0,0,0-.416-.24.339.339,0,0,0-.24.416c.035.132,3.488,13.139,3.324,16.3-.161,3.186-2,9.5-2.008,9.552C24.592,56.836,30.887,165,30.887,165a.341.341,0,0,0,.34.322" transform="translate(44.93 58.967)" fill="#263238"/>
            <path id="Trazado_206721" data-name="Trazado 206721" d="M42.075,33.5c-.076,2.192,1.043,2.975,1.07,4.147,0,0-5.079,2.189-13.549,1.9s-13.382-2.817-13.382-2.817c.106-1.172,1.272-1.873,1.348-4.065.085-2.532-1.6-2.775-1.07-6.6.4-2.846,2.553-3.121,3.086-8.722.548-5.791,2.831-8.054,4.578-9.311a9.586,9.586,0,0,1,6.583-1.94,8.436,8.436,0,0,1,6.275,2.172c1.659,1.375,3.942,4,4.094,9.812.149,5.624,2.283,6.049,2.482,8.916.273,3.851-1.43,3.98-1.515,6.509" transform="translate(31.306 11.669)" fill="#263238"/>
            <path id="Trazado_206722" data-name="Trazado 206722" d="M20.088,14.461a10.853,10.853,0,0,0,.744-5.243.062.062,0,1,0-.123,0,12.766,12.766,0,0,1-.783,4.935,19.014,19.014,0,0,1-2.6,3.365,6.073,6.073,0,0,0-1.336,3.62,5.912,5.912,0,0,0,.3,2.013,13.716,13.716,0,0,0,.958,1.843c.97,1.89-.346,3.828-1.413,5.258-.012.018.012.038.023.023a7.155,7.155,0,0,0,1.952-3.763,3.411,3.411,0,0,0-.5-2.028,6.661,6.661,0,0,1-.9-2.157,5.659,5.659,0,0,1,1.07-4.467,23.755,23.755,0,0,0,2.6-3.4" transform="translate(30.574 17.671)" fill="#263238"/>
            <path id="Trazado_206723" data-name="Trazado 206723" d="M28.971,22.685a10.934,10.934,0,0,0-1.885-4.215,9.737,9.737,0,0,1-1.029-2.06,12.8,12.8,0,0,1-.5-2.585,28.51,28.51,0,0,0-.4-2.869,17.063,17.063,0,0,0-.87-2.743c-.015-.041-.07-.006-.056.032a19.1,19.1,0,0,1,1.087,5.29,10.772,10.772,0,0,0,1.228,4.554,14.406,14.406,0,0,1,2.078,4.138,7.59,7.59,0,0,1-.484,5.287c-.739,1.234-2.148,2.649-1.477,4.267.021.053.1.021.088-.035-.539-1.838,1.079-3.086,1.8-4.516a7.9,7.9,0,0,0,.428-4.546" transform="translate(46.77 15.824)" fill="#263238"/>
            <path id="Trazado_206724" data-name="Trazado 206724" d="M10.285,31.156C10,33.506,12.207,36.493,15.5,37.964l15.05-12.9c-2.711-.539-5.533-1.21-7.084-1.46-6.876-1.1-12.992,6.049-13.177,7.547" transform="translate(19.809 45.363)" fill="#ffc727"/>
            <g id="Grupo_137795" data-name="Grupo 137795" transform="translate(30.07 68.856)">
              <g id="Grupo_137794" data-name="Grupo 137794">
                <g id="Grupo_137793" data-name="Grupo 137793" clip-path="url(#clip-path-7)">
                  <path id="Trazado_206725" data-name="Trazado 206725" d="M10.285,31.156C10,33.506,12.207,36.493,15.5,37.964l15.05-12.9c-2.711-.539-5.533-1.21-7.084-1.46-6.876-1.1-12.992,6.049-13.177,7.547" transform="translate(-10.26 -23.493)" fill="#fc4b52"/>
                </g>
              </g>
            </g>
            <path id="Trazado_206726" data-name="Trazado 206726" d="M11.777,58.692,17.29,43.953s-3.262-4.894-.234-9.874c1.53-2.523,11.6-14.566,16.512-17.345a7.781,7.781,0,0,1,10.651,2.972c4.827,8.373,3.9,17.846,7.222,41.307Z" transform="translate(22.739 30.263)" fill="#fc4b52"/>
            <path id="Trazado_206727" data-name="Trazado 206727" d="M28.455,22.973c-.3.692-8.28,6.588-10.785,4.947-.56-.363,2.8-5,2.8-5L20.2,16.145l9.109-3.7s-.73,10.237-.853,10.53" transform="translate(33.995 24.026)" fill="#eb9481"/>
            <path id="Trazado_206728" data-name="Trazado 206728" d="M27.291,16.763a12.941,12.941,0,0,1-8.537,5.777l-.264-6.4,9.109-3.7s-.141,1.952-.308,4.32" transform="translate(35.701 24.026)" fill="#263238"/>
            <path id="Trazado_206729" data-name="Trazado 206729" d="M17.1,16.437C13.415,26.912,19.271,30.306,21.53,31.1c2.052.718,9.127,2.91,13.877-7.125S36.457,8.914,31.855,7.017,20.795,5.965,17.1,16.437" transform="translate(30.726 11.999)" fill="#eb9481"/>
            <path id="Trazado_206730" data-name="Trazado 206730" d="M17.824,9.652a7.4,7.4,0,0,0,.759.111,1.228,1.228,0,0,0,.794-.032.393.393,0,0,0,.167-.454.98.98,0,0,0-.826-.548,1.431,1.431,0,0,0-1.023.164.421.421,0,0,0,.129.759" transform="translate(33.794 16.797)" fill="#263238"/>
            <path id="Trazado_206731" data-name="Trazado 206731" d="M20.836,10.932a6.712,6.712,0,0,1-.648-.41c-.249-.158-.463-.261-.583-.542a.4.4,0,0,1,.167-.451.97.97,0,0,1,.985.12,1.417,1.417,0,0,1,.671.791.421.421,0,0,1-.592.492" transform="translate(37.813 18.225)" fill="#263238"/>
            <path id="Trazado_206732" data-name="Trazado 206732" d="M19.445,10.661c.015-.023.041.056.029.085-.3.692-.528,1.539.015,2.025.018.015,0,.047-.021.035-.733-.416-.419-1.536-.023-2.145" transform="translate(36.738 20.577)" fill="#263238"/>
            <path id="Trazado_206733" data-name="Trazado 206733" d="M20.292,10.51c1.164.363.355,2.664-.724,2.33s-.252-2.635.724-2.33" transform="translate(36.812 20.241)" fill="#263238"/>
            <path id="Trazado_206734" data-name="Trazado 206734" d="M19.751,10.608c.155.2.273.5.5.61.273.126.569-.041.832-.208.029-.018.041.012.032.041-.149.443-.478.835-.976.736-.451-.091-.624-.592-.577-1.073.009-.091.123-.188.185-.106" transform="translate(37.764 20.424)" fill="#263238"/>
            <path id="Trazado_206735" data-name="Trazado 206735" d="M18.694,10.09c0-.029-.067.015-.076.044-.223.724-.6,1.515-1.328,1.53-.023,0-.035.035-.009.041.826.161,1.316-.894,1.413-1.615" transform="translate(33.337 19.465)" fill="#263238"/>
            <path id="Trazado_206736" data-name="Trazado 206736" d="M18.562,9.8c-1.12-.484-2,1.794-.964,2.242,1.02.44,1.9-1.838.964-2.242" transform="translate(33.087 18.79)" fill="#263238"/>
            <path id="Trazado_206737" data-name="Trazado 206737" d="M18.295,10.125c-.226.05-.489.2-.709.132-.255-.079-.346-.4-.413-.695-.006-.032-.032-.021-.044.009-.182.431-.211.941.173,1.187.352.223.777-.041,1.049-.434.05-.073.035-.22-.056-.2" transform="translate(32.822 18.428)" fill="#263238"/>
            <path id="Trazado_206738" data-name="Trazado 206738" d="M19.4,12.745c-.22.126-.454.319-.727.275a2.015,2.015,0,0,1-.741-.384.027.027,0,0,0-.041.029,1.02,1.02,0,0,0,.832.633.8.8,0,0,0,.739-.5c.023-.038-.029-.067-.062-.05" transform="translate(34.532 24.39)" fill="#263238"/>
            <path id="Trazado_206739" data-name="Trazado 206739" d="M18.5,15.978s-.487,1.032-.648,1.539c-.015.05.1.108.273.173l.018.009a2.545,2.545,0,0,0,2.632-.167.055.055,0,0,0-.053-.094,3.816,3.816,0,0,1-2.406-.062c.009-.152.894-1.738.815-1.767a4.71,4.71,0,0,0-1.237-.1c.953-2.178,2.245-4.182,3.159-6.366a.072.072,0,0,0-.123-.073,38.43,38.43,0,0,0-3.693,6.712c-.135.275,1.032.223,1.263.2" transform="translate(33.261 17.455)" fill="#263238"/>
            <path id="Trazado_206740" data-name="Trazado 206740" d="M17.606,11.919a2.976,2.976,0,0,0,.747,1.307,1.324,1.324,0,0,0,.733.358c.6.085.824-.407.9-.873a3.178,3.178,0,0,0,.026-.753,3.879,3.879,0,0,1-2.409-.038" transform="translate(33.994 23.015)" fill="#263238"/>
            <path id="Trazado_206741" data-name="Trazado 206741" d="M17.86,12.754a1.333,1.333,0,0,0,.733.358c.6.085.824-.407.9-.876a1.387,1.387,0,0,0-1.635.519" transform="translate(34.484 23.486)" fill="#ff9abb"/>
            <path id="Trazado_206742" data-name="Trazado 206742" d="M24.7,8.122a4.975,4.975,0,0,0-.662,2.828c.46,2.732,3.526,2.916,4.241,4.147.671,1.155-.176,2.91.407,4.042.806,1.562,2.52,1.533,2.474,2.418s-.249,3.69.712,4.326,10.812-15.6-3.139-18.959c0,0-1.671-1.313-5.029-.659-3.707.718-6.641,5.674-6.641,5.674s.091-.056.68-.337c.835-.4,1.246-.873,1.843-1.12.938-.381,1.292-.035,2.257-.393A9.524,9.524,0,0,0,24.7,8.122" transform="translate(32.953 11.744)" fill="#263238"/>
            <path id="Trazado_206743" data-name="Trazado 206743" d="M20.873,6.537a9.723,9.723,0,0,0-1.005,2,4.066,4.066,0,0,0-.293,2.142,2.971,2.971,0,0,0,1.231,1.685c.586.431,1.292.7,1.917,1.187a2.231,2.231,0,0,1,.724.961,2.979,2.979,0,0,1,.1,1.181,4,4,0,0,0,.22,2.134,2.469,2.469,0,0,0,1.627,1.3,5.259,5.259,0,0,1,2.11.721,5.2,5.2,0,0,0-2.151-.551,2.7,2.7,0,0,1-1.826-1.345,4.025,4.025,0,0,1-.3-2.28,2.679,2.679,0,0,0-.1-1.049,1.935,1.935,0,0,0-.63-.8c-.554-.445-1.263-.739-1.885-1.2a3.863,3.863,0,0,1-.829-.821,2.344,2.344,0,0,1-.481-1.079,4.234,4.234,0,0,1,.4-2.257,9.771,9.771,0,0,1,1.166-1.94" transform="translate(37.213 12.623)" fill="#263238"/>
            <path id="Trazado_206744" data-name="Trazado 206744" d="M24.169,6.727a7.861,7.861,0,0,1-1.21,1.72,3.7,3.7,0,0,1-1.82,1.134,5.208,5.208,0,0,1-1.058.1,1.7,1.7,0,0,0-.888.29,5.372,5.372,0,0,1-.832.648,2.357,2.357,0,0,1-1.023.264,2.565,2.565,0,0,0,.929-.413,5.092,5.092,0,0,0,.747-.706,1.8,1.8,0,0,1,1.038-.413,5.883,5.883,0,0,0,1.005-.114,3.891,3.891,0,0,0,1.7-1,15.1,15.1,0,0,0,1.413-1.515" transform="translate(33.474 12.99)" fill="#263238"/>
            <path id="Trazado_206745" data-name="Trazado 206745" d="M22.766,13.357s3.35-2.579,4.593-1.284-2,5.542-3.971,5.645A1.879,1.879,0,0,1,21.289,16Z" transform="translate(41.105 22.611)" fill="#eb9481"/>
            <path id="Trazado_206746" data-name="Trazado 206746" d="M25.773,12.273a.025.025,0,0,1-.006.05,4.732,4.732,0,0,0-3.23,2.1,1.036,1.036,0,0,1,1.565.193c.023.032-.023.073-.056.056a1.159,1.159,0,0,0-1.334,0,5.593,5.593,0,0,0-.888.8c-.094.091-.273-.029-.191-.144l.018-.026c.463-1.586,2.38-3.4,4.121-3.03" transform="translate(41.732 23.604)" fill="#263238"/>
            <path id="Trazado_206747" data-name="Trazado 206747" d="M20.516,23.715s6.108.5,9.235,1.75a21.663,21.663,0,0,1,8.262,6.257c2.389,2.931,6.146,11.67,3.816,13.192-2.107,1.375-5.5-7.752-5.5-7.752s4.991,8.737,2.148,9.927-6.172-9.628-6.172-9.628,4.924,9.091,1.8,9.856c-2.362.577-5.932-9.053-5.932-9.053s4.179,7.846,1.776,8.543c-2.655.774-6.506-7.91-6.506-7.91-6.41.747-9.774-1.656-11.972-3.552-.53-.457,9.042-11.629,9.042-11.629" transform="translate(22.113 45.79)" fill="#eb9481"/>
            <path id="Trazado_206748" data-name="Trazado 206748" d="M19.449,27.243c.624,1.005,1.26,2.019,1.794,3.074s1.026,2.134,1.457,3.236A20.221,20.221,0,0,1,23.968,38a43.528,43.528,0,0,0-3.022-7.544c-.53-1.055-1.008-2.137-1.539-3.195-.015-.026.026-.041.041-.018" transform="translate(37.467 52.579)" fill="#263238"/>
            <path id="Trazado_206749" data-name="Trazado 206749" d="M18.129,27.873c.741,1.319,1.524,2.6,2.207,3.951s1.2,2.679,1.788,4.065c.047.108-.026.1-.076-.009-.639-1.363-1.336-2.573-1.99-3.93S18.8,29.212,18.1,27.887c-.012-.021.021-.035.032-.015" transform="translate(34.936 53.799)" fill="#263238"/>
            <path id="Trazado_206750" data-name="Trazado 206750" d="M16.927,28.215a33.718,33.718,0,0,1,2.91,6.3c.041.106-.05.082-.1-.026-.926-2.11-1.641-3.775-2.878-6.228-.021-.038.041-.085.067-.044" transform="translate(32.545 54.449)" fill="#263238"/>
            <path id="Trazado_206751" data-name="Trazado 206751" d="M18.125,23.371c-.381.566-7.128,7.1-7.556,9.959S18.8,31.369,18.8,31.369Z" transform="translate(20.377 45.126)" fill="#ffc727"/>
            <path id="Trazado_206752" data-name="Trazado 206752" d="M39.635,18.663c-10.815,6.424-28.514,22.482-29.021,26.9-.363,3.195-.378,6.348.876,8,2.564,3.37,8.039,3.042,9.976,1.858,8.47-5.17,17.685-16.662,23.681-28.681,5.258-10.536-1.99-10.173-5.513-8.08" transform="translate(20.08 33.762)" fill="#fc4b52"/>
            <path id="Trazado_206753" data-name="Trazado 206753" d="M12.153,34.58A85.356,85.356,0,0,1,29.14,19.536l-2.166,1.838C22.2,25.494,16.71,30.231,12.153,34.58" transform="translate(23.465 37.722)" fill="#263238"/>
            <path id="Trazado_206754" data-name="Trazado 206754" d="M41.9,21.785A78.763,78.763,0,0,1,29.475,39.232c-1.207,1.325-2.477,2.594-3.792,3.816-2.611,2.392-5.595,5.126-9.393,4.985a9.6,9.6,0,0,1-5.117-1.65,11.505,11.505,0,0,0,5.117,1.143c3.64-.009,6.495-2.526,9.047-4.856q1.961-1.811,3.8-3.751A84.767,84.767,0,0,0,41.9,21.785" transform="translate(21.571 42.064)" fill="#263238"/>
            <path id="Trazado_206755" data-name="Trazado 206755" d="M20.966,24.577a19.27,19.27,0,0,1,2.251-2.386,5.9,5.9,0,0,1-2.251,2.386" transform="translate(40.481 42.848)" fill="#263238"/>
            <g id="Grupo_137798" data-name="Grupo 137798" transform="translate(55.442 50.868)" opacity="0.1">
              <g id="Grupo_137797" data-name="Grupo 137797">
                <g id="Grupo_137796" data-name="Grupo 137796" clip-path="url(#clip-path-8)">
                  <path id="Trazado_206756" data-name="Trazado 206756" d="M18.917,21.7c2.45-2.119,9.475-7.142,11.474-2.324a7.8,7.8,0,0,1-.314,4.437,23.384,23.384,0,0,1-2.456,5.275C28.7,26.558,31.478,20.758,29.14,18.5c-2.658-1.911-7.852,1.712-10.223,3.2" transform="translate(-18.917 -17.355)"/>
                </g>
              </g>
            </g>
          </g>
        </g>
        <g id="Grupo_137802" data-name="Grupo 137802" transform="translate(0 -0.001)">
          <g id="Grupo_137801" data-name="Grupo 137801" clip-path="url(#clip-path-2)">
            <path id="Trazado_206757" data-name="Trazado 206757" d="M4.122,16.858a15.222,15.222,0,0,0,25.439,9.631l7.617,1.117-3.81-6.583A15.228,15.228,0,1,0,4.122,16.858" transform="translate(7.798 0.089)" fill="#fff"/>
            <path id="Trazado_206758" data-name="Trazado 206758" d="M8.68,4.373A15.218,15.218,0,0,1,21.438.135a15.389,15.389,0,0,1,6.5,2.438A15.59,15.59,0,0,1,32.7,7.652a15.389,15.389,0,0,1,.938,13.57l-.018-.261,3.79,6.6.278.487-.551-.085L29.53,26.794l.182-.056a15.369,15.369,0,0,1-7.535,3.719,13.01,13.01,0,0,1-2.107.22,15.416,15.416,0,0,1-2.113-.038,15.253,15.253,0,0,1-4.1-.979,15.035,15.035,0,0,1-3.672-2.046,16.937,16.937,0,0,1-1.609-1.36,17.344,17.344,0,0,1-1.38-1.588A15.317,15.317,0,0,1,8.68,4.373M7.241,24.631A16.8,16.8,0,0,0,8.628,26.2a17.161,17.161,0,0,0,1.606,1.342,14.213,14.213,0,0,0,3.672,1.978,14.532,14.532,0,0,0,6.152.9,13.263,13.263,0,0,0,2.066-.252,15,15,0,0,0,7.289-3.754l.076-.07.106.015,7.623,1.067-.273.4L33.112,21.26l-.07-.126L33.094,21a15.016,15.016,0,0,0-.859-13.077,15.716,15.716,0,0,0-4.557-4.968A14.968,14.968,0,0,0,21.388.469a15.184,15.184,0,0,0-6.77.507A15.4,15.4,0,0,0,8.745,4.44,15.273,15.273,0,0,0,4.123,16.946a15.314,15.314,0,0,0,3.118,7.685" transform="translate(7.797 0.001)" fill="#263238"/>
            <path id="Trazado_206759" data-name="Trazado 206759" d="M12.947,19.587C8.83,21.846,6.443,13,6.443,13l2.186-2.16,3.8,3.845L20.321,2.318l2.588,1.65S17.063,17.328,12.947,19.587Z" transform="translate(12.441 4.478)" fill="#fc4b52"/>
          </g>
        </g>
      </g>
    </g>
  </g>
</svg>
