<svg id="Grupo_138074" data-name="Grupo 138074" xmlns="http://www.w3.org/2000/svg" xmlns:xlink="http://www.w3.org/1999/xlink" width="79.479" height="79.465" viewBox="0 0 79.479 79.465">
  <defs>
    <clipPath id="clip-path">
      <rect id="Rectángulo_88255" data-name="Rectángulo 88255" width="79.479" height="79.465" fill="none"/>
    </clipPath>
  </defs>
  <g id="Grupo_138075" data-name="Grupo 138075" clip-path="url(#clip-path)">
    <path id="Trazado_208553" data-name="Trazado 208553" d="M24.366,94.727c0,4.483.007,8.967-.01,13.45,0,.44.143.537.543.519.639-.029,1.281-.013,1.921-.006a3.846,3.846,0,0,1,3.952,3.937c.016,1.186.016,1.186,1.218,1.186,1.317,0,1.317,0,1.346-1.3a3.837,3.837,0,0,1,3.822-3.821q1.761-.03,3.523,0a.737.737,0,0,0,.8-.452,3.733,3.733,0,0,1,3.569-2.118c1.121,0,2.242-.017,3.362.009.408.01.546-.131.61-.524A20.942,20.942,0,0,1,53.511,95.6a1.479,1.479,0,0,0,.327-1.022c-.012-2.3-.038-4.591.014-6.885.016-.7-.2-.807-.837-.8a6.434,6.434,0,0,1-6.659-4.76,15.573,15.573,0,0,1-.2-3.984,1,1,0,0,0-.55-1.009,3.792,3.792,0,0,1-1.364-5.576,9.864,9.864,0,0,0,1.907-7.2c-.047-.557.191-1.26-.071-1.643-.287-.419-1.036-.11-1.58-.165a3.888,3.888,0,0,1-3.477-3.842c-.074-5.41,3.883-10.556,9.352-11.235,5.056-.628,10.237-.869,15.258.536A19.629,19.629,0,0,1,67.135,85a.657.657,0,0,0-.5.752,11.365,11.365,0,0,0,.06,2.548c.244.851,1.332.889,2,1.36a12.426,12.426,0,0,1,5.619,10.486c.065,4.3.027,8.594,0,12.89,0,.6.116.819.766.789,1.278-.058,2.562,0,3.842-.026.4-.007.533.089.543.522.045,2.05.061,2.049-1.969,2.049q-38.272,0-76.543.019c-.755,0-.986-.143-.952-.933.072-1.645.022-1.647,1.658-1.647,2.642,0,5.284-.018,7.926.014.555.007.747-.118.7-.692a3.973,3.973,0,0,1,.942-3.123,4.044,4.044,0,0,1,3.29-1.335c.707.012,1.654.32,2.058-.141.347-.4.1-1.319.1-2.01,0-5.551.016-11.1-.005-16.654a8.98,8.98,0,0,1,2.482-6.544.7.7,0,0,0,.1-.917c-.745-1.706-1.5-3.407-2.2-5.134a5.121,5.121,0,0,1,8.055-5.815,5.363,5.363,0,0,1,1.479,2.057q3.758,8.763,7.512,17.527a5.132,5.132,0,1,1-9.42,4.049c-.06-.136-.124-.27-.187-.4l-.128.037" transform="translate(0 -36.928)"/>
    <path id="Trazado_208554" data-name="Trazado 208554" d="M42.021,25.7c-.713,0-1.625-.265-2.081.077-.426.32-.082,1.294-.127,1.979a3,3,0,0,1-1.949,2.777,2.922,2.922,0,0,1-3.319-.677c-1.285-1.242-2.543-2.511-3.791-3.79a1.337,1.337,0,0,0-1.04-.439,29.661,29.661,0,0,1-4.633-.085,6.027,6.027,0,0,1-5.1-5.314q-.969-6.683-1.9-13.371A6.028,6.028,0,0,1,23.872.038q10.8-.08,21.6,0A5.956,5.956,0,0,1,51.3,6.662q-.862,6.978-2,13.92a5.947,5.947,0,0,1-6.075,5.056c-.4,0-.8,0-1.2,0,0,.02,0,.04,0,.06" transform="translate(-14.168 0)"/>
    <path id="Trazado_208555" data-name="Trazado 208555" d="M226.72,92.535c0-1.678.008-3.243-.006-4.808,0-.366.25-.506.479-.679.7-.531,1.408-1.055,2.113-1.582a5.444,5.444,0,0,0,2.414-5.69,5.307,5.307,0,0,0-4.461-4.439c-.41-.086-.519-.263-.579-.67a5.1,5.1,0,0,0-5.286-4.558c-1.494-.008-2.988-.014-4.482.005-.466.006-.637-.034-.526-.608a3.964,3.964,0,0,0-4.717-4.528c-.23.046-.325.128-.321.353s0,.48,0,.72c.006.453-.139,1,.067,1.333.238.382.835.109,1.272.162A1.29,1.29,0,0,1,213.9,68.8a1.233,1.233,0,0,1-1.246,1.293q-3.881.038-7.763,0c-.8-.009-1.226-.581-1.228-1.468A9.013,9.013,0,0,1,211.072,60a32.31,32.31,0,0,1,5.111-.133,37.949,37.949,0,0,1,7.021.27,17.076,17.076,0,0,1,4.888,31.735c-.412.228-.85.41-1.372.658" transform="translate(-160.075 -47.03)" fill="#afafaf"/>
    <path id="Trazado_208556" data-name="Trazado 208556" d="M225.861,149.82c0-1.9.015-3.627-.009-5.351-.007-.5.306-.379.577-.408a5.107,5.107,0,0,0,4.12-2.665c.229-.4.337-.7-.241-.869a2,2,0,0,1-.567-.291c-.714-.494-1.268-.64-1.775.346a2,2,0,0,1-1.856.92c-1.414.014-2.829.031-4.242,0a3.583,3.583,0,0,1-3.356-2.553c.755,0,1.493.01,2.23,0a5.16,5.16,0,0,0,5.083-4.438c.072-.472.04-.789-.565-.688a2.683,2.683,0,0,1-.559,0c-.789-.037-1.449-.112-1.68,1.03a2.111,2.111,0,0,1-2.137,1.519c-.851.044-1.93.321-2.5-.083-.611-.433-.193-1.578-.186-2.4.005-.653-.162-1.053-.8-1.242a3.965,3.965,0,0,1-.644-.315c-1.258-.645-1.471-1.459-.675-2.655.885-1.33,1.927-2.609,2.03-4.278.1-1.622.074-3.253.05-4.879-.009-.588.1-.808.76-.8,3.922.037,7.843.015,11.765.019a2.6,2.6,0,0,1,2.863,2.882c.005.716-.241,1.648.114,2.09.374.465,1.345.116,2.055.149a3.031,3.031,0,0,1,2.791,2.032,2.92,2.92,0,0,1-.985,3.3c-1.131.89-2.287,1.75-3.455,2.591a1.143,1.143,0,0,0-.533,1.053c.021,3.708,0,7.417.025,11.125a.808.808,0,0,1-.667.948,21.221,21.221,0,0,0-7.032,3.917" transform="translate(-169.466 -94.091)" fill="#efcfb3"/>
    <path id="Trazado_208557" data-name="Trazado 208557" d="M211.324,275.16c-2.348,0-4.7-.016-7.043.012-.529.006-.756-.081-.722-.678.055-.957.009-1.92.016-2.881.008-1.136.457-1.576,1.619-1.577,3.2,0,6.4,0,9.6,0a11.543,11.543,0,0,0,11.785-10.384c.027-.211.017-.427.044-.638.046-.357-.037-.581-.459-.508a.5.5,0,0,1-.08,0c-.614,0-1.341-.2-1.81.064-.5.28-.261,1.1-.367,1.673a9.045,9.045,0,0,1-8.3,7.208c-1.145.048-2.3-.024-3.44.039-.667.036-.663-.251-.559-.742a19.147,19.147,0,0,1,12.884-14.359,1.976,1.976,0,0,1,1.595.1,10.061,10.061,0,0,1,5.279,11.829,14.1,14.1,0,0,1-13.72,10.84c-2.108.012-4.215,0-6.323,0" transform="translate(-159.99 -198.276)" fill="#feca2e"/>
    <path id="Trazado_208558" data-name="Trazado 208558" d="M92.784,167.7a2.589,2.589,0,0,1,2.242,1.753c1.731,4.062,3.482,8.116,5.222,12.174.765,1.785,1.532,3.569,2.283,5.359a2.567,2.567,0,0,1-1.247,3.56,2.619,2.619,0,0,1-3.449-1.56q-3.784-8.8-7.542-17.6a2.575,2.575,0,0,1,2.491-3.683" transform="translate(-70.779 -131.808)" fill="#cbd0d8"/>
    <path id="Trazado_208559" data-name="Trazado 208559" d="M91.258,227.285c.428.993.823,1.889,1.2,2.793a3.708,3.708,0,0,1,0,1.5c.016,5.973,0,11.946.025,17.918,0,.691-.118.956-.887.926-1.689-.066-1.691-.019-1.69-1.706q0-8.719,0-17.439a6.35,6.35,0,0,1,1.353-3.993" transform="translate(-70.663 -178.641)" fill="#a9b1bc"/>
    <path id="Trazado_208560" data-name="Trazado 208560" d="M67.615,349.823c-2.346,0-4.693-.016-7.039.012-.527.006-.666-.146-.661-.665.014-1.518.367-1.909,1.861-1.909q5.879,0,11.758,0a1.667,1.667,0,0,1,1.768,2.311c-.117.414-.427.241-.649.242-2.346.014-4.692.009-7.039.009" transform="translate(-47.092 -272.939)" fill="#959ea9"/>
    <path id="Trazado_208561" data-name="Trazado 208561" d="M170.2,349.786a6.254,6.254,0,0,1-1.433-.026c-.375-.09-1.032.47-1.124-.379-.14-1.3.235-2.074,1.114-2.127,1.222-.074,2.451-.022,3.676-.032.232,0,.349.08.329.321a1.141,1.141,0,0,0,0,.16c.113,2.083.113,2.083-1.923,2.083Z" transform="translate(-131.741 -272.902)" fill="#efcfb3"/>
    <path id="Trazado_208562" data-name="Trazado 208562" d="M316.174,335.9c0,1.491-.007,2.982.005,4.472,0,.337-.019.538-.455.531-1.515-.026-3.031-.01-4.766-.01a21.083,21.083,0,0,0,5.216-4.993" transform="translate(-244.406 -264.014)" fill="#fbd66f"/>
    <path id="Trazado_208563" data-name="Trazado 208563" d="M54.268,32.191a9.153,9.153,0,0,0-5.47-6.7c2.44-3.5,2.278-6.9-.41-9.283a6.384,6.384,0,0,0-8.477,0c-2.7,2.412-2.864,5.811-.407,9.28a9.165,9.165,0,0,0-5.47,6.7,3.509,3.509,0,0,1-2.039-2.793q-.954-6.608-1.892-13.218a3.512,3.512,0,0,1,3.555-4.136q10.487-.018,20.974,0a3.522,3.522,0,0,1,3.558,4.206q-.951,6.487-1.861,12.98a3.684,3.684,0,0,1-2.06,2.967" transform="translate(-23.627 -9.456)" fill="#e5e8ec"/>
    <path id="Trazado_208564" data-name="Trazado 208564" d="M73.432,88.7c-.586,0-1.176.042-1.757-.012s-.7.184-.684.719c.039,1.171.009,2.344.014,3.516,0,.326.015.648-.347.819-.392.185-.592-.114-.811-.332-1.36-1.352-2.741-2.686-4.057-4.08a1.866,1.866,0,0,0-1.6-.642c-.85.047-1.708-.038-2.556.026-.755.057-.76-.236-.54-.8A6.224,6.224,0,0,1,66.4,83.648a13.8,13.8,0,0,1,4.695.1,6.252,6.252,0,0,1,4.757,4.379c.158.465.082.61-.419.585-.664-.034-1.332-.008-2-.008" transform="translate(-47.917 -65.626)" fill="#fc4b52"/>
    <path id="Trazado_208565" data-name="Trazado 208565" d="M85.628,39.866A3.841,3.841,0,1,1,81.848,36a3.858,3.858,0,0,1,3.779,3.862" transform="translate(-61.264 -28.298)" fill="#efcfb3"/>
  </g>
</svg>
