<svg id="Grupo_138065" data-name="Grupo 138065" xmlns="http://www.w3.org/2000/svg" xmlns:xlink="http://www.w3.org/1999/xlink" width="79.479" height="79.464" viewBox="0 0 79.479 79.464">
  <defs>
    <clipPath id="clip-path">
      <rect id="Rectángulo_88249" data-name="Rectángulo 88249" width="79.479" height="79.464" fill="none"/>
    </clipPath>
  </defs>
  <g id="Grupo_138066" data-name="Grupo 138066" clip-path="url(#clip-path)">
    <path id="Trazado_208505" data-name="Trazado 208505" d="M205.632,24.991a27.7,27.7,0,0,0-.725,3.27A22.31,22.31,0,0,1,198,39.412a2,2,0,0,0-.769,1.705c.051,2.533.01,5.068.025,7.6a1.613,1.613,0,0,1-2.9,1.223q-2.573-2.584-5.16-5.153c-.189-.188-.33-.447-.7-.345a30.641,30.641,0,0,1-8.316.693,2.487,2.487,0,0,0-.306.035.856.856,0,0,1-.652.191,22.956,22.956,0,0,1-16.025-6.6,22.354,22.354,0,0,1-5.687-9.225,1.7,1.7,0,0,1-.14-.983,37.973,37.973,0,0,1-.685-4.193A22.571,22.571,0,0,1,172.448,1.026,24.207,24.207,0,0,1,176.53.158c.138-.018.322.051.385-.158h.466c.093.1.216.074.332.08h.267c.116-.006.239.022.331-.08H183.9c.093.1.217.074.332.08h.267c.116-.006.239.022.332-.08h.31a29.74,29.74,0,0,1,3.8.577,22.75,22.75,0,0,1,13.421,9.966,23.032,23.032,0,0,1,2.9,6.975c.228.931.154,1.891.372,2.817v.621c-.1.086-.076.2-.08.311s-.016.225.08.31V23.9a.2.2,0,0,0,0,.31Z" transform="translate(-126.153)"/>
    <path id="Trazado_208506" data-name="Trazado 208506" d="M263.709.13c-.128.019-.264.058-.3-.13h.31c.052.032.068.061.049.089s-.037.041-.055.041" transform="translate(-212.177)" fill="#858585"/>
    <path id="Trazado_208507" data-name="Trazado 208507" d="M264.97.13c0-.043.005-.087.006-.13h.311c.052.032.068.062.049.09s-.038.04-.056.04h-.309" transform="translate(-213.438)" fill="#6b6b6b"/>
    <path id="Trazado_208508" data-name="Trazado 208508" d="M266.558.131q.006-.065.008-.131h.31c-.064.147-.183.157-.318.131" transform="translate(-214.717)" fill="#515151"/>
    <path id="Trazado_208509" data-name="Trazado 208509" d="M297.245.131c-.134.025-.254.016-.318-.131h.31c.048.026.065.054.052.084s-.029.046-.044.046" transform="translate(-239.18)" fill="#515151"/>
    <path id="Trazado_208510" data-name="Trazado 208510" d="M298.53.131q-.006-.065-.007-.131h.31q.073.04.051.085t-.046.046h-.309" transform="translate(-240.465)" fill="#6b6b6b"/>
    <path id="Trazado_208511" data-name="Trazado 208511" d="M300.125.131q-.006-.065-.006-.131h.31c-.038.191-.176.151-.3.131" transform="translate(-241.751)" fill="#858585"/>
    <path id="Trazado_208512" data-name="Trazado 208512" d="M407.943,108.053c-.017-.127-.047-.26.13-.3v.311c-.047.07-.091.071-.13-.007" transform="translate(-328.594 -86.794)" fill="#787878"/>
    <path id="Trazado_208513" data-name="Trazado 208513" d="M407.946,109.31q.065,0,.13.007v.31c-.153-.061-.157-.183-.13-.317" transform="translate(-328.597 -88.051)" fill="#5e5e5e"/>
    <path id="Trazado_208514" data-name="Trazado 208514" d="M408.07,123.225c-.216-.1-.167-.207,0-.31Z" transform="translate(-328.591 -99.01)" fill="#4d4d4d"/>
    <path id="Trazado_208515" data-name="Trazado 208515" d="M43.111,146.848a23.947,23.947,0,0,0,4.018,7.862,22.383,22.383,0,0,0,14.477,8.439c1.33.209,2.675.186,4.01.312q0,2.162,0,4.324c-1.38.738-1.362,2-1.339,3.334.05,2.921.021,5.843.014,8.765a8.063,8.063,0,0,1-8.169,8.175q-7.679.009-15.358,0c-.284,0-.569-.008-.853.007a1.556,1.556,0,0,0-1.687,1.706c-.027.516.007,1.035-.016,1.551-.015.348.094.821-.295.965s-.633-.267-.883-.513c-.956-.945-1.938-1.867-2.839-2.864a2.462,2.462,0,0,0-1.979-.86c-3.077.021-6.153.013-9.23.007a8.064,8.064,0,0,1-8.2-8.219q-.007-11.752,0-23.5a8.061,8.061,0,0,1,8.177-8.165c4.576-.007,9.153-.027,13.729.014,1.333.012,2.6.041,3.334-1.339h3.088" transform="translate(-11.903 -118.288)" fill="#fc4b52"/>
    <path id="Trazado_208516" data-name="Trazado 208516" d="M28.119,140.409c-.315,1.221-.741,1.553-2.028,1.553q-7.412,0-14.824,0A7.813,7.813,0,0,0,3.109,150.1q-.007,11.564,0,23.128a7.822,7.822,0,0,0,8.205,8.165c3.053,0,6.105.014,9.158-.009a2.333,2.333,0,0,1,1.928.9c1.12,1.265,2.374,2.412,3.683,3.718,0-.992-.005-1.835,0-2.677.011-1.362.575-1.924,1.953-1.925q7.955-.006,15.91,0a7.824,7.824,0,0,0,8.211-8.237q0-4.889,0-9.779c0-1.287.332-1.714,1.553-2.028,1.194.309,1.547.744,1.549,1.952,0,3.413.023,6.827,0,10.24a10.849,10.849,0,0,1-10.98,10.951q-7.175.041-14.351-.009c-.6,0-.777.143-.756.753.048,1.395,0,2.792.018,4.189a1.652,1.652,0,0,1-.976,1.764,1.67,1.67,0,0,1-1.94-.574c-1.9-1.9-3.812-3.794-5.7-5.708a1.282,1.282,0,0,0-1.012-.417c-2.87.016-5.741.028-8.611,0a10.841,10.841,0,0,1-10.7-8.606A11.253,11.253,0,0,1,0,173.346C0,165.563-.007,157.78.006,150a10.854,10.854,0,0,1,11.111-11.135c4.991-.014,9.981,0,14.972,0,1.288,0,1.713.33,2.03,1.549" transform="translate(0 -111.849)"/>
    <path id="Trazado_208517" data-name="Trazado 208517" d="M207.007,58.034c-1.209-1.226-2.3-2.277-3.325-3.391a2.266,2.266,0,0,0-2.564-.716c-3.28.97-6.649.792-10.008.669a18.2,18.2,0,0,1-11.182-4.2c-5.68-4.693-8.183-10.767-7.1-18.077,1.022-6.925,4.932-11.841,11.229-14.853a16.242,16.242,0,0,1,5.722-1.567,38.584,38.584,0,0,1,9.361.146,18.775,18.775,0,0,1,12.047,7.124,18.849,18.849,0,0,1,4.043,14.377,18.136,18.136,0,0,1-6.382,12.105,4.32,4.32,0,0,0-1.864,4.082,42.623,42.623,0,0,1,.028,4.3" transform="translate(-139.015 -12.638)" fill="#feca2e"/>
    <path id="Trazado_208518" data-name="Trazado 208518" d="M61.094,250.523H45.353a5.764,5.764,0,0,1-.774-.021,1.536,1.536,0,0,1,.022-3.064,5.438,5.438,0,0,1,.7-.018H76.858c.1,0,.207,0,.31,0,1.117.02,1.844.64,1.836,1.563s-.734,1.538-1.858,1.539q-8.026.008-16.052,0" transform="translate(-34.772 -199.298)"/>
    <path id="Trazado_208519" data-name="Trazado 208519" d="M58.061,295.225q-6.363,0-12.726,0a5.429,5.429,0,0,1-.774-.025,1.533,1.533,0,0,1-.014-3.052,4.022,4.022,0,0,1,.619-.026q12.881,0,25.762,0c1.038,0,1.652.349,1.878,1.049a1.544,1.544,0,0,1-1.553,2.046c-1.163.035-2.328.009-3.492.009h-9.7" transform="translate(-34.773 -235.308)"/>
    <path id="Trazado_208520" data-name="Trazado 208520" d="M56.046,202.721c3.669,0,7.339-.006,11.008,0,1.375,0,2.2,1.037,1.727,2.137a1.6,1.6,0,0,1-1.621.965H45.144c-1.241-.008-2-.61-1.977-1.577.018-.943.752-1.525,1.948-1.526q5.465-.006,10.931,0" transform="translate(-34.772 -163.294)"/>
    <path id="Trazado_208521" data-name="Trazado 208521" d="M213.145,292.173a1.542,1.542,0,1,1-1.568,1.516,1.6,1.6,0,0,1,1.568-1.516" transform="translate(-170.428 -235.35)" fill="#010101"/>
    <path id="Trazado_208522" data-name="Trazado 208522" d="M256.136,70.58c0-.569-.011-1.138,0-1.706a2.858,2.858,0,0,1,2.1-2.828c.171-.058.344-.108.515-.167a3.456,3.456,0,0,0,2.326-3.9,3.5,3.5,0,0,0-3.481-2.837A3.418,3.418,0,0,0,254.26,62.2c-.174,1.321-.6,1.865-1.507,1.917a1.513,1.513,0,0,1-1.627-1.569,6.548,6.548,0,1,1,12.05,3.615,5.8,5.8,0,0,1-3.2,2.551.9.9,0,0,0-.745,1.094c.049.824.024,1.654.009,2.481-.021,1.129-.638,1.85-1.561,1.853s-1.526-.722-1.54-1.851c-.007-.569,0-1.137,0-1.706Z" transform="translate(-202.284 -45.15)"/>
    <path id="Trazado_208523" data-name="Trazado 208523" d="M280.012,166.281a1.571,1.571,0,0,1-1.517,1.535,1.518,1.518,0,0,1-1.561-1.473,1.55,1.55,0,0,1,1.537-1.588,1.6,1.6,0,0,1,1.54,1.526" transform="translate(-223.074 -132.713)" fill="#010100"/>
  </g>
</svg>
