<svg xmlns="http://www.w3.org/2000/svg" xmlns:xlink="http://www.w3.org/1999/xlink" width="122" height="122" viewBox="0 0 122 122">
  <defs>
    <clipPath id="clip-path">
      <circle id="Elipse_5550" data-name="Elipse 5550" cx="52.5" cy="52.5" r="52.5" transform="translate(397 1014)" fill="#a7e446"/>
    </clipPath>
    <clipPath id="clip-path-2">
      <rect id="Rectángulo_88005" data-name="Rectángulo 88005" width="94.3" height="104.987" fill="none"/>
    </clipPath>
  </defs>
  <g id="Grupo_138595" data-name="Grupo 138595" transform="translate(-388 -1005)">
    <g id="Elipse_5542" data-name="Elipse 5542" transform="translate(388 1005)" fill="#f5feff" stroke="#0082b2" stroke-width="2">
      <circle cx="61" cy="61" r="61" stroke="none"/>
      <circle cx="61" cy="61" r="60" fill="none"/>
    </g>
    <circle id="Elipse_5549" data-name="Elipse 5549" cx="43" cy="43" r="43" transform="translate(406 1023)" fill="#dff7f9"/>
    <g id="Enmascarar_grupo_117495" data-name="Enmascarar grupo 117495" clip-path="url(#clip-path)">
      <g id="Grupo_137604" data-name="Grupo 137604" transform="translate(400.7 1019.013)">
        <g id="Grupo_137603" data-name="Grupo 137603" clip-path="url(#clip-path-2)">
          <path id="Trazado_203663" data-name="Trazado 203663" d="M97.634,0a17.846,17.846,0,0,0,3.327.682,19.136,19.136,0,0,1,10.82,6.3,4.75,4.75,0,0,1,1.78,3.348,10.578,10.578,0,0,1-.806,6.6,9.829,9.829,0,0,1-4.229,4.173,5.484,5.484,0,0,1-.842.5,27.648,27.648,0,0,1-7.363,1.945,1.7,1.7,0,0,1-1-.059,1.427,1.427,0,0,0-.56-.237c-3.876-.165-7.47-1.536-11.132-2.611-3.3-.969-6.62-1.707-10.084-1.08A19.8,19.8,0,0,0,71.7,21.692c-1.074.577-1.279.486-1.458-.72a18.855,18.855,0,0,1,1.046-9.061,20.571,20.571,0,0,1,2.335-4.748c.691-.5.714-.889-.117-1.3a14.836,14.836,0,0,1-1.7-1.157,18.784,18.784,0,0,1,3.867-1.624A69.19,69.19,0,0,1,89.948.217c.243-.026.561.124.716-.217h.82c.113.126.266.1.41.105s.3.021.41-.105h4.3a.266.266,0,0,0,.41,0Z" transform="translate(-46.378)" fill="#694b4b"/>
          <path id="Trazado_203664" data-name="Trazado 203664" d="M133.815.181c-.167.014-.33.019-.4-.181h.41c.069.044.09.086.064.124s-.049.056-.074.056" transform="translate(-88.31)" fill="#a89696"/>
          <path id="Trazado_203665" data-name="Trazado 203665" d="M134.6.181a1.793,1.793,0,0,0,.01-.181h.41a.358.358,0,0,1-.42.181" transform="translate(-89.093)" fill="#958080"/>
          <path id="Trazado_203666" data-name="Trazado 203666" d="M148.984,0c-.137.262-.273.225-.41,0Z" transform="translate(-98.343)" fill="#b1a2a2"/>
          <path id="Trazado_203667" data-name="Trazado 203667" d="M131.762,62.09l.611-.433c.756-.326,1.22.2,1.7.612a13.465,13.465,0,0,1,3.722,5.9,28.226,28.226,0,0,1,1.625,7.986c.028.514.171,1.007.219,1.518.045,3.082.033,6.163.028,9.244q0,1.881,0,3.762c0,.683,0,1.365.063,2.044a7.632,7.632,0,0,1-3,4.919,16.311,16.311,0,0,1-9.722,3.448,5.424,5.424,0,0,1-1.7-.251,4.83,4.83,0,0,0-2.22-.1,1.55,1.55,0,0,0-1.476,1.639c.057.8.643,1.29,1.6,1.416a12.442,12.442,0,0,0,3.807-.51,21.794,21.794,0,0,0,8.369-2.129,17.694,17.694,0,0,0,2.252-1.41c.262-.191.49-.506.894-.352a9.763,9.763,0,0,1-3.53,4.278,2.213,2.213,0,0,0-1.043,2.12c.082,1.7.029,3.413.032,5.12-.1.3-.208.121-.316.008a33.985,33.985,0,0,1-.159-4.581c-.021-.31.254-.765-.3-.91-1.681,1.169-3.294,2.422-4.915,3.661a11.034,11.034,0,0,1-7.391,2.453c-1.257-.056-2.518.007-3.777-.015a9.8,9.8,0,0,1-5.492-3.553,19.708,19.708,0,0,1-5.186-13.552c.048-6.866-.015-13.733.026-20.6a5.971,5.971,0,0,1,3.69-5.776,8.13,8.13,0,0,1,3.416-.535A38.024,38.024,0,0,0,126.041,65.4a18.552,18.552,0,0,0,5.721-3.312" transform="translate(-70.457 -40.744)" fill="#efbf86"/>
          <path id="Trazado_203668" data-name="Trazado 203668" d="M45.846,251.83l-26.265,0c-.333-.374-.242-.836-.252-1.272-.034-1.5.084-3.007-.058-4.5-.273-2.875-1.862-4.974-3.983-6.794-2.459-2.11-4.842-4.307-7.248-6.478-.861-.777-1.755-1.517-2.594-2.32-.242-.232-.574-.385-.638-.765,1.3-1.819,3.207-2.529,5.281-3.008q8.7-2.006,17.376-4.084c.549-.13,1.281.093,1.56-.68.383-.042.423.284.525.515,2.106,4.809,4.36,9.552,6.483,14.353.124.281.266.553.4.827.951,1.879,2.187,2.159,3.847.822,1.436-1.156,2.9-2.269,4.431-3.3.422-.284.89-.648,1.255.094.109.84.811,1.37,1.106,2.115.008,1.873-.211,3.732-.337,5.6-.177,2.611-.3,5.227-.573,7.831a1.67,1.67,0,0,1-.321,1.053" transform="translate(-3.183 -146.89)" fill="#b3e0f9"/>
          <path id="Trazado_203669" data-name="Trazado 203669" d="M176.536,251.82l-5.346,0c-.336-.362-.266-.823-.309-1.257-.137-1.383-.8-2.073-2.149-2.086q-5.763-.054-11.528,0c-1.415.016-2,.654-2.1,2.086a1.839,1.839,0,0,1-.3,1.257l-4.535,0a3.387,3.387,0,0,1-.434-1.961c-.162-3.427-.549-6.839-.673-10.267a11.371,11.371,0,0,1-.133-2.231c.273-.754,1-1.271,1.1-2.117.29-.657.718-.47,1.161-.187a38.383,38.383,0,0,1,3.315,2.4c.561.447,1.12.9,1.715,1.3a1.957,1.957,0,0,0,3.152-.778c1.026-2,1.9-4.085,2.827-6.135,1.439-3.168,2.917-6.319,4.3-9.513.089-.207.157-.474.486-.421.02.374.3.379.576.443,5.723,1.352,11.439,2.729,17.167,4.059,2.436.566,4.9,1.019,6.474,3.27a48.507,48.507,0,0,1-4.521,4.269c-2.4,2.231-4.915,4.328-7.288,6.585a8.717,8.717,0,0,0-2.708,6.527c-.009,1.2,0,2.39,0,3.585a1.579,1.579,0,0,1-.252,1.169" transform="translate(-98.624 -146.883)" fill="#b3e0f9"/>
          <path id="Trazado_203670" data-name="Trazado 203670" d="M110.018,63.138a7.263,7.263,0,0,1-3.393,2.621A34.224,34.224,0,0,1,95.138,68.7c-1.764.186-3.523.075-5.288.3a5.659,5.659,0,0,0-4.817,5.287c-.079,7.583-.139,15.169.016,22.749a18.2,18.2,0,0,0,4.312,10.926,12.9,12.9,0,0,0,5.407,4.2,4.14,4.14,0,0,0,.693.146c-.045.5-.465.445-.769.456-3.447.121-6.722-.362-9.542-2.6-1.649-1.308-3.358-2.542-5.132-3.86-.216,1.983.151,3.86-.224,5.7-.153.165-.268.165-.325-.077.007-1.808-.02-3.617.039-5.423a1.69,1.69,0,0,0-.843-1.6,10.849,10.849,0,0,1-4.655-7.284c-.2-1.13.021-2.315-.414-3.419a43.043,43.043,0,0,0,.215-7.007c.048-2.923-.02-5.847.028-8.769a17.2,17.2,0,0,1,.912-5.426c1.571-4.774,5.2-7.081,9.857-8.071a27.07,27.07,0,0,1,7.446-.187,52.243,52.243,0,0,0,8.368.221,1.684,1.684,0,0,1,1.192.15,26.155,26.155,0,0,0,7.356-1.594l1.05-.394" transform="translate(-48.713 -41.792)" fill="#e5ae78"/>
          <path id="Trazado_203671" data-name="Trazado 203671" d="M1.626,244.917a51.842,51.842,0,0,1,4.867,4.19c2.5,2.151,4.917,4.409,7.317,6.676a8.585,8.585,0,0,1,2.582,6.144c.069,1.705.009,3.416.007,5.124-4.3.007-8.6.03-12.895.015a3.608,3.608,0,0,1-3.468-3.714c-.043-4.707-.055-9.416.011-14.123a6.388,6.388,0,0,1,1.58-4.312" transform="translate(0 -162.114)" fill="#9fd1ef"/>
          <path id="Trazado_203672" data-name="Trazado 203672" d="M230.453,267.051c.084-2.136-.129-4.271.153-6.414.344-2.618,1.859-4.459,3.709-6.12,1.664-1.495,3.365-2.949,5.027-4.445,1.715-1.544,3.4-3.123,5.108-4.673a4.93,4.93,0,0,1,.776-.482,6.638,6.638,0,0,1,1.587,4.516c.051,4.571.015,9.143.019,13.714a3.839,3.839,0,0,1-4,3.953c-4.125-.1-8.255-.042-12.383-.049" transform="translate(-152.54 -162.114)" fill="#9fd1ef"/>
          <path id="Trazado_203673" data-name="Trazado 203673" d="M88.206,37.357c-4.165.634-8.307-.117-12.46-.216a18.449,18.449,0,0,0-7.974,1.429c-3.781,1.648-5.784,4.613-6.628,8.508a18.609,18.609,0,0,0-.458,3.437c-1.49.117.962,8.224-.5,7.659-.627-1.94-5.2-11.741-6.607-13.305A.983.983,0,0,1,53.4,44.3c-.446-8.735,1.674-16.517,8.42-22.569.225-.2.488-.362.733-.542.382.273.043.457-.084.665A21.262,21.262,0,0,0,59.3,33.987c.077,2.037.078,2.057,1.8,1.164A17.13,17.13,0,0,1,70.438,33.1a28.05,28.05,0,0,1,5.768,1.161,74.488,74.488,0,0,0,9.927,2.63,15.468,15.468,0,0,0,1.727.089c.266.01.508,0,.346.378" transform="translate(-35.308 -14.023)" fill="#5a4146"/>
          <path id="Trazado_203674" data-name="Trazado 203674" d="M80.8,206.663l.2.2a7.343,7.343,0,0,1,2.12,1.708c1.605,1.416,3.195,2.853,4.784,4.289,3.179,2.839,6.272,5.772,9.548,8.5a.392.392,0,0,1-.02.284c-.951.717-2.058,1.174-3.043,1.837a8.368,8.368,0,0,0-1.732,1.391c-.278-.5-.56-.153-.807.016a39.6,39.6,0,0,0-4.4,3.3c-1.553,1.414-3.465,1.346-4.413-.843-2.27-5.245-4.808-10.371-7.012-15.647-.024-.059-.089-.1-.135-.149a1.137,1.137,0,0,1,.038-1.541c.559-.72,1.037-1.5,1.544-2.263,1.114-1.672,1.521-1.805,3.331-1.08" transform="translate(-50.044 -136.517)" fill="#9fd1ef"/>
          <path id="Trazado_203675" data-name="Trazado 203675" d="M140.079,221.586c0-.058,0-.117,0-.175.052-.453.408-.7.7-.967,2.481-2.272,5-4.5,7.494-6.76,2.268-2.053,4.556-4.083,6.826-6.133.3-.269.524-.639.97-.706l.175-.163c1.813-.764,2.236-.631,3.349,1.039.508.763.989,1.549,1.549,2.273a1.139,1.139,0,0,1,.042,1.547q-3.314,7.343-6.629,14.683c-.253.559-.53,1.108-.814,1.652a2.186,2.186,0,0,1-3.438.76c-1.662-1.236-3.316-2.483-4.993-3.7-.232-.168-.553-.644-.892-.071a16.256,16.256,0,0,0-3.625-2.552c-.285-.187-.75-.221-.717-.729" transform="translate(-92.719 -136.51)" fill="#9fd1ef"/>
          <path id="Trazado_203676" data-name="Trazado 203676" d="M190.107,50.376a47.832,47.832,0,0,0-1.225-7.34c-.817-2.812-1.876-5.492-4.105-7.527-.466-.425-.9-.962-1.639-.919,5.189-2.354,6.683-9.256,3.679-13.565a3.324,3.324,0,0,1-.193-.361A9.09,9.09,0,0,1,193,24.838a23.865,23.865,0,0,1,3.628,10.094,52.307,52.307,0,0,1,.635,8.551,2.331,2.331,0,0,1-.549,1.58c-.994,2.669-1.869,3.482-2.465,4.883-.214.264-3.451,7.014-3.753,7.012-1.107-.007,0-3.608-.386-6.582" transform="translate(-121.222 -13.678)" fill="#785550"/>
          <path id="Trazado_203677" data-name="Trazado 203677" d="M134.191,266.495q.46,6.6.919,13.21c.035.507.045,1.017.066,1.526h-8.985q.454-6.758.908-13.517c.027-.406.05-.813.075-1.219a9.219,9.219,0,0,1,2.842-.1,21.665,21.665,0,0,1,4.174.1" transform="translate(-83.528 -176.29)" fill="#5b5d6e"/>
          <path id="Trazado_203678" data-name="Trazado 203678" d="M166.122,303.133c-.188-3.072.447-3.776,3.656-3.686,3.343.093,6.693.109,10.034-.014a2.443,2.443,0,0,1,2.705,2.777,8.884,8.884,0,0,0-.012.921l-16.384,0" transform="translate(-109.939 -198.198)" fill="#9fd1ef"/>
          <path id="Trazado_203679" data-name="Trazado 203679" d="M137.182,195.739a69.124,69.124,0,0,1-5.38,4.988c-3.5,3.233-7.07,6.39-10.611,9.578-1.079-.245-1.634-1.189-2.385-1.85-2.451-2.16-4.849-4.381-7.267-6.579a.7.7,0,0,1,.654-.2c8.28.624,15.085-2.552,20.946-8.144a29.792,29.792,0,0,0,3.423-3.768c.084-.15.177-.332.365-.309.363.045.238.36.239.566.014,1.9.013,3.81.016,5.715" transform="translate(-73.829 -125.405)" fill="#e5ae78"/>
          <path id="Trazado_203680" data-name="Trazado 203680" d="M123.332,189.7c.02,1.013-.869,1.473-1.4,2.075a30.775,30.775,0,0,1-12.131,8.58,25.063,25.063,0,0,1-6.317,1.482,21.581,21.581,0,0,1-5.169-.027c-2.307-1.982-4.618-3.961-6.758-6.127v-6.326a35,35,0,0,1,3.5,2.517c1.929,1.381,3.676,3.08,6.082,3.639a13.709,13.709,0,0,0,6.214.35,55.964,55.964,0,0,0,5.9-.108c2.6-.351,4.58-1.918,6.573-3.454,1.153-.888,2.338-1.735,3.508-2.6" transform="translate(-60.6 -125.339)" fill="#d19a6e"/>
          <path id="Trazado_203681" data-name="Trazado 203681" d="M134.086,256.77a17.281,17.281,0,0,1-4.42.183,5.7,5.7,0,0,1-2.6-.184,2.158,2.158,0,0,1-1.037-1.847c.073-.249-.02-.553.269-.729a24.211,24.211,0,0,1,4.481-2.552c1.223.757,2.439,1.525,3.674,2.263a1.083,1.083,0,0,1,.668,1.017,2.166,2.166,0,0,1-1.038,1.847" transform="translate(-83.423 -166.566)" fill="#515262"/>
          <path id="Trazado_203682" data-name="Trazado 203682" d="M162.054,136.569s1.633,11.973-4.669,16.76c0,0-16.1,1.963-16.1,1.6s-1.014-9.16-1.014-9.16Z" transform="translate(-92.846 -90.397)" fill="#efbf86"/>
        </g>
      </g>
    </g>
  </g>
</svg>
