<svg id="Grupo_138056" data-name="Grupo 138056" xmlns="http://www.w3.org/2000/svg" xmlns:xlink="http://www.w3.org/1999/xlink" width="79.479" height="79.5" viewBox="0 0 79.479 79.5">
  <defs>
    <clipPath id="clip-path">
      <rect id="Rectángulo_88243" data-name="Rectángulo 88243" width="79.479" height="79.5" fill="none"/>
    </clipPath>
  </defs>
  <g id="Grupo_138057" data-name="Grupo 138057" clip-path="url(#clip-path)">
    <path id="Trazado_208452" data-name="Trazado 208452" d="M78.666,79.464H47.324A1.294,1.294,0,0,1,46.343,78a17.471,17.471,0,0,1,1.7-7.423,18.307,18.307,0,0,1,7.2-8.113,2.713,2.713,0,0,0,.323-.214c.144-.119.276-.256.2-.462s-.268-.213-.454-.2c-1.157.1-2.321.157-3.47.319A6.123,6.123,0,0,1,45.1,56.1c-.008-1.034-.029-2.07.008-3.1.025-.682-.182-1.1-.912-1.152a3.11,3.11,0,0,1-.6-.144,2.331,2.331,0,0,1-1.476-3.646,23.049,23.049,0,0,1,1.674-2.518A6.067,6.067,0,0,0,45.108,41.2a11.77,11.77,0,0,1,1.483-6.567c.321-.592-.065-.588-.465-.588-1.784,0-3.567-.007-5.351,0a5.364,5.364,0,0,1-2.419-.436.627.627,0,0,0-.91.286,6.321,6.321,0,0,1-3.157,2.518.56.56,0,0,0-.382.792,14.251,14.251,0,0,1,.433,4.766,4.619,4.619,0,0,0,.843,2.844q1.019,1.464,1.98,2.968c1.182,1.846.525,3.461-1.61,3.991-1.207.3-1.207.3-1.208,1.525,0,.853-.04,1.709.007,2.56a6.127,6.127,0,0,1-6.911,6.032,28.721,28.721,0,0,0-3.009-.256c-.266-.009-.625-.209-.75.157-.132.388.263.512.514.668A18.888,18.888,0,0,1,26.573,64.2,18.486,18.486,0,0,1,32.938,75.84a11.619,11.619,0,0,1,.163,2.239,1.284,1.284,0,0,1-.983,1.385H.776A.963.963,0,0,1,0,78.687V76.515A1.032,1.032,0,0,1,1.032,75.7a1.288,1.288,0,0,1,1.352.7.912.912,0,0,0,.956.505c.154-.008.31,0,.465,0H29.055c.1,0,.207,0,.31,0,.858-.013.922-.08.793-.958a14.78,14.78,0,0,0-1.378-4.5,16.081,16.081,0,0,0-5.227-6.116c-.356-.248-.72-.513-.955.132-.292.831-.424,1.706-.7,2.541-.463,1.4-1.255,1.695-2.469.9-2.725-1.785-5.441-3.588-8.073-5.5a3.386,3.386,0,0,0-3.4-.491,7.991,7.991,0,0,0-5.425,7.473c0,.284,0,.569,0,.853C2.5,72.321,2.047,72.772.96,72.816a1.087,1.087,0,0,1-.96-.8V69.686c.164-.265.042-.557.08-.835a8.987,8.987,0,0,1,3.161-6.268,10.252,10.252,0,0,1,5.28-2.619,1.142,1.142,0,0,0,1.007-1c.321-1.385.673-2.764,1.023-4.142a1.491,1.491,0,0,0-.023-1.135,19.513,19.513,0,0,1-1.834-6.619,34.9,34.9,0,0,1-.854-6.679,12.931,12.931,0,0,1,3.275-8.264,13,13,0,0,1,8.433-4.483,42.132,42.132,0,0,1,4.416-.076c.749-.016,1.5.019,2.249-.012a2.725,2.725,0,0,0,2.457-1.381c1.333-2.476,3.665-2.626,5.95-1.637,1.171.506,1.162.528,1.161-.779,0-.724-.009-1.448,0-2.172.008-.469-.152-.731-.665-.731-2.947,0-5.895-.009-8.842.007a1.422,1.422,0,0,0-1.015.5q-1.1,1.1-2.195,2.194c-.667.665-1.377,1.217-2.4.794A2.186,2.186,0,0,1,19.33,22.04c.013-1.148-.01-1.143-1.217-1.188a4.32,4.32,0,0,1-4.22-2.732,5.947,5.947,0,0,1-.376-3.2,1.456,1.456,0,0,1,1.338-1.386,1.353,1.353,0,0,1,1.3.982,16.121,16.121,0,0,0,.159,2.08,1.711,1.711,0,0,0,1.734,1.468c.412.037.827.015,1.24.019a2.485,2.485,0,0,1,2.758,2.077.366.366,0,0,0,.206.291c.482-.417.935-.906,1.405-1.375a3.3,3.3,0,0,1,2.5-1.009c4.006.036,8.013.015,12.02.014a6.648,6.648,0,0,0,1.084-.044,1.665,1.665,0,0,0,1.526-1.425,4.689,4.689,0,0,0,.1-1.079q0-5.313,0-10.627a4.443,4.443,0,0,0-.047-.773,1.709,1.709,0,0,0-1.733-1.563c-1.059-.053-2.119,0-3.18-.021-5.653.041-11.3.008-16.957.018-2.262,0-2.74.488-2.748,2.789,0,1.317.033,2.634-.017,3.949-.039,1.025-.456,1.393-1.512,1.434a1.331,1.331,0,0,1-1.182-1.332,22.281,22.281,0,0,1,.19-6.465A3.685,3.685,0,0,1,17.068,0H40.031c2.34.45,3.594,1.982,3.633,4.529.037,2.45.006,4.9.01,7.353,0,1.058.024,1.075,1.084,1.082.31,0,.62-.01.928.014.813.063,1.092.294,1.363,1.116a1.467,1.467,0,0,1-1.483,1.626c-.051.006-.1.009-.155.013-1.622.127-1.622.127-1.921,1.671a4.374,4.374,0,0,1-3.708,3.379c-1.23.217-1.229.217-1.231,1.49,0,2.4.007,4.809,0,7.213.16,1.341.656,1.779,2.122,1.785,3.927.016,7.855.069,11.78-.025a4.614,4.614,0,0,1,4.019,1.7,3.1,3.1,0,0,0,.72.681c.073.007.122-.012.137-.063.57-1.836,1.183-2.282,3.145-2.287,2.222-.006,2.75-.517,2.757-2.731.011-3.411,0-6.822,0-10.234,0-.207,0-.414-.021-.62-.139-1.489-.624-1.932-2.128-1.943-.93-.007-1.86.009-2.791-.005-2.2.032-4.394.022-6.59.007a1.69,1.69,0,0,1-1.9-1.35c.139-.993.538-1.41,1.492-1.417,3.592-.025,7.184-.046,10.775.007a4.1,4.1,0,0,1,3.725,3.3,10.53,10.53,0,0,1,.218,2c-.007,3.283.076,6.568-.044,9.847a3.136,3.136,0,0,0,1.188,2.838A12.535,12.535,0,0,1,71.5,39.057a14.774,14.774,0,0,1-.168,4.706c-.345,1.855-.644,3.718-.978,5.575a13.528,13.528,0,0,1-1.269,3.973,2.142,2.142,0,0,0-.167,1.643c.347,1.3.69,2.6.973,3.912a1.314,1.314,0,0,0,1.169,1.125,10.464,10.464,0,0,1,7.891,6.64,6.578,6.578,0,0,1,.406,2.195c.038.285-.084.585.08.859v9a.963.963,0,0,1-.776.776"/>
    <path id="Trazado_208453" data-name="Trazado 208453" d="M506.534,507.445l.776-.776q.209.985-.776.776" transform="translate(-427.867 -427.982)" fill="#ececec"/>
    <path id="Trazado_208454" data-name="Trazado 208454" d="M0,443.582a.465.465,0,0,1,.135-.023.85.85,0,0,1-.135.8Z" transform="translate(0 -374.673)" fill="#585858"/>
    <path id="Trazado_208455" data-name="Trazado 208455" d="M510.452,443.567q.068.008.136.022v.776a.85.85,0,0,1-.136-.8" transform="translate(-431.145 -374.68)" fill="#5a5a5a"/>
    <path id="Trazado_208456" data-name="Trazado 208456" d="M94.235,26.337c0-.789-.015-1.578.006-2.366a.774.774,0,0,0-.316-.72c1.125-.018,1.459-.348,1.466-1.494.01-1.548-.006-3.1.005-4.645.011-1.483.651-2.114,2.134-2.113q8.9.007,17.8.023a1.328,1.328,0,0,1,.248,1.024c.006,3.281.02,6.562,0,9.843a3.107,3.107,0,0,1-3.3,3.314c-5.269.024-10.538.013-15.807,0-1.025,0-1.059-.063-1.071-1.11a2.46,2.46,0,0,0-.066-.994,1.542,1.542,0,0,0-1.095-.766" transform="translate(-79.338 -12.67)" fill="#dbe5ea"/>
    <path id="Trazado_208457" data-name="Trazado 208457" d="M255.111,90.938a12.217,12.217,0,0,0,3.068.155c.294.978.574,1.2,1.592,1.2q3.4.024,6.793.04a1.423,1.423,0,0,1,.244,1.029c0,3.279.018,6.559,0,9.838a3.123,3.123,0,0,1-3.351,3.342c-5.292.021-10.584.009-15.876,0a1.418,1.418,0,0,1-1.029-.245c-.011-2.816-.014-5.631-.042-8.447,0-.42.189-.456.516-.442a4.977,4.977,0,0,0,1.685-.2A4.043,4.043,0,0,0,251.6,93.1c-.008-.724.221-.89.866-.815a8.589,8.589,0,0,0,1.239.007c.965-.028,1.316-.37,1.41-1.356" transform="translate(-208.222 -76.815)" fill="#dbe5ea"/>
    <path id="Trazado_208458" data-name="Trazado 208458" d="M6.961,414.951a10.519,10.519,0,0,0-.046-2.981c.981-.17,1.282-.49,1.246-1.51a8.317,8.317,0,0,1,2.6-6.708,8.109,8.109,0,0,1,4.25-2.077,1.914,1.914,0,0,1,1.524.328c2.908,2.015,5.842,3.991,8.77,5.977,1.191.808,1.892.544,2.265-.839.215-.8.434-1.593.652-2.389.375-.154.523.149.662.371a12.96,12.96,0,0,1,1.681,3.559,4.772,4.772,0,0,1-4.041,5.932,22.546,22.546,0,0,1-2.78.155q-7.32-.009-14.641-.005a7.876,7.876,0,0,0-2.14.188" transform="translate(-5.841 -339.262)" fill="#fc4b52"/>
    <path id="Trazado_208459" data-name="Trazado 208459" d="M303.486,256.621c-1.214.253-1.511.915-.913,2.027.187.43-.07.76-.281,1.071a13,13,0,0,1-8.971,5.814c-1.172.191-2.358.287-3.544.36a.822.822,0,0,1-.6-.068,3.207,3.207,0,0,1-.346-1.778c-.014-1.163,0-2.326-.005-3.489-.008-1.589-.549-2.221-2.132-2.515-.329-.061-.655-.135-1.077-.223.548-.845,1.013-1.71,1.617-2.465a7.165,7.165,0,0,0,1.6-5.338,2.926,2.926,0,0,1,.1-1.523c.235-.446.889-.139,1.35-.244a34.227,34.227,0,0,0,3.45-1.131c2.041-.7,3.513.192,3.855,2.343q.3,1.873.632,3.74a1.965,1.965,0,0,0,3.369,1.235c.735-.607,1.466-1.219,2.2-1.828.368-.089.788-.182.71.408a17.345,17.345,0,0,1-.627,3.159.658.658,0,0,1-.391.446" transform="translate(-241.261 -208.543)" fill="#feddce"/>
    <path id="Trazado_208460" data-name="Trazado 208460" d="M316.815,414.593a15.4,15.4,0,0,1,5.339-9.165c.563-.488,1.2-.888,1.8-1.335.339-.252.506-.214.611.237.233,1,.512,2,.786,2.991.336,1.217,1.085,1.5,2.146.78,2.909-1.963,5.827-3.915,8.7-5.924a2.137,2.137,0,0,1,2.162-.3,3.894,3.894,0,0,1,1.278,2.571,18.176,18.176,0,0,1,.2,5.928,5.062,5.062,0,0,1-3.82,4.206,10.134,10.134,0,0,1-2.073.242q-8.091.014-16.182,0a1.261,1.261,0,0,1-.95-.235" transform="translate(-267.613 -339.324)" fill="#feca2e"/>
    <path id="Trazado_208461" data-name="Trazado 208461" d="M83.873,256.107a11.221,11.221,0,0,1-4.486-5.265c-.129-.292-.109-.451.173-.621a4.148,4.148,0,0,0,1.393-1.322c.238-.376.439-.3.743-.1a4.587,4.587,0,0,0,2.33.744,1.211,1.211,0,0,0,1.412-1.1c.036-.655-.441-1.127-1.226-1.214a2.589,2.589,0,0,1-2.5-2.627,1.494,1.494,0,0,1,.8-1.321c.417-.24.665-.2.608.378-.244,2.436,1.4,2.612,3.111,2.272a3.19,3.19,0,0,0,2.494-3.068c.033-1.471,0-2.944.016-4.416a2.488,2.488,0,0,1,2.689-2.71c.8,0,1.6.021,2.4.033a1.179,1.179,0,0,1,.218,1.028,7.594,7.594,0,0,0,1.853,6.021,11.75,11.75,0,0,1,1.112,1.676,1.326,1.326,0,0,1-.956,2.2c-.05.012-.1.021-.152.032-1.849.387-1.849.387-1.849,2.31,0,.929.013,1.859,0,2.788a4.947,4.947,0,0,1-5,4.949c-1.447.006-2.875-.236-4.314-.347a2.677,2.677,0,0,1-.868-.314" transform="translate(-66.994 -199.125)" fill="#feddce"/>
    <path id="Trazado_208462" data-name="Trazado 208462" d="M246.776,113.732q8.523,0,17.045,0a2.828,2.828,0,0,0,2.968-2.965q.008-5.5,0-11c1.11-.01,2.222-.048,3.331-.022a1.667,1.667,0,0,1,1.685,1.593,5.792,5.792,0,0,1,.032.7q0,5.664,0,11.328c0,1.774-.6,2.361-2.38,2.362h-.31c-2.345,0-2.907.487-3.213,2.9-.682-.691-1.324-1.312-1.931-1.965a2.884,2.884,0,0,0-2.275-.945c-4.292.024-8.584.014-12.876.009-1.417,0-2.1-.662-2.078-1.988" transform="translate(-208.451 -84.244)" fill="#b8c2cc"/>
    <path id="Trazado_208463" data-name="Trazado 208463" d="M102.969,27.1c.318.388.149.846.157,1.27s.1.6.562.6c5.556-.013,11.113.01,16.67-.023a2.791,2.791,0,0,0,2.615-2.84c.008-3.7,0-7.394,0-11.09,1.007-.008,2.013-.025,3.019-.022a1.817,1.817,0,0,1,2.053,2.05c.016,2.092,0,4.184,0,6.276q0,2.6,0,5.191c0,1.827-.592,2.426-2.4,2.427-4.132,0-8.263.02-12.394-.014a3.032,3.032,0,0,0-2.473,1.021c-.563.633-1.169,1.227-1.778,1.861-.224-.241-.14-.452-.151-.637a2.235,2.235,0,0,0-2.22-2.223c-.516-.022-1.033,0-1.549-.011a1.841,1.841,0,0,1-2.063-1.984c-.039-.618-.038-1.238-.055-1.857" transform="translate(-86.978 -12.672)" fill="#b8c2cc"/>
    <path id="Trazado_208464" data-name="Trazado 208464" d="M108.688,256.042c1.79.166,3.572.443,5.374.442a4.753,4.753,0,0,0,4.584-4.535c.02-1.318,0-2.636.005-3.955,0-.946.3-1.292,1.23-1.435.3-.047.608-.1.91-.155,1.2-.221,1.492-.9.816-1.929-.65-.992-1.3-1.983-1.978-2.958a4.845,4.845,0,0,1-.992-3.255c.071-.847.009-1.7.007-2.558,1.239-.012,2.478-.007,3.716-.044.394-.012.528.169.65.5a8.731,8.731,0,0,1,.648,3.867,8.472,8.472,0,0,0,1.975,6.394,23.023,23.023,0,0,1,1.267,1.923l-1.271.248a2.091,2.091,0,0,0-1.941,2.293c-.02,1.188,0,2.377-.006,3.566-.013,2.745-1.7,4.24-4.42,3.951-2.156-.229-4.329-.305-6.468-.672a9.562,9.562,0,0,1-4.1-1.682" transform="translate(-91.808 -199.061)" fill="#fbb09e"/>
    <path id="Trazado_208465" data-name="Trazado 208465" d="M315.284,415.508c5.712,0,11.423.014,17.135-.012a6.017,6.017,0,0,0,3.541-.867,4.876,4.876,0,0,0,2.132-3.512,19.754,19.754,0,0,0-.173-5.606,8.747,8.747,0,0,0-1.084-2.718,7.965,7.965,0,0,1,6.339,7.431c.065,2.2.008,4.394.032,6.591,0,.437-.118.568-.561.567q-13.567-.018-27.134,0c-.478,0-.575-.151-.468-.585a6.565,6.565,0,0,1,.242-1.289" transform="translate(-266.082 -340.238)" fill="#cba124"/>
    <path id="Trazado_208466" data-name="Trazado 208466" d="M72.443,185.766a3.994,3.994,0,0,0-3.461,2.911,3.369,3.369,0,0,0-.03,1.991c.344,1.022-.154,1.664-.877,2.432-.24-1.347-.462-2.577-.679-3.809a17.629,17.629,0,0,1-.406-6.224,10.748,10.748,0,0,1,10.284-8.785c1.758-.02,3.516,0,5.274-.006a5.231,5.231,0,0,0,4.89-2.841,1.169,1.169,0,0,1,1.449-.7,2.2,2.2,0,0,1,.149,1.725,5.152,5.152,0,0,1-5.04,4.215,35.894,35.894,0,0,0-4.641.145,7.959,7.959,0,0,0-6.7,7.68c0,.429.106.886-.21,1.268" transform="translate(-56.461 -144.173)" fill="#feca2e"/>
    <path id="Trazado_208467" data-name="Trazado 208467" d="M6.876,427.17c.165-.46.536-.435.932-.434,5.711.008,11.421.019,17.132-.005a5.522,5.522,0,0,0,3.651-1,4.327,4.327,0,0,0,1.653-4.8,8.91,8.91,0,0,0-2.109-3.963,3.652,3.652,0,0,0,.11-.447c.06-.5.257-.515.649-.255a16.04,16.04,0,0,1,7.369,11.907c.046.365-.072.467-.4.441-.129-.01-.258,0-.388,0q-13.294,0-26.589.006c-.456,0-.8.008-.917-.59-.108-.55-.63-.7-1.145-.745-.022-.047,0-.086.052-.118" transform="translate(-5.756 -351.481)" fill="#c93c41"/>
    <path id="Trazado_208468" data-name="Trazado 208468" d="M102.759,186.048a8.451,8.451,0,0,1,1.33-5.6,8.166,8.166,0,0,1,5.625-3.565,32.107,32.107,0,0,1,4.556-.134,4.888,4.888,0,0,0,4.937-4.957c0-.258,0-.517,0-.775a3.906,3.906,0,0,1,3.537,3.916,3.847,3.847,0,0,1-3.83,3.791c-2.531.046-5.063.011-7.595.016a4.818,4.818,0,0,0-5.118,5.082c-.007,1.292,0,2.584-.005,3.876a2.159,2.159,0,0,1-.093.76c-.115.292-.361.585-.693.521-.348-.067-.116-.433-.173-.659a.969.969,0,0,1,0-.232c0-1.769-.228-2-2.009-2.01-.154,0-.308-.018-.462-.027" transform="translate(-86.778 -144.455)" fill="#cba124"/>
    <path id="Trazado_208469" data-name="Trazado 208469" d="M308.546,329.694c1.28-.3,2.6-.268,3.894-.466A12.331,12.331,0,0,0,319.2,326.1a9.1,9.1,0,0,0,2.739-3.585,2.407,2.407,0,0,0,2.363.05c.454-.159.6-.055.744.374a8.578,8.578,0,0,0,1.407,2.562.547.547,0,0,1,.035.792,11.6,11.6,0,0,1-8.32,4.929c-1.971.233-3.951.38-5.926.576a3.587,3.587,0,0,1-3.7-2.1" transform="translate(-260.628 -272.411)" fill="#fbb09e"/>
    <path id="Trazado_208470" data-name="Trazado 208470" d="M406.515,209.639a4.116,4.116,0,0,0,1.323-.92c.29-.367.51-.209.763.011a10.615,10.615,0,0,1,3.821,7.607c.137,2.274-.518,4.45-.865,6.664a22.964,22.964,0,0,1-.888,4.16,6.663,6.663,0,0,1-1.037-2.45c-.1-.4.19-.684.339-1a4.118,4.118,0,0,0-1.467-5.44,11.888,11.888,0,0,0-1.519-.556.84.84,0,0,1-.139-.808,12.76,12.76,0,0,0-.334-7.035.539.539,0,0,1,0-.231" transform="translate(-343.369 -176.119)" fill="#5f6c75"/>
    <path id="Trazado_208471" data-name="Trazado 208471" d="M374.66,215.833a6.526,6.526,0,0,1,.782,2.683,11.929,11.929,0,0,1-.28,4.779,4.247,4.247,0,0,0-.032.613,3.887,3.887,0,0,0-3.549,1.455,9.623,9.623,0,0,1-.839.71c-.61-2.178-.318-4.523-1.953-6.244.12-.187.249-.1.358-.078a1.789,1.789,0,0,0,2.26-1.77c.025-.589-.171-1.347.123-1.721.317-.4,1.114-.068,1.693-.149.483-.067.959-.184,1.439-.279" transform="translate(-311.514 -182.313)" fill="#8f9aa5"/>
    <path id="Trazado_208472" data-name="Trazado 208472" d="M384.108,364.368c.331,1.309.638,2.529.948,3.749a.436.436,0,0,1-.22.519c-2.563,1.735-5.123,3.476-7.761,5.268-.437-1.613-.849-3.142-1.267-4.67-.062-.228-.078-.4.226-.448a14.16,14.16,0,0,0,8.075-4.418" transform="translate(-317.413 -307.78)" fill="#fbb09e"/>
    <path id="Trazado_208473" data-name="Trazado 208473" d="M83.867,373.969c-1.48-1.005-2.885-1.961-4.292-2.915q-1.667-1.13-3.338-2.255c-.245-.165-.451-.316-.355-.679.319-1.194.615-2.4.941-3.677a16.3,16.3,0,0,0,2.83,2.383,13.278,13.278,0,0,0,4.926,1.965c.6.1.613.291.467.791-.411,1.411-.768,2.838-1.18,4.388" transform="translate(-64.078 -307.843)" fill="#fbb09e"/>
    <path id="Trazado_208474" data-name="Trazado 208474" d="M310.224,221.178a9.969,9.969,0,0,1,1.81-3.3.576.576,0,0,1,.532-.244,2.262,2.262,0,0,0,.232,0c3.182-.052,3.329.022,5.69,2.877-.2.145-.321-.058-.451-.125a4.872,4.872,0,0,0-3.892-.309c-.9.3-1.791.643-2.694.942a1.807,1.807,0,0,1-1.228.155" transform="translate(-262.045 -183.829)" fill="#8f9aa5"/>
    <path id="Trazado_208475" data-name="Trazado 208475" d="M400.663,287.019a18.312,18.312,0,0,0,.825-3.626c.116-.533-.311-.3-.517-.387a1.54,1.54,0,0,1,1.75.373,1.651,1.651,0,0,1,.373,1.73,2.538,2.538,0,0,1-2.431,1.909" transform="translate(-338.439 -238.941)" fill="#fab09e"/>
    <path id="Trazado_208476" data-name="Trazado 208476" d="M209.092,62.174a1.2,1.2,0,0,1-1.2-1.172,1.163,1.163,0,0,1,1.131-1.145,1.143,1.143,0,0,1,1.187,1.077,1.176,1.176,0,0,1-1.118,1.24" transform="translate(-175.606 -50.561)" fill="#020203"/>
    <path id="Trazado_208477" data-name="Trazado 208477" d="M146.021,59.86a1.153,1.153,0,0,1,1.189,1.16A1.16,1.16,0,1,1,144.889,61a1.15,1.15,0,0,1,1.132-1.139" transform="translate(-122.387 -50.564)" fill="#020202"/>
    <path id="Trazado_208478" data-name="Trazado 208478" d="M177.642,62.184a1.173,1.173,0,0,1-1.128-1.222,1.118,1.118,0,0,1,1.16-1.092,1.136,1.136,0,0,1,1.138,1.2,1.189,1.189,0,0,1-1.17,1.114" transform="translate(-149.1 -50.571)" fill="#020202"/>
    <path id="Trazado_208479" data-name="Trazado 208479" d="M289.557,144.4a1.156,1.156,0,0,1,1.161,1.186,1.13,1.13,0,0,1-1.147,1.111,1.11,1.11,0,0,1-1.15-1.175,1.131,1.131,0,0,1,1.136-1.122" transform="translate(-243.628 -121.972)" fill="#010101"/>
    <path id="Trazado_208480" data-name="Trazado 208480" d="M322.113,145.615a1.132,1.132,0,0,1-1.263,1.066,1.157,1.157,0,0,1-1.052-1.212,1.183,1.183,0,0,1,1.2-1.081,1.149,1.149,0,0,1,1.117,1.227" transform="translate(-270.13 -121.964)" fill="#020202"/>
    <path id="Trazado_208481" data-name="Trazado 208481" d="M353.784,145.53a1.157,1.157,0,0,1-1.117,1.153,1.11,1.11,0,0,1-1.189-1.135,1.133,1.133,0,0,1,1.171-1.164,1.179,1.179,0,0,1,1.135,1.147" transform="translate(-296.892 -121.959)" fill="#020202"/>
  </g>
</svg>
