<svg id="Grupo_138062" data-name="Grupo 138062" xmlns="http://www.w3.org/2000/svg" xmlns:xlink="http://www.w3.org/1999/xlink" width="79.479" height="79.479" viewBox="0 0 79.479 79.479">
  <defs>
    <clipPath id="clip-path">
      <rect id="Rectángulo_88247" data-name="Rectángulo 88247" width="79.479" height="79.479" fill="none"/>
    </clipPath>
  </defs>
  <g id="Grupo_138063" data-name="Grupo 138063" clip-path="url(#clip-path)">
    <path id="Trazado_208493" data-name="Trazado 208493" d="M79.48,18.162a18.2,18.2,0,0,0-1.812-6.739A20.167,20.167,0,0,0,65.986.954,17.764,17.764,0,0,0,61.163,0h-.621a.2.2,0,0,1-.311,0H58.368a.2.2,0,0,1-.31,0h-.776c-.6.147-1.228.075-1.828.194A19.47,19.47,0,0,0,45.384,5.36c-4.391,4.313-8.7,8.7-13.071,13.041A19.788,19.788,0,0,0,27.3,26.043a1.923,1.923,0,0,1-1.326,1.263,19.032,19.032,0,0,0-7.008,4.465q-6.825,6.78-13.6,13.605a19.075,19.075,0,0,0-4.264,6.866A18.368,18.368,0,0,0,0,57.126v.931a.2.2,0,0,1,0,.31v3.1A18.457,18.457,0,0,0,1.879,68.2,20.241,20.241,0,0,0,13.2,78.428a18.553,18.553,0,0,0,4.805,1.051h.931a.2.2,0,0,1,.311,0h1.863a.2.2,0,0,1,.31,0h.621c.654-.143,1.333-.065,1.983-.2A19.489,19.489,0,0,0,34.1,74.119c4.244-4.167,8.4-8.428,12.638-12.6a21.266,21.266,0,0,0,5.545-8.3,1.408,1.408,0,0,1,.944-.937,20.3,20.3,0,0,0,7.744-5.007c4.374-4.4,8.786-8.769,13.156-13.177a19.2,19.2,0,0,0,4.27-6.862,18.879,18.879,0,0,0,1.085-4.883v-.931a.2.2,0,0,1,0-.31ZM38.346,52.108c-.078.067-.145.147-.218.22q-6.144,6.144-12.287,12.29a8.156,8.156,0,0,1-5.774,2.435,7.5,7.5,0,0,1-7-4.764A7.228,7.228,0,0,1,14.5,54.084C18.683,49.717,23.025,45.5,27.288,41.2c.429-.432.506-.121.649.2a19.906,19.906,0,0,0,8.593,9.365c.56.316,1.144.594,1.73.859.31.14.334.269.085.481M65.074,25.32c-1.884,2.057-3.92,3.974-5.892,5.95-2.282,2.287-4.579,4.56-6.843,6.864-.442.45-.575.437-.846-.152a19.676,19.676,0,0,0-9.948-9.964c-.714-.328-.579-.506-.127-.944,1.5-1.457,2.975-2.947,4.449-4.433a1.66,1.66,0,0,0,.371-2.351c.323-.715,1.012-1.1,1.494-1.677.178-.211.369-.411.555-.617.243-.1.449.041.667.1a1.29,1.29,0,0,0,1.717-1.6c-.042-.222-.189-.431-.09-.672a23.958,23.958,0,0,1,2.156-2.17c.865.786,1.687.451,2.532-.066a7.455,7.455,0,0,1,6.681-.682A7.738,7.738,0,0,1,65.074,25.32" transform="translate(-0.001)"/>
    <path id="Trazado_208494" data-name="Trazado 208494" d="M511.05,136.259c-.2-.1-.171-.207,0-.31Z" transform="translate(-431.571 -114.837)" fill="#555"/>
    <path id="Trazado_208495" data-name="Trazado 208495" d="M0,373.86c.2.1.171.207,0,.31Z" transform="translate(0 -315.803)" fill="#555"/>
    <path id="Trazado_208496" data-name="Trazado 208496" d="M205.452,37.169c-.9-.692-1.54-.8-2.217-.138a63.768,63.768,0,0,0-6.48,6.67,10.652,10.652,0,0,0,.671,13.5,8.563,8.563,0,0,1,2.663,6.531c-.147,2.311-.476,2.506-2.477,1.4A16.553,16.553,0,0,1,188.888,53.6a16.628,16.628,0,0,1,4.732-15.778q6.29-6.386,12.674-12.679a17,17,0,0,1,21.339-2.508,17.183,17.183,0,0,1,7.742,17.072,17.372,17.372,0,0,1-4.971,9.6q-6.312,6.31-12.623,12.62a16.7,16.7,0,0,1-5.374,3.7,22.442,22.442,0,0,0-.3-6.563c-.08-.376.164-.5.363-.693q7.169-6.877,14.056-14.035A10.6,10.6,0,0,0,228.269,32.3a10.863,10.863,0,0,0-10.417-6.075,10.63,10.63,0,0,0-5.3,1.767,1.609,1.609,0,0,0-.6,2.544,7.331,7.331,0,0,1-2.177,2.238,1.279,1.279,0,0,1-.5-.18,1.3,1.3,0,0,0-1.557.259,1.262,1.262,0,0,0-.274,1.485,1.624,1.624,0,0,1,.151.515,8.068,8.068,0,0,1-2.141,2.318" transform="translate(-159.215 -16.879)" fill="#feca2e"/>
    <path id="Trazado_208497" data-name="Trazado 208497" d="M43.17,197.03a22.078,22.078,0,0,0,.293,6.531c.086.407-.165.549-.384.76-4.758,4.57-9.448,9.213-13.994,13.99a10.089,10.089,0,0,0-2.191,11.017,10.318,10.318,0,0,0,8.708,7.006,9.952,9.952,0,0,0,8.717-2.705c4.643-4.5,9.242-9.053,13.717-13.719a10.614,10.614,0,0,0,.049-14.517,8.49,8.49,0,0,1-2.6-6.477c.148-2.285.492-2.483,2.491-1.381A17.1,17.1,0,0,1,61.99,224.8q-6.337,6.45-12.786,12.788a16.965,16.965,0,0,1-21.153,2.5,17.065,17.065,0,0,1-2.916-26.7q6.334-6.343,12.678-12.677a16.953,16.953,0,0,1,5.357-3.684" transform="translate(-16.879 -166.31)" fill="#fc4b52"/>
    <path id="Trazado_208498" data-name="Trazado 208498" d="M85.967,84.67a1.521,1.521,0,0,1-.787,1.237,1.314,1.314,0,0,1-1.589-.075c-2.427-2.241-4.769-4.573-7-7.011a1.431,1.431,0,0,1,.162-1.9,1.522,1.522,0,0,1,1.911-.2,3.675,3.675,0,0,1,.593.492q2.993,2.98,5.979,5.967a2.064,2.064,0,0,1,.73,1.49" transform="translate(-64.45 -64.597)"/>
    <path id="Trazado_208499" data-name="Trazado 208499" d="M171.017,31.314c0,1.445.009,2.891,0,4.336-.009,1.117-.642,1.837-1.57,1.821a1.6,1.6,0,0,1-1.528-1.787q-.017-4.413,0-8.827a1.607,1.607,0,0,1,1.533-1.784c.921-.013,1.556.714,1.564,1.828.011,1.471,0,2.942,0,4.414" transform="translate(-141.833 -21.179)"/>
    <path id="Trazado_208500" data-name="Trazado 208500" d="M34.236,171.024c-1.445,0-2.891.008-4.336,0-1.114-.009-1.841-.642-1.828-1.564s.738-1.533,1.86-1.535q4.336-.011,8.672,0c1.131,0,1.847.6,1.864,1.529.018.952-.714,1.566-1.9,1.572-1.445.007-2.891,0-4.336,0" transform="translate(-23.713 -141.841)"/>
    <path id="Trazado_208501" data-name="Trazado 208501" d="M374.8,373.228a1.9,1.9,0,0,1,1.219.61c2.082,2.085,4.172,4.163,6.245,6.258a1.559,1.559,0,1,1-2.17,2.2c-2.116-2.087-4.213-4.2-6.311-6.3a1.582,1.582,0,0,1-.449-1.828,1.541,1.541,0,0,1,1.467-.943" transform="translate(-315.249 -315.269)"/>
    <path id="Trazado_208502" data-name="Trazado 208502" d="M413.077,325.962c-1.445,0-2.891.007-4.336,0-1.121-.008-1.843-.624-1.845-1.549s.715-1.548,1.84-1.551q4.375-.012,8.75,0a1.567,1.567,0,1,1,0,3.1c-1.471.012-2.943,0-4.414,0" transform="translate(-343.709 -272.718)"/>
    <path id="Trazado_208503" data-name="Trazado 208503" d="M325.962,413.139c0,1.5.025,2.995-.008,4.491a1.547,1.547,0,1,1-3.09.026c-.009-3.046-.018-6.092,0-9.138A1.548,1.548,0,0,1,324.4,406.9a1.573,1.573,0,0,1,1.559,1.675c.024,1.522.006,3.046.006,4.569" transform="translate(-272.718 -343.708)"/>
    <path id="Trazado_208504" data-name="Trazado 208504" d="M311.224,99.348c.5.925.468,1.642-.11,2.183s-1.258.534-2.184-.012c-.6-1.067-.464-1.965.385-2.438a1.629,1.629,0,0,1,1.909.268" transform="translate(-260.644 -83.522)" fill="#010101"/>
  </g>
</svg>
