<svg id="Grupo_138068" data-name="Grupo 138068" xmlns="http://www.w3.org/2000/svg" xmlns:xlink="http://www.w3.org/1999/xlink" width="79.479" height="77.557" viewBox="0 0 79.479 77.557">
  <defs>
    <clipPath id="clip-path">
      <rect id="Rectángulo_88251" data-name="Rectángulo 88251" width="79.479" height="77.556" fill="none"/>
    </clipPath>
  </defs>
  <g id="Grupo_138069" data-name="Grupo 138069" clip-path="url(#clip-path)">
    <path id="Trazado_208524" data-name="Trazado 208524" d="M62.9,144.21a18.273,18.273,0,0,1-2.535,10.4,25.654,25.654,0,0,1-10.21,9.5,39.366,39.366,0,0,1-22.243,4.409,34.593,34.593,0,0,1-4.373-.6,1.317,1.317,0,0,0-.942.206q-5.53,2.865-11.064,5.721a2.523,2.523,0,0,1-3.563-3.432c.98-2.107,1.924-4.232,2.971-6.3.36-.712.181-.978-.417-1.364a23.459,23.459,0,0,1-8.7-9.477A17.011,17.011,0,0,1,.134,147.49c-.145-.249.051-.555-.134-.8v-3.111a6.652,6.652,0,0,0,.382-1.774,21.565,21.565,0,0,1,8.16-12.244,33.051,33.051,0,0,1,9.4-5.095,3.19,3.19,0,0,0,.339-.169,2.279,2.279,0,0,1,.9-.441,32.856,32.856,0,0,1,6.41-1.418,40.876,40.876,0,0,1,21.311,2.548,29.784,29.784,0,0,1,10.188,6.684,20.307,20.307,0,0,1,5.748,10.642,2.785,2.785,0,0,1,.068,1.9" transform="translate(0 -96.708)"/>
    <path id="Trazado_208525" data-name="Trazado 208525" d="M0,240.941c.236.233.176.516.134.8A.359.359,0,0,1,0,241.719Z" transform="translate(0 -190.956)" fill="#737373"/>
    <path id="Trazado_208526" data-name="Trazado 208526" d="M158.508,64.569c-.737-7.154-4.722-12.2-10.475-16.046A35.765,35.765,0,0,0,132.44,42.93a45.011,45.011,0,0,0-11.2.034c-.638.19-.652-.191-.56-.633a13.587,13.587,0,0,1,.846-2.742,21.412,21.412,0,0,1,3.781-5.769,25.883,25.883,0,0,1,5.9-4.724,37.687,37.687,0,0,1,5.083-2.478,11.752,11.752,0,0,1,3.494-.641c1.256-.117,2.518-.21,3.788-.205a39.284,39.284,0,0,1,7.7.771,3.14,3.14,0,0,0,2.237-.3c2.754-1.485,5.555-2.88,8.331-4.322.347-.18.764-.587,1.121-.259.4.364.008.839-.167,1.209-.6,1.263-1.145,2.551-1.779,3.8a11.41,11.41,0,0,0-.6,1.35,1.512,1.512,0,0,0,.731,2.11,25.968,25.968,0,0,1,3.971,2.7,18.984,18.984,0,0,1,6.1,8.453,14.712,14.712,0,0,1-1.689,12.8,21.486,21.486,0,0,1-7.085,6.837c-.982.619-.984.616-.592,1.711a.351.351,0,0,1-.015.365,28.649,28.649,0,0,1-3.323,1.58" transform="translate(-95.61 -17.067)" fill="#fc4b52"/>
    <path id="Trazado_208527" data-name="Trazado 208527" d="M133.543,45.922c-.19-.5-.807-.993-.642-1.424.157-.409.839-.618,1.292-.911a20.215,20.215,0,0,0,7.745-8.278c2.82-6.01,1.74-11.53-2.374-16.559a23.056,23.056,0,0,0-6.507-5.33c-1.454-.834-1.653-1.478-.952-2.98.787-1.686,1.583-3.369,2.365-5.057a1.112,1.112,0,0,0,.219-.771c-.3-.086-.509.144-.736.261q-4.445,2.281-8.878,4.585a2.635,2.635,0,0,1-1.856.269,38.208,38.208,0,0,0-13.791-.339c-.483.077-.957.209-1.435.315A49.061,49.061,0,0,0,100,12.4c-4.367,2.108-8.145,4.91-10.651,9.189a15.139,15.139,0,0,0-.931,1.964c-.4.99-.576,1.059-1.569.677a1.319,1.319,0,0,1-.58-.371c-.046-.022-.092-.049-.14-.067-1.395-.513-1.4-.516-.827-1.875a23.426,23.426,0,0,1,9.865-10.934,38.541,38.541,0,0,1,21.34-5.355,40.522,40.522,0,0,1,6.624.7,1.557,1.557,0,0,0,1.093-.179q5.6-2.911,11.2-5.8a2.485,2.485,0,0,1,2.713.087A2.4,2.4,0,0,1,139.193,2.8a3.34,3.34,0,0,1-.374,1.095c-1.006,2.152-2,4.313-3.035,6.449-.261.537-.149.771.33,1.078a23.7,23.7,0,0,1,8.495,8.867c3.642,6.911,2.7,14.663-2.469,20.765a28.069,28.069,0,0,1-7.328,6.045c-.329.193-.521.235-.7-.167a10.966,10.966,0,0,0-.571-1.012" transform="translate(-67.322 0)"/>
    <path id="Trazado_208528" data-name="Trazado 208528" d="M88.778,60.928c.56.05,1.141.631,1.587.342.376-.244.447-.946.676-1.435A20.938,20.938,0,0,1,99.282,51a33.383,33.383,0,0,1,10.606-4.19,3.993,3.993,0,0,1,.615-.043c-1.273.612-2.569,1.181-3.814,1.845A24.256,24.256,0,0,0,97.22,57.18a16.429,16.429,0,0,0-2.15,5.2c-.093.427-.019.574.388.586-1.513.28-3.038.5-4.525.915l-2.824.78a17.25,17.25,0,0,1,.669-3.73" transform="translate(-69.83 -37.066)" fill="#c93c41"/>
    <path id="Trazado_208529" data-name="Trazado 208529" d="M56.039,139.63a17.506,17.506,0,0,1,4.28-.545A35.972,35.972,0,0,1,80.1,143.408a21.778,21.778,0,0,1,8.345,7.812,14.828,14.828,0,0,1-1.455,17.5A26.569,26.569,0,0,1,73.947,177.1a38.329,38.329,0,0,1-19.447.908,2.361,2.361,0,0,0-1.636.24c-1.422.73-2.849,1.448-4.274,2.171a.857.857,0,0,1-.183-.8,8.375,8.375,0,0,0-3.058-7.367,18.078,18.078,0,0,1-5.431-8.527,16.222,16.222,0,0,1,2.919-15.171,26.39,26.39,0,0,1,12.245-8.673,6.1,6.1,0,0,0,.956-.256" transform="translate(-31.041 -110.187)" fill="#feca2e"/>
    <path id="Trazado_208530" data-name="Trazado 208530" d="M37.655,141.925c-1.442.676-2.947,1.207-4.36,1.954a24.117,24.117,0,0,0-10.042,9.14,15.7,15.7,0,0,0-2.23,7.476,17.726,17.726,0,0,0,3.994,11.754,20.4,20.4,0,0,0,2.479,2.536,8.925,8.925,0,0,1,2.843,6.243c.041.562-.23,1.113-.134,1.689l-5.48,2.9a.71.71,0,0,1,.132-.663c.868-1.876,1.751-3.745,2.618-5.622a1.709,1.709,0,0,0-.8-2.541,22.871,22.871,0,0,1-7.949-7.03c-4.106-6.13-3.585-13.248,1.359-18.88a27.421,27.421,0,0,1,13.2-8.018,19.008,19.008,0,0,1,4.375-.939" transform="translate(-12.658 -112.481)" fill="#cba124"/>
    <path id="Trazado_208531" data-name="Trazado 208531" d="M187.082,94.251c-3.54,0-7.081-.027-10.621.021-.78.011-.982-.228-.907-.953a10.232,10.232,0,0,0,0-1.785c-.037-.5.163-.595.62-.594q10.971.02,21.941,0c.536,0,.649.182.623.663a17.245,17.245,0,0,0,0,2.019c.033.518-.15.646-.651.644-3.67-.02-7.339-.011-11.009-.011" transform="translate(-139.122 -72.071)"/>
    <path id="Trazado_208532" data-name="Trazado 208532" d="M254.891,126.336c-2.276,0-4.553-.011-6.829.009-.454,0-.655-.086-.624-.592.043-.723.027-1.451,0-2.176-.012-.385.089-.551.514-.55q6.946.019,13.891,0c.351,0,.523.094.509.482-.034.9.278,2.026-.149,2.646-.39.566-1.588.153-2.428.17-1.629.033-3.259.01-4.889.01" transform="translate(-196.102 -97.504)"/>
    <path id="Trazado_208533" data-name="Trazado 208533" d="M290.58,158.211c-.905,0-1.811-.018-2.715.008-.422.012-.606-.094-.585-.556.034-.75.023-1.5,0-2.254-.01-.374.065-.563.5-.558q2.793.031,5.586,0c.455,0,.579.171.565.6-.025.725-.034,1.452,0,2.176.026.507-.2.609-.643.6-.9-.025-1.81-.007-2.715-.007" transform="translate(-227.68 -122.725)" fill="#010000"/>
    <path id="Trazado_208534" data-name="Trazado 208534" d="M306.557,92.69c0,1.608,0,1.608-1.626,1.608-1.72,0-1.72,0-1.72-1.747,0-1.556,0-1.556,1.587-1.556h.078c1.681,0,1.681,0,1.681,1.7" transform="translate(-240.307 -72.117)" fill="#010100"/>
    <path id="Trazado_208535" data-name="Trazado 208535" d="M83.416,194.974c3.617,0,7.234.012,10.851-.013.542,0,.727.134.685.685a11.443,11.443,0,0,0,0,1.939c.059.617-.187.707-.736.7-5.038-.021-10.076-.012-15.114-.012-2.248,0-4.5-.015-6.743.012-.477.006-.63-.113-.6-.6a16.123,16.123,0,0,0,0-2.1c-.035-.527.157-.635.649-.633,3.668.02,7.337.011,11.006.011" transform="translate(-56.871 -154.515)"/>
    <path id="Trazado_208536" data-name="Trazado 208536" d="M82.161,261.886c-3.336,0-6.673-.017-10.009.016-.593.006-.766-.158-.709-.732.084-.842-.35-1.973.167-2.453.451-.419,1.567-.133,2.39-.133,6.078,0,12.156.006,18.234-.016.6,0,.834.129.77.759a8.591,8.591,0,0,0,0,1.708c.067.667-.124.879-.833.87-3.336-.042-6.672-.019-10.009-.019" transform="translate(-56.549 -204.863)"/>
    <path id="Trazado_208537" data-name="Trazado 208537" d="M145.525,226.817c3.052,0,6.105.019,9.157-.016.629-.007.806.184.76.784a13.224,13.224,0,0,0,0,1.942c.038.53-.16.649-.658.647-3.57-.019-7.14-.01-10.709-.01-2.613,0-5.225-.016-7.838.013-.553.006-.722-.163-.687-.7a15.935,15.935,0,0,0,0-2.02c-.033-.527.164-.65.663-.647,3.1.021,6.208.01,9.312.01" transform="translate(-107.425 -179.749)" fill="#010000"/>
    <path id="Trazado_208538" data-name="Trazado 208538" d="M76.733,230.2c-1.447,0-2.9-.016-4.342.01-.45.008-.655-.076-.626-.588.044-.774.024-1.553.006-2.33-.008-.338.113-.445.448-.444q4.536.015,9.072,0c.281,0,.429.069.424.387-.013.855-.02,1.71,0,2.564.012.462-.284.4-.565.4h-4.42" transform="translate(-56.875 -179.788)" fill="#010100"/>
    <path id="Trazado_208539" data-name="Trazado 208539" d="M195.622,262.213c-1.186,0-2.373-.018-3.559.01-.437.01-.581-.118-.561-.56.034-.774.025-1.55,0-2.325-.01-.344.107-.438.441-.436q3.675.018,7.349,0c.358,0,.5.088.49.472-.026.774-.028,1.551,0,2.325.016.412-.125.531-.527.523-1.212-.023-2.424-.008-3.636-.008" transform="translate(-151.772 -205.19)"/>
  </g>
</svg>
