<svg id="Grupo_138071" data-name="Grupo 138071" xmlns="http://www.w3.org/2000/svg" xmlns:xlink="http://www.w3.org/1999/xlink" width="79.479" height="78.413" viewBox="0 0 79.479 78.413">
  <defs>
    <clipPath id="clip-path">
      <rect id="Rectángulo_88253" data-name="Rectángulo 88253" width="79.479" height="78.413" fill="none"/>
    </clipPath>
  </defs>
  <g id="Grupo_138072" data-name="Grupo 138072" clip-path="url(#clip-path)">
    <path id="Trazado_208540" data-name="Trazado 208540" d="M79.479,118.23A3.489,3.489,0,0,1,78.5,119.4c-2.219,1.9-4.427,3.812-6.649,5.709a2.989,2.989,0,0,0-.791,1.024q-2.229,4.719-4.5,9.419a1.028,1.028,0,0,0-.016,1.053A5.46,5.46,0,0,1,62.1,144.6c-.474.041-.5.237-.547.6a5.4,5.4,0,0,1-5.136,4.992c-.424.045-.4.249-.444.539a5.391,5.391,0,0,1-5.165,5.048c-.518.059-.395.37-.429.637A5.336,5.336,0,0,1,46.933,161a5.2,5.2,0,0,1-5.58-.921c-.514-.436-.755-.422-1.222.053a5.5,5.5,0,0,1-7.9.416A5.2,5.2,0,0,1,30.6,157.63c-.073-.392-.135-.55-.613-.522a5.43,5.43,0,0,1-5.8-4.932c-.045-.435-.106-.669-.646-.72a5.37,5.37,0,0,1-4.934-5.628c.013-.508-.086-.669-.617-.781a5.464,5.464,0,0,1-3.261-8.538.856.856,0,0,0-.021-1.241c-2.042-2.7-4.014-5.45-6.073-8.135a30.5,30.5,0,0,0-4.119-3.747C3.324,122.314,2.08,121.3.874,120.245A12.7,12.7,0,0,1,0,119.317v-.931c1.149-1.755,2.564-3.3,3.872-4.932q5.458-6.807,10.958-13.581a1.64,1.64,0,0,1,2.6-.422c1.9,1.2,3.829,2.354,5.679,3.625a16.324,16.324,0,0,0,5.733,2.576c1.86.417,3.69.974,5.527,1.488a1.847,1.847,0,0,0,1.059-.011c2.476-.718,4.961-1.409,7.432-2.145a6.481,6.481,0,0,1,1.9-.276c3.208.011,6.415-.007,9.623.016a2.61,2.61,0,0,0,1.511-.45c2.494-1.611,5-3.2,7.508-4.791,1.208-.768,1.84-.661,2.708.466q6.388,8.292,12.771,16.588c.2.255.4.507.595.761Z" transform="translate(0 -83.618)"/>
    <path id="Trazado_208541" data-name="Trazado 208541" d="M313.752,29.89a1.839,1.839,0,0,1-.571,1.236q-5.214,5.21-10.427,10.42a1.54,1.54,0,0,1-2.331.078,1.517,1.517,0,0,1,.126-2.273q5.2-5.224,10.42-10.427a1.577,1.577,0,0,1,2.783.966" transform="translate(-253.388 -23.953)"/>
    <path id="Trazado_208542" data-name="Trazado 208542" d="M124.664,28.344a1.761,1.761,0,0,1,1.193.536q5.237,5.241,10.473,10.483a1.51,1.51,0,0,1,.085,2.273,1.53,1.53,0,0,1-2.276-.071q-5.253-5.225-10.481-10.475a1.566,1.566,0,0,1,1.005-2.746" transform="translate(-103.991 -23.943)"/>
    <path id="Trazado_208543" data-name="Trazado 208543" d="M245.884,46.155c0-1.422-.007-2.845,0-4.267a1.565,1.565,0,1,1,3.106.009q.011,4.189,0,8.378a1.578,1.578,0,0,1-1.52,1.782c-.953.021-1.581-.68-1.587-1.791-.007-1.37,0-2.741,0-4.111" transform="translate(-207.699 -33.902)"/>
    <path id="Trazado_208544" data-name="Trazado 208544" d="M249.026,1.591A1.551,1.551,0,1,1,247.479,0a1.56,1.56,0,0,1,1.548,1.592" transform="translate(-207.736 0)" fill="#010101"/>
    <path id="Trazado_208545" data-name="Trazado 208545" d="M93.064,158.761c-.386.692-.733,1.322-1.086,1.948-1.651,2.922-3.349,5.818-4.942,8.77a5.493,5.493,0,0,0,9.642,5.263q1.812-3.112,3.545-6.269a.891.891,0,0,1,1.032-.533c1.879.173,3.764.289,5.648.4a1.434,1.434,0,0,1,1.015.445q8.96,8.983,17.937,17.949a2.407,2.407,0,1,1-3.39,3.379q-4.843-4.869-9.66-9.764a1.863,1.863,0,0,0-1.326-.7,1.485,1.485,0,0,0-1.4.8,1.424,1.424,0,0,0,.091,1.608,4.9,4.9,0,0,0,.516.576q4.829,4.883,9.658,9.766a2.389,2.389,0,0,1-.98,4.117,2.462,2.462,0,0,1-2.508-.838q-2.992-3.044-6-6.073c-.145-.147-.288-.3-.438-.439a1.564,1.564,0,1,0-2.2,2.205q3.207,3.268,6.443,6.506a2.567,2.567,0,0,1,.888,2.137,2.248,2.248,0,0,1-1.495,2,2.287,2.287,0,0,1-2.574-.538c-1.217-1.2-2.409-2.42-3.606-3.637a1.571,1.571,0,0,0-1.7-.444,1.458,1.458,0,0,0-1.021,1.253,1.716,1.716,0,0,0,.624,1.51c1.169,1.172,2.359,2.325,3.487,3.536a2.376,2.376,0,0,1-1.078,4,2.587,2.587,0,0,1-2.531-.811c-.232-.217-.133-.4-.054-.62,1.226-3.458-.325-6.529-3.806-7.5-.365-.1-.413-.223-.368-.582a5.421,5.421,0,0,0-5.005-6.237c-.326-.032-.478-.067-.518-.463a5.366,5.366,0,0,0-6.131-5.119c-.471.036-.591-.082-.708-.52a5.44,5.44,0,0,0-8.424-3.065c-.419.294-.612.347-.947-.116q-2.594-3.579-5.265-7.1a.642.642,0,0,1,.03-.972q6.859-8.32,13.685-16.665c.18-.219.317-.431.691-.323,1.382.4,2.775.762,4.234,1.158" transform="translate(-62.692 -133.105)" fill="#fbc79c"/>
    <path id="Trazado_208546" data-name="Trazado 208546" d="M209.727,181.826a8.36,8.36,0,0,0-.615-.814q-8.139-8.152-16.28-16.3a2.768,2.768,0,0,0-1.885-.913c-2.58-.155-5.16-.326-7.736-.532a1.9,1.9,0,0,0-2,1.126c-1.348,2.439-2.726,4.862-4.113,7.28a2.388,2.388,0,0,1-4.469-1.541,3.086,3.086,0,0,1,.414-.994q2.708-4.783,5.413-9.568a1.229,1.229,0,0,1,.8-.642c3.348-.953,6.69-1.928,10.032-2.9a5.055,5.055,0,0,1,1.448-.2c3.077.013,6.154.017,9.231,0a1.292,1.292,0,0,1,1.165.545q6.209,7.94,12.464,15.843a1,1,0,0,1,.162,1.228c-1.33,2.706-2.618,5.434-4.035,8.391" transform="translate(-145.791 -131.622)" fill="#fbc79c"/>
    <path id="Trazado_208547" data-name="Trazado 208547" d="M43.765,127.1c-.082.109-.17.236-.268.355q-6.469,7.881-12.933,15.766c-.309.378-.5.445-.9.09q-2.288-2.036-4.643-4c-.335-.28-.277-.45-.047-.734Q31.1,131.02,37.2,123.444c.222-.275.376-.422.747-.181,1.817,1.184,3.654,2.338,5.484,3.5.127.081.282.136.33.335" transform="translate(-20.939 -104.019)" fill="#fc4b52"/>
    <path id="Trazado_208548" data-name="Trazado 208548" d="M391.871,138.2c-.141.13-.249.236-.363.334-1.568,1.35-3.148,2.687-4.7,4.058-.365.323-.518.213-.771-.11q-5.787-7.391-11.6-14.76c-.292-.37-.327-.539.11-.809q2.7-1.671,5.364-3.411c.376-.245.547-.159.8.167q5.427,7.081,10.877,14.144c.091.119.178.241.286.388" transform="translate(-316.107 -104.204)" fill="#feca2e"/>
    <path id="Trazado_208549" data-name="Trazado 208549" d="M141.974,371.092a2.263,2.263,0,0,1-2.153-1.365,2.183,2.183,0,0,1,.335-2.53c1.271-1.353,2.589-2.664,3.938-3.939a2.355,2.355,0,0,1,3.45,3.175,48.638,48.638,0,0,1-4.2,4.22,1.873,1.873,0,0,1-1.373.439" transform="translate(-117.895 -306.329)" fill="#fbc79c"/>
    <path id="Trazado_208550" data-name="Trazado 208550" d="M175.629,404.91a2.338,2.338,0,0,1,.73-1.731c1.187-1.185,2.361-2.382,3.562-3.553a2.377,2.377,0,1,1,3.436,3.283c-1.224,1.291-2.489,2.546-3.779,3.771a2.19,2.19,0,0,1-2.585.385,2.255,2.255,0,0,1-1.364-2.155" transform="translate(-148.356 -336.908)" fill="#fbc79c"/>
    <path id="Trazado_208551" data-name="Trazado 208551" d="M218.624,448.462a2.278,2.278,0,0,1-2.121-1.3,2.2,2.2,0,0,1,.254-2.539,23.146,23.146,0,0,1,2.292-2.3,2.288,2.288,0,0,1,2.989.014,2.312,2.312,0,0,1,.549,2.94,10.827,10.827,0,0,1-2.855,2.9,1.751,1.751,0,0,1-1.109.284" transform="translate(-182.641 -373.174)" fill="#fbc79c"/>
    <path id="Trazado_208552" data-name="Trazado 208552" d="M112.419,333.58a2.216,2.216,0,0,1,2.106,1.317,2.286,2.286,0,0,1-.342,2.606A23.544,23.544,0,0,1,112,339.69a2.351,2.351,0,0,1-3.169-.13,2.308,2.308,0,0,1-.243-3.1,31.467,31.467,0,0,1,2.4-2.41,1.967,1.967,0,0,1,1.438-.471" transform="translate(-91.308 -281.779)" fill="#fbc79c"/>
  </g>
</svg>
