<svg id="Grupo_138167" data-name="Grupo 138167" xmlns="http://www.w3.org/2000/svg" xmlns:xlink="http://www.w3.org/1999/xlink" width="61.415" height="57.089" viewBox="0 0 61.415 57.089">
  <defs>
    <clipPath id="clip-path">
      <rect id="Rectángulo_88483" data-name="Rectángulo 88483" width="61.415" height="57.088" fill="#feca2e"/>
    </clipPath>
  </defs>
  <g id="Grupo_138167-2" data-name="Grupo 138167" clip-path="url(#clip-path)">
    <path id="Trazado_210175" data-name="Trazado 210175" d="M0,21.036c.116-.044.1-.153.131-.246A4.245,4.245,0,0,1,4.5,17.4c3.289.22,6.278-.706,9.311-1.741,9.293-3.169,18.614-6.257,27.924-9.377,2.624-.88,5.247-1.765,7.873-2.637a.661.661,0,0,0,.552-.58,2.28,2.28,0,0,1,1.511-1.794C52.811.848,53.96.452,55.115.078A1.12,1.12,0,0,1,56.63.853q.452,1.235.854,2.486a1.091,1.091,0,0,1-.694,1.5q-1.738.637-3.5,1.2A2.225,2.225,0,0,1,51,5.523a.744.744,0,0,0-.888-.152Q39.553,8.923,28.988,12.46L15.218,17.075c-.162.054-.322.116-.514.186.187.159.367.094.53.094,4.977,0,9.953,0,14.931.014.44,0,.6-.088.557-.55a16.091,16.091,0,0,1-.008-1.678,1.612,1.612,0,0,1,1.619-1.72q2.337-.068,4.676,0a1.6,1.6,0,0,1,1.6,1.683c.022.619.022,1.24,0,1.858-.012.318.091.4.4.4,1.189.023,1.189.036,1.189-1.166,0-.38-.014-.76.005-1.139a1.57,1.57,0,0,1,1.521-1.624c1.616-.056,3.237-.056,4.853,0a1.558,1.558,0,0,1,1.513,1.627c.023.639.017,1.279,0,1.918-.007.272.057.371.357.383,1.235.049,1.234.062,1.234-1.183,0-.36-.013-.72,0-1.079a1.611,1.611,0,0,1,1.6-1.681q2.336-.073,4.675,0a1.6,1.6,0,0,1,1.613,1.723c.011.64.006,1.279,0,1.919,0,.211.005.341.282.41a4.486,4.486,0,0,1,3.508,3.654c0,.013.033.02.05.03V53.3a4.4,4.4,0,0,1-4.629,3.786H13.5q-4.527,0-9.053,0a4.5,4.5,0,0,1-4.1-2.466A7.448,7.448,0,0,1,0,53.3v-8.4a.873.873,0,0,1,.886-.636c.818.1,1.094.419,1.1,1.334.015,2.2.008,4.395,0,6.592a2.757,2.757,0,0,0,.39,1.545A2.28,2.28,0,0,0,4.35,54.9c.26,0,.519,0,.779,0q25.019,0,50.039,0a3.483,3.483,0,0,1,.359.008c.5.01,1,0,1.5-.012A2.468,2.468,0,0,0,59.4,52.7a6.4,6.4,0,0,0,.022-.719q0-14.813,0-29.626a4.09,4.09,0,0,0-.086-1.073,2.593,2.593,0,0,0-2.517-1.95c-.557-.045-1.118-.044-1.678-.044q-24.979,0-49.958,0a2.657,2.657,0,0,0-.949.086,2.558,2.558,0,0,0-2.247,2.854q-.005,8.961,0,17.922c0,.26.009.52-.008.779-.05.751-.345,1.05-1.113,1.136A.87.87,0,0,1,0,41.427Z" transform="translate(0 0)"/>
    <path id="Trazado_210176" data-name="Trazado 210176" d="M1.774,68.584a4.564,4.564,0,0,0,0-2.429c.787-.081,1.016-.338,1.016-1.166q0-9.38,0-18.76a2.627,2.627,0,0,1,2.371-2.808,1.961,1.961,0,0,1,.712-.042q24.836,0,49.672,0c1.327,0,1.943.4,2.154,1.712a19,19,0,0,1,.034,4.417.405.405,0,0,1-.08.159.491.491,0,0,1-.455.083,11.391,11.391,0,0,0-2.569-.122q-9.894-.008-19.788,0a5.975,5.975,0,0,0-1.372.1,1.6,1.6,0,0,0-1.327,1.563q-.047,3.177,0,6.355a1.534,1.534,0,0,0,1.521,1.544c.219.017.439.011.659.011q10.973,0,21.946.007a3.687,3.687,0,0,1,1.364.044.833.833,0,0,1,.159.56c.01,1.982.02,3.964,0,5.946a1.06,1.06,0,0,1-.048.291c-.187.412-.44.149-.627.027a3.185,3.185,0,0,0-1.864-.535,2.959,2.959,0,0,0-2.886,2.009A3.022,3.022,0,0,0,53.293,71a3.191,3.191,0,0,0,3.59.3c.243-.14.461-.514.819-.18a1.476,1.476,0,0,1,.082.587c0,1.727.023,3.456-.008,5.183A2.6,2.6,0,0,1,56.524,79.3c-.159.01-.318.028-.477.028q-25.151,0-50.3,0a2.7,2.7,0,0,1-2.9-2.153,3.768,3.768,0,0,1-.056-.774c0-2.238,0-4.477,0-6.715,0-.773-.249-1.035-1.011-1.107" transform="translate(-0.988 -24.198)" fill="#a7e446"/>
    <path id="Trazado_210177" data-name="Trazado 210177" d="M60.8,79.26a4.024,4.024,0,0,0,1.1-3.225c-.065-1.7-.023-3.4-.026-5.1-.027-.266.154-.446.278-.645a3.016,3.016,0,0,0-.006-3.443c-.124-.2-.309-.377-.269-.646q0-3.5,0-7.009c0-.06-.013-.13.031-.172a3.156,3.156,0,0,0,.765-2.6c-.026-1.494-.021-2.99,0-4.484a2.617,2.617,0,0,0-.692-2.029.31.31,0,0,1-.1-.269c0-1.319-.014-2.638.008-3.956a3.041,3.041,0,0,0-.593-1.724,1.3,1.3,0,0,0-1.217-.581q-24.932.025-49.864.013c-.259,0-.518-.011-.778-.018a1.3,1.3,0,0,1,.7-.078q25.834,0,51.668.005a2.763,2.763,0,0,1,3.073,3.074c0,9.949-.022,19.9.023,29.849a2.841,2.841,0,0,1-3.084,3.063c-.338-.025-.678-.02-1.017-.029" transform="translate(-5.266 -24.154)" fill="#85b638"/>
    <path id="Trazado_210178" data-name="Trazado 210178" d="M95.081,36.492a6.009,6.009,0,0,1-.107-1.919c-.016-.233.191-.214.348-.214,1.2,0,2.4.013,3.6,0,.306,0,.369.131.36.4-.015.459-.015.919,0,1.378.009.269-.059.4-.362.393-.717-.024-1.436-.025-2.154-.035a1.9,1.9,0,0,1-.172-1.275c.005-.5-.236-.6-.668-.6s-.677.1-.671.6a1.9,1.9,0,0,1-.17,1.275" transform="translate(-52.978 -19.171)" fill="#aaa"/>
    <path id="Trazado_210179" data-name="Trazado 210179" d="M116.529,36.485a6.131,6.131,0,0,1-.1-1.925c-.012-.227.206-.2.361-.2,1.2,0,2.4.01,3.595,0,.261,0,.369.095.339.35,0,.02,0,.04,0,.06-.012.557.181,1.27-.092,1.626-.293.381-1.041.088-1.59.123-.277.018-.557-.015-.835-.025a1.9,1.9,0,0,1-.172-1.273c0-.49-.229-.606-.663-.6s-.681.087-.676.591a1.9,1.9,0,0,1-.169,1.273" transform="translate(-64.95 -19.171)" fill="#ababab"/>
    <path id="Trazado_210180" data-name="Trazado 210180" d="M73.629,36.5a5.633,5.633,0,0,1-.1-1.973c-.009-.194.19-.166.323-.166,1.2,0,2.4.011,3.593,0,.285,0,.388.1.378.386-.017.479-.015.958,0,1.437.008.266-.107.349-.355.343-.717-.017-1.435-.023-2.153-.033a1.9,1.9,0,0,1-.172-1.277c0-.5-.243-.6-.671-.6s-.673.106-.667.6a1.9,1.9,0,0,1-.172,1.276" transform="translate(-41.005 -19.17)" fill="#aaa"/>
    <path id="Trazado_210181" data-name="Trazado 210181" d="M118.19,6.918c-.386-.045-.659-.182-.752-.54a.652.652,0,0,1,.367-.848c.852-.327,1.724-.6,2.583-.907.21-.075.256.007.336.181.494,1.073.5,1.071-.6,1.451-.656.227-1.313.45-1.934.663" transform="translate(-65.509 -2.564)" fill="#ccc"/>
    <path id="Trazado_210182" data-name="Trazado 210182" d="M73.8,36.616c0-.516.022-1.033-.007-1.547-.022-.4.141-.509.519-.5,1.421.038,1.136-.175,1.168,1.151.008.3,0,.595,0,.893a9.505,9.505,0,0,1-1.682,0" transform="translate(-41.172 -19.289)" fill="#bdbdbd"/>
    <path id="Trazado_210183" data-name="Trazado 210183" d="M95.24,36.606c0-.5.021-.991,0-1.486-.02-.393.081-.57.521-.557,1.412.045,1.132-.173,1.163,1.155.007.3,0,.594,0,.891a8.511,8.511,0,0,1-1.681,0" transform="translate(-53.138 -19.286)" fill="#bdbdbd"/>
    <path id="Trazado_210184" data-name="Trazado 210184" d="M116.685,36.6c0-.515.018-1.029,0-1.543-.013-.346.084-.5.463-.49,1.5.036,1.182-.17,1.218,1.155.008.3,0,.593,0,.89a7.849,7.849,0,0,1-1.68-.012" transform="translate(-65.106 -19.288)" fill="#bdbdbd"/>
    <path id="Trazado_210185" data-name="Trazado 210185" d="M27.382,58.212c.644-.454.939-.468,1.544.036,4.092,3.408,5.745,7.761,4.465,12.929a11.9,11.9,0,0,1-10.141,9.38,12.557,12.557,0,1,1,1.2-24.528c.634.173.808.432.8,1.2.015.5-.327.643-.721.72a2.418,2.418,0,0,1-.946-.1,10.314,10.314,0,0,0-8.244,1.539,10.348,10.348,0,0,0-4.689,9.488,10.531,10.531,0,0,0,8.836,9.749A10.233,10.233,0,0,0,28.7,75.665a10.005,10.005,0,0,0,3.028-5.979,10.4,10.4,0,0,0-1.83-7.62,10.577,10.577,0,0,0-2.229-2.326.971.971,0,0,1-.284-1.527" transform="translate(-4.837 -31.022)"/>
    <path id="Trazado_210186" data-name="Trazado 210186" d="M29.683,60.268a1.108,1.108,0,0,0,.422,1.449c3.533,2.909,4.944,6.66,3.852,11.095a10.274,10.274,0,0,1-8.456,8,10.758,10.758,0,1,1-.827-21.277,11.519,11.519,0,0,1,1.586.3,1,1,0,0,0,1.3-.547l2.128.987" transform="translate(-7.139 -33.077)" fill="#e1e1e1"/>
    <path id="Trazado_210187" data-name="Trazado 210187" d="M95.639,57.394a2.206,2.206,0,0,1,.968,1.994c-.024,1.836-.027,3.672,0,5.508a2.25,2.25,0,0,1-.972,2.053,2.946,2.946,0,0,1-1.113.183q-11.274-.006-22.547,0A1.813,1.813,0,0,1,69.942,65.1q-.01-2.939,0-5.877a1.838,1.838,0,0,1,2.041-2.042q11.274-.013,22.547-.005a3.271,3.271,0,0,1,1.109.214" transform="translate(-39.023 -31.905)"/>
    <path id="Trazado_210188" data-name="Trazado 210188" d="M94.1,99.25a4.619,4.619,0,0,1-.059-9.237,4.673,4.673,0,0,1,4.675,4.629A4.625,4.625,0,0,1,94.1,99.25" transform="translate(-49.927 -50.225)"/>
    <path id="Trazado_210189" data-name="Trazado 210189" d="M121,93.962a3.354,3.354,0,0,1,0,4.734,3.3,3.3,0,0,1-3.613.633,3.264,3.264,0,0,1-.264-5.878,3.171,3.171,0,0,1,3.5.23c.13.09.256.187.385.28" transform="translate(-64.391 -51.91)"/>
    <path id="Trazado_210190" data-name="Trazado 210190" d="M73.21,99.629a3.27,3.27,0,1,1,3.243-3.3,3.24,3.24,0,0,1-3.243,3.3" transform="translate(-39.009 -51.941)"/>
    <path id="Trazado_210191" data-name="Trazado 210191" d="M34.786,72.906a8.844,8.844,0,1,1-8.846-8.83,8.84,8.84,0,0,1,8.846,8.83" transform="translate(-9.54 -35.753)"/>
    <path id="Trazado_210192" data-name="Trazado 210192" d="M85.436,67.612c-3.635,0-7.27-.009-10.9.011-.484,0-.654-.107-.644-.622.032-1.757.024-3.515,0-5.272,0-.416.116-.54.538-.539q11.025.018,22.049,0c.415,0,.541.1.536.528-.024,1.757-.027,3.515,0,5.272.008.484-.1.639-.614.636-3.655-.023-7.31-.012-10.965-.012" transform="translate(-41.227 -34.142)" fill="#feca2e"/>
    <path id="Trazado_210193" data-name="Trazado 210193" d="M96.8,99.97a2.77,2.77,0,0,1-3.108-1.765,2.815,2.815,0,0,1,1.181-3.388c.149-.09.35-.226.478-.186.194.061.087.309.09.473.012.679-.006,1.358.01,2.037a.853.853,0,0,0,.848.957.88.88,0,0,0,.938-.941c.033-.7.027-1.4.038-2.094.3-.015.407.232.5.435a3.88,3.88,0,0,1-.152,3.717,1.8,1.8,0,0,1-.821.755" transform="translate(-52.18 -52.798)" fill="#e1e1e1"/>
    <path id="Trazado_210194" data-name="Trazado 210194" d="M100.948,99.975a3.672,3.672,0,0,0,1.073-3.76,2.257,2.257,0,0,0-.6-1.147c-.11-.442.008-.546.424-.318a2.834,2.834,0,0,1,1.412,2.917,2.714,2.714,0,0,1-2.312,2.307" transform="translate(-56.327 -52.803)" fill="#ccc"/>
    <path id="Trazado_210195" data-name="Trazado 210195" d="M120.867,100.115a1.439,1.439,0,0,1,0-2.877,2.133,2.133,0,0,1,0,2.877" transform="translate(-66.651 -54.257)" fill="#fc4b52"/>
    <path id="Trazado_210196" data-name="Trazado 210196" d="M122.655,100.115a2.881,2.881,0,0,0,0-2.877,1.443,1.443,0,1,1,0,2.877" transform="translate(-68.439 -54.256)" fill="#c93c41"/>
    <path id="Trazado_210197" data-name="Trazado 210197" d="M75.346,100.115a1.439,1.439,0,0,1,0-2.875,1.975,1.975,0,0,1,0,2.875" transform="translate(-41.28 -54.258)" fill="#fc4b52"/>
    <path id="Trazado_210198" data-name="Trazado 210198" d="M77.068,100.113a2.511,2.511,0,0,0,0-2.875,1.444,1.444,0,1,1,0,2.875" transform="translate(-43.002 -54.256)" fill="#c93c41"/>
    <path id="Trazado_210199" data-name="Trazado 210199" d="M28.6,82.205a7.018,7.018,0,1,1,0-14.01,6.025,6.025,0,0,1,3.005,2.621,7.425,7.425,0,0,1,1.319,4.233,8.079,8.079,0,0,1-2.85,6.288,3.069,3.069,0,0,1-1.475.869" transform="translate(-11.812 -38.038)" fill="#9b9b9b"/>
    <path id="Trazado_210200" data-name="Trazado 210200" d="M37.991,82.235a8.064,8.064,0,0,0,3.947-5.215,7.912,7.912,0,0,0-3.655-8.6c-.1-.06-.194-.133-.291-.2a6.953,6.953,0,0,1,6.506,5.6,7.067,7.067,0,0,1-6.208,8.413,2.487,2.487,0,0,1-.3-.006" transform="translate(-21.198 -38.068)" fill="#828282"/>
    <path id="Trazado_210201" data-name="Trazado 210201" d="M92.569,66.886c-1.239,0-2.477,0-3.716,0-.287,0-.526-.031-.571.4a.759.759,0,0,1-.8.666.77.77,0,0,1-.884-.638c-.066-.43-.3-.427-.617-.426q-3.6.009-7.191,0a3.645,3.645,0,0,1-.656-.038.875.875,0,0,1-.027-1.711,2.989,2.989,0,0,1,.654-.048c2.417,0,4.834-.006,7.251,0,.31,0,.505-.027.575-.4a.794.794,0,0,1,.873-.664.781.781,0,0,1,.835.705c.043.4.281.357.54.357H95.9c.16,0,.32,0,.48,0,.682.025,1.045.333,1.051.889s-.349.893-1.029.9c-1.018.015-2.038,0-3.056.005h-.779" transform="translate(-43.202 -35.724)"/>
    <path id="Trazado_210202" data-name="Trazado 210202" d="M36.129,79.406a3.68,3.68,0,1,1-3.709-3.654,3.659,3.659,0,0,1,3.709,3.654" transform="translate(-16.052 -42.268)"/>
    <path id="Trazado_210203" data-name="Trazado 210203" d="M34.735,79.846a1.793,1.793,0,0,1,1.846,1.844,1.814,1.814,0,0,1-1.864,1.9,1.87,1.87,0,1,1,.019-3.739" transform="translate(-18.323 -44.552)" fill="#5a5a5a"/>
  </g>
</svg>
