<svg id="Grupo_138080" data-name="Grupo 138080" xmlns="http://www.w3.org/2000/svg" xmlns:xlink="http://www.w3.org/1999/xlink" width="79.444" height="79.297" viewBox="0 0 79.444 79.297">
  <defs>
    <clipPath id="clip-path">
      <rect id="Rectángulo_88259" data-name="Rectángulo 88259" width="79.444" height="79.297" fill="none"/>
    </clipPath>
  </defs>
  <g id="Grupo_138081" data-name="Grupo 138081" clip-path="url(#clip-path)">
    <path id="Trazado_208618" data-name="Trazado 208618" d="M14.882,91.2c-2.118,0-4.236,0-6.354-.015a1.39,1.39,0,0,0-.915.313q-2.7,2.072-5.42,4.118c-.962.727-1.431.664-2.192-.271V75.21a5.2,5.2,0,0,1,1.084-1.819,3.453,3.453,0,0,1,2.362-.985c.721,0,1.443,0,2.164,0,1.146,0,1.34.137,1.651,1.145.092.732-.376,1.277-1.243,1.391-.718.095-1.445.012-2.168.049-.916.047-1.273.373-1.277,1.293-.026,5.229-.008,10.458-.014,15.823.706-.492,1.29-.973,1.9-1.424,3.351-2.495,2.139-2.048,5.949-2.07q5.888-.034,11.777,0c.232,0,.465-.006.7-.02.856-.053,1.223-.386,1.23-1.259q.048-5.523,0-11.046c-.007-.922-.362-1.248-1.269-1.3-.231-.013-.464-.025-.7-.017-3.4.037-6.808.016-10.212.011a1.95,1.95,0,0,1-1.245-.344c-.354-.276-.651-.6-.459-1.11a1.319,1.319,0,0,1,1.561-1.135c1.03.042,2.063,0,3.095,0a2.5,2.5,0,0,1,1.275-.219c1.155.015,2.311-.026,3.466.02,1.189-.015,2.378-.02,3.567,0a3.723,3.723,0,0,1,3.7,3.56c.076,4.024.082,8.05,0,12.074a3.726,3.726,0,0,1-3.854,3.557c-2.292-.038-4.583.047-6.875.027a2.832,2.832,0,0,1-1.28-.216" transform="translate(0 -57.235)"/>
    <path id="Trazado_208619" data-name="Trazado 208619" d="M117.295,306.111c1.07.34,1.223.54,1.206,1.77-.03,2.294.122,4.593-.088,6.882a8.2,8.2,0,0,1-6.963,7.15c-.252.139-.559-.052-.8.131H73.563a11.962,11.962,0,0,1-3.678-1.648,8.078,8.078,0,0,1-3.316-6.347c-.047-1.571-.013-3.145-.022-4.718a1.128,1.128,0,0,1,.808-1.248c1.161-.2,1.715.2,1.771,1.373.068,1.416.014,2.834.023,4.252a5.687,5.687,0,0,0,5.731,5.765q17.586.025,35.171.007a6.13,6.13,0,0,0,1.079-.089,5.731,5.731,0,0,0,4.515-3.852,9.907,9.907,0,0,0,.368-2.666c0-1.7,0-3.394,0-5.091a3.416,3.416,0,0,1,.058-.845,1.025,1.025,0,0,1,1.222-.827" transform="translate(-52.771 -242.747)"/>
    <path id="Trazado_208620" data-name="Trazado 208620" d="M329.537,251.765c-.255.166-.187.462-.253.692a6.992,6.992,0,0,1-13.718-1.42c0-.077-.022-.152-.034-.228a3.65,3.65,0,0,1,.3-2.763,7.045,7.045,0,0,1,4.951-4.4,5.078,5.078,0,0,1,2.99.067,7.107,7.107,0,0,1,5.388,4.676c.145.4.249.808.372,1.212Z" transform="translate(-250.093 -193.064)"/>
    <path id="Trazado_208621" data-name="Trazado 208621" d="M279.639,382.507a.917.917,0,0,1,.8-.131c-.011.043-.02.087-.028.131Z" transform="translate(-221.763 -303.21)" fill="#545454"/>
    <path id="Trazado_208622" data-name="Trazado 208622" d="M19.088,78.72c.29.974.574,1.193,1.594,1.2q5.177.02,10.354.034a1.6,1.6,0,0,1,.551,1.386q.038,5.649,0,11.3a1.616,1.616,0,0,1-.552,1.387c-3.954.012-7.912.135-11.861-.008a6.888,6.888,0,0,0-5.482,1.845,24.14,24.14,0,0,1-2.386,1.831c-.21-.193-.116-.41-.116-.6q-.01-7.779,0-15.557c0-1.233.383-1.612,1.615-1.617.595,0,1.189,0,1.784,0,.967-.011,1.262-.24,1.536-1.177l2.968-.02" transform="translate(-8.858 -62.428)" fill="#fc4b52"/>
    <path id="Trazado_208623" data-name="Trazado 208623" d="M76.76,23.168l-4.837,0a12.972,12.972,0,0,0,.141-2.273,3.383,3.383,0,0,0,.874-2.978c-.028-.514-.007-1.031,0-1.547a6.16,6.16,0,0,1,6.3-6.263q17.52-.018,35.039,0c.155,0,.31,0,.465.008a1.849,1.849,0,0,1,.822.2,7.076,7.076,0,0,1,3.143,5.965c.05,2.8.012,5.6.012,8.406,0,1.614,0,1.614-1.581,1.7a.41.41,0,0,1-.252-.1,11.527,11.527,0,0,1-.25-2.509c1.076-.264,1.356-1,1.327-2.029-.047-1.675-.009-3.352-.014-5.029a4.425,4.425,0,0,0-.636-2.437,3.077,3.077,0,0,0-2.626-1.532c-1.214-.03-2.429.006-3.643-.012a1.227,1.227,0,0,0-1.318.952q-.325.993-.623,1.994a2.4,2.4,0,0,1-2.319,1.834c-.336.025-.671.023-1.007.023H87.939c-.155,0-.31,0-.465,0-2.031-.028-2.557-.421-3.175-2.362-.164-.516-.285-1.045-.479-1.552a1.206,1.206,0,0,0-1.22-.882c-1.266,0-2.534-.041-3.8.015a3.234,3.234,0,0,0-3.056,3.048c-.049,1.211.021,2.425-.023,3.636-.03.831.634,1.046,1.105,1.449a3.113,3.113,0,0,1-.067,2.278" transform="translate(-57.037 -8.011)" fill="#56788a"/>
    <path id="Trazado_208624" data-name="Trazado 208624" d="M111.249,2.486a2.622,2.622,0,0,0-1.219-.149q-17.526,0-35.053,0a5.92,5.92,0,0,0-6.111,6.033c-.01.929-.033,1.859.007,2.786a1.524,1.524,0,0,1-1.094,1.73c-1.078-.3-1.271-.516-1.243-1.617a20.551,20.551,0,0,1,.3-5.229A8.207,8.207,0,0,1,74.6.03Q92.5-.021,110.41.034c4.521.019,7.963,3.672,8.068,8.388.044,2.01.009,4.023.007,6.034,0,.636-.156,1.18-.871,1.365-1.068.28-1.58-.073-1.607-1.173-.038-1.593-.017-3.187-.009-4.78a20.144,20.144,0,0,0-.148-2.3,5.62,5.62,0,0,0-3-4.325,11.182,11.182,0,0,0-1.6-.754" transform="translate(-52.752 0)"/>
    <path id="Trazado_208625" data-name="Trazado 208625" d="M234.551,87.285l.177.01c1.17-.031,2.323-.306,3.5-.226a1.953,1.953,0,0,1,1.035.214c2.169.006,4.338.008,6.507.019a3.5,3.5,0,0,1,3.694,3.684q.01,12.448.009,24.9c0,.806-.268,1.347-1.107,1.5a1.122,1.122,0,0,1-1.394-.94,5.29,5.29,0,0,1-.077-1.309q0-11.365,0-22.73c0-.18,0-.361,0-.541,0-1.766-.157-1.923-1.938-1.994-3.748.048-7.5.013-11.245.02q-5.468.01-10.935,0a7.614,7.614,0,0,1-1.084-.038,1.447,1.447,0,0,1-1.425-1.285c.133-.924.394-1.227,1.248-1.453,4-.033,8,.011,12-.04a1.487,1.487,0,0,1,1.038.21" transform="translate(-174.679 -69.037)"/>
    <path id="Trazado_208626" data-name="Trazado 208626" d="M339.145,99.53c.334-.01.67-.044,1-.026a1.149,1.149,0,0,1,1.164,1.114,5.243,5.243,0,0,1,.01.694q0,12.2,0,24.407c0,1.024.261,1.342,1.226,1.535q0,1.149,0,2.3a11.306,11.306,0,0,0-3.091.134c-.358-.423-.239-.934-.239-1.411q-.011-12.764-.005-25.529a12.973,12.973,0,0,0-.145-2.544.8.8,0,0,1,.082-.671" transform="translate(-268.86 -78.906)" fill="#cba124"/>
    <path id="Trazado_208627" data-name="Trazado 208627" d="M288.727,27.77l-4.535.011a.646.646,0,0,1,.2-.109c1.2-.16,1.2-.158,1.2-1.359,0-2.7-.028-5.4.008-8.1a7.385,7.385,0,0,0-2.957-6.206,5.848,5.848,0,0,1,4.824,5.018c.23,2.284.062,4.573.108,6.86.025,1.2.27,1.467,1.432,1.458-.3.142-.312.405-.3.691.018.578.019,1.156.027,1.734" transform="translate(-224.142 -9.524)" fill="#415e6e"/>
    <path id="Trazado_208628" data-name="Trazado 208628" d="M114.378,206.72a2.642,2.642,0,0,1-1.219.15q-17.527,0-35.054,0A5.919,5.919,0,0,1,72,200.833c-.014-1.367,0-2.735,0-4.1-.005-1.158-.371-1.511-1.527-1.5a.636.636,0,0,0,.426-.688c-.028-.835,0-1.672.011-2.509a3.193,3.193,0,0,0,.886-2.668q-.038-10.1,0-20.192c0-1.122.04-2.216-.879-3.056a12.05,12.05,0,0,0-.144-2.262c2.748.038,5.5-.141,8.243-.012-.12.4-.475.33-.762.347-.591.034-1.184.011-1.776.015-.452,0-.612.223-.661.661-.057.507.223,1,.029,1.5-1.183.369-1.246.442-1.246,1.675q0,16.452,0,32.9a3.325,3.325,0,0,0,3,3.534,8.619,8.619,0,0,0,1.542.137q16.445,0,32.891,0a9.154,9.154,0,0,0,1.314-.089,3.6,3.6,0,0,0,3.424-3.869c.043-1.754.009-3.509.011-5.264,0-.645-.034-1.293.008-1.935a2.315,2.315,0,0,0-1.057-2.326,3.726,3.726,0,0,1-.051-2.307.328.328,0,0,1,.232-.158c1.651.071,1.653.071,1.653,1.719,0,3.51.01,7.019,0,10.529a7.379,7.379,0,0,1-1.862,4.885,2.952,2.952,0,0,1-1.315.916" transform="translate(-55.881 -129.898)" fill="#56778a"/>
    <path id="Trazado_208629" data-name="Trazado 208629" d="M67.813,175.017a1.545,1.545,0,0,1,1.1,1.723q-.026,11.243,0,22.487c0,.833-.2,1.476-1.1,1.707-1.018-.235-1.241-.5-1.242-1.526q0-11.428,0-22.856c0-1.021.2-1.248,1.247-1.534" transform="translate(-52.788 -138.794)"/>
    <path id="Trazado_208630" data-name="Trazado 208630" d="M192.454,93.743a8.432,8.432,0,0,1,.316,2.274q-.016,13.94-.007,27.881a7.2,7.2,0,0,0-4.723,4.4,8,8,0,0,0-.431,2.563l-.877.034a1.469,1.469,0,0,1-1.413.089c-.593-1.073-1.575-1.126-2.66-1.116q-6.049.055-12.1,0a2.515,2.515,0,0,0-2.252,1.083c-.866,1.189-1.8,2.328-2.743,3.46-.571.687-.839.692-1.41.005-.991-1.191-1.971-2.392-2.9-3.633a2.06,2.06,0,0,0-1.781-.9c-1.189.007-2.379.018-3.568-.006-1.265-.025-1.772-.528-1.843-1.789-.014-.258-.01-.516-.01-.774q0-15.636,0-31.272c0-2.221.334-2.552,2.559-2.553,1.991,0,3.982-.033,5.972.014a2.155,2.155,0,0,0,2.268-1.1,4.753,4.753,0,0,1,3.076.11c.288.99.566,1.193,1.678,1.193q10.96,0,21.921,0c.309,0,.618.023.927.035" transform="translate(-122.169 -73.119)" fill="#feca2e"/>
    <path id="Trazado_208631" data-name="Trazado 208631" d="M287.3,279.063l1.406.022q-.019,2.792-.038,5.584c-.829.163-1.1.681-1.1,1.5-.019,2.313.132,4.628-.1,6.938a5.849,5.849,0,0,1-4.824,5.021,7.405,7.405,0,0,0,2.957-6.211q-.054-5.286.007-10.574c.008-.758-.125-1.19-.99-1.031a.464.464,0,0,1-.429-.124.784.784,0,0,1,.768-.23,2.337,2.337,0,0,0,2.344-.895" transform="translate(-224.142 -221.306)" fill="#415e6e"/>
    <path id="Trazado_208632" data-name="Trazado 208632" d="M120.936,44.653H117.87a2.512,2.512,0,0,0-2.388-.9c-2.247.047-4.5.076-6.744,0a3.432,3.432,0,0,0-3.531,3.351c-.011.206-.011.412-.011.619q0,16.133,0,32.267a3.848,3.848,0,0,0,1.166,3.079,3.036,3.036,0,0,0,2.113.825c1.086-.006,2.171.011,3.256,0a1.7,1.7,0,0,1,1.461.708q1.757,2.214,3.536,4.41c.908,1.117,1.382,1.117,2.3-.024,1.1-1.367,2.2-2.733,3.29-4.111.254-.322.478-.684.925-.782,2.661-.075,5.321-.029,7.981-.025.8,0,.976.194.989,1.041.029,1.882.009,3.764.01,5.646q0,2.668,0,5.337a3.553,3.553,0,0,1-.134,1.147.937.937,0,0,1-.9.717c-.336.016-.672.014-1.007.014q-16.468.007-32.936.008a1.472,1.472,0,0,1-1.492-1.462,10.222,10.222,0,0,1-.027-1.159q0-15.279,0-30.557a5.492,5.492,0,0,0-.529-3.14,3.31,3.31,0,0,1-.307-2.217c.147-.2.374-.132.572-.143a20.612,20.612,0,0,0,2.844-.083,3.532,3.532,0,0,0,3.552-3.679q.02-5.713,0-11.426a3.529,3.529,0,0,0-3.706-3.676c-1.083-.008-2.166-.008-3.249-.011a11.175,11.175,0,0,1-.037-2.307,2.942,2.942,0,0,0,.885-2.655,14.577,14.577,0,0,1,.011-2.087,1.454,1.454,0,0,1,1.6-1.507c.7-.019,1.4,0,2.093,0a1.053,1.053,0,0,1,1.1.79c.168.488.321.981.514,1.459a3.641,3.641,0,0,0,3.069,2.4,15.656,15.656,0,0,0,2.161.154q8.681-.01,17.362,0a15.533,15.533,0,0,0,2.084-.144,3.741,3.741,0,0,0,3.078-2.5c.16-.38.263-.782.4-1.17.315-.881.453-.98,1.416-.981a1.82,1.82,0,0,1,1.124.2,1.922,1.922,0,0,1,.444,1.44q.022,4.487,0,8.975c0,.934-.083.988-1.032.988q-4.225,0-8.45,0a2.323,2.323,0,0,0-.845.053,1.343,1.343,0,0,0-.948,1.134" transform="translate(-75.177 -25.259)" fill="#d8eff3"/>
    <path id="Trazado_208633" data-name="Trazado 208633" d="M107.156,98.619a5.447,5.447,0,0,0,.321-2.119q-.025-4.916,0-9.832a5.376,5.376,0,0,0-.32-2.119c.282-.011.565-.037.847-.029a1.191,1.191,0,0,1,1.32,1.279q.024,5.783,0,11.567A1.2,1.2,0,0,1,108,98.649c-.281.01-.564-.019-.846-.031" transform="translate(-84.978 -67.025)" fill="#c93c41"/>
    <path id="Trazado_208634" data-name="Trazado 208634" d="M332.768,264.894a4.482,4.482,0,0,1-4.481-1.939,4.6,4.6,0,0,1,0-5.224,4.385,4.385,0,0,1,4.48-1.96,4.459,4.459,0,0,1,2.153,3.328,5.857,5.857,0,0,1-.922,4.653,3.136,3.136,0,0,1-1.23,1.142" transform="translate(-259.699 -202.786)" fill="#a7e446"/>
    <path id="Trazado_208635" data-name="Trazado 208635" d="M353.049,265.135a6.446,6.446,0,0,0,1.852-2.887,5.8,5.8,0,0,0-1.552-5.886c-.109-.107-.2-.233-.3-.349a4.594,4.594,0,0,1,0,9.122" transform="translate(-279.98 -203.027)" fill="#85b638"/>
    <path id="Trazado_208636" data-name="Trazado 208636" d="M36.37,99.856q2.749,0,5.5,0a5.412,5.412,0,0,1,.7.019,1.1,1.1,0,0,1,1.059,1.194,1.053,1.053,0,0,1-1.08,1.086c-.618.037-1.238.022-1.858.023q-4.956,0-9.913,0c-.232,0-.466.008-.7-.013a1.12,1.12,0,0,1-1.143-1.118A1.132,1.132,0,0,1,30.1,99.867c.359-.029.722-.011,1.084-.011H36.37" transform="translate(-22.944 -79.185)" fill="#000101"/>
    <path id="Trazado_208637" data-name="Trazado 208637" d="M35.581,125.293c1.729,0,3.459-.019,5.188.007,1.055.016,1.624.88,1.174,1.713a1.2,1.2,0,0,1-1.172.6c-3.51,0-7.021.008-10.531,0-.821,0-1.288-.434-1.309-1.112-.023-.712.463-1.188,1.307-1.2,1.781-.02,3.562-.006,5.343-.006" transform="translate(-22.943 -99.356)" fill="#000101"/>
    <path id="Trazado_208638" data-name="Trazado 208638" d="M127.1,23.852a.392.392,0,0,0-.075-.021c-1.827-.138-1.827-.138-2.381,1.566a4.057,4.057,0,0,1-4.339,3.2q-9.953.018-19.907,0a4.068,4.068,0,0,1-4.329-3.221c-.506-1.574-.506-1.574-2.161-1.574-2.423,0-2.53.107-2.53,2.53,0,.67-.018,1.341,0,2.01A1.352,1.352,0,0,1,90.307,29.9c-.978-.183-1.24-.473-1.246-1.43-.007-1.16-.021-2.321.009-3.481a3.538,3.538,0,0,1,3.462-3.472c1.239-.037,2.48.007,3.72-.018a1.236,1.236,0,0,1,1.325.95c.27.832.544,1.664.8,2.5A1.678,1.678,0,0,0,100,26.253c.309.019.618.047.927.047q9.495,0,18.989,0c1.7,0,2.116-.3,2.624-1.906.21-.663.435-1.32.635-1.986a1.164,1.164,0,0,1,1.26-.912c1.137.013,2.274,0,3.41,0a3.656,3.656,0,0,1,3.865,3.822c.031,2.036.017,4.074,0,6.111-.008,1.1-.4,1.451-1.516,1.438-.717.111-.88-.394-.965-.916a10.214,10.214,0,0,1-.035-1.62c0-1.493.013-2.987-.007-4.48-.016-1.253-.29-1.557-1.525-1.772a1.186,1.186,0,0,1-.564-.233" transform="translate(-70.621 -17.046)"/>
    <path id="Trazado_208639" data-name="Trazado 208639" d="M163.4,22.493c2.015,0,4.031,0,6.046,0,.921,0,1.424.421,1.424,1.157s-.505,1.16-1.423,1.162q-6.046.007-12.092,0c-.88,0-1.421-.483-1.4-1.2.024-.689.54-1.116,1.4-1.119,2.015-.007,4.031,0,6.046,0" transform="translate(-123.678 -17.836)"/>
    <path id="Trazado_208640" data-name="Trazado 208640" d="M235.445,32.731c1.834-.181,2.274.217,2.274,2.058,0,1.88,0,3.761,0,5.641a1.189,1.189,0,0,0,.823,1.323.649.649,0,0,1,.343.681c-.037.578-.033,1.159-.046,1.739l-13.166.012c.241-.226.54-.131.813-.132,2.787-.007,5.575-.032,8.362.014.767.013.936-.233.926-.958-.041-2.91-.025-5.821-.01-8.732a3.682,3.682,0,0,0-.317-1.647" transform="translate(-178.965 -25.925)" fill="#b9e0e4"/>
    <path id="Trazado_208641" data-name="Trazado 208641" d="M90.647,175.705a1.321,1.321,0,0,1,.744,1.4c-.006,2.269,0,4.537,0,6.805q0,13.108,0,26.216c0,1.15.279,1.525,1.231,1.693a2.473,2.473,0,0,0,.921.057q16.325.006,32.65.013a7.363,7.363,0,0,0,1.973-.331,1.4,1.4,0,0,0,1.007-1.482c.04-.954.012-1.909.016-2.864.007-1.78-.024-3.561.014-5.34.022-1.018.428-1.408,1.326-1.372.966.321,1.192.609,1.195,1.624q.012,3.947,0,7.894c0,2.635-1.445,4.13-4.085,4.207-1.085.031-2.171.006-3.257.006H93.445a4.292,4.292,0,0,1-3.282-1.091,3.66,3.66,0,0,1-1.1-2.714c.013-3.56,0-7.12,0-10.68q0-11.3,0-22.6c0-1.246.387-1.592,1.577-1.441" transform="translate(-70.631 -139.314)"/>
    <path id="Trazado_208642" data-name="Trazado 208642" d="M162.079,128.88q-1.989,2.467-3.977,4.934c-.972,1.209-1.608,1.215-2.557.019-1.22-1.536-2.456-3.058-3.655-4.61a1.126,1.126,0,0,0-1.037-.489c-1.111.031-2.223.021-3.334.007a3.522,3.522,0,0,1-3.576-3.507c-.007-.18,0-.361,0-.542,0-10.835.033-21.671-.025-32.506a3.8,3.8,0,0,1,4.067-4.079c2.45.114,4.91.041,7.366.016a1.27,1.27,0,0,1,1.474,1.137c-.245.934-.553,1.19-1.515,1.193-2.481.007-4.962,0-7.444,0-1.192,0-1.594.39-1.594,1.562q0,16.4,0,32.81c0,1.187.4,1.587,1.568,1.591,1.266,0,2.533.02,3.8-.007a1.792,1.792,0,0,1,1.592.758c.97,1.272,1.984,2.51,2.979,3.762.607.764.606.764,1.239-.031.98-1.231,1.981-2.448,2.933-3.7a1.882,1.882,0,0,1,1.656-.79c4.5.018,8.994.008,13.491.01,1.163,0,1.378.15,1.759,1.2a1.36,1.36,0,0,1-1.653,1.116c-.483-.041-.973,0-1.461.009l-.169.011a6.033,6.033,0,0,1-2.891.132c-.2-.015-.4-.094-.605-.094q-4.028,0-8.056,0a.587.587,0,0,0-.37.08" transform="translate(-114.128 -69.869)"/>
    <path id="Trazado_208643" data-name="Trazado 208643" d="M132.211,284.523c.1-.228.31-.14.473-.14q5.725,0,11.45.021.013,1.146.026,2.292c-1.053.4-1.142.531-1.143,1.706,0,2.629,0,5.258,0,7.886,0,1.313-.459,1.791-1.761,1.792q-17.237.015-34.474.012a3.58,3.58,0,0,1-.527-.077c.335-.013.67-.036,1-.036q16.275,0,32.55,0c1.1,0,1.24-.127,1.242-1.243.007-3.842-.007-7.683.014-11.524,0-.554-.185-.7-.714-.693-2.712.02-5.425.007-8.137.005" transform="translate(-84.261 -225.512)" fill="#b9e0e4"/>
    <path id="Trazado_208644" data-name="Trazado 208644" d="M199.614,132.649H187.367a4.7,4.7,0,0,1-.7-.017,1.045,1.045,0,0,1-.964-.954,1.092,1.092,0,0,1,.7-1.243,2.133,2.133,0,0,1,.915-.109h24.65c.129,0,.259-.006.387,0a1.169,1.169,0,0,1,1.213,1.223,1.1,1.1,0,0,1-1.241,1.09c-2.015.014-4.031.005-6.046.006h-6.666" transform="translate(-147.259 -103.352)"/>
    <path id="Trazado_208645" data-name="Trazado 208645" d="M199.581,158.084q-6.24,0-12.48.005c-.648,0-1.195-.124-1.408-.816a1.143,1.143,0,0,1,.955-1.486,4.645,4.645,0,0,1,.773-.025h24.34c.155,0,.31-.006.465,0,.829.039,1.325.5,1.3,1.217-.025.694-.485,1.1-1.31,1.1q-6.317.01-12.635,0" transform="translate(-147.217 -123.522)"/>
    <path id="Trazado_208646" data-name="Trazado 208646" d="M199.571,208.969q-6.24,0-12.48.006c-.613,0-1.145-.1-1.395-.731a1.14,1.14,0,0,1,.845-1.551,3.973,3.973,0,0,1,.848-.044q12.17,0,24.34,0c.129,0,.259,0,.387,0,.89.025,1.408.475,1.389,1.206s-.491,1.112-1.377,1.113q-6.279.007-12.558,0" transform="translate(-147.196 -163.876)"/>
    <path id="Trazado_208647" data-name="Trazado 208647" d="M194.279,234.4q-3.527,0-7.054,0c-1.057,0-1.569-.389-1.556-1.17.013-.757.553-1.151,1.6-1.152q7.016,0,14.031-.005a1.406,1.406,0,0,1,1.449.677c.41.811-.176,1.64-1.182,1.646-2.429.014-4.858,0-7.287,0" transform="translate(-147.241 -184.038)"/>
    <path id="Trazado_208648" data-name="Trazado 208648" d="M249.555,183.528q-3.334,0-6.667,0c-.932,0-1.446-.4-1.467-1.114-.022-.748.517-1.2,1.474-1.205q6.706-.008,13.412,0c.951,0,1.482.459,1.456,1.214-.025.733-.507,1.1-1.464,1.105q-3.372.006-6.744,0" transform="translate(-191.454 -143.7)"/>
    <path id="Trazado_208649" data-name="Trazado 208649" d="M189.759,183.5c-.93,0-1.86.01-2.789,0-.815-.011-1.277-.425-1.29-1.12a1.14,1.14,0,0,1,1.239-1.19q2.866-.034,5.734,0a1.157,1.157,0,0,1,1.222,1.215,1.131,1.131,0,0,1-1.248,1.091c-.955.017-1.911,0-2.867,0" transform="translate(-147.25 -143.677)"/>
    <path id="Trazado_208650" data-name="Trazado 208650" d="M287.606,234.382c-.826,0-1.651.011-2.477,0-.8-.014-1.27-.444-1.274-1.137a1.156,1.156,0,0,1,1.258-1.174q2.515-.033,5.031,0a1.162,1.162,0,0,1,1.275,1.159c0,.719-.478,1.144-1.335,1.155-.826.01-1.651,0-2.477,0" transform="translate(-225.106 -184.024)"/>
    <path id="Trazado_208651" data-name="Trazado 208651" d="M163.389,324.636c2.012,0,4.025,0,6.037,0,.952,0,1.427.38,1.44,1.121.014.762-.5,1.2-1.468,1.2q-6,.009-12,0c-.912,0-1.436-.432-1.454-1.147-.018-.737.52-1.17,1.481-1.172q2.98-.006,5.96,0" transform="translate(-123.672 -257.446)"/>
  </g>
</svg>
