<svg xmlns="http://www.w3.org/2000/svg" xmlns:xlink="http://www.w3.org/1999/xlink" width="453.231" height="856.19" viewBox="0 0 453.231 856.19">
  <defs>
    <clipPath id="clip-path">
      <rect id="Rectángulo_88513" data-name="Rectángulo 88513" width="453.231" height="412.952" fill="none"/>
    </clipPath>
    <clipPath id="clip-path-4">
      <rect id="Rectángulo_88489" data-name="Rectángulo 88489" width="61.141" height="67.412" fill="none"/>
    </clipPath>
    <clipPath id="clip-path-5">
      <rect id="Rectángulo_88490" data-name="Rectángulo 88490" width="22.457" height="20.031" fill="#85b638"/>
    </clipPath>
    <clipPath id="clip-path-6">
      <rect id="Rectángulo_88492" data-name="Rectángulo 88492" width="31.65" height="97.226" fill="#85b638"/>
    </clipPath>
    <clipPath id="clip-path-7">
      <rect id="Rectángulo_88493" data-name="Rectángulo 88493" width="45.059" height="60.733" fill="#85b638"/>
    </clipPath>
    <clipPath id="clip-path-8">
      <rect id="Rectángulo_88494" data-name="Rectángulo 88494" width="19.731" height="93.822" fill="none"/>
    </clipPath>
    <clipPath id="clip-path-11">
      <rect id="Rectángulo_88514" data-name="Rectángulo 88514" width="74.587" height="74.587" fill="#fc4b52"/>
    </clipPath>
    <clipPath id="clip-path-12">
      <rect id="Rectángulo_88514-2" data-name="Rectángulo 88514" width="101.612" height="101.612" fill="#e0f6be"/>
    </clipPath>
    <clipPath id="clip-path-13">
      <rect id="Rectángulo_88514-3" data-name="Rectángulo 88514" width="74.587" height="74.587" fill="none"/>
    </clipPath>
    <clipPath id="clip-path-14">
      <rect id="Rectángulo_88515" data-name="Rectángulo 88515" width="48.952" height="54.988" transform="translate(0 0)" fill="#fc4b52"/>
    </clipPath>
  </defs>
  <g id="Grupo_138606" data-name="Grupo 138606" transform="translate(-965.769 -10623.281)">
    <g id="Grupo_138192" data-name="Grupo 138192" transform="translate(965.769 10851)">
      <g id="Grupo_138191" data-name="Grupo 138191" clip-path="url(#clip-path)">
        <rect id="Rectángulo_88484" data-name="Rectángulo 88484" width="309.89" height="386.645" transform="translate(77.332 26.306)" fill="#455a64"/>
        <rect id="Rectángulo_88485" data-name="Rectángulo 88485" width="274.678" height="274.678" transform="translate(94.939 69.292)" fill="#fff"/>
        <g id="Grupo_138169" data-name="Grupo 138169">
          <g id="Grupo_138168" data-name="Grupo 138168" clip-path="url(#clip-path)">
            <path id="Trazado_210204" data-name="Trazado 210204" d="M77.164,50.618a8.843,8.843,0,0,0,2.6,1.086,9,9,0,1,0-2.6-1.086" transform="translate(279.194 4.774)" fill="#fff"/>
            <path id="Trazado_210205" data-name="Trazado 210205" d="M78.381,41.288a2.739,2.739,0,1,0,2.74-2.739,2.739,2.739,0,0,0-2.74,2.739" transform="translate(279.972 5.419)" fill="#37474f"/>
            <path id="Trazado_210206" data-name="Trazado 210206" d="M76.634,48.157v1.13a9,9,0,0,0,9.466,0V48.157a4.733,4.733,0,1,0-9.466,0" transform="translate(279.724 6.105)" fill="#37474f"/>
            <path id="Trazado_210207" data-name="Trazado 210207" d="M309.354,40.961a.855.855,0,0,0-.847.849.845.845,0,0,0,.847.837.834.834,0,0,0,.836-.837.844.844,0,0,0-.836-.849" transform="translate(-208.837 5.758)" fill="#c7c7c7"/>
            <path id="Trazado_210208" data-name="Trazado 210208" d="M311.637,40.961a.855.855,0,0,0-.849.849.845.845,0,0,0,.849.837.836.836,0,0,0,.837-.837.845.845,0,0,0-.837-.849" transform="translate(-213.722 5.758)" fill="#c7c7c7"/>
            <path id="Trazado_210209" data-name="Trazado 210209" d="M313.922,40.961a.855.855,0,0,0-.849.849.845.845,0,0,0,.849.837.835.835,0,0,0,.836-.837.844.844,0,0,0-.836-.849" transform="translate(-218.612 5.758)" fill="#c7c7c7"/>
            <rect id="Rectángulo_88486" data-name="Rectángulo 88486" width="86.673" height="4.399" transform="translate(254.96 45.536)" fill="#37474f"/>
            <path id="Trazado_210210" data-name="Trazado 210210" d="M121.349,301.573H341.233v66.154Z" transform="translate(-26.411 42.396)" fill="#37474f"/>
            <path id="Trazado_210212" data-name="Trazado 210212" d="M142.31,329.984l1.332-.257,2.729-10.168,6.3-6.877-.557-1.265H129.894l-.6,1.208Zm8.088-17.056-5.264,5.746-.172.315-2.375,8.848L131.4,312.928Z" transform="translate(153.095 43.78)" fill="#c7c7c7"/>
            <rect id="Rectángulo_88487" data-name="Rectángulo 88487" width="18.792" height="1.51" transform="matrix(-0.914, -0.406, 0.406, -0.914, 299.17, 363.96)" fill="#c7c7c7"/>
          </g>
        </g>
        <g id="Grupo_138186" data-name="Grupo 138186">
          <g id="Grupo_138185" data-name="Grupo 138185" clip-path="url(#clip-path)">
            <path id="Trazado_210215" data-name="Trazado 210215" d="M126.506,194.015a1,1,0,0,0,.934.935c1.151-.066,2.532-.164,4.082-.268,2.384-9.921,5.307-17.938,4.667-14.874a48.941,48.941,0,0,0-.656,14.593c1.8-.133,5.96-.481,8.045-.656.958-17.041,3.373-29.9,3.622-26.063,1.006,15.479,2.563,20.292,4.323,25.422,19.409-1.638,44.831-4.064,63.17-6.21.906-9.469,1.445-19.661,1.858-19.008,3.179,4.869,4.849,12.313,5.668,18.108,5.834-.725,10.483-1.411,13.3-1.972,0,0,.344-7.908.206-10.475a53.576,53.576,0,0,0-4.592-19.1c-2.785-6.189-6.885-11.439-10.829-16.856a.515.515,0,0,0-.1-.117c0-.019-.015-.023-.031-.046a55.127,55.127,0,0,1-6.448-11.351.3.3,0,0,1-.043-.088,53.156,53.156,0,0,1-2.719-9.012c-2.344-11.242-10.029-20.221-21.093-21.821-22.647-16.332-41.785-5.706-45.966,9.647-.4,1.5-.757,3.2-1.077,5.044l-.009.057c-1.2,6.831-1.929,15.587-2.77,22.391a.027.027,0,0,1-.006.039c.016.023.013.041-.01.076l0,.018a62.742,62.742,0,0,1-1.394,7.914c-3.53,12.51-14.279,20.762-12.131,53.668" transform="translate(73.507 12.226)" fill="#263238"/>
            <path id="Trazado_210216" data-name="Trazado 210216" d="M125.16,96.363c7.482,2.732,12.477,7.5,14.652,15.647,1.268,4.747,2.209,9.418,4.664,13.734,2.532,4.454,6.071,7.917,9.693,11.362,5.755,5.477,10.009,11.123,11.847,19.154,1.867,8.157,2.752,17.954.98,26.022a.036.036,0,1,1-.071-.014c1.232-8.107-.132-18.93-2.6-26.933-2.711-8.789-8.545-13.779-14.651-19.932A37.825,37.825,0,0,1,139.6,118.059c-1.061-4.027-1.56-8.3-3.716-11.94-2.572-4.348-6.881-6.764-11.114-8.854a.491.491,0,0,1,.386-.9" transform="translate(143.281 13.542)" fill="#263238"/>
            <path id="Trazado_210217" data-name="Trazado 210217" d="M214.461,151.77c4.094-7.082,8.517-13.24,10.36-21.6,1.68-7.621,2.176-15.508,3.9-23.126a.094.094,0,1,1,.186.032c-2.439,13.446-1.526,26.574-8.435,38.517-3.753,6.489-7.561,12.545-9.617,20.009a63.607,63.607,0,0,0-1.622,23.952c.031.286-.338.318-.4.048a52.611,52.611,0,0,1,5.622-37.827" transform="translate(-12.379 15.037)" fill="#263238"/>
            <path id="Trazado_210218" data-name="Trazado 210218" d="M250.53,187.161C214.1,225.343,168.81,305.132,177.769,321c9.978,17.679,62.506-36.67,60.858-39.273-1.4-2.212,16.747-50.256,29.933-85.393,13.173-35.1-9.023-18.62-18.03-9.178" transform="translate(-20.855 24.593)" fill="#c95f50"/>
            <path id="Trazado_210219" data-name="Trazado 210219" d="M175.385,232.938l52.3,9.417s13.057-37.061,15.648-57.639c1.451-11.531-5.327-12-13.852-5.876-29.843,21.45-54.1,54.1-54.1,54.1" transform="translate(9.657 24.593)" fill="#a7e446"/>
            <path id="Trazado_210220" data-name="Trazado 210220" d="M224.256,191a3.988,3.988,0,0,0,.868,1.017,6.353,6.353,0,0,0,.578.456h.153A5.186,5.186,0,0,0,227.3,191a1.618,1.618,0,0,0,.1-1.543.772.772,0,0,0-.682-.39,1,1,0,0,1-1.882,0,.772.772,0,0,0-.684.39,1.623,1.623,0,0,0,.1,1.545m-16.17-1.308a1.735,1.735,0,0,1-.189,1.3,5.261,5.261,0,0,1-1.443,1.479H206.3a5.281,5.281,0,0,1-.579-.449.675.675,0,0,1-.13-.131c.817-.732,1.656-1.478,2.5-2.2m25.776-12.728a.759.759,0,0,1,.674-.39.9.9,0,0,1,.438.106v.013a7.3,7.3,0,0,1,.993,2.98,3.385,3.385,0,0,1-.414.308H235.4c-.013-.011-.273-.189-.568-.449a4.048,4.048,0,0,1-.875-1.017,1.622,1.622,0,0,1-.095-1.55m-9.708,37.374a.772.772,0,0,1,.684-.39,1,1,0,0,0,1.882,0,.772.772,0,0,1,.682.39,1.618,1.618,0,0,1-.1,1.543,5.185,5.185,0,0,1-1.446,1.476H225.7a6.213,6.213,0,0,1-.578-.455,3.993,3.993,0,0,1-.868-1.019,1.623,1.623,0,0,1-.1-1.545m-19.406,0a.772.772,0,0,1,.684-.39,1,1,0,0,0,1.882,0,.769.769,0,0,1,.681.39,1.615,1.615,0,0,1-.1,1.543,5.185,5.185,0,0,1-1.446,1.476H206.3a6.207,6.207,0,0,1-.578-.455,3.972,3.972,0,0,1-.868-1.019,1.623,1.623,0,0,1-.1-1.545m-19.406,0a.772.772,0,0,1,.684-.39,1.064,1.064,0,0,1,.94.664,1.066,1.066,0,0,1,.942-.664.769.769,0,0,1,.681.39,1.615,1.615,0,0,1-.1,1.543,5.185,5.185,0,0,1-1.446,1.476h-.153a6.215,6.215,0,0,1-.578-.455,3.971,3.971,0,0,1-.868-1.019,1.623,1.623,0,0,1-.1-1.545m29.109-12.487a.771.771,0,0,1,.684-.391,1,1,0,0,0,1.882,0,.771.771,0,0,1,.682.391,1.616,1.616,0,0,1-.1,1.542,5.152,5.152,0,0,1-1.446,1.476H216a5.989,5.989,0,0,1-.578-.455,3.952,3.952,0,0,1-.868-1.019,1.62,1.62,0,0,1-.1-1.544m-19.406,0a.771.771,0,0,1,.684-.391,1.064,1.064,0,0,1,.94.664,1.066,1.066,0,0,1,.942-.664.771.771,0,0,1,.682.391,1.616,1.616,0,0,1-.1,1.542,5.151,5.151,0,0,1-1.446,1.476h-.153a5.993,5.993,0,0,1-.578-.455,3.952,3.952,0,0,1-.868-1.019,1.62,1.62,0,0,1-.1-1.544m9.705,37.37a.777.777,0,0,1,.685-.39,1,1,0,0,0,1.881,0,.759.759,0,0,1,.674.39,1.3,1.3,0,0,1,.154.722l-3.431-.616a.189.189,0,0,1,.037-.106m9.7-12.487a.772.772,0,0,1,.684-.39,1,1,0,0,0,1.882,0,.772.772,0,0,1,.682.39,1.618,1.618,0,0,1-.1,1.543,5.186,5.186,0,0,1-1.446,1.476H216a6.211,6.211,0,0,1-.578-.455,3.971,3.971,0,0,1-.868-1.019,1.623,1.623,0,0,1-.1-1.546m-19.406,0a.772.772,0,0,1,.684-.39,1.064,1.064,0,0,1,.94.664,1.066,1.066,0,0,1,.942-.664.772.772,0,0,1,.682.39,1.618,1.618,0,0,1-.1,1.543,5.186,5.186,0,0,1-1.446,1.476h-.153a6.214,6.214,0,0,1-.578-.455,3.971,3.971,0,0,1-.868-1.019,1.623,1.623,0,0,1-.1-1.546m-19.406,0a.772.772,0,0,1,.684-.39,1.064,1.064,0,0,1,.94.664,1.066,1.066,0,0,1,.942-.664.769.769,0,0,1,.681.39,1.615,1.615,0,0,1-.1,1.543,5.186,5.186,0,0,1-1.446,1.476h-.153a6.213,6.213,0,0,1-.578-.455,3.971,3.971,0,0,1-.868-1.019,1.623,1.623,0,0,1-.1-1.546" transform="translate(17.105 24.824)" fill="#fff"/>
            <path id="Trazado_210221" data-name="Trazado 210221" d="M233.736,227.61c-7.927-2.115-29.595-7.23-44.11-8.714-.087-.009-.16.318-.075.34,11.889,3.057,36,7.441,44.078,8.861.152.027.257-.447.107-.487" transform="translate(3.267 30.773)" fill="#263238"/>
            <g id="Grupo_138172" data-name="Grupo 138172" transform="translate(192.047 199.532)" opacity="0.1">
              <g id="Grupo_138171" data-name="Grupo 138171" transform="translate(0)">
                <g id="Grupo_138170" data-name="Grupo 138170" clip-path="url(#clip-path-4)">
                  <path id="Trazado_210222" data-name="Trazado 210222" d="M175.386,234.2l45.305,8.151s13.047-37.061,15.639-57.631c.934-7.382-1.515-10.232-5.631-9.723Z" transform="translate(-175.386 -174.939)"/>
                </g>
              </g>
            </g>
            <path id="Trazado_210223" data-name="Trazado 210223" d="M98.407,320.065h132.56s-12.061-92.476-54.763-141.1c-11.52-13.119-32.411-9.235-42.3-.357a92.014,92.014,0,0,0-9.615,10.921c-8.979,11.538-23.644,39.242-25.015,46.735-2.265,12.384,8.7,25.769,8.7,25.769Z" transform="translate(110.023 23.967)" fill="#a7e446"/>
            <path id="Trazado_210224" data-name="Trazado 210224" d="M166.938,191a3.988,3.988,0,0,0,.868,1.017,6.35,6.35,0,0,0,.578.456h.153A5.185,5.185,0,0,0,169.984,191a1.618,1.618,0,0,0,.1-1.543.772.772,0,0,0-.682-.39,1.066,1.066,0,0,0-.942.664,1.064,1.064,0,0,0-.94-.664.772.772,0,0,0-.684.39,1.623,1.623,0,0,0,.1,1.545m-19.507-1.545a.772.772,0,0,1,.684-.39,1.064,1.064,0,0,1,.94.664,1.066,1.066,0,0,1,.942-.664.772.772,0,0,1,.682.39,1.618,1.618,0,0,1-.1,1.543,5.185,5.185,0,0,1-1.446,1.476h-.153a6.349,6.349,0,0,1-.578-.456,3.989,3.989,0,0,1-.868-1.017,1.623,1.623,0,0,1-.1-1.545m-19.406,0a.772.772,0,0,1,.684-.39,1.064,1.064,0,0,1,.94.664,1.066,1.066,0,0,1,.942-.664.769.769,0,0,1,.681.39,1.615,1.615,0,0,1-.1,1.543,5.185,5.185,0,0,1-1.446,1.476h-.153a6.35,6.35,0,0,1-.578-.456,3.966,3.966,0,0,1-.868-1.017,1.623,1.623,0,0,1-.1-1.545m29.109-12.488a.772.772,0,0,1,.684-.39,1.064,1.064,0,0,1,.94.664,1.066,1.066,0,0,1,.942-.664.772.772,0,0,1,.682.39,1.618,1.618,0,0,1-.1,1.543,5.152,5.152,0,0,1-1.446,1.476h-.153a6.223,6.223,0,0,1-.578-.455,3.994,3.994,0,0,1-.868-1.019,1.623,1.623,0,0,1-.1-1.545m-19.406,0a.772.772,0,0,1,.684-.39,1.064,1.064,0,0,1,.94.664,1.066,1.066,0,0,1,.942-.664.772.772,0,0,1,.682.39,1.618,1.618,0,0,1-.1,1.543,5.152,5.152,0,0,1-1.446,1.476h-.153a6.22,6.22,0,0,1-.578-.455,3.971,3.971,0,0,1-.868-1.019,1.623,1.623,0,0,1-.1-1.545m48.515,37.371a.772.772,0,0,1,.684-.39,1.064,1.064,0,0,1,.94.664,1.067,1.067,0,0,1,.942-.664.772.772,0,0,1,.682.39,1.618,1.618,0,0,1-.1,1.543,5.185,5.185,0,0,1-1.446,1.476h-.153a6.209,6.209,0,0,1-.578-.455,3.994,3.994,0,0,1-.868-1.019,1.623,1.623,0,0,1-.1-1.545m-19.406,0a.772.772,0,0,1,.684-.39,1.064,1.064,0,0,1,.94.664,1.066,1.066,0,0,1,.942-.664.772.772,0,0,1,.682.39,1.618,1.618,0,0,1-.1,1.543,5.185,5.185,0,0,1-1.446,1.476h-.153a6.212,6.212,0,0,1-.578-.455,3.994,3.994,0,0,1-.868-1.019,1.623,1.623,0,0,1-.1-1.545m-19.406,0a.772.772,0,0,1,.684-.39,1.064,1.064,0,0,1,.94.664,1.066,1.066,0,0,1,.942-.664.772.772,0,0,1,.682.39,1.618,1.618,0,0,1-.1,1.543,5.185,5.185,0,0,1-1.446,1.476h-.153a6.211,6.211,0,0,1-.578-.455,3.994,3.994,0,0,1-.868-1.019,1.623,1.623,0,0,1-.1-1.545m-19.406,0a.772.772,0,0,1,.684-.39,1.064,1.064,0,0,1,.94.664,1.066,1.066,0,0,1,.942-.664.769.769,0,0,1,.681.39,1.615,1.615,0,0,1-.1,1.543,5.185,5.185,0,0,1-1.446,1.476h-.153a6.212,6.212,0,0,1-.578-.455,3.971,3.971,0,0,1-.868-1.019,1.623,1.623,0,0,1-.1-1.545m-19.406,0a.772.772,0,0,1,.684-.39,1.064,1.064,0,0,1,.94.664,1.066,1.066,0,0,1,.942-.664.769.769,0,0,1,.681.39,1.615,1.615,0,0,1-.1,1.543,5.185,5.185,0,0,1-1.446,1.476h-.153a6.21,6.21,0,0,1-.578-.455,3.971,3.971,0,0,1-.868-1.019,1.623,1.623,0,0,1-.1-1.545m67.921-12.487a.771.771,0,0,1,.684-.391,1.063,1.063,0,0,1,.94.665,1.067,1.067,0,0,1,.942-.665.77.77,0,0,1,.682.391,1.618,1.618,0,0,1-.1,1.543,5.158,5.158,0,0,1-1.446,1.475h-.153a5.993,5.993,0,0,1-.578-.455,3.965,3.965,0,0,1-.868-1.017,1.623,1.623,0,0,1-.1-1.545m-19.406,0a.771.771,0,0,1,.684-.391,1.063,1.063,0,0,1,.94.665,1.065,1.065,0,0,1,.942-.665.771.771,0,0,1,.682.391,1.618,1.618,0,0,1-.1,1.543,5.158,5.158,0,0,1-1.446,1.475h-.153a6,6,0,0,1-.578-.455,3.988,3.988,0,0,1-.868-1.017,1.623,1.623,0,0,1-.1-1.545m-19.406,0a.771.771,0,0,1,.684-.391,1.063,1.063,0,0,1,.94.665,1.065,1.065,0,0,1,.942-.665.771.771,0,0,1,.682.391,1.618,1.618,0,0,1-.1,1.543,5.158,5.158,0,0,1-1.446,1.475h-.153a5.993,5.993,0,0,1-.578-.455,3.965,3.965,0,0,1-.868-1.017,1.623,1.623,0,0,1-.1-1.545m-19.406,0a.771.771,0,0,1,.684-.391,1.063,1.063,0,0,1,.94.665,1.065,1.065,0,0,1,.942-.665.768.768,0,0,1,.681.391,1.615,1.615,0,0,1-.1,1.543,5.158,5.158,0,0,1-1.446,1.475h-.153a5.992,5.992,0,0,1-.578-.455,3.965,3.965,0,0,1-.868-1.017,1.623,1.623,0,0,1-.1-1.545m87.332,37.37a.759.759,0,0,1,.674-.39,1.062,1.062,0,0,1,.947.663c.024-.035.035-.083.059-.119.284.733.555,1.455.816,2.189v.011a6.29,6.29,0,0,1-.8.663h-.154c-.011-.013-.271-.189-.579-.449a4.545,4.545,0,0,1-.863-1.017,1.629,1.629,0,0,1-.095-1.55m-19.412,0a.771.771,0,0,1,.684-.391,1.064,1.064,0,0,1,.94.664,1.067,1.067,0,0,1,.942-.664.771.771,0,0,1,.682.391,1.616,1.616,0,0,1-.1,1.542,5.151,5.151,0,0,1-1.446,1.476h-.153a5.989,5.989,0,0,1-.578-.455,3.975,3.975,0,0,1-.868-1.019,1.62,1.62,0,0,1-.1-1.544m-19.406,0a.771.771,0,0,1,.684-.391,1.064,1.064,0,0,1,.94.664,1.066,1.066,0,0,1,.942-.664.771.771,0,0,1,.682.391,1.616,1.616,0,0,1-.1,1.542,5.151,5.151,0,0,1-1.446,1.476h-.153a5.992,5.992,0,0,1-.578-.455,3.975,3.975,0,0,1-.868-1.019,1.62,1.62,0,0,1-.1-1.544m-19.406,0a.771.771,0,0,1,.684-.391,1.064,1.064,0,0,1,.94.664,1.066,1.066,0,0,1,.942-.664.771.771,0,0,1,.682.391,1.616,1.616,0,0,1-.1,1.542,5.151,5.151,0,0,1-1.446,1.476h-.153a5.991,5.991,0,0,1-.578-.455,3.975,3.975,0,0,1-.868-1.019,1.62,1.62,0,0,1-.1-1.544m-19.406,0a.771.771,0,0,1,.684-.391,1.064,1.064,0,0,1,.94.664,1.066,1.066,0,0,1,.942-.664.768.768,0,0,1,.681.391,1.613,1.613,0,0,1-.1,1.542,5.151,5.151,0,0,1-1.446,1.476h-.153a5.992,5.992,0,0,1-.578-.455,3.953,3.953,0,0,1-.868-1.019,1.62,1.62,0,0,1-.1-1.544m-19.406,0a.771.771,0,0,1,.684-.391,1.064,1.064,0,0,1,.94.664,1.066,1.066,0,0,1,.942-.664.768.768,0,0,1,.681.391,1.612,1.612,0,0,1-.1,1.542,5.151,5.151,0,0,1-1.446,1.476h-.153a5.99,5.99,0,0,1-.578-.455,3.953,3.953,0,0,1-.868-1.019,1.62,1.62,0,0,1-.1-1.544m87.326-12.488a.772.772,0,0,1,.684-.39,1,1,0,0,0,1.882,0,.771.771,0,0,1,.682.39,1.618,1.618,0,0,1-.1,1.543,5.17,5.17,0,0,1-1.446,1.476h-.153a6.214,6.214,0,0,1-.578-.455,3.994,3.994,0,0,1-.868-1.019,1.623,1.623,0,0,1-.1-1.546m-19.406,0a.772.772,0,0,1,.684-.39,1.064,1.064,0,0,1,.94.664,1.067,1.067,0,0,1,.942-.664.771.771,0,0,1,.682.39,1.618,1.618,0,0,1-.1,1.543,5.186,5.186,0,0,1-1.446,1.476h-.153a6.211,6.211,0,0,1-.578-.455,3.972,3.972,0,0,1-.868-1.019,1.623,1.623,0,0,1-.1-1.546m-19.406,0a.772.772,0,0,1,.684-.39,1.064,1.064,0,0,1,.94.664,1.066,1.066,0,0,1,.942-.664.772.772,0,0,1,.682.39,1.618,1.618,0,0,1-.1,1.543,5.185,5.185,0,0,1-1.446,1.476h-.153a6.214,6.214,0,0,1-.578-.455,3.994,3.994,0,0,1-.868-1.019,1.623,1.623,0,0,1-.1-1.546m-19.406,0a.772.772,0,0,1,.684-.39,1.064,1.064,0,0,1,.94.664,1.066,1.066,0,0,1,.942-.664.772.772,0,0,1,.682.39,1.618,1.618,0,0,1-.1,1.543,5.186,5.186,0,0,1-1.446,1.476h-.153a6.211,6.211,0,0,1-.578-.455,3.972,3.972,0,0,1-.868-1.019,1.623,1.623,0,0,1-.1-1.546m-19.406,0a.772.772,0,0,1,.684-.39,1.064,1.064,0,0,1,.94.664,1.066,1.066,0,0,1,.942-.664.769.769,0,0,1,.681.39,1.615,1.615,0,0,1-.1,1.543,5.186,5.186,0,0,1-1.446,1.476h-.153a6.21,6.21,0,0,1-.578-.455,3.972,3.972,0,0,1-.868-1.019,1.623,1.623,0,0,1-.1-1.546m-18.952-.359a.687.687,0,0,1,.225-.035,1.081,1.081,0,0,1,.947.663,1.081,1.081,0,0,1,.947-.663.776.776,0,0,1,.674.39,1.629,1.629,0,0,1-.095,1.55,5.246,5.246,0,0,1-1.455,1.478h-.154c-.011-.023-.271-.189-.567-.461a3.865,3.865,0,0,1-.876-1.017,2.11,2.11,0,0,1-.212-.592v-.011Zm106.278,37.73a.772.772,0,0,1,.684-.39,1,1,0,0,0,1.882,0,.771.771,0,0,1,.682.39,1.618,1.618,0,0,1-.1,1.543,5.171,5.171,0,0,1-1.446,1.476H207.2a6.215,6.215,0,0,1-.578-.455,4.014,4.014,0,0,1-.868-1.018,1.623,1.623,0,0,1-.1-1.546m-19.406,0a.772.772,0,0,1,.684-.39,1.064,1.064,0,0,1,.94.664,1.067,1.067,0,0,1,.942-.664.772.772,0,0,1,.682.39,1.618,1.618,0,0,1-.1,1.543,5.186,5.186,0,0,1-1.446,1.476h-.153a6.214,6.214,0,0,1-.578-.455,4.014,4.014,0,0,1-.868-1.018,1.623,1.623,0,0,1-.1-1.546m-19.406,0a.772.772,0,0,1,.684-.39,1.064,1.064,0,0,1,.94.664,1.066,1.066,0,0,1,.942-.664.772.772,0,0,1,.682.39,1.618,1.618,0,0,1-.1,1.543,5.186,5.186,0,0,1-1.446,1.476h-.153a6.217,6.217,0,0,1-.578-.455,4.013,4.013,0,0,1-.868-1.018,1.623,1.623,0,0,1-.1-1.546m-19.406,0a.772.772,0,0,1,.684-.39,1.064,1.064,0,0,1,.94.664,1.066,1.066,0,0,1,.942-.664.772.772,0,0,1,.682.39,1.618,1.618,0,0,1-.1,1.543,5.186,5.186,0,0,1-1.446,1.476h-.153a6.216,6.216,0,0,1-.578-.455,4.014,4.014,0,0,1-.868-1.018,1.623,1.623,0,0,1-.1-1.546m-19.406,0a.772.772,0,0,1,.684-.39,1.064,1.064,0,0,1,.94.664,1.066,1.066,0,0,1,.942-.664.769.769,0,0,1,.681.39,1.615,1.615,0,0,1-.1,1.543,5.186,5.186,0,0,1-1.446,1.476h-.153a6.217,6.217,0,0,1-.578-.455,3.991,3.991,0,0,1-.868-1.018,1.623,1.623,0,0,1-.1-1.546m-19.406,0a.772.772,0,0,1,.684-.39,1.064,1.064,0,0,1,.94.664,1.066,1.066,0,0,1,.942-.664.769.769,0,0,1,.681.39,1.615,1.615,0,0,1-.1,1.543,5.186,5.186,0,0,1-1.446,1.476h-.153a6.215,6.215,0,0,1-.578-.455,3.991,3.991,0,0,1-.868-1.018,1.623,1.623,0,0,1-.1-1.546m87.326-12.488a.772.772,0,0,1,.684-.39,1,1,0,0,0,1.882,0,.771.771,0,0,1,.682.39,1.618,1.618,0,0,1-.1,1.543,5.136,5.136,0,0,1-1.446,1.476h-.153a6.225,6.225,0,0,1-.578-.455,3.994,3.994,0,0,1-.868-1.019,1.623,1.623,0,0,1-.1-1.545m-19.406,0a.772.772,0,0,1,.684-.39,1.064,1.064,0,0,1,.94.664,1.067,1.067,0,0,1,.942-.664.771.771,0,0,1,.682.39,1.618,1.618,0,0,1-.1,1.543,5.152,5.152,0,0,1-1.446,1.476h-.153a6.222,6.222,0,0,1-.578-.455,3.972,3.972,0,0,1-.868-1.019,1.623,1.623,0,0,1-.1-1.545m-19.406,0a.772.772,0,0,1,.684-.39,1.064,1.064,0,0,1,.94.664,1.066,1.066,0,0,1,.942-.664.772.772,0,0,1,.682.39,1.618,1.618,0,0,1-.1,1.543,5.152,5.152,0,0,1-1.446,1.476h-.153a6.224,6.224,0,0,1-.578-.455,3.994,3.994,0,0,1-.868-1.019,1.623,1.623,0,0,1-.1-1.545m-19.406,0a.772.772,0,0,1,.684-.39,1.064,1.064,0,0,1,.94.664,1.066,1.066,0,0,1,.942-.664.772.772,0,0,1,.682.39,1.618,1.618,0,0,1-.1,1.543,5.152,5.152,0,0,1-1.446,1.476h-.153a6.222,6.222,0,0,1-.578-.455,3.972,3.972,0,0,1-.868-1.019,1.623,1.623,0,0,1-.1-1.545m-19.406,0a.772.772,0,0,1,.684-.39,1.064,1.064,0,0,1,.94.664,1.066,1.066,0,0,1,.942-.664.769.769,0,0,1,.681.39,1.615,1.615,0,0,1-.1,1.543,5.152,5.152,0,0,1-1.446,1.476h-.153a6.221,6.221,0,0,1-.578-.455,3.972,3.972,0,0,1-.868-1.019,1.623,1.623,0,0,1-.1-1.545m-18.727-.389a1.06,1.06,0,0,1,.947.663,1.06,1.06,0,0,1,.947-.663.774.774,0,0,1,.674.39,1.6,1.6,0,0,1-.095,1.538,5.048,5.048,0,0,1-1.455,1.478h-.154c-.509-.934-1.029-1.952-1.525-3.027a.752.752,0,0,1,.662-.379m106.054,37.76a.772.772,0,0,1,.684-.39,1,1,0,0,0,1.882,0,.771.771,0,0,1,.682.39,1.618,1.618,0,0,1-.1,1.543,5.137,5.137,0,0,1-1.446,1.476H207.2a6.215,6.215,0,0,1-.578-.455,3.994,3.994,0,0,1-.868-1.018,1.623,1.623,0,0,1-.1-1.546m-19.406,0a.772.772,0,0,1,.684-.39,1.064,1.064,0,0,1,.94.664,1.067,1.067,0,0,1,.942-.664.772.772,0,0,1,.682.39,1.618,1.618,0,0,1-.1,1.543,5.152,5.152,0,0,1-1.446,1.476h-.153a6.214,6.214,0,0,1-.578-.455,3.994,3.994,0,0,1-.868-1.018,1.623,1.623,0,0,1-.1-1.546m-19.406,0a.772.772,0,0,1,.684-.39,1.064,1.064,0,0,1,.94.664,1.066,1.066,0,0,1,.942-.664.772.772,0,0,1,.682.39,1.618,1.618,0,0,1-.1,1.543,5.152,5.152,0,0,1-1.446,1.476h-.153a6.217,6.217,0,0,1-.578-.455,3.994,3.994,0,0,1-.868-1.018,1.623,1.623,0,0,1-.1-1.546m-19.406,0a.772.772,0,0,1,.684-.39,1.064,1.064,0,0,1,.94.664A1.066,1.066,0,0,1,150,288.6a.772.772,0,0,1,.682.39,1.618,1.618,0,0,1-.1,1.543,5.152,5.152,0,0,1-1.446,1.476h-.153a6.216,6.216,0,0,1-.578-.455,3.994,3.994,0,0,1-.868-1.018,1.623,1.623,0,0,1-.1-1.546m-19.406,0a.772.772,0,0,1,.684-.39,1.064,1.064,0,0,1,.94.664,1.066,1.066,0,0,1,.942-.664.769.769,0,0,1,.681.39,1.615,1.615,0,0,1-.1,1.543,5.152,5.152,0,0,1-1.446,1.476h-.153a6.217,6.217,0,0,1-.578-.455,3.971,3.971,0,0,1-.868-1.018,1.623,1.623,0,0,1-.1-1.546m-19.406,0a.772.772,0,0,1,.684-.39,1.064,1.064,0,0,1,.94.664,1.066,1.066,0,0,1,.942-.664.769.769,0,0,1,.681.39,1.615,1.615,0,0,1-.1,1.543,5.152,5.152,0,0,1-1.446,1.476h-.153a6.215,6.215,0,0,1-.578-.455,3.972,3.972,0,0,1-.868-1.018,1.623,1.623,0,0,1-.1-1.546M215.351,276.5a.77.77,0,0,1,.684-.39,1,1,0,0,0,1.882,0,.769.769,0,0,1,.682.39,1.618,1.618,0,0,1-.1,1.543,5.186,5.186,0,0,1-1.446,1.476H216.9a6.344,6.344,0,0,1-.578-.456,3.974,3.974,0,0,1-.868-1.019,1.62,1.62,0,0,1-.1-1.544m-19.406,0a.77.77,0,0,1,.684-.39,1,1,0,0,0,1.882,0,.769.769,0,0,1,.682.39,1.618,1.618,0,0,1-.1,1.543,5.17,5.17,0,0,1-1.446,1.476h-.153a6.346,6.346,0,0,1-.578-.456,3.974,3.974,0,0,1-.868-1.019,1.62,1.62,0,0,1-.1-1.544m-19.406,0a.77.77,0,0,1,.684-.39,1.064,1.064,0,0,1,.94.664,1.067,1.067,0,0,1,.942-.664.769.769,0,0,1,.682.39,1.618,1.618,0,0,1-.1,1.543,5.186,5.186,0,0,1-1.446,1.476h-.153a6.343,6.343,0,0,1-.578-.456,3.952,3.952,0,0,1-.868-1.019,1.62,1.62,0,0,1-.1-1.544m-19.406,0a.77.77,0,0,1,.684-.39,1.064,1.064,0,0,1,.94.664,1.066,1.066,0,0,1,.942-.664.77.77,0,0,1,.682.39,1.618,1.618,0,0,1-.1,1.543,5.186,5.186,0,0,1-1.446,1.476h-.153a6.345,6.345,0,0,1-.578-.456,3.974,3.974,0,0,1-.868-1.019,1.62,1.62,0,0,1-.1-1.544m-19.406,0a.77.77,0,0,1,.684-.39,1.064,1.064,0,0,1,.94.664,1.066,1.066,0,0,1,.942-.664.77.77,0,0,1,.682.39,1.618,1.618,0,0,1-.1,1.543,5.186,5.186,0,0,1-1.446,1.476h-.153a6.343,6.343,0,0,1-.578-.456,3.952,3.952,0,0,1-.868-1.019,1.62,1.62,0,0,1-.1-1.544m-19.406,0a.77.77,0,0,1,.684-.39,1.064,1.064,0,0,1,.94.664,1.066,1.066,0,0,1,.942-.664.767.767,0,0,1,.681.39,1.615,1.615,0,0,1-.1,1.543,5.186,5.186,0,0,1-1.446,1.476h-.153a6.342,6.342,0,0,1-.578-.456,3.952,3.952,0,0,1-.868-1.019,1.62,1.62,0,0,1-.1-1.544m-16.1.147a1.663,1.663,0,0,1-.154,1.4,1,1,0,0,1-.119.189Zm122.832,37.226a.78.78,0,0,1,.687-.39,1.044,1.044,0,0,1,.934.662,1.4,1.4,0,0,1,.249-.355c.178,1.017.308,1.9.425,2.638a5.14,5.14,0,0,1-.591.461H226.6a6.812,6.812,0,0,1-.579-.449,3.825,3.825,0,0,1-.863-1.029,1.609,1.609,0,0,1-.107-1.537m-19.4,0a.771.771,0,0,1,.684-.391,1,1,0,0,0,1.882,0,.77.77,0,0,1,.682.391,1.616,1.616,0,0,1-.1,1.542,5.137,5.137,0,0,1-1.446,1.476H207.2a6,6,0,0,1-.578-.455,3.99,3.99,0,0,1-.868-1.017,1.623,1.623,0,0,1-.1-1.546m-19.406,0a.771.771,0,0,1,.684-.391,1.063,1.063,0,0,1,.94.665,1.067,1.067,0,0,1,.942-.665.771.771,0,0,1,.682.391,1.616,1.616,0,0,1-.1,1.542,5.151,5.151,0,0,1-1.446,1.476h-.153a6,6,0,0,1-.578-.455,3.99,3.99,0,0,1-.868-1.017,1.623,1.623,0,0,1-.1-1.546m-19.406,0a.771.771,0,0,1,.684-.391,1.063,1.063,0,0,1,.94.665,1.065,1.065,0,0,1,.942-.665.771.771,0,0,1,.682.391,1.616,1.616,0,0,1-.1,1.542,5.151,5.151,0,0,1-1.446,1.476h-.153a6,6,0,0,1-.578-.455,3.989,3.989,0,0,1-.868-1.017,1.623,1.623,0,0,1-.1-1.546m-19.406,0a.771.771,0,0,1,.684-.391,1.063,1.063,0,0,1,.94.665,1.065,1.065,0,0,1,.942-.665.771.771,0,0,1,.682.391,1.616,1.616,0,0,1-.1,1.542,5.151,5.151,0,0,1-1.446,1.476h-.153a6,6,0,0,1-.578-.455,3.99,3.99,0,0,1-.868-1.017,1.623,1.623,0,0,1-.1-1.546m-19.406,0a.771.771,0,0,1,.684-.391,1.063,1.063,0,0,1,.94.665,1.065,1.065,0,0,1,.942-.665.768.768,0,0,1,.681.391,1.613,1.613,0,0,1-.1,1.542,5.151,5.151,0,0,1-1.446,1.476h-.153a6,6,0,0,1-.578-.455,3.967,3.967,0,0,1-.868-1.017,1.623,1.623,0,0,1-.1-1.546m-19.406,0a.771.771,0,0,1,.684-.391,1.063,1.063,0,0,1,.94.665,1.065,1.065,0,0,1,.942-.665.768.768,0,0,1,.681.391,1.613,1.613,0,0,1-.1,1.542,5.151,5.151,0,0,1-1.446,1.476h-.153a6,6,0,0,1-.578-.455,3.967,3.967,0,0,1-.868-1.017,1.623,1.623,0,0,1-.1-1.546m106.732-12.488a.772.772,0,0,1,.684-.39,1,1,0,0,0,1.882,0,.771.771,0,0,1,.682.39,1.618,1.618,0,0,1-.1,1.543,5.185,5.185,0,0,1-1.446,1.476H216.9a6.21,6.21,0,0,1-.578-.455,3.994,3.994,0,0,1-.868-1.019,1.623,1.623,0,0,1-.1-1.545m-19.406,0a.772.772,0,0,1,.684-.39,1,1,0,0,0,1.882,0,.771.771,0,0,1,.682.39,1.618,1.618,0,0,1-.1,1.543,5.17,5.17,0,0,1-1.446,1.476h-.153a6.213,6.213,0,0,1-.578-.455,3.994,3.994,0,0,1-.868-1.019,1.623,1.623,0,0,1-.1-1.545m-19.406,0a.772.772,0,0,1,.684-.39,1.064,1.064,0,0,1,.94.664,1.067,1.067,0,0,1,.942-.664.771.771,0,0,1,.682.39,1.618,1.618,0,0,1-.1,1.543,5.186,5.186,0,0,1-1.446,1.476h-.153a6.21,6.21,0,0,1-.578-.455,3.971,3.971,0,0,1-.868-1.019,1.623,1.623,0,0,1-.1-1.545m-19.406,0a.772.772,0,0,1,.684-.39,1.064,1.064,0,0,1,.94.664A1.066,1.066,0,0,1,159.7,301a.772.772,0,0,1,.682.39,1.618,1.618,0,0,1-.1,1.543,5.185,5.185,0,0,1-1.446,1.476h-.153a6.212,6.212,0,0,1-.578-.455,3.994,3.994,0,0,1-.868-1.019,1.623,1.623,0,0,1-.1-1.545m-19.406,0a.772.772,0,0,1,.684-.39,1.064,1.064,0,0,1,.94.664,1.066,1.066,0,0,1,.942-.664.772.772,0,0,1,.682.39,1.618,1.618,0,0,1-.1,1.543,5.186,5.186,0,0,1-1.446,1.476h-.153a6.21,6.21,0,0,1-.578-.455,3.971,3.971,0,0,1-.868-1.019,1.623,1.623,0,0,1-.1-1.545m-19.406,0a.772.772,0,0,1,.684-.39,1.064,1.064,0,0,1,.94.664,1.066,1.066,0,0,1,.942-.664.769.769,0,0,1,.681.39,1.615,1.615,0,0,1-.1,1.543,5.186,5.186,0,0,1-1.446,1.476h-.153a6.209,6.209,0,0,1-.578-.455,3.972,3.972,0,0,1-.868-1.019,1.623,1.623,0,0,1-.1-1.545m-19.406,0A.772.772,0,0,1,99.6,301a1.064,1.064,0,0,1,.94.664,1.066,1.066,0,0,1,.942-.664.769.769,0,0,1,.681.39,1.618,1.618,0,0,1-.1,1.543,5.186,5.186,0,0,1-1.446,1.476h-.153a6.212,6.212,0,0,1-.578-.455,3.971,3.971,0,0,1-.868-1.019,1.623,1.623,0,0,1-.1-1.545" transform="translate(113.235 24.824)" fill="#fff"/>
            <path id="Trazado_210225" data-name="Trazado 210225" d="M193.754,233.029c1.228-5.111,4.063-9.775,6.56-14.344,2.636-4.822,5.4-9.567,8.243-14.272.1-.168.2-.334.3-.5.473-1.507,1.151-2.976,1.722-4.429.736-1.868,1.523-3.715,2.247-5.587.025-.065.128-.038.106.032-.593,1.949-1.183,3.9-1.895,5.807-.182.49-.364.991-.551,1.494.959-1.569,1.925-3.134,2.916-4.683,1.687-2.636,3.465-5.211,5.155-7.846a.06.06,0,0,1,.1.064c-2.708,4.623-5.308,9.311-8.009,13.939s-5.344,9.287-7.868,14.009q-1.879,3.514-3.64,7.086a60.247,60.247,0,0,0-3.043,6.91,22.309,22.309,0,0,0-.1,14.192c1.63,5.223,4.536,9.968,7.3,14.65.113.189-.179.415-.317.233-5.8-7.627-11.646-16.737-9.24-26.752" transform="translate(14.2 26.524)" fill="#263238"/>
            <path id="Trazado_210226" data-name="Trazado 210226" d="M160.307,307.844c8.54,11.789,31.283,13.684,88.1,23.829,7.862,1.4,32.7-51.414,24.377-53.344-10.477-2.432-51.666-9.6-54.743-9.743-25.963-1.212-63.524,31.26-57.731,39.258" transform="translate(-3.394 37.754)" fill="#c95f50"/>
            <path id="Trazado_210227" data-name="Trazado 210227" d="M136.4,275.025s24.051,3.224,36.164,8.829c16.218,7.506,27.13,20.664,31.371,26.454,8.851,12.087,21.895,47.429,12.371,52.961-8.621,5.008-20.129-31.79-20.129-31.79s17.924,35.583,6.435,39.706S180.2,331.827,180.2,331.827s17.6,36.974,5.077,39.35c-9.462,1.8-21.579-37.024-21.579-37.024s14.905,31.884,5.255,34.15c-10.664,2.5-24.1-32.629-24.1-32.629-25.5,1.631-38.31-8.024-46.6-15.977-2.009-1.925,38.154-44.672,38.154-44.672" transform="translate(121.616 38.664)" fill="#c95f50"/>
            <path id="Trazado_210228" data-name="Trazado 210228" d="M109.934,313.388c2.258,4.1,4.57,8.242,6.455,12.533s3.619,8.649,5.1,13.1c3.62,10.906,4.184,18.3,4.1,17.848-2-10.714-8.505-26.176-10.391-30.467s-3.545-8.658-5.422-12.942c-.048-.108.111-.164.164-.066" transform="translate(202.449 44.05)" fill="#263238"/>
            <path id="Trazado_210229" data-name="Trazado 210229" d="M124.878,319.105c2.655,5.364,5.487,10.593,7.907,16.077,2.407,5.457,4.212,10.845,6.237,16.453.156.432-.127.374-.3-.054-2.247-5.523-4.751-10.456-7.062-15.951-2.3-5.476-4.412-11.084-6.912-16.471-.04-.084.091-.135.132-.054" transform="translate(171.891 44.855)" fill="#263238"/>
            <path id="Trazado_210230" data-name="Trazado 210230" d="M141.124,321.9c4.477,7.991,7.474,16.8,10.208,25.507.136.435-.221.318-.387-.116-3.234-8.543-5.71-15.268-10.1-25.235-.068-.155.184-.324.278-.155" transform="translate(141.237 45.244)" fill="#263238"/>
            <path id="Trazado_210231" data-name="Trazado 210231" d="M209.213,274.991c3.78-2.392,14.473-8.01,24.994-6.453a.092.092,0,0,1,0,.185c-8.668-.041-21.052,4.4-24.9,6.423a.088.088,0,0,1-.084-.154" transform="translate(-19.639 37.714)" fill="#263238"/>
            <path id="Trazado_210232" data-name="Trazado 210232" d="M190.107,177.108c-.575,2.185-11.464,16.173-21.5,15.425-3.269-.25-2.705-18.155-2.705-18.155l-.261-1.331L162,154.409l22.143-13.364,3.195-1.761s.658,5.165,1.412,11.6c.038.3.074.6.108.917.052.363.106.7.139,1.046.125.96.249,1.942.351,2.922.081.745.164,1.47.221,2.256.076.787.136,1.552.212,2.339.594,7.775.552,15.811.322,16.739" transform="translate(78.189 19.581)" fill="#c95f50"/>
            <path id="Trazado_210233" data-name="Trazado 210233" d="M190.078,150.888a38.089,38.089,0,0,1-23.117,22.159l-3.634-18.638,22.143-13.364,3.2-1.761s.658,5.166,1.412,11.6" transform="translate(76.865 19.581)" fill="#263238"/>
            <path id="Trazado_210234" data-name="Trazado 210234" d="M158.57,129.176c-5.373,32.89,13.72,39.822,20.813,40.973,6.44,1.045,28.5,3.783,37.241-28.375s-4.851-45.055-19.453-48.223-33.229,2.734-38.6,35.625" transform="translate(54.063 13.046)" fill="#c95f50"/>
            <path id="Trazado_210235" data-name="Trazado 210235" d="M201.068,119.271a21.642,21.642,0,0,0,2.29-.222,3.729,3.729,0,0,0,2.294-.673,1.187,1.187,0,0,0,.159-1.439,2.943,2.943,0,0,0-2.8-1,4.32,4.32,0,0,0-2.863,1.218,1.265,1.265,0,0,0,.925,2.12" transform="translate(19.376 16.296)" fill="#263238"/>
            <path id="Trazado_210236" data-name="Trazado 210236" d="M188.488,121.559a21.487,21.487,0,0,1-2.185-.722,3.715,3.715,0,0,1-2.09-1.16,1.188,1.188,0,0,1,.162-1.438,2.94,2.94,0,0,1,2.956-.363,4.323,4.323,0,0,1,2.525,1.818,1.265,1.265,0,0,1-1.369,1.865" transform="translate(53.264 16.54)" fill="#263238"/>
            <path id="Trazado_210237" data-name="Trazado 210237" d="M189.063,127.975c.029-.083.162.13.146.222-.375,2.239-.428,4.866,1.506,5.888.06.032.039.144-.035.123-2.435-.685-2.33-4.172-1.616-6.233" transform="translate(47.347 17.989)" fill="#263238"/>
            <path id="Trazado_210238" data-name="Trazado 210238" d="M188.547,126.152c3.654.213,2.958,7.506-.428,7.308-3.332-.2-2.635-7.487.428-7.308" transform="translate(50.187 17.734)" fill="#263238"/>
            <path id="Trazado_210239" data-name="Trazado 210239" d="M183.529,126.617c.6.473,1.152,1.261,1.912,1.41.881.173,1.624-.526,2.275-1.2.067-.071.124,0,.116.1-.113,1.4-.787,2.781-2.3,2.846-1.385.06-2.248-1.271-2.463-2.709-.04-.266.222-.628.463-.438" transform="translate(56.6 17.793)" fill="#263238"/>
            <path id="Trazado_210240" data-name="Trazado 210240" d="M204.4,126.036c-.009-.088-.185.091-.192.185-.125,2.266-.652,4.841-2.762,5.412-.065.018-.068.132.007.128,2.528-.132,3.191-3.557,2.947-5.725" transform="translate(19.079 17.715)" fill="#263238"/>
            <path id="Trazado_210241" data-name="Trazado 210241" d="M204.674,123.812c-3.611-.6-4.536,6.672-1.19,7.223,3.292.542,4.217-6.725,1.19-7.223" transform="translate(16.992 17.401)" fill="#263238"/>
            <path id="Trazado_210242" data-name="Trazado 210242" d="M207.976,124.166c-.623.313-1.28.94-1.972.9-.8-.049-1.289-.909-1.7-1.728-.043-.084-.108-.031-.123.065-.214,1.384.06,2.889,1.361,3.325,1.186.4,2.232-.68,2.739-2.021.095-.249-.052-.664-.3-.538" transform="translate(12.113 17.333)" fill="#263238"/>
            <path id="Trazado_210243" data-name="Trazado 210243" d="M194.984,143.653c-.569.5-1.147,1.207-1.973,1.235a6.016,6.016,0,0,1-2.408-.691.079.079,0,0,0-.1.111,3.057,3.057,0,0,0,2.815,1.374,2.416,2.416,0,0,0,1.883-1.915c.041-.13-.13-.187-.213-.114" transform="translate(40.761 20.191)" fill="#263238"/>
            <path id="Trazado_210244" data-name="Trazado 210244" d="M196.177,137.9s-.831,3.335-1,4.933a8.643,8.643,0,0,0,8.642-1.682c.143-.129-.058-.331-.214-.246a11.5,11.5,0,0,1-7.146,1.24c-.065-.454,1.616-5.664,1.364-5.711a14.052,14.052,0,0,0-3.715.431c1.532-7,4.172-13.693,5.593-20.683a.219.219,0,0,0-.406-.148c-3.264,6.822-5.2,14.836-6.971,22.022-.229.893,3.188.048,3.856-.155" transform="translate(30.023 16.296)" fill="#263238"/>
            <path id="Trazado_210245" data-name="Trazado 210245" d="M191.825,139.807a8.3,8.3,0,0,0,3.081,2.859,3.738,3.738,0,0,0,2.246.342c1.672-.284,1.845-1.78,1.661-3.09a8.942,8.942,0,0,0-.558-2.029,10.741,10.741,0,0,1-6.429,1.917" transform="translate(35.567 19.385)" fill="#263238"/>
            <path id="Trazado_210246" data-name="Trazado 210246" d="M191.825,142.417a3.732,3.732,0,0,0,2.246.342c1.672-.284,1.847-1.779,1.661-3.089-1.767.024-3.607,1.057-3.907,2.747" transform="translate(38.648 19.635)" fill="#ff9abb"/>
            <path id="Trazado_210247" data-name="Trazado 210247" d="M208.234,140.578c-6.3.553-7.358-13.863-7.358-13.863s-26.529-5.541-27.967-27.367c0,0-5.1,13.684-19.325,19.424,0,0,1.839-23.8,20.91-27.71,0,0,23.774-7.644,36.249,11.463s1.717,37.681-2.509,38.053" transform="translate(61.475 12.589)" fill="#263238"/>
            <path id="Trazado_210248" data-name="Trazado 210248" d="M172.184,96.728A23.659,23.659,0,0,0,173,106.7a24.643,24.643,0,0,0,4.706,8.971,21,21,0,0,0,1.734,1.872l.892.912c.322.277.656.54.99.8.674.516,1.328,1.061,2.018,1.549.721.444,1.452.87,2.185,1.288.367.206.725.43,1.1.622l1.16.5,2.312.99c1.6.51,3.215.938,4.822,1.338-1.508-.728-3.06-1.29-4.533-2.02l-2.169-1.16-1.081-.576c-.346-.216-.674-.462-1.011-.69-.667-.468-1.337-.927-2.017-1.37-.64-.5-1.238-1.045-1.858-1.561l-.925-.781-.833-.878a20.334,20.334,0,0,1-1.616-1.792,28.266,28.266,0,0,1-4.776-8.374,29.437,29.437,0,0,1-1.319-4.7,28.559,28.559,0,0,1-.6-4.9" transform="translate(62.169 13.598)" fill="#263238"/>
            <path id="Trazado_210249" data-name="Trazado 210249" d="M155.188,137.142s8.035-9.825,12.548-6.883-2.078,17.566-7.759,19.205a5.635,5.635,0,0,1-7.3-3.588Z" transform="translate(109.861 18.235)" fill="#c95f50"/>
            <path id="Trazado_210250" data-name="Trazado 210250" d="M165.715,133.825a.076.076,0,0,1,.018.149c-3.993,1.277-6.3,4.716-8.014,8.333,1.26-1.347,2.888-2.013,4.706-.5.095.08-.014.23-.121.2a3.467,3.467,0,0,0-3.9.919,16.624,16.624,0,0,0-2.054,2.94c-.208.332-.819.1-.657-.29.011-.029.026-.058.038-.087.276-4.948,4.638-11.57,9.979-11.667" transform="translate(109.888 18.814)" fill="#263238"/>
            <path id="Trazado_210251" data-name="Trazado 210251" d="M161.156,145.687a1.352,1.352,0,1,0,1.353-1.353,1.353,1.353,0,0,0-1.353,1.353" transform="translate(105.559 20.291)" fill="#fff"/>
            <path id="Trazado_210252" data-name="Trazado 210252" d="M158.9,143.7a.975.975,0,1,0,.975-.975.975.975,0,0,0-.975.975" transform="translate(111.142 20.065)" fill="#fff"/>
            <path id="Trazado_210253" data-name="Trazado 210253" d="M152.329,133.71l2.055-.177a.687.687,0,0,0,.626-.744l0-.051a.687.687,0,0,0-.744-.625l-2.055.176a.689.689,0,0,0-.626.745l0,.05a.686.686,0,0,0,.744.626" transform="translate(125.33 18.573)" fill="#ffc727"/>
            <path id="Trazado_210254" data-name="Trazado 210254" d="M152.12,135.506l2.046.262a.685.685,0,0,0,.769-.593l.007-.051a.689.689,0,0,0-.594-.77l-2.046-.262a.687.687,0,0,0-.769.594l-.007.05a.688.688,0,0,0,.594.77" transform="translate(125.463 18.85)" fill="#ffc727"/>
            <path id="Trazado_210255" data-name="Trazado 210255" d="M163.462,116.43l1.891,3.019L155.67,128.2l-4.11-6.812Zm-7.407,8.412,6.769-5.438-.423-.713-7.837,3.773Z" transform="translate(115.012 16.368)" fill="#ffc727"/>
            <path id="Trazado_210256" data-name="Trazado 210256" d="M166.466,111.542l.615,3.51-12.268,4.459-1.24-7.859Zm-10.03,5,8.319-2.488-.123-.82-8.681.543Z" transform="translate(110.988 15.681)" fill="#ffc727"/>
            <path id="Trazado_210257" data-name="Trazado 210257" d="M147.749,97.316c-2.541-.948-4.952-15.137,4.376-21.9,9.189-6.658,21.279.963,16.266,12.591-3.167,7.348-15.268,11.31-20.642,9.306" transform="translate(117.761 10.254)" fill="#263238"/>
            <path id="Trazado_210258" data-name="Trazado 210258" d="M160.279,74.379a15.876,15.876,0,0,1,5.38,9,9.576,9.576,0,0,1-2.83,9.143,19.344,19.344,0,0,1-9.27,4.534,29.531,29.531,0,0,1-5.324.654,14.656,14.656,0,0,1-5.373-.592A12.892,12.892,0,0,0,148.2,98.7a23.96,23.96,0,0,0,5.636-.089,18.662,18.662,0,0,0,10.393-4.627,10.661,10.661,0,0,0,2.964-10.967,14.014,14.014,0,0,0-6.911-8.635" transform="translate(122.647 10.456)" fill="#263238"/>
            <path id="Trazado_210259" data-name="Trazado 210259" d="M245.162,214.18l-15.875-2.142,6.2-45.972,20.089,2.711Z" transform="translate(-63.869 23.346)" fill="#ffc727"/>
            <path id="Trazado_210260" data-name="Trazado 210260" d="M255.585,168.777,251.617,186.1l-6.451,28.088-15.876-2.142,6.2-45.978Z" transform="translate(-63.878 23.346)" fill="#ffc727"/>
            <g id="Grupo_138175" data-name="Grupo 138175" transform="translate(169.25 189.412)">
              <g id="Grupo_138174" data-name="Grupo 138174" transform="translate(0)">
                <g id="Grupo_138173" data-name="Grupo 138173" clip-path="url(#clip-path-5)">
                  <path id="Trazado_210261" data-name="Trazado 210261" d="M251.747,168.777,247.779,186.1l-18.489-2.5,2.367-17.536Z" transform="translate(-229.29 -166.066)" fill="#85b638"/>
                </g>
              </g>
            </g>
            <rect id="Rectángulo_88491" data-name="Rectángulo 88491" width="25.221" height="19.159" transform="translate(192.664 199.162) rotate(-172.315)" fill="#a7e446"/>
            <path id="Trazado_210262" data-name="Trazado 210262" d="M227.213,157.737l-19.677-.68,4.146-30.725,19.154,4.56Z" transform="translate(-14.316 17.76)" fill="#a7e446"/>
            <path id="Trazado_210263" data-name="Trazado 210263" d="M351.094,125.536l-6.119,45.342-33.1-.494-79.507,17.644L247.058,79.138l71.985,38.1Z" transform="translate(-162.894 11.125)" fill="#a7e446"/>
            <path id="Trazado_210264" data-name="Trazado 210264" d="M351.5,135.79c-4.078,30.219-15.258,53.653-24.971,52.342s-14.281-26.871-10.2-57.09S331.587,77.39,341.3,78.7s14.281,26.87,10.2,57.088" transform="translate(-258.864 11.057)" fill="#64892a"/>
            <g id="Grupo_138178" data-name="Grupo 138178" transform="translate(58.445 94.796)">
              <g id="Grupo_138177" data-name="Grupo 138177" transform="translate(0)">
                <g id="Grupo_138176" data-name="Grupo 138176" clip-path="url(#clip-path-6)">
                  <path id="Trazado_210265" data-name="Trazado 210265" d="M348.6,133.668c-3.62,26.827-13,47.7-20.955,46.63s-11.464-23.69-7.844-50.516,13-47.7,20.954-46.63,11.465,23.69,7.845,50.516" transform="translate(-318.378 -83.112)" fill="#85b638"/>
                </g>
              </g>
            </g>
            <path id="Trazado_210266" data-name="Trazado 210266" d="M339.093,129.025c-.482,3.572-1.069,7.036-1.744,10.355a10.96,10.96,0,0,1-16.573-10.829l.692-5.136a10.953,10.953,0,0,1,18.776-6.118c-.222,3.775-.609,7.708-1.152,11.727" transform="translate(-252.771 16.014)" fill="#64892a"/>
            <path id="Trazado_210267" data-name="Trazado 210267" d="M254.529,171.337l-38.052-1.315,8.017-59.418,37.04,8.819Z" transform="translate(-55.212 15.549)" fill="#ffc727"/>
            <g id="Grupo_138181" data-name="Grupo 138181" transform="translate(161.264 126.153)" opacity="0.996">
              <g id="Grupo_138180" data-name="Grupo 138180" transform="translate(0)">
                <g id="Grupo_138179" data-name="Grupo 138179" clip-path="url(#clip-path-7)">
                  <path id="Trazado_210268" data-name="Trazado 210268" d="M254.529,171.337l-38.052-1.315,8.017-59.418,37.04,8.819Z" transform="translate(-216.476 -110.604)" fill="#85b638"/>
                </g>
              </g>
            </g>
            <g id="Grupo_138184" data-name="Grupo 138184" transform="translate(74.42 98.411)" opacity="0.2">
              <g id="Grupo_138183" data-name="Grupo 138183" transform="translate(0)">
                <g id="Grupo_138182" data-name="Grupo 138182" clip-path="url(#clip-path-8)">
                  <path id="Trazado_210269" data-name="Trazado 210269" d="M328.657,86.281c2.29,3.466,3.4,7.559,4.3,11.58a78.271,78.271,0,0,1,1.474,12.334c.143,2.07.094,4.143.121,6.215-.088,2.068-.115,4.141-.253,6.207-.172,2.063-.269,4.133-.5,6.19s-.437,4.118-.721,6.167a136.031,136.031,0,0,1-5.466,24.208,70.89,70.89,0,0,1-4.935,11.4c-2.075,3.561-4.463,7.1-7.853,9.516a30.369,30.369,0,0,0,7.341-9.792,70.6,70.6,0,0,0,4.581-11.414,144.285,144.285,0,0,0,5.16-24.086,147.869,147.869,0,0,0,1.621-24.583,78.425,78.425,0,0,0-1.134-12.258,35.706,35.706,0,0,0-3.733-11.69" transform="translate(-314.822 -86.281)"/>
                </g>
              </g>
            </g>
            <path id="Trazado_210270" data-name="Trazado 210270" d="M332.339,79.445c2.321,1.687,4.549,3.48,6.763,5.289s4.379,3.673,6.533,5.548c2.135,1.9,4.269,3.8,6.336,5.772l3.1,2.967c1,1.024,2.033,2.015,3.008,3.069-1.17-.834-2.283-1.73-3.427-2.593l-3.336-2.7c-2.223-1.8-4.379-3.673-6.533-5.549-2.134-1.9-4.267-3.8-6.334-5.775s-4.138-3.946-6.107-6.034" transform="translate(-283.905 11.169)" fill="#263238"/>
            <path id="Trazado_210271" data-name="Trazado 210271" d="M375.774,152.133c-3.093.94-6.216,1.741-9.344,2.521s-6.271,1.488-9.417,2.182c-3.153.665-6.305,1.327-9.479,1.89l-4.762.841c-1.6.234-3.186.511-4.792.707,1.544-.482,3.106-.884,4.657-1.328l4.687-1.2c3.125-.793,6.271-1.487,9.417-2.181,3.153-.662,6.306-1.324,9.481-1.887s6.347-1.133,9.552-1.55" transform="translate(-308.038 21.387)" fill="#263238"/>
            <path id="Trazado_210272" data-name="Trazado 210272" d="M340.639,144.828c4.711-.563,9.429-.984,14.149-1.384,4.72-.415,9.446-.728,14.172-1.04,4.728-.282,9.455-.561,14.19-.74l7.1-.263c2.37-.041,4.737-.127,7.11-.128-2.354.3-4.714.506-7.07.762l-7.08.624c-4.719.414-9.445.728-14.171,1.038-4.728.281-9.455.56-14.19.738s-9.468.364-14.212.393" transform="translate(-332.657 19.861)" fill="#263238"/>
            <path id="Trazado_210273" data-name="Trazado 210273" d="M335.939,81.207c4.149,2.434,8.22,4.985,12.28,7.556s8.078,5.2,12.089,7.843c3.993,2.669,7.985,5.34,11.921,8.095l5.9,4.135c1.941,1.418,3.908,2.8,5.827,4.25-2.082-1.207-4.118-2.482-6.179-3.721l-6.1-3.833c-4.066-2.559-8.078-5.2-12.087-7.846-3.993-2.67-7.985-5.34-11.921-8.095s-7.877-5.5-11.731-8.383" transform="translate(-313.894 11.416)" fill="#263238"/>
            <path id="Trazado_210274" data-name="Trazado 210274" d="M405.486,126.386c-5.527-.534-11.034-1.209-16.537-1.906s-10.992-1.5-16.488-2.246c-5.48-.85-10.97-1.642-16.444-2.544l-8.208-1.378c-2.728-.505-5.463-.967-8.187-1.512,2.766.254,5.519.591,8.278.884l8.259,1.02c5.5.7,10.992,1.5,16.488,2.249,5.48.852,10.971,1.641,16.444,2.546s10.945,1.824,16.395,2.887" transform="translate(-339.622 16.42)" fill="#263238"/>
            <path id="Trazado_210275" data-name="Trazado 210275" d="M200.407,194.579c17.274,28.272,46.5,89.31,35.379,111.494C225.08,327.439,117,268.845,103.321,258.2c-5.963-4.636,21.922-59.491,28.727-55.143,9.1,5.814,53.229,41.786,54.191,41.971,2.063.395-4.076-19.927-8.228-45.117-6.042-36.657,9.98-25.659,22.4-5.336" transform="translate(98.089 24.718)" fill="#c95f50"/>
            <path id="Trazado_210276" data-name="Trazado 210276" d="M204.172,180.581c-4.053,4.769-.6,10.254-.6,10.254a13.353,13.353,0,0,0-7.188,5.543c-2.731,4.771,3.555,11.146,3.555,11.146a16.458,16.458,0,0,0-6.65,7.055c-2.155,4.83,3.27,12.165,3.27,12.165a14.436,14.436,0,0,0-1.94,9.887c1.866,9.078,15.1,14.1,23.537,17.23,12.532,4.652,35.253,4.486,40.345,5.246l21.134-53.751s-33.57-25.161-43.987-27.545c-8.776-2.009-26.926-2.581-31.474,2.772" transform="translate(-46.286 24.795)" fill="#c95f50"/>
            <path id="Trazado_210277" data-name="Trazado 210277" d="M233.838,188.422c9.843-.1,19.18,2.709,28.659,4.987a.169.169,0,0,1-.082.327c-9.4-2.375-19.153-2.853-28.63-4.849a.237.237,0,0,1,.052-.465" transform="translate(-75.843 26.489)" fill="#263238"/>
            <path id="Trazado_210278" data-name="Trazado 210278" d="M238.98,203.126a25.639,25.639,0,0,1,6.554,1.444q3.422,1.006,6.808,2.126,6.782,2.238,13.447,4.812c.2.076.128.4-.083.327-4.509-1.479-9.039-2.89-13.606-4.178q-3.427-.967-6.871-1.879a30.534,30.534,0,0,1-6.406-2.02.34.34,0,0,1,.156-.633" transform="translate(-84.881 28.556)" fill="#263238"/>
            <path id="Trazado_210279" data-name="Trazado 210279" d="M244.113,220.585c1.937-.04,4.027.979,5.829,1.615q3.069,1.083,6.15,2.134c4.106,1.4,8.213,2.8,12.367,4.05.206.063.127.39-.083.327-4.226-1.254-8.469-2.45-12.683-3.741q-3.105-.95-6.2-1.936c-1.754-.559-4.009-1.057-5.46-2.247a.119.119,0,0,1,.079-.2" transform="translate(-93.649 31.01)" fill="#263238"/>
            <path id="Trazado_210280" data-name="Trazado 210280" d="M123.6,274.615c6.993,3.416,14.052,6.688,21.267,9.615q10.737,4.354,21.807,7.879c4.128,1.309,8.293,2.567,12.481,3.67.116.031.062.2-.054.178a176.645,176.645,0,0,1-22.568-5.893q-5.519-1.877-10.91-4.117c-3.545-1.475-7.109-2.989-10.524-4.747-3.925-2.02-7.851-4.09-11.621-6.387-.129-.079-.01-.261.121-.2" transform="translate(133.23 38.604)" fill="#263238"/>
            <path id="Trazado_210281" data-name="Trazado 210281" d="M207.1,246.069c8.363,2.29,21.694,1.65,21.8,1.744,2.524,2.23,12.914,8.956,15.553,10.445.106.059.01.205-.1.157-5.722-2.6-12.868-6.5-15.884-9.378-11.83.4-17.734-1.633-21.416-2.711-.246-.072-.2-.325.041-.258" transform="translate(-27.243 34.592)" fill="#263238"/>
            <path id="Trazado_210282" data-name="Trazado 210282" d="M164.513,240.813,111.4,242.64s-7.613-38.549-7.229-59.286c.216-11.62,6.991-11.118,14.552-3.831,26.463,25.5,45.792,61.29,45.792,61.29" transform="translate(169.921 24.503)" fill="#a7e446"/>
            <path id="Trazado_210283" data-name="Trazado 210283" d="M134.269,188.947a1.747,1.747,0,0,0,.2.521,4.021,4.021,0,0,0,.863,1.017,7.009,7.009,0,0,0,.581.449h.095c-.581-.663-1.147-1.325-1.739-1.988m-19.311-1.03a.772.772,0,0,1,.684-.39,1.064,1.064,0,0,1,.94.664,1.066,1.066,0,0,1,.942-.664.769.769,0,0,1,.681.39,1.618,1.618,0,0,1-.1,1.543,5.186,5.186,0,0,1-1.446,1.476h-.153a6.45,6.45,0,0,1-.579-.456,3.985,3.985,0,0,1-.867-1.017,1.62,1.62,0,0,1-.1-1.545m39.5,27.172a2.95,2.95,0,0,1-.591-.745,1.344,1.344,0,0,1-.119-.273c.237.343.473.687.709,1.017m-20.1-2.289a.772.772,0,0,1,.684-.39,1.064,1.064,0,0,1,.94.664,1.066,1.066,0,0,1,.942-.664.769.769,0,0,1,.681.39,1.615,1.615,0,0,1-.1,1.543,5.185,5.185,0,0,1-1.446,1.476h-.153a6.218,6.218,0,0,1-.578-.455,3.971,3.971,0,0,1-.868-1.019,1.623,1.623,0,0,1-.1-1.545m-19.406,0a.772.772,0,0,1,.684-.39,1.064,1.064,0,0,1,.94.664,1.066,1.066,0,0,1,.942-.664.769.769,0,0,1,.681.39,1.618,1.618,0,0,1-.1,1.543,5.186,5.186,0,0,1-1.446,1.476h-.153a6.308,6.308,0,0,1-.579-.455,3.99,3.99,0,0,1-.867-1.019,1.62,1.62,0,0,1-.1-1.545m30.951-9.563a.9.9,0,0,1-.141.095h-.154a5.776,5.776,0,0,1-.579-.462,3.8,3.8,0,0,1-.863-1.017,1.907,1.907,0,0,1-.237-1.183c.687.852,1.337,1.715,1.975,2.567m-21.248-2.924a.771.771,0,0,1,.684-.391,1.064,1.064,0,0,1,.94.664,1.066,1.066,0,0,1,.942-.664.768.768,0,0,1,.681.391,1.612,1.612,0,0,1-.1,1.542,5.152,5.152,0,0,1-1.446,1.476h-.153a5.993,5.993,0,0,1-.578-.455,3.952,3.952,0,0,1-.868-1.019,1.62,1.62,0,0,1-.1-1.544m29.115,37.37a.759.759,0,0,1,.674-.39,1.063,1.063,0,0,1,.947.663,1.042,1.042,0,0,1,.934-.663.78.78,0,0,1,.687.39,1.6,1.6,0,0,1-.095,1.538,1.056,1.056,0,0,1-.095.154l-2.8.106a2.656,2.656,0,0,1-.154-.247,1.626,1.626,0,0,1-.095-1.55m-19.412,0a.779.779,0,0,1,.687-.39,1.045,1.045,0,0,1,.934.663,1.075,1.075,0,0,1,.947-.663.793.793,0,0,1,.685.39,1.64,1.64,0,0,1-.106,1.538,3.407,3.407,0,0,1-.687.852l-1.621.059a3.849,3.849,0,0,1-.733-.9,1.63,1.63,0,0,1-.106-1.55m-18.725-.39a1.06,1.06,0,0,1,.946.663,1.045,1.045,0,0,1,.935-.663.779.779,0,0,1,.686.39,1.576,1.576,0,0,1-.106,1.538,4.963,4.963,0,0,1-1.443,1.479H116.5c-.013-.013-.154-.107-.367-.273-.095-.52-.307-1.6-.579-3.123a.21.21,0,0,1,.083-.011m28.428-12.1a.772.772,0,0,1,.684-.39,1.064,1.064,0,0,1,.94.664,1.066,1.066,0,0,1,.942-.664.769.769,0,0,1,.681.39,1.615,1.615,0,0,1-.1,1.543,5.185,5.185,0,0,1-1.446,1.476h-.153a6.206,6.206,0,0,1-.578-.455,3.971,3.971,0,0,1-.868-1.019,1.623,1.623,0,0,1-.1-1.546m-19.406,0a.772.772,0,0,1,.684-.39,1.064,1.064,0,0,1,.94.664,1.066,1.066,0,0,1,.942-.664.769.769,0,0,1,.681.39,1.615,1.615,0,0,1-.1,1.543,5.186,5.186,0,0,1-1.446,1.476h-.153a6.211,6.211,0,0,1-.578-.455,3.972,3.972,0,0,1-.868-1.019,1.623,1.623,0,0,1-.1-1.546" transform="translate(165.115 26.363)" fill="#fff"/>
            <path id="Trazado_210284" data-name="Trazado 210284" d="M110.009,227.126c8.148-.958,30.325-2.916,44.9-2.306.087,0,.112.339.025.348-12.2,1.322-36.691,2.208-44.892,2.456-.154,0-.189-.479-.037-.5" transform="translate(172.877 31.59)" fill="#263238"/>
            <path id="Trazado_210285" data-name="Trazado 210285" d="M147.869,200.044c.6,2.3,1.175,4.6,1.731,6.912-.03-.281-.068-.56-.1-.841-.33-3.229-.643-6.456-.879-9.693-.006-.078.125-.092.137-.015,1.577,11.287,6.041,39.81,6.3,42.932.252-.032,2.671.062,3.238.034.121-.006.109.172,0,.185-.291.031-3.927.473-3.95.393-1.583-5.5-3.986-26.29-4.5-30.894-.822-2.966-1.508-5.962-2.036-9a.032.032,0,0,1,.063-.016" transform="translate(126.264 27.604)" fill="#263238"/>
          </g>
        </g>
        <rect id="Rectángulo_88497" data-name="Rectángulo 88497" width="111.525" height="62.969" transform="translate(341.706 69.233)" fill="#a7e446"/>
        <path id="Trazado_210289" data-name="Trazado 210289" d="M18.863,115.908v19.353L0,115.908Z" transform="translate(434.368 16.295)" fill="#a7e446"/>
        <rect id="Rectángulo_88498" data-name="Rectángulo 88498" width="66.218" height="1.947" transform="translate(370.893 81.878)" fill="#fff"/>
        <rect id="Rectángulo_88499" data-name="Rectángulo 88499" width="45.376" height="1.947" transform="translate(391.735 87.833)" fill="#fff"/>
        <rect id="Rectángulo_88500" data-name="Rectángulo 88500" width="79.284" height="1.947" transform="translate(357.826 93.789)" fill="#fff"/>
        <rect id="Rectángulo_88501" data-name="Rectángulo 88501" width="27.275" height="1.947" transform="translate(409.836 99.745)" fill="#fff"/>
        <rect id="Rectángulo_88502" data-name="Rectángulo 88502" width="62.21" height="1.947" transform="translate(374.902 105.701)" fill="#fff"/>
        <rect id="Rectángulo_88503" data-name="Rectángulo 88503" width="66.218" height="1.947" transform="translate(370.893 111.657)" fill="#fff"/>
        <rect id="Rectángulo_88504" data-name="Rectángulo 88504" width="49.61" height="1.947" transform="translate(387.501 117.614)" fill="#fff"/>
        <rect id="Rectángulo_88505" data-name="Rectángulo 88505" width="111.525" height="46.08" transform="translate(319.703 152.049)" fill="#dbdbdb"/>
        <path id="Trazado_210290" data-name="Trazado 210290" d="M119.4,173.708l-18.863,19.353V173.708Z" transform="translate(219.171 24.42)" fill="#dbdbdb"/>
        <rect id="Rectángulo_88506" data-name="Rectángulo 88506" width="60.043" height="2.005" transform="translate(353.992 161.823)" fill="#fff"/>
        <rect id="Rectángulo_88507" data-name="Rectángulo 88507" width="76.433" height="2.004" transform="translate(337.601 167.955)" fill="#fff"/>
        <rect id="Rectángulo_88508" data-name="Rectángulo 88508" width="55.551" height="2.005" transform="translate(358.484 174.085)" fill="#fff"/>
        <rect id="Rectángulo_88509" data-name="Rectángulo 88509" width="69.864" height="2.004" transform="translate(344.17 180.218)" fill="#fff"/>
        <rect id="Rectángulo_88510" data-name="Rectángulo 88510" width="45.812" height="2.004" transform="translate(368.223 186.35)" fill="#fff"/>
        <rect id="Rectángulo_88511" data-name="Rectángulo 88511" width="86.684" height="36.656" transform="translate(83.925)" fill="#a7e446"/>
        <path id="Trazado_210291" data-name="Trazado 210291" d="M297.09,32.138H276.965l10.062,13.846Z" transform="translate(-159.76 4.518)" fill="#a7e446"/>
        <g id="Grupo_138190" data-name="Grupo 138190">
          <g id="Grupo_138189" data-name="Grupo 138189" clip-path="url(#clip-path)">
            <path id="Trazado_210292" data-name="Trazado 210292" d="M262.071,18.494a22.061,22.061,0,0,0,4.793,5.622,34.6,34.6,0,0,0,3.195,2.514h.842c.236-.161,5.66-3.838,7.988-8.148,1.636-3,1.858-6.34.558-8.52a4.255,4.255,0,0,0-3.765-2.155,5.892,5.892,0,0,0-5.2,3.666,5.873,5.873,0,0,0-5.189-3.666,4.26,4.26,0,0,0-3.778,2.155c-1.3,2.192-1.077,5.535.558,8.533" transform="translate(-124.374 1.098)" fill="#fff"/>
            <path id="Trazado_210293" data-name="Trazado 210293" d="M293.941,10.653l10.338,13.8,2.213-8.233,1.277.567.615-1.372-1.194-.532,4.9-5.347H295.148l-3.383-1.5H313.8l.555,1.266-6.293,6.872-2.733,10.161L304,26.6,291.1,9.4Z" transform="translate(-193.152 1.13)" fill="#fff"/>
            <path id="Trazado_210294" data-name="Trazado 210294" d="M298,10.33l10.338,13.8,2.213-8.233Z" transform="translate(-197.21 1.452)" fill="#fff"/>
            <path id="Trazado_210295" data-name="Trazado 210295" d="M293.093,9.355,305.136,14.7l4.9-5.347Z" transform="translate(-191.098 1.315)" fill="#fff"/>
          </g>
        </g>
      </g>
    </g>
    <g id="Grupo_138194" data-name="Grupo 138194" transform="translate(1243.584 10780.616) rotate(-14)">
      <g id="Grupo_138193" data-name="Grupo 138193" transform="translate(0 0)" clip-path="url(#clip-path-11)">
        <path id="Trazado_210296" data-name="Trazado 210296" d="M1.074,46.139A37.285,37.285,0,1,1,46.139,73.513,37.284,37.284,0,0,1,1.074,46.139" transform="translate(0 0)" fill="#fc4b52"/>
        <path id="Trazado_210297" data-name="Trazado 210297" d="M28.941,50.73c-.987-.619-1.843-1.519-3.165-1.393-.507.05-.4-.369-.4-.645q-.01-7.454-.01-14.9c0-.362.023-.659.417-.857,3.792-1.913,5.438-5.677,7.761-8.892A14.856,14.856,0,0,0,36.3,12.778c-.159-1.118.362-1.619,1.369-1.847a2.49,2.49,0,0,1,2.835.891,20.02,20.02,0,0,1,2.165,6.509c.219,1.883-.456,3.717-.691,5.58-.173,1.365-.491,2.712-.75,4.092.332.243.719.116,1.076.122q6.294.01,12.587,0c1.768,0,2.634.508,2.88,1.681a3.364,3.364,0,0,1-1.828,3.637c-.314.159-.881.016-.919.507s.546.449.836.651c1.518,1.042,1.236,3.19-.522,4.433-.422.3-1.242.159-1.262.779-.01.494.757.489,1.1.838,1.226,1.21.616,3.472-1.215,4.387a5.48,5.48,0,0,0-.737.284c-.209.14-.413.3-.009.582,1.817,1.3,1.778,3.106-.051,4.423-.181.13-.363.262-.548.393a3.54,3.54,0,0,1-2.209.483q-9.869.02-19.736,0a2.339,2.339,0,0,1-1.733-.482" transform="translate(3.269 1.396)" fill="#f2fbe3" fill-rule="evenodd"/>
        <path id="Trazado_210298" data-name="Trazado 210298" d="M11.964,39.606c0-3.154.015-6.313-.011-9.466,0-.642.061-.957.848-.948q5.776.069,11.544,0c.755-.008.871.252.868.922q-.032,9.525,0,19.05c.006.807-.214,1.036-1.026,1.023-3.733-.042-7.466-.051-11.2.008-.929.015-1.058-.312-1.048-1.124.047-3.155.018-6.31.018-9.468" transform="translate(1.539 3.762)" fill="#f2fbe3" fill-rule="evenodd"/>
      </g>
    </g>
    <g id="Grupo_138195" data-name="Grupo 138195" transform="matrix(0.966, 0.259, -0.259, 0.966, 1129.832, 10623.281)">
      <g id="Grupo_138193-2" data-name="Grupo 138193" transform="translate(0 0)" clip-path="url(#clip-path-12)">
        <path id="Trazado_210296-2" data-name="Trazado 210296" d="M1.462,62.857a50.794,50.794,0,1,1,61.394,37.292A50.793,50.793,0,0,1,1.462,62.857" transform="translate(0 0)" fill="#fc4b52"/>
        <path id="Trazado_210297-2" data-name="Trazado 210297" d="M30.236,65.186c-1.344-.843-2.511-2.07-4.312-1.9-.691.068-.538-.5-.543-.878q-.014-10.155-.014-20.3c0-.494.031-.9.567-1.167,5.166-2.607,7.408-7.734,10.573-12.114a20.238,20.238,0,0,0,3.749-15.351c-.217-1.523.494-2.205,1.865-2.516,1.652-.378,3.3.08,3.862,1.213a27.274,27.274,0,0,1,2.95,8.868c.3,2.565-.621,5.064-.941,7.6-.235,1.859-.669,3.694-1.021,5.575.452.331.98.158,1.466.166q8.575.014,17.148.006c2.408,0,3.588.692,3.923,2.29a4.583,4.583,0,0,1-2.49,4.955c-.428.217-1.2.022-1.252.691s.744.612,1.14.887c2.068,1.419,1.684,4.346-.711,6.039-.575.4-1.692.217-1.719,1.061-.014.674,1.032.666,1.5,1.141,1.67,1.649.84,4.731-1.655,5.976a7.465,7.465,0,0,0-1,.388c-.285.191-.563.4-.012.794,2.476,1.769,2.422,4.231-.069,6.025-.246.177-.5.357-.746.535a4.823,4.823,0,0,1-3.01.658q-13.444.028-26.887.006a3.186,3.186,0,0,1-2.361-.657" transform="translate(13.645 5.828)" fill="#f2fbe3" fill-rule="evenodd"/>
        <path id="Trazado_210298-2" data-name="Trazado 210298" d="M11.971,43.379c0-4.3.02-8.6-.015-12.9-.006-.875.083-1.3,1.155-1.292q7.869.095,15.727,0c1.029-.011,1.187.343,1.183,1.256q-.044,12.976,0,25.952c.008,1.1-.292,1.412-1.4,1.393-5.086-.057-10.172-.069-15.253.011-1.266.02-1.441-.424-1.427-1.532.065-4.3.025-8.6.025-12.9" transform="translate(6.425 15.702)" fill="#f2fbe3" fill-rule="evenodd"/>
      </g>
    </g>
    <g id="Grupo_138196" data-name="Grupo 138196" transform="translate(1165.757 11407.101) rotate(-14)">
      <g id="Grupo_138193-3" data-name="Grupo 138193" transform="translate(0 0)" clip-path="url(#clip-path-13)">
        <path id="Trazado_210296-3" data-name="Trazado 210296" d="M1.074,46.139A37.285,37.285,0,1,1,46.139,73.513,37.284,37.284,0,0,1,1.074,46.139" transform="translate(0 0)" fill="#fc4b52"/>
        <path id="Trazado_210297-3" data-name="Trazado 210297" d="M28.941,50.73c-.987-.619-1.843-1.519-3.165-1.393-.507.05-.4-.369-.4-.645q-.01-7.454-.01-14.9c0-.362.023-.659.417-.857,3.792-1.913,5.438-5.677,7.761-8.892A14.856,14.856,0,0,0,36.3,12.778c-.159-1.118.362-1.619,1.369-1.847a2.49,2.49,0,0,1,2.835.891,20.02,20.02,0,0,1,2.165,6.509c.219,1.883-.456,3.717-.691,5.58-.173,1.365-.491,2.712-.75,4.092.332.243.719.116,1.076.122q6.294.01,12.587,0c1.768,0,2.634.508,2.88,1.681a3.364,3.364,0,0,1-1.828,3.637c-.314.159-.881.016-.919.507s.546.449.836.651c1.518,1.042,1.236,3.19-.522,4.433-.422.3-1.242.159-1.262.779-.01.494.757.489,1.1.838,1.226,1.21.616,3.472-1.215,4.387a5.48,5.48,0,0,0-.737.284c-.209.14-.413.3-.009.582,1.817,1.3,1.778,3.106-.051,4.423-.181.13-.363.262-.548.393a3.54,3.54,0,0,1-2.209.483q-9.869.02-19.736,0a2.339,2.339,0,0,1-1.733-.482" transform="translate(3.269 1.396)" fill="#f2fbe3" fill-rule="evenodd"/>
        <path id="Trazado_210298-3" data-name="Trazado 210298" d="M11.964,39.606c0-3.154.015-6.313-.011-9.466,0-.642.061-.957.848-.948q5.776.069,11.544,0c.755-.008.871.252.868.922q-.032,9.525,0,19.05c.006.807-.214,1.036-1.026,1.023-3.733-.042-7.466-.051-11.2.008-.929.015-1.058-.312-1.048-1.124.047-3.155.018-6.31.018-9.468" transform="translate(1.539 3.762)" fill="#f2fbe3" fill-rule="evenodd"/>
      </g>
    </g>
    <g id="Grupo_138198" data-name="Grupo 138198" transform="translate(1243.584 11293)">
      <g id="Grupo_138197" data-name="Grupo 138197" clip-path="url(#clip-path-14)">
        <path id="Trazado_210299" data-name="Trazado 210299" d="M7.587,42.14H4.03A4,4,0,0,1,0,38.109a4.045,4.045,0,0,1,4.03-4.03H8.988l2.327-13.473h-4.5a4.031,4.031,0,0,1,0-8.061h5.9L14.248,3.33A3.955,3.955,0,0,1,18.279,0a4.138,4.138,0,0,1,4.03,4.731l-1.381,7.814H33.076L34.627,3.33A3.979,3.979,0,0,1,38.734,0a4.094,4.094,0,0,1,3.954,4.731l-1.324,7.814H44.94a4.042,4.042,0,0,1,4.011,4.031,4.092,4.092,0,0,1-4.011,4.03H39.982L37.655,34.079h4.409a4,4,0,0,1,4.03,4.03,4.046,4.046,0,0,1-4.03,4.031H36.255l-1.628,9.518a3.991,3.991,0,0,1-4.03,3.33,4.092,4.092,0,0,1-4.031-4.712l1.476-8.136H15.875l-1.627,9.518a4.037,4.037,0,0,1-4.087,3.33,3.959,3.959,0,0,1-3.955-4.712Zm21.78-8.061,2.327-13.473H19.6L17.276,34.079Z" fill="#fc4b52"/>
      </g>
    </g>
  </g>
</svg>
