<svg id="Grupo_138162" data-name="Grupo 138162" xmlns="http://www.w3.org/2000/svg" xmlns:xlink="http://www.w3.org/1999/xlink" width="63.515" height="59.708" viewBox="0 0 63.515 59.708">
  <defs>
    <clipPath id="clip-path">
      <rect id="Rectángulo_88480" data-name="Rectángulo 88480" width="63.515" height="59.708" fill="#a7e446"/>
    </clipPath>
  </defs>
  <g id="Grupo_138162-2" data-name="Grupo 138162" clip-path="url(#clip-path)">
    <path id="Trazado_210082" data-name="Trazado 210082" d="M85.938,39.015c-.2.064-.119.238-.125.364q-.251,5.467-.873,10.9a6.506,6.506,0,0,1-5.98,5.7c-.989.067-1.977.161-2.967.2-.414.015-.557.163-.625.56-.117.688-.307,1.364-.471,2.044s-.612,1.024-1.173.89-.8-.642-.638-1.334a13.185,13.185,0,0,1,.358-1.5c.184-.516-.046-.524-.445-.5-1.134.068-2.269.111-3.4.162-.882.039-1.151-.185-1.265-1.051-.068-.46.242-.67.579-.848a2.137,2.137,0,0,1,.966-.18c2.973-.078,5.941-.252,8.9-.5a4.35,4.35,0,0,0,4.1-3.885c.313-2.309.484-4.632.655-6.956.31-4.219.436-8.443.341-12.669-.064-2.862-.2-5.724-.446-8.578-.156-1.787-.29-3.577-.53-5.354a4.4,4.4,0,0,0-4.362-4.027c-3.152-.215-6.306-.377-9.463-.509-2.931-.123-5.864-.148-8.794-.255-3.328-.121-6.655-.128-9.979-.073s-6.651.089-9.971.257a34.644,34.644,0,0,0-3.587.188,1.45,1.45,0,0,1-1.166-.315c-.307-.252-.508-.554-.253-.963A1.159,1.159,0,0,1,36.512,10q5.914-.285,11.833-.376a1.9,1.9,0,0,0,.9-.1L45.355,5.015c-.943-1.094-1.889-2.186-2.828-3.284-.5-.588-.517-1.127-.06-1.511s.977-.268,1.489.324Q47.636,4.81,51.3,9.086a1.261,1.261,0,0,0,1.1.5q1.952-.047,3.905,0a1.142,1.142,0,0,0,.992-.464Q60.923,4.885,64.573.676c.108-.125.206-.259.325-.373A.921.921,0,0,1,66.182.229a.906.906,0,0,1,.11,1.277c-.652.8-1.337,1.572-2.01,2.353q-2.324,2.7-4.649,5.392c-.076.089-.142.187-.227.3a1.77,1.77,0,0,0,.817.088c6.241.078,12.473.379,18.7.777a6.563,6.563,0,0,1,6.028,5.809c.4,3.691.716,7.386.864,11.1,0,.111-.051.256.121.3V28a.16.16,0,0,0,0,.248v.5a1.265,1.265,0,0,0,0,.867v.619c-.135.252-.031.524-.064.784v.917a2.616,2.616,0,0,0,.064.9v.743a3.235,3.235,0,0,0-.064.989,3.238,3.238,0,0,0,.064.992V35.8a.946.946,0,0,0,0,.743v.619c-.11.114-.046.256-.064.384V38.1c.008.1-.027.211.064.294Z" transform="translate(-22.424 0)"/>
    <path id="Trazado_210083" data-name="Trazado 210083" d="M44.064,73.859c-.156.671-.675.757-1.242.769-3.966.084-7.933.176-11.9.158-5.952-.028-11.9-.178-17.844-.5-.585-.032-.762.085-.553.673a10.745,10.745,0,0,1,.354,1.437.941.941,0,1,1-1.824.408c-.181-.74-.362-1.48-.505-2.227-.064-.329-.213-.412-.532-.442A37.308,37.308,0,0,1,6.131,73.8a6.527,6.527,0,0,1-5.149-5.7C.591,64.538.3,60.965.127,57.381c-.005-.111.048-.257-.127-.3v-.5C.087,56.5.057,56.4.064,56.3v-.722C.04,55.416.121,55.244,0,55.1V54.48a.946.946,0,0,0,0-.743V53.49A3.236,3.236,0,0,0,.064,52.5,3.237,3.237,0,0,0,0,51.509V50.395a3.172,3.172,0,0,0,.064-.98c-.032-.292.072-.593-.064-.878v-.619c.122-.156.039-.338.064-.506V46.231c-.008-.1.026-.211-.064-.293v-.619c.223-.088.118-.283.125-.427C.3,41.266.578,37.648,1,34.043a6.513,6.513,0,0,1,6.074-5.688c.908-.05,1.817-.09,2.722-.177a1.1,1.1,0,0,1,1.258.659.846.846,0,0,1-.47,1.208,3.166,3.166,0,0,1-1.334.229A22.815,22.815,0,0,0,6.6,30.49a4.313,4.313,0,0,0-3.52,3.616c-.272,1.669-.378,3.357-.536,5.039-.258,2.727-.393,5.464-.465,8.2-.073,2.757-.136,5.521.06,8.281.085,1.19.068,2.386.136,3.58.173,3,.4,6,.8,8.983A4.381,4.381,0,0,0,7.153,71.87c3.025.209,6.05.387,9.081.505,2.722.106,5.444.148,8.164.257,4.377.175,8.752.082,13.127.07,1.647,0,3.3-.093,4.95-.1.186,0,.372,0,.558.006.911.043,1.138.318,1.032,1.248" transform="translate(0 -17.941)"/>
    <path id="Trazado_210084" data-name="Trazado 210084" d="M174.607,86.211q0-.5.008-1c.041-.05.079-.045.114.008v.99c-.042.057-.082.056-.122,0" transform="translate(-111.214 -54.255)" fill="#1b1b1b"/>
    <path id="Trazado_210085" data-name="Trazado 210085" d="M0,92.457c.246.306.073.663.122.992q-.062.082-.122,0Z" transform="translate(0 -58.889)" fill="#0d0d0d"/>
    <path id="Trazado_210086" data-name="Trazado 210086" d="M174.581,93.45c.048-.33-.125-.687.122-.993v.99c-.04.057-.08.055-.122,0" transform="translate(-111.188 -58.889)" fill="#0d0d0d"/>
    <path id="Trazado_210087" data-name="Trazado 210087" d="M0,95.185l.122,0c-.054.328.131.685-.122.989Z" transform="translate(0 -60.627)" fill="#181818"/>
    <path id="Trazado_210088" data-name="Trazado 210088" d="M174.58,95.188l.122,0v.99c-.253-.3-.068-.66-.122-.988" transform="translate(-111.187 -60.627)" fill="#1c1c1c"/>
    <path id="Trazado_210089" data-name="Trazado 210089" d="M.119,86.583c-.044.331.125.687-.119.993v-.99c.038-.054.078-.058.119,0" transform="translate(0 -55.123)" fill="#131313"/>
    <path id="Trazado_210090" data-name="Trazado 210090" d="M174.678,80.025a.7.7,0,0,1,0-.866Z" transform="translate(-111.164 -50.419)" fill="#787878"/>
    <path id="Trazado_210091" data-name="Trazado 210091" d="M.119,85.137,0,85.14v-.867c.248.259.072.577.119.864" transform="translate(0 -53.677)" fill="#202020"/>
    <path id="Trazado_210092" data-name="Trazado 210092" d="M174.585,88.018l.122,0v.867c-.237-.262-.079-.58-.122-.869" transform="translate(-111.192 -56.062)" fill="#0c0c0c"/>
    <path id="Trazado_210093" data-name="Trazado 210093" d="M174.7,83.993c-.038,0-.076,0-.114-.008.036-.245-.129-.521.114-.735Z" transform="translate(-111.19 -53.025)" fill="#343434"/>
    <path id="Trazado_210094" data-name="Trazado 210094" d="M0,98.6a.547.547,0,0,1,0,.743Z" transform="translate(0 -62.799)" fill="#414141"/>
    <path id="Trazado_210095" data-name="Trazado 210095" d="M174.686,99.338a.547.547,0,0,1,0-.743Z" transform="translate(-111.172 -62.799)" fill="#444"/>
    <path id="Trazado_210096" data-name="Trazado 210096" d="M.107,79.764l0,.493c-.032.06-.066.062-.1.005v-.5q.051-.082.107,0" transform="translate(0 -50.78)" fill="#727272"/>
    <path id="Trazado_210097" data-name="Trazado 210097" d="M0,81.2l.1-.005c.007.175.092.367-.1.5Z" transform="translate(0 -51.713)" fill="#5b5b5b"/>
    <path id="Trazado_210098" data-name="Trazado 210098" d="M0,102.346c.208.13.105.325.105.5-.037.052-.072.05-.105,0Z" transform="translate(0 -65.188)" fill="#7d7d7d"/>
    <path id="Trazado_210099" data-name="Trazado 210099" d="M174.62,102.721c-.012-.138-.082-.291.1-.375v.371q-.048.081-.1,0" transform="translate(-111.208 -65.188)" fill="#7c7c7c"/>
    <path id="Trazado_210100" data-name="Trazado 210100" d="M174.656,103.373a.568.568,0,0,0,.1,0v.371c-.033.056-.068.054-.1,0l0-.371" transform="translate(-111.244 -65.84)" fill="#939393"/>
    <path id="Trazado_210101" data-name="Trazado 210101" d="M0,77.112c.16.029.121.142.1.245-.033.058-.068.059-.1,0Z" transform="translate(0 -49.116)" fill="#bcbcbc"/>
    <path id="Trazado_210102" data-name="Trazado 210102" d="M174.7,77.36c-.178-.082-.186-.165,0-.248Z" transform="translate(-111.188 -49.116)" fill="#bfbfbf"/>
    <path id="Trazado_210103" data-name="Trazado 210103" d="M0,77.788a.7.7,0,0,1,.1,0v.248c-.033.058-.068.059-.1,0Z" transform="translate(0 -49.544)" fill="#a9a9a9"/>
    <path id="Trazado_210104" data-name="Trazado 210104" d="M0,78.47a.758.758,0,0,1,.1,0c0,.082,0,.165,0,.247-.033.057-.068.061-.1,0Z" transform="translate(0 -49.979)" fill="#979797"/>
    <path id="Trazado_210105" data-name="Trazado 210105" d="M0,79.153l.1,0c0,.082,0,.165,0,.248L0,79.4Z" transform="translate(0 -50.414)" fill="#848484"/>
    <path id="Trazado_210106" data-name="Trazado 210106" d="M0,103.71c.035,0,.07,0,.105,0,0,.082,0,.164,0,.247-.036.054-.07.05-.1,0Z" transform="translate(0 -66.057)" fill="#959595"/>
    <path id="Trazado_210107" data-name="Trazado 210107" d="M0,104.392a.7.7,0,0,0,.1,0v.247q-.053.08-.1,0Z" transform="translate(0 -66.491)" fill="#a7a7a7"/>
    <path id="Trazado_210108" data-name="Trazado 210108" d="M174.654,104.4a.719.719,0,0,0,.1,0v.248c-.033.053-.068.057-.1,0V104.4" transform="translate(-111.244 -66.491)" fill="#ababab"/>
    <path id="Trazado_210109" data-name="Trazado 210109" d="M0,105.074a.615.615,0,0,0,.1,0v.248q-.053.08-.1,0Z" transform="translate(0 -66.926)" fill="#bababa"/>
    <path id="Trazado_210110" data-name="Trazado 210110" d="M174.626,105.077l.1,0v.248c-.162-.028-.121-.142-.1-.245" transform="translate(-111.215 -66.926)" fill="#bebebe"/>
    <path id="Trazado_210111" data-name="Trazado 210111" d="M0,105.756l.1,0c.017.1.061.218-.1.245Z" transform="translate(0 -67.36)" fill="#ccc"/>
    <path id="Trazado_210112" data-name="Trazado 210112" d="M51.172,74.84c-.08-.928-.28-1.109-1.258-1.085-5.556.137-11.114.22-16.671.112-5.576-.108-11.15-.272-16.714-.673a21.862,21.862,0,0,1-2.346-.171,2.343,2.343,0,0,1-1.029-1.037,6.686,6.686,0,0,1-1.014-3.147c-.331-3.343-.645-6.685-.778-10.045-.1-2.45-.244-4.9-.191-7.351.062-2.922.084-5.849.306-8.77.218-2.857.421-5.715.8-8.556a4.028,4.028,0,0,1,1.412-2.8,12.31,12.31,0,0,1,2.249-.238c.387-.041.779-.028,1.165-.072.826-.1,1.031-.337,1.065-1.192L20,29.707c.113.863.432,1.132,1.32,1.086q10.842-.564,21.7-.424,7.533.1,15.059.485c1.816.093,3.63.223,5.444.345a4.625,4.625,0,0,1,4.238,4.011,143.156,143.156,0,0,1,.956,20.626q-.175,6.619-.952,13.2a4.632,4.632,0,0,1-4.227,4.021c-3.05.219-6.1.4-9.16.5-.624.021-1.147.154-1.365.822a10,10,0,0,1-1.29.007c-.394-.045-.474.177-.551.456" transform="translate(-7.107 -18.922)" fill="#636363"/>
    <path id="Trazado_210113" data-name="Trazado 210113" d="M9.842,34.149a6.8,6.8,0,0,0-1.2,2.549c-.159,1.177-.3,2.358-.409,3.541q-.271,2.939-.486,5.884c-.064.86-.1,1.729-.108,2.585-.008,2.349-.2,4.693-.146,7.04.058,2.508.111,5.018.256,7.521.143,2.455.373,4.906.617,7.354a8.106,8.106,0,0,0,1.04,4c.291.422.62.817.933,1.224a4.584,4.584,0,0,1-4.215-3.933q-.692-6.111-.915-12.257c-.139-3.836-.1-7.669.071-11.5q.225-5.091.846-10.155a4.494,4.494,0,0,1,3.716-3.859" transform="translate(-3.265 -21.751)" fill="#2c2b2b"/>
    <path id="Trazado_210114" data-name="Trazado 210114" d="M41.287,38.893c3.8-.042,8.368.1,12.933.284,2.745.109,5.488.293,8.23.471a4.252,4.252,0,0,1,3.862,3.67,112.614,112.614,0,0,1,.956,16.164A111.079,111.079,0,0,1,66.3,72.675a4.236,4.236,0,0,1-3.9,3.628c-9.634.7-19.282.876-28.937.686-4.958-.1-9.913-.316-14.86-.687a4.25,4.25,0,0,1-3.887-3.639,111.457,111.457,0,0,1,0-29.357,4.289,4.289,0,0,1,3.872-3.663c7.3-.5,14.611-.764,22.7-.75" transform="translate(-8.757 -24.768)"/>
    <path id="Trazado_210115" data-name="Trazado 210115" d="M30.159,44.646c3.895-.3,7.8-.424,11.7-.535,7.172-.2,14.341-.117,21.508.175,2.745.112,5.488.3,8.231.469a2.349,2.349,0,0,1,2.233,2.109,108.687,108.687,0,0,1,.773,20.43c-.157,2.739-.4,5.468-.759,8.187a2.345,2.345,0,0,1-2.31,2.229c-6.433.462-12.875.694-19.324.738q-9.426.065-18.84-.416a22.214,22.214,0,0,1-2.961-.211,2.1,2.1,0,0,1-.9-1.682c-.291-1.894-.49-3.8-.641-5.709a108.3,108.3,0,0,1-.38-11.476,114.848,114.848,0,0,1,1-12.984,1.593,1.593,0,0,1,.672-1.325" transform="translate(-18.128 -28.025)" fill="#dff7f9"/>
    <path id="Trazado_210116" data-name="Trazado 210116" d="M24.064,45.779a7.324,7.324,0,0,0-.728,3.268c-.213,1.642-.343,3.3-.493,4.946-.069.756-.065,1.515-.118,2.273-.209,3-.193,6.007-.13,9.01.045,2.13.194,4.261.368,6.385.154,1.875.4,3.743.624,5.611a3.732,3.732,0,0,0,.728,1.681,15.539,15.539,0,0,1-2.469-.139,2.319,2.319,0,0,1-1.992-2,107.958,107.958,0,0,1-.939-16.58,105.96,105.96,0,0,1,.916-12.131,2.383,2.383,0,0,1,2.381-2.227c.617-.037,1.235-.066,1.852-.1" transform="translate(-12.033 -29.158)" fill="#c3dbdd"/>
  </g>
</svg>
