<svg id="Grupo_138077" data-name="Grupo 138077" xmlns="http://www.w3.org/2000/svg" xmlns:xlink="http://www.w3.org/1999/xlink" width="79.444" height="79.465" viewBox="0 0 79.444 79.465">
  <defs>
    <clipPath id="clip-path">
      <rect id="Rectángulo_88257" data-name="Rectángulo 88257" width="79.444" height="79.465" fill="none"/>
    </clipPath>
  </defs>
  <g id="Grupo_138078" data-name="Grupo 138078" clip-path="url(#clip-path)">
    <path id="Trazado_208566" data-name="Trazado 208566" d="M76.344,79.465H17.91a3.761,3.761,0,0,1-3.187-4.091c-.01-3.565,0-7.13,0-10.695,0-1.037-.054-1.091-1.1-1.093q-4.764-.01-9.528,0a4.16,4.16,0,0,1-2.673-.858A3.657,3.657,0,0,1,0,59.626Q.024,33.742.011,7.857C.011,6.437,0,5.016.013,3.6A3.421,3.421,0,0,1,3.622,0q28.7-.007,57.4,0A3.711,3.711,0,0,1,64.8,3.863c.041,3.048.006,6.1.013,9.144,0,1.885-.13,1.7,1.72,1.707,3,.009,5.991,0,8.986,0A4.09,4.09,0,0,1,78.73,16.15a3.815,3.815,0,0,1,.714,1.913V76.519a3.319,3.319,0,0,1-3.1,2.946" transform="translate(0 0)"/>
    <path id="Trazado_208567" data-name="Trazado 208567" d="M77.557,108.543c-.206.008-.412.024-.618.024q-26.351,0-52.7,0c-.206,0-.412-.016-.617-.024a1.016,1.016,0,0,1-.521-.893,7.913,7.913,0,0,1-.041-1.161q0-22.393.005-44.785c0-.5-.129-1.042.25-1.488.206-.009.412-.024.618-.024q26.658,0,53.316,0c.206,0,.412.016.618.024a3.705,3.705,0,0,1-.083,3.115c-1.727-.763-3.549-.314-5.328-.4a.48.48,0,0,0-.538.522c-.012.258,0,.515-.01.773-.015.494.235.693.709.693.593,0,1.185-.006,1.777.005,1.066.021,1.211.163,1.229,1.205.011.618.006,1.237,0,1.855,0,.452.2.637.653.66.554.029,1.141-.142,1.651.225a3.97,3.97,0,0,1,.027,2.454c-.456.414-1.021.229-1.542.264-.735.049-.791.1-.794.976,0,.935.055,1,.806,1.047.52.036,1.087-.155,1.539.278a2.364,2.364,0,0,1,.153,1.141q0,15.888-.005,31.775c0,.624.131,1.323-.556,1.743" transform="translate(-18.264 -47.71)" fill="#dff7f9"/>
    <path id="Trazado_208568" data-name="Trazado 208568" d="M142.151,131.973c3.151-.008,6.3-.011,9.452-.033.38,0,.515.116.466.482a2.937,2.937,0,0,0,0,.387v46.9c0,1.525-.331,1.855-1.863,1.855H96.112c-.258,0-.515-.016-.773-.024a.574.574,0,0,1-.365-.376,5.674,5.674,0,0,1,.072-3.395,2.59,2.59,0,0,1,1.365-.173q11.972-.007,23.944,0c.207,0,.413,0,.62,0a1.076,1.076,0,0,0,1.02-1.655.537.537,0,0,0-.5-.3,7.934,7.934,0,0,0-.929-.023q-12.088,0-24.176,0a2.458,2.458,0,0,1-1.362-.185,3.568,3.568,0,0,1-.1-2.5c.427-.418.971-.25,1.471-.276.83-.042.881-.09.874-1.066-.006-.881-.057-.924-.9-.959-.479-.02-.99.116-1.418-.234a3.224,3.224,0,0,1,.076-2.45c.283-.008.567-.024.85-.024q19.751,0,39.5.012a4.453,4.453,0,0,0,3.368-1.248,1.571,1.571,0,0,1,.882-.234,2.331,2.331,0,0,0,2.284-2.438c.023-.852,0-1.7.009-2.557a1.253,1.253,0,0,1,.223-.953q2.938-.013,5.876-.026c1.115-.006,1.557-.434,1.557-1.534q.005-10.871,0-21.742c0-1.1-.44-1.526-1.557-1.532q-2.938-.016-5.876-.026a1.018,1.018,0,0,1-.24-.868c.082-.934-.25-1.9.24-2.8" transform="translate(-75.102 -104.582)" fill="#dff7f9"/>
    <path id="Trazado_208569" data-name="Trazado 208569" d="M23.6,12.357c.206-.009.412-.024.617-.024q26.353,0,52.707,0c.206,0,.412.016.617.024.8.734.591,1.608.347,2.487a2.512,2.512,0,0,1-1.507.19c-.549,0-.836.189-.781.768.007.077,0,.155,0,.232,0,.97.04,1,.986,1.032.454.014.938-.106,1.338.237a3.249,3.249,0,0,1-.078,2.445c-.206.009-.412.024-.618.024q-26.658,0-53.316,0c-.206,0-.412-.016-.618-.024a3.3,3.3,0,0,1-.089-2.427c.464-.407,1.032-.219,1.557-.256.726-.052.776-.1.778-1s-.05-.975-.757-1.019a3.024,3.024,0,0,1-1.514-.186,2.219,2.219,0,0,1,.331-2.5" transform="translate(-18.247 -9.775)" fill="#feca2e"/>
    <path id="Trazado_208570" data-name="Trazado 208570" d="M285.957,108.239a2.887,2.887,0,0,0,.316-1.337q-.012-16.693-.01-33.387a2.919,2.919,0,0,1,0-2.449V68.554a.981.981,0,0,1-.229-.718c-.02-1.494-.006-2.989-.011-4.483a.651.651,0,0,1,.1-.366,13.365,13.365,0,0,0,.137-3.075c.8,0,1.808-.289,2.326.091.494.362.149,1.442.15,2.2q.014,21.987.007,43.975c0,1.838-.249,2.086-2.1,2.081-.232,0-.463-.016-.694-.024" transform="translate(-226.663 -47.407)" fill="#d5e4ed"/>
    <path id="Trazado_208571" data-name="Trazado 208571" d="M14.791,60.116q0,23.5-.008,46.99a2.915,2.915,0,0,0,.315,1.336c-2.444.127-2.813.047-2.807-2.6q.053-22.452,0-44.9c0-.713.185-.941.879-.86.535.062,1.081.028,1.622.036" transform="translate(-9.742 -47.61)" fill="#d5e4ed"/>
    <path id="Trazado_208572" data-name="Trazado 208572" d="M322.378,161.851c1.445-.007,2.891.018,4.335-.036.643-.024.619.31.618.759q-.012,7.32-.005,14.64c0,1.265-.017,2.531.009,3.8.009.469-.072.7-.622.679-1.444-.044-2.89-.027-4.335-.034a1.307,1.307,0,0,1-.261-1.017q-.009-8.885,0-17.77a1.308,1.308,0,0,1,.261-1.017" transform="translate(-255.322 -128.262)" fill="#63697b"/>
    <path id="Trazado_208573" data-name="Trazado 208573" d="M322.376,84.166c2.866-.008,5.731-.026,8.6-.018a1.205,1.205,0,0,1,1.312,1.3c.02,1.886,0,3.772.015,5.657,0,.368-.1.484-.475.481-3.149-.022-6.3-.025-9.449-.033a1.219,1.219,0,0,1-.248-.946q-.014-2.75,0-5.5a1.219,1.219,0,0,1,.248-.946" transform="translate(-255.329 -66.698)" fill="#feca2e"/>
    <path id="Trazado_208574" data-name="Trazado 208574" d="M313.823,161.843v19.8c-.619.007-1.241-.014-1.858.03-.528.038-.648-.182-.644-.671.021-2.3.009-4.6.009-6.9,0-3.849.011-7.7-.012-11.546,0-.559.119-.807.724-.751.589.055,1.186.025,1.78.032" transform="translate(-246.766 -128.253)" fill="#463c4b"/>
    <path id="Trazado_208575" data-name="Trazado 208575" d="M86.547,315.3c.1,1.237-.273,2.512.306,3.71-2.457.128-2.854.04-2.806-2.605.062-3.436.031-6.874,0-10.311,0-.581.136-.774.72-.715s1.186.028,1.779.036q0,1.235,0,2.469a2.925,2.925,0,0,1,0,2.453v2.508a2.925,2.925,0,0,1,0,2.453" transform="translate(-66.617 -242.046)" fill="#a4c1d9"/>
    <path id="Trazado_208576" data-name="Trazado 208576" d="M313.459,84.1v7.391c-.8-.005-1.806.282-2.324-.1-.5-.365-.14-1.442-.152-2.2-.025-1.521.009-3.044-.017-4.565-.008-.442.121-.586.562-.558.642.041,1.287.026,1.931.034" transform="translate(-246.411 -66.632)" fill="#cba124"/>
    <path id="Trazado_208577" data-name="Trazado 208577" d="M286.27,14.787a4.844,4.844,0,0,0-.3-2.469c2.453-.127,2.889-.041,2.8,2.605-.05,1.418-.026,2.84,0,4.26.008.439-.114.59-.559.561-.643-.042-1.289-.026-1.934-.034q0-1.234,0-2.468a2.959,2.959,0,0,1,0-2.455" transform="translate(-226.674 -9.737)" fill="#cba124"/>
    <path id="Trazado_208578" data-name="Trazado 208578" d="M14.767,12.363a4.815,4.815,0,0,0-.3,2.468,2.96,2.96,0,0,1,0,2.455q0,1.234,0,2.468c-.8-.006-1.809.281-2.325-.1-.493-.366-.134-1.444-.151-2.207-.026-1.188-.012-2.376-.005-3.564.006-1.112.434-1.535,1.55-1.542.412,0,.825.015,1.237.024" transform="translate(-9.411 -9.78)" fill="#cba124"/>
    <path id="Trazado_208579" data-name="Trazado 208579" d="M310.365,269.566q0,1.7,0,3.4a2.547,2.547,0,0,1-2.776,2.773l-.619.005a4.429,4.429,0,0,0,.923-3.032c-.042-.9.008-1.806-.017-2.709-.01-.378.115-.491.482-.474.669.032,1.34.023,2.01.032" transform="translate(-243.316 -213.645)" fill="#a4c1d9"/>
    <path id="Trazado_208580" data-name="Trazado 208580" d="M313.46,132.007v3.671c-.8,0-1.807.286-2.326-.1-.5-.364-.138-1.442-.151-2.2-.026-1.4-.007-1.4,1.4-1.395.361,0,.721.016,1.082.024" transform="translate(-246.411 -104.616)" fill="#a4c1d9"/>
    <path id="Trazado_208581" data-name="Trazado 208581" d="M92.818,98.014a3.767,3.767,0,0,1,3.011,3.764,3.682,3.682,0,0,1-2.852,3.511,3.638,3.638,0,0,1-4.188-1.99.62.62,0,0,0-.647-.382q-3.487.018-6.973,0a.607.607,0,0,0-.637.4,3.675,3.675,0,0,1-6.626-.019.658.658,0,0,0-.647-.389A3.718,3.718,0,0,1,73.6,95.48c.947-.012.932-.009.771-.958-.651-3.84-1.309-7.679-1.915-11.527-.093-.591-.5-.861-.8-1.265a2.705,2.705,0,0,0-2.726-1.155c-.789.095-1.6,0-2.4.027-.374.013-.463-.106-.477-.475-.076-2.015-.088-2.015,1.951-2.015.93,0,1.86.014,2.789-.006a1.549,1.549,0,0,1,1.245.5,1.158,1.158,0,0,1,.109.11c1.124,1.614,2.653,1.962,4.584,1.922,6.2-.129,12.4-.049,18.594-.047,1.46,0,1.867.506,1.622,1.97-.775,4.63-1.538,9.263-2.317,13.892-.21,1.244-.419,1.411-1.814,1.557" transform="translate(-52.339 -61.912)"/>
    <path id="Trazado_208582" data-name="Trazado 208582" d="M177.8,221.7c1.626,0,3.253-.012,4.879,0a4.958,4.958,0,1,1,0,9.916q-4.879.027-9.759,0a4.96,4.96,0,1,1,0-9.917c1.626-.012,3.253,0,4.879,0" transform="translate(-133.059 -175.725)"/>
    <path id="Trazado_208583" data-name="Trazado 208583" d="M58.145,231.606c-1.626,0-3.253.013-4.879,0a4.958,4.958,0,1,1,.038-9.916q4.879-.024,9.759,0a4.96,4.96,0,1,1-.038,9.918c-1.626.011-3.253,0-4.879,0" transform="translate(-38.258 -175.71)"/>
    <path id="Trazado_208584" data-name="Trazado 208584" d="M263.311,72.753a10.208,10.208,0,0,1,.134,2.734c.026.944,0,1.889,0,2.833-.8-.007-1.841.289-2.319-.1-.5-.409-.135-1.5-.149-2.285-.023-1.316-.006-1.316-1.326-1.316h-.542c-2.05,0-2.041,0-1.868-2.094.024-.3.1-.4.4-.393,1.523.013,3.045.007,4.568.008a1.385,1.385,0,0,1,1.1.617" transform="translate(-203.847 -57.172)"/>
    <path id="Trazado_208585" data-name="Trazado 208585" d="M277.908,113.962v2.449c-.232.005-.464.015-.7.015-1.788,0-1.76,0-1.8-1.781-.011-.577.128-.77.713-.711s1.184.022,1.777.028" transform="translate(-218.309 -90.302)"/>
    <path id="Trazado_208586" data-name="Trazado 208586" d="M144.8,317.375q11.971,0,23.941-.015c.62,0,.831.108.81.78-.053,1.715-.015,1.716-1.718,1.716q-23.516,0-47.031.014c-.673,0-.917-.122-.889-.858.063-1.636.019-1.638,1.642-1.638Z" transform="translate(-95.045 -251.555)"/>
    <path id="Trazado_208587" data-name="Trazado 208587" d="M96.119,343.793V341.34q13.363-.007,26.727-.023c.434,0,.554.112.56.552.025,1.938.041,1.939-1.877,1.938l-25.41-.014" transform="translate(-76.189 -270.544)"/>
    <path id="Trazado_208588" data-name="Trazado 208588" d="M273.4,343.786c-3.1,0-6.2-.012-9.295.012-.5,0-.642-.121-.639-.632.01-1.861-.011-1.861,1.877-1.861,5.758,0,11.516.009,17.273-.014.573,0,.731.126.719.712-.035,1.783-.007,1.783-1.8,1.783Z" transform="translate(-208.839 -270.524)"/>
    <path id="Trazado_208589" data-name="Trazado 208589" d="M242.1,342.642c0,1.2,0,1.2-1.2,1.2-1.276,0-1.276,0-1.276-1.281,0-1.2,0-1.2,1.2-1.2,1.276,0,1.276,0,1.276,1.281" transform="translate(-189.931 -270.579)"/>
    <path id="Trazado_208590" data-name="Trazado 208590" d="M96.119,319.9v-2.453c.18,0,.36-.013.54-.013,2.037-.006,2.025-.006,1.945,2.013-.015.367-.1.492-.477.474-.668-.032-1.339-.017-2.008-.021" transform="translate(-76.189 -251.611)"/>
    <path id="Trazado_208591" data-name="Trazado 208591" d="M277.819,24.276v2.455c-.205,0-.411.012-.616.012-1.965,0-1.953,0-1.866-2.012.016-.366.107-.493.479-.476.667.03,1.336.016,2,.02" transform="translate(-218.222 -19.226)"/>
    <path id="Trazado_208592" data-name="Trazado 208592" d="M74.655,25.573c0,1.2,0,1.2-1.2,1.2-1.28,0-1.28,0-1.28-1.278,0-1.2,0-1.2,1.2-1.2,1.28,0,1.28,0,1.28,1.277" transform="translate(-57.209 -19.258)"/>
    <path id="Trazado_208593" data-name="Trazado 208593" d="M49.459,26.777c-1.2,0-1.2,0-1.2-1.2,0-1.281,0-1.281,1.277-1.281,1.2,0,1.2,0,1.2,1.2,0,1.28,0,1.28-1.277,1.28" transform="translate(-38.25 -19.258)"/>
    <path id="Trazado_208594" data-name="Trazado 208594" d="M24.373,26.764V24.309c.205,0,.411-.012.616-.012,1.965,0,1.953,0,1.866,2.012-.016.366-.107.493-.479.476-.667-.03-1.336-.016-2-.02" transform="translate(-19.319 -19.259)"/>
    <path id="Trazado_208595" data-name="Trazado 208595" d="M348.507,96.084c1.229,0,1.229,0,1.229,1.252,0,1.229,0,1.229-1.251,1.229-1.229,0-1.229,0-1.229-1.252,0-1.229,0-1.229,1.251-1.229" transform="translate(-275.252 -76.161)"/>
    <path id="Trazado_208596" data-name="Trazado 208596" d="M123.828,173.97h13.143a4.128,4.128,0,0,0-2.434,2.2c-.113.26-.276.26-.483.26q-3.56,0-7.119,0a.515.515,0,0,1-.538-.3,3.917,3.917,0,0,0-2.569-2.161" transform="translate(-98.152 -137.897)" fill="#f6fbfe"/>
    <path id="Trazado_208597" data-name="Trazado 208597" d="M135.079,102.034c1.751,0,1.724,0,1.752,1.77.009.579-.142.808-.724.716a3.986,3.986,0,0,0-.618-.005c-1.97,0-1.959,0-2.1-2-.026-.386.073-.507.449-.483.411.026.825.006,1.237.006" transform="translate(-105.73 -80.87)" fill="#a7e446"/>
    <path id="Trazado_208598" data-name="Trazado 208598" d="M163.347,104.422c-1.561,0-1.514,0-1.58-1.542-.033-.77.161-1.048.952-.954a9.784,9.784,0,0,0,1.925,0c.567-.046.653.2.54.66-.03.125-.053.251-.077.378-.274,1.455-.274,1.455-1.76,1.455" transform="translate(-128.221 -80.778)" fill="#a7e446"/>
    <path id="Trazado_208599" data-name="Trazado 208599" d="M163.24,126c1.3,0,1.3,0,1.1,1.28-.185,1.2-.185,1.2-1.385,1.2-1.08,0-1.08,0-1.08-1.112,0-1.369,0-1.369,1.365-1.369" transform="translate(-128.31 -99.871)" fill="#a7e446"/>
    <path id="Trazado_208600" data-name="Trazado 208600" d="M140.155,127.27c0,1.206-.006,1.134-1.2,1.23-.9.073-1.164-.275-1.267-1.1-.177-1.414-.223-1.409,1.18-1.409,1.285,0,1.285,0,1.285,1.275" transform="translate(-109.07 -99.87)" fill="#a7e446"/>
    <path id="Trazado_208601" data-name="Trazado 208601" d="M186.507,128.477c-1.171,0-1.171,0-1.007-1.136.194-1.345.194-1.345,1.549-1.345,1.094,0,1.094,0,.939,1.059-.007.051-.009.1-.016.153-.187,1.269-.187,1.269-1.465,1.269" transform="translate(-146.976 -99.87)" fill="#a7e446"/>
    <path id="Trazado_208602" data-name="Trazado 208602" d="M115.165,128.37c-1.226,0-1.226,0-1.413-1.258-.182-1.223-.182-1.223,1.086-1.223a2.266,2.266,0,0,0,.387,0c.615-.108.91.133.9.767a3.327,3.327,0,0,0,.1.532c.174,1.185.173,1.186-1.051,1.186" transform="translate(-90.097 -99.763)" fill="#a7e446"/>
    <path id="Trazado_208603" data-name="Trazado 208603" d="M182.644,152.406c-1.265,0-1.265,0-1.066-1.246s.2-1.236,1.491-1.236c1.178,0,1.178,0,.959,1.181-.009.051-.027.1-.037.15-.218,1.151-.217,1.151-1.347,1.151" transform="translate(-143.85 -118.838)" fill="#a7e446"/>
    <path id="Trazado_208604" data-name="Trazado 208604" d="M190.425,104.547c-1.268,0-1.268,0-1.033-1.246s.234-1.235,1.514-1.235c1.133,0,1.133,0,.935,1.159,0,.025-.008.051-.012.076-.2,1.246-.2,1.246-1.4,1.246" transform="translate(-150.026 -80.902)" fill="#a7e446"/>
    <path id="Trazado_208605" data-name="Trazado 208605" d="M111.233,104.547c-1.219,0-1.219,0-1.411-1.219-.2-1.262-.2-1.262,1.021-1.262,1.175,0,1.175,0,1.4,1.168,0,.025.014.05.019.075.233,1.238.233,1.238-1.025,1.238" transform="translate(-86.973 -80.902)" fill="#a7e446"/>
    <path id="Trazado_208606" data-name="Trazado 208606" d="M117.214,149.945c.211-.013.387-.032.564-.034,1.995-.026,1.987-.024,2.192,1.948.039.374.009.531-.442.545-1.933.063-1.933.081-2.218-1.839-.029-.2-.061-.394-.1-.62" transform="translate(-92.909 -118.823)" fill="#a7e446"/>
    <path id="Trazado_208607" data-name="Trazado 208607" d="M100.136,173.835a4.177,4.177,0,0,0-2.43,2.182c-.154.34-.362.315-.613.265a1.226,1.226,0,0,1-.971-1.305,1.158,1.158,0,0,1,1.158-1.13c.95-.043,1.9-.011,2.857-.011" transform="translate(-76.185 -137.781)" fill="#f4f9fc"/>
    <path id="Trazado_208608" data-name="Trazado 208608" d="M115.286,188.31a1.237,1.237,0,1,1,1.241-1.212,1.238,1.238,0,0,1-1.241,1.212" transform="translate(-90.406 -147.303)" fill="#dff7f9"/>
    <path id="Trazado_208609" data-name="Trazado 208609" d="M188.281,187.048a1.237,1.237,0,1,1-1.244-1.208,1.244,1.244,0,0,1,1.244,1.208" transform="translate(-147.281 -147.306)" fill="#dff7f9"/>
    <path id="Trazado_208610" data-name="Trazado 208610" d="M163.575,149.813c-.095.61-.207,1.217-.277,1.829-.05.43-.213.58-.68.608-.71.043-.991-.181-.862-.884a.438.438,0,0,0,0-.077c0-1.717,0-1.717,1.819-1.475" transform="translate(-128.191 -118.658)" fill="#a7e446"/>
    <path id="Trazado_208611" data-name="Trazado 208611" d="M143.161,151.109a1.82,1.82,0,0,1,0,.385c-.073.33.279.874-.486.861-.571-.01-1.1.049-1.07-.77a2.976,2.976,0,0,0-.108-.606c-.2-1.127-.2-1.092.959-1.133.58-.021.807.143.713.723a3.42,3.42,0,0,0,0,.54" transform="translate(-112.075 -118.774)" fill="#a7e446"/>
    <path id="Trazado_208612" data-name="Trazado 208612" d="M192.535,238.637c-3.483.011-6.966.055-10.448.014a2.463,2.463,0,0,1,0-4.91c3.482-.037,6.966,0,10.448.015,1.5.684,1.489,4.21,0,4.881" transform="translate(-142.539 -185.262)" fill="#fc4b52"/>
    <path id="Trazado_208613" data-name="Trazado 208613" d="M241.117,238.753a3.618,3.618,0,0,0,0-4.881,2.458,2.458,0,0,1,0,4.881" transform="translate(-191.121 -185.378)" fill="#c93c41"/>
    <path id="Trazado_208614" data-name="Trazado 208614" d="M72.936,238.631c-3.457.012-6.914.05-10.371.022a2.467,2.467,0,0,1,0-4.927c3.457-.025,6.914.011,10.371.023,1.5.686,1.49,4.207,0,4.882" transform="translate(-47.739 -185.256)" fill="#a7e446"/>
    <path id="Trazado_208615" data-name="Trazado 208615" d="M121.518,238.752a3.618,3.618,0,0,0,0-4.882,2.458,2.458,0,0,1,0,4.882" transform="translate(-96.321 -185.377)" fill="#85b638"/>
    <path id="Trazado_208616" data-name="Trazado 208616" d="M196.661,242.1c-1.469,0-2.938-.015-4.406.009-.428.007-.56-.107-.568-.552-.034-1.939-.05-1.939,1.878-1.939,2.474,0,4.947.013,7.421-.011.494,0,.648.115.647.631-.006,1.861.016,1.861-1.8,1.861h-3.169" transform="translate(-151.934 -189.924)"/>
    <path id="Trazado_208617" data-name="Trazado 208617" d="M77.073,239.627c1.468,0,2.937.014,4.4-.009.42-.006.566.094.575.546.037,1.944.054,1.943-1.874,1.943-2.473,0-4.946-.012-7.418.01-.484,0-.655-.1-.654-.625,0-1.866-.018-1.866,1.876-1.866h3.091" transform="translate(-57.155 -189.933)"/>
  </g>
</svg>
