<svg xmlns="http://www.w3.org/2000/svg" xmlns:xlink="http://www.w3.org/1999/xlink" width="122" height="122" viewBox="0 0 122 122">
  <defs>
    <clipPath id="clip-path">
      <circle id="Elipse_5552" data-name="Elipse 5552" cx="52.5" cy="52.5" r="52.5" transform="translate(748 1014)" fill="#a7e446"/>
    </clipPath>
    <clipPath id="clip-path-2">
      <rect id="Rectángulo_88006" data-name="Rectángulo 88006" width="97.553" height="97.404" fill="none"/>
    </clipPath>
  </defs>
  <g id="Grupo_138596" data-name="Grupo 138596" transform="translate(-740 -1005)">
    <g id="Elipse_5543" data-name="Elipse 5543" transform="translate(740 1005)" fill="#f5feff" stroke="#0082b2" stroke-width="2">
      <circle cx="61" cy="61" r="61" stroke="none"/>
      <circle cx="61" cy="61" r="60" fill="none"/>
    </g>
    <circle id="Elipse_5551" data-name="Elipse 5551" cx="43" cy="43" r="43" transform="translate(758 1023)" fill="#dff7f9"/>
    <g id="Enmascarar_grupo_117496" data-name="Enmascarar grupo 117496" clip-path="url(#clip-path)">
      <g id="Grupo_137606" data-name="Grupo 137606" transform="translate(752.219 1026.298)">
        <g id="Grupo_137605" data-name="Grupo 137605" clip-path="url(#clip-path-2)">
          <path id="Trazado_203683" data-name="Trazado 203683" d="M44.5,26.152a13.62,13.62,0,0,1,7.658-4.18,13.035,13.035,0,0,1,2.825-.216c3.793.012,7.588,0,11.381.005a6.419,6.419,0,0,1,6.4,5.827c.042.522.166.644.688.685a6.411,6.411,0,0,1,5.834,6.284c0,3.177-.02,6.354-.032,9.531a1.348,1.348,0,0,1-1.038.3c-1.752,0-3.5.057-5.253-.033a2.157,2.157,0,0,1-1.358-.8q-2.185-2.177-4.366-4.356c-.836-.831-.849-.833-1.38.169a13.965,13.965,0,0,1-3.8,4.406,1.945,1.945,0,0,1-1.553.61c-3.388,0-6.775.008-10.161,0a6.76,6.76,0,0,1-7.131-7.136,51.351,51.351,0,0,1,.219-8.2,8.578,8.578,0,0,1,.442-1.87,7.126,7.126,0,0,0,.624-1.027" transform="translate(-10.975 -5.532)" fill="#5a5b5d"/>
          <path id="Trazado_203684" data-name="Trazado 203684" d="M62.459,49.809a12.9,12.9,0,0,0,5.5-6.283L74.2,49.631a3.51,3.51,0,0,1,2.187,3.9c.038,2.717.014,5.434.015,8.151a1.859,1.859,0,0,1-.321,1.336,14.879,14.879,0,0,1-8.138,11.56A8.043,8.043,0,0,1,61.5,75.922,14.937,14.937,0,0,1,49.777,61.415q-.008-4.2,0-8.4a2.014,2.014,0,0,1,.28-1.453,2.856,2.856,0,0,1,1.483-.213c1.923-.063,3.849.11,5.771-.125a13.221,13.221,0,0,0,4.074-1.164,2.038,2.038,0,0,1,1.07-.253" transform="translate(-12.657 -11.069)" fill="#fee1d4"/>
          <path id="Trazado_203685" data-name="Trazado 203685" d="M84.376,121.331l-13.051,0c-.647-1.213-.507-2.569-.635-3.859-.4-4.029-.813-8.058-1.2-12.087a16.085,16.085,0,0,1,2.137-4.348.582.582,0,0,1,.746.078c.568.544.937.186,1.352-.223,2.253-2.224,4.435-4.517,6.749-6.681,2.433.777,5,1.186,7.257,2.45a14.683,14.683,0,0,1,7.812,10.912c.445,2.78.109,5.585.189,8.377.044,1.551-.011,3.1.017,4.656.01.572-.192.764-.762.758-2.468-.029-4.935-.023-7.4-.031a2.052,2.052,0,0,1-.291-1.455c-.012-2.231.006-4.463-.013-6.694,0-.415.142-.969-.4-1.145a2.615,2.615,0,0,0-1.89.04c-.427.2-.309.712-.311,1.105-.013,2.231,0,4.463-.011,6.694a2.044,2.044,0,0,1-.291,1.455" transform="translate(-17.671 -23.957)" fill="#e0f6be"/>
          <path id="Trazado_203686" data-name="Trazado 203686" d="M52.694,121.817l-13.056,0a2.043,2.043,0,0,1-.291-1.455c-.012-2.231.005-4.462-.013-6.694,0-.414.142-.969-.4-1.145a2.612,2.612,0,0,0-1.89.04c-.427.2-.309.711-.311,1.1-.013,2.232,0,4.463-.011,6.694a2.043,2.043,0,0,1-.291,1.455l-1.659,0a1.707,1.707,0,0,1-.26-1.255c-.005-3.509-.136-7.025.028-10.526A14.824,14.824,0,0,1,42.12,97.3c3.213-1.906,2.7-1.333,4.814.681,1.076,1.025,2.121,2.083,3.154,3.151.506.523.979.95,1.715.371a.524.524,0,0,1,.579.014,16.538,16.538,0,0,1,2.105,4,1.631,1.631,0,0,1,.053.8c-.487,4.723-.974,9.445-1.418,14.172a2.2,2.2,0,0,1-.429,1.325" transform="translate(-8.763 -24.446)" fill="#e0f6be"/>
          <path id="Trazado_203687" data-name="Trazado 203687" d="M50.109,100.326c-.577-.014-.785.9-1.24.7a5.491,5.491,0,0,1-1.422-1.262q-2.125-2.1-4.233-4.224c-.3-.3-.528-.515-1.034-.293-5.256,2.3-8.475,6.2-9.316,11.9-.528,3.584-.1,7.2-.21,10.808-.027.877-.01,1.755-.013,2.632-1.93.008-3.86.005-5.789.033-.515.007-.719-.151-.716-.692.022-3.919-.195-7.854.072-11.757A14.931,14.931,0,0,1,37.319,94.69c3.858-1.112,7.722-2.205,11.583-3.307a.714.714,0,0,1,.673.077c1.775.878,3.553,1.749,5.314,2.657a.956.956,0,0,1,.433.406.837.837,0,0,1,.051.293,1.013,1.013,0,0,1-.32.614c-1.638,1.643-3.235,3.326-4.944,4.9" transform="translate(-6.63 -23.224)" fill="#a7e446"/>
          <path id="Trazado_203688" data-name="Trazado 203688" d="M58,85.139c-2.034-1.224-4.223-2.149-6.318-3.256,0-1.318-.022-2.637.026-3.953A1.157,1.157,0,0,0,51,76.754,14.227,14.227,0,0,1,43.895,67c-.219-1.082-.518-1.434-1.617-1.357a4.634,4.634,0,0,1-4.748-2.816,4.537,4.537,0,0,1,1.016-5.481,1.782,1.782,0,0,0,.172-.25,3.507,3.507,0,0,1,3.144-1.441c.75-.042,1.429-.028,1.511-1.016a.536.536,0,0,1,.441-.5,4.362,4.362,0,0,1,3.013.2c0,3.375-.112,6.755.019,10.124a14.093,14.093,0,0,0,7.027,12.02,10.991,10.991,0,0,0,6.372,1.972,16.585,16.585,0,0,0,4.46-1.219q-.009.8-.018,1.6a1.662,1.662,0,0,1-.816.567,14.424,14.424,0,0,1-7.525,1.019c-.368-.052-.869-.312-1.054.232a1.067,1.067,0,0,0,.549,1.371c.949.513,1.931.96,2.885,1.465.378.2.834.317.991.8A1.35,1.35,0,0,1,58,85.139" transform="translate(-9.413 -13.724)" fill="#edb8ac"/>
          <path id="Trazado_203689" data-name="Trazado 203689" d="M22.945,5.678c.4.957.855,1.9,1.2,2.878a1.561,1.561,0,0,0,1.33,1.151c2.183.4,4.356.843,6.535,1.262a.72.72,0,0,1,.6.341c-1.311,1.306-2.6,2.678-3.992,3.94a1.835,1.835,0,0,0-.559,2.034c.5,2.22.911,4.459,1.409,6.943-1.508-.892-2.825-1.666-4.138-2.449-1.1-.658-2.212-1.3-3.289-2a1.307,1.307,0,0,0-1.576.021A31.624,31.624,0,0,1,16.8,21.926a7.579,7.579,0,0,1,.391-2.977c.611-3.52.981-2.387-1.518-4.969-.611-.632-1.259-1.229-1.86-1.87-.768-.82-.676-1.16.41-1.4,1.652-.365,3.306-.762,4.98-.975A2.637,2.637,0,0,0,21.776,7.61a6.92,6.92,0,0,1,.656-1.59c.1-.192.184-.466.513-.343" transform="translate(-3.385 -1.436)" fill="#f8ca6e"/>
          <path id="Trazado_203690" data-name="Trazado 203690" d="M105.829,5.678c.4.957.855,1.9,1.2,2.878a1.561,1.561,0,0,0,1.33,1.151c2.183.4,4.356.843,6.535,1.262a.72.72,0,0,1,.6.341c-1.311,1.306-2.6,2.678-3.992,3.94a1.835,1.835,0,0,0-.559,2.034c.5,2.22.911,4.459,1.409,6.943-1.508-.892-2.825-1.666-4.138-2.449-1.1-.658-2.213-1.3-3.289-2a1.307,1.307,0,0,0-1.576.021,31.623,31.623,0,0,1-3.667,2.125,7.579,7.579,0,0,1,.391-2.977c.611-3.52.981-2.387-1.518-4.969-.611-.632-1.259-1.229-1.86-1.87-.768-.82-.676-1.16.41-1.4,1.652-.365,3.306-.762,4.98-.975A2.637,2.637,0,0,0,104.66,7.61a6.92,6.92,0,0,1,.656-1.59c.1-.192.184-.466.513-.343" transform="translate(-24.462 -1.436)" fill="#f8ca6e"/>
          <path id="Trazado_203691" data-name="Trazado 203691" d="M14.22,44.863c.4.957.855,1.9,1.2,2.878a1.561,1.561,0,0,0,1.33,1.151c2.183.4,4.356.843,6.535,1.262a.828.828,0,0,1,.618.328c-1.325,1.32-2.615,2.691-4.006,3.953a1.835,1.835,0,0,0-.559,2.034c.5,2.22.911,4.459,1.409,6.943-1.508-.892-2.825-1.666-4.138-2.449-1.1-.658-2.212-1.3-3.289-2a1.307,1.307,0,0,0-1.576.021,31.624,31.624,0,0,1-3.667,2.125,7.579,7.579,0,0,1,.391-2.977c.611-3.52.981-2.387-1.518-4.969-.611-.632-1.259-1.229-1.86-1.87-.768-.82-.676-1.16.41-1.4,1.652-.365,3.306-.762,4.98-.975A2.637,2.637,0,0,0,13.051,46.8a6.92,6.92,0,0,1,.656-1.59c.1-.192.184-.466.513-.343" transform="translate(-1.166 -11.401)" fill="#f8ca6e"/>
          <path id="Trazado_203692" data-name="Trazado 203692" d="M114.554,44.863c.4.957.855,1.9,1.2,2.878a1.561,1.561,0,0,0,1.33,1.151c2.183.4,4.356.843,6.535,1.262a.828.828,0,0,1,.618.328c-1.325,1.32-2.615,2.691-4.006,3.953a1.835,1.835,0,0,0-.559,2.034c.5,2.22.911,4.459,1.409,6.943-1.508-.892-2.825-1.666-4.138-2.449-1.1-.658-2.212-1.3-3.289-2a1.307,1.307,0,0,0-1.576.021,31.624,31.624,0,0,1-3.667,2.125,7.579,7.579,0,0,1,.391-2.977c.611-3.52.981-2.387-1.518-4.969-.611-.632-1.259-1.229-1.86-1.87-.768-.82-.676-1.16.41-1.4,1.652-.365,3.306-.762,4.98-.975a2.637,2.637,0,0,0,2.573-2.124,6.92,6.92,0,0,1,.656-1.59c.1-.192.184-.466.513-.343" transform="translate(-26.681 -11.401)" fill="#f8ca6e"/>
          <path id="Trazado_203693" data-name="Trazado 203693" d="M67.471,108.712q.413,3.85.825,7.7.388,3.651.766,7.3c.04.4.023.808.032,1.211l-8.124-.008c-.512-.878-.113-1.792-.031-2.663.371-3.962.793-7.919,1.167-11.88.167-1.778.363-2.007,2.2-1.954,1.057.031,2.161-.306,3.169.292" transform="translate(-15.439 -27.554)" fill="#ec8484"/>
          <path id="Trazado_203694" data-name="Trazado 203694" d="M47.389,47.864c-.642-.011-1.284-.007-1.925-.037-.814-.039-1.591-.1-1.349,1.14.119.611-.411.5-.749.479a5.767,5.767,0,0,0-4.086,1.177c-.005-4.462-.114-8.925.019-13.382a13.078,13.078,0,0,1,3.582-8.7c.2-.057.292.005.239.221-.969,3.679-.62,7.435-.583,11.16.03,3.045,3.078,5.853,6.139,5.875,3.348.024,6.7,0,10.045.013.356,0,.751-.135,1.058.183a12.717,12.717,0,0,1-6.725,1.833c-1.888.04-3.777.028-5.665.039" transform="translate(-9.977 -7.253)" fill="#3f4042"/>
          <path id="Trazado_203695" data-name="Trazado 203695" d="M66.859,105.551c-1.353,0-2.707.019-4.06,0-.523-.008-.786.108-.838.706-.155,1.768-.387,3.53-.576,5.3q-.4,3.7-.776,7.4c-.1.934-.167,1.872-.25,2.808l-1.6.008q.453-4.575.906-9.149.333-3.318.685-6.634a1.529,1.529,0,0,0-.205-.872q-.922-1.805-1.838-3.613c.019-.462.4-.679.673-.96q2.209-2.268,4.434-4.523c.436-.245.7.073.955.321q2.131,2.083,4.218,4.21c.247.252.581.509.342.952l-2.071,4.054" transform="translate(-14.827 -24.394)" fill="#e46a6a"/>
          <path id="Trazado_203696" data-name="Trazado 203696" d="M70.671,100.345a1.8,1.8,0,0,0-.251-.531c-1.567-1.584-3.148-3.154-4.723-4.729a.684.684,0,0,0-.541-.224c0-.068,0-.136,0-.2a3.9,3.9,0,0,0,1.626-.807A16.9,16.9,0,0,1,71.873,91.4l7.5,2.1c-.007.432-.365.626-.618.88-2.019,2.027-4.063,4.029-6.06,6.077-.553.567-.989.9-1.575.086-.081-.112-.3-.129-.447-.19" transform="translate(-16.569 -23.242)" fill="#a7e446"/>
          <path id="Trazado_203697" data-name="Trazado 203697" d="M21.779,4.242a15.437,15.437,0,0,0-1.361,3.119,1.447,1.447,0,0,1-1.256.966c-2.115.381-4.221.808-6.328,1.229a4.169,4.169,0,0,0-.685.3C13.512,11.2,14.782,12.5,16.1,13.743a1.633,1.633,0,0,1,.585,1.838c-.438,1.612-.711,3.269-1.052,4.908l-3.657,2.245c.512-2.6.954-5.019,1.485-7.415A1.229,1.229,0,0,0,13.035,14c-1.4-1.359-2.777-2.742-4.31-4.261,2.139-.434,4.037-.942,5.969-1.172a3.086,3.086,0,0,0,2.987-2.4C18.3,4.155,19.213,2.232,20.108,0l1.671,4.242" transform="translate(-2.219)" fill="#e6b441"/>
          <path id="Trazado_203698" data-name="Trazado 203698" d="M104.663,4.242A15.437,15.437,0,0,0,103.3,7.361a1.447,1.447,0,0,1-1.256.966c-2.115.381-4.221.808-6.328,1.229a4.17,4.17,0,0,0-.685.3C96.4,11.2,97.666,12.5,98.985,13.743a1.633,1.633,0,0,1,.585,1.838c-.438,1.612-.711,3.269-1.052,4.908l-3.657,2.245c.512-2.6.954-5.019,1.485-7.415A1.229,1.229,0,0,0,95.919,14c-1.4-1.36-2.777-2.742-4.31-4.262,2.139-.434,4.037-.942,5.969-1.172a3.086,3.086,0,0,0,2.987-2.4c.623-2.012,1.532-3.935,2.427-6.167l1.671,4.242" transform="translate(-23.296)" fill="#e6b441"/>
          <path id="Trazado_203699" data-name="Trazado 203699" d="M13.054,43.427a15.437,15.437,0,0,0-1.361,3.119,1.447,1.447,0,0,1-1.256.966c-2.115.381-4.221.808-6.328,1.229a4.17,4.17,0,0,0-.685.3c1.362,1.346,2.633,2.641,3.951,3.885a1.633,1.633,0,0,1,.585,1.838c-.438,1.612-.711,3.269-1.052,4.908L3.252,61.919c.512-2.6.954-5.019,1.485-7.415a1.229,1.229,0,0,0-.427-1.315c-1.4-1.36-2.777-2.743-4.31-4.262,2.139-.434,4.037-.942,5.969-1.172a3.086,3.086,0,0,0,2.987-2.4c.623-2.012,1.532-3.935,2.427-6.167l1.671,4.242" transform="translate(0 -9.965)" fill="#e6b441"/>
          <path id="Trazado_203700" data-name="Trazado 203700" d="M113.388,43.427a15.437,15.437,0,0,0-1.361,3.119,1.448,1.448,0,0,1-1.256.966c-2.115.381-4.221.808-6.328,1.229a4.17,4.17,0,0,0-.685.3c1.362,1.346,2.633,2.641,3.951,3.885a1.633,1.633,0,0,1,.585,1.838c-.438,1.612-.711,3.269-1.052,4.908l-3.657,2.245c.512-2.6.954-5.019,1.485-7.415a1.229,1.229,0,0,0-.427-1.315c-1.4-1.36-2.777-2.742-4.31-4.262,2.139-.434,4.037-.942,5.969-1.172a3.086,3.086,0,0,0,2.987-2.4c.623-2.012,1.532-3.935,2.427-6.167l1.671,4.242" transform="translate(-25.515 -9.965)" fill="#e6b441"/>
          <path id="Trazado_203701" data-name="Trazado 203701" d="M85.059,66.237l.016-9.769c1.649-.663,4-.083,4.834,1.193a4.9,4.9,0,0,1-3.329,8.57c-.507,0-1.013,0-1.52.007" transform="translate(-21.63 -14.289)" fill="#edb8ac"/>
          <path id="Trazado_203702" data-name="Trazado 203702" d="M37.092,127.26c-.007-2.966,0-5.932-.037-8.9-.01-.692.247-.831.881-.835,2.387-.016,2.389-.037,2.385,2.352q-.006,3.69-.022,7.38H37.092" transform="translate(-9.423 -29.887)" fill="#a7e446"/>
          <path id="Trazado_203703" data-name="Trazado 203703" d="M89.44,127.26c-.007-2.966,0-5.932-.037-8.9-.01-.693.247-.831.881-.835,2.387-.016,2.389-.037,2.385,2.352q-.006,3.69-.022,7.38H89.44" transform="translate(-22.735 -29.887)" fill="#a7e446"/>
          <path id="Trazado_203704" data-name="Trazado 203704" d="M70.808,90.359c-1.7.814-3.321,1.783-5.089,2.454-1.26-.857-2.695-1.383-4.025-2.107a2.013,2.013,0,0,1-.616-2.112c.114-.181.26-.154.434-.116a15.357,15.357,0,0,0,9.265-1.163q.015,1.522.031,3.044" transform="translate(-15.504 -22.204)" fill="#fee1d4"/>
          <path id="Trazado_203705" data-name="Trazado 203705" d="M89.268,56.52c-1.413-1.2-3.119-1.219-4.834-1.193.514-1.8-1.1-2.5-1.9-3.617l6.725-.006q0,2.408.005,4.816" transform="translate(-20.989 -13.148)" fill="#3f4042"/>
          <path id="Trazado_203706" data-name="Trazado 203706" d="M44.364,28.541l-.239-.221a1.542,1.542,0,0,1,.618-.668,1.083,1.083,0,0,1-.379.89" transform="translate(-11.221 -7.032)" fill="#494a4c"/>
        </g>
      </g>
    </g>
  </g>
</svg>
