<svg id="Grupo_138163" data-name="Grupo 138163" xmlns="http://www.w3.org/2000/svg" xmlns:xlink="http://www.w3.org/1999/xlink" width="66.328" height="79.557" viewBox="0 0 66.328 79.557">
  <defs>
    <clipPath id="clip-path">
      <rect id="Rect치ngulo_88481" data-name="Rect치ngulo 88481" width="66.328" height="79.556" fill="none"/>
    </clipPath>
    <clipPath id="clip-path-2">
      <rect id="Rect치ngulo_88482" data-name="Rect치ngulo 88482" width="36.388" height="36.188" transform="translate(0 5.099) rotate(-8.056)" fill="none"/>
    </clipPath>
  </defs>
  <g id="Grupo_138164" data-name="Grupo 138164">
    <g id="Grupo_138163-2" data-name="Grupo 138163" clip-path="url(#clip-path)">
      <path id="Trazado_210117" data-name="Trazado 210117" d="M15.977,6.546c.06-.742.48-1.049,1.207-1.152Q26.92,4.022,36.649,2.606,45.495,1.328,54.339.037c1.08-.158,1.565.178,1.723,1.237q2.551,17.153,5.1,34.307Q63.5,51.314,65.829,67.049c.156,1.049.315,2.1.466,3.147.145,1-.176,1.464-1.158,1.649a7.318,7.318,0,0,1-1.535.221c-.793-.024-.8.365-.686.962.279,1.526.543,3.056.77,4.59.163,1.107-.285,1.6-1.41,1.612-2.153.016-4.307,0-6.459.022a1.186,1.186,0,0,1-1.351-1.087c-.188-.822.259-1.4,1.2-1.455,1.19-.07,2.383-.018,3.575-.024,1.892-.009,1.708.129,1.419-1.674-.041-.256-.088-.51-.129-.766-.266-1.693-.242-1.467-1.683-1.258q-13.117,1.9-26.235,3.778a18.27,18.27,0,0,1-2.837.3c-.081-.038.042.008-.061,0-.08,0-.074,0,.02,0a8.4,8.4,0,0,0,2.1-.2c3.676-.108,7.351-.049,11.024-.035,1.349.005,2.683-.193,4.029-.167a2.535,2.535,0,0,1,1.282.244c.466.276.855.616.576,1.248-.118.849-.628,1.14-1.456,1.144-4.658.024-9.316.077-13.974.12a9.756,9.756,0,0,1-1.55.05H13.753a6.654,6.654,0,0,0-1.6.08h-1.09a1.98,1.98,0,0,1-.826-1.471Q8.326,64.995,6.367,51.912,4.375,38.52,2.376,25.13,1.2,17.226.033,9.319c-.146-.993.181-1.473,1.182-1.626,2.663-.407,5.333-.773,8-1.174a1.256,1.256,0,0,1,1.54.954c.228.776-.123,1.348-1.014,1.542-1.09.238-2.2.341-3.305.506-.949.142-1.9.3-2.849.4-.645.068-.81.348-.716.97.448,2.969.9,5.937,1.326,8.909.332,2.306.7,4.606,1.015,6.914.145,1.051.222,1.121,1.3.961,6.487-.97,12.987-1.847,19.477-2.8q8.5-1.247,17.013-2.442c1.354-.192,1.367-.188,1.17-1.527-.755-5.121-1.5-10.243-2.285-15.36-.167-1.088-.192-1.105-1.288-.942C32.974,5.742,25.346,6.793,17.725,7.887A1.743,1.743,0,0,1,16.38,7.7a.985.985,0,0,1-.4-1.155" transform="translate(0 0)" fill="#060606"/>
      <path id="Trazado_210118" data-name="Trazado 210118" d="M24.084,157.553c.495-.316,1.042-.089,1.562-.15.048.035.064.069.046.1s-.034.048-.05.048Z" transform="translate(-11.936 -77.997)" fill="#161616"/>
      <path id="Trazado_210119" data-name="Trazado 210119" d="M27.17,157.575c0-.05,0-.1,0-.15l1.556,0c.049.034.065.068.047.1s-.034.048-.05.048Z" transform="translate(-13.465 -78.019)" fill="#272727"/>
      <path id="Trazado_210120" data-name="Trazado 210120" d="M32.983,157.444l1.558.008c.046.032.061.062.043.091s-.033.042-.049.042H32.979c-.052-.033-.069-.065-.05-.1s.036-.045.054-.045" transform="translate(-16.316 -78.028)" fill="#474747"/>
      <path id="Trazado_210121" data-name="Trazado 210121" d="M36.121,157.593c0-.044,0-.089.006-.133h1.556c.047.031.062.062.045.09s-.033.042-.05.042Z" transform="translate(-17.901 -78.036)" fill="#595959"/>
      <path id="Trazado_210122" data-name="Trazado 210122" d="M39.208,157.59c0-.044,0-.088.005-.133l1.555,0c.048.031.064.062.047.091s-.033.044-.05.044Z" transform="translate(-19.431 -78.034)" fill="#6a6a6a"/>
      <path id="Trazado_210123" data-name="Trazado 210123" d="M45.02,157.464l1.556,0c.048.03.065.06.047.089s-.033.043-.05.043H45.016c-.051-.031-.068-.06-.05-.088s.036-.042.054-.042" transform="translate(-22.281 -78.037)" fill="#8b8b8b"/>
      <path id="Trazado_210124" data-name="Trazado 210124" d="M50.884,157.469l1.557,0c.048.03.064.059.047.087s-.033.042-.05.042H50.88c-.051-.029-.068-.058-.049-.086s.035-.041.053-.041" transform="translate(-25.188 -78.04)" fill="#ababab"/>
      <path id="Trazado_210125" data-name="Trazado 210125" d="M54.023,157.595c0-.043,0-.086,0-.129h1.556c.049.03.065.059.048.088s-.033.043-.05.043Z" transform="translate(-26.774 -78.038)" fill="#bcbcbc"/>
      <path id="Trazado_210126" data-name="Trazado 210126" d="M59.834,157.468l1.557,0c.049.03.065.059.048.087s-.033.042-.05.042H59.831q-.076-.045-.05-.086c.017-.028.035-.042.052-.042" transform="translate(-29.624 -78.039)" fill="#ddd"/>
      <path id="Trazado_210127" data-name="Trazado 210127" d="M62.974,157.595c0-.043,0-.086,0-.129h1.557c0,.044,0,.087,0,.131Z" transform="translate(-31.21 -78.038)" fill="#ededed"/>
      <path id="Trazado_210128" data-name="Trazado 210128" d="M31.663,157.436q0,.07,0,.141h-1.4c0-.05,0-.1,0-.149l1.4.009" transform="translate(-14.995 -78.02)" fill="#383838"/>
      <path id="Trazado_210129" data-name="Trazado 210129" d="M43.7,157.46c0,.043,0,.087,0,.13h-1.4c0-.045,0-.09,0-.135l1.4.005" transform="translate(-20.961 -78.034)" fill="#7a7a7a"/>
      <path id="Trazado_210130" data-name="Trazado 210130" d="M49.563,157.467c0,.042,0,.085,0,.127h-1.4c0-.044,0-.087,0-.131l1.4,0" transform="translate(-23.867 -78.038)" fill="#9a9a9a"/>
      <path id="Trazado_210131" data-name="Trazado 210131" d="M58.513,157.467c0,.043,0,.085,0,.128h-1.4c0-.044,0-.087,0-.131l1.4,0" transform="translate(-28.303 -78.038)" fill="#ccc"/>
      <path id="Trazado_210132" data-name="Trazado 210132" d="M18.456,10.707c.2,1.02.6,1.29,1.624,1.143Q29.657,10.47,39.235,9.1c1.538-.22,3.08-.423,4.611-.685.463-.08.589.055.65.47.781,5.349,1.582,10.694,2.355,16.044.245,1.694.208,1.666-1.532,1.912Q35.353,28.251,25.394,29.7c-5.717.82-11.437,1.628-17.151,2.468-.489.072-.6-.027-.666-.5-.7-4.812-1.419-9.62-2.136-14.429-.133-.9-.246-1.795-.415-2.683-.085-.45.049-.57.488-.628,2.132-.282,4.258-.6,6.386-.91,1-.145,1.206-.356,1.332-1.381,1.6-.221,3.2-.447,4.8-.657a.584.584,0,0,0,.421-.271" transform="translate(-2.478 -4.161)" fill="#feca2e"/>
      <path id="Trazado_210133" data-name="Trazado 210133" d="M58.7,148.237c2.768-.381,5.537-.751,8.3-1.146q7.913-1.131,15.822-2.286c2.023-.293,4.047-.575,6.066-.89.5-.079.735-.025.8.562.114,1.051.311,2.1.526,3.131.1.483.016.625-.5.615-1.579-.029-3.16-.008-4.74,0-.969.006-1.269.276-1.419,1.249l-5.711,0c-.235-.955-.492-1.2-1.422-1.192q-7.86.051-15.719.126a12.017,12.017,0,0,1-1.778.044c-.136,0-.259-.027-.225-.212" transform="translate(-29.087 -71.309)" fill="#ccced3"/>
      <path id="Trazado_210134" data-name="Trazado 210134" d="M64.035,93.816q-3.031.461-6.062.922c-.353.053-.708.1-1.073.149.018-.277.24-.36.374-.5a6.055,6.055,0,0,0-.615-9.1c-1.056-.847-1.115-1.17-.38-2.325a12.324,12.324,0,0,0,1.566-3.1,5.635,5.635,0,0,0-.5-4.491,8.63,8.63,0,0,0-1.883-2.356,9.237,9.237,0,0,1-2.947-5.984,37.6,37.6,0,0,0-1.227-6.782,11.647,11.647,0,0,0-1.149-2.535,7.31,7.31,0,0,0-7.694-3.69,12.86,12.86,0,0,1-3.269-.373c-4.2-.4-7.876.555-10.606,4-.293.369-.533.259-.865.165A8.4,8.4,0,0,0,17.276,63.6a8.251,8.251,0,0,0,7.387,10.34c1.056.072,1.221.3.975,1.349a11.375,11.375,0,0,1-.929,2.293,15.067,15.067,0,0,0-1.056,2.741,5.71,5.71,0,0,0,1.028,5.055,9.916,9.916,0,0,0,1.741,1.766c1.347,1.1,1.376,1.246.667,2.8a6.17,6.17,0,0,0,2.771,8.172c.269.146.551.27,1.024.5-1.5.223-2.809.424-4.118.61-2.718.388-5.441.746-8.152,1.173-.553.087-.714-.024-.79-.548q-1.012-7.027-2.059-14.049-1.357-9.172-2.724-18.342C12.4,63.143,11.764,58.819,11.1,54.5c-.088-.579.083-.727.654-.808,7.08-.995,14.156-2.024,21.233-3.04q10-1.435,20-2.859c1.178-.168,2.36-.312,3.54-.467.5-.153.9-.078.994.508.371,2.353.769,4.7,1.023,7.071a.5.5,0,0,1-.026.152c-.168.365-.521.385-.849.448-.967.185-1.954.24-2.921.429-.392.077-.756.2-.881.65a.9.9,0,0,0,1.049,1.2c.875-.1,1.746-.227,2.619-.342a1.823,1.823,0,0,1,1.214.095,2.488,2.488,0,0,1,.358,1.761c-.154.292-.439.332-.724.371-.795.107-1.584.253-2.384.325a4.638,4.638,0,0,0-.839.149.889.889,0,0,0-.747,1.018.907.907,0,0,0,1.055.8c.827-.053,1.645-.185,2.465-.308a2.717,2.717,0,0,1,1.306.018c.6.487.494,1.167.494,1.817-.171.324-.487.344-.8.376-.873.09-1.734.269-2.609.34a2.066,2.066,0,0,0-.675.162.856.856,0,0,0-.6,1.032.891.891,0,0,0,.958.735c.852-.032,1.692-.181,2.537-.285a3.41,3.41,0,0,1,1.231-.016c.467.186.514.612.576,1.021,1.117,7.438,2.235,14.876,3.305,22.322.169,1.177.361,2.351.527,3.528a1.3,1.3,0,0,1-.153,1.112" transform="translate(-5.492 -23.42)" fill="#f1f1f1"/>
      <path id="Trazado_210135" data-name="Trazado 210135" d="M103.088,54.328q-.468-3.041-.935-6.082c-.062-.406-.125-.812-.157-1.221-.044-.55-.464-.45-.806-.5q2.8-.434,5.593-.87c.387-.061.327.228.359.444q.776,5.218,1.551,10.435,1.36,9.17,2.718,18.34,1.259,8.479,2.526,16.956c.042.28.075.5-.318.544-1.644.2-3.285.426-4.927.642-.057-1.776-.465-3.506-.7-5.258-.31-2.336-.676-4.666-1.017-7-.319-2.181-.633-4.362-.959-6.542-.349-2.331-.711-4.66-1.062-6.991-.069-.456-.091-.922-.185-1.371-.06-.283-.083-.641-.493-.7.1-.322.386-.3.631-.334.33-.05.658-.116.989-.166a.865.865,0,0,0,.845-.992.987.987,0,0,0-1.081-.877,5.332,5.332,0,0,0-.535.069c-.28.029-.568.082-.8-.158-.32-.535.034-1.272-.521-1.737.1-.323.387-.3.632-.333q.458-.071.91-.17a.853.853,0,0,0,.755-1.06.923.923,0,0,0-1.066-.785c-.449.013-.913.247-1.333-.106a13.6,13.6,0,0,1-.32-1.747c.06-.316.333-.282.549-.318a7.293,7.293,0,0,0,.837-.172.933.933,0,0,0-.337-1.834c-.456.028-.924.21-1.351-.112" transform="translate(-50.149 -22.625)" fill="#e0e2e7"/>
      <path id="Trazado_210136" data-name="Trazado 210136" d="M96.716,5.707l4.668-.736c.492-.077.386.346.421.567.3,1.888.558,3.782.838,5.673.546,3.68,1.077,7.361,1.661,11.034.116.725-.007.993-.79,1.058-1.39.116-2.768.364-4.15.557A.91.91,0,0,1,99,23.134a8,8,0,0,1-.192-2.486c1.122-.551,1.128-1.457.923-2.536-.4-2.132-.7-4.286-.964-6.438-.139-1.113-.421-1.939-1.658-2.111a17.61,17.61,0,0,1-.587-3.218.758.758,0,0,1,.195-.639" transform="translate(-47.83 -2.459)" fill="#85b638"/>
      <path id="Trazado_210137" data-name="Trazado 210137" d="M94.575,21.357q.232,1.618.465,3.236c-1.354.208-2.71.406-4.062.629-.434.072-.562-.062-.625-.5q-1.245-8.587-2.543-17.166c-.053-.354-.032-.524.357-.571,1.41-.171,2.819-.361,4.227-.543-.01,1.305.421,2.557.47,3.855a3.123,3.123,0,0,0-.275,2.657c.341,2.063.615,4.136.911,6.205a2.973,2.973,0,0,0,1.075,2.2" transform="translate(-43.507 -3.191)" fill="#a7e446"/>
      <path id="Trazado_210138" data-name="Trazado 210138" d="M57.986,152.487c.646.316,1.344.009,2,.168a16.292,16.292,0,0,1-2.731.154c.191-.422.466-.357.728-.322" transform="translate(-28.377 -75.559)" fill="#363637"/>
      <path id="Trazado_210139" data-name="Trazado 210139" d="M23.179,29.515c-.2,1.429-.423,2.831-.6,4.238-.093.731-.345,1.308-1.133,1.471-.764.157-1.269-.169-1.671-1.047q-.87-1.9-1.735-3.806c-.006-.014-.042-.014-.156-.046-.054,1.372-.109,2.722-.162,4.073a1.4,1.4,0,0,1-.444,1.19,1.166,1.166,0,0,1-1.245.138,1.063,1.063,0,0,1-.653-1.123q.132-3.335.26-6.67c.025-.646.05-1.293.085-1.938A1.343,1.343,0,0,1,16.9,24.583a1.3,1.3,0,0,1,1.484.851c.733,1.617,1.467,3.234,2.282,5.03.28-1.916.55-3.639.776-5.367a1.341,1.341,0,0,1,1.269-1.33,1.355,1.355,0,0,1,1.479,1.1c.881,2.645,1.791,5.28,2.678,7.922.286.851.054,1.416-.633,1.659-.731.258-1.282-.052-1.585-.917-.46-1.313-.906-2.632-1.361-3.947-.005-.015-.034-.022-.111-.067" transform="translate(-7.621 -11.775)" fill="#060606"/>
      <path id="Trazado_210140" data-name="Trazado 210140" d="M69.508,24.145a4.912,4.912,0,0,1-4.763,5.26,5.62,5.62,0,1,1,1.729-10.868c.986.376,1.295.851,1.035,1.59-.27.769-.844.96-1.835.608a3.259,3.259,0,0,0-3.72.974,3.279,3.279,0,0,0,3.164,5.311,2.5,2.5,0,0,0,1.958-1.968c.066-.325.008-.436-.32-.385-.281.043-.563.085-.845.118a1.142,1.142,0,0,1-1.365-.954,1.1,1.1,0,0,1,.966-1.335c.739-.129,1.484-.226,2.229-.317,1.26-.154,1.716.241,1.766,1.5.006.155,0,.31,0,.466" transform="translate(-29.18 -8.999)" fill="#060606"/>
      <path id="Trazado_210141" data-name="Trazado 210141" d="M50.1,30.708a1.207,1.207,0,0,1-.783,1.1,1.044,1.044,0,0,1-1.219-.215,1.921,1.921,0,0,1-.271-.376c-.759-1.254-.758-1.252-2.168-1.02a8.065,8.065,0,0,1-1.382.193c-.665-.007-1.015.235-1.04.919a2.757,2.757,0,0,1-.14.6,1.172,1.172,0,1,1-2.265-.58q.855-3.735,1.727-7.468c.123-.528.246-1.056.379-1.581A1.293,1.293,0,0,1,44.1,21.3a1.183,1.183,0,0,1,1.271.575c1.558,2.826,3.087,5.667,4.622,8.506a1.648,1.648,0,0,1,.105.332" transform="translate(-20.21 -10.545)" fill="#060606"/>
      <path id="Trazado_210142" data-name="Trazado 210142" d="M101.372,71.021a4.714,4.714,0,0,0,1.23-.106,1.121,1.121,0,0,1,1.424.948,1.1,1.1,0,0,1-1.035,1.348q-.758.135-1.518.266c-1.177.141-2.355.277-3.531.425-.806.1-1.307-.21-1.44-.917-.141-.756.218-1.242,1.071-1.371,1.1-.165,2.2-.3,3.3-.432a.884.884,0,0,0,.5-.16" transform="translate(-47.812 -35.135)" fill="#060606"/>
      <path id="Trazado_210143" data-name="Trazado 210143" d="M102.6,79.322c.432-.044.865-.091,1.3-.131a1.18,1.18,0,0,1,1.4,1,1.153,1.153,0,0,1-1.09,1.317c-.552.093-1.106.184-1.659.275-1.124.133-2.249.262-3.372.4-.847.1-1.358-.234-1.46-.974-.1-.714.254-1.169,1.075-1.3,1.268-.209,2.541-.387,3.811-.579" transform="translate(-48.42 -39.243)" fill="#060606"/>
      <path id="Trazado_210144" data-name="Trazado 210144" d="M100.144,62.725a6.557,6.557,0,0,0,1.376-.12,1.1,1.1,0,0,1,1.277.942,1.08,1.08,0,0,1-.923,1.35c-.474.1-.952.177-1.429.264-1.207.144-2.415.276-3.62.435-.912.121-1.447-.193-1.558-.957s.268-1.179,1.214-1.347c1.217-.216,2.463-.245,3.662-.568" transform="translate(-47.205 -31.023)" fill="#060606"/>
      <path id="Trazado_210145" data-name="Trazado 210145" d="M98.867,25.113a1.352,1.352,0,0,1-1.161-1.327c-.386-2.805-.811-5.6-1.238-8.4a1.2,1.2,0,0,1,.687-1.332c1.1-.134,1.489.122,1.655,1.2q.648,4.219,1.252,8.444c.112.776-.19,1.112-1.2,1.416" transform="translate(-47.8 -6.947)" fill="#060606"/>
      <path id="Trazado_210146" data-name="Trazado 210146" d="M47.879,29.3c.451.824.786,1.454,1.141,2.073.145.254.174.422-.183.457a.652.652,0,0,0-.076.016c-1.557.373-1.556.373-1.2-1.155.092-.39.177-.783.314-1.392" transform="translate(-23.476 -14.522)" fill="#f8ce39"/>
      <path id="Trazado_210147" data-name="Trazado 210147" d="M15.377,59.431,53,53.156s3.073,19.935,5.084,20.973,6.043,22.92,6.043,22.92L25.9,102.578Z" transform="translate(-7.621 -26.344)" fill="#f1f1f1"/>
    </g>
  </g>
  <g id="Grupo_138166" data-name="Grupo 138166" transform="translate(6.426 31.626)">
    <g id="Grupo_138165" data-name="Grupo 138165" transform="translate(0 0)" clip-path="url(#clip-path-2)">
      <path id="Trazado_210148" data-name="Trazado 210148" d="M26.449,128.7c.065.491.112.986.2,1.473.052.28,0,.378-.3.419-1.744.231-3.485.488-5.227.736l-1.387-9.8a3.114,3.114,0,0,0,.77-.08c1.415-.2,2.829-.4,4.244-.6.547-.077.547-.077.654.448a.755.755,0,0,1,.161.46q.459,3.227.913,6.454a.722.722,0,0,1-.028.485" transform="translate(-16.207 -91.502)"/>
      <path id="Trazado_210149" data-name="Trazado 210149" d="M49.46,77.852q-2.337,3-4.678,6a.361.361,0,0,0-.037.415c.323.8.633,1.606.963,2.4a.443.443,0,0,1-.069.514c-.255.312-.5.633-.725.967-.127.187-.213.206-.4.062-1.1-.844-2.218-1.667-3.318-2.511-.2-.151-.287-.141-.427.064-.287.42-.612.816-.912,1.228-.087.119-.14.135-.272.044-.725-.5-.724-.491-.211-1.187.237-.32.7-.645.643-.96-.051-.285-.564-.489-.876-.724-.871-.657-1.739-1.318-2.617-1.964-.177-.129-.19-.207-.053-.375.271-.329.527-.672.771-1.022a.385.385,0,0,1,.419-.17c.882.094,1.765.169,2.648.26a.274.274,0,0,0,.3-.1q2.269-3.14,4.546-6.274c.122-.382.471-.62.621-.984.43-.655.933-1.256,1.39-1.89.066-.092.209-.178.152-.3s-.212-.076-.326-.083c-2.367-.132-4.731-.3-7.1-.434-.355-.02-.708-.064-1.063-.074a7.177,7.177,0,0,0-1.159-.036c.036.184.16.19.251.226l6.209,2.487c.463.185.514.374.2.761-.233.471-.233.471-.74.266-2.5-1-5.006-2.006-7.515-3-.3-.119-.313-.206-.115-.445.341-.411.66-.839.961-1.28a.514.514,0,0,1,.533-.239c.413.038.827.054,1.238.091a.467.467,0,0,0,.472-.22c.459-.633.945-1.246,1.4-1.884.151-.21.249-.2.437-.052.587.462,1.18.917,1.79,1.346.236.165.223.278.05.46a2.527,2.527,0,0,0-.277.369c-.038.058-.164.12-.061.2.084.066.175.013.24-.077.131-.183.27-.36.4-.541.338-.456.675-.912,1-1.357l2.3,1.729-.341.481c.713.048,1.391.089,2.068.143.189.016.243-.121.32-.232.681-.928,1.353-1.862,2.04-2.785A8.46,8.46,0,0,1,54.3,64.315a1.742,1.742,0,0,1,2.475,1.862,8.42,8.42,0,0,1-1.7,4.411c-.681.9-1.369,1.79-2.071,2.671a.557.557,0,0,0-.1.633c.224.56.415,1.133.619,1.7.022,0,.052,0,.065-.018.36-.41.359-.411.8-.077.521.392,1.036.794,1.567,1.172.2.144.255.232.076.449-.406.495-.776,1.018-1.161,1.53-.043.056-.084.115-.127.171a.144.144,0,0,0,.008.2l.019.015c.092.068.111-.046.147-.09.134-.166.268-.333.385-.511.089-.136.155-.123.275-.032.64.49,1.283.978,1.935,1.452.17.124.159.205.042.359-.472.609-.92,1.237-1.4,1.841a.559.559,0,0,0-.1.64c.168.4.288.827.447,1.234a.316.316,0,0,1-.056.354c-.375.489-.751.979-1.11,1.479-.129.179-.191.137-.3-.009q-2.622-3.376-5.257-6.742c-.122-.156-.1-.234.051-.329a1.8,1.8,0,0,0,.207-.184c.267-.423.474-.441.774-.061q2.025,2.567,4.025,5.157a.738.738,0,0,0,.352.305c-1.032-3.03-2.044-6.059-3.228-9.128-.3.446-.624.78-.909,1.147-.415.534-.814,1.078-1.221,1.618a.684.684,0,0,1-.372.312" transform="translate(-24.185 -63.414)" fill="#010102"/>
      <path id="Trazado_210150" data-name="Trazado 210150" d="M57.965,113.07A.659.659,0,0,1,58.5,113c.76.176,1.523.336,2.286.5a.571.571,0,0,1,.4.253c.443.67.892,1.337,1.362,1.989.144.2.078.263-.092.365q-7.82,4.735-15.636,9.477a.657.657,0,0,1-.435.084q-5.12-.486-10.241-.961a2.19,2.19,0,0,0-.494.017l-1.9.242c-.064-.164-.049-.345-.117-.514-.176-.44-.074-.606.387-.685a1.674,1.674,0,0,1,.246-.029,11.208,11.208,0,0,1,3.75-.041c2.525.263,5.055.465,7.579.733a2.135,2.135,0,0,0,1.409-.323q6.726-4.074,13.445-8.159l.092-.054c.47-.282.449-.279.166-.754a1.365,1.365,0,0,0-1.006-.679c-1.583-.3-1.026-.412-2.407.411-1.538.917-3.067,1.854-4.594,2.786a1.892,1.892,0,0,1-.73.263l-8.7,1.23c-.5.071-.567.015-.645-.5-.01-.071-.02-.141-.03-.212-.04-.4.013-.477.421-.538.974-.146,1.95-.276,2.925-.418.436-.062.453-.089.4-.522-.032-.247-.07-.493-.1-.74a.372.372,0,0,1,.337-.48c.789-.169.856-.126.975.683.131.892.013.825.925.7q1.216-.168,2.431-.344c.4-.056.428-.094.371-.477-.2-1.308.018-.969-1-1.728-1.318-.981-.736-.833-2.38-.608-3.139.43-6.271.888-9.407,1.327a2.347,2.347,0,0,0-1.76.745c-.249.263-.573.449-.83.709a.674.674,0,0,0-.271.743q.155.977.277,1.96c.054.431-.015.533-.446.582-.258.031-.563.205-.762-.14-.129-.673-.2-1.353-.3-2.028-.056-.361-.1-.391-.461-.35-.3.034-.6.114-.909.129s-.455-.118-.427-.415a4.875,4.875,0,0,0-.024-.594,1.106,1.106,0,0,1,.739-.166,3.164,3.164,0,0,0,2.373-1.066,4.356,4.356,0,0,1,2.928-1.33c3.549-.439,7.085-.978,10.625-1.486a.662.662,0,0,1,.551.138c.587.455,1.189.892,1.785,1.335a1.058,1.058,0,0,1,.808.966c.018.3.075.588.122.881.05.316.077.335.356.169.9-.529,1.785-1.083,2.679-1.621.691-.416,1.379-.837,2.068-1.254a.568.568,0,0,1,.362-.129" transform="translate(-22.568 -87.416)"/>
      <path id="Trazado_210151" data-name="Trazado 210151" d="M62.849,88.184l2.488-3.2c.183.072.145.275.208.425.764,1.829,1.367,3.718,2.047,5.578.365,1,.667,2.02,1.065,3.008.1.243.092.246-.088.488-.085-.1-.17-.2-.249-.3q-2.042-2.618-4.082-5.236c-.347-.445-.346-.446-.811-.119a3.05,3.05,0,0,0-.578-.647" transform="translate(-37.574 -73.745)" fill="#85b638"/>
      <path id="Trazado_210152" data-name="Trazado 210152" d="M31.775,120.622c.037.246.088.49.108.736.017.207.105.25.3.217.409-.072.822-.116,1.231-.186.166-.028.232.019.253.19.1.765.2,1.528.307,2.291-.222-.045-.2-.244-.221-.392-.082-.478-.136-.96-.211-1.44-.035-.224-.012-.5-.388-.446-.313.048-.363.116-.3.536.238,1.7.481,3.4.718,5.093a.78.78,0,0,1-.028.586c-.711.138-.711.138-.605.864.013.093.018.187.027.28-.174-.465-.174-.465-.7-.386-.082.012-.163.026-.245.039l-1.047-7.4a2.053,2.053,0,0,1,.277-.035c.374,0,.618-.109.528-.55" transform="translate(-21.774 -91.404)" fill="#feba84"/>
      <path id="Trazado_210153" data-name="Trazado 210153" d="M76.634,112.817q-2.627,1.6-5.256,3.205c-.21.129-.226.028-.247-.142-.043-.352-.121-.7-.141-1.055a.877.877,0,0,0-.473-.8,2,2,0,0,1-.278-.217l.783-.48c.291.273.547.2.859-.009.538-.361,1.108-.675,1.657-1.019a.765.765,0,0,1,.634-.1c.4.1.807.178,1.21.261.422.088.42.093.579-.293.022-.053.041-.113.12-.1l.551.754" transform="translate(-41.236 -87.163)" fill="#feba84"/>
      <path id="Trazado_210154" data-name="Trazado 210154" d="M76.694,111.135c-.16.6-.16.6-.784.465a4.177,4.177,0,0,0-1.448-.261,4.251,4.251,0,0,0-1.284.724q-.481.265-.934.576c-.262.2-.41.161-.523-.134a.455.455,0,0,0-.088-.109c-.246-.493-.246-.494.232-.784.717-.434,1.441-.86,2.15-1.308a.668.668,0,0,1,.562-.089c.575.135,1.15.278,1.732.371.359.057.525.176.385.55" transform="translate(-41.846 -86.235)"/>
      <path id="Trazado_210155" data-name="Trazado 210155" d="M45.975,80.541c.165-.519.165-.518-.342-.721q-3.125-1.251-6.247-2.506c-.092-.038-.277-.023-.246-.181s.175-.2.336-.189c.317.03.635.052.952.078a9.5,9.5,0,0,0,1.627.7c1.638.658,3.273,1.326,4.918,1.969.169.067.375.091.475.283a7.06,7.06,0,0,1-.656.89Z" transform="translate(-25.822 -69.757)" fill="#85b638"/>
      <path id="Trazado_210156" data-name="Trazado 210156" d="M27.114,123.207a.223.223,0,0,1,.032.063q.526,3.741,1.049,7.483c-.549.143-1.116.169-1.672.267a.215.215,0,0,1-.266-.169.51.51,0,0,1-.03-.1c-.168-1.19-.384-2.374-.482-3.573.066-.273.329-.276.522-.365a1.36,1.36,0,0,0,.289-2.308,2.062,2.062,0,0,0-1.032-.323c-.272-.091-.284-.321-.282-.551a.2.2,0,0,1,.171-.216h.014c.562-.062,1.116-.2,1.686-.206" transform="translate(-18.935 -92.686)" fill="#e0f6be"/>
      <path id="Trazado_210157" data-name="Trazado 210157" d="M25.6,123.18c-.478.072-.956.135-1.432.219-.13.022-.354-.053-.353.183,0,.205-.031.463.278.518-.07.139-.216.127-.335.168a1.353,1.353,0,0,0,.208,2.619c.116.021.272-.038.328.136.173,1.217.348,2.434.507,3.653.033.255.133.308.37.268.5-.085,1.006-.147,1.509-.217-.034.135-.154.086-.235.1-.974.141-1.948.266-2.918.416-.234.036-.3-.026-.331-.253-.325-2.358-.662-4.714-1-7.071-.022-.153-.074-.292.175-.324,1.033-.137,2.064-.292,3.094-.44a.386.386,0,0,1,.128.028" transform="translate(-17.417 -92.66)" fill="#e0f6be"/>
      <path id="Trazado_210158" data-name="Trazado 210158" d="M49.777,84.049c.462-.623.917-1.254,1.391-1.865.142-.183.144-.282-.058-.409s-.394-.3-.59-.447c-.085-.036-.088-.1-.061-.176a.913.913,0,0,1,.15-.241c1.1-1.406,2.118-2.878,3.172-4.32.81-1.109,1.654-2.192,2.433-3.321.853-1.237,1.814-2.4,2.64-3.652.088-.134.172-.29.358-.323.131.011.238.086.4.013a.484.484,0,0,1,.656.2.477.477,0,0,1,.057.235c.015.387.284.522.533.69.21.14.265-.058.318-.2a1.432,1.432,0,0,0-.778-1.743,1.334,1.334,0,0,1-.42-.184c-.052-.252.14-.393.273-.539a8.561,8.561,0,0,1,1.438-1.293.51.51,0,0,1,.384-.141.635.635,0,0,1,.533.724c0,.01,0,.02-.006.03a7.3,7.3,0,0,1-1.47,3.9Q55.943,77.7,50.737,84.395c-.237.306-.6.274-.928.358-.187-.226-.1-.465-.033-.7" transform="translate(-31.055 -64.501)" fill="#fff7e0"/>
      <path id="Trazado_210159" data-name="Trazado 210159" d="M57.693,69.305,52.9,75.883q-1.855,2.541-3.719,5.075c-.073.1-.208.176-.149.335a9.469,9.469,0,0,0-.924,1.164c-.449.576-.88,1.167-1.379,1.83-.017-.577-.037-1.055-.038-1.533,0-.082.077-.169.132-.244l9.782-13.427a7.672,7.672,0,0,1,3.536-2.749.5.5,0,0,1,.439-.036,7.276,7.276,0,0,0-2.092,1.934c-.108.123-.261.069-.392.094a1.471,1.471,0,0,0-.577.247c-.254.179-.251.225-.017.439.085.078.243.12.188.292" transform="translate(-29.566 -64.467)" fill="#cba124"/>
      <path id="Trazado_210160" data-name="Trazado 210160" d="M48.7,80.053l-6.826-2.731c-.094-.038-.264-.03-.194-.221l6.2.374q1.152.07,2.3.143c.08.005.16.021.288.04Z" transform="translate(-27.072 -69.837)" fill="#85b638"/>
      <path id="Trazado_210161" data-name="Trazado 210161" d="M50.4,106.435l.25.578c.026.062.081.129,0,.187-.066.046-.108-.019-.152-.051-.763-.57-1.524-1.143-2.339-1.755l.626-.158a7.055,7.055,0,0,1,1.616,1.2" transform="translate(-30.293 -83.78)" fill="#85b638"/>
      <path id="Trazado_210162" data-name="Trazado 210162" d="M42.215,100.363a1.289,1.289,0,0,1,.006.559L39.787,99.1a2.356,2.356,0,0,1,.815.054,6.659,6.659,0,0,1,1.613,1.212" transform="translate(-26.144 -80.731)" fill="#85b638"/>
      <path id="Trazado_210163" data-name="Trazado 210163" d="M43.016,100.431a18,18,0,0,1-1.61-1.213l1.408.112c.133.011.212.052.2.215-.014.295,0,.59,0,.885" transform="translate(-26.947 -80.798)" fill="#85b638"/>
      <path id="Trazado_210164" data-name="Trazado 210164" d="M51.014,106.2a15.547,15.547,0,0,1-1.616-1.2c.339-.084.734-.314,1-.212s.288.6.439.916a4.591,4.591,0,0,1,.175.494" transform="translate(-30.908 -83.548)" fill="#85b638"/>
      <path id="Trazado_210165" data-name="Trazado 210165" d="M44.643,74.2a5.1,5.1,0,0,0,.471-.569c.161-.261.314-.28.506-.059.082.1.332.129.226.286-.123.185-.183.488-.508.468l-.627-.037Z" transform="translate(-28.551 -68.01)" fill="#fa7754"/>
      <path id="Trazado_210166" data-name="Trazado 210166" d="M74.683,96.594c-.383-.675-.379-.827-.069-1.221.1-.129.162-.147.3-.043.417.306.419.3.123.7-.123.169-.224.353-.356.563" transform="translate(-43.292 -78.838)" fill="#fb7755"/>
      <path id="Trazado_210167" data-name="Trazado 210167" d="M52.059,75.051a.275.275,0,0,1,.109-.235c.1-.112.159-.343.294-.309a.927.927,0,0,1,.48.34c.107.149-.028.259-.2.254-.231-.006-.461-.033-.687-.05" transform="translate(-32.225 -68.55)" fill="#f47452"/>
      <path id="Trazado_210168" data-name="Trazado 210168" d="M72.1,89.94c-.088-.237-.164-.446-.245-.653a.217.217,0,0,1,.078-.251c.086-.085.148,0,.212.043.474.3.471.4-.045.861" transform="translate(-42.031 -75.734)" fill="#f67553"/>
      <path id="Trazado_210169" data-name="Trazado 210169" d="M49.272,101.454l.033.7a1.964,1.964,0,0,1-.627.167Z" transform="translate(-30.551 -81.906)" fill="#f3ae51"/>
      <path id="Trazado_210170" data-name="Trazado 210170" d="M35.226,124.916c-.276-1.95-.546-3.9-.836-5.848-.047-.317.013-.442.348-.471.6-.051.506-.129.6.466.078.528.149,1.057.227,1.585.016.113,0,.242.1.331.051.207.2.105.316.092.773-.094.773-.1.666-.852-.076-.537-.122-1.08-.238-1.61a.685.685,0,0,1,.394-.88.983.983,0,0,1,.5-.161,1.573,1.573,0,0,0,1.006-.456,5.506,5.506,0,0,1,1.027-.805l4.754-.685c1.926-.275,3.853-.543,5.778-.823a.615.615,0,0,1,.519.132c.513.4,1.037.791,1.564,1.175a.534.534,0,0,1,.239.407q.065.583.165,1.163c.032.184-.019.247-.2.271q-1.728.233-3.453.489c-.171.024-.228-.025-.247-.191-.046-.4-.119-.8-.162-1.2-.02-.187-.086-.225-.27-.2-.828.1-.827.089-.711.927.038.268.176.611.063.788-.135.209-.52.131-.8.174-.9.137-1.807.268-2.713.381-.251.032-.341.092-.3.37.119.739.1.741.86.635q4.211-.6,8.422-1.189a1.591,1.591,0,0,0,.626-.221c1.847-1.126,3.7-2.243,5.548-3.371a.719.719,0,0,1,.6-.1,11.982,11.982,0,0,0,1.248.269.9.9,0,0,1,.719.494c.136.247.448.495.42.707s-.43.323-.669.469q-6.884,4.18-13.77,8.353a.911.911,0,0,1-.6.134q-4.988-.479-9.972-.932a12.386,12.386,0,0,0-1.763.186" transform="translate(-23.463 -88.514)" fill="#fed9a9"/>
      <path id="Trazado_210171" data-name="Trazado 210171" d="M41.708,117.8a8.057,8.057,0,0,1-1.4,1.2c-.315.22-.749.145-1.126.219.466-.4.917-.819,1.4-1.193.322-.246.748-.164,1.127-.232" transform="translate(-25.842 -90.006)" fill="#fdba84"/>
      <path id="Trazado_210172" data-name="Trazado 210172" d="M24.841,127.946a1.531,1.531,0,0,1-1.407-.841,1.456,1.456,0,0,1,2.621-1.267,1.474,1.474,0,0,1-1.215,2.108" transform="translate(-17.968 -93.583)"/>
      <path id="Trazado_210173" data-name="Trazado 210173" d="M67.981,71.231c-.081-.068-.158-.139-.242-.2-.39-.3-.389-.342.032-.62a1.526,1.526,0,0,1,2.239,1.9c-.1.217-.2.346-.421.117a2.3,2.3,0,0,0-.367-.279.327.327,0,0,1-.166-.4.433.433,0,0,0-.64-.463c-.2.125-.3.017-.433-.052" transform="translate(-39.854 -66.392)"/>
      <path id="Trazado_210174" data-name="Trazado 210174" d="M25.758,127.152a.366.366,0,0,1,.418.306c0,.007,0,.014,0,.021a.352.352,0,0,1-.261.425.307.307,0,0,1-.052.009.358.358,0,0,1-.435-.26.411.411,0,0,1,.3-.5l.028,0" transform="translate(-19.021 -94.64)" fill="#f9f9f9"/>
    </g>
  </g>
</svg>
