<svg xmlns="http://www.w3.org/2000/svg" xmlns:xlink="http://www.w3.org/1999/xlink" width="122" height="122" viewBox="0 0 122 122">
  <defs>
    <clipPath id="clip-path">
      <path id="Trazado_203745" data-name="Trazado 203745" d="M52.5,0C81.495,0,112,29.272,112,58.267S81.495,105,52.5,105-4.591,90.718-4.591,61.723,23.505,0,52.5,0Z" transform="translate(748 1014)" fill="#a7e446"/>
    </clipPath>
    <clipPath id="clip-path-2">
      <rect id="Rectángulo_88008" data-name="Rectángulo 88008" width="89.862" height="89.88" fill="none"/>
    </clipPath>
  </defs>
  <g id="Grupo_138597" data-name="Grupo 138597" transform="translate(-1090 -1005)">
    <g id="Elipse_5544" data-name="Elipse 5544" transform="translate(1090 1005)" fill="#f5feff" stroke="#0082b2" stroke-width="2">
      <circle cx="61" cy="61" r="61" stroke="none"/>
      <circle cx="61" cy="61" r="60" fill="none"/>
    </g>
    <circle id="Elipse_5553" data-name="Elipse 5553" cx="43" cy="43" r="43" transform="translate(1108 1023)" fill="#dff7f9"/>
    <g id="Enmascarar_grupo_117497" data-name="Enmascarar grupo 117497" transform="translate(350 -1)" clip-path="url(#clip-path)">
      <g id="Grupo_137607" data-name="Grupo 137607" transform="translate(755 1029.12)">
        <g id="Grupo_137609" data-name="Grupo 137609" transform="translate(0 0)" clip-path="url(#clip-path-2)">
          <path id="Trazado_203731" data-name="Trazado 203731" d="M82.76,17.762a6.248,6.248,0,0,1,7.081,6.452q.042,24.13,0,48.26a6.289,6.289,0,0,1-6.652,6.5q-13.64.022-27.281.013a1.224,1.224,0,0,1-.272.18,42.9,42.9,0,0,1-4.738.093c-1.173.027-1.17.01-1.408,1.15-.053.251-.054.559-.427.584a1.023,1.023,0,0,1-.254-.83c.034-.724-.352-.91-1-.9-1.817.016-3.635.011-5.452,0-1.287,0-1.346.166-1.329,1.126a.823.823,0,0,1-.211.576c-.54-.036-.466-.488-.465-.8,0-.729-.372-.916-1.018-.908-1.379.017-2.758.009-4.136,0a3,3,0,0,1-.98-.094,1.2,1.2,0,0,1-.272-.182q-13.631,0-27.262-.012A6.383,6.383,0,0,1,.176,74.1a5.577,5.577,0,0,1-.125-2.139,2.281,2.281,0,0,1,1.559-.279c9.06-.005,18.12.044,27.18-.02a52.273,52.273,0,0,0,18.382-3.474,9.083,9.083,0,0,1,3.322-.635q15.66.034,31.32.008c.432,0,.916.145,1.252-.292a2.428,2.428,0,0,0,.12-.979q0-20.352.006-40.705c0-.645-.079-1.2-.772-1.45-.341-.4-.17-.854-.132-1.284a34.959,34.959,0,0,0,.2-4.09,1.29,1.29,0,0,1,.275-1" transform="translate(0 -3.973)" fill="#636363"/>
          <path id="Trazado_203732" data-name="Trazado 203732" d="M83.478,67.642c-.294.318-.679.175-1.02.176q-15.928.01-31.855-.013a9.4,9.4,0,0,0-3.474.7,52.955,52.955,0,0,1-10.361,2.752,73.043,73.043,0,0,1-12.238.714c-8.158-.025-16.318-.009-24.476-.009-.014-.239-.04-.478-.04-.716Q.009,47.851,0,24.457a6.341,6.341,0,0,1,3.783-6.2,5.126,5.126,0,0,1,2.257-.527q9.9,0,19.795.009a.87.87,0,0,1,.075.852,23.492,23.492,0,0,0-.734,4.782.9.9,0,0,1-.326.8,3.367,3.367,0,0,1-1.508.167q-7.656.007-15.313,0c-1.34,0-1.362.021-1.362,1.351q0,20.131,0,40.262c0,1.37.026,1.39,1.422,1.4,4.052.017,8.106-.033,12.159.024.629-.05,1.259-.026,1.89-.026q16.833,0,33.666,0a5.866,5.866,0,0,1,.629.013c4.388,0,8.777-.04,13.165.015,4.288-.054,8.575-.016,12.862-.019a1.4,1.4,0,0,1,1.013.287" transform="translate(-0.001 -3.971)" fill="#afafaf"/>
          <path id="Trazado_203733" data-name="Trazado 203733" d="M32.009,20.1a24.872,24.872,0,0,1,.937-6.332,23.63,23.63,0,0,1,3.742-6.6A20.043,20.043,0,0,1,59.6,1.482a3.7,3.7,0,0,1,.383.212,18.039,18.039,0,0,1,2.129,5.114,25.582,25.582,0,0,1,.982,7.35,9.047,9.047,0,0,1-.359,2.645c-.365.21-.643-.05-.9-.211a8.826,8.826,0,0,0-4.669-1.121q-5.132-.052-10.265,0a7.668,7.668,0,0,0-6.147,2.459,6.717,6.717,0,0,0-1.532,3.013c-.148.692-.428.958-1.176.8-.806-.169-1.4.275-1.8,1.16a5.077,5.077,0,0,0,2.2,6.388.9.9,0,0,1,.5.873c.026.57.076,1.138.109,1.7A8.348,8.348,0,0,0,41.7,37.234c.295.307.852.554.528,1.168a3.3,3.3,0,0,1-1.732.41,28.019,28.019,0,0,1-7.436-.259,1.736,1.736,0,0,1-1.124-.5,2.689,2.689,0,0,1-.182-1.318q-.006-7.627,0-15.254a1.986,1.986,0,0,1,.258-1.378" transform="translate(-7.11 0)" fill="#474747"/>
          <path id="Trazado_203734" data-name="Trazado 203734" d="M70,17.325a21.746,21.746,0,0,1,.184-2.675A26.283,26.283,0,0,0,67.477,2.9c-.106-.213-.386-.414-.167-.713a19.389,19.389,0,0,1,9.328,8.191,33.983,33.983,0,0,1,1.822,3.882,2.06,2.06,0,0,1,.536,1.1,19.3,19.3,0,0,1,.627,5.278q.061,9.974,0,19.947a5.237,5.237,0,0,1-5.135,5.109c-1.616.039-3.234.029-4.85-.018a36.156,36.156,0,0,1-4.915-1.6c-.493-1.576-.281-2.275,1.027-3.12a24.648,24.648,0,0,0,3.971-3.222A8.687,8.687,0,0,0,72.452,31.3c0-.852.086-1.523,1.09-1.748a1.782,1.782,0,0,0,1-.875,5.792,5.792,0,0,0,.717-5.076,1.7,1.7,0,0,0-2.168-1.335c-.44.061-.7-.05-.789-.494a6.988,6.988,0,0,0-2.062-3.811.583.583,0,0,1-.24-.632" transform="translate(-14.442 -0.489)" fill="#3f3f3f"/>
          <path id="Trazado_203735" data-name="Trazado 203735" d="M41.088,96.667l.2.009a1.872,1.872,0,0,1,.261,1.294c.009,2.251,0,4.5.006,6.755,0,1.128.066,1.2,1.151,1.2q9.366.01,18.732,0c1.084,0,1.146-.072,1.151-1.2.009-2.252,0-4.5.006-6.755a1.873,1.873,0,0,1,.261-1.294l.2-.009c-.01,3.03-.008,6.062-.04,9.092-.006.556.236.632.7.625,1.44-.019,2.881-.026,4.322,0a4.252,4.252,0,0,1,4.219,4.265c.019.643-.116.893-.825.875-1.949-.05-3.9-.017-5.852-.017-10.894,0-21.789-.012-32.683.021-.867,0-1.048-.272-1-1.06a4.255,4.255,0,0,1,4.125-4.08c1.47-.036,2.941-.025,4.412-.006.465.006.706-.07.7-.625-.033-3.03-.031-6.062-.04-9.092" transform="translate(-7.141 -21.65)" fill="#636363"/>
          <path id="Trazado_203736" data-name="Trazado 203736" d="M83.433,24.071a25.121,25.121,0,0,0-.938-6.332l18.741.023a33.073,33.073,0,0,1-.36,6.26,1.385,1.385,0,0,1-1.171.314q-7.584.015-15.167,0a1.492,1.492,0,0,1-1.105-.265" transform="translate(-18.476 -3.973)" fill="#636363"/>
          <path id="Trazado_203737" data-name="Trazado 203737" d="M80.832,25.878q8.183-.008,16.366-.019c.359,0,.718-.02,1.077-.031.882-.124,1.12.22,1.117,1.13q-.052,20.8-.025,41.592c0,.3-.011.6-.016.9H85.489a7.667,7.667,0,0,1-.825-2.624,24.841,24.841,0,0,0-11.1-14.333,19.323,19.323,0,0,0-2-1.12c-.275-.136-.632-.212-.678-.614,1.589-.007,3.177,0,4.765-.022a5.011,5.011,0,0,0,5.16-5.17c.024-6.563.02-13.126.027-19.689" transform="translate(-15.875 -5.779)" fill="#e7f0f7"/>
          <path id="Trazado_203738" data-name="Trazado 203738" d="M65.558,96.671c0,2.912-.009,5.823.022,8.734.007.623-.174.823-.81.821q-9.995-.03-19.991,0c-.636,0-.816-.2-.81-.821.031-2.911.019-5.823.022-8.734,1.845,0,3.692.033,5.535-.025.772-.024.995.249.926.968a1.255,1.255,0,0,0,.15,1.027c.339.162.378.521.523.808a4,4,0,0,0,7.3,0c.145-.287.184-.645.522-.809a.927.927,0,0,0,.152-.848c-.16-.989.3-1.182,1.193-1.149,1.754.065,3.511.023,5.267.026" transform="translate(-9.848 -21.645)" fill="#636363"/>
          <path id="Trazado_203739" data-name="Trazado 203739" d="M60.856,98.641a4.249,4.249,0,0,1-7.275,2.036,4.672,4.672,0,0,1-1.07-2.036c-.061-1.99-.061-1.99,1.973-1.99,1.856,0,3.713.029,5.568-.015.66-.016.945.151.848.84a10.948,10.948,0,0,0-.044,1.164" transform="translate(-11.757 -21.643)" fill="#e7f0f7"/>
          <path id="Trazado_203740" data-name="Trazado 203740" d="M26.731,25.889q.01,8.458.022,16.915c0,.359.02.719.032,1.077a2.274,2.274,0,0,1,.229,1.479,4.777,4.777,0,0,0,5.117,5.118,28.711,28.711,0,0,1,4.392.1c.4.573-.195.635-.454.764a26.511,26.511,0,0,0-3.77,2.261A24.573,24.573,0,0,0,22.505,68.4a2.015,2.015,0,0,1-.421,1.069c-4.409.007-8.82.008-13.229.031-.5,0-.7-.128-.671-.653.04-.627.009-1.259.009-1.889q0-20.069-.016-40.138c0-.717.13-.968.915-.962,5.879.041,11.759.031,17.638.036" transform="translate(-1.832 -5.79)" fill="#e7f0f7"/>
          <path id="Trazado_203741" data-name="Trazado 203741" d="M26.1,76.217A24.741,24.741,0,0,1,39.83,57.992c.291-.15.577-.313.864-.469a9.01,9.01,0,0,1,4.7-1.515c.307.393.192.86.22,1.3a5.159,5.159,0,0,0,6.855,4.852,5.353,5.353,0,0,0,3.47-4.9c.023-.407-.094-.848.238-1.2a36.6,36.6,0,0,1,4.676,1.464,29.434,29.434,0,0,1,2.722,1.53,9.409,9.409,0,0,1,1.979,5.026,15.9,15.9,0,0,1-2.33,11.176,2.375,2.375,0,0,1-.912.963c-2.606.01-5.211.028-7.816.029q-13.66,0-27.319,0c-.359,0-.718-.02-1.076-.03" transform="translate(-5.845 -12.544)" fill="#fc4b52"/>
          <path id="Trazado_203742" data-name="Trazado 203742" d="M72.761,77.1c3.711-5.48,4.334-11.186,1.263-17.165a24.1,24.1,0,0,1,9.361,9.811,23.038,23.038,0,0,1,2.525,7.351l-13.15,0" transform="translate(-16.296 -13.423)" fill="#c93c41"/>
          <path id="Trazado_203743" data-name="Trazado 203743" d="M58.555,47.927a7.35,7.35,0,0,1-.711,3.836A5.257,5.257,0,0,1,51.911,54.4a5.367,5.367,0,0,1-4.139-5.126c-.018-.449-.015-.9-.022-1.348a1.192,1.192,0,0,1-.223-1.018,1.509,1.509,0,0,0-.884-1.6A19.425,19.425,0,0,1,44.082,43.5a1.362,1.362,0,0,1-.653-.819c-.448-.482-.9-.956-1.342-1.447a8.391,8.391,0,0,1-2.2-6.36c.036-.552,0-.944-.722-1.031a2.186,2.186,0,0,1-1.485-1.218,6.045,6.045,0,0,1-.766-4.748c.431-1.776,1.243-2.256,3-1.833a7.121,7.121,0,0,1,5.434-6.12,6.275,6.275,0,0,1,1.6-.213q6.209-.026,12.416-.005a7.53,7.53,0,0,1,4.423,1.543,7.493,7.493,0,0,1,2.576,4.79c1.845-.386,2.632.092,3.053,1.9a6.05,6.05,0,0,1-.818,4.741,2.107,2.107,0,0,1-1.342,1.131c-.76.106-.887.461-.837,1.128.274,3.578-1.623,6.078-4.162,8.24A14.976,14.976,0,0,1,59.4,45.216a1.411,1.411,0,0,0-.889,1.634,9.944,9.944,0,0,1,.041,1.077" transform="translate(-8.225 -4.411)" fill="#f0b1a2"/>
          <path id="Trazado_203744" data-name="Trazado 203744" d="M42.4,49.263a29.491,29.491,0,0,0,3.941,2.823.7.7,0,0,1,.418.716c-.025.569-.026,1.139-.037,1.709a38,38,0,0,0-4.676,1.463c-1.587-.006-3.175,0-4.762-.021a5.033,5.033,0,0,1-5.165-5.162c-.006-.568.02-1.137.032-1.7a27.046,27.046,0,0,0,10.25.178" transform="translate(-7.192 -10.994)" fill="#3f3f3f"/>
        </g>
      </g>
    </g>
  </g>
</svg>
