<svg xmlns="http://www.w3.org/2000/svg" xmlns:xlink="http://www.w3.org/1999/xlink" width="122" height="122" viewBox="0 0 122 122">
  <defs>
    <clipPath id="clip-path">
      <rect id="Rectángulo_88010" data-name="Rectángulo 88010" width="80.237" height="80.273" fill="none"/>
    </clipPath>
  </defs>
  <g id="Grupo_138598" data-name="Grupo 138598" transform="translate(6595 10695)">
    <g id="Elipse_5554" data-name="Elipse 5554" transform="translate(-6595 -10695)" fill="#f5feff" stroke="#0082b2" stroke-width="2">
      <circle cx="61" cy="61" r="61" stroke="none"/>
      <circle cx="61" cy="61" r="60" fill="none"/>
    </g>
    <circle id="Elipse_5555" data-name="Elipse 5555" cx="43" cy="43" r="43" transform="translate(-6577 -10677)" fill="#dff7f9"/>
    <g id="Grupo_137613" data-name="Grupo 137613" transform="translate(-6574 -10674)">
      <g id="Grupo_137612" data-name="Grupo 137612" transform="translate(0 0)" clip-path="url(#clip-path)">
        <path id="Trazado_203770" data-name="Trazado 203770" d="M3.534,33a9.237,9.237,0,0,1,5.971-2.789,10.478,10.478,0,0,1,10.468,5.251,10.77,10.77,0,0,1-1,12.277,3.622,3.622,0,0,1-.375.323c-.308.145-.5.437-.778.619a9.654,9.654,0,0,1-6.63,1.7,10.736,10.736,0,0,1-6.516-2.88,10.562,10.562,0,0,1-3.137-5.212A10.761,10.761,0,0,1,2.2,34.9a4.182,4.182,0,0,1,.719-1.115c.182-.279.475-.47.62-.779" transform="translate(-0.027 -0.713)" fill="#fdf383"/>
        <path id="Trazado_203771" data-name="Trazado 203771" d="M3.533,63.118a9.64,9.64,0,0,1,5.9-2.789A10.65,10.65,0,0,1,20.979,67.9a10.182,10.182,0,0,1-2.534,10.458,5.889,5.889,0,0,0-.9.672,10.8,10.8,0,0,1-12.377-.964,10.694,10.694,0,0,1-3.979-7.781,9.118,9.118,0,0,1,1.877-6.57,2.687,2.687,0,0,0,.464-.595" transform="translate(-0.028 -1.424)" fill="#e37971"/>
        <path id="Trazado_203772" data-name="Trazado 203772" d="M3.533,2.877A9.672,9.672,0,0,1,9.428.087,10.719,10.719,0,0,1,21.012,7.709a10.581,10.581,0,0,1-1.956,9.8,2.052,2.052,0,0,1-.961.759,7.2,7.2,0,0,1-4.033,1.841A10.919,10.919,0,0,1,1.6,12.355,9.869,9.869,0,0,1,3.068,3.47a2.823,2.823,0,0,0,.466-.593" transform="translate(-0.027 0)" fill="#80bb74"/>
        <path id="Trazado_203773" data-name="Trazado 203773" d="M81.193,21.966c.009,1.029-.025,2.061.04,3.087.045.711-.132.939-.9.934-6.512-.035-13.025,0-19.537-.041-.836,0-1.021.239-.985,1.021.064,1.406.019,2.816.019,4.363-2.169-1.165-4.212-2.278-6.27-3.362-1.916-1.009-3.768-2.136-5.747-3.024a1.328,1.328,0,0,1-.806-.251c-1.288-.72-2.593-1.4-3.888-2.109-.285-.154-.918-.365-.194-.823a10.439,10.439,0,0,1,1.418-.079q17.667,0,35.333.006c.516,0,1.069-.121,1.519.276" transform="translate(-1.007 -0.512)" fill="#90979c"/>
        <path id="Trazado_203774" data-name="Trazado 203774" d="M81.193,21.746l-38.574-.008c-.062-.251.131-.348.291-.44,1.433-.836,2.9-1.615,4.375-2.366a.555.555,0,0,1,.552-.053q4.1-2.226,8.208-4.451c1.216-.659,2.434-1.312,3.784-2.04,0,1.561.04,2.995-.017,4.424-.029.723.158.937.913.933,6.51-.032,13.021-.008,19.531-.034.736,0,1.041.147.979.949-.08,1.023-.034,2.056-.043,3.085" transform="translate(-1.007 -0.293)" fill="#a9b0b6"/>
        <path id="Trazado_203775" data-name="Trazado 203775" d="M34.259,8.076c-.009-2.5-.011-5-.035-7.506,0-.4.118-.521.518-.519q6.173.018,12.346,0c.4,0,.522.121.518.519-.024,2.5-.026,5-.035,7.506a1.426,1.426,0,0,1-1.1.269q-5.554.012-11.106,0a1.426,1.426,0,0,1-1.1-.269" transform="translate(-0.809 -0.001)" fill="#498e47"/>
        <path id="Trazado_203776" data-name="Trazado 203776" d="M47.577,73.974c.008,2.477,0,4.955.03,7.432.007.488-.182.61-.637.609q-6.053-.021-12.111,0c-.454,0-.64-.121-.637-.609.026-2.477.025-4.955.032-7.432a1.486,1.486,0,0,1,1.108-.255q5.552-.01,11.1,0a1.489,1.489,0,0,1,1.109.255" transform="translate(-0.809 -1.742)" fill="#eba9a6"/>
        <path id="Trazado_203777" data-name="Trazado 203777" d="M34.26,8.27H47.573q0,4.007,0,8.014a1.4,1.4,0,0,1-1.095.276q-5.564.012-11.128,0a1.4,1.4,0,0,1-1.095-.276q0-4.007,0-8.014" transform="translate(-0.81 -0.195)" fill="#529f4f"/>
        <path id="Trazado_203778" data-name="Trazado 203778" d="M47.574,32.906l0,8.015a1.411,1.411,0,0,1-1.095.278q-5.565.01-11.131,0a1.411,1.411,0,0,1-1.095-.278l0-8.015a1.441,1.441,0,0,1,1.105-.263q5.551-.012,11.1,0a1.441,1.441,0,0,1,1.105.263" transform="translate(-0.81 -0.771)" fill="#eee74f"/>
        <path id="Trazado_203779" data-name="Trazado 203779" d="M47.578,73.78H34.256l0-8.016a1.46,1.46,0,0,1,1.108-.26q5.549-.01,11.1,0a1.454,1.454,0,0,1,1.105.26l0,8.016" transform="translate(-0.81 -1.548)" fill="#e37971"/>
        <path id="Trazado_203780" data-name="Trazado 203780" d="M47.575,65.569H34.259q0-4.008,0-8.017a1.441,1.441,0,0,1,1.105-.263q5.552-.012,11.1,0a1.441,1.441,0,0,1,1.105.263q0,4.008,0,8.017" transform="translate(-0.81 -1.354)" fill="#de573d"/>
        <path id="Trazado_203781" data-name="Trazado 203781" d="M47.574,57.358H34.259l-.006-8.007a1.42,1.42,0,0,1,1.1-.277q5.567-.01,11.134,0a1.418,1.418,0,0,1,1.1.277l0,8.007" transform="translate(-0.81 -1.159)" fill="#b03b27"/>
        <path id="Trazado_203782" data-name="Trazado 203782" d="M47.578,49.162H34.253l0-8.041H47.576q0,4.022,0,8.041" transform="translate(-0.81 -0.972)" fill="#fdf383"/>
        <path id="Trazado_203783" data-name="Trazado 203783" d="M47.574,32.712H34.26V24.7a1.428,1.428,0,0,1,1.1-.268c3.424-.009,6.849,0,10.273-.006a3.284,3.284,0,0,1,1.3.249,1.136,1.136,0,0,1,.676.339q-.021,3.85-.042,7.7" transform="translate(-0.81 -0.577)" fill="#cdbf3e"/>
        <path id="Trazado_203784" data-name="Trazado 203784" d="M46.939,24.485,34.26,24.51q0-4.016,0-8.031H47.574q.034,1.249.065,2.5c-1.765.9-3.539,1.795-5.218,2.858a25.261,25.261,0,0,0,2.972,1.73c.5.339,1.136.434,1.546.92" transform="translate(-0.81 -0.389)" fill="#80bb74"/>
        <path id="Trazado_203785" data-name="Trazado 203785" d="M3.175,3.48a10.69,10.69,0,0,0,7.448,16.563,11.013,11.013,0,0,0,7.446-1.69c-.041.421-.4.593-.673.8-3.659,2.753-7.619,3.238-11.664,1.105A10.2,10.2,0,0,1,.04,10.095,9.709,9.709,0,0,1,3,3.472a.1.1,0,0,1,.179.008" transform="translate(-0.001 -0.081)" fill="#529f4f"/>
        <path id="Trazado_203786" data-name="Trazado 203786" d="M3.018,33.771a11.509,11.509,0,0,0-1.666,6.083,10.732,10.732,0,0,0,9.3,10.321,11.523,11.523,0,0,0,7.234-1.54c.05.04.067.081.052.122s-.033.062-.05.062c-2.926,3.027-8.221,3.71-12.213,1.575a10.7,10.7,0,0,1-3.2-16.284,3.992,3.992,0,0,1,.361-.342.107.107,0,0,1,.183,0" transform="translate(0 -0.797)" fill="#eee74f"/>
        <path id="Trazado_203787" data-name="Trazado 203787" d="M3.174,63.724a10.7,10.7,0,0,0,7.5,16.573,11.139,11.139,0,0,0,6.866-1.378c.171-.053.216.018.171.176A10.653,10.653,0,0,1,3,63.715a.105.105,0,0,1,.179.009" transform="translate(0 -1.505)" fill="#dc4334"/>
        <path id="Trazado_203788" data-name="Trazado 203788" d="M18.139,79.452l-.171-.176c.264-.212.5-.482.876-.482a2.032,2.032,0,0,1-.7.658" transform="translate(-0.425 -1.862)" fill="#e05c4f"/>
        <path id="Trazado_203789" data-name="Trazado 203789" d="M18.319,49.168l0-.183A.78.78,0,0,1,19,48.5a1.851,1.851,0,0,1-.682.672" transform="translate(-0.433 -1.146)" fill="#f3ec6b"/>
        <path id="Trazado_203790" data-name="Trazado 203790" d="M3.087,33.755l-.183,0a1.861,1.861,0,0,1,.672-.682.779.779,0,0,1-.489.685" transform="translate(-0.069 -0.781)" fill="#f3ec6b"/>
        <path id="Trazado_203791" data-name="Trazado 203791" d="M3.247,63.712,3.068,63.7a1.128,1.128,0,0,1,.51-.516.5.5,0,0,1-.331.524" transform="translate(-0.073 -1.493)" fill="#e16357"/>
        <path id="Trazado_203792" data-name="Trazado 203792" d="M3.247,3.468l-.179-.008a1.12,1.12,0,0,1,.51-.514.5.5,0,0,1-.331.521" transform="translate(-0.073 -0.069)" fill="#6fb069"/>
        <path id="Trazado_203793" data-name="Trazado 203793" d="M10.807,45.175c-1.558,0-3.117-.018-4.674.011-.491.009-.665-.1-.67-.637-.018-2.048-.04-2.047,2-2.047,2.67,0,5.342.013,8.012-.011.522,0,.712.108.712.678,0,2.006.024,2.006-1.96,2.006H10.807" transform="translate(-0.129 -1.004)" fill="#43525b"/>
        <path id="Trazado_203794" data-name="Trazado 203794" d="M15.066,35.656c1.3,0,1.3,0,1.3,1.643,0,1.031,0,1.031-1.664,1.03-1.011,0-1.011,0-1.01-1.684,0-.989,0-.989,1.372-.989" transform="translate(-0.324 -0.842)" fill="#43525b"/>
        <path id="Trazado_203795" data-name="Trazado 203795" d="M6.808,38.329c-1.329,0-1.329,0-1.329-1.366,0-1.307,0-1.307,1.3-1.307,1.371,0,1.371,0,1.37,1.407,0,1.266,0,1.266-1.344,1.266" transform="translate(-0.129 -0.842)" fill="#43525b"/>
        <path id="Trazado_203796" data-name="Trazado 203796" d="M10.818,69.887a6.657,6.657,0,0,1,6.525,5.995c.036.239,0,.375-.229.444-.106.032-.215.055-.323.081-.593.145-1.261.528-1.758.37-.564-.18-.421-1.043-.611-1.6a3.811,3.811,0,0,0-7.282.137c-.46,1.571-.446,1.5-1.992,1.2-.935-.179-.952-.544-.741-1.341.859-3.248,3.3-5.3,6.412-5.293" transform="translate(-0.102 -1.651)" fill="#f1f1f1"/>
        <path id="Trazado_203797" data-name="Trazado 203797" d="M6.873,65.778c1.279,0,1.279,0,1.279,1.52,0,1.155,0,1.155-1.645,1.153-1.029,0-1.029,0-1.029-1.6,0-1.07,0-1.07,1.4-1.07" transform="translate(-0.129 -1.554)" fill="#f1f1f1"/>
        <path id="Trazado_203798" data-name="Trazado 203798" d="M15.056,65.778c1.312,0,1.312,0,1.311,1.571,0,1.1,0,1.1-1.613,1.1-1.062,0-1.072,0-1.057-1.654.012-1.2-.189-1,1.359-1.019" transform="translate(-0.324 -1.554)" fill="#f1f1f1"/>
        <path id="Trazado_203799" data-name="Trazado 203799" d="M10.776,17.687a6.62,6.62,0,0,1-6.524-5.967c-.044-.281.017-.419.273-.49.08-.022.162-.038.243-.057.619-.145,1.323-.541,1.835-.368s.384,1.066.585,1.629a3.866,3.866,0,0,0,3.8,2.577,3.791,3.791,0,0,0,3.491-2.86c.407-1.482.407-1.482,1.909-1.1,1.051.268,1.051.268.781,1.353a6.5,6.5,0,0,1-6.389,5.281" transform="translate(-0.1 -0.254)" fill="#f1f1f1"/>
        <path id="Trazado_203800" data-name="Trazado 203800" d="M16.367,6.863c0,1.344,0,1.344-1.538,1.344-1.136,0-1.136,0-1.136-1.579,0-1.1,0-1.106,1.621-1.092,1.237.012,1.03-.2,1.053,1.326" transform="translate(-0.324 -0.131)" fill="#f1f1f1"/>
        <path id="Trazado_203801" data-name="Trazado 203801" d="M8.152,6.931c0,1.277,0,1.277-1.522,1.276-1.152,0-1.152,0-1.151-1.563,0-1.111,0-1.111,1.605-1.11,1.068,0,1.068,0,1.068,1.4" transform="translate(-0.129 -0.131)" fill="#f1f1f1"/>
      </g>
    </g>
  </g>
</svg>
