<svg xmlns="http://www.w3.org/2000/svg" xmlns:xlink="http://www.w3.org/1999/xlink" width="122" height="122" viewBox="0 0 122 122">
  <defs>
    <clipPath id="clip-path">
      <rect id="Rectángulo_88013" data-name="Rectángulo 88013" width="74.301" height="74.168" fill="none"/>
    </clipPath>
  </defs>
  <g id="Grupo_138599" data-name="Grupo 138599" transform="translate(6242 10695)">
    <g id="Elipse_5546" data-name="Elipse 5546" transform="translate(-6242 -10695)" fill="#f5feff" stroke="#0082b2" stroke-width="2">
      <circle cx="61" cy="61" r="61" stroke="none"/>
      <circle cx="61" cy="61" r="60" fill="none"/>
    </g>
    <circle id="Elipse_5556" data-name="Elipse 5556" cx="43" cy="43" r="43" transform="translate(-6224 -10677)" fill="#dff7f9"/>
    <g id="Grupo_137614" data-name="Grupo 137614" transform="translate(-6218 -10671)">
      <rect id="Rectángulo_88011" data-name="Rectángulo 88011" width="38.578" height="60.638" transform="translate(3.08 5.614)" fill="#85b638"/>
      <rect id="Rectángulo_88012" data-name="Rectángulo 88012" width="37.817" height="60.638" transform="translate(5.136 8.138)" fill="#a7e446"/>
      <g id="Grupo_137615" data-name="Grupo 137615">
        <g id="Grupo_137614-2" data-name="Grupo 137614" clip-path="url(#clip-path)">
          <path id="Trazado_203802" data-name="Trazado 203802" d="M19.633,62.868a16.581,16.581,0,0,1,.626-4.226,15.783,15.783,0,0,1,2.5-4.406,13.376,13.376,0,0,1,15.287-3.793,2.486,2.486,0,0,1,.255.141A12.027,12.027,0,0,1,39.72,54a17.054,17.054,0,0,1,.656,4.9,6.041,6.041,0,0,1-.239,1.765c-.244.139-.429-.034-.6-.141a5.884,5.884,0,0,0-3.116-.748q-3.425-.035-6.851,0a5.114,5.114,0,0,0-4.1,1.641,4.474,4.474,0,0,0-1.022,2.011c-.1.462-.286.639-.785.534-.538-.113-.934.184-1.2.774A3.389,3.389,0,0,0,23.924,69a.6.6,0,0,1,.335.583c.017.379.05.759.073,1.137A5.572,5.572,0,0,0,26.1,74.3c.2.205.569.37.353.779a2.2,2.2,0,0,1-1.156.274,18.691,18.691,0,0,1-4.962-.173,1.162,1.162,0,0,1-.75-.335,1.8,1.8,0,0,1-.122-.88q0-5.09,0-10.18a1.324,1.324,0,0,1,.172-.92" transform="translate(-10.842 -27.558)" fill="#474747"/>
          <path id="Trazado_203803" data-name="Trazado 203803" d="M61.43,62.113a14.6,14.6,0,0,1,.123-1.785,17.543,17.543,0,0,0-1.8-7.844c-.071-.143-.258-.276-.112-.476a12.941,12.941,0,0,1,6.226,5.467,22.684,22.684,0,0,1,1.215,2.591,1.373,1.373,0,0,1,.358.736,12.889,12.889,0,0,1,.418,3.522q.041,6.656,0,13.312a3.5,3.5,0,0,1-3.427,3.41q-1.618.039-3.237-.012a24.081,24.081,0,0,1-3.28-1.069c-.329-1.052-.187-1.518.686-2.082a16.472,16.472,0,0,0,2.65-2.15,5.8,5.8,0,0,0,1.821-4.294c0-.569.058-1.017.728-1.167a1.191,1.191,0,0,0,.665-.584,3.866,3.866,0,0,0,.478-3.388,1.135,1.135,0,0,0-1.447-.891c-.293.04-.464-.034-.526-.329a4.667,4.667,0,0,0-1.376-2.544.387.387,0,0,1-.16-.422" transform="translate(-32.18 -28.98)" fill="#3f3f3f"/>
          <path id="Trazado_203804" data-name="Trazado 203804" d="M12.852,128.453a16.511,16.511,0,0,1,9.164-12.163c.195-.1.385-.209.577-.313a6.017,6.017,0,0,1,3.136-1.012c.2.263.128.574.146.867a3.443,3.443,0,0,0,4.575,3.237,3.571,3.571,0,0,0,2.316-3.272c.015-.271-.063-.566.159-.8a24.433,24.433,0,0,1,3.121.977A19.789,19.789,0,0,1,37.861,117a6.28,6.28,0,0,1,1.321,3.354,10.611,10.611,0,0,1-1.555,7.459,1.579,1.579,0,0,1-.609.642c-1.739.007-3.477.019-5.216.019q-9.116,0-18.232,0c-.24,0-.479-.013-.719-.02" transform="translate(-7.162 -64.063)" fill="#fc4b52"/>
          <path id="Trazado_203805" data-name="Trazado 203805" d="M67.433,131.013c2.476-3.657,2.892-7.465.843-11.456a16.091,16.091,0,0,1,6.247,6.548,15.354,15.354,0,0,1,1.685,4.905l-8.776,0" transform="translate(-37.576 -66.622)" fill="#d44641"/>
          <path id="Trazado_203806" data-name="Trazado 203806" d="M39.85,91.333a4.9,4.9,0,0,1-.475,2.56,3.508,3.508,0,0,1-3.96,1.762,3.582,3.582,0,0,1-2.762-3.422c-.012-.3-.01-.6-.014-.9a.793.793,0,0,1-.149-.679,1.008,1.008,0,0,0-.59-1.067,12.94,12.94,0,0,1-1.71-1.21.912.912,0,0,1-.436-.546c-.3-.322-.6-.638-.9-.966a5.6,5.6,0,0,1-1.47-4.245c.024-.368,0-.63-.481-.688a1.46,1.46,0,0,1-.991-.812,4.034,4.034,0,0,1-.511-3.168c.288-1.186.83-1.506,2-1.223a4.753,4.753,0,0,1,3.627-4.084A4.168,4.168,0,0,1,32.1,72.5q4.143-.017,8.286,0a4.663,4.663,0,0,1,4.67,4.226c1.231-.258,1.757.062,2.038,1.271a4.042,4.042,0,0,1-.546,3.164,1.407,1.407,0,0,1-.9.754c-.507.071-.592.307-.558.752.182,2.388-1.083,4.057-2.777,5.5a10,10,0,0,1-1.9,1.358.941.941,0,0,0-.592,1.091,6.8,6.8,0,0,1,.027.719" transform="translate(-14.088 -40.395)" fill="#f0b1a2"/>
          <path id="Trazado_203807" data-name="Trazado 203807" d="M26.75,106.988a19.718,19.718,0,0,0,2.63,1.884.466.466,0,0,1,.279.477c-.017.379-.018.76-.025,1.14a25.481,25.481,0,0,0-3.121.976c-1.059,0-2.119,0-3.178-.014a3.358,3.358,0,0,1-3.447-3.445c0-.379.013-.758.021-1.138a18.049,18.049,0,0,0,6.841.119" transform="translate(-11.082 -59.551)" fill="#3f3f3f"/>
          <path id="Trazado_203808" data-name="Trazado 203808" d="M.686,9.083C.544,6.909.563,4.73.575,2.554A2.51,2.51,0,0,1,3.339.012q15.067,0,30.136,0,3.767,0,7.534,0a1.194,1.194,0,0,1,.815.128c-2.7,1.1-4.781,3.1-7.081,4.787a24.164,24.164,0,0,1-2.806,2.016,1.294,1.294,0,0,1-.269.044c-.283.015-.563.041-.845.041H6.715c-.231,0-.46-.022-.69-.025-.379.045-.758-.018-1.137,0-1.519.043-1.511-.268-1.5,1.56,0,.306.006.612-.009.92q.044,2.843.019,5.684c0,.366.084.787-.339,1.025-.371-.275-.282-.686-.286-1.053-.015-1.553,0-3.106-.01-4.658-.007-.888-.11-.99-.988-1.121C1.4,9.3,1,9.359.686,9.083" transform="translate(-0.316 0)" fill="#737375"/>
          <path id="Trazado_203809" data-name="Trazado 203809" d="M82.57,100.492c6.176-.009,12.352,0,18.527-.046a28.436,28.436,0,0,1,3.447-.022,2.584,2.584,0,0,1,2.366,2.083l-.041.095a2.5,2.5,0,0,1-.922.434.579.579,0,0,1-.208-.025c-.58-.284-.991-.155-1.194.487a.652.652,0,0,1-.136.182c-1.035.532-2.141.891-3.214,1.329-.236.1-.493.153-.676-.121-.087-.293.1-.541.139-.812a1.107,1.107,0,0,0-.73-1.338,1.221,1.221,0,0,0-1.3,2.043c.206.19.492.27.673.5.182.557-.322.569-.6.675a31.994,31.994,0,0,1-4.522,1.342c-.247.055-.491.126-.744.165-5.506.062-11.011.013-16.515.025-1,0-2,.034-2.994-.023a23.959,23.959,0,0,1-3.647-2.468,10.068,10.068,0,0,1-.082-2.116,2.6,2.6,0,0,1,.457-1.271,3.18,3.18,0,0,1,2.44-1.212c1.764-.153,3.523-.1,5.284-.113.361-.016.722.008,1.083,0a5.271,5.271,0,0,1,.542,0c.637-.014,1.275-.022,1.912,0a.907.907,0,0,1,.648.208" transform="translate(-39.112 -55.873)" fill="#75c8fa"/>
          <path id="Trazado_203810" data-name="Trazado 203810" d="M33.445,118.271c-.333.009-.666.027-1,.027q-14.729,0-29.458-.006c-2.092,0-3.019-1-2.987-3.088q.167-10.766.282-21.532c.05-4.152.083-8.3.124-12.457.3-1.01,1.177-1.453,1.976-1.962.213-.136.382-.022.465.211a42.518,42.518,0,0,1,.063,4.469c.02.375.012.749,0,1.123s0,.754,0,1.131q0,1.513,0,3.026c-.005,1.108,0,2.216,0,3.324q0,.569,0,1.138t0,1.144c0,1.659-.014,3.319.012,4.977q.025,3.909,0,7.82c-.009,1.017-.028,1.017,1.024,1.069,2.513,0,5.027-.094,7.537.05.322.091.38.313.264.593A16.256,16.256,0,0,1,7.261,115.8a1,1,0,0,1-.241.066c-1.716.07-3.433.009-5.148.037-.292,0-.7-.11-.817.244s.2.6.441.835a2.288,2.288,0,0,0,1.652.477c.493.021,1.038-.161,1.453.283.306.286.685.159,1.029.159q13.5.007,27,0a1.035,1.035,0,0,1,.777.142.145.145,0,0,1,.04.221" transform="translate(0 -44.13)" fill="#535355"/>
          <path id="Trazado_203811" data-name="Trazado 203811" d="M87.4,28.235,90.9,24.866c.389.156.5.036.347-.348a29.673,29.673,0,0,1,2.312-2.264c.235.231.166.514.137.792a16.321,16.321,0,0,0,.023,3.356,7.225,7.225,0,0,1-3.394,7.27,1.252,1.252,0,0,1-.632.248c-.321,0-.475-.26-.672-.454a3.917,3.917,0,0,0-2.085-1.2c-.649-.109-.915.13-.844.787a3.07,3.07,0,0,0,.843,1.763,1.979,1.979,0,0,1,.583.79c.052.348-.169.568-.377.792a14.975,14.975,0,0,0-2.656,4.058,1.053,1.053,0,0,1-.224.251c-.572.428-1.187.794-1.764,1.218-.209.155-.456.389-.729.067-.157-.553-.439-.546-.806-.183-.758.747-1.5,1.508-2.262,2.253a1.083,1.083,0,0,0-.273.979,4.955,4.955,0,0,1-1.613,1.768c-.569-.1-.81-.622-1.215-.934-.448-.458-.887-.927-1.361-1.357a2.608,2.608,0,0,1-.913-1.8,4,4,0,0,1,.955-1.576c.984-.859,1.87-1.818,2.793-2.739q4.486-4.469,8.954-8.954A11.4,11.4,0,0,1,87.4,28.235" transform="translate(-40.857 -12.401)" fill="#fcf1d2"/>
          <path id="Trazado_203812" data-name="Trazado 203812" d="M109.954,26.007c1.725-.822,3.757-2.993,3.848-5.148.046-1.071.02-2.121-.03-3.184a13.77,13.77,0,0,1,.141-3.2c1.868-1.891,3.717-3.8,5.614-5.662a1.722,1.722,0,0,1,2.437-.029c.535.469.994,1.023,1.488,1.539a1.544,1.544,0,0,1-.155,1.25c-.335.154-.529-.09-.73-.276-.394-.366-.763-.759-1.148-1.135a1.261,1.261,0,0,0-.5-.353.623.623,0,0,0-.682.238c-.225.259,0,.414.156.577.938.981,1.966,1.873,2.841,2.916a.957.957,0,0,1,.069.214,1.076,1.076,0,0,1-.077.665c-.34.244-.514-.069-.7-.239-.545-.505-1.048-1.053-1.588-1.563-.19-.18-.43-.566-.674-.335-.266.251.129.483.306.665.822.845,1.66,1.674,2.5,2.5.255.337.705.534.74,1.029-.31.553-.913.9-1.1,1.541a.38.38,0,0,1-.408-.07c-1.13-1.077-2.212-2.2-3.324-3.3a2.242,2.242,0,0,0-.46-.4.215.215,0,0,0-.28.012.23.23,0,0,0-.013.283,2.318,2.318,0,0,0,.449.521c1.152,1.165,2.328,2.306,3.468,3.483a.714.714,0,0,1,.171.4,2.939,2.939,0,0,1-.99,1.552c-.405.069-.587-.26-.812-.482-1.129-1.112-2.245-2.238-3.367-3.358a3.832,3.832,0,0,0-.39-.369c-.14-.106-.3-.255-.463-.066-.124.147.012.29.113.4.329.358.688.685,1.023,1.038,1.089,1.147,2.306,2.171,3.3,3.409a.325.325,0,0,1-.039.209,12.352,12.352,0,0,0-1.9,1.652c-.161.165-.293.357-.542.4-.21.031-.352-.171-.57-.165.042.3.391.478.321.814-.283.627-.12,1.4-.657,1.945a2.4,2.4,0,0,0-1.568.1,1.35,1.35,0,0,1-1.628-.22c-.2-.18-.463-.378-.764-.25-.332.141-.164.438-.142.677.033.36-.172.507-.478.582a9.639,9.639,0,0,1-1.59.269c-.651.046-1.016-.392-1.32-.893a.146.146,0,0,1,.093-.186" transform="translate(-61.216 -4.621)" fill="#fcf0cd"/>
          <path id="Trazado_203813" data-name="Trazado 203813" d="M94.708,61.791l.153-.154a6.427,6.427,0,0,1,2.189-1.29,2.265,2.265,0,0,1,1,2.852c-.031.1-.065.194-.092.292-.073.26-.1.525.178.677.3.17.47-.074.627-.274.692-.884,1.375-1.776,2.073-2.656.064-.08.123-.164.186-.243.525-.649.682-.667,1.277-.1.576.544,1.1,1.143,1.7,1.66a1.087,1.087,0,0,1,.378,1.163,7.314,7.314,0,0,1-.6,1.814,2.012,2.012,0,0,1-.892.916,9.9,9.9,0,0,0-3.048,2.529,1.978,1.978,0,0,1-.781.607,9.764,9.764,0,0,0-2.327,2.069,2.351,2.351,0,0,0-.872,1.114c.449-.016.615-.332.839-.538.337-.311.638-.663.986-.962.17-.147.336-.44.635-.176.106.675-.28,1.253-.369,1.889a1.235,1.235,0,0,1-.2.394c-.219.34-.874.608-.177,1.1a.447.447,0,0,1,.173.375.766.766,0,0,1-.186.405c-.626.813-.6.878.423,1.193a.57.57,0,0,1,.134.068c.244.3.368.665.587.976a1.59,1.59,0,0,1-2.243-.3c-.514-.475-.886-1.117-1.576-1.394-.306-.154-.459-.469-.717-.673q-.243-.253-.5-.5c-.351-.387-.761-.713-1.128-1.083a1.442,1.442,0,0,1-.312-.611,8.284,8.284,0,0,1,.483-2.588,6.375,6.375,0,0,0,2.41-1.919c.591-.565,1.166-1.146,1.732-1.736.13-.136.389-.306.208-.5-.219-.236-.42.023-.573.172-.916.89-1.8,1.814-2.724,2.694-.217.206-.394.669-.854.353-.2-.475.025-.924.081-1.384a1.4,1.4,0,0,1,.174-.422c.7-.695,1.413-1.382,2.107-2.088a2.349,2.349,0,0,0,.4-.46c.052-.089.1-.193.023-.283a.232.232,0,0,0-.339,0c-.391.286-.687.677-1.052.99-.209.178-.373.52-.75.3-.24-.44.023-.888-.022-1.331a1.932,1.932,0,0,1,.159-.665c.435-.711.466-1.6,1.018-2.263" transform="translate(-51.396 -33.628)" fill="#fcefc8"/>
          <path id="Trazado_203814" data-name="Trazado 203814" d="M3.149,46.519a8.151,8.151,0,0,0-2.277,2q-.011-9.4-.023-18.8-.006-4.6-.012-9.205a12.253,12.253,0,0,1,1.665.122c.546.084.66.319.658.8-.007,2.062.009,4.125.017,6.188.28.383.2.857.324,1.28a14.7,14.7,0,0,1,.034,1.688c.039,5-.242,10-.136,15a1.587,1.587,0,0,1-.143.82l-.106.108" transform="translate(-0.466 -11.431)" fill="#646466"/>
          <path id="Trazado_203815" data-name="Trazado 203815" d="M106.013,55.994c-.574-.061-.461-.579-.614-.921a.2.2,0,0,1-.045-.2,3.97,3.97,0,0,1,.766-.853q11.7-11.709,23.412-23.413c.163-.163.33-.322.487-.491.53-.568.536-.78-.028-1.349-1.786-1.8-3.586-3.584-5.372-5.384-.263-.265-.621-.474-.653-.91.209-.382.611-.5.958-.689.339-.017.511.247.731.431.589.562,1.132,1.169,1.668,1.781a20.81,20.81,0,0,0,2.347,2.495c.47.5.973.973,1.456,1.463a1.867,1.867,0,0,1,.151,2.874,1.872,1.872,0,0,0-.189.4c-.3.371-.685.665-1,1.025q-1.84,1.824-3.663,3.666c-.728.706-1.438,1.431-2.154,2.15-.263.217-.45.542-.829.6-.319-.109-.366.038-.286.306a14.542,14.542,0,0,1-2.119,2.334c-.883.84-1.7,1.743-2.607,2.561-.178.159-.383.285-.568.435-.391.365-.792.719-1.17,1.1q-5,4.99-9.993,9.985c-.216.215-.457.4-.686.606" transform="translate(-58.702 -12.138)" fill="#fcedc2"/>
          <path id="Trazado_203816" data-name="Trazado 203816" d="M86.078,35.763c-.162.2-.309.405-.487.584q-5.977,5.987-11.962,11.966c-.174.174-.31.426-.623.386l-.1-.055a21.44,21.44,0,0,1-1.783-3.3,2,2,0,0,1,.947-2.616c1.8-1.027,3.68-1.91,5.531-2.844a10.439,10.439,0,0,0,1.142-.629c.35-.189.712-.356,1.067-.535q.285-.131.56-.281c.4-.191.8-.392,1.193-.6.245-.115.487-.235.728-.356.249-.093.452-.3.741-.3,1.107-.281,1.974-1.074,3.049-1.423" transform="translate(-39.531 -19.928)" fill="#f2ab7a"/>
          <path id="Trazado_203817" data-name="Trazado 203817" d="M71.765,6.917c2.182-1.7,4.341-3.439,6.6-5.044C78.9,1.491,79.459,1.13,80,.747A2.222,2.222,0,0,1,81.5.3,2.508,2.508,0,0,1,83.4,3.073q.043,5.251.057,10.5c0,.868-.013,1.736-.021,2.6-.18.208-.216.672-.676.377a2.3,2.3,0,0,1-.158-1.2Q82.6,9.52,82.6,3.686a3.642,3.642,0,0,0-.295-1.722,1.53,1.53,0,0,0-.427-.537c-.182-.137-.379-.315-.619-.2-.212.106-.178.353-.18.551-.016,1.382,0,2.764-.012,4.145a1.434,1.434,0,0,1-.248,1.091,1.6,1.6,0,0,1-.888.17q-3.588.01-7.177,0c-.349,0-.723.041-.994-.27" transform="translate(-39.99 -0.166)" fill="#646466"/>
          <path id="Trazado_203818" data-name="Trazado 203818" d="M74.536,154.013l-.6-.143c-.155,0-.192-.089-.181-.222a1.271,1.271,0,0,1,.651-.694.823.823,0,0,1,.271,0c2.638.051,5.279.106,7.912,0,7.422-.286,14.845-.046,22.267-.135a10.5,10.5,0,0,0,1.3-.05,1.762,1.762,0,0,0,1.581-1.154,2.223,2.223,0,0,0,.149-1.052c0-1.994,0-3.988,0-5.981a1.613,1.613,0,0,1,.169-1.038.65.65,0,0,1,.87.675c-.005,2.386.108,4.773-.053,7.157a2.455,2.455,0,0,1-2.482,2.467c-7.65.289-15.3.072-22.953.153-.506.005-1.01.086-1.516.132a18.4,18.4,0,0,0-2.456-.067H76.1a9.782,9.782,0,0,1-1.561-.051" transform="translate(-41.097 -79.977)" fill="#cdddf4"/>
          <path id="Trazado_203819" data-name="Trazado 203819" d="M146.332,44.039c.313-.352.553-.788,1.061-.913.544,1.071,1.1,2.137,1.628,3.213a1.806,1.806,0,0,1-.869,2.692q-6.677,3.442-13.367,6.858c-.161.053-.2-.02-.17-.166l2.63-2.6c3.112-1.641,6.245-3.243,9.384-4.83.251-.127.5-.252.748-.387a.741.741,0,0,0,.343-1.14c-.472-.9-.927-1.817-1.388-2.727" transform="translate(-75.007 -24.031)" fill="#ee8e49"/>
          <path id="Trazado_203820" data-name="Trazado 203820" d="M151.808,130.086c0-2.126-.027-4.253.011-6.378.012-.681-.109-1.2-.781-1.475a.96.96,0,0,1-.215-.787c-.024-3.5.029-7-.03-10.5a2.052,2.052,0,0,1,.081-.682.7.7,0,0,1,.15-.243,1.016,1.016,0,0,0,.556-1.068c-.018-.866,0-1.732-.006-2.6a2.189,2.189,0,0,1,.2-1.039l.057.005c.212.211.137.481.137.728q0,11.658-.012,23.316c0,.247.079.518-.143.724" transform="translate(-84.027 -58.684)" fill="#d5e2f6"/>
          <path id="Trazado_203821" data-name="Trazado 203821" d="M144.138,16.887c-.2.364-.615.406-.924.607a.217.217,0,0,1-.2.035c-1.107-.925-2.063-2-3.086-3.016-.085-.123-.17-.245-.093-.4.373-.343-.059-.887.308-1.23l1.425,1.257a3.646,3.646,0,0,1,.967.8c.456.476.929.934,1.395,1.4.117.167.336.3.213.554" transform="translate(-77.902 -7.176)" fill="#fcefc8"/>
          <path id="Trazado_203822" data-name="Trazado 203822" d="M144.635,16.2a2.92,2.92,0,0,1-.852-.905c1.566-.659,2.278-.4,3.059,1.134.2.383.375.773.562,1.16-.046.361-.03.752-.446.937l-.6-.479-.315-.437c-.395-.544-.686-1.191-1.407-1.41" transform="translate(-80.121 -8.331)" fill="#f1a36b"/>
          <path id="Trazado_203823" data-name="Trazado 203823" d="M96.411,93.557a1.519,1.519,0,0,1,.65.738q-.017,1.229-.034,2.458l-.611-.012a4.634,4.634,0,0,1,0-3.183" transform="translate(-53.568 -52.133)" fill="#545456"/>
          <path id="Trazado_203824" data-name="Trazado 203824" d="M150.953,21.833c.191-.292.173-.684.446-.937l1.338,2.606a7.754,7.754,0,0,1-1.784-1.668" transform="translate(-84.117 -11.644)" fill="#f09a5e"/>
          <path id="Trazado_203825" data-name="Trazado 203825" d="M96.7,36.622a1.007,1.007,0,0,1,.446-.456q.025.622.049,1.245a1.161,1.161,0,0,1-.651.408.881.881,0,0,1-.154-.827.51.51,0,0,1,.31-.369" transform="translate(-53.692 -20.153)" fill="#555455"/>
          <path id="Trazado_203826" data-name="Trazado 203826" d="M86.636,167.155a7.594,7.594,0,0,1,2.438.121l-2.439-.013c-.053-.024-.07-.048-.053-.072a.07.07,0,0,1,.053-.036" transform="translate(-48.243 -93.122)" fill="#868e98"/>
          <path id="Trazado_203827" data-name="Trazado 203827" d="M113.362,27.368c.2.154.572.27.249.594s-.44-.054-.6-.246l.347-.348" transform="translate(-62.976 -15.25)" fill="#807f7d"/>
          <path id="Trazado_203828" data-name="Trazado 203828" d="M79.06,167.2l1.694,0c.048.026.064.051.048.076s-.032.038-.049.038l-1.694,0c0-.035,0-.071,0-.106" transform="translate(-44.055 -93.169)" fill="#9aa4b2"/>
          <path id="Trazado_203829" data-name="Trazado 203829" d="M82.884,167.311c0-.038,0-.076,0-.114l1.694,0a.887.887,0,0,0,0,.108l-1.694,0" transform="translate(-46.185 -93.168)" fill="#9199a7"/>
          <path id="Trazado_203830" data-name="Trazado 203830" d="M77.089,167.207c0,.035,0,.071,0,.106l-1.56,0a.326.326,0,0,0-.006-.106l1.566,0" transform="translate(-42.084 -93.174)" fill="#9fa9b8"/>
          <path id="Trazado_203831" data-name="Trazado 203831" d="M134.064,71.577l.17.166a.976.976,0,0,1-.617.311.947.947,0,0,1,.447-.477" transform="translate(-74.456 -39.885)" fill="#f3b381"/>
          <path id="Trazado_203832" data-name="Trazado 203832" d="M40.756,7.464c-.742,0-1.484,0-2.226,0-.516,0-.832-.206-.845-.759-.013-.573.357-.774.836-.78,1.509-.018,3.019-.02,4.529,0,.485.008.835.242.806.808s-.368.736-.874.731c-.742-.008-1.484,0-2.226,0" transform="translate(-20.999 -3.294)" fill="#b0b0b4"/>
          <path id="Trazado_203833" data-name="Trazado 203833" d="M56.419,7.407a2.9,2.9,0,0,1-.611-.008.754.754,0,0,1-.639-.676.716.716,0,0,1,.449-.743,2.044,2.044,0,0,1,1.632.055.692.692,0,0,1,.325.8c-.137.657-.667.594-1.156.573" transform="translate(-30.741 -3.253)" fill="#b0b0b4"/>
          <path id="Trazado_203834" data-name="Trazado 203834" d="M133.817,111.458l-10.608-.04c1.552-.456,3.11-.891,4.651-1.382.315-.1.8-.049.881-.562a2.325,2.325,0,0,1,1.386-.492c.244.273.459.038.677-.044q1.582-.6,3.162-1.2a.825.825,0,0,1,.232.693,11.585,11.585,0,0,1-.13,2.925.217.217,0,0,1-.252.1" transform="translate(-68.657 -60.034)" fill="#66c2fa"/>
          <path id="Trazado_203835" data-name="Trazado 203835" d="M93.915,92.847q0,1.592,0,3.183l-2,0a6.681,6.681,0,0,1-.131-3.256.476.476,0,0,1,.3-.261c.446-.045.857-.343,1.333-.2l.5.524" transform="translate(-51.072 -51.423)" fill="#4a4a4c"/>
          <path id="Trazado_203836" data-name="Trazado 203836" d="M147.512,110.613l-.005-3.685q0-.076.005-.151a1.707,1.707,0,0,1,1.385-.464l.153,0a.755.755,0,0,1,.355.638,27.49,27.49,0,0,1,.008,3.185.747.747,0,0,1-.213.476l.013.039a1.6,1.6,0,0,1-1.7-.041" transform="translate(-82.196 -59.226)" fill="#60b3e7"/>
          <path id="Trazado_203837" data-name="Trazado 203837" d="M85.652,107.97a1.372,1.372,0,0,1-1.387-1.485,1.394,1.394,0,0,1,1.413-1.4,1.538,1.538,0,0,1,1.508,1.514,1.467,1.467,0,0,1-1.534,1.375" transform="translate(-46.955 -58.555)" fill="#737375"/>
          <path id="Trazado_203838" data-name="Trazado 203838" d="M135.55,107.527a1.989,1.989,0,0,1-1.386.491q-1.348-.531-1.21-1.632a1.4,1.4,0,0,1,1.252-1.258,1.47,1.47,0,0,1,1.344,2.4" transform="translate(-74.08 -58.579)" fill="#737375"/>
          <path id="Trazado_203839" data-name="Trazado 203839" d="M110,107.969a1.408,1.408,0,0,1-1.389-1.439,1.452,1.452,0,0,1,1.4-1.449,1.5,1.5,0,0,1,1.523,1.5A1.451,1.451,0,0,1,110,107.969" transform="translate(-60.519 -58.555)" fill="#737375"/>
          <path id="Trazado_203840" data-name="Trazado 203840" d="M73.914,113.356c-.889,0-1.779-.006-2.667.019-.422.012-.6-.128-.58-.566.027-.532.011-1.067.014-1.6a12.188,12.188,0,0,1,3.233,2.147" transform="translate(-39.378 -61.97)" fill="#66c2fa"/>
          <path id="Trazado_203841" data-name="Trazado 203841" d="M151.142,110.072a24.686,24.686,0,0,0-.151-4.3c.216-.309.616-.262.889-.46.018,1.427.028,2.855.058,4.282.014.657-.443.467-.8.476" transform="translate(-84.138 -58.685)" fill="#6ac4fa"/>
          <path id="Trazado_203842" data-name="Trazado 203842" d="M148.9,105.968a5.187,5.187,0,0,1-1.385.464c.181-.808.746-1,1.385-.464" transform="translate(-82.203 -58.882)" fill="#6fbbea"/>
          <path id="Trazado_203843" data-name="Trazado 203843" d="M16.5,152.766a21.754,21.754,0,0,0,4.47-6.735l.1-.115a1.787,1.787,0,0,1,.971-.164q8.714-.007,17.427,0a2.643,2.643,0,0,1,.837.083.7.7,0,0,1,.259.159,1.529,1.529,0,0,1,.184.883q.013,2.635,0,5.271a1.471,1.471,0,0,1-.18.883A4.753,4.753,0,0,1,38.993,153c-2.064.03-4.128.014-6.192.011a3.7,3.7,0,0,1-.986-.071c-.155-.077-.372-.137-.174-.372a2.313,2.313,0,0,1,.507-.338,1.946,1.946,0,0,0,.859-2.194,2.481,2.481,0,0,0-2.069-1.477,1.893,1.893,0,0,0-1.817,1.388,2.009,2.009,0,0,0,.814,2.284,2.144,2.144,0,0,1,.506.34c.194.242-.035.291-.19.371a3.331,3.331,0,0,1-.917.076q-5.835,0-11.67,0a1.525,1.525,0,0,1-1.167-.246" transform="translate(-9.193 -81.216)" fill="#404042"/>
          <path id="Trazado_203844" data-name="Trazado 203844" d="M13.547,161.343l14.028-.012a.8.8,0,0,1,1.042.007l8.033.005c.329,0,.675-.055.873.31a6.362,6.362,0,0,1,.806,1.288.343.343,0,0,1-.081.482,1.748,1.748,0,0,1-.973.148q-12.471,0-24.942,0a2.3,2.3,0,0,1-.908-.089c-.45-.295-.115-.537.093-.709a12.185,12.185,0,0,1,1.879-1.426l.149,0" transform="translate(-6.242 -89.794)" fill="#363638"/>
          <path id="Trazado_203845" data-name="Trazado 203845" d="M10.33,165.743c.226.252.527.15.8.15q12.743.008,25.486,0c.269,0,.569.1.8-.144.308-.1.451.1.574.325l.186.165c-.193.184-.435.12-.658.12q-13.859,0-27.717,0c-.072,0-.144-.012-.226-.02,0-.212.19-.209.3-.29.1-.185.181-.4.463-.307" transform="translate(-5.332 -92.347)" fill="#414143"/>
          <path id="Trazado_203846" data-name="Trazado 203846" d="M5.833,163.447l-.462.307a3.881,3.881,0,0,0-1.869-.141,2.051,2.051,0,0,1-1.843-1.155c-.325-.581-.153-.852.505-.855,1.942-.006,3.885,0,5.827,0a11.835,11.835,0,0,1-2.158,1.843" transform="translate(-0.835 -90.05)" fill="#4a4a4c"/>
          <path id="Trazado_203847" data-name="Trazado 203847" d="M82.3,71.173,81.019,69.79a15.49,15.49,0,0,0,1.607-1.762,28.241,28.241,0,0,0,2.709-2.549c.235-.216.41-.534.8-.528.215.241.369.012.514-.086.611-.41,1.21-.837,1.814-1.257a7.138,7.138,0,0,1-.907,2.307,1.19,1.19,0,0,0-1.023.412c-.661.681-1.345,1.338-2.005,2.019-.184.189-.577.447-.346.669.281.269.522-.156.725-.348.6-.564,1.16-1.16,1.749-1.732.2-.19.361-.449.7-.415.34.467-.143.961.048,1.433.039.249-.141.39-.275.553-.408.414-.829.816-1.227,1.24-.178.19-.559.421-.339.665.248.275.456-.136.661-.282s.365-.433.692-.406c.057.546-.251,1.064-.128,1.615a.7.7,0,0,1-.158.711,23.956,23.956,0,0,0-.484,2.834c-.335.02-.489-.256-.706-.429a44.5,44.5,0,0,1-3.13-3.28" transform="translate(-45.147 -35.445)" fill="#fcf0cd"/>
          <path id="Trazado_203848" data-name="Trazado 203848" d="M105.37,46.1c-.006.034-.012.067-.019.1.1.336-.191.448-.375.58a10.429,10.429,0,0,0-1.445,1.335c-.189.088-.27-.044-.353-.173a5.162,5.162,0,0,1-1.5-2.355c-.188-1.012.184-1.379,1.2-1.19a5.259,5.259,0,0,1,2.491,1.7" transform="translate(-56.632 -24.716)" fill="#737375"/>
          <path id="Trazado_203849" data-name="Trazado 203849" d="M101.251,52.468l.293.189a1.335,1.335,0,0,1,.948,1.588c-.033.276-.1.546-.148.82-.278.99-.278.99-1.039.678a.468.468,0,0,0-.709.111.765.765,0,0,1-.266.15,10.747,10.747,0,0,1-2.159,1.243,13.66,13.66,0,0,1,2.687-4.148c.172-.185.4-.337.394-.63" transform="translate(-54.704 -29.237)" fill="#fcf0cd"/>
          <path id="Trazado_203850" data-name="Trazado 203850" d="M85.15,60.2a.425.425,0,0,1,.452.225.389.389,0,0,1-.105.485c-.421.444-.856.874-1.288,1.307-.721.722-1.437,1.449-2.17,2.158-.222.215-.482.586-.823.223-.278-.3-.012-.558.211-.78q1.623-1.623,3.247-3.244a4.68,4.68,0,0,1,.476-.375" transform="translate(-45.19 -33.544)" fill="#fe7d70"/>
          <path id="Trazado_203851" data-name="Trazado 203851" d="M87.936,65.833l-2.726,2.7c-.217.214-.41.476-.779.38a.54.54,0,0,1,.03-.816c.89-.887,1.775-1.779,2.667-2.663.163-.162.345-.319.61-.2.282.13.215.372.2.6" transform="translate(-46.952 -36.326)" fill="#fe7d70"/>
          <path id="Trazado_203852" data-name="Trazado 203852" d="M116.993,30.948c-.117.178-.235.412-.4.314a1.174,1.174,0,0,1-.632-.7.256.256,0,0,1,.286-.277c.351.1.533.408.745.667" transform="translate(-64.616 -16.87)" fill="#767676"/>
          <path id="Trazado_203853" data-name="Trazado 203853" d="M105.575,53.747a1.508,1.508,0,0,0,.713-.567,9.421,9.421,0,0,1,3.1-2.564,1.854,1.854,0,0,0,.788-.788c.115.043.189.145.294.2.336.011.371-.333.571-.48.21-.254.407-.518.6-.785a1.2,1.2,0,0,1,.978-.619.811.811,0,0,0,.82-.674,1.838,1.838,0,0,1,1-1.416,9.165,9.165,0,0,0,.917-.723c-.08-.3-.442-.273-.514-.533a21,21,0,0,0-.455-3.94c-.108-.362.131-.633.4-.847a8.586,8.586,0,0,0,1.252-1.234,2.245,2.245,0,0,0,.518-.6,6.581,6.581,0,0,0,.823-2.376.979.979,0,0,1,.384-.8c.5-.089.7.339.991.6.342.3.641.655.983.959.124.11.278.294.45.091.115-.136.01-.29-.089-.409-.245-.294-.537-.543-.8-.823a11.783,11.783,0,0,1-1.3-1.388.216.216,0,0,1,.036-.2c.188-.594.784-.945.933-1.563a.474.474,0,0,1,.474.186c1.763,1.777,3.6,3.484,5.279,5.341a.632.632,0,0,1,.04.218,4.986,4.986,0,0,1-1.191,2.11,15.277,15.277,0,0,1-2.59,2.471.77.77,0,0,0-.479.472,2.461,2.461,0,0,1-.609.781Q112.436,51.3,104.976,58.76a2.284,2.284,0,0,1-.582.494.213.213,0,0,1-.2-.04A.329.329,0,0,0,104,58.89c-.019-.2.138-.308.23-.452,1.1-1.307,2.475-2.359,3.584-3.78-.489-.076-.631.213-.818.394-.641.621-1.26,1.264-1.9,1.886-.21.2-.38.5-.749.452,0-.712.409-1.336.449-2.041-.06-.335.185-.509.4-.646a.844.844,0,0,0,.372-.955" transform="translate(-57.955 -17.973)" fill="#fcedc2"/>
          <path id="Trazado_203854" data-name="Trazado 203854" d="M125.557,38c-.449.409-.263,1-.425,1.5a6.2,6.2,0,0,1-.763,1.723c-.288.2-.422-.233-.682-.166,0,.232.312.364.194.627a2.894,2.894,0,0,1-1.241,1.38.725.725,0,0,0-.333.948,11.563,11.563,0,0,1,.342,3.838c.033.143-.054.216-.16.278-.187.085-.393.117-.581.2a1.664,1.664,0,0,1-2.381-.6c-.291-.47-.861-.715-1.251-1.126-.646-.682-.649-.8.054-1.4.156-.133.32-.256.486-.375.776-.569,1.518-1.183,2.288-1.761a1.481,1.481,0,0,0,.617-.913c.34-.626.2-1.4.619-2a3.411,3.411,0,0,1,.333-.622c.554-.535,1.112-1.066,1.661-1.606.218-.215.422-.439.77-.387.35-.04.508.107.453.463" transform="translate(-65.641 -20.914)" fill="#fcefc8"/>
          <path id="Trazado_203855" data-name="Trazado 203855" d="M115.03,47.133a.454.454,0,0,1-.112.754c-.894.658-1.769,1.343-2.652,2.018-1.656.511-3.3,1.043-4.908,1.7-.287.118-.58.366-.93.14a.687.687,0,0,1,0-.227,1.8,1.8,0,0,0-.635-2.21c.2-.664.761-.987,1.262-1.373.22-.169.413-.371.618-.559.8,1.207,1.9.677,2.944.514.38-.059.3-.272.154-.487a.526.526,0,0,1,.083-.8.566.566,0,0,1,.823.089,1.784,1.784,0,0,0,2.327.258.809.809,0,0,1,1.028.178" transform="translate(-58.95 -25.892)" fill="#646466"/>
          <path id="Trazado_203856" data-name="Trazado 203856" d="M138.8,27.074c-.072-.806.611-1.087,1.063-1.53a.192.192,0,0,1,.193-.057c.332.15.513.489.826.662a.242.242,0,0,0,.34-.033c.073-.095.02-.195-.035-.281-.161-.252-.45-.423-.477-.76a.6.6,0,0,1,.419-.514.659.659,0,0,1,.444.176,9.984,9.984,0,0,1,2.617,3.37,8.845,8.845,0,0,1,.494,3.852c-.01.259-.052.52-.364.608-.352.037-.563-.2-.778-.416q-2.2-2.183-4.38-4.383c-.185-.187-.465-.348-.36-.7" transform="translate(-77.334 -13.687)" fill="#fcedc2"/>
          <path id="Trazado_203857" data-name="Trazado 203857" d="M137.959,29.984l5.415,5.384a.55.55,0,0,1,.248.374c-.045.294,0,.645-.426.706q-2.5-2.475-5.01-4.95c-.217-.213-.454-.405-.682-.607l-.163-.283c-.185-.39-.011-.639.324-.824l.295.2" transform="translate(-76.489 -16.597)" fill="#44b5fa"/>
          <path id="Trazado_203858" data-name="Trazado 203858" d="M128.974,29.993c.008.046.015.093.022.139a1.1,1.1,0,0,1-.655.5q-2.213-2.186-4.425-4.373c-.206-.2-.425-.424-.161-.72.291-.326.55-.134.782.1q2.042,2.034,4.081,4.072a4.137,4.137,0,0,0,.356.285" transform="translate(-68.893 -14.135)" fill="#66c2fa"/>
          <path id="Trazado_203859" data-name="Trazado 203859" d="M135.736,13.127l.156.307a2.348,2.348,0,0,1-.154,1.692c-.953-.928-1.916-1.847-2.853-2.791-.2-.205-.712-.37-.233-.828.406-.388.788-.576,1.256-.13q.917.873,1.828,1.751" transform="translate(-73.808 -6.195)" fill="#e8debe"/>
          <path id="Trazado_203860" data-name="Trazado 203860" d="M139.848,18.04c.08-.561-.175-1.153.154-1.692a35.974,35.974,0,0,1,3.078,3.077c-.228.44-.715.518-1.078.77l-.305-.158a5.792,5.792,0,0,1-1.847-1.846c0-.05,0-.1,0-.151" transform="translate(-77.918 -9.11)" fill="#e6dab7"/>
          <path id="Trazado_203861" data-name="Trazado 203861" d="M132.531,24.857l-.324.824q-1.935-1.91-3.868-3.821c-.227-.224-.442-.475-.13-.781.28-.275.511-.087.72.124q1.8,1.825,3.6,3.653" transform="translate(-71.357 -11.67)" fill="#67c3fa"/>
          <path id="Trazado_203862" data-name="Trazado 203862" d="M135.611,20.163q-1.4-1.37-2.793-2.741c-.231-.227-.45-.494-.143-.782s.563-.035.789.183q1.158,1.12,2.31,2.244A.308.308,0,0,1,136,19.4a1.052,1.052,0,0,1-.387.759" transform="translate(-73.848 -9.2)" fill="#66c2fa"/>
          <path id="Trazado_203863" data-name="Trazado 203863" d="M134.266,36.631a.806.806,0,0,1,.654-.5l2.174,2.131c.233.228.429.491.161.788-.294.324-.544.077-.771-.141l-1.75-1.687a1.018,1.018,0,0,0-.453-.464.776.776,0,0,0-.015-.128" transform="translate(-74.818 -20.134)" fill="#45b5fa"/>
          <path id="Trazado_203864" data-name="Trazado 203864" d="M140.038,21.581l-.174-.286q0-.393.006-.785a13.475,13.475,0,0,1,1.846,1.846l-.314.478a.242.242,0,0,1-.209.023,3.219,3.219,0,0,1-1.155-1.276" transform="translate(-77.937 -11.429)" fill="#faeec8"/>
          <path id="Trazado_203865" data-name="Trazado 203865" d="M139.832,22.928l1.23,1.234a1.153,1.153,0,0,1-.652.506l-.147-.034-.769-.895a1.555,1.555,0,0,1,.337-.811" transform="translate(-77.732 -12.776)" fill="#57bcf9"/>
          <path id="Trazado_203866" data-name="Trazado 203866" d="M124.155,38.073c-.045.244-.23.445-.34.4a1.382,1.382,0,0,1-.726-.742c-.023-.057.208-.312.286-.3.376.074.518.448.78.643" transform="translate(-68.589 -20.857)" fill="#6d6d6c"/>
          <path id="Trazado_203867" data-name="Trazado 203867" d="M127.646,41.481c.306.431-.119.47-.333.622a1.394,1.394,0,0,1-.077-.128c-.132-.28-.749-.409-.418-.8.376-.444.518.269.828.307" transform="translate(-70.614 -22.862)" fill="#676663"/>
          <path id="Trazado_203868" data-name="Trazado 203868" d="M119.814,33.783a1.59,1.59,0,0,1,.678.673.261.261,0,0,1-.277.35,1.153,1.153,0,0,1-.706-.638c-.09-.155.148-.279.3-.385" transform="translate(-66.584 -18.825)" fill="#676768"/>
          <path id="Trazado_203869" data-name="Trazado 203869" d="M104.9,55.948a50.857,50.857,0,0,1,5.437-1.894c.15-.038.286-.12.4.05-1.088.944-1.089.944-.042,1.963a3.135,3.135,0,0,1,.6.591c.636,1.122,1.546,1,2.537.62a2.88,2.88,0,0,1,.444-.1c.26.467-.082.776-.294,1.119-.327.42-1,.574-.853,1.368.054.29-.408.77-.756.739-.856-.075-1.063.6-1.475,1.057-.1.111-.2.223-.3.335-.29.114-.461.427-.793.472-.15-.061-.133-.2-.16-.324a8.751,8.751,0,0,0,.6-1.969.607.607,0,0,0-.168-.687q-1.054-.945-2.041-1.965c-.3-.306-.447-.274-.692.054-.828,1.1-1.683,2.184-2.535,3.268-.146.186-.282.528-.586.314-.267-.188-.728-.429-.475-.835.79-1.265.16-2.22-.588-3.173a.741.741,0,0,0-.114-.1l.1-.164a2.234,2.234,0,0,1,.828-.337l.681.33.239-.739" transform="translate(-57.422 -30.091)" fill="#535355"/>
          <path id="Trazado_203870" data-name="Trazado 203870" d="M93.645,77.072a.86.86,0,0,1,.158-.711c1.127-1.109,2.251-2.222,3.383-3.326.224-.218.461-.616.817-.287.4.369-.009.638-.246.878-1.059,1.071-2.128,2.132-3.194,3.2-.258.258-.513.529-.918.25" transform="translate(-52.17 -40.468)" fill="#fe604f"/>
          <path id="Trazado_203871" data-name="Trazado 203871" d="M90.87,69.141c-.859.841-1.713,1.687-2.581,2.519-.224.215-.485.6-.823.232-.312-.339.03-.6.262-.835.794-.8,1.593-1.594,2.389-2.391.288-.288.576-.557.959-.129a.99.99,0,0,1-.205.6" transform="translate(-48.669 -38.067)" fill="#fe7060"/>
          <path id="Trazado_203872" data-name="Trazado 203872" d="M97.08,81.389c-.411-.132-.5-.434-.248-.7.954-1,1.944-1.962,2.931-2.928a.368.368,0,0,1,.552.026.33.33,0,0,1,.007.485q-1.475,1.506-2.971,2.992a.9.9,0,0,1-.27.128" transform="translate(-53.879 -43.267)" fill="#fe6050"/>
          <path id="Trazado_203873" data-name="Trazado 203873" d="M104.355,85.106q1.418-1.389,2.836-2.777c.216-.211.455-.518.762-.2s0,.556-.213.771q-1.706,1.7-3.416,3.394c-.512-.235-.279-.58-.134-.912l.164-.28" transform="translate(-57.958 -45.69)" fill="#fe4c3b"/>
          <path id="Trazado_203874" data-name="Trazado 203874" d="M103.24,80.8c.426.307.356.619-.019.895a2.734,2.734,0,0,0-.756.707c-.658.64-1.313,1.284-1.978,1.917-.139.132-.31.3-.521.12a.393.393,0,0,1-.066-.557,23.134,23.134,0,0,1,3.191-3.048.447.447,0,0,1,.149-.034" transform="translate(-55.619 -45.023)" fill="#fe5e4a"/>
          <path id="Trazado_203875" data-name="Trazado 203875" d="M94.362,71.676l.314-.44,1.543-1.489c.194-.187.422-.362.668-.143.28.25.132.518-.086.728a31.486,31.486,0,0,1-2.481,2.387c-.485-.368-.081-.7.042-1.043" transform="translate(-52.429 -38.729)" fill="#fe6150"/>
          <path id="Trazado_203876" data-name="Trazado 203876" d="M92.347,74.412c.077.352-.168.69-.042,1.043l-.131.288c-.315.293-.623.6-.95.876-.171.147-.379.309-.6.094a.425.425,0,0,1,.032-.669c.558-.552,1.129-1.09,1.7-1.633" transform="translate(-50.414 -41.465)" fill="#fe7262"/>
          <path id="Trazado_203877" data-name="Trazado 203877" d="M103.4,93.141l.152,0a3.057,3.057,0,0,1,.314,1.546c0,.05,0,.1,0,.151-.128,0-.256-.006-.383,0a.961.961,0,0,1-.845-.579c-.2-.328.24-.432.379-.645a5.323,5.323,0,0,1,.387-.47" transform="translate(-57.162 -51.9)" fill="#e7dbb8"/>
          <path id="Trazado_203878" data-name="Trazado 203878" d="M93.846,91.069c-.4.086-.743.4-1.188.329-.261-.293-.183-.665-.236-1.007.024-.217.094-.389.363-.355a5.474,5.474,0,0,1,1.06,1.033" transform="translate(-51.502 -50.169)" fill="#ec904e"/>
          <path id="Trazado_203879" data-name="Trazado 203879" d="M91.84,88.88l-.281.3c-.794-.214-1.055-.716-.633-1.219l.62.493.294.43" transform="translate(-50.556 -49.012)" fill="#de935c"/>
          <path id="Trazado_203880" data-name="Trazado 203880" d="M103.6,89.658c.054.3-.116.638.134.912l-.316.308c-.667-.379-.643-.537.182-1.22" transform="translate(-57.364 -49.961)" fill="#fe6755"/>
          <path id="Trazado_203881" data-name="Trazado 203881" d="M105.082,55.766a2.233,2.233,0,0,1-.314-1.546c.2-.228.4-.465.611-.681q7.426-7.432,14.855-14.86c.229-.23.532-.417.557-.794.265-.058.4.2.653.263.011-.267-.324-.414-.228-.686a13.037,13.037,0,0,0,2.763-2.594,7.575,7.575,0,0,0,1.119-1.906c.991-.029.384-.58.312-.956l-.147-.253c.281-.042.263-.255.279-.464a7.339,7.339,0,0,0-2.357-6.433c-.263-.238-.482-.525-.722-.789.166-.526.724-.5,1.078-.77l.15,0q2.971,3.008,5.944,6.014c.954.963.958,1.013.012,1.959q-11.941,11.939-23.883,23.878c-.217.217-.455.41-.683.615" transform="translate(-58.38 -12.982)" fill="#e3d6af"/>
          <path id="Trazado_203882" data-name="Trazado 203882" d="M149.654,45.189c.328.026.372.316.483.534.385.751.726,1.526,1.149,2.255a.742.742,0,0,1-.306,1.148,6.842,6.842,0,0,1-.611.319q-4.737,2.435-9.474,4.873c-.132.068-.233.085-.328-.044l2.156-2.265a.349.349,0,0,1,.356-.355l.728-.612a12.114,12.114,0,0,0,2.151-2.149c1.176-1.29,2.416-2.515,3.695-3.7" transform="translate(-78.33 -25.181)" fill="#d78042"/>
          <path id="Trazado_203883" data-name="Trazado 203883" d="M150.036,53.552a4.449,4.449,0,0,1-2.151,2.15,17.463,17.463,0,0,1,2.151-2.15" transform="translate(-82.407 -29.841)" fill="#ed9452"/>
          <path id="Trazado_203884" data-name="Trazado 203884" d="M145.383,59.379l-.356.355c-.187-.144-.5-.264-.2-.559s.415.017.559.2" transform="translate(-80.633 -32.906)" fill="#454445"/>
          <path id="Trazado_203885" data-name="Trazado 203885" d="M91.936,8.814q0-.616.006-1.233c0-1.844.011-3.688-.007-5.531-.006-.594.19-.734.735-.492a2.232,2.232,0,0,1,1.269,2.322c.006,4.174,0,8.348.008,12.522,0,.293-.117.62.148.874l-.154.307a10.736,10.736,0,0,1-.739,1.255,3.412,3.412,0,0,1-1.212.579c-.376-.309-.268-.735-.251-1.127.019-.429.13-.851.139-1.284a3.346,3.346,0,0,0-.121-1.24c-.128-2.08-.041-4.162-.051-6.242a1,1,0,0,1,.229-.708" transform="translate(-51.091 -0.805)" fill="#5c5c5e"/>
          <path id="Trazado_203886" data-name="Trazado 203886" d="M95.091,39.146c-.115-.631.446-.864.739-1.255l0,.889-.736.366" transform="translate(-52.98 -21.114)" fill="#4d4c4d"/>
          <path id="Trazado_203887" data-name="Trazado 203887" d="M71.767,144.117l-.574-.325a3.466,3.466,0,0,1-.8-1.542q-.021-3.533-.041-7.065a5.28,5.28,0,0,1-.094-2.162,3.923,3.923,0,0,1,1.279-1.4,14.232,14.232,0,0,1,7.185-3.046,6.638,6.638,0,0,0,4.436-2,.694.694,0,0,1,.335-.182,14.849,14.849,0,0,1,3.615.072c.3.329.027.573-.15.8-.474.6-.928,1.217-1.423,1.8-.641.759-.544,1.109.376,1.444a5,5,0,0,1,2.181,1.365,1.719,1.719,0,0,1,.514,1.161.784.784,0,0,1-.468.724,4.53,4.53,0,0,0-1.787,1.916,1.323,1.323,0,0,1-1.419.768,3.3,3.3,0,0,1-1.76-.656c-.174-.105-.336-.231-.513-.33-.232-.129-.485-.241-.679.032a.491.491,0,0,0,.146.679,5.2,5.2,0,0,0,1.909,1.085c.284.093.609.12.774.432,0,.613-.481.878-.879,1.172a12.383,12.383,0,0,1-5.074,1.884,21.82,21.82,0,0,0-2.467.573,2.683,2.683,0,0,1-.629.065c-1.221,0-2.442,0-3.663,0-.456,0-.759.135-.634.674.034.607.689.861.808,1.419a.759.759,0,0,1-.505.639" transform="translate(-39.116 -70.39)" fill="#d2e0f5"/>
          <path id="Trazado_203888" data-name="Trazado 203888" d="M108.759,150.424c-.349,1.024-.918,1.38-2.266,1.381-6.4,0-12.8-.062-19.194.032-3.705.054-7.409.117-11.115.125a1.678,1.678,0,0,1-.969-.156c-.085-.34.172-.515.364-.7a5.5,5.5,0,0,1,2.845-1.524h.4a26.551,26.551,0,0,1,4.066-.141q11.459-.005,22.918,0c1.176,0,1.191-.017,1.192-1.215,0-1.922-.008-3.845.006-5.767,0-.393-.153-.918.284-1.12.506-.233.907.186,1.295.472a.736.736,0,0,1,.216.313c.02,2.768.105,5.536-.044,8.3" transform="translate(-41.904 -78.719)" fill="#b9c7dc"/>
          <path id="Trazado_203889" data-name="Trazado 203889" d="M148.762,136.377q0-4.154,0-8.308a1.891,1.891,0,0,1-.226-1.183c0-2.608,0-5.217-.006-7.825,0-.267.1-.559-.109-.811-.464.088-.671.665-1.2.616-.369-.476-.16-1.031-.208-1.55-.025-.278-.006-.56-.027-.839a.422.422,0,0,1,.08-.254c0-.043,0-.084,0-.126l.155-.038,1.7.04q0,6.061-.007,12.122c0,2.453,0,4.907-.007,7.36,0,.269.1.569-.148.8" transform="translate(-81.907 -64.672)" fill="#c6d1e2"/>
          <path id="Trazado_203890" data-name="Trazado 203890" d="M76.857,160.1a7.2,7.2,0,0,0-3.075,2.151l-.155,0c-.4-.342-.866-.634-.927-1.231-.152-1-.151-1.012.8-.992a27.219,27.219,0,0,1,3.357.07" transform="translate(-40.47 -89.164)" fill="#c0ccdf"/>
          <path id="Trazado_203891" data-name="Trazado 203891" d="M145.708,17.753c1.037-.1,1.09.788,1.407,1.41a10.586,10.586,0,0,1-1.407-1.41" transform="translate(-81.194 -9.888)" fill="#de9766"/>
          <path id="Trazado_203892" data-name="Trazado 203892" d="M83.3,121.053a5.143,5.143,0,0,1-3.868,2.08,15,15,0,0,0-9.054,4.2c-.448-.753-.12-1.594-.27-2.38a9.584,9.584,0,0,0,.007-1.721c.06-1.739,0-3.478.027-5.217.057-.321-.046-.68.217-.954-.04-.477.143-.68.656-.662,1.017.035,2.037.011,3.056.011a9.249,9.249,0,0,1,2.108,1.235,8.85,8.85,0,0,0,7.1,1.409.914.914,0,0,1,.812.088.4.4,0,0,1-.11.543c-.291.192-.634.12-.951.183-.294.058-.648.085-.673.477-.023.36.291.423.565.492a.527.527,0,0,1,.383.212" transform="translate(-39.067 -64.863)" fill="#d6e3f6"/>
          <path id="Trazado_203893" data-name="Trazado 203893" d="M121.921,116.428c0,.05,0,.1,0,.151.19.909-.035,1.838.136,2.747a7.81,7.81,0,0,1-3.222,3.07,2.44,2.44,0,0,1-1.5.143c-.58-.115-1.138-.309-1.714-.434a1.928,1.928,0,0,0-1.816.321c-.145.128-.319.28-.548.137a3.776,3.776,0,0,1-.156-1.72c-.041-.924-.178-1.031-1.047-.719a1.269,1.269,0,0,1-.59.122c-.362-.07-.542-.364-.755-.616a4.143,4.143,0,0,0-3.166-1.467,12.975,12.975,0,0,0-4.444.727c-.4.123-.8.389-1.238.106a2.485,2.485,0,0,1,1.98-2.289,6.753,6.753,0,0,1,1.518-.127,27.105,27.105,0,0,0,4.1-.151h12.464" transform="translate(-56.76 -64.878)" fill="#d6e3f6"/>
          <path id="Trazado_203894" data-name="Trazado 203894" d="M96.751,116.429a7.626,7.626,0,0,1-2.081.309,29.092,29.092,0,0,0-3.133.1,2.667,2.667,0,0,0-2.325,2.2.184.184,0,0,1-.154.154,14.144,14.144,0,0,0-2.177.32,9.978,9.978,0,0,1-6.351-2.011c-.511-.328-.982-.716-1.472-1.077H96.751" transform="translate(-44.054 -64.879)" fill="#dae6f7"/>
          <path id="Trazado_203895" data-name="Trazado 203895" d="M86.995,86.07a3.811,3.811,0,0,1-.916-.961,40.519,40.519,0,0,0-1.833-3.655c-.125-.246-.222-.507-.333-.76a42.63,42.63,0,0,1,3.217,3.215c-.288.665.271.892.633,1.22.294.32.1.712.154,1.065l-.3.049-.625-.173" transform="translate(-46.76 -44.966)" fill="#f0995b"/>
          <path id="Trazado_203896" data-name="Trazado 203896" d="M47.057,156.019l-1.042-.007q-2.167-1.037-1.6-2.886a2.067,2.067,0,0,1,2.06-1.531,2.7,2.7,0,0,1,2.267,1.7,2.2,2.2,0,0,1-1.136,2.461c-.179.093-.365.175-.547.263" transform="translate(-24.683 -84.474)" fill="#939499"/>
          <path id="Trazado_203897" data-name="Trazado 203897" d="M104.108,59.154a.774.774,0,0,1-.828.337c.167-.381.383-.64.828-.337" transform="translate(-57.552 -32.889)" fill="#696868"/>
          <path id="Trazado_203898" data-name="Trazado 203898" d="M127.741,62.086l.294-1.119.155-.152c.264-.039.543-.052.658.24.121.307-.213.36-.367.495-.229.2-.492.36-.741.537" transform="translate(-71.182 -33.877)" fill="#484848"/>
          <path id="Trazado_203899" data-name="Trazado 203899" d="M150.984,42.967a2.334,2.334,0,0,1,.236.194c.2.218.515.431.263.774s-.541.154-.81-.012c-.006-.043-.01-.085-.013-.128a1.868,1.868,0,0,0,.325-.828" transform="translate(-83.953 -23.943)" fill="#41a4e0"/>
          <path id="Trazado_203900" data-name="Trazado 203900" d="M138.625,52.506c-.149.209-.268.448-.437.317-.259-.2-.639-.36-.622-.771,0-.12.214-.315.33-.233a6.432,6.432,0,0,1,.729.687" transform="translate(-76.657 -28.864)" fill="#494848"/>
          <path id="Trazado_203901" data-name="Trazado 203901" d="M130.871,45.648c-.057-.338-.8-.45-.424-.852.458-.491.555.358.912.391.016.343-.134.51-.488.46" transform="translate(-72.631 -24.877)" fill="#565657"/>
          <path id="Trazado_203902" data-name="Trazado 203902" d="M141.384,55.29c.174.177.347.356.523.53.143.142.193.277.026.444s-.3.106-.442-.034c-.175-.175-.355-.345-.533-.518a.911.911,0,0,1,.425-.422" transform="translate(-78.548 -30.81)" fill="#3f3f40"/>
          <path id="Trazado_203903" data-name="Trazado 203903" d="M134.614,49.319c-.23-.247-.59-.4-.651-.776-.02-.124.148-.311.3-.262a1.176,1.176,0,0,1,.717.7c.043.108-.17.28-.363.336" transform="translate(-74.648 -26.9)" fill="#444445"/>
          <path id="Trazado_203904" data-name="Trazado 203904" d="M118.311,72.085a.914.914,0,0,1,.792-.472c-.267.153-.169.917-.792.472" transform="translate(-65.927 -39.905)" fill="#53514f"/>
          <path id="Trazado_203905" data-name="Trazado 203905" d="M141.564,26.22a.778.778,0,0,1,.652-.506l.134.02c.2.228.409.451.6.685a.388.388,0,0,1,.026.553.413.413,0,0,1-.614.062c-.29-.245-.537-.54-.8-.813" transform="translate(-78.885 -14.329)" fill="#47b6f9"/>
          <path id="Trazado_203906" data-name="Trazado 203906" d="M84.268,146.083a22.061,22.061,0,0,1,3.744-.92,10.706,10.706,0,0,0,3.628-1.538,2.041,2.041,0,0,0,.936-1.06.388.388,0,0,1,.182-.152c.522-.147,1.065-.021,1.593-.144a3.882,3.882,0,0,0,3.108-4.062.674.674,0,0,1,.178-.451,6.921,6.921,0,0,0,1.955.785,1.616,1.616,0,0,0,2.159-1.718,7.732,7.732,0,0,1,.033-1.224c.035-.207.015-.56.425-.36a6.612,6.612,0,0,1,.132,1.892c.01,1.377-.016,2.756.013,4.133.009.42-.018,1.037.524,1.022s.41-.634.378-1a30.191,30.191,0,0,1-.078-4.966c.151-.363.041-.788.267-1.133.312-.164.476.1.652.253a4.45,4.45,0,0,0,2.963,1.064,13.546,13.546,0,0,1,4.224.7,1.5,1.5,0,0,1,.895.554.6.6,0,0,1,.017.281c-.009,2.484-.016,4.966.008,7.449.005.542-.162.685-.694.685q-13.361-.023-26.721-.012a.848.848,0,0,1-.522-.073" transform="translate(-46.957 -75.301)" fill="#cdddf4"/>
          <path id="Trazado_203907" data-name="Trazado 203907" d="M83.422,137.514c8.984,0,17.968-.009,26.952.019.763,0,.929-.24.917-.956-.043-2.456-.017-4.914-.017-7.371a50.159,50.159,0,0,1,.154-8.308,7.9,7.9,0,0,1,1.537-1.142v10.373c-.286-.168-.577-.328-.857-.506-.491-.313-.7-.252-.69.4.026,2.254-.017,4.509.026,6.763.013.7-.177.9-.893.9q-13.873-.037-27.746-.018c-.049-.035-.065-.07-.047-.1s.035-.049.052-.049Z" transform="translate(-46.111 -66.733)" fill="#c0ccdf"/>
          <path id="Trazado_203908" data-name="Trazado 203908" d="M106.473,131.129l-.028.456a1.143,1.143,0,0,1-1.137.112c-.194-.088-.132-.309-.233-.446-.133-1.021-.906-1.493-1.694-1.925a10.419,10.419,0,0,0-1.278-.509c-.671-.259-.818-.672-.386-1.228.689-.886,1.409-1.748,2.116-2.62-.025-.4-.338-.219-.513-.224-.865-.022-1.731,0-2.6-.014-.215,0-.5.109-.624-.147-.136-.282.03-.545.193-.776a1.582,1.582,0,0,1,.837-.5,21.34,21.34,0,0,1,3.908-.044c1.145.068,1.449.821.736,1.741-.548.708-1.149,1.373-1.7,2.079-.356.455-.319.717.215,1a4.336,4.336,0,0,1,2.023,2.031c.142.316.364.635.162,1.013" transform="translate(-55.752 -68.65)" fill="#535355"/>
          <path id="Trazado_203909" data-name="Trazado 203909" d="M99.271,148.6l-.162.046a6.3,6.3,0,0,1-2.686-1.26c-.372-.31-.621-.673-.248-1.109.349-.409.717-.212,1.074.069a3.423,3.423,0,0,0,1.99.9c.243.145.519.019.77.095.136.644-.275.966-.739,1.257" transform="translate(-53.489 -81.38)" fill="#545456"/>
          <path id="Trazado_203910" data-name="Trazado 203910" d="M104.121,144.8c-.261-.066-.553.03-.793-.149a1.216,1.216,0,0,0,1.38-.778,4.034,4.034,0,0,1,1.888-1.929.521.521,0,0,0,.3-.56l.153.336a1.629,1.629,0,0,1-.364,1.829,2.559,2.559,0,0,1-2.568,1.251" transform="translate(-57.578 -78.786)" fill="#cbdbf2"/>
          <path id="Trazado_203911" data-name="Trazado 203911" d="M99.59,123.594c-.13.159-.343.085-.491.168a.912.912,0,0,0-.491.879c.042.3.433.143.666.148.866.018,1.733,0,2.6.011.175,0,.509-.1.329.31-.186-.318-.5-.181-.75-.181-1.033,0-2.065.031-3.1.051-.484-.08-1.211.183-1.232-.638-.021-.856.727-.66,1.244-.738.2-.03.4-.036.607-.054.213-.1.425-.179.615.043" transform="translate(-54.121 -68.791)" fill="#656568"/>
          <path id="Trazado_203912" data-name="Trazado 203912" d="M77.035,159.864c0,.05,0,.1,0,.151h-.305c-1.088,0-2.179.048-3.263-.018-.757-.046-1.009.233-.894.94-.336-.946-.252-1.075.711-1.076q1.878,0,3.757,0" transform="translate(-40.338 -89.082)" fill="#cdddf4"/>
          <path id="Trazado_203913" data-name="Trazado 203913" d="M147.011,119.234c0,2.5,0,5.008-.007,7.512,0,.269.1.568-.147.8l0,0a1.837,1.837,0,0,1-.248-1.1q0-2.825,0-5.649a1.922,1.922,0,0,1,.248-1.1q0-1.462,0-2.925a8.636,8.636,0,0,1,.152,2.464" transform="translate(-81.695 -65.069)" fill="#cdddf4"/>
          <path id="Trazado_203914" data-name="Trazado 203914" d="M101.92,121.582l-.615-.043.15-.441.154-.154a16.77,16.77,0,0,1,5.442-1.1,4.3,4.3,0,0,1,3.733,1.86,1.858,1.858,0,0,0,.409.336.255.255,0,0,1-.046.206,8.225,8.225,0,0,1-1.7.854c-.306.139-.656.316-.448.735.182.369.511.2.809.12.634-.162,1.138-.7,1.853-.63.247.139.213.366.194.593-.058.7-.022,1.4-.023,2.1a.735.735,0,0,1-.246.622,4.826,4.826,0,0,0-.118,1.875,1.744,1.744,0,0,1-2.021,1.8,18.746,18.746,0,0,1-1.838-.467c-.311-.078-.244-.425-.433-.586a4.277,4.277,0,0,0-2.658-3.048c-.553-.237-.468-.437-.161-.8.642-.759,1.255-1.543,1.889-2.309.259-.313.617-.6.414-1.064s-.667-.425-1.063-.433c-1.224-.024-2.448-.018-3.672-.023" transform="translate(-56.451 -66.779)" fill="#d2e0f5"/>
          <path id="Trazado_203915" data-name="Trazado 203915" d="M136.005,123.375q0,3.924,0,7.846a10.749,10.749,0,0,0-4.805-1.041,4.973,4.973,0,0,1-3.812-1.573,2.015,2.015,0,0,1,2.88-2.7c1.987.708,3,.453,4.633-1.478a13.665,13.665,0,0,1,1.1-1.053" transform="translate(-70.845 -68.749)" fill="#d2e0f5"/>
          <path id="Trazado_203916" data-name="Trazado 203916" d="M125.324,126.637q-.012,1.077-.024,2.154-.064.555-.128,1.11c-.39-.413-.209-.928-.251-1.4.008-.2.024-.406.031-.61,0-.136.233-.34-.22-.23-.34.082-.415-.543-.5-.858-.087.425.31,1-.291,1.371.009-.725.013-1.45.03-2.174,0-.193.111-.416-.212-.446-.228-.377-.5-.743-.307-1.226.014-.044.028-.089.044-.132.271-.129.539-.267.816-.386.6-.259,1-.021,1.016.632.019.731,0,1.464,0,2.2" transform="translate(-68.756 -68.934)" fill="#646466"/>
          <path id="Trazado_203917" data-name="Trazado 203917" d="M125.75,133.578l.052,1.561c0,1.814-.005,3.628.123,5.439.033.458.012.936-.576.98-.634.048-.728-.454-.75-.935-.071-1.531-.117-3.063-.039-4.6.221-.8.2-1.654.478-2.445.072-.206.118-.492.4-.476.249.014.233.293.308.471" transform="translate(-69.386 -74.172)" fill="#404042"/>
          <path id="Trazado_203918" data-name="Trazado 203918" d="M104.161,145.224c2.116-.533,2.78-1.23,2.933-3.08h1.218c.18,2.655-2.055,4.6-4.912,4.283l.762-1.2" transform="translate(-57.618 -79.207)" fill="#404042"/>
          <path id="Trazado_203919" data-name="Trazado 203919" d="M125.75,131.619c-.095-.117-.179-.321-.287-.334-.254-.03-.193.253-.238.389a9.369,9.369,0,0,1-.665,2.395l-.041-2q.027-.309.055-.618c.29-.581.031-1.208.17-1.861.4.345.313.89.6,1.257.226.021.17-.278.405-.329Z" transform="translate(-69.386 -72.212)" fill="#545557"/>
          <path id="Trazado_203920" data-name="Trazado 203920" d="M120.377,125.109c.052.421.406.766.307,1.225a11.73,11.73,0,0,1-1.861.848.611.611,0,0,1-.888-.317.637.637,0,0,1,.416-.911c.676-.28,1.35-.564,2.025-.846" transform="translate(-65.679 -69.715)" fill="#545456"/>
        </g>
      </g>
    </g>
  </g>
</svg>
